G04 #@! TF.FileFunction,Copper,L1,Top,Signal*
%FSLAX46Y46*%
G04 Gerber Fmt 4.6, Leading zero omitted, Abs format (unit mm)*
G04 Created by KiCad (PCBNEW 4.0.5+dfsg1-4) date Tue Nov  6 22:35:12 2018*
%MOMM*%
%LPD*%
G01*
G04 APERTURE LIST*
%ADD10C,0.100000*%
%ADD11C,2.000000*%
%ADD12C,1.208000*%
%ADD13O,2.800000X1.600000*%
%ADD14C,1.998980*%
%ADD15R,2.000000X2.000000*%
%ADD16O,1.600000X2.300000*%
%ADD17C,1.143000*%
%ADD18R,1.300000X1.300000*%
%ADD19C,1.300000*%
%ADD20C,8.000000*%
%ADD21R,3.000000X4.000000*%
%ADD22C,0.203200*%
G04 APERTURE END LIST*
D10*
D11*
X154559000Y-76399000D03*
X154559000Y-80899000D03*
X148059000Y-76399000D03*
X148059000Y-80899000D03*
D12*
X153259000Y-67310000D03*
X153259000Y-68910000D03*
X152059000Y-66510000D03*
X152059000Y-68110000D03*
X153259000Y-65710000D03*
D13*
X148209000Y-70993000D03*
X148209000Y-63627000D03*
D14*
X165100000Y-78613000D03*
X157480000Y-78613000D03*
D15*
X158623000Y-73406000D03*
D11*
X161163000Y-73406000D03*
D16*
X169799000Y-81153000D03*
X172339000Y-81153000D03*
X174879000Y-81153000D03*
X177419000Y-81153000D03*
X177419000Y-73533000D03*
X174879000Y-73533000D03*
X172339000Y-73533000D03*
X169799000Y-73533000D03*
D17*
X179070000Y-70866000D03*
D18*
X165100000Y-73025000D03*
D19*
X165100000Y-75525000D03*
D14*
X165100000Y-81661000D03*
X157480000Y-81661000D03*
D17*
X176657000Y-70866000D03*
X174117000Y-70866000D03*
D20*
X168436000Y-65405000D03*
D21*
X161036000Y-65405000D03*
X175836000Y-65405000D03*
D14*
X157099000Y-69342000D03*
X157099000Y-61722000D03*
D20*
X168436000Y-91948000D03*
D21*
X161036000Y-91948000D03*
X175836000Y-91948000D03*
D18*
X165100000Y-99568000D03*
D19*
X165100000Y-102068000D03*
D17*
X174117000Y-97409000D03*
X176657000Y-97409000D03*
X179070000Y-97409000D03*
D16*
X169799000Y-107696000D03*
X172339000Y-107696000D03*
X174879000Y-107696000D03*
X177419000Y-107696000D03*
X177419000Y-100076000D03*
X174879000Y-100076000D03*
X172339000Y-100076000D03*
X169799000Y-100076000D03*
D14*
X165100000Y-108204000D03*
X157480000Y-108204000D03*
D11*
X154559000Y-102942000D03*
X154559000Y-107442000D03*
X148059000Y-102942000D03*
X148059000Y-107442000D03*
D14*
X157099000Y-95885000D03*
X157099000Y-88265000D03*
D12*
X153259000Y-93853000D03*
X153259000Y-95453000D03*
X152059000Y-93053000D03*
X152059000Y-94653000D03*
X153259000Y-92253000D03*
D13*
X148209000Y-97536000D03*
X148209000Y-90170000D03*
D15*
X158623000Y-99949000D03*
D11*
X161163000Y-99949000D03*
D14*
X165100000Y-105156000D03*
X157480000Y-105156000D03*
D15*
X158623000Y-126492000D03*
D11*
X161163000Y-126492000D03*
X154559000Y-129485000D03*
X154559000Y-133985000D03*
X148059000Y-129485000D03*
X148059000Y-133985000D03*
D20*
X168436000Y-118491000D03*
D21*
X161036000Y-118491000D03*
X175836000Y-118491000D03*
D18*
X165100000Y-126111000D03*
D19*
X165100000Y-128611000D03*
D17*
X176657000Y-123952000D03*
X174117000Y-123952000D03*
X179070000Y-123952000D03*
D12*
X153259000Y-120396000D03*
X153259000Y-121996000D03*
X152059000Y-119596000D03*
X152059000Y-121196000D03*
X153259000Y-118796000D03*
D13*
X148209000Y-124079000D03*
X148209000Y-116713000D03*
D14*
X157099000Y-122428000D03*
X157099000Y-114808000D03*
X165100000Y-131699000D03*
X157480000Y-131699000D03*
X165100000Y-134747000D03*
X157480000Y-134747000D03*
D16*
X169799000Y-134239000D03*
X172339000Y-134239000D03*
X174879000Y-134239000D03*
X177419000Y-134239000D03*
X177419000Y-126619000D03*
X174879000Y-126619000D03*
X172339000Y-126619000D03*
X169799000Y-126619000D03*
D22*
X158242000Y-70485000D02*
X157099000Y-69342000D01*
X161163000Y-73406000D02*
X158242000Y-70485000D01*
X161163000Y-99949000D02*
X158242000Y-97028000D01*
X158242000Y-97028000D02*
X157099000Y-95885000D01*
X158242000Y-123571000D02*
X157099000Y-122428000D01*
X161163000Y-126492000D02*
X158242000Y-123571000D01*
X152059000Y-65564974D02*
X152059000Y-65655816D01*
X152059000Y-65655816D02*
X152059000Y-66510000D01*
X152822775Y-64801199D02*
X152059000Y-65564974D01*
X153695225Y-64801199D02*
X152822775Y-64801199D01*
X154813000Y-65918974D02*
X153695225Y-64801199D01*
X158877000Y-77851000D02*
X154813000Y-73787000D01*
X158877000Y-80264000D02*
X158877000Y-77851000D01*
X157480000Y-81661000D02*
X158877000Y-80264000D01*
X154813000Y-73787000D02*
X154813000Y-65918974D01*
X154813000Y-100330000D02*
X154813000Y-92461974D01*
X152059000Y-92198816D02*
X152059000Y-93053000D01*
X152059000Y-92107974D02*
X152059000Y-92198816D01*
X152822775Y-91344199D02*
X152059000Y-92107974D01*
X153695225Y-91344199D02*
X152822775Y-91344199D01*
X154813000Y-92461974D02*
X153695225Y-91344199D01*
X158877000Y-106807000D02*
X158877000Y-104394000D01*
X158877000Y-104394000D02*
X154813000Y-100330000D01*
X157480000Y-108204000D02*
X158877000Y-106807000D01*
X154813000Y-126873000D02*
X154813000Y-119004974D01*
X154813000Y-119004974D02*
X153695225Y-117887199D01*
X153695225Y-117887199D02*
X152822775Y-117887199D01*
X152822775Y-117887199D02*
X152059000Y-118650974D01*
X152059000Y-118650974D02*
X152059000Y-118741816D01*
X152059000Y-118741816D02*
X152059000Y-119596000D01*
X158877000Y-130937000D02*
X154813000Y-126873000D01*
X158877000Y-133350000D02*
X158877000Y-130937000D01*
X157480000Y-134747000D02*
X158877000Y-133350000D01*
X154406589Y-68457589D02*
X153862999Y-67913999D01*
X153862999Y-67913999D02*
X153259000Y-67310000D01*
X157480000Y-78613000D02*
X157480000Y-77199508D01*
X157480000Y-77199508D02*
X154406589Y-74126097D01*
X154406589Y-74126097D02*
X154406589Y-68457589D01*
X154406589Y-95000589D02*
X153862999Y-94456999D01*
X153862999Y-94456999D02*
X153259000Y-93853000D01*
X157480000Y-105156000D02*
X157480000Y-103742508D01*
X157480000Y-103742508D02*
X154406589Y-100669097D01*
X154406589Y-100669097D02*
X154406589Y-95000589D01*
X154406589Y-121543589D02*
X153862999Y-120999999D01*
X154406589Y-127212097D02*
X154406589Y-121543589D01*
X157480000Y-130285508D02*
X154406589Y-127212097D01*
X157480000Y-131699000D02*
X157480000Y-130285508D01*
X153862999Y-120999999D02*
X153259000Y-120396000D01*
X171234190Y-79698190D02*
X172339000Y-80803000D01*
X172339000Y-80803000D02*
X172339000Y-81153000D01*
X167062810Y-79698190D02*
X171234190Y-79698190D01*
X165100000Y-81661000D02*
X167062810Y-79698190D01*
X172339000Y-107346000D02*
X172339000Y-107696000D01*
X171234190Y-106241190D02*
X172339000Y-107346000D01*
X167062810Y-106241190D02*
X171234190Y-106241190D01*
X165100000Y-108204000D02*
X167062810Y-106241190D01*
X165100000Y-134747000D02*
X167062810Y-132784190D01*
X167062810Y-132784190D02*
X171234190Y-132784190D01*
X172339000Y-133889000D02*
X172339000Y-134239000D01*
X171234190Y-132784190D02*
X172339000Y-133889000D01*
X174879000Y-80803000D02*
X174879000Y-81153000D01*
X173324000Y-79248000D02*
X174879000Y-80803000D01*
X167148492Y-79248000D02*
X173324000Y-79248000D01*
X166513492Y-78613000D02*
X167148492Y-79248000D01*
X165100000Y-78613000D02*
X166513492Y-78613000D01*
X174879000Y-107346000D02*
X174879000Y-107696000D01*
X173324000Y-105791000D02*
X174879000Y-107346000D01*
X166513492Y-105156000D02*
X167148492Y-105791000D01*
X167148492Y-105791000D02*
X173324000Y-105791000D01*
X165100000Y-105156000D02*
X166513492Y-105156000D01*
X167148492Y-132334000D02*
X173324000Y-132334000D01*
X173324000Y-132334000D02*
X174879000Y-133889000D01*
X174879000Y-133889000D02*
X174879000Y-134239000D01*
X165100000Y-131699000D02*
X166513492Y-131699000D01*
X166513492Y-131699000D02*
X167148492Y-132334000D01*
X169799000Y-73533000D02*
X167513000Y-73533000D01*
X164246800Y-73025000D02*
X165100000Y-73025000D01*
X167513000Y-73533000D02*
X167005000Y-73025000D01*
X167005000Y-73025000D02*
X165100000Y-73025000D01*
X162111000Y-65405000D02*
X162111000Y-70889200D01*
X162111000Y-70889200D02*
X164246800Y-73025000D01*
X162111000Y-91948000D02*
X162111000Y-97432200D01*
X162111000Y-97432200D02*
X164246800Y-99568000D01*
X164246800Y-99568000D02*
X165100000Y-99568000D01*
X167005000Y-99568000D02*
X165100000Y-99568000D01*
X167513000Y-100076000D02*
X167005000Y-99568000D01*
X169799000Y-100076000D02*
X167513000Y-100076000D01*
X162111000Y-118491000D02*
X162111000Y-123975200D01*
X162111000Y-123975200D02*
X164246800Y-126111000D01*
X164246800Y-126111000D02*
X165100000Y-126111000D01*
X167513000Y-126619000D02*
X167005000Y-126111000D01*
X167005000Y-126111000D02*
X165100000Y-126111000D01*
X169799000Y-126619000D02*
X167513000Y-126619000D01*
X177419000Y-71628000D02*
X177419000Y-73533000D01*
X176657000Y-70866000D02*
X177419000Y-71628000D01*
X177419000Y-98171000D02*
X177419000Y-100076000D01*
X176657000Y-97409000D02*
X177419000Y-98171000D01*
X176657000Y-123952000D02*
X177419000Y-124714000D01*
X177419000Y-124714000D02*
X177419000Y-126619000D01*
X172339000Y-71835777D02*
X172339000Y-72179800D01*
X174117000Y-70866000D02*
X173308777Y-70866000D01*
X172339000Y-72179800D02*
X172339000Y-73533000D01*
X173308777Y-70866000D02*
X172339000Y-71835777D01*
X172339000Y-98378777D02*
X172339000Y-98722800D01*
X173308777Y-97409000D02*
X172339000Y-98378777D01*
X174117000Y-97409000D02*
X173308777Y-97409000D01*
X172339000Y-98722800D02*
X172339000Y-100076000D01*
X174117000Y-123952000D02*
X173308777Y-123952000D01*
X173308777Y-123952000D02*
X172339000Y-124921777D01*
X172339000Y-124921777D02*
X172339000Y-125265800D01*
X172339000Y-125265800D02*
X172339000Y-126619000D01*
X157099000Y-66802000D02*
X157099000Y-61722000D01*
X174879000Y-73883000D02*
X173774190Y-74987810D01*
X173774190Y-74987810D02*
X169341373Y-74987810D01*
X174879000Y-73533000D02*
X174879000Y-73883000D01*
X169341373Y-74987810D02*
X168923762Y-74570199D01*
X168923762Y-74570199D02*
X164867199Y-74570199D01*
X164867199Y-74570199D02*
X157099000Y-66802000D01*
X157099000Y-93345000D02*
X157099000Y-88265000D01*
X164867199Y-101113199D02*
X157099000Y-93345000D01*
X173774190Y-101530810D02*
X169341373Y-101530810D01*
X174879000Y-100426000D02*
X173774190Y-101530810D01*
X168923762Y-101113199D02*
X164867199Y-101113199D01*
X169341373Y-101530810D02*
X168923762Y-101113199D01*
X174879000Y-100076000D02*
X174879000Y-100426000D01*
X174879000Y-126619000D02*
X174879000Y-126969000D01*
X174879000Y-126969000D02*
X173774190Y-128073810D01*
X173774190Y-128073810D02*
X169341373Y-128073810D01*
X169341373Y-128073810D02*
X168923762Y-127656199D01*
X168923762Y-127656199D02*
X164867199Y-127656199D01*
X164867199Y-127656199D02*
X157099000Y-119888000D01*
X157099000Y-119888000D02*
X157099000Y-114808000D01*
X168795800Y-81153000D02*
X169799000Y-81153000D01*
X148059000Y-80899000D02*
X154559000Y-80899000D01*
X166983509Y-82965291D02*
X168795800Y-81153000D01*
X156625291Y-82965291D02*
X166983509Y-82965291D01*
X154559000Y-80899000D02*
X156625291Y-82965291D01*
X154559000Y-107442000D02*
X156625291Y-109508291D01*
X148059000Y-107442000D02*
X154559000Y-107442000D01*
X156625291Y-109508291D02*
X166983509Y-109508291D01*
X168795800Y-107696000D02*
X169799000Y-107696000D01*
X166983509Y-109508291D02*
X168795800Y-107696000D01*
X154559000Y-133985000D02*
X156625291Y-136051291D01*
X166983509Y-136051291D02*
X168795800Y-134239000D01*
X156625291Y-136051291D02*
X166983509Y-136051291D01*
X168795800Y-134239000D02*
X169799000Y-134239000D01*
X148059000Y-133985000D02*
X154559000Y-133985000D01*
G36*
X178944200Y-120015000D02*
X178955359Y-120071099D01*
X178961393Y-120127978D01*
X178969715Y-120143269D01*
X178973111Y-120160343D01*
X179004888Y-120207901D01*
X179032230Y-120258142D01*
X180214200Y-121676507D01*
X180214200Y-136387493D01*
X179032230Y-137805858D01*
X179004888Y-137856099D01*
X178973111Y-137903657D01*
X178969715Y-137920731D01*
X178961393Y-137936022D01*
X178955359Y-137992901D01*
X178944200Y-138049000D01*
X178944200Y-138685200D01*
X146405600Y-138685200D01*
X146405600Y-137541000D01*
X146686200Y-137541000D01*
X146773114Y-137977948D01*
X147020625Y-138348375D01*
X147391052Y-138595886D01*
X147828000Y-138682800D01*
X148264948Y-138595886D01*
X148635375Y-138348375D01*
X148882886Y-137977948D01*
X148969800Y-137541000D01*
X176658200Y-137541000D01*
X176745114Y-137977948D01*
X176992625Y-138348375D01*
X177363052Y-138595886D01*
X177800000Y-138682800D01*
X178236948Y-138595886D01*
X178607375Y-138348375D01*
X178854886Y-137977948D01*
X178941800Y-137541000D01*
X178854886Y-137104052D01*
X178607375Y-136733625D01*
X178236948Y-136486114D01*
X177800000Y-136399200D01*
X177363052Y-136486114D01*
X176992625Y-136733625D01*
X176745114Y-137104052D01*
X176658200Y-137541000D01*
X148969800Y-137541000D01*
X148882886Y-137104052D01*
X148635375Y-136733625D01*
X148264948Y-136486114D01*
X147828000Y-136399200D01*
X147391052Y-136486114D01*
X147020625Y-136733625D01*
X146773114Y-137104052D01*
X146686200Y-137541000D01*
X146405600Y-137541000D01*
X146405600Y-134243402D01*
X146753974Y-134243402D01*
X146952199Y-134723144D01*
X147318925Y-135090511D01*
X147798320Y-135289573D01*
X148317402Y-135290026D01*
X148797144Y-135091801D01*
X149164511Y-134725075D01*
X149303065Y-134391400D01*
X153315125Y-134391400D01*
X153452199Y-134723144D01*
X153818925Y-135090511D01*
X154298320Y-135289573D01*
X154817402Y-135290026D01*
X155151319Y-135152055D01*
X156337923Y-136338659D01*
X156469768Y-136426756D01*
X156625291Y-136457691D01*
X166983509Y-136457691D01*
X167139032Y-136426756D01*
X167270877Y-136338659D01*
X168743614Y-134865923D01*
X168778298Y-135040290D01*
X169017788Y-135398713D01*
X169376211Y-135638203D01*
X169799000Y-135722301D01*
X170221789Y-135638203D01*
X170580212Y-135398713D01*
X170819702Y-135040290D01*
X170903800Y-134617501D01*
X170903800Y-133860499D01*
X170819702Y-133437710D01*
X170654582Y-133190590D01*
X171065854Y-133190590D01*
X171317415Y-133442151D01*
X171234200Y-133860499D01*
X171234200Y-134617501D01*
X171318298Y-135040290D01*
X171557788Y-135398713D01*
X171916211Y-135638203D01*
X172339000Y-135722301D01*
X172761789Y-135638203D01*
X173120212Y-135398713D01*
X173359702Y-135040290D01*
X173443800Y-134617501D01*
X173443800Y-133860499D01*
X173359702Y-133437710D01*
X173120212Y-133079287D01*
X172761789Y-132839797D01*
X172339000Y-132755699D01*
X171916211Y-132839797D01*
X171885232Y-132860496D01*
X171765136Y-132740400D01*
X173155664Y-132740400D01*
X173857415Y-133442151D01*
X173774200Y-133860499D01*
X173774200Y-134617501D01*
X173858298Y-135040290D01*
X174097788Y-135398713D01*
X174456211Y-135638203D01*
X174879000Y-135722301D01*
X175301789Y-135638203D01*
X175660212Y-135398713D01*
X175899702Y-135040290D01*
X175983800Y-134617501D01*
X175983800Y-134391400D01*
X176314200Y-134391400D01*
X176314200Y-134741400D01*
X176456619Y-135152588D01*
X176745552Y-135477975D01*
X177097300Y-135645926D01*
X177266600Y-135606247D01*
X177266600Y-134391400D01*
X177571400Y-134391400D01*
X177571400Y-135606247D01*
X177740700Y-135645926D01*
X178092448Y-135477975D01*
X178381381Y-135152588D01*
X178523800Y-134741400D01*
X178523800Y-134391400D01*
X177571400Y-134391400D01*
X177266600Y-134391400D01*
X176314200Y-134391400D01*
X175983800Y-134391400D01*
X175983800Y-133860499D01*
X175959155Y-133736600D01*
X176314200Y-133736600D01*
X176314200Y-134086600D01*
X177266600Y-134086600D01*
X177266600Y-132871753D01*
X177571400Y-132871753D01*
X177571400Y-134086600D01*
X178523800Y-134086600D01*
X178523800Y-133736600D01*
X178381381Y-133325412D01*
X178092448Y-133000025D01*
X177740700Y-132832074D01*
X177571400Y-132871753D01*
X177266600Y-132871753D01*
X177097300Y-132832074D01*
X176745552Y-133000025D01*
X176456619Y-133325412D01*
X176314200Y-133736600D01*
X175959155Y-133736600D01*
X175899702Y-133437710D01*
X175660212Y-133079287D01*
X175301789Y-132839797D01*
X174879000Y-132755699D01*
X174456211Y-132839797D01*
X174425232Y-132860496D01*
X173611368Y-132046632D01*
X173479523Y-131958535D01*
X173324000Y-131927600D01*
X167316828Y-131927600D01*
X166800860Y-131411632D01*
X166669015Y-131323535D01*
X166513492Y-131292600D01*
X166343323Y-131292600D01*
X166206368Y-130961144D01*
X165839786Y-130593921D01*
X165360578Y-130394936D01*
X164841699Y-130394484D01*
X164362144Y-130592632D01*
X163994921Y-130959214D01*
X163795936Y-131438422D01*
X163795484Y-131957301D01*
X163993632Y-132436856D01*
X164360214Y-132804079D01*
X164839422Y-133003064D01*
X165358301Y-133003516D01*
X165837856Y-132805368D01*
X166205079Y-132438786D01*
X166343513Y-132105400D01*
X166345156Y-132105400D01*
X166756010Y-132516254D01*
X165691794Y-133580469D01*
X165360578Y-133442936D01*
X164841699Y-133442484D01*
X164362144Y-133640632D01*
X163994921Y-134007214D01*
X163795936Y-134486422D01*
X163795484Y-135005301D01*
X163993632Y-135484856D01*
X164153388Y-135644891D01*
X158426698Y-135644891D01*
X158585079Y-135486786D01*
X158784064Y-135007578D01*
X158784516Y-134488699D01*
X158646664Y-134155072D01*
X159164368Y-133637368D01*
X159252465Y-133505523D01*
X159283400Y-133350000D01*
X159283400Y-130937000D01*
X159252465Y-130781477D01*
X159164368Y-130649632D01*
X157858772Y-129344036D01*
X164582490Y-129344036D01*
X164658137Y-129478451D01*
X165023730Y-129581514D01*
X165400935Y-129536826D01*
X165541863Y-129478451D01*
X165617510Y-129344036D01*
X165100000Y-128826526D01*
X164582490Y-129344036D01*
X157858772Y-129344036D01*
X157049466Y-128534730D01*
X164129486Y-128534730D01*
X164174174Y-128911935D01*
X164232549Y-129052863D01*
X164366964Y-129128510D01*
X164884474Y-128611000D01*
X164366964Y-128093490D01*
X164232549Y-128169137D01*
X164129486Y-128534730D01*
X157049466Y-128534730D01*
X155235336Y-126720600D01*
X157318200Y-126720600D01*
X157318200Y-127552628D01*
X157364603Y-127664655D01*
X157450344Y-127750397D01*
X157562371Y-127796800D01*
X158394400Y-127796800D01*
X158470600Y-127720600D01*
X158470600Y-126644400D01*
X157394400Y-126644400D01*
X157318200Y-126720600D01*
X155235336Y-126720600D01*
X155219400Y-126704664D01*
X155219400Y-125431372D01*
X157318200Y-125431372D01*
X157318200Y-126263400D01*
X157394400Y-126339600D01*
X158470600Y-126339600D01*
X158470600Y-125263400D01*
X158394400Y-125187200D01*
X157562371Y-125187200D01*
X157450344Y-125233603D01*
X157364603Y-125319345D01*
X157318200Y-125431372D01*
X155219400Y-125431372D01*
X155219400Y-122686301D01*
X155794484Y-122686301D01*
X155992632Y-123165856D01*
X156359214Y-123533079D01*
X156838422Y-123732064D01*
X157357301Y-123732516D01*
X157690928Y-123594664D01*
X159283464Y-125187200D01*
X158851600Y-125187200D01*
X158775400Y-125263400D01*
X158775400Y-126339600D01*
X158795400Y-126339600D01*
X158795400Y-126644400D01*
X158775400Y-126644400D01*
X158775400Y-127720600D01*
X158851600Y-127796800D01*
X159683629Y-127796800D01*
X159795656Y-127750397D01*
X159881397Y-127664655D01*
X159927800Y-127552628D01*
X159927800Y-126919394D01*
X160056199Y-127230144D01*
X160422925Y-127597511D01*
X160902320Y-127796573D01*
X161421402Y-127797026D01*
X161901144Y-127598801D01*
X162268511Y-127232075D01*
X162467573Y-126752680D01*
X162468026Y-126233598D01*
X162269801Y-125753856D01*
X161903075Y-125386489D01*
X161423680Y-125187427D01*
X160904598Y-125186974D01*
X160570681Y-125324945D01*
X158265531Y-123019795D01*
X158403064Y-122688578D01*
X158403516Y-122169699D01*
X158205368Y-121690144D01*
X157838786Y-121322921D01*
X157359578Y-121123936D01*
X156840699Y-121123484D01*
X156361144Y-121321632D01*
X155993921Y-121688214D01*
X155794936Y-122167422D01*
X155794484Y-122686301D01*
X155219400Y-122686301D01*
X155219400Y-119004974D01*
X155213948Y-118977564D01*
X155188466Y-118849452D01*
X155100369Y-118717606D01*
X153982593Y-117599831D01*
X153850748Y-117511734D01*
X153695225Y-117480799D01*
X152822775Y-117480799D01*
X152667252Y-117511734D01*
X152535407Y-117599831D01*
X151771632Y-118363606D01*
X151683535Y-118495451D01*
X151652600Y-118650974D01*
X151652600Y-118780599D01*
X151544879Y-118825108D01*
X151289006Y-119080534D01*
X151150359Y-119414436D01*
X151150043Y-119775978D01*
X151288108Y-120110121D01*
X151543534Y-120365994D01*
X151615562Y-120395902D01*
X151544879Y-120425108D01*
X151289006Y-120680534D01*
X151150359Y-121014436D01*
X151150043Y-121375978D01*
X151288108Y-121710121D01*
X151543534Y-121965994D01*
X151877436Y-122104641D01*
X152238978Y-122104957D01*
X152350885Y-122058718D01*
X152380108Y-122289502D01*
X152429992Y-122409933D01*
X152559645Y-122479829D01*
X153043474Y-121996000D01*
X153029332Y-121981858D01*
X153244858Y-121766332D01*
X153259000Y-121780474D01*
X153273143Y-121766332D01*
X153488669Y-121981858D01*
X153474526Y-121996000D01*
X153958355Y-122479829D01*
X154000189Y-122457276D01*
X154000189Y-127212097D01*
X154031124Y-127367620D01*
X154119221Y-127499465D01*
X154815732Y-128195976D01*
X154719334Y-128164334D01*
X154201732Y-128203507D01*
X153905474Y-128326221D01*
X153786508Y-128496982D01*
X154559000Y-129269474D01*
X154573143Y-129255332D01*
X154788669Y-129470858D01*
X154774526Y-129485000D01*
X155547018Y-130257492D01*
X155717779Y-130138526D01*
X155879666Y-129645334D01*
X155848108Y-129228353D01*
X157073600Y-130453845D01*
X157073600Y-130455677D01*
X156742144Y-130592632D01*
X156374921Y-130959214D01*
X156175936Y-131438422D01*
X156175484Y-131957301D01*
X156373632Y-132436856D01*
X156740214Y-132804079D01*
X157219422Y-133003064D01*
X157738301Y-133003516D01*
X158217856Y-132805368D01*
X158470600Y-132553065D01*
X158470600Y-133181664D01*
X158071795Y-133580469D01*
X157740578Y-133442936D01*
X157221699Y-133442484D01*
X156742144Y-133640632D01*
X156374921Y-134007214D01*
X156175936Y-134486422D01*
X156175484Y-135005301D01*
X156190586Y-135041850D01*
X155725920Y-134577184D01*
X155863573Y-134245680D01*
X155864026Y-133726598D01*
X155665801Y-133246856D01*
X155299075Y-132879489D01*
X154819680Y-132680427D01*
X154300598Y-132679974D01*
X153820856Y-132878199D01*
X153453489Y-133244925D01*
X153314935Y-133578600D01*
X149302875Y-133578600D01*
X149165801Y-133246856D01*
X148799075Y-132879489D01*
X148319680Y-132680427D01*
X147800598Y-132679974D01*
X147320856Y-132878199D01*
X146953489Y-133244925D01*
X146754427Y-133724320D01*
X146753974Y-134243402D01*
X146405600Y-134243402D01*
X146405600Y-130473018D01*
X147286508Y-130473018D01*
X147405474Y-130643779D01*
X147898666Y-130805666D01*
X148416268Y-130766493D01*
X148712526Y-130643779D01*
X148831492Y-130473018D01*
X153786508Y-130473018D01*
X153905474Y-130643779D01*
X154398666Y-130805666D01*
X154916268Y-130766493D01*
X155212526Y-130643779D01*
X155331492Y-130473018D01*
X154559000Y-129700526D01*
X153786508Y-130473018D01*
X148831492Y-130473018D01*
X148059000Y-129700526D01*
X147286508Y-130473018D01*
X146405600Y-130473018D01*
X146405600Y-129324666D01*
X146738334Y-129324666D01*
X146777507Y-129842268D01*
X146900221Y-130138526D01*
X147070982Y-130257492D01*
X147843474Y-129485000D01*
X148274526Y-129485000D01*
X149047018Y-130257492D01*
X149217779Y-130138526D01*
X149379666Y-129645334D01*
X149355398Y-129324666D01*
X153238334Y-129324666D01*
X153277507Y-129842268D01*
X153400221Y-130138526D01*
X153570982Y-130257492D01*
X154343474Y-129485000D01*
X153570982Y-128712508D01*
X153400221Y-128831474D01*
X153238334Y-129324666D01*
X149355398Y-129324666D01*
X149340493Y-129127732D01*
X149217779Y-128831474D01*
X149047018Y-128712508D01*
X148274526Y-129485000D01*
X147843474Y-129485000D01*
X147070982Y-128712508D01*
X146900221Y-128831474D01*
X146738334Y-129324666D01*
X146405600Y-129324666D01*
X146405600Y-128496982D01*
X147286508Y-128496982D01*
X148059000Y-129269474D01*
X148831492Y-128496982D01*
X148712526Y-128326221D01*
X148219334Y-128164334D01*
X147701732Y-128203507D01*
X147405474Y-128326221D01*
X147286508Y-128496982D01*
X146405600Y-128496982D01*
X146405600Y-123757300D01*
X146552074Y-123757300D01*
X146591753Y-123926600D01*
X146971928Y-123926600D01*
X146960009Y-123986522D01*
X146960007Y-123986527D01*
X146960008Y-124046000D01*
X146960007Y-124105473D01*
X146960009Y-124105478D01*
X146985056Y-124231400D01*
X146591753Y-124231400D01*
X146552074Y-124400700D01*
X146720025Y-124752448D01*
X147045412Y-125041381D01*
X147456600Y-125183800D01*
X148056600Y-125183800D01*
X148056600Y-124700850D01*
X148361400Y-124700850D01*
X148361400Y-125183800D01*
X148961400Y-125183800D01*
X149372588Y-125041381D01*
X149697975Y-124752448D01*
X149865926Y-124400700D01*
X149826247Y-124231400D01*
X149432944Y-124231400D01*
X149457991Y-124105478D01*
X149457993Y-124105473D01*
X149457993Y-123986527D01*
X149457991Y-123986522D01*
X149446072Y-123926600D01*
X149826247Y-123926600D01*
X149865926Y-123757300D01*
X149697975Y-123405552D01*
X149372588Y-123116619D01*
X148961400Y-122974200D01*
X148361400Y-122974200D01*
X148361400Y-123391150D01*
X148056600Y-123391150D01*
X148056600Y-122974200D01*
X147456600Y-122974200D01*
X147045412Y-123116619D01*
X146720025Y-123405552D01*
X146552074Y-123757300D01*
X146405600Y-123757300D01*
X146405600Y-122695355D01*
X152775171Y-122695355D01*
X152845067Y-122825008D01*
X153193823Y-122920309D01*
X153552502Y-122874892D01*
X153672933Y-122825008D01*
X153742829Y-122695355D01*
X153259000Y-122211526D01*
X152775171Y-122695355D01*
X146405600Y-122695355D01*
X146405600Y-116391300D01*
X146552074Y-116391300D01*
X146591753Y-116560600D01*
X146985056Y-116560600D01*
X146960009Y-116686522D01*
X146960007Y-116686527D01*
X146960008Y-116746000D01*
X146960007Y-116805473D01*
X146960009Y-116805478D01*
X146971928Y-116865400D01*
X146591753Y-116865400D01*
X146552074Y-117034700D01*
X146720025Y-117386448D01*
X147045412Y-117675381D01*
X147456600Y-117817800D01*
X148056600Y-117817800D01*
X148056600Y-117400850D01*
X148361400Y-117400850D01*
X148361400Y-117817800D01*
X148961400Y-117817800D01*
X149372588Y-117675381D01*
X149697975Y-117386448D01*
X149865926Y-117034700D01*
X149826247Y-116865400D01*
X149446072Y-116865400D01*
X149457991Y-116805478D01*
X149457993Y-116805473D01*
X149457993Y-116686527D01*
X149457991Y-116686522D01*
X149432944Y-116560600D01*
X149826247Y-116560600D01*
X149865926Y-116391300D01*
X149697975Y-116039552D01*
X149372588Y-115750619D01*
X148961400Y-115608200D01*
X148361400Y-115608200D01*
X148361400Y-116091150D01*
X148056600Y-116091150D01*
X148056600Y-115608200D01*
X147456600Y-115608200D01*
X147045412Y-115750619D01*
X146720025Y-116039552D01*
X146552074Y-116391300D01*
X146405600Y-116391300D01*
X146405600Y-114046000D01*
X146686200Y-114046000D01*
X146773114Y-114482948D01*
X147020625Y-114853375D01*
X147391052Y-115100886D01*
X147828000Y-115187800D01*
X148264948Y-115100886D01*
X148316708Y-115066301D01*
X155794484Y-115066301D01*
X155992632Y-115545856D01*
X156359214Y-115913079D01*
X156692600Y-116051513D01*
X156692600Y-119888000D01*
X156723535Y-120043523D01*
X156767040Y-120108632D01*
X156811632Y-120175368D01*
X164579831Y-127943567D01*
X164711676Y-128031664D01*
X164742277Y-128037751D01*
X165100000Y-128395474D01*
X165114143Y-128381332D01*
X165329669Y-128596858D01*
X165315526Y-128611000D01*
X165833036Y-129128510D01*
X165967451Y-129052863D01*
X166070514Y-128687270D01*
X166025826Y-128310065D01*
X165967451Y-128169137D01*
X165833038Y-128093491D01*
X165863930Y-128062599D01*
X168755426Y-128062599D01*
X169054005Y-128361178D01*
X169185850Y-128449275D01*
X169341373Y-128480210D01*
X173774190Y-128480210D01*
X173929713Y-128449275D01*
X174061558Y-128361178D01*
X174425232Y-127997504D01*
X174456211Y-128018203D01*
X174879000Y-128102301D01*
X175301789Y-128018203D01*
X175660212Y-127778713D01*
X175899702Y-127420290D01*
X175983800Y-126997501D01*
X175983800Y-126240499D01*
X175899702Y-125817710D01*
X175660212Y-125459287D01*
X175301789Y-125219797D01*
X174879000Y-125135699D01*
X174456211Y-125219797D01*
X174097788Y-125459287D01*
X173858298Y-125817710D01*
X173774200Y-126240499D01*
X173774200Y-126997501D01*
X173857415Y-127415849D01*
X173605854Y-127667410D01*
X173194582Y-127667410D01*
X173359702Y-127420290D01*
X173443800Y-126997501D01*
X173443800Y-126240499D01*
X173359702Y-125817710D01*
X173120212Y-125459287D01*
X172761789Y-125219797D01*
X172745400Y-125216537D01*
X172745400Y-125090113D01*
X173380720Y-124454793D01*
X173619968Y-124694458D01*
X173941928Y-124828148D01*
X174290542Y-124828452D01*
X174612736Y-124695324D01*
X174859458Y-124449032D01*
X174993148Y-124127072D01*
X174993149Y-124125542D01*
X175780548Y-124125542D01*
X175913676Y-124447736D01*
X176159968Y-124694458D01*
X176481928Y-124828148D01*
X176830542Y-124828452D01*
X176921240Y-124790976D01*
X177012600Y-124882336D01*
X177012600Y-125216537D01*
X176996211Y-125219797D01*
X176637788Y-125459287D01*
X176398298Y-125817710D01*
X176314200Y-126240499D01*
X176314200Y-126997501D01*
X176398298Y-127420290D01*
X176637788Y-127778713D01*
X176996211Y-128018203D01*
X177419000Y-128102301D01*
X177841789Y-128018203D01*
X178200212Y-127778713D01*
X178439702Y-127420290D01*
X178523800Y-126997501D01*
X178523800Y-126240499D01*
X178439702Y-125817710D01*
X178200212Y-125459287D01*
X177841789Y-125219797D01*
X177825400Y-125216537D01*
X177825400Y-124714000D01*
X177808199Y-124627522D01*
X178610004Y-124627522D01*
X178675823Y-124753817D01*
X179012670Y-124843628D01*
X179358245Y-124797697D01*
X179464177Y-124753817D01*
X179529996Y-124627522D01*
X179070000Y-124167526D01*
X178610004Y-124627522D01*
X177808199Y-124627522D01*
X177794465Y-124558477D01*
X177706368Y-124426632D01*
X177496079Y-124216343D01*
X177533148Y-124127072D01*
X177533350Y-123894670D01*
X178178372Y-123894670D01*
X178224303Y-124240245D01*
X178268183Y-124346177D01*
X178394478Y-124411996D01*
X178854474Y-123952000D01*
X179285526Y-123952000D01*
X179745522Y-124411996D01*
X179871817Y-124346177D01*
X179961628Y-124009330D01*
X179915697Y-123663755D01*
X179871817Y-123557823D01*
X179745522Y-123492004D01*
X179285526Y-123952000D01*
X178854474Y-123952000D01*
X178394478Y-123492004D01*
X178268183Y-123557823D01*
X178178372Y-123894670D01*
X177533350Y-123894670D01*
X177533452Y-123778458D01*
X177400324Y-123456264D01*
X177220852Y-123276478D01*
X178610004Y-123276478D01*
X179070000Y-123736474D01*
X179529996Y-123276478D01*
X179464177Y-123150183D01*
X179127330Y-123060372D01*
X178781755Y-123106303D01*
X178675823Y-123150183D01*
X178610004Y-123276478D01*
X177220852Y-123276478D01*
X177154032Y-123209542D01*
X176832072Y-123075852D01*
X176483458Y-123075548D01*
X176161264Y-123208676D01*
X175914542Y-123454968D01*
X175780852Y-123776928D01*
X175780548Y-124125542D01*
X174993149Y-124125542D01*
X174993452Y-123778458D01*
X174860324Y-123456264D01*
X174614032Y-123209542D01*
X174292072Y-123075852D01*
X173943458Y-123075548D01*
X173621264Y-123208676D01*
X173374542Y-123454968D01*
X173336908Y-123545600D01*
X173308777Y-123545600D01*
X173153254Y-123576535D01*
X173074514Y-123629148D01*
X173021409Y-123664632D01*
X172051632Y-124634409D01*
X171963535Y-124766254D01*
X171932600Y-124921777D01*
X171932600Y-125216537D01*
X171916211Y-125219797D01*
X171557788Y-125459287D01*
X171318298Y-125817710D01*
X171234200Y-126240499D01*
X171234200Y-126997501D01*
X171318298Y-127420290D01*
X171483418Y-127667410D01*
X170654582Y-127667410D01*
X170819702Y-127420290D01*
X170903800Y-126997501D01*
X170903800Y-126240499D01*
X170819702Y-125817710D01*
X170580212Y-125459287D01*
X170221789Y-125219797D01*
X169799000Y-125135699D01*
X169376211Y-125219797D01*
X169017788Y-125459287D01*
X168778298Y-125817710D01*
X168699749Y-126212600D01*
X167681337Y-126212600D01*
X167292368Y-125823632D01*
X167283505Y-125817710D01*
X167160523Y-125735535D01*
X167005000Y-125704600D01*
X166060771Y-125704600D01*
X166060771Y-125461000D01*
X166039518Y-125348048D01*
X165972763Y-125244308D01*
X165870907Y-125174713D01*
X165750000Y-125150229D01*
X164450000Y-125150229D01*
X164337048Y-125171482D01*
X164233308Y-125238237D01*
X164163713Y-125340093D01*
X164144670Y-125434134D01*
X162517400Y-123806864D01*
X162517400Y-121646565D01*
X165495961Y-121646565D01*
X165980981Y-122129322D01*
X167560185Y-122791867D01*
X169272723Y-122799643D01*
X170857877Y-122151467D01*
X170891019Y-122129322D01*
X171376039Y-121646565D01*
X168436000Y-118706526D01*
X165495961Y-121646565D01*
X162517400Y-121646565D01*
X162517400Y-120801771D01*
X162536000Y-120801771D01*
X162648952Y-120780518D01*
X162752692Y-120713763D01*
X162822287Y-120611907D01*
X162846771Y-120491000D01*
X162846771Y-119327723D01*
X164127357Y-119327723D01*
X164775533Y-120912877D01*
X164797678Y-120946019D01*
X165280435Y-121431039D01*
X168220474Y-118491000D01*
X168651526Y-118491000D01*
X171591565Y-121431039D01*
X172074322Y-120946019D01*
X172736867Y-119366815D01*
X172744643Y-117654277D01*
X172268975Y-116491000D01*
X174025229Y-116491000D01*
X174025229Y-120491000D01*
X174046482Y-120603952D01*
X174113237Y-120707692D01*
X174215093Y-120777287D01*
X174336000Y-120801771D01*
X177336000Y-120801771D01*
X177448952Y-120780518D01*
X177552692Y-120713763D01*
X177622287Y-120611907D01*
X177646771Y-120491000D01*
X177646771Y-116491000D01*
X177625518Y-116378048D01*
X177558763Y-116274308D01*
X177456907Y-116204713D01*
X177336000Y-116180229D01*
X174336000Y-116180229D01*
X174223048Y-116201482D01*
X174119308Y-116268237D01*
X174049713Y-116370093D01*
X174025229Y-116491000D01*
X172268975Y-116491000D01*
X172096467Y-116069123D01*
X172074322Y-116035981D01*
X171591565Y-115550961D01*
X168651526Y-118491000D01*
X168220474Y-118491000D01*
X165280435Y-115550961D01*
X164797678Y-116035981D01*
X164135133Y-117615185D01*
X164127357Y-119327723D01*
X162846771Y-119327723D01*
X162846771Y-116491000D01*
X162825518Y-116378048D01*
X162758763Y-116274308D01*
X162656907Y-116204713D01*
X162536000Y-116180229D01*
X159536000Y-116180229D01*
X159423048Y-116201482D01*
X159319308Y-116268237D01*
X159249713Y-116370093D01*
X159225229Y-116491000D01*
X159225229Y-120491000D01*
X159246482Y-120603952D01*
X159313237Y-120707692D01*
X159415093Y-120777287D01*
X159536000Y-120801771D01*
X161704600Y-120801771D01*
X161704600Y-123918864D01*
X157505400Y-119719664D01*
X157505400Y-116051323D01*
X157836856Y-115914368D01*
X158204079Y-115547786D01*
X158292255Y-115335435D01*
X165495961Y-115335435D01*
X168436000Y-118275474D01*
X171376039Y-115335435D01*
X170891019Y-114852678D01*
X169311815Y-114190133D01*
X167599277Y-114182357D01*
X166014123Y-114830533D01*
X165980981Y-114852678D01*
X165495961Y-115335435D01*
X158292255Y-115335435D01*
X158403064Y-115068578D01*
X158403516Y-114549699D01*
X158205368Y-114070144D01*
X158181267Y-114046000D01*
X176658200Y-114046000D01*
X176745114Y-114482948D01*
X176992625Y-114853375D01*
X177363052Y-115100886D01*
X177800000Y-115187800D01*
X178236948Y-115100886D01*
X178607375Y-114853375D01*
X178854886Y-114482948D01*
X178941800Y-114046000D01*
X178854886Y-113609052D01*
X178607375Y-113238625D01*
X178236948Y-112991114D01*
X177800000Y-112904200D01*
X177363052Y-112991114D01*
X176992625Y-113238625D01*
X176745114Y-113609052D01*
X176658200Y-114046000D01*
X158181267Y-114046000D01*
X157838786Y-113702921D01*
X157359578Y-113503936D01*
X156840699Y-113503484D01*
X156361144Y-113701632D01*
X155993921Y-114068214D01*
X155794936Y-114547422D01*
X155794484Y-115066301D01*
X148316708Y-115066301D01*
X148635375Y-114853375D01*
X148882886Y-114482948D01*
X148969800Y-114046000D01*
X148882886Y-113609052D01*
X148635375Y-113238625D01*
X148264948Y-112991114D01*
X147828000Y-112904200D01*
X147391052Y-112991114D01*
X147020625Y-113238625D01*
X146773114Y-113609052D01*
X146686200Y-114046000D01*
X146405600Y-114046000D01*
X146405600Y-112623600D01*
X178944200Y-112623600D01*
X178944200Y-120015000D01*
X178944200Y-120015000D01*
G37*
X178944200Y-120015000D02*
X178955359Y-120071099D01*
X178961393Y-120127978D01*
X178969715Y-120143269D01*
X178973111Y-120160343D01*
X179004888Y-120207901D01*
X179032230Y-120258142D01*
X180214200Y-121676507D01*
X180214200Y-136387493D01*
X179032230Y-137805858D01*
X179004888Y-137856099D01*
X178973111Y-137903657D01*
X178969715Y-137920731D01*
X178961393Y-137936022D01*
X178955359Y-137992901D01*
X178944200Y-138049000D01*
X178944200Y-138685200D01*
X146405600Y-138685200D01*
X146405600Y-137541000D01*
X146686200Y-137541000D01*
X146773114Y-137977948D01*
X147020625Y-138348375D01*
X147391052Y-138595886D01*
X147828000Y-138682800D01*
X148264948Y-138595886D01*
X148635375Y-138348375D01*
X148882886Y-137977948D01*
X148969800Y-137541000D01*
X176658200Y-137541000D01*
X176745114Y-137977948D01*
X176992625Y-138348375D01*
X177363052Y-138595886D01*
X177800000Y-138682800D01*
X178236948Y-138595886D01*
X178607375Y-138348375D01*
X178854886Y-137977948D01*
X178941800Y-137541000D01*
X178854886Y-137104052D01*
X178607375Y-136733625D01*
X178236948Y-136486114D01*
X177800000Y-136399200D01*
X177363052Y-136486114D01*
X176992625Y-136733625D01*
X176745114Y-137104052D01*
X176658200Y-137541000D01*
X148969800Y-137541000D01*
X148882886Y-137104052D01*
X148635375Y-136733625D01*
X148264948Y-136486114D01*
X147828000Y-136399200D01*
X147391052Y-136486114D01*
X147020625Y-136733625D01*
X146773114Y-137104052D01*
X146686200Y-137541000D01*
X146405600Y-137541000D01*
X146405600Y-134243402D01*
X146753974Y-134243402D01*
X146952199Y-134723144D01*
X147318925Y-135090511D01*
X147798320Y-135289573D01*
X148317402Y-135290026D01*
X148797144Y-135091801D01*
X149164511Y-134725075D01*
X149303065Y-134391400D01*
X153315125Y-134391400D01*
X153452199Y-134723144D01*
X153818925Y-135090511D01*
X154298320Y-135289573D01*
X154817402Y-135290026D01*
X155151319Y-135152055D01*
X156337923Y-136338659D01*
X156469768Y-136426756D01*
X156625291Y-136457691D01*
X166983509Y-136457691D01*
X167139032Y-136426756D01*
X167270877Y-136338659D01*
X168743614Y-134865923D01*
X168778298Y-135040290D01*
X169017788Y-135398713D01*
X169376211Y-135638203D01*
X169799000Y-135722301D01*
X170221789Y-135638203D01*
X170580212Y-135398713D01*
X170819702Y-135040290D01*
X170903800Y-134617501D01*
X170903800Y-133860499D01*
X170819702Y-133437710D01*
X170654582Y-133190590D01*
X171065854Y-133190590D01*
X171317415Y-133442151D01*
X171234200Y-133860499D01*
X171234200Y-134617501D01*
X171318298Y-135040290D01*
X171557788Y-135398713D01*
X171916211Y-135638203D01*
X172339000Y-135722301D01*
X172761789Y-135638203D01*
X173120212Y-135398713D01*
X173359702Y-135040290D01*
X173443800Y-134617501D01*
X173443800Y-133860499D01*
X173359702Y-133437710D01*
X173120212Y-133079287D01*
X172761789Y-132839797D01*
X172339000Y-132755699D01*
X171916211Y-132839797D01*
X171885232Y-132860496D01*
X171765136Y-132740400D01*
X173155664Y-132740400D01*
X173857415Y-133442151D01*
X173774200Y-133860499D01*
X173774200Y-134617501D01*
X173858298Y-135040290D01*
X174097788Y-135398713D01*
X174456211Y-135638203D01*
X174879000Y-135722301D01*
X175301789Y-135638203D01*
X175660212Y-135398713D01*
X175899702Y-135040290D01*
X175983800Y-134617501D01*
X175983800Y-134391400D01*
X176314200Y-134391400D01*
X176314200Y-134741400D01*
X176456619Y-135152588D01*
X176745552Y-135477975D01*
X177097300Y-135645926D01*
X177266600Y-135606247D01*
X177266600Y-134391400D01*
X177571400Y-134391400D01*
X177571400Y-135606247D01*
X177740700Y-135645926D01*
X178092448Y-135477975D01*
X178381381Y-135152588D01*
X178523800Y-134741400D01*
X178523800Y-134391400D01*
X177571400Y-134391400D01*
X177266600Y-134391400D01*
X176314200Y-134391400D01*
X175983800Y-134391400D01*
X175983800Y-133860499D01*
X175959155Y-133736600D01*
X176314200Y-133736600D01*
X176314200Y-134086600D01*
X177266600Y-134086600D01*
X177266600Y-132871753D01*
X177571400Y-132871753D01*
X177571400Y-134086600D01*
X178523800Y-134086600D01*
X178523800Y-133736600D01*
X178381381Y-133325412D01*
X178092448Y-133000025D01*
X177740700Y-132832074D01*
X177571400Y-132871753D01*
X177266600Y-132871753D01*
X177097300Y-132832074D01*
X176745552Y-133000025D01*
X176456619Y-133325412D01*
X176314200Y-133736600D01*
X175959155Y-133736600D01*
X175899702Y-133437710D01*
X175660212Y-133079287D01*
X175301789Y-132839797D01*
X174879000Y-132755699D01*
X174456211Y-132839797D01*
X174425232Y-132860496D01*
X173611368Y-132046632D01*
X173479523Y-131958535D01*
X173324000Y-131927600D01*
X167316828Y-131927600D01*
X166800860Y-131411632D01*
X166669015Y-131323535D01*
X166513492Y-131292600D01*
X166343323Y-131292600D01*
X166206368Y-130961144D01*
X165839786Y-130593921D01*
X165360578Y-130394936D01*
X164841699Y-130394484D01*
X164362144Y-130592632D01*
X163994921Y-130959214D01*
X163795936Y-131438422D01*
X163795484Y-131957301D01*
X163993632Y-132436856D01*
X164360214Y-132804079D01*
X164839422Y-133003064D01*
X165358301Y-133003516D01*
X165837856Y-132805368D01*
X166205079Y-132438786D01*
X166343513Y-132105400D01*
X166345156Y-132105400D01*
X166756010Y-132516254D01*
X165691794Y-133580469D01*
X165360578Y-133442936D01*
X164841699Y-133442484D01*
X164362144Y-133640632D01*
X163994921Y-134007214D01*
X163795936Y-134486422D01*
X163795484Y-135005301D01*
X163993632Y-135484856D01*
X164153388Y-135644891D01*
X158426698Y-135644891D01*
X158585079Y-135486786D01*
X158784064Y-135007578D01*
X158784516Y-134488699D01*
X158646664Y-134155072D01*
X159164368Y-133637368D01*
X159252465Y-133505523D01*
X159283400Y-133350000D01*
X159283400Y-130937000D01*
X159252465Y-130781477D01*
X159164368Y-130649632D01*
X157858772Y-129344036D01*
X164582490Y-129344036D01*
X164658137Y-129478451D01*
X165023730Y-129581514D01*
X165400935Y-129536826D01*
X165541863Y-129478451D01*
X165617510Y-129344036D01*
X165100000Y-128826526D01*
X164582490Y-129344036D01*
X157858772Y-129344036D01*
X157049466Y-128534730D01*
X164129486Y-128534730D01*
X164174174Y-128911935D01*
X164232549Y-129052863D01*
X164366964Y-129128510D01*
X164884474Y-128611000D01*
X164366964Y-128093490D01*
X164232549Y-128169137D01*
X164129486Y-128534730D01*
X157049466Y-128534730D01*
X155235336Y-126720600D01*
X157318200Y-126720600D01*
X157318200Y-127552628D01*
X157364603Y-127664655D01*
X157450344Y-127750397D01*
X157562371Y-127796800D01*
X158394400Y-127796800D01*
X158470600Y-127720600D01*
X158470600Y-126644400D01*
X157394400Y-126644400D01*
X157318200Y-126720600D01*
X155235336Y-126720600D01*
X155219400Y-126704664D01*
X155219400Y-125431372D01*
X157318200Y-125431372D01*
X157318200Y-126263400D01*
X157394400Y-126339600D01*
X158470600Y-126339600D01*
X158470600Y-125263400D01*
X158394400Y-125187200D01*
X157562371Y-125187200D01*
X157450344Y-125233603D01*
X157364603Y-125319345D01*
X157318200Y-125431372D01*
X155219400Y-125431372D01*
X155219400Y-122686301D01*
X155794484Y-122686301D01*
X155992632Y-123165856D01*
X156359214Y-123533079D01*
X156838422Y-123732064D01*
X157357301Y-123732516D01*
X157690928Y-123594664D01*
X159283464Y-125187200D01*
X158851600Y-125187200D01*
X158775400Y-125263400D01*
X158775400Y-126339600D01*
X158795400Y-126339600D01*
X158795400Y-126644400D01*
X158775400Y-126644400D01*
X158775400Y-127720600D01*
X158851600Y-127796800D01*
X159683629Y-127796800D01*
X159795656Y-127750397D01*
X159881397Y-127664655D01*
X159927800Y-127552628D01*
X159927800Y-126919394D01*
X160056199Y-127230144D01*
X160422925Y-127597511D01*
X160902320Y-127796573D01*
X161421402Y-127797026D01*
X161901144Y-127598801D01*
X162268511Y-127232075D01*
X162467573Y-126752680D01*
X162468026Y-126233598D01*
X162269801Y-125753856D01*
X161903075Y-125386489D01*
X161423680Y-125187427D01*
X160904598Y-125186974D01*
X160570681Y-125324945D01*
X158265531Y-123019795D01*
X158403064Y-122688578D01*
X158403516Y-122169699D01*
X158205368Y-121690144D01*
X157838786Y-121322921D01*
X157359578Y-121123936D01*
X156840699Y-121123484D01*
X156361144Y-121321632D01*
X155993921Y-121688214D01*
X155794936Y-122167422D01*
X155794484Y-122686301D01*
X155219400Y-122686301D01*
X155219400Y-119004974D01*
X155213948Y-118977564D01*
X155188466Y-118849452D01*
X155100369Y-118717606D01*
X153982593Y-117599831D01*
X153850748Y-117511734D01*
X153695225Y-117480799D01*
X152822775Y-117480799D01*
X152667252Y-117511734D01*
X152535407Y-117599831D01*
X151771632Y-118363606D01*
X151683535Y-118495451D01*
X151652600Y-118650974D01*
X151652600Y-118780599D01*
X151544879Y-118825108D01*
X151289006Y-119080534D01*
X151150359Y-119414436D01*
X151150043Y-119775978D01*
X151288108Y-120110121D01*
X151543534Y-120365994D01*
X151615562Y-120395902D01*
X151544879Y-120425108D01*
X151289006Y-120680534D01*
X151150359Y-121014436D01*
X151150043Y-121375978D01*
X151288108Y-121710121D01*
X151543534Y-121965994D01*
X151877436Y-122104641D01*
X152238978Y-122104957D01*
X152350885Y-122058718D01*
X152380108Y-122289502D01*
X152429992Y-122409933D01*
X152559645Y-122479829D01*
X153043474Y-121996000D01*
X153029332Y-121981858D01*
X153244858Y-121766332D01*
X153259000Y-121780474D01*
X153273143Y-121766332D01*
X153488669Y-121981858D01*
X153474526Y-121996000D01*
X153958355Y-122479829D01*
X154000189Y-122457276D01*
X154000189Y-127212097D01*
X154031124Y-127367620D01*
X154119221Y-127499465D01*
X154815732Y-128195976D01*
X154719334Y-128164334D01*
X154201732Y-128203507D01*
X153905474Y-128326221D01*
X153786508Y-128496982D01*
X154559000Y-129269474D01*
X154573143Y-129255332D01*
X154788669Y-129470858D01*
X154774526Y-129485000D01*
X155547018Y-130257492D01*
X155717779Y-130138526D01*
X155879666Y-129645334D01*
X155848108Y-129228353D01*
X157073600Y-130453845D01*
X157073600Y-130455677D01*
X156742144Y-130592632D01*
X156374921Y-130959214D01*
X156175936Y-131438422D01*
X156175484Y-131957301D01*
X156373632Y-132436856D01*
X156740214Y-132804079D01*
X157219422Y-133003064D01*
X157738301Y-133003516D01*
X158217856Y-132805368D01*
X158470600Y-132553065D01*
X158470600Y-133181664D01*
X158071795Y-133580469D01*
X157740578Y-133442936D01*
X157221699Y-133442484D01*
X156742144Y-133640632D01*
X156374921Y-134007214D01*
X156175936Y-134486422D01*
X156175484Y-135005301D01*
X156190586Y-135041850D01*
X155725920Y-134577184D01*
X155863573Y-134245680D01*
X155864026Y-133726598D01*
X155665801Y-133246856D01*
X155299075Y-132879489D01*
X154819680Y-132680427D01*
X154300598Y-132679974D01*
X153820856Y-132878199D01*
X153453489Y-133244925D01*
X153314935Y-133578600D01*
X149302875Y-133578600D01*
X149165801Y-133246856D01*
X148799075Y-132879489D01*
X148319680Y-132680427D01*
X147800598Y-132679974D01*
X147320856Y-132878199D01*
X146953489Y-133244925D01*
X146754427Y-133724320D01*
X146753974Y-134243402D01*
X146405600Y-134243402D01*
X146405600Y-130473018D01*
X147286508Y-130473018D01*
X147405474Y-130643779D01*
X147898666Y-130805666D01*
X148416268Y-130766493D01*
X148712526Y-130643779D01*
X148831492Y-130473018D01*
X153786508Y-130473018D01*
X153905474Y-130643779D01*
X154398666Y-130805666D01*
X154916268Y-130766493D01*
X155212526Y-130643779D01*
X155331492Y-130473018D01*
X154559000Y-129700526D01*
X153786508Y-130473018D01*
X148831492Y-130473018D01*
X148059000Y-129700526D01*
X147286508Y-130473018D01*
X146405600Y-130473018D01*
X146405600Y-129324666D01*
X146738334Y-129324666D01*
X146777507Y-129842268D01*
X146900221Y-130138526D01*
X147070982Y-130257492D01*
X147843474Y-129485000D01*
X148274526Y-129485000D01*
X149047018Y-130257492D01*
X149217779Y-130138526D01*
X149379666Y-129645334D01*
X149355398Y-129324666D01*
X153238334Y-129324666D01*
X153277507Y-129842268D01*
X153400221Y-130138526D01*
X153570982Y-130257492D01*
X154343474Y-129485000D01*
X153570982Y-128712508D01*
X153400221Y-128831474D01*
X153238334Y-129324666D01*
X149355398Y-129324666D01*
X149340493Y-129127732D01*
X149217779Y-128831474D01*
X149047018Y-128712508D01*
X148274526Y-129485000D01*
X147843474Y-129485000D01*
X147070982Y-128712508D01*
X146900221Y-128831474D01*
X146738334Y-129324666D01*
X146405600Y-129324666D01*
X146405600Y-128496982D01*
X147286508Y-128496982D01*
X148059000Y-129269474D01*
X148831492Y-128496982D01*
X148712526Y-128326221D01*
X148219334Y-128164334D01*
X147701732Y-128203507D01*
X147405474Y-128326221D01*
X147286508Y-128496982D01*
X146405600Y-128496982D01*
X146405600Y-123757300D01*
X146552074Y-123757300D01*
X146591753Y-123926600D01*
X146971928Y-123926600D01*
X146960009Y-123986522D01*
X146960007Y-123986527D01*
X146960008Y-124046000D01*
X146960007Y-124105473D01*
X146960009Y-124105478D01*
X146985056Y-124231400D01*
X146591753Y-124231400D01*
X146552074Y-124400700D01*
X146720025Y-124752448D01*
X147045412Y-125041381D01*
X147456600Y-125183800D01*
X148056600Y-125183800D01*
X148056600Y-124700850D01*
X148361400Y-124700850D01*
X148361400Y-125183800D01*
X148961400Y-125183800D01*
X149372588Y-125041381D01*
X149697975Y-124752448D01*
X149865926Y-124400700D01*
X149826247Y-124231400D01*
X149432944Y-124231400D01*
X149457991Y-124105478D01*
X149457993Y-124105473D01*
X149457993Y-123986527D01*
X149457991Y-123986522D01*
X149446072Y-123926600D01*
X149826247Y-123926600D01*
X149865926Y-123757300D01*
X149697975Y-123405552D01*
X149372588Y-123116619D01*
X148961400Y-122974200D01*
X148361400Y-122974200D01*
X148361400Y-123391150D01*
X148056600Y-123391150D01*
X148056600Y-122974200D01*
X147456600Y-122974200D01*
X147045412Y-123116619D01*
X146720025Y-123405552D01*
X146552074Y-123757300D01*
X146405600Y-123757300D01*
X146405600Y-122695355D01*
X152775171Y-122695355D01*
X152845067Y-122825008D01*
X153193823Y-122920309D01*
X153552502Y-122874892D01*
X153672933Y-122825008D01*
X153742829Y-122695355D01*
X153259000Y-122211526D01*
X152775171Y-122695355D01*
X146405600Y-122695355D01*
X146405600Y-116391300D01*
X146552074Y-116391300D01*
X146591753Y-116560600D01*
X146985056Y-116560600D01*
X146960009Y-116686522D01*
X146960007Y-116686527D01*
X146960008Y-116746000D01*
X146960007Y-116805473D01*
X146960009Y-116805478D01*
X146971928Y-116865400D01*
X146591753Y-116865400D01*
X146552074Y-117034700D01*
X146720025Y-117386448D01*
X147045412Y-117675381D01*
X147456600Y-117817800D01*
X148056600Y-117817800D01*
X148056600Y-117400850D01*
X148361400Y-117400850D01*
X148361400Y-117817800D01*
X148961400Y-117817800D01*
X149372588Y-117675381D01*
X149697975Y-117386448D01*
X149865926Y-117034700D01*
X149826247Y-116865400D01*
X149446072Y-116865400D01*
X149457991Y-116805478D01*
X149457993Y-116805473D01*
X149457993Y-116686527D01*
X149457991Y-116686522D01*
X149432944Y-116560600D01*
X149826247Y-116560600D01*
X149865926Y-116391300D01*
X149697975Y-116039552D01*
X149372588Y-115750619D01*
X148961400Y-115608200D01*
X148361400Y-115608200D01*
X148361400Y-116091150D01*
X148056600Y-116091150D01*
X148056600Y-115608200D01*
X147456600Y-115608200D01*
X147045412Y-115750619D01*
X146720025Y-116039552D01*
X146552074Y-116391300D01*
X146405600Y-116391300D01*
X146405600Y-114046000D01*
X146686200Y-114046000D01*
X146773114Y-114482948D01*
X147020625Y-114853375D01*
X147391052Y-115100886D01*
X147828000Y-115187800D01*
X148264948Y-115100886D01*
X148316708Y-115066301D01*
X155794484Y-115066301D01*
X155992632Y-115545856D01*
X156359214Y-115913079D01*
X156692600Y-116051513D01*
X156692600Y-119888000D01*
X156723535Y-120043523D01*
X156767040Y-120108632D01*
X156811632Y-120175368D01*
X164579831Y-127943567D01*
X164711676Y-128031664D01*
X164742277Y-128037751D01*
X165100000Y-128395474D01*
X165114143Y-128381332D01*
X165329669Y-128596858D01*
X165315526Y-128611000D01*
X165833036Y-129128510D01*
X165967451Y-129052863D01*
X166070514Y-128687270D01*
X166025826Y-128310065D01*
X165967451Y-128169137D01*
X165833038Y-128093491D01*
X165863930Y-128062599D01*
X168755426Y-128062599D01*
X169054005Y-128361178D01*
X169185850Y-128449275D01*
X169341373Y-128480210D01*
X173774190Y-128480210D01*
X173929713Y-128449275D01*
X174061558Y-128361178D01*
X174425232Y-127997504D01*
X174456211Y-128018203D01*
X174879000Y-128102301D01*
X175301789Y-128018203D01*
X175660212Y-127778713D01*
X175899702Y-127420290D01*
X175983800Y-126997501D01*
X175983800Y-126240499D01*
X175899702Y-125817710D01*
X175660212Y-125459287D01*
X175301789Y-125219797D01*
X174879000Y-125135699D01*
X174456211Y-125219797D01*
X174097788Y-125459287D01*
X173858298Y-125817710D01*
X173774200Y-126240499D01*
X173774200Y-126997501D01*
X173857415Y-127415849D01*
X173605854Y-127667410D01*
X173194582Y-127667410D01*
X173359702Y-127420290D01*
X173443800Y-126997501D01*
X173443800Y-126240499D01*
X173359702Y-125817710D01*
X173120212Y-125459287D01*
X172761789Y-125219797D01*
X172745400Y-125216537D01*
X172745400Y-125090113D01*
X173380720Y-124454793D01*
X173619968Y-124694458D01*
X173941928Y-124828148D01*
X174290542Y-124828452D01*
X174612736Y-124695324D01*
X174859458Y-124449032D01*
X174993148Y-124127072D01*
X174993149Y-124125542D01*
X175780548Y-124125542D01*
X175913676Y-124447736D01*
X176159968Y-124694458D01*
X176481928Y-124828148D01*
X176830542Y-124828452D01*
X176921240Y-124790976D01*
X177012600Y-124882336D01*
X177012600Y-125216537D01*
X176996211Y-125219797D01*
X176637788Y-125459287D01*
X176398298Y-125817710D01*
X176314200Y-126240499D01*
X176314200Y-126997501D01*
X176398298Y-127420290D01*
X176637788Y-127778713D01*
X176996211Y-128018203D01*
X177419000Y-128102301D01*
X177841789Y-128018203D01*
X178200212Y-127778713D01*
X178439702Y-127420290D01*
X178523800Y-126997501D01*
X178523800Y-126240499D01*
X178439702Y-125817710D01*
X178200212Y-125459287D01*
X177841789Y-125219797D01*
X177825400Y-125216537D01*
X177825400Y-124714000D01*
X177808199Y-124627522D01*
X178610004Y-124627522D01*
X178675823Y-124753817D01*
X179012670Y-124843628D01*
X179358245Y-124797697D01*
X179464177Y-124753817D01*
X179529996Y-124627522D01*
X179070000Y-124167526D01*
X178610004Y-124627522D01*
X177808199Y-124627522D01*
X177794465Y-124558477D01*
X177706368Y-124426632D01*
X177496079Y-124216343D01*
X177533148Y-124127072D01*
X177533350Y-123894670D01*
X178178372Y-123894670D01*
X178224303Y-124240245D01*
X178268183Y-124346177D01*
X178394478Y-124411996D01*
X178854474Y-123952000D01*
X179285526Y-123952000D01*
X179745522Y-124411996D01*
X179871817Y-124346177D01*
X179961628Y-124009330D01*
X179915697Y-123663755D01*
X179871817Y-123557823D01*
X179745522Y-123492004D01*
X179285526Y-123952000D01*
X178854474Y-123952000D01*
X178394478Y-123492004D01*
X178268183Y-123557823D01*
X178178372Y-123894670D01*
X177533350Y-123894670D01*
X177533452Y-123778458D01*
X177400324Y-123456264D01*
X177220852Y-123276478D01*
X178610004Y-123276478D01*
X179070000Y-123736474D01*
X179529996Y-123276478D01*
X179464177Y-123150183D01*
X179127330Y-123060372D01*
X178781755Y-123106303D01*
X178675823Y-123150183D01*
X178610004Y-123276478D01*
X177220852Y-123276478D01*
X177154032Y-123209542D01*
X176832072Y-123075852D01*
X176483458Y-123075548D01*
X176161264Y-123208676D01*
X175914542Y-123454968D01*
X175780852Y-123776928D01*
X175780548Y-124125542D01*
X174993149Y-124125542D01*
X174993452Y-123778458D01*
X174860324Y-123456264D01*
X174614032Y-123209542D01*
X174292072Y-123075852D01*
X173943458Y-123075548D01*
X173621264Y-123208676D01*
X173374542Y-123454968D01*
X173336908Y-123545600D01*
X173308777Y-123545600D01*
X173153254Y-123576535D01*
X173074514Y-123629148D01*
X173021409Y-123664632D01*
X172051632Y-124634409D01*
X171963535Y-124766254D01*
X171932600Y-124921777D01*
X171932600Y-125216537D01*
X171916211Y-125219797D01*
X171557788Y-125459287D01*
X171318298Y-125817710D01*
X171234200Y-126240499D01*
X171234200Y-126997501D01*
X171318298Y-127420290D01*
X171483418Y-127667410D01*
X170654582Y-127667410D01*
X170819702Y-127420290D01*
X170903800Y-126997501D01*
X170903800Y-126240499D01*
X170819702Y-125817710D01*
X170580212Y-125459287D01*
X170221789Y-125219797D01*
X169799000Y-125135699D01*
X169376211Y-125219797D01*
X169017788Y-125459287D01*
X168778298Y-125817710D01*
X168699749Y-126212600D01*
X167681337Y-126212600D01*
X167292368Y-125823632D01*
X167283505Y-125817710D01*
X167160523Y-125735535D01*
X167005000Y-125704600D01*
X166060771Y-125704600D01*
X166060771Y-125461000D01*
X166039518Y-125348048D01*
X165972763Y-125244308D01*
X165870907Y-125174713D01*
X165750000Y-125150229D01*
X164450000Y-125150229D01*
X164337048Y-125171482D01*
X164233308Y-125238237D01*
X164163713Y-125340093D01*
X164144670Y-125434134D01*
X162517400Y-123806864D01*
X162517400Y-121646565D01*
X165495961Y-121646565D01*
X165980981Y-122129322D01*
X167560185Y-122791867D01*
X169272723Y-122799643D01*
X170857877Y-122151467D01*
X170891019Y-122129322D01*
X171376039Y-121646565D01*
X168436000Y-118706526D01*
X165495961Y-121646565D01*
X162517400Y-121646565D01*
X162517400Y-120801771D01*
X162536000Y-120801771D01*
X162648952Y-120780518D01*
X162752692Y-120713763D01*
X162822287Y-120611907D01*
X162846771Y-120491000D01*
X162846771Y-119327723D01*
X164127357Y-119327723D01*
X164775533Y-120912877D01*
X164797678Y-120946019D01*
X165280435Y-121431039D01*
X168220474Y-118491000D01*
X168651526Y-118491000D01*
X171591565Y-121431039D01*
X172074322Y-120946019D01*
X172736867Y-119366815D01*
X172744643Y-117654277D01*
X172268975Y-116491000D01*
X174025229Y-116491000D01*
X174025229Y-120491000D01*
X174046482Y-120603952D01*
X174113237Y-120707692D01*
X174215093Y-120777287D01*
X174336000Y-120801771D01*
X177336000Y-120801771D01*
X177448952Y-120780518D01*
X177552692Y-120713763D01*
X177622287Y-120611907D01*
X177646771Y-120491000D01*
X177646771Y-116491000D01*
X177625518Y-116378048D01*
X177558763Y-116274308D01*
X177456907Y-116204713D01*
X177336000Y-116180229D01*
X174336000Y-116180229D01*
X174223048Y-116201482D01*
X174119308Y-116268237D01*
X174049713Y-116370093D01*
X174025229Y-116491000D01*
X172268975Y-116491000D01*
X172096467Y-116069123D01*
X172074322Y-116035981D01*
X171591565Y-115550961D01*
X168651526Y-118491000D01*
X168220474Y-118491000D01*
X165280435Y-115550961D01*
X164797678Y-116035981D01*
X164135133Y-117615185D01*
X164127357Y-119327723D01*
X162846771Y-119327723D01*
X162846771Y-116491000D01*
X162825518Y-116378048D01*
X162758763Y-116274308D01*
X162656907Y-116204713D01*
X162536000Y-116180229D01*
X159536000Y-116180229D01*
X159423048Y-116201482D01*
X159319308Y-116268237D01*
X159249713Y-116370093D01*
X159225229Y-116491000D01*
X159225229Y-120491000D01*
X159246482Y-120603952D01*
X159313237Y-120707692D01*
X159415093Y-120777287D01*
X159536000Y-120801771D01*
X161704600Y-120801771D01*
X161704600Y-123918864D01*
X157505400Y-119719664D01*
X157505400Y-116051323D01*
X157836856Y-115914368D01*
X158204079Y-115547786D01*
X158292255Y-115335435D01*
X165495961Y-115335435D01*
X168436000Y-118275474D01*
X171376039Y-115335435D01*
X170891019Y-114852678D01*
X169311815Y-114190133D01*
X167599277Y-114182357D01*
X166014123Y-114830533D01*
X165980981Y-114852678D01*
X165495961Y-115335435D01*
X158292255Y-115335435D01*
X158403064Y-115068578D01*
X158403516Y-114549699D01*
X158205368Y-114070144D01*
X158181267Y-114046000D01*
X176658200Y-114046000D01*
X176745114Y-114482948D01*
X176992625Y-114853375D01*
X177363052Y-115100886D01*
X177800000Y-115187800D01*
X178236948Y-115100886D01*
X178607375Y-114853375D01*
X178854886Y-114482948D01*
X178941800Y-114046000D01*
X178854886Y-113609052D01*
X178607375Y-113238625D01*
X178236948Y-112991114D01*
X177800000Y-112904200D01*
X177363052Y-112991114D01*
X176992625Y-113238625D01*
X176745114Y-113609052D01*
X176658200Y-114046000D01*
X158181267Y-114046000D01*
X157838786Y-113702921D01*
X157359578Y-113503936D01*
X156840699Y-113503484D01*
X156361144Y-113701632D01*
X155993921Y-114068214D01*
X155794936Y-114547422D01*
X155794484Y-115066301D01*
X148316708Y-115066301D01*
X148635375Y-114853375D01*
X148882886Y-114482948D01*
X148969800Y-114046000D01*
X148882886Y-113609052D01*
X148635375Y-113238625D01*
X148264948Y-112991114D01*
X147828000Y-112904200D01*
X147391052Y-112991114D01*
X147020625Y-113238625D01*
X146773114Y-113609052D01*
X146686200Y-114046000D01*
X146405600Y-114046000D01*
X146405600Y-112623600D01*
X178944200Y-112623600D01*
X178944200Y-120015000D01*
G36*
X148823990Y-124009804D02*
X148836703Y-124018298D01*
X148845196Y-124031009D01*
X148848178Y-124046000D01*
X148845196Y-124060991D01*
X148836703Y-124073702D01*
X148823990Y-124082196D01*
X148778977Y-124091150D01*
X147639023Y-124091150D01*
X147594009Y-124082196D01*
X147581298Y-124073703D01*
X147572804Y-124060990D01*
X147569822Y-124046000D01*
X147572804Y-124031010D01*
X147581298Y-124018297D01*
X147594009Y-124009804D01*
X147639023Y-124000850D01*
X148778977Y-124000850D01*
X148823990Y-124009804D01*
X148823990Y-124009804D01*
G37*
X148823990Y-124009804D02*
X148836703Y-124018298D01*
X148845196Y-124031009D01*
X148848178Y-124046000D01*
X148845196Y-124060991D01*
X148836703Y-124073702D01*
X148823990Y-124082196D01*
X148778977Y-124091150D01*
X147639023Y-124091150D01*
X147594009Y-124082196D01*
X147581298Y-124073703D01*
X147572804Y-124060990D01*
X147569822Y-124046000D01*
X147572804Y-124031010D01*
X147581298Y-124018297D01*
X147594009Y-124009804D01*
X147639023Y-124000850D01*
X148778977Y-124000850D01*
X148823990Y-124009804D01*
G36*
X148823990Y-116709804D02*
X148836703Y-116718298D01*
X148845196Y-116731009D01*
X148848178Y-116746000D01*
X148845196Y-116760991D01*
X148836703Y-116773702D01*
X148823990Y-116782196D01*
X148778977Y-116791150D01*
X147639023Y-116791150D01*
X147594009Y-116782196D01*
X147581298Y-116773703D01*
X147572804Y-116760990D01*
X147569822Y-116746000D01*
X147572804Y-116731010D01*
X147581298Y-116718297D01*
X147594009Y-116709804D01*
X147639023Y-116700850D01*
X148778977Y-116700850D01*
X148823990Y-116709804D01*
X148823990Y-116709804D01*
G37*
X148823990Y-116709804D02*
X148836703Y-116718298D01*
X148845196Y-116731009D01*
X148848178Y-116746000D01*
X148845196Y-116760991D01*
X148836703Y-116773702D01*
X148823990Y-116782196D01*
X148778977Y-116791150D01*
X147639023Y-116791150D01*
X147594009Y-116782196D01*
X147581298Y-116773703D01*
X147572804Y-116760990D01*
X147569822Y-116746000D01*
X147572804Y-116731010D01*
X147581298Y-116718297D01*
X147594009Y-116709804D01*
X147639023Y-116700850D01*
X148778977Y-116700850D01*
X148823990Y-116709804D01*
G36*
X178944200Y-93472000D02*
X178955359Y-93528099D01*
X178961393Y-93584978D01*
X178969715Y-93600269D01*
X178973111Y-93617343D01*
X179004888Y-93664901D01*
X179032230Y-93715142D01*
X180214200Y-95133507D01*
X180214200Y-109844493D01*
X179032230Y-111262858D01*
X179004888Y-111313099D01*
X178973111Y-111360657D01*
X178969715Y-111377731D01*
X178961393Y-111393022D01*
X178955359Y-111449901D01*
X178944200Y-111506000D01*
X178944200Y-112142200D01*
X146683800Y-112142200D01*
X146683800Y-110998000D01*
X146686200Y-110998000D01*
X146773114Y-111434948D01*
X147020625Y-111805375D01*
X147391052Y-112052886D01*
X147828000Y-112139800D01*
X148264948Y-112052886D01*
X148635375Y-111805375D01*
X148882886Y-111434948D01*
X148969800Y-110998000D01*
X176658200Y-110998000D01*
X176745114Y-111434948D01*
X176992625Y-111805375D01*
X177363052Y-112052886D01*
X177800000Y-112139800D01*
X178236948Y-112052886D01*
X178607375Y-111805375D01*
X178854886Y-111434948D01*
X178941800Y-110998000D01*
X178854886Y-110561052D01*
X178607375Y-110190625D01*
X178236948Y-109943114D01*
X177800000Y-109856200D01*
X177363052Y-109943114D01*
X176992625Y-110190625D01*
X176745114Y-110561052D01*
X176658200Y-110998000D01*
X148969800Y-110998000D01*
X148882886Y-110561052D01*
X148635375Y-110190625D01*
X148264948Y-109943114D01*
X147828000Y-109856200D01*
X147391052Y-109943114D01*
X147020625Y-110190625D01*
X146773114Y-110561052D01*
X146686200Y-110998000D01*
X146683800Y-110998000D01*
X146683800Y-107700402D01*
X146753974Y-107700402D01*
X146952199Y-108180144D01*
X147318925Y-108547511D01*
X147798320Y-108746573D01*
X148317402Y-108747026D01*
X148797144Y-108548801D01*
X149164511Y-108182075D01*
X149303065Y-107848400D01*
X153315125Y-107848400D01*
X153452199Y-108180144D01*
X153818925Y-108547511D01*
X154298320Y-108746573D01*
X154817402Y-108747026D01*
X155151319Y-108609055D01*
X156337923Y-109795659D01*
X156469768Y-109883756D01*
X156625291Y-109914691D01*
X166983509Y-109914691D01*
X167139032Y-109883756D01*
X167270877Y-109795659D01*
X168743614Y-108322923D01*
X168778298Y-108497290D01*
X169017788Y-108855713D01*
X169376211Y-109095203D01*
X169799000Y-109179301D01*
X170221789Y-109095203D01*
X170580212Y-108855713D01*
X170819702Y-108497290D01*
X170903800Y-108074501D01*
X170903800Y-107317499D01*
X170819702Y-106894710D01*
X170654582Y-106647590D01*
X171065854Y-106647590D01*
X171317415Y-106899151D01*
X171234200Y-107317499D01*
X171234200Y-108074501D01*
X171318298Y-108497290D01*
X171557788Y-108855713D01*
X171916211Y-109095203D01*
X172339000Y-109179301D01*
X172761789Y-109095203D01*
X173120212Y-108855713D01*
X173359702Y-108497290D01*
X173443800Y-108074501D01*
X173443800Y-107317499D01*
X173359702Y-106894710D01*
X173120212Y-106536287D01*
X172761789Y-106296797D01*
X172339000Y-106212699D01*
X171916211Y-106296797D01*
X171885232Y-106317496D01*
X171765136Y-106197400D01*
X173155664Y-106197400D01*
X173857415Y-106899151D01*
X173774200Y-107317499D01*
X173774200Y-108074501D01*
X173858298Y-108497290D01*
X174097788Y-108855713D01*
X174456211Y-109095203D01*
X174879000Y-109179301D01*
X175301789Y-109095203D01*
X175660212Y-108855713D01*
X175899702Y-108497290D01*
X175983800Y-108074501D01*
X175983800Y-107848400D01*
X176314200Y-107848400D01*
X176314200Y-108198400D01*
X176456619Y-108609588D01*
X176745552Y-108934975D01*
X177097300Y-109102926D01*
X177266600Y-109063247D01*
X177266600Y-107848400D01*
X177571400Y-107848400D01*
X177571400Y-109063247D01*
X177740700Y-109102926D01*
X178092448Y-108934975D01*
X178381381Y-108609588D01*
X178523800Y-108198400D01*
X178523800Y-107848400D01*
X177571400Y-107848400D01*
X177266600Y-107848400D01*
X176314200Y-107848400D01*
X175983800Y-107848400D01*
X175983800Y-107317499D01*
X175959155Y-107193600D01*
X176314200Y-107193600D01*
X176314200Y-107543600D01*
X177266600Y-107543600D01*
X177266600Y-106328753D01*
X177571400Y-106328753D01*
X177571400Y-107543600D01*
X178523800Y-107543600D01*
X178523800Y-107193600D01*
X178381381Y-106782412D01*
X178092448Y-106457025D01*
X177740700Y-106289074D01*
X177571400Y-106328753D01*
X177266600Y-106328753D01*
X177097300Y-106289074D01*
X176745552Y-106457025D01*
X176456619Y-106782412D01*
X176314200Y-107193600D01*
X175959155Y-107193600D01*
X175899702Y-106894710D01*
X175660212Y-106536287D01*
X175301789Y-106296797D01*
X174879000Y-106212699D01*
X174456211Y-106296797D01*
X174425232Y-106317496D01*
X173611368Y-105503632D01*
X173479523Y-105415535D01*
X173324000Y-105384600D01*
X167316828Y-105384600D01*
X166800860Y-104868632D01*
X166669015Y-104780535D01*
X166513492Y-104749600D01*
X166343323Y-104749600D01*
X166206368Y-104418144D01*
X165839786Y-104050921D01*
X165360578Y-103851936D01*
X164841699Y-103851484D01*
X164362144Y-104049632D01*
X163994921Y-104416214D01*
X163795936Y-104895422D01*
X163795484Y-105414301D01*
X163993632Y-105893856D01*
X164360214Y-106261079D01*
X164839422Y-106460064D01*
X165358301Y-106460516D01*
X165837856Y-106262368D01*
X166205079Y-105895786D01*
X166343513Y-105562400D01*
X166345156Y-105562400D01*
X166756010Y-105973254D01*
X165691794Y-107037469D01*
X165360578Y-106899936D01*
X164841699Y-106899484D01*
X164362144Y-107097632D01*
X163994921Y-107464214D01*
X163795936Y-107943422D01*
X163795484Y-108462301D01*
X163993632Y-108941856D01*
X164153388Y-109101891D01*
X158426698Y-109101891D01*
X158585079Y-108943786D01*
X158784064Y-108464578D01*
X158784516Y-107945699D01*
X158646664Y-107612072D01*
X159164368Y-107094368D01*
X159252465Y-106962523D01*
X159283400Y-106807000D01*
X159283400Y-104394000D01*
X159252465Y-104238477D01*
X159164368Y-104106632D01*
X157858772Y-102801036D01*
X164582490Y-102801036D01*
X164658137Y-102935451D01*
X165023730Y-103038514D01*
X165400935Y-102993826D01*
X165541863Y-102935451D01*
X165617510Y-102801036D01*
X165100000Y-102283526D01*
X164582490Y-102801036D01*
X157858772Y-102801036D01*
X157049466Y-101991730D01*
X164129486Y-101991730D01*
X164174174Y-102368935D01*
X164232549Y-102509863D01*
X164366964Y-102585510D01*
X164884474Y-102068000D01*
X164366964Y-101550490D01*
X164232549Y-101626137D01*
X164129486Y-101991730D01*
X157049466Y-101991730D01*
X155235336Y-100177600D01*
X157318200Y-100177600D01*
X157318200Y-101009628D01*
X157364603Y-101121655D01*
X157450344Y-101207397D01*
X157562371Y-101253800D01*
X158394400Y-101253800D01*
X158470600Y-101177600D01*
X158470600Y-100101400D01*
X157394400Y-100101400D01*
X157318200Y-100177600D01*
X155235336Y-100177600D01*
X155219400Y-100161664D01*
X155219400Y-98888372D01*
X157318200Y-98888372D01*
X157318200Y-99720400D01*
X157394400Y-99796600D01*
X158470600Y-99796600D01*
X158470600Y-98720400D01*
X158394400Y-98644200D01*
X157562371Y-98644200D01*
X157450344Y-98690603D01*
X157364603Y-98776345D01*
X157318200Y-98888372D01*
X155219400Y-98888372D01*
X155219400Y-96143301D01*
X155794484Y-96143301D01*
X155992632Y-96622856D01*
X156359214Y-96990079D01*
X156838422Y-97189064D01*
X157357301Y-97189516D01*
X157690928Y-97051664D01*
X159283464Y-98644200D01*
X158851600Y-98644200D01*
X158775400Y-98720400D01*
X158775400Y-99796600D01*
X158795400Y-99796600D01*
X158795400Y-100101400D01*
X158775400Y-100101400D01*
X158775400Y-101177600D01*
X158851600Y-101253800D01*
X159683629Y-101253800D01*
X159795656Y-101207397D01*
X159881397Y-101121655D01*
X159927800Y-101009628D01*
X159927800Y-100376394D01*
X160056199Y-100687144D01*
X160422925Y-101054511D01*
X160902320Y-101253573D01*
X161421402Y-101254026D01*
X161901144Y-101055801D01*
X162268511Y-100689075D01*
X162467573Y-100209680D01*
X162468026Y-99690598D01*
X162269801Y-99210856D01*
X161903075Y-98843489D01*
X161423680Y-98644427D01*
X160904598Y-98643974D01*
X160570681Y-98781945D01*
X158265531Y-96476795D01*
X158403064Y-96145578D01*
X158403516Y-95626699D01*
X158205368Y-95147144D01*
X157838786Y-94779921D01*
X157359578Y-94580936D01*
X156840699Y-94580484D01*
X156361144Y-94778632D01*
X155993921Y-95145214D01*
X155794936Y-95624422D01*
X155794484Y-96143301D01*
X155219400Y-96143301D01*
X155219400Y-92461974D01*
X155213948Y-92434564D01*
X155188466Y-92306452D01*
X155100369Y-92174606D01*
X153982593Y-91056831D01*
X153850748Y-90968734D01*
X153695225Y-90937799D01*
X152822775Y-90937799D01*
X152667252Y-90968734D01*
X152535407Y-91056831D01*
X151771632Y-91820606D01*
X151683535Y-91952451D01*
X151652600Y-92107974D01*
X151652600Y-92237599D01*
X151544879Y-92282108D01*
X151289006Y-92537534D01*
X151150359Y-92871436D01*
X151150043Y-93232978D01*
X151288108Y-93567121D01*
X151543534Y-93822994D01*
X151615562Y-93852902D01*
X151544879Y-93882108D01*
X151289006Y-94137534D01*
X151150359Y-94471436D01*
X151150043Y-94832978D01*
X151288108Y-95167121D01*
X151543534Y-95422994D01*
X151877436Y-95561641D01*
X152238978Y-95561957D01*
X152350885Y-95515718D01*
X152380108Y-95746502D01*
X152429992Y-95866933D01*
X152559645Y-95936829D01*
X153043474Y-95453000D01*
X153029332Y-95438858D01*
X153244858Y-95223332D01*
X153259000Y-95237474D01*
X153273143Y-95223332D01*
X153488669Y-95438858D01*
X153474526Y-95453000D01*
X153958355Y-95936829D01*
X154000189Y-95914276D01*
X154000189Y-100669097D01*
X154031124Y-100824620D01*
X154119221Y-100956465D01*
X154815732Y-101652976D01*
X154719334Y-101621334D01*
X154201732Y-101660507D01*
X153905474Y-101783221D01*
X153786508Y-101953982D01*
X154559000Y-102726474D01*
X154573143Y-102712332D01*
X154788669Y-102927858D01*
X154774526Y-102942000D01*
X155547018Y-103714492D01*
X155717779Y-103595526D01*
X155879666Y-103102334D01*
X155848108Y-102685353D01*
X157073600Y-103910845D01*
X157073600Y-103912677D01*
X156742144Y-104049632D01*
X156374921Y-104416214D01*
X156175936Y-104895422D01*
X156175484Y-105414301D01*
X156373632Y-105893856D01*
X156740214Y-106261079D01*
X157219422Y-106460064D01*
X157738301Y-106460516D01*
X158217856Y-106262368D01*
X158470600Y-106010065D01*
X158470600Y-106638664D01*
X158071795Y-107037469D01*
X157740578Y-106899936D01*
X157221699Y-106899484D01*
X156742144Y-107097632D01*
X156374921Y-107464214D01*
X156175936Y-107943422D01*
X156175484Y-108462301D01*
X156190586Y-108498850D01*
X155725920Y-108034184D01*
X155863573Y-107702680D01*
X155864026Y-107183598D01*
X155665801Y-106703856D01*
X155299075Y-106336489D01*
X154819680Y-106137427D01*
X154300598Y-106136974D01*
X153820856Y-106335199D01*
X153453489Y-106701925D01*
X153314935Y-107035600D01*
X149302875Y-107035600D01*
X149165801Y-106703856D01*
X148799075Y-106336489D01*
X148319680Y-106137427D01*
X147800598Y-106136974D01*
X147320856Y-106335199D01*
X146953489Y-106701925D01*
X146754427Y-107181320D01*
X146753974Y-107700402D01*
X146683800Y-107700402D01*
X146683800Y-103930018D01*
X147286508Y-103930018D01*
X147405474Y-104100779D01*
X147898666Y-104262666D01*
X148416268Y-104223493D01*
X148712526Y-104100779D01*
X148831492Y-103930018D01*
X153786508Y-103930018D01*
X153905474Y-104100779D01*
X154398666Y-104262666D01*
X154916268Y-104223493D01*
X155212526Y-104100779D01*
X155331492Y-103930018D01*
X154559000Y-103157526D01*
X153786508Y-103930018D01*
X148831492Y-103930018D01*
X148059000Y-103157526D01*
X147286508Y-103930018D01*
X146683800Y-103930018D01*
X146683800Y-102781666D01*
X146738334Y-102781666D01*
X146777507Y-103299268D01*
X146900221Y-103595526D01*
X147070982Y-103714492D01*
X147843474Y-102942000D01*
X148274526Y-102942000D01*
X149047018Y-103714492D01*
X149217779Y-103595526D01*
X149379666Y-103102334D01*
X149355398Y-102781666D01*
X153238334Y-102781666D01*
X153277507Y-103299268D01*
X153400221Y-103595526D01*
X153570982Y-103714492D01*
X154343474Y-102942000D01*
X153570982Y-102169508D01*
X153400221Y-102288474D01*
X153238334Y-102781666D01*
X149355398Y-102781666D01*
X149340493Y-102584732D01*
X149217779Y-102288474D01*
X149047018Y-102169508D01*
X148274526Y-102942000D01*
X147843474Y-102942000D01*
X147070982Y-102169508D01*
X146900221Y-102288474D01*
X146738334Y-102781666D01*
X146683800Y-102781666D01*
X146683800Y-101953982D01*
X147286508Y-101953982D01*
X148059000Y-102726474D01*
X148831492Y-101953982D01*
X148712526Y-101783221D01*
X148219334Y-101621334D01*
X147701732Y-101660507D01*
X147405474Y-101783221D01*
X147286508Y-101953982D01*
X146683800Y-101953982D01*
X146683800Y-98133580D01*
X146720025Y-98209448D01*
X147045412Y-98498381D01*
X147456600Y-98640800D01*
X148056600Y-98640800D01*
X148056600Y-98157850D01*
X148361400Y-98157850D01*
X148361400Y-98640800D01*
X148961400Y-98640800D01*
X149372588Y-98498381D01*
X149697975Y-98209448D01*
X149865926Y-97857700D01*
X149826247Y-97688400D01*
X149432944Y-97688400D01*
X149457991Y-97562478D01*
X149457993Y-97562473D01*
X149457993Y-97443527D01*
X149457991Y-97443522D01*
X149446072Y-97383600D01*
X149826247Y-97383600D01*
X149865926Y-97214300D01*
X149697975Y-96862552D01*
X149372588Y-96573619D01*
X148961400Y-96431200D01*
X148361400Y-96431200D01*
X148361400Y-96848150D01*
X148056600Y-96848150D01*
X148056600Y-96431200D01*
X147456600Y-96431200D01*
X147045412Y-96573619D01*
X146720025Y-96862552D01*
X146683800Y-96938420D01*
X146683800Y-96152355D01*
X152775171Y-96152355D01*
X152845067Y-96282008D01*
X153193823Y-96377309D01*
X153552502Y-96331892D01*
X153672933Y-96282008D01*
X153742829Y-96152355D01*
X153259000Y-95668526D01*
X152775171Y-96152355D01*
X146683800Y-96152355D01*
X146683800Y-90767580D01*
X146720025Y-90843448D01*
X147045412Y-91132381D01*
X147456600Y-91274800D01*
X148056600Y-91274800D01*
X148056600Y-90857850D01*
X148361400Y-90857850D01*
X148361400Y-91274800D01*
X148961400Y-91274800D01*
X149372588Y-91132381D01*
X149697975Y-90843448D01*
X149865926Y-90491700D01*
X149826247Y-90322400D01*
X149446072Y-90322400D01*
X149457991Y-90262478D01*
X149457993Y-90262473D01*
X149457993Y-90143527D01*
X149457991Y-90143522D01*
X149432944Y-90017600D01*
X149826247Y-90017600D01*
X149865926Y-89848300D01*
X149697975Y-89496552D01*
X149372588Y-89207619D01*
X148961400Y-89065200D01*
X148361400Y-89065200D01*
X148361400Y-89548150D01*
X148056600Y-89548150D01*
X148056600Y-89065200D01*
X147456600Y-89065200D01*
X147045412Y-89207619D01*
X146720025Y-89496552D01*
X146683800Y-89572420D01*
X146683800Y-87503000D01*
X146686200Y-87503000D01*
X146773114Y-87939948D01*
X147020625Y-88310375D01*
X147391052Y-88557886D01*
X147828000Y-88644800D01*
X148264948Y-88557886D01*
X148316708Y-88523301D01*
X155794484Y-88523301D01*
X155992632Y-89002856D01*
X156359214Y-89370079D01*
X156692600Y-89508513D01*
X156692600Y-93345000D01*
X156723535Y-93500523D01*
X156767040Y-93565632D01*
X156811632Y-93632368D01*
X164579831Y-101400567D01*
X164711676Y-101488664D01*
X164742277Y-101494751D01*
X165100000Y-101852474D01*
X165114143Y-101838332D01*
X165329669Y-102053858D01*
X165315526Y-102068000D01*
X165833036Y-102585510D01*
X165967451Y-102509863D01*
X166070514Y-102144270D01*
X166025826Y-101767065D01*
X165967451Y-101626137D01*
X165833038Y-101550491D01*
X165863930Y-101519599D01*
X168755426Y-101519599D01*
X169054005Y-101818178D01*
X169185850Y-101906275D01*
X169341373Y-101937210D01*
X173774190Y-101937210D01*
X173929713Y-101906275D01*
X174061558Y-101818178D01*
X174425232Y-101454504D01*
X174456211Y-101475203D01*
X174879000Y-101559301D01*
X175301789Y-101475203D01*
X175660212Y-101235713D01*
X175899702Y-100877290D01*
X175983800Y-100454501D01*
X175983800Y-99697499D01*
X175899702Y-99274710D01*
X175660212Y-98916287D01*
X175301789Y-98676797D01*
X174879000Y-98592699D01*
X174456211Y-98676797D01*
X174097788Y-98916287D01*
X173858298Y-99274710D01*
X173774200Y-99697499D01*
X173774200Y-100454501D01*
X173857415Y-100872849D01*
X173605854Y-101124410D01*
X173194582Y-101124410D01*
X173359702Y-100877290D01*
X173443800Y-100454501D01*
X173443800Y-99697499D01*
X173359702Y-99274710D01*
X173120212Y-98916287D01*
X172761789Y-98676797D01*
X172745400Y-98673537D01*
X172745400Y-98547113D01*
X173380720Y-97911793D01*
X173619968Y-98151458D01*
X173941928Y-98285148D01*
X174290542Y-98285452D01*
X174612736Y-98152324D01*
X174859458Y-97906032D01*
X174993148Y-97584072D01*
X174993149Y-97582542D01*
X175780548Y-97582542D01*
X175913676Y-97904736D01*
X176159968Y-98151458D01*
X176481928Y-98285148D01*
X176830542Y-98285452D01*
X176921240Y-98247976D01*
X177012600Y-98339336D01*
X177012600Y-98673537D01*
X176996211Y-98676797D01*
X176637788Y-98916287D01*
X176398298Y-99274710D01*
X176314200Y-99697499D01*
X176314200Y-100454501D01*
X176398298Y-100877290D01*
X176637788Y-101235713D01*
X176996211Y-101475203D01*
X177419000Y-101559301D01*
X177841789Y-101475203D01*
X178200212Y-101235713D01*
X178439702Y-100877290D01*
X178523800Y-100454501D01*
X178523800Y-99697499D01*
X178439702Y-99274710D01*
X178200212Y-98916287D01*
X177841789Y-98676797D01*
X177825400Y-98673537D01*
X177825400Y-98171000D01*
X177808199Y-98084522D01*
X178610004Y-98084522D01*
X178675823Y-98210817D01*
X179012670Y-98300628D01*
X179358245Y-98254697D01*
X179464177Y-98210817D01*
X179529996Y-98084522D01*
X179070000Y-97624526D01*
X178610004Y-98084522D01*
X177808199Y-98084522D01*
X177794465Y-98015477D01*
X177706368Y-97883632D01*
X177496079Y-97673343D01*
X177533148Y-97584072D01*
X177533350Y-97351670D01*
X178178372Y-97351670D01*
X178224303Y-97697245D01*
X178268183Y-97803177D01*
X178394478Y-97868996D01*
X178854474Y-97409000D01*
X179285526Y-97409000D01*
X179745522Y-97868996D01*
X179871817Y-97803177D01*
X179961628Y-97466330D01*
X179915697Y-97120755D01*
X179871817Y-97014823D01*
X179745522Y-96949004D01*
X179285526Y-97409000D01*
X178854474Y-97409000D01*
X178394478Y-96949004D01*
X178268183Y-97014823D01*
X178178372Y-97351670D01*
X177533350Y-97351670D01*
X177533452Y-97235458D01*
X177400324Y-96913264D01*
X177220852Y-96733478D01*
X178610004Y-96733478D01*
X179070000Y-97193474D01*
X179529996Y-96733478D01*
X179464177Y-96607183D01*
X179127330Y-96517372D01*
X178781755Y-96563303D01*
X178675823Y-96607183D01*
X178610004Y-96733478D01*
X177220852Y-96733478D01*
X177154032Y-96666542D01*
X176832072Y-96532852D01*
X176483458Y-96532548D01*
X176161264Y-96665676D01*
X175914542Y-96911968D01*
X175780852Y-97233928D01*
X175780548Y-97582542D01*
X174993149Y-97582542D01*
X174993452Y-97235458D01*
X174860324Y-96913264D01*
X174614032Y-96666542D01*
X174292072Y-96532852D01*
X173943458Y-96532548D01*
X173621264Y-96665676D01*
X173374542Y-96911968D01*
X173336908Y-97002600D01*
X173308777Y-97002600D01*
X173153254Y-97033535D01*
X173074514Y-97086148D01*
X173021409Y-97121632D01*
X172051632Y-98091409D01*
X171963535Y-98223254D01*
X171932600Y-98378777D01*
X171932600Y-98673537D01*
X171916211Y-98676797D01*
X171557788Y-98916287D01*
X171318298Y-99274710D01*
X171234200Y-99697499D01*
X171234200Y-100454501D01*
X171318298Y-100877290D01*
X171483418Y-101124410D01*
X170654582Y-101124410D01*
X170819702Y-100877290D01*
X170903800Y-100454501D01*
X170903800Y-99697499D01*
X170819702Y-99274710D01*
X170580212Y-98916287D01*
X170221789Y-98676797D01*
X169799000Y-98592699D01*
X169376211Y-98676797D01*
X169017788Y-98916287D01*
X168778298Y-99274710D01*
X168699749Y-99669600D01*
X167681337Y-99669600D01*
X167292368Y-99280632D01*
X167283505Y-99274710D01*
X167160523Y-99192535D01*
X167005000Y-99161600D01*
X166060771Y-99161600D01*
X166060771Y-98918000D01*
X166039518Y-98805048D01*
X165972763Y-98701308D01*
X165870907Y-98631713D01*
X165750000Y-98607229D01*
X164450000Y-98607229D01*
X164337048Y-98628482D01*
X164233308Y-98695237D01*
X164163713Y-98797093D01*
X164144670Y-98891134D01*
X162517400Y-97263864D01*
X162517400Y-95103565D01*
X165495961Y-95103565D01*
X165980981Y-95586322D01*
X167560185Y-96248867D01*
X169272723Y-96256643D01*
X170857877Y-95608467D01*
X170891019Y-95586322D01*
X171376039Y-95103565D01*
X168436000Y-92163526D01*
X165495961Y-95103565D01*
X162517400Y-95103565D01*
X162517400Y-94258771D01*
X162536000Y-94258771D01*
X162648952Y-94237518D01*
X162752692Y-94170763D01*
X162822287Y-94068907D01*
X162846771Y-93948000D01*
X162846771Y-92784723D01*
X164127357Y-92784723D01*
X164775533Y-94369877D01*
X164797678Y-94403019D01*
X165280435Y-94888039D01*
X168220474Y-91948000D01*
X168651526Y-91948000D01*
X171591565Y-94888039D01*
X172074322Y-94403019D01*
X172736867Y-92823815D01*
X172744643Y-91111277D01*
X172268975Y-89948000D01*
X174025229Y-89948000D01*
X174025229Y-93948000D01*
X174046482Y-94060952D01*
X174113237Y-94164692D01*
X174215093Y-94234287D01*
X174336000Y-94258771D01*
X177336000Y-94258771D01*
X177448952Y-94237518D01*
X177552692Y-94170763D01*
X177622287Y-94068907D01*
X177646771Y-93948000D01*
X177646771Y-89948000D01*
X177625518Y-89835048D01*
X177558763Y-89731308D01*
X177456907Y-89661713D01*
X177336000Y-89637229D01*
X174336000Y-89637229D01*
X174223048Y-89658482D01*
X174119308Y-89725237D01*
X174049713Y-89827093D01*
X174025229Y-89948000D01*
X172268975Y-89948000D01*
X172096467Y-89526123D01*
X172074322Y-89492981D01*
X171591565Y-89007961D01*
X168651526Y-91948000D01*
X168220474Y-91948000D01*
X165280435Y-89007961D01*
X164797678Y-89492981D01*
X164135133Y-91072185D01*
X164127357Y-92784723D01*
X162846771Y-92784723D01*
X162846771Y-89948000D01*
X162825518Y-89835048D01*
X162758763Y-89731308D01*
X162656907Y-89661713D01*
X162536000Y-89637229D01*
X159536000Y-89637229D01*
X159423048Y-89658482D01*
X159319308Y-89725237D01*
X159249713Y-89827093D01*
X159225229Y-89948000D01*
X159225229Y-93948000D01*
X159246482Y-94060952D01*
X159313237Y-94164692D01*
X159415093Y-94234287D01*
X159536000Y-94258771D01*
X161704600Y-94258771D01*
X161704600Y-97375864D01*
X157505400Y-93176664D01*
X157505400Y-89508323D01*
X157836856Y-89371368D01*
X158204079Y-89004786D01*
X158292255Y-88792435D01*
X165495961Y-88792435D01*
X168436000Y-91732474D01*
X171376039Y-88792435D01*
X170891019Y-88309678D01*
X169311815Y-87647133D01*
X167599277Y-87639357D01*
X166014123Y-88287533D01*
X165980981Y-88309678D01*
X165495961Y-88792435D01*
X158292255Y-88792435D01*
X158403064Y-88525578D01*
X158403516Y-88006699D01*
X158205368Y-87527144D01*
X158181267Y-87503000D01*
X176658200Y-87503000D01*
X176745114Y-87939948D01*
X176992625Y-88310375D01*
X177363052Y-88557886D01*
X177800000Y-88644800D01*
X178236948Y-88557886D01*
X178607375Y-88310375D01*
X178854886Y-87939948D01*
X178941800Y-87503000D01*
X178854886Y-87066052D01*
X178607375Y-86695625D01*
X178236948Y-86448114D01*
X177800000Y-86361200D01*
X177363052Y-86448114D01*
X176992625Y-86695625D01*
X176745114Y-87066052D01*
X176658200Y-87503000D01*
X158181267Y-87503000D01*
X157838786Y-87159921D01*
X157359578Y-86960936D01*
X156840699Y-86960484D01*
X156361144Y-87158632D01*
X155993921Y-87525214D01*
X155794936Y-88004422D01*
X155794484Y-88523301D01*
X148316708Y-88523301D01*
X148635375Y-88310375D01*
X148882886Y-87939948D01*
X148969800Y-87503000D01*
X148882886Y-87066052D01*
X148635375Y-86695625D01*
X148264948Y-86448114D01*
X147828000Y-86361200D01*
X147391052Y-86448114D01*
X147020625Y-86695625D01*
X146773114Y-87066052D01*
X146686200Y-87503000D01*
X146683800Y-87503000D01*
X146683800Y-86358800D01*
X178944200Y-86358800D01*
X178944200Y-93472000D01*
X178944200Y-93472000D01*
G37*
X178944200Y-93472000D02*
X178955359Y-93528099D01*
X178961393Y-93584978D01*
X178969715Y-93600269D01*
X178973111Y-93617343D01*
X179004888Y-93664901D01*
X179032230Y-93715142D01*
X180214200Y-95133507D01*
X180214200Y-109844493D01*
X179032230Y-111262858D01*
X179004888Y-111313099D01*
X178973111Y-111360657D01*
X178969715Y-111377731D01*
X178961393Y-111393022D01*
X178955359Y-111449901D01*
X178944200Y-111506000D01*
X178944200Y-112142200D01*
X146683800Y-112142200D01*
X146683800Y-110998000D01*
X146686200Y-110998000D01*
X146773114Y-111434948D01*
X147020625Y-111805375D01*
X147391052Y-112052886D01*
X147828000Y-112139800D01*
X148264948Y-112052886D01*
X148635375Y-111805375D01*
X148882886Y-111434948D01*
X148969800Y-110998000D01*
X176658200Y-110998000D01*
X176745114Y-111434948D01*
X176992625Y-111805375D01*
X177363052Y-112052886D01*
X177800000Y-112139800D01*
X178236948Y-112052886D01*
X178607375Y-111805375D01*
X178854886Y-111434948D01*
X178941800Y-110998000D01*
X178854886Y-110561052D01*
X178607375Y-110190625D01*
X178236948Y-109943114D01*
X177800000Y-109856200D01*
X177363052Y-109943114D01*
X176992625Y-110190625D01*
X176745114Y-110561052D01*
X176658200Y-110998000D01*
X148969800Y-110998000D01*
X148882886Y-110561052D01*
X148635375Y-110190625D01*
X148264948Y-109943114D01*
X147828000Y-109856200D01*
X147391052Y-109943114D01*
X147020625Y-110190625D01*
X146773114Y-110561052D01*
X146686200Y-110998000D01*
X146683800Y-110998000D01*
X146683800Y-107700402D01*
X146753974Y-107700402D01*
X146952199Y-108180144D01*
X147318925Y-108547511D01*
X147798320Y-108746573D01*
X148317402Y-108747026D01*
X148797144Y-108548801D01*
X149164511Y-108182075D01*
X149303065Y-107848400D01*
X153315125Y-107848400D01*
X153452199Y-108180144D01*
X153818925Y-108547511D01*
X154298320Y-108746573D01*
X154817402Y-108747026D01*
X155151319Y-108609055D01*
X156337923Y-109795659D01*
X156469768Y-109883756D01*
X156625291Y-109914691D01*
X166983509Y-109914691D01*
X167139032Y-109883756D01*
X167270877Y-109795659D01*
X168743614Y-108322923D01*
X168778298Y-108497290D01*
X169017788Y-108855713D01*
X169376211Y-109095203D01*
X169799000Y-109179301D01*
X170221789Y-109095203D01*
X170580212Y-108855713D01*
X170819702Y-108497290D01*
X170903800Y-108074501D01*
X170903800Y-107317499D01*
X170819702Y-106894710D01*
X170654582Y-106647590D01*
X171065854Y-106647590D01*
X171317415Y-106899151D01*
X171234200Y-107317499D01*
X171234200Y-108074501D01*
X171318298Y-108497290D01*
X171557788Y-108855713D01*
X171916211Y-109095203D01*
X172339000Y-109179301D01*
X172761789Y-109095203D01*
X173120212Y-108855713D01*
X173359702Y-108497290D01*
X173443800Y-108074501D01*
X173443800Y-107317499D01*
X173359702Y-106894710D01*
X173120212Y-106536287D01*
X172761789Y-106296797D01*
X172339000Y-106212699D01*
X171916211Y-106296797D01*
X171885232Y-106317496D01*
X171765136Y-106197400D01*
X173155664Y-106197400D01*
X173857415Y-106899151D01*
X173774200Y-107317499D01*
X173774200Y-108074501D01*
X173858298Y-108497290D01*
X174097788Y-108855713D01*
X174456211Y-109095203D01*
X174879000Y-109179301D01*
X175301789Y-109095203D01*
X175660212Y-108855713D01*
X175899702Y-108497290D01*
X175983800Y-108074501D01*
X175983800Y-107848400D01*
X176314200Y-107848400D01*
X176314200Y-108198400D01*
X176456619Y-108609588D01*
X176745552Y-108934975D01*
X177097300Y-109102926D01*
X177266600Y-109063247D01*
X177266600Y-107848400D01*
X177571400Y-107848400D01*
X177571400Y-109063247D01*
X177740700Y-109102926D01*
X178092448Y-108934975D01*
X178381381Y-108609588D01*
X178523800Y-108198400D01*
X178523800Y-107848400D01*
X177571400Y-107848400D01*
X177266600Y-107848400D01*
X176314200Y-107848400D01*
X175983800Y-107848400D01*
X175983800Y-107317499D01*
X175959155Y-107193600D01*
X176314200Y-107193600D01*
X176314200Y-107543600D01*
X177266600Y-107543600D01*
X177266600Y-106328753D01*
X177571400Y-106328753D01*
X177571400Y-107543600D01*
X178523800Y-107543600D01*
X178523800Y-107193600D01*
X178381381Y-106782412D01*
X178092448Y-106457025D01*
X177740700Y-106289074D01*
X177571400Y-106328753D01*
X177266600Y-106328753D01*
X177097300Y-106289074D01*
X176745552Y-106457025D01*
X176456619Y-106782412D01*
X176314200Y-107193600D01*
X175959155Y-107193600D01*
X175899702Y-106894710D01*
X175660212Y-106536287D01*
X175301789Y-106296797D01*
X174879000Y-106212699D01*
X174456211Y-106296797D01*
X174425232Y-106317496D01*
X173611368Y-105503632D01*
X173479523Y-105415535D01*
X173324000Y-105384600D01*
X167316828Y-105384600D01*
X166800860Y-104868632D01*
X166669015Y-104780535D01*
X166513492Y-104749600D01*
X166343323Y-104749600D01*
X166206368Y-104418144D01*
X165839786Y-104050921D01*
X165360578Y-103851936D01*
X164841699Y-103851484D01*
X164362144Y-104049632D01*
X163994921Y-104416214D01*
X163795936Y-104895422D01*
X163795484Y-105414301D01*
X163993632Y-105893856D01*
X164360214Y-106261079D01*
X164839422Y-106460064D01*
X165358301Y-106460516D01*
X165837856Y-106262368D01*
X166205079Y-105895786D01*
X166343513Y-105562400D01*
X166345156Y-105562400D01*
X166756010Y-105973254D01*
X165691794Y-107037469D01*
X165360578Y-106899936D01*
X164841699Y-106899484D01*
X164362144Y-107097632D01*
X163994921Y-107464214D01*
X163795936Y-107943422D01*
X163795484Y-108462301D01*
X163993632Y-108941856D01*
X164153388Y-109101891D01*
X158426698Y-109101891D01*
X158585079Y-108943786D01*
X158784064Y-108464578D01*
X158784516Y-107945699D01*
X158646664Y-107612072D01*
X159164368Y-107094368D01*
X159252465Y-106962523D01*
X159283400Y-106807000D01*
X159283400Y-104394000D01*
X159252465Y-104238477D01*
X159164368Y-104106632D01*
X157858772Y-102801036D01*
X164582490Y-102801036D01*
X164658137Y-102935451D01*
X165023730Y-103038514D01*
X165400935Y-102993826D01*
X165541863Y-102935451D01*
X165617510Y-102801036D01*
X165100000Y-102283526D01*
X164582490Y-102801036D01*
X157858772Y-102801036D01*
X157049466Y-101991730D01*
X164129486Y-101991730D01*
X164174174Y-102368935D01*
X164232549Y-102509863D01*
X164366964Y-102585510D01*
X164884474Y-102068000D01*
X164366964Y-101550490D01*
X164232549Y-101626137D01*
X164129486Y-101991730D01*
X157049466Y-101991730D01*
X155235336Y-100177600D01*
X157318200Y-100177600D01*
X157318200Y-101009628D01*
X157364603Y-101121655D01*
X157450344Y-101207397D01*
X157562371Y-101253800D01*
X158394400Y-101253800D01*
X158470600Y-101177600D01*
X158470600Y-100101400D01*
X157394400Y-100101400D01*
X157318200Y-100177600D01*
X155235336Y-100177600D01*
X155219400Y-100161664D01*
X155219400Y-98888372D01*
X157318200Y-98888372D01*
X157318200Y-99720400D01*
X157394400Y-99796600D01*
X158470600Y-99796600D01*
X158470600Y-98720400D01*
X158394400Y-98644200D01*
X157562371Y-98644200D01*
X157450344Y-98690603D01*
X157364603Y-98776345D01*
X157318200Y-98888372D01*
X155219400Y-98888372D01*
X155219400Y-96143301D01*
X155794484Y-96143301D01*
X155992632Y-96622856D01*
X156359214Y-96990079D01*
X156838422Y-97189064D01*
X157357301Y-97189516D01*
X157690928Y-97051664D01*
X159283464Y-98644200D01*
X158851600Y-98644200D01*
X158775400Y-98720400D01*
X158775400Y-99796600D01*
X158795400Y-99796600D01*
X158795400Y-100101400D01*
X158775400Y-100101400D01*
X158775400Y-101177600D01*
X158851600Y-101253800D01*
X159683629Y-101253800D01*
X159795656Y-101207397D01*
X159881397Y-101121655D01*
X159927800Y-101009628D01*
X159927800Y-100376394D01*
X160056199Y-100687144D01*
X160422925Y-101054511D01*
X160902320Y-101253573D01*
X161421402Y-101254026D01*
X161901144Y-101055801D01*
X162268511Y-100689075D01*
X162467573Y-100209680D01*
X162468026Y-99690598D01*
X162269801Y-99210856D01*
X161903075Y-98843489D01*
X161423680Y-98644427D01*
X160904598Y-98643974D01*
X160570681Y-98781945D01*
X158265531Y-96476795D01*
X158403064Y-96145578D01*
X158403516Y-95626699D01*
X158205368Y-95147144D01*
X157838786Y-94779921D01*
X157359578Y-94580936D01*
X156840699Y-94580484D01*
X156361144Y-94778632D01*
X155993921Y-95145214D01*
X155794936Y-95624422D01*
X155794484Y-96143301D01*
X155219400Y-96143301D01*
X155219400Y-92461974D01*
X155213948Y-92434564D01*
X155188466Y-92306452D01*
X155100369Y-92174606D01*
X153982593Y-91056831D01*
X153850748Y-90968734D01*
X153695225Y-90937799D01*
X152822775Y-90937799D01*
X152667252Y-90968734D01*
X152535407Y-91056831D01*
X151771632Y-91820606D01*
X151683535Y-91952451D01*
X151652600Y-92107974D01*
X151652600Y-92237599D01*
X151544879Y-92282108D01*
X151289006Y-92537534D01*
X151150359Y-92871436D01*
X151150043Y-93232978D01*
X151288108Y-93567121D01*
X151543534Y-93822994D01*
X151615562Y-93852902D01*
X151544879Y-93882108D01*
X151289006Y-94137534D01*
X151150359Y-94471436D01*
X151150043Y-94832978D01*
X151288108Y-95167121D01*
X151543534Y-95422994D01*
X151877436Y-95561641D01*
X152238978Y-95561957D01*
X152350885Y-95515718D01*
X152380108Y-95746502D01*
X152429992Y-95866933D01*
X152559645Y-95936829D01*
X153043474Y-95453000D01*
X153029332Y-95438858D01*
X153244858Y-95223332D01*
X153259000Y-95237474D01*
X153273143Y-95223332D01*
X153488669Y-95438858D01*
X153474526Y-95453000D01*
X153958355Y-95936829D01*
X154000189Y-95914276D01*
X154000189Y-100669097D01*
X154031124Y-100824620D01*
X154119221Y-100956465D01*
X154815732Y-101652976D01*
X154719334Y-101621334D01*
X154201732Y-101660507D01*
X153905474Y-101783221D01*
X153786508Y-101953982D01*
X154559000Y-102726474D01*
X154573143Y-102712332D01*
X154788669Y-102927858D01*
X154774526Y-102942000D01*
X155547018Y-103714492D01*
X155717779Y-103595526D01*
X155879666Y-103102334D01*
X155848108Y-102685353D01*
X157073600Y-103910845D01*
X157073600Y-103912677D01*
X156742144Y-104049632D01*
X156374921Y-104416214D01*
X156175936Y-104895422D01*
X156175484Y-105414301D01*
X156373632Y-105893856D01*
X156740214Y-106261079D01*
X157219422Y-106460064D01*
X157738301Y-106460516D01*
X158217856Y-106262368D01*
X158470600Y-106010065D01*
X158470600Y-106638664D01*
X158071795Y-107037469D01*
X157740578Y-106899936D01*
X157221699Y-106899484D01*
X156742144Y-107097632D01*
X156374921Y-107464214D01*
X156175936Y-107943422D01*
X156175484Y-108462301D01*
X156190586Y-108498850D01*
X155725920Y-108034184D01*
X155863573Y-107702680D01*
X155864026Y-107183598D01*
X155665801Y-106703856D01*
X155299075Y-106336489D01*
X154819680Y-106137427D01*
X154300598Y-106136974D01*
X153820856Y-106335199D01*
X153453489Y-106701925D01*
X153314935Y-107035600D01*
X149302875Y-107035600D01*
X149165801Y-106703856D01*
X148799075Y-106336489D01*
X148319680Y-106137427D01*
X147800598Y-106136974D01*
X147320856Y-106335199D01*
X146953489Y-106701925D01*
X146754427Y-107181320D01*
X146753974Y-107700402D01*
X146683800Y-107700402D01*
X146683800Y-103930018D01*
X147286508Y-103930018D01*
X147405474Y-104100779D01*
X147898666Y-104262666D01*
X148416268Y-104223493D01*
X148712526Y-104100779D01*
X148831492Y-103930018D01*
X153786508Y-103930018D01*
X153905474Y-104100779D01*
X154398666Y-104262666D01*
X154916268Y-104223493D01*
X155212526Y-104100779D01*
X155331492Y-103930018D01*
X154559000Y-103157526D01*
X153786508Y-103930018D01*
X148831492Y-103930018D01*
X148059000Y-103157526D01*
X147286508Y-103930018D01*
X146683800Y-103930018D01*
X146683800Y-102781666D01*
X146738334Y-102781666D01*
X146777507Y-103299268D01*
X146900221Y-103595526D01*
X147070982Y-103714492D01*
X147843474Y-102942000D01*
X148274526Y-102942000D01*
X149047018Y-103714492D01*
X149217779Y-103595526D01*
X149379666Y-103102334D01*
X149355398Y-102781666D01*
X153238334Y-102781666D01*
X153277507Y-103299268D01*
X153400221Y-103595526D01*
X153570982Y-103714492D01*
X154343474Y-102942000D01*
X153570982Y-102169508D01*
X153400221Y-102288474D01*
X153238334Y-102781666D01*
X149355398Y-102781666D01*
X149340493Y-102584732D01*
X149217779Y-102288474D01*
X149047018Y-102169508D01*
X148274526Y-102942000D01*
X147843474Y-102942000D01*
X147070982Y-102169508D01*
X146900221Y-102288474D01*
X146738334Y-102781666D01*
X146683800Y-102781666D01*
X146683800Y-101953982D01*
X147286508Y-101953982D01*
X148059000Y-102726474D01*
X148831492Y-101953982D01*
X148712526Y-101783221D01*
X148219334Y-101621334D01*
X147701732Y-101660507D01*
X147405474Y-101783221D01*
X147286508Y-101953982D01*
X146683800Y-101953982D01*
X146683800Y-98133580D01*
X146720025Y-98209448D01*
X147045412Y-98498381D01*
X147456600Y-98640800D01*
X148056600Y-98640800D01*
X148056600Y-98157850D01*
X148361400Y-98157850D01*
X148361400Y-98640800D01*
X148961400Y-98640800D01*
X149372588Y-98498381D01*
X149697975Y-98209448D01*
X149865926Y-97857700D01*
X149826247Y-97688400D01*
X149432944Y-97688400D01*
X149457991Y-97562478D01*
X149457993Y-97562473D01*
X149457993Y-97443527D01*
X149457991Y-97443522D01*
X149446072Y-97383600D01*
X149826247Y-97383600D01*
X149865926Y-97214300D01*
X149697975Y-96862552D01*
X149372588Y-96573619D01*
X148961400Y-96431200D01*
X148361400Y-96431200D01*
X148361400Y-96848150D01*
X148056600Y-96848150D01*
X148056600Y-96431200D01*
X147456600Y-96431200D01*
X147045412Y-96573619D01*
X146720025Y-96862552D01*
X146683800Y-96938420D01*
X146683800Y-96152355D01*
X152775171Y-96152355D01*
X152845067Y-96282008D01*
X153193823Y-96377309D01*
X153552502Y-96331892D01*
X153672933Y-96282008D01*
X153742829Y-96152355D01*
X153259000Y-95668526D01*
X152775171Y-96152355D01*
X146683800Y-96152355D01*
X146683800Y-90767580D01*
X146720025Y-90843448D01*
X147045412Y-91132381D01*
X147456600Y-91274800D01*
X148056600Y-91274800D01*
X148056600Y-90857850D01*
X148361400Y-90857850D01*
X148361400Y-91274800D01*
X148961400Y-91274800D01*
X149372588Y-91132381D01*
X149697975Y-90843448D01*
X149865926Y-90491700D01*
X149826247Y-90322400D01*
X149446072Y-90322400D01*
X149457991Y-90262478D01*
X149457993Y-90262473D01*
X149457993Y-90143527D01*
X149457991Y-90143522D01*
X149432944Y-90017600D01*
X149826247Y-90017600D01*
X149865926Y-89848300D01*
X149697975Y-89496552D01*
X149372588Y-89207619D01*
X148961400Y-89065200D01*
X148361400Y-89065200D01*
X148361400Y-89548150D01*
X148056600Y-89548150D01*
X148056600Y-89065200D01*
X147456600Y-89065200D01*
X147045412Y-89207619D01*
X146720025Y-89496552D01*
X146683800Y-89572420D01*
X146683800Y-87503000D01*
X146686200Y-87503000D01*
X146773114Y-87939948D01*
X147020625Y-88310375D01*
X147391052Y-88557886D01*
X147828000Y-88644800D01*
X148264948Y-88557886D01*
X148316708Y-88523301D01*
X155794484Y-88523301D01*
X155992632Y-89002856D01*
X156359214Y-89370079D01*
X156692600Y-89508513D01*
X156692600Y-93345000D01*
X156723535Y-93500523D01*
X156767040Y-93565632D01*
X156811632Y-93632368D01*
X164579831Y-101400567D01*
X164711676Y-101488664D01*
X164742277Y-101494751D01*
X165100000Y-101852474D01*
X165114143Y-101838332D01*
X165329669Y-102053858D01*
X165315526Y-102068000D01*
X165833036Y-102585510D01*
X165967451Y-102509863D01*
X166070514Y-102144270D01*
X166025826Y-101767065D01*
X165967451Y-101626137D01*
X165833038Y-101550491D01*
X165863930Y-101519599D01*
X168755426Y-101519599D01*
X169054005Y-101818178D01*
X169185850Y-101906275D01*
X169341373Y-101937210D01*
X173774190Y-101937210D01*
X173929713Y-101906275D01*
X174061558Y-101818178D01*
X174425232Y-101454504D01*
X174456211Y-101475203D01*
X174879000Y-101559301D01*
X175301789Y-101475203D01*
X175660212Y-101235713D01*
X175899702Y-100877290D01*
X175983800Y-100454501D01*
X175983800Y-99697499D01*
X175899702Y-99274710D01*
X175660212Y-98916287D01*
X175301789Y-98676797D01*
X174879000Y-98592699D01*
X174456211Y-98676797D01*
X174097788Y-98916287D01*
X173858298Y-99274710D01*
X173774200Y-99697499D01*
X173774200Y-100454501D01*
X173857415Y-100872849D01*
X173605854Y-101124410D01*
X173194582Y-101124410D01*
X173359702Y-100877290D01*
X173443800Y-100454501D01*
X173443800Y-99697499D01*
X173359702Y-99274710D01*
X173120212Y-98916287D01*
X172761789Y-98676797D01*
X172745400Y-98673537D01*
X172745400Y-98547113D01*
X173380720Y-97911793D01*
X173619968Y-98151458D01*
X173941928Y-98285148D01*
X174290542Y-98285452D01*
X174612736Y-98152324D01*
X174859458Y-97906032D01*
X174993148Y-97584072D01*
X174993149Y-97582542D01*
X175780548Y-97582542D01*
X175913676Y-97904736D01*
X176159968Y-98151458D01*
X176481928Y-98285148D01*
X176830542Y-98285452D01*
X176921240Y-98247976D01*
X177012600Y-98339336D01*
X177012600Y-98673537D01*
X176996211Y-98676797D01*
X176637788Y-98916287D01*
X176398298Y-99274710D01*
X176314200Y-99697499D01*
X176314200Y-100454501D01*
X176398298Y-100877290D01*
X176637788Y-101235713D01*
X176996211Y-101475203D01*
X177419000Y-101559301D01*
X177841789Y-101475203D01*
X178200212Y-101235713D01*
X178439702Y-100877290D01*
X178523800Y-100454501D01*
X178523800Y-99697499D01*
X178439702Y-99274710D01*
X178200212Y-98916287D01*
X177841789Y-98676797D01*
X177825400Y-98673537D01*
X177825400Y-98171000D01*
X177808199Y-98084522D01*
X178610004Y-98084522D01*
X178675823Y-98210817D01*
X179012670Y-98300628D01*
X179358245Y-98254697D01*
X179464177Y-98210817D01*
X179529996Y-98084522D01*
X179070000Y-97624526D01*
X178610004Y-98084522D01*
X177808199Y-98084522D01*
X177794465Y-98015477D01*
X177706368Y-97883632D01*
X177496079Y-97673343D01*
X177533148Y-97584072D01*
X177533350Y-97351670D01*
X178178372Y-97351670D01*
X178224303Y-97697245D01*
X178268183Y-97803177D01*
X178394478Y-97868996D01*
X178854474Y-97409000D01*
X179285526Y-97409000D01*
X179745522Y-97868996D01*
X179871817Y-97803177D01*
X179961628Y-97466330D01*
X179915697Y-97120755D01*
X179871817Y-97014823D01*
X179745522Y-96949004D01*
X179285526Y-97409000D01*
X178854474Y-97409000D01*
X178394478Y-96949004D01*
X178268183Y-97014823D01*
X178178372Y-97351670D01*
X177533350Y-97351670D01*
X177533452Y-97235458D01*
X177400324Y-96913264D01*
X177220852Y-96733478D01*
X178610004Y-96733478D01*
X179070000Y-97193474D01*
X179529996Y-96733478D01*
X179464177Y-96607183D01*
X179127330Y-96517372D01*
X178781755Y-96563303D01*
X178675823Y-96607183D01*
X178610004Y-96733478D01*
X177220852Y-96733478D01*
X177154032Y-96666542D01*
X176832072Y-96532852D01*
X176483458Y-96532548D01*
X176161264Y-96665676D01*
X175914542Y-96911968D01*
X175780852Y-97233928D01*
X175780548Y-97582542D01*
X174993149Y-97582542D01*
X174993452Y-97235458D01*
X174860324Y-96913264D01*
X174614032Y-96666542D01*
X174292072Y-96532852D01*
X173943458Y-96532548D01*
X173621264Y-96665676D01*
X173374542Y-96911968D01*
X173336908Y-97002600D01*
X173308777Y-97002600D01*
X173153254Y-97033535D01*
X173074514Y-97086148D01*
X173021409Y-97121632D01*
X172051632Y-98091409D01*
X171963535Y-98223254D01*
X171932600Y-98378777D01*
X171932600Y-98673537D01*
X171916211Y-98676797D01*
X171557788Y-98916287D01*
X171318298Y-99274710D01*
X171234200Y-99697499D01*
X171234200Y-100454501D01*
X171318298Y-100877290D01*
X171483418Y-101124410D01*
X170654582Y-101124410D01*
X170819702Y-100877290D01*
X170903800Y-100454501D01*
X170903800Y-99697499D01*
X170819702Y-99274710D01*
X170580212Y-98916287D01*
X170221789Y-98676797D01*
X169799000Y-98592699D01*
X169376211Y-98676797D01*
X169017788Y-98916287D01*
X168778298Y-99274710D01*
X168699749Y-99669600D01*
X167681337Y-99669600D01*
X167292368Y-99280632D01*
X167283505Y-99274710D01*
X167160523Y-99192535D01*
X167005000Y-99161600D01*
X166060771Y-99161600D01*
X166060771Y-98918000D01*
X166039518Y-98805048D01*
X165972763Y-98701308D01*
X165870907Y-98631713D01*
X165750000Y-98607229D01*
X164450000Y-98607229D01*
X164337048Y-98628482D01*
X164233308Y-98695237D01*
X164163713Y-98797093D01*
X164144670Y-98891134D01*
X162517400Y-97263864D01*
X162517400Y-95103565D01*
X165495961Y-95103565D01*
X165980981Y-95586322D01*
X167560185Y-96248867D01*
X169272723Y-96256643D01*
X170857877Y-95608467D01*
X170891019Y-95586322D01*
X171376039Y-95103565D01*
X168436000Y-92163526D01*
X165495961Y-95103565D01*
X162517400Y-95103565D01*
X162517400Y-94258771D01*
X162536000Y-94258771D01*
X162648952Y-94237518D01*
X162752692Y-94170763D01*
X162822287Y-94068907D01*
X162846771Y-93948000D01*
X162846771Y-92784723D01*
X164127357Y-92784723D01*
X164775533Y-94369877D01*
X164797678Y-94403019D01*
X165280435Y-94888039D01*
X168220474Y-91948000D01*
X168651526Y-91948000D01*
X171591565Y-94888039D01*
X172074322Y-94403019D01*
X172736867Y-92823815D01*
X172744643Y-91111277D01*
X172268975Y-89948000D01*
X174025229Y-89948000D01*
X174025229Y-93948000D01*
X174046482Y-94060952D01*
X174113237Y-94164692D01*
X174215093Y-94234287D01*
X174336000Y-94258771D01*
X177336000Y-94258771D01*
X177448952Y-94237518D01*
X177552692Y-94170763D01*
X177622287Y-94068907D01*
X177646771Y-93948000D01*
X177646771Y-89948000D01*
X177625518Y-89835048D01*
X177558763Y-89731308D01*
X177456907Y-89661713D01*
X177336000Y-89637229D01*
X174336000Y-89637229D01*
X174223048Y-89658482D01*
X174119308Y-89725237D01*
X174049713Y-89827093D01*
X174025229Y-89948000D01*
X172268975Y-89948000D01*
X172096467Y-89526123D01*
X172074322Y-89492981D01*
X171591565Y-89007961D01*
X168651526Y-91948000D01*
X168220474Y-91948000D01*
X165280435Y-89007961D01*
X164797678Y-89492981D01*
X164135133Y-91072185D01*
X164127357Y-92784723D01*
X162846771Y-92784723D01*
X162846771Y-89948000D01*
X162825518Y-89835048D01*
X162758763Y-89731308D01*
X162656907Y-89661713D01*
X162536000Y-89637229D01*
X159536000Y-89637229D01*
X159423048Y-89658482D01*
X159319308Y-89725237D01*
X159249713Y-89827093D01*
X159225229Y-89948000D01*
X159225229Y-93948000D01*
X159246482Y-94060952D01*
X159313237Y-94164692D01*
X159415093Y-94234287D01*
X159536000Y-94258771D01*
X161704600Y-94258771D01*
X161704600Y-97375864D01*
X157505400Y-93176664D01*
X157505400Y-89508323D01*
X157836856Y-89371368D01*
X158204079Y-89004786D01*
X158292255Y-88792435D01*
X165495961Y-88792435D01*
X168436000Y-91732474D01*
X171376039Y-88792435D01*
X170891019Y-88309678D01*
X169311815Y-87647133D01*
X167599277Y-87639357D01*
X166014123Y-88287533D01*
X165980981Y-88309678D01*
X165495961Y-88792435D01*
X158292255Y-88792435D01*
X158403064Y-88525578D01*
X158403516Y-88006699D01*
X158205368Y-87527144D01*
X158181267Y-87503000D01*
X176658200Y-87503000D01*
X176745114Y-87939948D01*
X176992625Y-88310375D01*
X177363052Y-88557886D01*
X177800000Y-88644800D01*
X178236948Y-88557886D01*
X178607375Y-88310375D01*
X178854886Y-87939948D01*
X178941800Y-87503000D01*
X178854886Y-87066052D01*
X178607375Y-86695625D01*
X178236948Y-86448114D01*
X177800000Y-86361200D01*
X177363052Y-86448114D01*
X176992625Y-86695625D01*
X176745114Y-87066052D01*
X176658200Y-87503000D01*
X158181267Y-87503000D01*
X157838786Y-87159921D01*
X157359578Y-86960936D01*
X156840699Y-86960484D01*
X156361144Y-87158632D01*
X155993921Y-87525214D01*
X155794936Y-88004422D01*
X155794484Y-88523301D01*
X148316708Y-88523301D01*
X148635375Y-88310375D01*
X148882886Y-87939948D01*
X148969800Y-87503000D01*
X148882886Y-87066052D01*
X148635375Y-86695625D01*
X148264948Y-86448114D01*
X147828000Y-86361200D01*
X147391052Y-86448114D01*
X147020625Y-86695625D01*
X146773114Y-87066052D01*
X146686200Y-87503000D01*
X146683800Y-87503000D01*
X146683800Y-86358800D01*
X178944200Y-86358800D01*
X178944200Y-93472000D01*
G36*
X148823990Y-97466804D02*
X148836703Y-97475298D01*
X148845196Y-97488009D01*
X148848178Y-97503000D01*
X148845196Y-97517991D01*
X148836703Y-97530702D01*
X148823990Y-97539196D01*
X148778977Y-97548150D01*
X148036600Y-97548150D01*
X148036600Y-97457850D01*
X148778977Y-97457850D01*
X148823990Y-97466804D01*
X148823990Y-97466804D01*
G37*
X148823990Y-97466804D02*
X148836703Y-97475298D01*
X148845196Y-97488009D01*
X148848178Y-97503000D01*
X148845196Y-97517991D01*
X148836703Y-97530702D01*
X148823990Y-97539196D01*
X148778977Y-97548150D01*
X148036600Y-97548150D01*
X148036600Y-97457850D01*
X148778977Y-97457850D01*
X148823990Y-97466804D01*
G36*
X148823990Y-90166804D02*
X148836703Y-90175298D01*
X148845196Y-90188009D01*
X148848178Y-90203000D01*
X148845196Y-90217991D01*
X148836703Y-90230702D01*
X148823990Y-90239196D01*
X148778977Y-90248150D01*
X148036600Y-90248150D01*
X148036600Y-90157850D01*
X148778977Y-90157850D01*
X148823990Y-90166804D01*
X148823990Y-90166804D01*
G37*
X148823990Y-90166804D02*
X148836703Y-90175298D01*
X148845196Y-90188009D01*
X148848178Y-90203000D01*
X148845196Y-90217991D01*
X148836703Y-90230702D01*
X148823990Y-90239196D01*
X148778977Y-90248150D01*
X148036600Y-90248150D01*
X148036600Y-90157850D01*
X148778977Y-90157850D01*
X148823990Y-90166804D01*
G36*
X178944200Y-66929000D02*
X178955359Y-66985099D01*
X178961393Y-67041978D01*
X178969715Y-67057269D01*
X178973111Y-67074343D01*
X179004888Y-67121901D01*
X179032230Y-67172142D01*
X180214200Y-68590507D01*
X180214200Y-83301493D01*
X179032230Y-84719858D01*
X179004888Y-84770099D01*
X178973111Y-84817657D01*
X178969715Y-84834731D01*
X178961393Y-84850022D01*
X178955359Y-84906901D01*
X178944200Y-84963000D01*
X178944200Y-85599200D01*
X146683800Y-85599200D01*
X146683800Y-84455000D01*
X146686200Y-84455000D01*
X146773114Y-84891948D01*
X147020625Y-85262375D01*
X147391052Y-85509886D01*
X147828000Y-85596800D01*
X148264948Y-85509886D01*
X148635375Y-85262375D01*
X148882886Y-84891948D01*
X148969800Y-84455000D01*
X176658200Y-84455000D01*
X176745114Y-84891948D01*
X176992625Y-85262375D01*
X177363052Y-85509886D01*
X177800000Y-85596800D01*
X178236948Y-85509886D01*
X178607375Y-85262375D01*
X178854886Y-84891948D01*
X178941800Y-84455000D01*
X178854886Y-84018052D01*
X178607375Y-83647625D01*
X178236948Y-83400114D01*
X177800000Y-83313200D01*
X177363052Y-83400114D01*
X176992625Y-83647625D01*
X176745114Y-84018052D01*
X176658200Y-84455000D01*
X148969800Y-84455000D01*
X148882886Y-84018052D01*
X148635375Y-83647625D01*
X148264948Y-83400114D01*
X147828000Y-83313200D01*
X147391052Y-83400114D01*
X147020625Y-83647625D01*
X146773114Y-84018052D01*
X146686200Y-84455000D01*
X146683800Y-84455000D01*
X146683800Y-81157402D01*
X146753974Y-81157402D01*
X146952199Y-81637144D01*
X147318925Y-82004511D01*
X147798320Y-82203573D01*
X148317402Y-82204026D01*
X148797144Y-82005801D01*
X149164511Y-81639075D01*
X149303065Y-81305400D01*
X153315125Y-81305400D01*
X153452199Y-81637144D01*
X153818925Y-82004511D01*
X154298320Y-82203573D01*
X154817402Y-82204026D01*
X155151319Y-82066055D01*
X156337923Y-83252659D01*
X156469768Y-83340756D01*
X156625291Y-83371691D01*
X166983509Y-83371691D01*
X167139032Y-83340756D01*
X167270877Y-83252659D01*
X168743614Y-81779923D01*
X168778298Y-81954290D01*
X169017788Y-82312713D01*
X169376211Y-82552203D01*
X169799000Y-82636301D01*
X170221789Y-82552203D01*
X170580212Y-82312713D01*
X170819702Y-81954290D01*
X170903800Y-81531501D01*
X170903800Y-80774499D01*
X170819702Y-80351710D01*
X170654582Y-80104590D01*
X171065854Y-80104590D01*
X171317415Y-80356151D01*
X171234200Y-80774499D01*
X171234200Y-81531501D01*
X171318298Y-81954290D01*
X171557788Y-82312713D01*
X171916211Y-82552203D01*
X172339000Y-82636301D01*
X172761789Y-82552203D01*
X173120212Y-82312713D01*
X173359702Y-81954290D01*
X173443800Y-81531501D01*
X173443800Y-80774499D01*
X173359702Y-80351710D01*
X173120212Y-79993287D01*
X172761789Y-79753797D01*
X172339000Y-79669699D01*
X171916211Y-79753797D01*
X171885232Y-79774496D01*
X171765136Y-79654400D01*
X173155664Y-79654400D01*
X173857415Y-80356151D01*
X173774200Y-80774499D01*
X173774200Y-81531501D01*
X173858298Y-81954290D01*
X174097788Y-82312713D01*
X174456211Y-82552203D01*
X174879000Y-82636301D01*
X175301789Y-82552203D01*
X175660212Y-82312713D01*
X175899702Y-81954290D01*
X175983800Y-81531501D01*
X175983800Y-81305400D01*
X176314200Y-81305400D01*
X176314200Y-81655400D01*
X176456619Y-82066588D01*
X176745552Y-82391975D01*
X177097300Y-82559926D01*
X177266600Y-82520247D01*
X177266600Y-81305400D01*
X177571400Y-81305400D01*
X177571400Y-82520247D01*
X177740700Y-82559926D01*
X178092448Y-82391975D01*
X178381381Y-82066588D01*
X178523800Y-81655400D01*
X178523800Y-81305400D01*
X177571400Y-81305400D01*
X177266600Y-81305400D01*
X176314200Y-81305400D01*
X175983800Y-81305400D01*
X175983800Y-80774499D01*
X175959155Y-80650600D01*
X176314200Y-80650600D01*
X176314200Y-81000600D01*
X177266600Y-81000600D01*
X177266600Y-79785753D01*
X177571400Y-79785753D01*
X177571400Y-81000600D01*
X178523800Y-81000600D01*
X178523800Y-80650600D01*
X178381381Y-80239412D01*
X178092448Y-79914025D01*
X177740700Y-79746074D01*
X177571400Y-79785753D01*
X177266600Y-79785753D01*
X177097300Y-79746074D01*
X176745552Y-79914025D01*
X176456619Y-80239412D01*
X176314200Y-80650600D01*
X175959155Y-80650600D01*
X175899702Y-80351710D01*
X175660212Y-79993287D01*
X175301789Y-79753797D01*
X174879000Y-79669699D01*
X174456211Y-79753797D01*
X174425232Y-79774496D01*
X173611368Y-78960632D01*
X173479523Y-78872535D01*
X173324000Y-78841600D01*
X167316828Y-78841600D01*
X166800860Y-78325632D01*
X166669015Y-78237535D01*
X166513492Y-78206600D01*
X166343323Y-78206600D01*
X166206368Y-77875144D01*
X165839786Y-77507921D01*
X165360578Y-77308936D01*
X164841699Y-77308484D01*
X164362144Y-77506632D01*
X163994921Y-77873214D01*
X163795936Y-78352422D01*
X163795484Y-78871301D01*
X163993632Y-79350856D01*
X164360214Y-79718079D01*
X164839422Y-79917064D01*
X165358301Y-79917516D01*
X165837856Y-79719368D01*
X166205079Y-79352786D01*
X166343513Y-79019400D01*
X166345156Y-79019400D01*
X166756010Y-79430254D01*
X165691794Y-80494469D01*
X165360578Y-80356936D01*
X164841699Y-80356484D01*
X164362144Y-80554632D01*
X163994921Y-80921214D01*
X163795936Y-81400422D01*
X163795484Y-81919301D01*
X163993632Y-82398856D01*
X164153388Y-82558891D01*
X158426698Y-82558891D01*
X158585079Y-82400786D01*
X158784064Y-81921578D01*
X158784516Y-81402699D01*
X158646664Y-81069072D01*
X159164368Y-80551368D01*
X159252465Y-80419523D01*
X159283400Y-80264000D01*
X159283400Y-77851000D01*
X159252465Y-77695477D01*
X159164368Y-77563632D01*
X157858772Y-76258036D01*
X164582490Y-76258036D01*
X164658137Y-76392451D01*
X165023730Y-76495514D01*
X165400935Y-76450826D01*
X165541863Y-76392451D01*
X165617510Y-76258036D01*
X165100000Y-75740526D01*
X164582490Y-76258036D01*
X157858772Y-76258036D01*
X157049466Y-75448730D01*
X164129486Y-75448730D01*
X164174174Y-75825935D01*
X164232549Y-75966863D01*
X164366964Y-76042510D01*
X164884474Y-75525000D01*
X164366964Y-75007490D01*
X164232549Y-75083137D01*
X164129486Y-75448730D01*
X157049466Y-75448730D01*
X155235336Y-73634600D01*
X157318200Y-73634600D01*
X157318200Y-74466628D01*
X157364603Y-74578655D01*
X157450344Y-74664397D01*
X157562371Y-74710800D01*
X158394400Y-74710800D01*
X158470600Y-74634600D01*
X158470600Y-73558400D01*
X157394400Y-73558400D01*
X157318200Y-73634600D01*
X155235336Y-73634600D01*
X155219400Y-73618664D01*
X155219400Y-72345372D01*
X157318200Y-72345372D01*
X157318200Y-73177400D01*
X157394400Y-73253600D01*
X158470600Y-73253600D01*
X158470600Y-72177400D01*
X158394400Y-72101200D01*
X157562371Y-72101200D01*
X157450344Y-72147603D01*
X157364603Y-72233345D01*
X157318200Y-72345372D01*
X155219400Y-72345372D01*
X155219400Y-69600301D01*
X155794484Y-69600301D01*
X155992632Y-70079856D01*
X156359214Y-70447079D01*
X156838422Y-70646064D01*
X157357301Y-70646516D01*
X157690928Y-70508664D01*
X159283464Y-72101200D01*
X158851600Y-72101200D01*
X158775400Y-72177400D01*
X158775400Y-73253600D01*
X158795400Y-73253600D01*
X158795400Y-73558400D01*
X158775400Y-73558400D01*
X158775400Y-74634600D01*
X158851600Y-74710800D01*
X159683629Y-74710800D01*
X159795656Y-74664397D01*
X159881397Y-74578655D01*
X159927800Y-74466628D01*
X159927800Y-73833394D01*
X160056199Y-74144144D01*
X160422925Y-74511511D01*
X160902320Y-74710573D01*
X161421402Y-74711026D01*
X161901144Y-74512801D01*
X162268511Y-74146075D01*
X162467573Y-73666680D01*
X162468026Y-73147598D01*
X162269801Y-72667856D01*
X161903075Y-72300489D01*
X161423680Y-72101427D01*
X160904598Y-72100974D01*
X160570681Y-72238945D01*
X158265531Y-69933795D01*
X158403064Y-69602578D01*
X158403516Y-69083699D01*
X158205368Y-68604144D01*
X157838786Y-68236921D01*
X157359578Y-68037936D01*
X156840699Y-68037484D01*
X156361144Y-68235632D01*
X155993921Y-68602214D01*
X155794936Y-69081422D01*
X155794484Y-69600301D01*
X155219400Y-69600301D01*
X155219400Y-65918974D01*
X155213948Y-65891564D01*
X155188466Y-65763452D01*
X155100369Y-65631606D01*
X153982593Y-64513831D01*
X153850748Y-64425734D01*
X153695225Y-64394799D01*
X152822775Y-64394799D01*
X152667252Y-64425734D01*
X152535407Y-64513831D01*
X151771632Y-65277606D01*
X151683535Y-65409451D01*
X151652600Y-65564974D01*
X151652600Y-65694599D01*
X151544879Y-65739108D01*
X151289006Y-65994534D01*
X151150359Y-66328436D01*
X151150043Y-66689978D01*
X151288108Y-67024121D01*
X151543534Y-67279994D01*
X151615562Y-67309902D01*
X151544879Y-67339108D01*
X151289006Y-67594534D01*
X151150359Y-67928436D01*
X151150043Y-68289978D01*
X151288108Y-68624121D01*
X151543534Y-68879994D01*
X151877436Y-69018641D01*
X152238978Y-69018957D01*
X152350885Y-68972718D01*
X152380108Y-69203502D01*
X152429992Y-69323933D01*
X152559645Y-69393829D01*
X153043474Y-68910000D01*
X153029332Y-68895858D01*
X153244858Y-68680332D01*
X153259000Y-68694474D01*
X153273143Y-68680332D01*
X153488669Y-68895858D01*
X153474526Y-68910000D01*
X153958355Y-69393829D01*
X154000189Y-69371276D01*
X154000189Y-74126097D01*
X154031124Y-74281620D01*
X154119221Y-74413465D01*
X154815732Y-75109976D01*
X154719334Y-75078334D01*
X154201732Y-75117507D01*
X153905474Y-75240221D01*
X153786508Y-75410982D01*
X154559000Y-76183474D01*
X154573143Y-76169332D01*
X154788669Y-76384858D01*
X154774526Y-76399000D01*
X155547018Y-77171492D01*
X155717779Y-77052526D01*
X155879666Y-76559334D01*
X155848108Y-76142353D01*
X157073600Y-77367845D01*
X157073600Y-77369677D01*
X156742144Y-77506632D01*
X156374921Y-77873214D01*
X156175936Y-78352422D01*
X156175484Y-78871301D01*
X156373632Y-79350856D01*
X156740214Y-79718079D01*
X157219422Y-79917064D01*
X157738301Y-79917516D01*
X158217856Y-79719368D01*
X158470600Y-79467065D01*
X158470600Y-80095664D01*
X158071795Y-80494469D01*
X157740578Y-80356936D01*
X157221699Y-80356484D01*
X156742144Y-80554632D01*
X156374921Y-80921214D01*
X156175936Y-81400422D01*
X156175484Y-81919301D01*
X156190586Y-81955850D01*
X155725920Y-81491184D01*
X155863573Y-81159680D01*
X155864026Y-80640598D01*
X155665801Y-80160856D01*
X155299075Y-79793489D01*
X154819680Y-79594427D01*
X154300598Y-79593974D01*
X153820856Y-79792199D01*
X153453489Y-80158925D01*
X153314935Y-80492600D01*
X149302875Y-80492600D01*
X149165801Y-80160856D01*
X148799075Y-79793489D01*
X148319680Y-79594427D01*
X147800598Y-79593974D01*
X147320856Y-79792199D01*
X146953489Y-80158925D01*
X146754427Y-80638320D01*
X146753974Y-81157402D01*
X146683800Y-81157402D01*
X146683800Y-77387018D01*
X147286508Y-77387018D01*
X147405474Y-77557779D01*
X147898666Y-77719666D01*
X148416268Y-77680493D01*
X148712526Y-77557779D01*
X148831492Y-77387018D01*
X153786508Y-77387018D01*
X153905474Y-77557779D01*
X154398666Y-77719666D01*
X154916268Y-77680493D01*
X155212526Y-77557779D01*
X155331492Y-77387018D01*
X154559000Y-76614526D01*
X153786508Y-77387018D01*
X148831492Y-77387018D01*
X148059000Y-76614526D01*
X147286508Y-77387018D01*
X146683800Y-77387018D01*
X146683800Y-76238666D01*
X146738334Y-76238666D01*
X146777507Y-76756268D01*
X146900221Y-77052526D01*
X147070982Y-77171492D01*
X147843474Y-76399000D01*
X148274526Y-76399000D01*
X149047018Y-77171492D01*
X149217779Y-77052526D01*
X149379666Y-76559334D01*
X149355398Y-76238666D01*
X153238334Y-76238666D01*
X153277507Y-76756268D01*
X153400221Y-77052526D01*
X153570982Y-77171492D01*
X154343474Y-76399000D01*
X153570982Y-75626508D01*
X153400221Y-75745474D01*
X153238334Y-76238666D01*
X149355398Y-76238666D01*
X149340493Y-76041732D01*
X149217779Y-75745474D01*
X149047018Y-75626508D01*
X148274526Y-76399000D01*
X147843474Y-76399000D01*
X147070982Y-75626508D01*
X146900221Y-75745474D01*
X146738334Y-76238666D01*
X146683800Y-76238666D01*
X146683800Y-75410982D01*
X147286508Y-75410982D01*
X148059000Y-76183474D01*
X148831492Y-75410982D01*
X148712526Y-75240221D01*
X148219334Y-75078334D01*
X147701732Y-75117507D01*
X147405474Y-75240221D01*
X147286508Y-75410982D01*
X146683800Y-75410982D01*
X146683800Y-71590580D01*
X146720025Y-71666448D01*
X147045412Y-71955381D01*
X147456600Y-72097800D01*
X148056600Y-72097800D01*
X148056600Y-71614850D01*
X148361400Y-71614850D01*
X148361400Y-72097800D01*
X148961400Y-72097800D01*
X149372588Y-71955381D01*
X149697975Y-71666448D01*
X149865926Y-71314700D01*
X149826247Y-71145400D01*
X149432944Y-71145400D01*
X149457991Y-71019478D01*
X149457993Y-71019473D01*
X149457993Y-70900527D01*
X149457991Y-70900522D01*
X149446072Y-70840600D01*
X149826247Y-70840600D01*
X149865926Y-70671300D01*
X149697975Y-70319552D01*
X149372588Y-70030619D01*
X148961400Y-69888200D01*
X148361400Y-69888200D01*
X148361400Y-70305150D01*
X148056600Y-70305150D01*
X148056600Y-69888200D01*
X147456600Y-69888200D01*
X147045412Y-70030619D01*
X146720025Y-70319552D01*
X146683800Y-70395420D01*
X146683800Y-69609355D01*
X152775171Y-69609355D01*
X152845067Y-69739008D01*
X153193823Y-69834309D01*
X153552502Y-69788892D01*
X153672933Y-69739008D01*
X153742829Y-69609355D01*
X153259000Y-69125526D01*
X152775171Y-69609355D01*
X146683800Y-69609355D01*
X146683800Y-64224580D01*
X146720025Y-64300448D01*
X147045412Y-64589381D01*
X147456600Y-64731800D01*
X148056600Y-64731800D01*
X148056600Y-64314850D01*
X148361400Y-64314850D01*
X148361400Y-64731800D01*
X148961400Y-64731800D01*
X149372588Y-64589381D01*
X149697975Y-64300448D01*
X149865926Y-63948700D01*
X149826247Y-63779400D01*
X149446072Y-63779400D01*
X149457991Y-63719478D01*
X149457993Y-63719473D01*
X149457993Y-63600527D01*
X149457991Y-63600522D01*
X149432944Y-63474600D01*
X149826247Y-63474600D01*
X149865926Y-63305300D01*
X149697975Y-62953552D01*
X149372588Y-62664619D01*
X148961400Y-62522200D01*
X148361400Y-62522200D01*
X148361400Y-63005150D01*
X148056600Y-63005150D01*
X148056600Y-62522200D01*
X147456600Y-62522200D01*
X147045412Y-62664619D01*
X146720025Y-62953552D01*
X146683800Y-63029420D01*
X146683800Y-60960000D01*
X146686200Y-60960000D01*
X146773114Y-61396948D01*
X147020625Y-61767375D01*
X147391052Y-62014886D01*
X147828000Y-62101800D01*
X148264948Y-62014886D01*
X148316708Y-61980301D01*
X155794484Y-61980301D01*
X155992632Y-62459856D01*
X156359214Y-62827079D01*
X156692600Y-62965513D01*
X156692600Y-66802000D01*
X156723535Y-66957523D01*
X156767040Y-67022632D01*
X156811632Y-67089368D01*
X164579831Y-74857567D01*
X164711676Y-74945664D01*
X164742277Y-74951751D01*
X165100000Y-75309474D01*
X165114143Y-75295332D01*
X165329669Y-75510858D01*
X165315526Y-75525000D01*
X165833036Y-76042510D01*
X165967451Y-75966863D01*
X166070514Y-75601270D01*
X166025826Y-75224065D01*
X165967451Y-75083137D01*
X165833038Y-75007491D01*
X165863930Y-74976599D01*
X168755426Y-74976599D01*
X169054005Y-75275178D01*
X169185850Y-75363275D01*
X169341373Y-75394210D01*
X173774190Y-75394210D01*
X173929713Y-75363275D01*
X174061558Y-75275178D01*
X174425232Y-74911504D01*
X174456211Y-74932203D01*
X174879000Y-75016301D01*
X175301789Y-74932203D01*
X175660212Y-74692713D01*
X175899702Y-74334290D01*
X175983800Y-73911501D01*
X175983800Y-73154499D01*
X175899702Y-72731710D01*
X175660212Y-72373287D01*
X175301789Y-72133797D01*
X174879000Y-72049699D01*
X174456211Y-72133797D01*
X174097788Y-72373287D01*
X173858298Y-72731710D01*
X173774200Y-73154499D01*
X173774200Y-73911501D01*
X173857415Y-74329849D01*
X173605854Y-74581410D01*
X173194582Y-74581410D01*
X173359702Y-74334290D01*
X173443800Y-73911501D01*
X173443800Y-73154499D01*
X173359702Y-72731710D01*
X173120212Y-72373287D01*
X172761789Y-72133797D01*
X172745400Y-72130537D01*
X172745400Y-72004113D01*
X173380720Y-71368793D01*
X173619968Y-71608458D01*
X173941928Y-71742148D01*
X174290542Y-71742452D01*
X174612736Y-71609324D01*
X174859458Y-71363032D01*
X174993148Y-71041072D01*
X174993149Y-71039542D01*
X175780548Y-71039542D01*
X175913676Y-71361736D01*
X176159968Y-71608458D01*
X176481928Y-71742148D01*
X176830542Y-71742452D01*
X176921240Y-71704976D01*
X177012600Y-71796336D01*
X177012600Y-72130537D01*
X176996211Y-72133797D01*
X176637788Y-72373287D01*
X176398298Y-72731710D01*
X176314200Y-73154499D01*
X176314200Y-73911501D01*
X176398298Y-74334290D01*
X176637788Y-74692713D01*
X176996211Y-74932203D01*
X177419000Y-75016301D01*
X177841789Y-74932203D01*
X178200212Y-74692713D01*
X178439702Y-74334290D01*
X178523800Y-73911501D01*
X178523800Y-73154499D01*
X178439702Y-72731710D01*
X178200212Y-72373287D01*
X177841789Y-72133797D01*
X177825400Y-72130537D01*
X177825400Y-71628000D01*
X177808199Y-71541522D01*
X178610004Y-71541522D01*
X178675823Y-71667817D01*
X179012670Y-71757628D01*
X179358245Y-71711697D01*
X179464177Y-71667817D01*
X179529996Y-71541522D01*
X179070000Y-71081526D01*
X178610004Y-71541522D01*
X177808199Y-71541522D01*
X177794465Y-71472477D01*
X177706368Y-71340632D01*
X177496079Y-71130343D01*
X177533148Y-71041072D01*
X177533350Y-70808670D01*
X178178372Y-70808670D01*
X178224303Y-71154245D01*
X178268183Y-71260177D01*
X178394478Y-71325996D01*
X178854474Y-70866000D01*
X179285526Y-70866000D01*
X179745522Y-71325996D01*
X179871817Y-71260177D01*
X179961628Y-70923330D01*
X179915697Y-70577755D01*
X179871817Y-70471823D01*
X179745522Y-70406004D01*
X179285526Y-70866000D01*
X178854474Y-70866000D01*
X178394478Y-70406004D01*
X178268183Y-70471823D01*
X178178372Y-70808670D01*
X177533350Y-70808670D01*
X177533452Y-70692458D01*
X177400324Y-70370264D01*
X177220852Y-70190478D01*
X178610004Y-70190478D01*
X179070000Y-70650474D01*
X179529996Y-70190478D01*
X179464177Y-70064183D01*
X179127330Y-69974372D01*
X178781755Y-70020303D01*
X178675823Y-70064183D01*
X178610004Y-70190478D01*
X177220852Y-70190478D01*
X177154032Y-70123542D01*
X176832072Y-69989852D01*
X176483458Y-69989548D01*
X176161264Y-70122676D01*
X175914542Y-70368968D01*
X175780852Y-70690928D01*
X175780548Y-71039542D01*
X174993149Y-71039542D01*
X174993452Y-70692458D01*
X174860324Y-70370264D01*
X174614032Y-70123542D01*
X174292072Y-69989852D01*
X173943458Y-69989548D01*
X173621264Y-70122676D01*
X173374542Y-70368968D01*
X173336908Y-70459600D01*
X173308777Y-70459600D01*
X173153254Y-70490535D01*
X173074514Y-70543148D01*
X173021409Y-70578632D01*
X172051632Y-71548409D01*
X171963535Y-71680254D01*
X171932600Y-71835777D01*
X171932600Y-72130537D01*
X171916211Y-72133797D01*
X171557788Y-72373287D01*
X171318298Y-72731710D01*
X171234200Y-73154499D01*
X171234200Y-73911501D01*
X171318298Y-74334290D01*
X171483418Y-74581410D01*
X170654582Y-74581410D01*
X170819702Y-74334290D01*
X170903800Y-73911501D01*
X170903800Y-73154499D01*
X170819702Y-72731710D01*
X170580212Y-72373287D01*
X170221789Y-72133797D01*
X169799000Y-72049699D01*
X169376211Y-72133797D01*
X169017788Y-72373287D01*
X168778298Y-72731710D01*
X168699749Y-73126600D01*
X167681337Y-73126600D01*
X167292368Y-72737632D01*
X167283505Y-72731710D01*
X167160523Y-72649535D01*
X167005000Y-72618600D01*
X166060771Y-72618600D01*
X166060771Y-72375000D01*
X166039518Y-72262048D01*
X165972763Y-72158308D01*
X165870907Y-72088713D01*
X165750000Y-72064229D01*
X164450000Y-72064229D01*
X164337048Y-72085482D01*
X164233308Y-72152237D01*
X164163713Y-72254093D01*
X164144670Y-72348134D01*
X162517400Y-70720864D01*
X162517400Y-68560565D01*
X165495961Y-68560565D01*
X165980981Y-69043322D01*
X167560185Y-69705867D01*
X169272723Y-69713643D01*
X170857877Y-69065467D01*
X170891019Y-69043322D01*
X171376039Y-68560565D01*
X168436000Y-65620526D01*
X165495961Y-68560565D01*
X162517400Y-68560565D01*
X162517400Y-67715771D01*
X162536000Y-67715771D01*
X162648952Y-67694518D01*
X162752692Y-67627763D01*
X162822287Y-67525907D01*
X162846771Y-67405000D01*
X162846771Y-66241723D01*
X164127357Y-66241723D01*
X164775533Y-67826877D01*
X164797678Y-67860019D01*
X165280435Y-68345039D01*
X168220474Y-65405000D01*
X168651526Y-65405000D01*
X171591565Y-68345039D01*
X172074322Y-67860019D01*
X172736867Y-66280815D01*
X172744643Y-64568277D01*
X172268975Y-63405000D01*
X174025229Y-63405000D01*
X174025229Y-67405000D01*
X174046482Y-67517952D01*
X174113237Y-67621692D01*
X174215093Y-67691287D01*
X174336000Y-67715771D01*
X177336000Y-67715771D01*
X177448952Y-67694518D01*
X177552692Y-67627763D01*
X177622287Y-67525907D01*
X177646771Y-67405000D01*
X177646771Y-63405000D01*
X177625518Y-63292048D01*
X177558763Y-63188308D01*
X177456907Y-63118713D01*
X177336000Y-63094229D01*
X174336000Y-63094229D01*
X174223048Y-63115482D01*
X174119308Y-63182237D01*
X174049713Y-63284093D01*
X174025229Y-63405000D01*
X172268975Y-63405000D01*
X172096467Y-62983123D01*
X172074322Y-62949981D01*
X171591565Y-62464961D01*
X168651526Y-65405000D01*
X168220474Y-65405000D01*
X165280435Y-62464961D01*
X164797678Y-62949981D01*
X164135133Y-64529185D01*
X164127357Y-66241723D01*
X162846771Y-66241723D01*
X162846771Y-63405000D01*
X162825518Y-63292048D01*
X162758763Y-63188308D01*
X162656907Y-63118713D01*
X162536000Y-63094229D01*
X159536000Y-63094229D01*
X159423048Y-63115482D01*
X159319308Y-63182237D01*
X159249713Y-63284093D01*
X159225229Y-63405000D01*
X159225229Y-67405000D01*
X159246482Y-67517952D01*
X159313237Y-67621692D01*
X159415093Y-67691287D01*
X159536000Y-67715771D01*
X161704600Y-67715771D01*
X161704600Y-70832864D01*
X157505400Y-66633664D01*
X157505400Y-62965323D01*
X157836856Y-62828368D01*
X158204079Y-62461786D01*
X158292255Y-62249435D01*
X165495961Y-62249435D01*
X168436000Y-65189474D01*
X171376039Y-62249435D01*
X170891019Y-61766678D01*
X169311815Y-61104133D01*
X167599277Y-61096357D01*
X166014123Y-61744533D01*
X165980981Y-61766678D01*
X165495961Y-62249435D01*
X158292255Y-62249435D01*
X158403064Y-61982578D01*
X158403516Y-61463699D01*
X158205368Y-60984144D01*
X158181267Y-60960000D01*
X176658200Y-60960000D01*
X176745114Y-61396948D01*
X176992625Y-61767375D01*
X177363052Y-62014886D01*
X177800000Y-62101800D01*
X178236948Y-62014886D01*
X178607375Y-61767375D01*
X178854886Y-61396948D01*
X178941800Y-60960000D01*
X178854886Y-60523052D01*
X178607375Y-60152625D01*
X178236948Y-59905114D01*
X177800000Y-59818200D01*
X177363052Y-59905114D01*
X176992625Y-60152625D01*
X176745114Y-60523052D01*
X176658200Y-60960000D01*
X158181267Y-60960000D01*
X157838786Y-60616921D01*
X157359578Y-60417936D01*
X156840699Y-60417484D01*
X156361144Y-60615632D01*
X155993921Y-60982214D01*
X155794936Y-61461422D01*
X155794484Y-61980301D01*
X148316708Y-61980301D01*
X148635375Y-61767375D01*
X148882886Y-61396948D01*
X148969800Y-60960000D01*
X148882886Y-60523052D01*
X148635375Y-60152625D01*
X148264948Y-59905114D01*
X147828000Y-59818200D01*
X147391052Y-59905114D01*
X147020625Y-60152625D01*
X146773114Y-60523052D01*
X146686200Y-60960000D01*
X146683800Y-60960000D01*
X146683800Y-59815800D01*
X178944200Y-59815800D01*
X178944200Y-66929000D01*
X178944200Y-66929000D01*
G37*
X178944200Y-66929000D02*
X178955359Y-66985099D01*
X178961393Y-67041978D01*
X178969715Y-67057269D01*
X178973111Y-67074343D01*
X179004888Y-67121901D01*
X179032230Y-67172142D01*
X180214200Y-68590507D01*
X180214200Y-83301493D01*
X179032230Y-84719858D01*
X179004888Y-84770099D01*
X178973111Y-84817657D01*
X178969715Y-84834731D01*
X178961393Y-84850022D01*
X178955359Y-84906901D01*
X178944200Y-84963000D01*
X178944200Y-85599200D01*
X146683800Y-85599200D01*
X146683800Y-84455000D01*
X146686200Y-84455000D01*
X146773114Y-84891948D01*
X147020625Y-85262375D01*
X147391052Y-85509886D01*
X147828000Y-85596800D01*
X148264948Y-85509886D01*
X148635375Y-85262375D01*
X148882886Y-84891948D01*
X148969800Y-84455000D01*
X176658200Y-84455000D01*
X176745114Y-84891948D01*
X176992625Y-85262375D01*
X177363052Y-85509886D01*
X177800000Y-85596800D01*
X178236948Y-85509886D01*
X178607375Y-85262375D01*
X178854886Y-84891948D01*
X178941800Y-84455000D01*
X178854886Y-84018052D01*
X178607375Y-83647625D01*
X178236948Y-83400114D01*
X177800000Y-83313200D01*
X177363052Y-83400114D01*
X176992625Y-83647625D01*
X176745114Y-84018052D01*
X176658200Y-84455000D01*
X148969800Y-84455000D01*
X148882886Y-84018052D01*
X148635375Y-83647625D01*
X148264948Y-83400114D01*
X147828000Y-83313200D01*
X147391052Y-83400114D01*
X147020625Y-83647625D01*
X146773114Y-84018052D01*
X146686200Y-84455000D01*
X146683800Y-84455000D01*
X146683800Y-81157402D01*
X146753974Y-81157402D01*
X146952199Y-81637144D01*
X147318925Y-82004511D01*
X147798320Y-82203573D01*
X148317402Y-82204026D01*
X148797144Y-82005801D01*
X149164511Y-81639075D01*
X149303065Y-81305400D01*
X153315125Y-81305400D01*
X153452199Y-81637144D01*
X153818925Y-82004511D01*
X154298320Y-82203573D01*
X154817402Y-82204026D01*
X155151319Y-82066055D01*
X156337923Y-83252659D01*
X156469768Y-83340756D01*
X156625291Y-83371691D01*
X166983509Y-83371691D01*
X167139032Y-83340756D01*
X167270877Y-83252659D01*
X168743614Y-81779923D01*
X168778298Y-81954290D01*
X169017788Y-82312713D01*
X169376211Y-82552203D01*
X169799000Y-82636301D01*
X170221789Y-82552203D01*
X170580212Y-82312713D01*
X170819702Y-81954290D01*
X170903800Y-81531501D01*
X170903800Y-80774499D01*
X170819702Y-80351710D01*
X170654582Y-80104590D01*
X171065854Y-80104590D01*
X171317415Y-80356151D01*
X171234200Y-80774499D01*
X171234200Y-81531501D01*
X171318298Y-81954290D01*
X171557788Y-82312713D01*
X171916211Y-82552203D01*
X172339000Y-82636301D01*
X172761789Y-82552203D01*
X173120212Y-82312713D01*
X173359702Y-81954290D01*
X173443800Y-81531501D01*
X173443800Y-80774499D01*
X173359702Y-80351710D01*
X173120212Y-79993287D01*
X172761789Y-79753797D01*
X172339000Y-79669699D01*
X171916211Y-79753797D01*
X171885232Y-79774496D01*
X171765136Y-79654400D01*
X173155664Y-79654400D01*
X173857415Y-80356151D01*
X173774200Y-80774499D01*
X173774200Y-81531501D01*
X173858298Y-81954290D01*
X174097788Y-82312713D01*
X174456211Y-82552203D01*
X174879000Y-82636301D01*
X175301789Y-82552203D01*
X175660212Y-82312713D01*
X175899702Y-81954290D01*
X175983800Y-81531501D01*
X175983800Y-81305400D01*
X176314200Y-81305400D01*
X176314200Y-81655400D01*
X176456619Y-82066588D01*
X176745552Y-82391975D01*
X177097300Y-82559926D01*
X177266600Y-82520247D01*
X177266600Y-81305400D01*
X177571400Y-81305400D01*
X177571400Y-82520247D01*
X177740700Y-82559926D01*
X178092448Y-82391975D01*
X178381381Y-82066588D01*
X178523800Y-81655400D01*
X178523800Y-81305400D01*
X177571400Y-81305400D01*
X177266600Y-81305400D01*
X176314200Y-81305400D01*
X175983800Y-81305400D01*
X175983800Y-80774499D01*
X175959155Y-80650600D01*
X176314200Y-80650600D01*
X176314200Y-81000600D01*
X177266600Y-81000600D01*
X177266600Y-79785753D01*
X177571400Y-79785753D01*
X177571400Y-81000600D01*
X178523800Y-81000600D01*
X178523800Y-80650600D01*
X178381381Y-80239412D01*
X178092448Y-79914025D01*
X177740700Y-79746074D01*
X177571400Y-79785753D01*
X177266600Y-79785753D01*
X177097300Y-79746074D01*
X176745552Y-79914025D01*
X176456619Y-80239412D01*
X176314200Y-80650600D01*
X175959155Y-80650600D01*
X175899702Y-80351710D01*
X175660212Y-79993287D01*
X175301789Y-79753797D01*
X174879000Y-79669699D01*
X174456211Y-79753797D01*
X174425232Y-79774496D01*
X173611368Y-78960632D01*
X173479523Y-78872535D01*
X173324000Y-78841600D01*
X167316828Y-78841600D01*
X166800860Y-78325632D01*
X166669015Y-78237535D01*
X166513492Y-78206600D01*
X166343323Y-78206600D01*
X166206368Y-77875144D01*
X165839786Y-77507921D01*
X165360578Y-77308936D01*
X164841699Y-77308484D01*
X164362144Y-77506632D01*
X163994921Y-77873214D01*
X163795936Y-78352422D01*
X163795484Y-78871301D01*
X163993632Y-79350856D01*
X164360214Y-79718079D01*
X164839422Y-79917064D01*
X165358301Y-79917516D01*
X165837856Y-79719368D01*
X166205079Y-79352786D01*
X166343513Y-79019400D01*
X166345156Y-79019400D01*
X166756010Y-79430254D01*
X165691794Y-80494469D01*
X165360578Y-80356936D01*
X164841699Y-80356484D01*
X164362144Y-80554632D01*
X163994921Y-80921214D01*
X163795936Y-81400422D01*
X163795484Y-81919301D01*
X163993632Y-82398856D01*
X164153388Y-82558891D01*
X158426698Y-82558891D01*
X158585079Y-82400786D01*
X158784064Y-81921578D01*
X158784516Y-81402699D01*
X158646664Y-81069072D01*
X159164368Y-80551368D01*
X159252465Y-80419523D01*
X159283400Y-80264000D01*
X159283400Y-77851000D01*
X159252465Y-77695477D01*
X159164368Y-77563632D01*
X157858772Y-76258036D01*
X164582490Y-76258036D01*
X164658137Y-76392451D01*
X165023730Y-76495514D01*
X165400935Y-76450826D01*
X165541863Y-76392451D01*
X165617510Y-76258036D01*
X165100000Y-75740526D01*
X164582490Y-76258036D01*
X157858772Y-76258036D01*
X157049466Y-75448730D01*
X164129486Y-75448730D01*
X164174174Y-75825935D01*
X164232549Y-75966863D01*
X164366964Y-76042510D01*
X164884474Y-75525000D01*
X164366964Y-75007490D01*
X164232549Y-75083137D01*
X164129486Y-75448730D01*
X157049466Y-75448730D01*
X155235336Y-73634600D01*
X157318200Y-73634600D01*
X157318200Y-74466628D01*
X157364603Y-74578655D01*
X157450344Y-74664397D01*
X157562371Y-74710800D01*
X158394400Y-74710800D01*
X158470600Y-74634600D01*
X158470600Y-73558400D01*
X157394400Y-73558400D01*
X157318200Y-73634600D01*
X155235336Y-73634600D01*
X155219400Y-73618664D01*
X155219400Y-72345372D01*
X157318200Y-72345372D01*
X157318200Y-73177400D01*
X157394400Y-73253600D01*
X158470600Y-73253600D01*
X158470600Y-72177400D01*
X158394400Y-72101200D01*
X157562371Y-72101200D01*
X157450344Y-72147603D01*
X157364603Y-72233345D01*
X157318200Y-72345372D01*
X155219400Y-72345372D01*
X155219400Y-69600301D01*
X155794484Y-69600301D01*
X155992632Y-70079856D01*
X156359214Y-70447079D01*
X156838422Y-70646064D01*
X157357301Y-70646516D01*
X157690928Y-70508664D01*
X159283464Y-72101200D01*
X158851600Y-72101200D01*
X158775400Y-72177400D01*
X158775400Y-73253600D01*
X158795400Y-73253600D01*
X158795400Y-73558400D01*
X158775400Y-73558400D01*
X158775400Y-74634600D01*
X158851600Y-74710800D01*
X159683629Y-74710800D01*
X159795656Y-74664397D01*
X159881397Y-74578655D01*
X159927800Y-74466628D01*
X159927800Y-73833394D01*
X160056199Y-74144144D01*
X160422925Y-74511511D01*
X160902320Y-74710573D01*
X161421402Y-74711026D01*
X161901144Y-74512801D01*
X162268511Y-74146075D01*
X162467573Y-73666680D01*
X162468026Y-73147598D01*
X162269801Y-72667856D01*
X161903075Y-72300489D01*
X161423680Y-72101427D01*
X160904598Y-72100974D01*
X160570681Y-72238945D01*
X158265531Y-69933795D01*
X158403064Y-69602578D01*
X158403516Y-69083699D01*
X158205368Y-68604144D01*
X157838786Y-68236921D01*
X157359578Y-68037936D01*
X156840699Y-68037484D01*
X156361144Y-68235632D01*
X155993921Y-68602214D01*
X155794936Y-69081422D01*
X155794484Y-69600301D01*
X155219400Y-69600301D01*
X155219400Y-65918974D01*
X155213948Y-65891564D01*
X155188466Y-65763452D01*
X155100369Y-65631606D01*
X153982593Y-64513831D01*
X153850748Y-64425734D01*
X153695225Y-64394799D01*
X152822775Y-64394799D01*
X152667252Y-64425734D01*
X152535407Y-64513831D01*
X151771632Y-65277606D01*
X151683535Y-65409451D01*
X151652600Y-65564974D01*
X151652600Y-65694599D01*
X151544879Y-65739108D01*
X151289006Y-65994534D01*
X151150359Y-66328436D01*
X151150043Y-66689978D01*
X151288108Y-67024121D01*
X151543534Y-67279994D01*
X151615562Y-67309902D01*
X151544879Y-67339108D01*
X151289006Y-67594534D01*
X151150359Y-67928436D01*
X151150043Y-68289978D01*
X151288108Y-68624121D01*
X151543534Y-68879994D01*
X151877436Y-69018641D01*
X152238978Y-69018957D01*
X152350885Y-68972718D01*
X152380108Y-69203502D01*
X152429992Y-69323933D01*
X152559645Y-69393829D01*
X153043474Y-68910000D01*
X153029332Y-68895858D01*
X153244858Y-68680332D01*
X153259000Y-68694474D01*
X153273143Y-68680332D01*
X153488669Y-68895858D01*
X153474526Y-68910000D01*
X153958355Y-69393829D01*
X154000189Y-69371276D01*
X154000189Y-74126097D01*
X154031124Y-74281620D01*
X154119221Y-74413465D01*
X154815732Y-75109976D01*
X154719334Y-75078334D01*
X154201732Y-75117507D01*
X153905474Y-75240221D01*
X153786508Y-75410982D01*
X154559000Y-76183474D01*
X154573143Y-76169332D01*
X154788669Y-76384858D01*
X154774526Y-76399000D01*
X155547018Y-77171492D01*
X155717779Y-77052526D01*
X155879666Y-76559334D01*
X155848108Y-76142353D01*
X157073600Y-77367845D01*
X157073600Y-77369677D01*
X156742144Y-77506632D01*
X156374921Y-77873214D01*
X156175936Y-78352422D01*
X156175484Y-78871301D01*
X156373632Y-79350856D01*
X156740214Y-79718079D01*
X157219422Y-79917064D01*
X157738301Y-79917516D01*
X158217856Y-79719368D01*
X158470600Y-79467065D01*
X158470600Y-80095664D01*
X158071795Y-80494469D01*
X157740578Y-80356936D01*
X157221699Y-80356484D01*
X156742144Y-80554632D01*
X156374921Y-80921214D01*
X156175936Y-81400422D01*
X156175484Y-81919301D01*
X156190586Y-81955850D01*
X155725920Y-81491184D01*
X155863573Y-81159680D01*
X155864026Y-80640598D01*
X155665801Y-80160856D01*
X155299075Y-79793489D01*
X154819680Y-79594427D01*
X154300598Y-79593974D01*
X153820856Y-79792199D01*
X153453489Y-80158925D01*
X153314935Y-80492600D01*
X149302875Y-80492600D01*
X149165801Y-80160856D01*
X148799075Y-79793489D01*
X148319680Y-79594427D01*
X147800598Y-79593974D01*
X147320856Y-79792199D01*
X146953489Y-80158925D01*
X146754427Y-80638320D01*
X146753974Y-81157402D01*
X146683800Y-81157402D01*
X146683800Y-77387018D01*
X147286508Y-77387018D01*
X147405474Y-77557779D01*
X147898666Y-77719666D01*
X148416268Y-77680493D01*
X148712526Y-77557779D01*
X148831492Y-77387018D01*
X153786508Y-77387018D01*
X153905474Y-77557779D01*
X154398666Y-77719666D01*
X154916268Y-77680493D01*
X155212526Y-77557779D01*
X155331492Y-77387018D01*
X154559000Y-76614526D01*
X153786508Y-77387018D01*
X148831492Y-77387018D01*
X148059000Y-76614526D01*
X147286508Y-77387018D01*
X146683800Y-77387018D01*
X146683800Y-76238666D01*
X146738334Y-76238666D01*
X146777507Y-76756268D01*
X146900221Y-77052526D01*
X147070982Y-77171492D01*
X147843474Y-76399000D01*
X148274526Y-76399000D01*
X149047018Y-77171492D01*
X149217779Y-77052526D01*
X149379666Y-76559334D01*
X149355398Y-76238666D01*
X153238334Y-76238666D01*
X153277507Y-76756268D01*
X153400221Y-77052526D01*
X153570982Y-77171492D01*
X154343474Y-76399000D01*
X153570982Y-75626508D01*
X153400221Y-75745474D01*
X153238334Y-76238666D01*
X149355398Y-76238666D01*
X149340493Y-76041732D01*
X149217779Y-75745474D01*
X149047018Y-75626508D01*
X148274526Y-76399000D01*
X147843474Y-76399000D01*
X147070982Y-75626508D01*
X146900221Y-75745474D01*
X146738334Y-76238666D01*
X146683800Y-76238666D01*
X146683800Y-75410982D01*
X147286508Y-75410982D01*
X148059000Y-76183474D01*
X148831492Y-75410982D01*
X148712526Y-75240221D01*
X148219334Y-75078334D01*
X147701732Y-75117507D01*
X147405474Y-75240221D01*
X147286508Y-75410982D01*
X146683800Y-75410982D01*
X146683800Y-71590580D01*
X146720025Y-71666448D01*
X147045412Y-71955381D01*
X147456600Y-72097800D01*
X148056600Y-72097800D01*
X148056600Y-71614850D01*
X148361400Y-71614850D01*
X148361400Y-72097800D01*
X148961400Y-72097800D01*
X149372588Y-71955381D01*
X149697975Y-71666448D01*
X149865926Y-71314700D01*
X149826247Y-71145400D01*
X149432944Y-71145400D01*
X149457991Y-71019478D01*
X149457993Y-71019473D01*
X149457993Y-70900527D01*
X149457991Y-70900522D01*
X149446072Y-70840600D01*
X149826247Y-70840600D01*
X149865926Y-70671300D01*
X149697975Y-70319552D01*
X149372588Y-70030619D01*
X148961400Y-69888200D01*
X148361400Y-69888200D01*
X148361400Y-70305150D01*
X148056600Y-70305150D01*
X148056600Y-69888200D01*
X147456600Y-69888200D01*
X147045412Y-70030619D01*
X146720025Y-70319552D01*
X146683800Y-70395420D01*
X146683800Y-69609355D01*
X152775171Y-69609355D01*
X152845067Y-69739008D01*
X153193823Y-69834309D01*
X153552502Y-69788892D01*
X153672933Y-69739008D01*
X153742829Y-69609355D01*
X153259000Y-69125526D01*
X152775171Y-69609355D01*
X146683800Y-69609355D01*
X146683800Y-64224580D01*
X146720025Y-64300448D01*
X147045412Y-64589381D01*
X147456600Y-64731800D01*
X148056600Y-64731800D01*
X148056600Y-64314850D01*
X148361400Y-64314850D01*
X148361400Y-64731800D01*
X148961400Y-64731800D01*
X149372588Y-64589381D01*
X149697975Y-64300448D01*
X149865926Y-63948700D01*
X149826247Y-63779400D01*
X149446072Y-63779400D01*
X149457991Y-63719478D01*
X149457993Y-63719473D01*
X149457993Y-63600527D01*
X149457991Y-63600522D01*
X149432944Y-63474600D01*
X149826247Y-63474600D01*
X149865926Y-63305300D01*
X149697975Y-62953552D01*
X149372588Y-62664619D01*
X148961400Y-62522200D01*
X148361400Y-62522200D01*
X148361400Y-63005150D01*
X148056600Y-63005150D01*
X148056600Y-62522200D01*
X147456600Y-62522200D01*
X147045412Y-62664619D01*
X146720025Y-62953552D01*
X146683800Y-63029420D01*
X146683800Y-60960000D01*
X146686200Y-60960000D01*
X146773114Y-61396948D01*
X147020625Y-61767375D01*
X147391052Y-62014886D01*
X147828000Y-62101800D01*
X148264948Y-62014886D01*
X148316708Y-61980301D01*
X155794484Y-61980301D01*
X155992632Y-62459856D01*
X156359214Y-62827079D01*
X156692600Y-62965513D01*
X156692600Y-66802000D01*
X156723535Y-66957523D01*
X156767040Y-67022632D01*
X156811632Y-67089368D01*
X164579831Y-74857567D01*
X164711676Y-74945664D01*
X164742277Y-74951751D01*
X165100000Y-75309474D01*
X165114143Y-75295332D01*
X165329669Y-75510858D01*
X165315526Y-75525000D01*
X165833036Y-76042510D01*
X165967451Y-75966863D01*
X166070514Y-75601270D01*
X166025826Y-75224065D01*
X165967451Y-75083137D01*
X165833038Y-75007491D01*
X165863930Y-74976599D01*
X168755426Y-74976599D01*
X169054005Y-75275178D01*
X169185850Y-75363275D01*
X169341373Y-75394210D01*
X173774190Y-75394210D01*
X173929713Y-75363275D01*
X174061558Y-75275178D01*
X174425232Y-74911504D01*
X174456211Y-74932203D01*
X174879000Y-75016301D01*
X175301789Y-74932203D01*
X175660212Y-74692713D01*
X175899702Y-74334290D01*
X175983800Y-73911501D01*
X175983800Y-73154499D01*
X175899702Y-72731710D01*
X175660212Y-72373287D01*
X175301789Y-72133797D01*
X174879000Y-72049699D01*
X174456211Y-72133797D01*
X174097788Y-72373287D01*
X173858298Y-72731710D01*
X173774200Y-73154499D01*
X173774200Y-73911501D01*
X173857415Y-74329849D01*
X173605854Y-74581410D01*
X173194582Y-74581410D01*
X173359702Y-74334290D01*
X173443800Y-73911501D01*
X173443800Y-73154499D01*
X173359702Y-72731710D01*
X173120212Y-72373287D01*
X172761789Y-72133797D01*
X172745400Y-72130537D01*
X172745400Y-72004113D01*
X173380720Y-71368793D01*
X173619968Y-71608458D01*
X173941928Y-71742148D01*
X174290542Y-71742452D01*
X174612736Y-71609324D01*
X174859458Y-71363032D01*
X174993148Y-71041072D01*
X174993149Y-71039542D01*
X175780548Y-71039542D01*
X175913676Y-71361736D01*
X176159968Y-71608458D01*
X176481928Y-71742148D01*
X176830542Y-71742452D01*
X176921240Y-71704976D01*
X177012600Y-71796336D01*
X177012600Y-72130537D01*
X176996211Y-72133797D01*
X176637788Y-72373287D01*
X176398298Y-72731710D01*
X176314200Y-73154499D01*
X176314200Y-73911501D01*
X176398298Y-74334290D01*
X176637788Y-74692713D01*
X176996211Y-74932203D01*
X177419000Y-75016301D01*
X177841789Y-74932203D01*
X178200212Y-74692713D01*
X178439702Y-74334290D01*
X178523800Y-73911501D01*
X178523800Y-73154499D01*
X178439702Y-72731710D01*
X178200212Y-72373287D01*
X177841789Y-72133797D01*
X177825400Y-72130537D01*
X177825400Y-71628000D01*
X177808199Y-71541522D01*
X178610004Y-71541522D01*
X178675823Y-71667817D01*
X179012670Y-71757628D01*
X179358245Y-71711697D01*
X179464177Y-71667817D01*
X179529996Y-71541522D01*
X179070000Y-71081526D01*
X178610004Y-71541522D01*
X177808199Y-71541522D01*
X177794465Y-71472477D01*
X177706368Y-71340632D01*
X177496079Y-71130343D01*
X177533148Y-71041072D01*
X177533350Y-70808670D01*
X178178372Y-70808670D01*
X178224303Y-71154245D01*
X178268183Y-71260177D01*
X178394478Y-71325996D01*
X178854474Y-70866000D01*
X179285526Y-70866000D01*
X179745522Y-71325996D01*
X179871817Y-71260177D01*
X179961628Y-70923330D01*
X179915697Y-70577755D01*
X179871817Y-70471823D01*
X179745522Y-70406004D01*
X179285526Y-70866000D01*
X178854474Y-70866000D01*
X178394478Y-70406004D01*
X178268183Y-70471823D01*
X178178372Y-70808670D01*
X177533350Y-70808670D01*
X177533452Y-70692458D01*
X177400324Y-70370264D01*
X177220852Y-70190478D01*
X178610004Y-70190478D01*
X179070000Y-70650474D01*
X179529996Y-70190478D01*
X179464177Y-70064183D01*
X179127330Y-69974372D01*
X178781755Y-70020303D01*
X178675823Y-70064183D01*
X178610004Y-70190478D01*
X177220852Y-70190478D01*
X177154032Y-70123542D01*
X176832072Y-69989852D01*
X176483458Y-69989548D01*
X176161264Y-70122676D01*
X175914542Y-70368968D01*
X175780852Y-70690928D01*
X175780548Y-71039542D01*
X174993149Y-71039542D01*
X174993452Y-70692458D01*
X174860324Y-70370264D01*
X174614032Y-70123542D01*
X174292072Y-69989852D01*
X173943458Y-69989548D01*
X173621264Y-70122676D01*
X173374542Y-70368968D01*
X173336908Y-70459600D01*
X173308777Y-70459600D01*
X173153254Y-70490535D01*
X173074514Y-70543148D01*
X173021409Y-70578632D01*
X172051632Y-71548409D01*
X171963535Y-71680254D01*
X171932600Y-71835777D01*
X171932600Y-72130537D01*
X171916211Y-72133797D01*
X171557788Y-72373287D01*
X171318298Y-72731710D01*
X171234200Y-73154499D01*
X171234200Y-73911501D01*
X171318298Y-74334290D01*
X171483418Y-74581410D01*
X170654582Y-74581410D01*
X170819702Y-74334290D01*
X170903800Y-73911501D01*
X170903800Y-73154499D01*
X170819702Y-72731710D01*
X170580212Y-72373287D01*
X170221789Y-72133797D01*
X169799000Y-72049699D01*
X169376211Y-72133797D01*
X169017788Y-72373287D01*
X168778298Y-72731710D01*
X168699749Y-73126600D01*
X167681337Y-73126600D01*
X167292368Y-72737632D01*
X167283505Y-72731710D01*
X167160523Y-72649535D01*
X167005000Y-72618600D01*
X166060771Y-72618600D01*
X166060771Y-72375000D01*
X166039518Y-72262048D01*
X165972763Y-72158308D01*
X165870907Y-72088713D01*
X165750000Y-72064229D01*
X164450000Y-72064229D01*
X164337048Y-72085482D01*
X164233308Y-72152237D01*
X164163713Y-72254093D01*
X164144670Y-72348134D01*
X162517400Y-70720864D01*
X162517400Y-68560565D01*
X165495961Y-68560565D01*
X165980981Y-69043322D01*
X167560185Y-69705867D01*
X169272723Y-69713643D01*
X170857877Y-69065467D01*
X170891019Y-69043322D01*
X171376039Y-68560565D01*
X168436000Y-65620526D01*
X165495961Y-68560565D01*
X162517400Y-68560565D01*
X162517400Y-67715771D01*
X162536000Y-67715771D01*
X162648952Y-67694518D01*
X162752692Y-67627763D01*
X162822287Y-67525907D01*
X162846771Y-67405000D01*
X162846771Y-66241723D01*
X164127357Y-66241723D01*
X164775533Y-67826877D01*
X164797678Y-67860019D01*
X165280435Y-68345039D01*
X168220474Y-65405000D01*
X168651526Y-65405000D01*
X171591565Y-68345039D01*
X172074322Y-67860019D01*
X172736867Y-66280815D01*
X172744643Y-64568277D01*
X172268975Y-63405000D01*
X174025229Y-63405000D01*
X174025229Y-67405000D01*
X174046482Y-67517952D01*
X174113237Y-67621692D01*
X174215093Y-67691287D01*
X174336000Y-67715771D01*
X177336000Y-67715771D01*
X177448952Y-67694518D01*
X177552692Y-67627763D01*
X177622287Y-67525907D01*
X177646771Y-67405000D01*
X177646771Y-63405000D01*
X177625518Y-63292048D01*
X177558763Y-63188308D01*
X177456907Y-63118713D01*
X177336000Y-63094229D01*
X174336000Y-63094229D01*
X174223048Y-63115482D01*
X174119308Y-63182237D01*
X174049713Y-63284093D01*
X174025229Y-63405000D01*
X172268975Y-63405000D01*
X172096467Y-62983123D01*
X172074322Y-62949981D01*
X171591565Y-62464961D01*
X168651526Y-65405000D01*
X168220474Y-65405000D01*
X165280435Y-62464961D01*
X164797678Y-62949981D01*
X164135133Y-64529185D01*
X164127357Y-66241723D01*
X162846771Y-66241723D01*
X162846771Y-63405000D01*
X162825518Y-63292048D01*
X162758763Y-63188308D01*
X162656907Y-63118713D01*
X162536000Y-63094229D01*
X159536000Y-63094229D01*
X159423048Y-63115482D01*
X159319308Y-63182237D01*
X159249713Y-63284093D01*
X159225229Y-63405000D01*
X159225229Y-67405000D01*
X159246482Y-67517952D01*
X159313237Y-67621692D01*
X159415093Y-67691287D01*
X159536000Y-67715771D01*
X161704600Y-67715771D01*
X161704600Y-70832864D01*
X157505400Y-66633664D01*
X157505400Y-62965323D01*
X157836856Y-62828368D01*
X158204079Y-62461786D01*
X158292255Y-62249435D01*
X165495961Y-62249435D01*
X168436000Y-65189474D01*
X171376039Y-62249435D01*
X170891019Y-61766678D01*
X169311815Y-61104133D01*
X167599277Y-61096357D01*
X166014123Y-61744533D01*
X165980981Y-61766678D01*
X165495961Y-62249435D01*
X158292255Y-62249435D01*
X158403064Y-61982578D01*
X158403516Y-61463699D01*
X158205368Y-60984144D01*
X158181267Y-60960000D01*
X176658200Y-60960000D01*
X176745114Y-61396948D01*
X176992625Y-61767375D01*
X177363052Y-62014886D01*
X177800000Y-62101800D01*
X178236948Y-62014886D01*
X178607375Y-61767375D01*
X178854886Y-61396948D01*
X178941800Y-60960000D01*
X178854886Y-60523052D01*
X178607375Y-60152625D01*
X178236948Y-59905114D01*
X177800000Y-59818200D01*
X177363052Y-59905114D01*
X176992625Y-60152625D01*
X176745114Y-60523052D01*
X176658200Y-60960000D01*
X158181267Y-60960000D01*
X157838786Y-60616921D01*
X157359578Y-60417936D01*
X156840699Y-60417484D01*
X156361144Y-60615632D01*
X155993921Y-60982214D01*
X155794936Y-61461422D01*
X155794484Y-61980301D01*
X148316708Y-61980301D01*
X148635375Y-61767375D01*
X148882886Y-61396948D01*
X148969800Y-60960000D01*
X148882886Y-60523052D01*
X148635375Y-60152625D01*
X148264948Y-59905114D01*
X147828000Y-59818200D01*
X147391052Y-59905114D01*
X147020625Y-60152625D01*
X146773114Y-60523052D01*
X146686200Y-60960000D01*
X146683800Y-60960000D01*
X146683800Y-59815800D01*
X178944200Y-59815800D01*
X178944200Y-66929000D01*
G36*
X148823990Y-70923804D02*
X148836703Y-70932298D01*
X148845196Y-70945009D01*
X148848178Y-70960000D01*
X148845196Y-70974991D01*
X148836703Y-70987702D01*
X148823990Y-70996196D01*
X148778977Y-71005150D01*
X148036600Y-71005150D01*
X148036600Y-70914850D01*
X148778977Y-70914850D01*
X148823990Y-70923804D01*
X148823990Y-70923804D01*
G37*
X148823990Y-70923804D02*
X148836703Y-70932298D01*
X148845196Y-70945009D01*
X148848178Y-70960000D01*
X148845196Y-70974991D01*
X148836703Y-70987702D01*
X148823990Y-70996196D01*
X148778977Y-71005150D01*
X148036600Y-71005150D01*
X148036600Y-70914850D01*
X148778977Y-70914850D01*
X148823990Y-70923804D01*
G36*
X148823990Y-63623804D02*
X148836703Y-63632298D01*
X148845196Y-63645009D01*
X148848178Y-63660000D01*
X148845196Y-63674991D01*
X148836703Y-63687702D01*
X148823990Y-63696196D01*
X148778977Y-63705150D01*
X148036600Y-63705150D01*
X148036600Y-63614850D01*
X148778977Y-63614850D01*
X148823990Y-63623804D01*
X148823990Y-63623804D01*
G37*
X148823990Y-63623804D02*
X148836703Y-63632298D01*
X148845196Y-63645009D01*
X148848178Y-63660000D01*
X148845196Y-63674991D01*
X148836703Y-63687702D01*
X148823990Y-63696196D01*
X148778977Y-63705150D01*
X148036600Y-63705150D01*
X148036600Y-63614850D01*
X148778977Y-63614850D01*
X148823990Y-63623804D01*
M02*
