M48
;DRILL file {KiCad 4.0.5+dfsg1-4} date Tue Nov  6 22:35:14 2018
;FORMAT={-:-/ absolute / inch / decimal}
FMAT,2
INCH,TZ
T1C0.025
T2C0.028
T3C0.031
T4C0.032
T5C0.039
T6C0.043
%
G90
G05
M72
T1
X6.855Y-2.79
X6.855Y-3.835
X6.855Y-4.88
X6.955Y-2.79
X6.955Y-3.835
X6.955Y-4.88
X7.05Y-2.79
X7.05Y-3.835
X7.05Y-4.88
T2
X5.9866Y-2.6185
X5.9866Y-2.6815
X5.9866Y-3.6635
X5.9866Y-3.7265
X5.9866Y-4.7085
X5.9866Y-4.7715
X6.0338Y-2.587
X6.0338Y-2.65
X6.0338Y-2.713
X6.0338Y-3.632
X6.0338Y-3.695
X6.0338Y-3.758
X6.0338Y-4.677
X6.0338Y-4.74
X6.0338Y-4.803
T3
X6.5Y-2.875
X6.5Y-3.92
X6.5Y-4.965
X6.685Y-2.895
X6.685Y-3.195
X6.685Y-3.94
X6.685Y-4.24
X6.685Y-4.985
X6.685Y-5.285
X6.785Y-2.895
X6.785Y-3.195
X6.785Y-3.94
X6.785Y-4.24
X6.785Y-4.985
X6.785Y-5.285
X6.885Y-2.895
X6.885Y-3.195
X6.885Y-3.94
X6.885Y-4.24
X6.885Y-4.985
X6.885Y-5.285
X6.985Y-2.895
X6.985Y-3.195
X6.985Y-3.94
X6.985Y-4.24
X6.985Y-4.985
X6.985Y-5.285
T4
X6.5Y-2.9734
X6.5Y-4.0184
X6.5Y-5.0634
T5
X6.185Y-2.43
X6.185Y-2.73
X6.185Y-3.475
X6.185Y-3.775
X6.185Y-4.52
X6.185Y-4.82
X6.2Y-3.095
X6.2Y-3.215
X6.2Y-4.14
X6.2Y-4.26
X6.2Y-5.185
X6.2Y-5.305
X6.245Y-2.89
X6.245Y-3.935
X6.245Y-4.98
X6.345Y-2.89
X6.345Y-3.935
X6.345Y-4.98
X6.5Y-3.095
X6.5Y-3.215
X6.5Y-4.14
X6.5Y-4.26
X6.5Y-5.185
X6.5Y-5.305
T6
X5.8291Y-3.0078
X5.8291Y-3.185
X5.8291Y-4.0528
X5.8291Y-4.23
X5.8291Y-5.0978
X5.8291Y-5.275
X6.085Y-3.0078
X6.085Y-3.185
X6.085Y-4.0528
X6.085Y-4.23
X6.085Y-5.0978
X6.085Y-5.275
T3
X5.8586Y-2.505G85X5.8114Y-2.505
G05
X5.8586Y-2.795G85X5.8114Y-2.795
G05
X5.8586Y-3.55G85X5.8114Y-3.55
G05
X5.8586Y-3.84G85X5.8114Y-3.84
G05
X5.8586Y-4.595G85X5.8114Y-4.595
G05
X5.8586Y-4.885G85X5.8114Y-4.885
G05
T0
M30
