G04 #@! TF.FileFunction,Copper,L2,Bot,Signal*
%FSLAX46Y46*%
G04 Gerber Fmt 4.6, Leading zero omitted, Abs format (unit mm)*
G04 Created by KiCad (PCBNEW 4.0.5+dfsg1-4) date Sat Jun 16 18:21:39 2018*
%MOMM*%
%LPD*%
G01*
G04 APERTURE LIST*
%ADD10C,0.100000*%
%ADD11C,0.150000*%
%ADD12R,1.600000X2.400000*%
%ADD13O,1.600000X2.400000*%
%ADD14C,1.600000*%
%ADD15C,1.520000*%
%ADD16O,4.000000X3.000000*%
%ADD17R,3.500000X3.500000*%
%ADD18R,1.700000X1.700000*%
%ADD19O,1.700000X1.700000*%
%ADD20O,1.600000X1.600000*%
%ADD21C,2.000000*%
%ADD22R,2.400000X1.600000*%
%ADD23O,2.400000X1.600000*%
%ADD24C,1.500000*%
%ADD25R,1.800000X1.800000*%
%ADD26C,1.800000*%
%ADD27R,1.520000X1.520000*%
%ADD28O,1.800000X1.800000*%
%ADD29R,2.400000X2.400000*%
%ADD30O,2.400000X2.400000*%
%ADD31C,0.406400*%
%ADD32C,0.254000*%
G04 APERTURE END LIST*
D10*
D11*
X107936429Y-28309643D02*
X107900715Y-28273929D01*
X107793572Y-28238214D01*
X107722143Y-28238214D01*
X107615000Y-28273929D01*
X107543572Y-28345357D01*
X107507857Y-28416786D01*
X107472143Y-28559643D01*
X107472143Y-28666786D01*
X107507857Y-28809643D01*
X107543572Y-28881071D01*
X107615000Y-28952500D01*
X107722143Y-28988214D01*
X107793572Y-28988214D01*
X107900715Y-28952500D01*
X107936429Y-28916786D01*
X108257857Y-28238214D02*
X108257857Y-28988214D01*
X108436429Y-28988214D01*
X108543572Y-28952500D01*
X108615000Y-28881071D01*
X108650715Y-28809643D01*
X108686429Y-28666786D01*
X108686429Y-28559643D01*
X108650715Y-28416786D01*
X108615000Y-28345357D01*
X108543572Y-28273929D01*
X108436429Y-28238214D01*
X108257857Y-28238214D01*
X109007857Y-28238214D02*
X109007857Y-28988214D01*
X109257857Y-28452500D01*
X109507857Y-28988214D01*
X109507857Y-28238214D01*
X110865001Y-28238214D02*
X110615001Y-28595357D01*
X110436429Y-28238214D02*
X110436429Y-28988214D01*
X110722144Y-28988214D01*
X110793572Y-28952500D01*
X110829287Y-28916786D01*
X110865001Y-28845357D01*
X110865001Y-28738214D01*
X110829287Y-28666786D01*
X110793572Y-28631071D01*
X110722144Y-28595357D01*
X110436429Y-28595357D01*
X111186429Y-28631071D02*
X111436429Y-28631071D01*
X111543572Y-28238214D02*
X111186429Y-28238214D01*
X111186429Y-28988214D01*
X111543572Y-28988214D01*
X111757858Y-28988214D02*
X112007858Y-28238214D01*
X112257858Y-28988214D01*
X113329286Y-28631071D02*
X113436429Y-28595357D01*
X113472144Y-28559643D01*
X113507858Y-28488214D01*
X113507858Y-28381071D01*
X113472144Y-28309643D01*
X113436429Y-28273929D01*
X113365001Y-28238214D01*
X113079286Y-28238214D01*
X113079286Y-28988214D01*
X113329286Y-28988214D01*
X113400715Y-28952500D01*
X113436429Y-28916786D01*
X113472144Y-28845357D01*
X113472144Y-28773929D01*
X113436429Y-28702500D01*
X113400715Y-28666786D01*
X113329286Y-28631071D01*
X113079286Y-28631071D01*
X107597142Y-27713214D02*
X107239999Y-27713214D01*
X107204285Y-27356071D01*
X107239999Y-27391786D01*
X107311428Y-27427500D01*
X107489999Y-27427500D01*
X107561428Y-27391786D01*
X107597142Y-27356071D01*
X107632857Y-27284643D01*
X107632857Y-27106071D01*
X107597142Y-27034643D01*
X107561428Y-26998929D01*
X107489999Y-26963214D01*
X107311428Y-26963214D01*
X107239999Y-26998929D01*
X107204285Y-27034643D01*
X107954285Y-27248929D02*
X108525714Y-27248929D01*
X109275714Y-26963214D02*
X108847142Y-26963214D01*
X109061428Y-26963214D02*
X109061428Y-27713214D01*
X108989999Y-27606071D01*
X108918571Y-27534643D01*
X108847142Y-27498929D01*
X109525714Y-27713214D02*
X109990000Y-27713214D01*
X109740000Y-27427500D01*
X109847142Y-27427500D01*
X109918571Y-27391786D01*
X109954285Y-27356071D01*
X109990000Y-27284643D01*
X109990000Y-27106071D01*
X109954285Y-27034643D01*
X109918571Y-26998929D01*
X109847142Y-26963214D01*
X109632857Y-26963214D01*
X109561428Y-26998929D01*
X109525714Y-27034643D01*
X110311428Y-27248929D02*
X110882857Y-27248929D01*
X111204285Y-27641786D02*
X111239999Y-27677500D01*
X111311428Y-27713214D01*
X111489999Y-27713214D01*
X111561428Y-27677500D01*
X111597142Y-27641786D01*
X111632857Y-27570357D01*
X111632857Y-27498929D01*
X111597142Y-27391786D01*
X111168571Y-26963214D01*
X111632857Y-26963214D01*
X112097143Y-27713214D02*
X112168571Y-27713214D01*
X112240000Y-27677500D01*
X112275714Y-27641786D01*
X112311428Y-27570357D01*
X112347143Y-27427500D01*
X112347143Y-27248929D01*
X112311428Y-27106071D01*
X112275714Y-27034643D01*
X112240000Y-26998929D01*
X112168571Y-26963214D01*
X112097143Y-26963214D01*
X112025714Y-26998929D01*
X111990000Y-27034643D01*
X111954285Y-27106071D01*
X111918571Y-27248929D01*
X111918571Y-27427500D01*
X111954285Y-27570357D01*
X111990000Y-27641786D01*
X112025714Y-27677500D01*
X112097143Y-27713214D01*
X113061429Y-26963214D02*
X112632857Y-26963214D01*
X112847143Y-26963214D02*
X112847143Y-27713214D01*
X112775714Y-27606071D01*
X112704286Y-27534643D01*
X112632857Y-27498929D01*
X113490000Y-27391786D02*
X113418572Y-27427500D01*
X113382857Y-27463214D01*
X113347143Y-27534643D01*
X113347143Y-27570357D01*
X113382857Y-27641786D01*
X113418572Y-27677500D01*
X113490000Y-27713214D01*
X113632857Y-27713214D01*
X113704286Y-27677500D01*
X113740000Y-27641786D01*
X113775715Y-27570357D01*
X113775715Y-27534643D01*
X113740000Y-27463214D01*
X113704286Y-27427500D01*
X113632857Y-27391786D01*
X113490000Y-27391786D01*
X113418572Y-27356071D01*
X113382857Y-27320357D01*
X113347143Y-27248929D01*
X113347143Y-27106071D01*
X113382857Y-27034643D01*
X113418572Y-26998929D01*
X113490000Y-26963214D01*
X113632857Y-26963214D01*
X113704286Y-26998929D01*
X113740000Y-27034643D01*
X113775715Y-27106071D01*
X113775715Y-27248929D01*
X113740000Y-27320357D01*
X113704286Y-27356071D01*
X113632857Y-27391786D01*
D12*
X170434000Y-58166000D03*
D13*
X137414000Y-65786000D03*
X167894000Y-58166000D03*
X139954000Y-65786000D03*
X165354000Y-58166000D03*
X142494000Y-65786000D03*
X162814000Y-58166000D03*
X145034000Y-65786000D03*
X160274000Y-58166000D03*
X147574000Y-65786000D03*
X157734000Y-58166000D03*
X150114000Y-65786000D03*
X155194000Y-58166000D03*
X152654000Y-65786000D03*
X152654000Y-58166000D03*
X155194000Y-65786000D03*
X150114000Y-58166000D03*
X157734000Y-65786000D03*
X147574000Y-58166000D03*
X160274000Y-65786000D03*
X145034000Y-58166000D03*
X162814000Y-65786000D03*
X142494000Y-58166000D03*
X165354000Y-65786000D03*
X139954000Y-58166000D03*
X167894000Y-65786000D03*
X137414000Y-58166000D03*
X170434000Y-65786000D03*
D14*
X157226000Y-54356000D03*
X157226000Y-51856000D03*
X126452000Y-76327000D03*
X123952000Y-76327000D03*
X141732000Y-46315000D03*
X141732000Y-43815000D03*
X125476000Y-42886000D03*
X125476000Y-40386000D03*
X128691000Y-76327000D03*
X131191000Y-76327000D03*
X151130000Y-46228000D03*
X151130000Y-48728000D03*
X146685000Y-46282000D03*
X146685000Y-48782000D03*
D15*
X119348000Y-39878000D03*
X119348000Y-42418000D03*
X117348000Y-42418000D03*
X117348000Y-39878000D03*
D16*
X114648000Y-35148000D03*
X114648000Y-47148000D03*
D17*
X118268000Y-70993000D03*
X112268000Y-70993000D03*
X115268000Y-75693000D03*
D18*
X170180000Y-76962000D03*
D19*
X167640000Y-76962000D03*
X165100000Y-76962000D03*
X162560000Y-76962000D03*
X160020000Y-76962000D03*
X157480000Y-76962000D03*
D18*
X170180000Y-28956000D03*
D19*
X167640000Y-28956000D03*
X165100000Y-28956000D03*
X162560000Y-28956000D03*
X160020000Y-28956000D03*
X157480000Y-28956000D03*
X154940000Y-28956000D03*
X152400000Y-28956000D03*
D14*
X149352000Y-37592000D03*
D20*
X141732000Y-37592000D03*
D14*
X149352000Y-34290000D03*
D20*
X141732000Y-34290000D03*
D14*
X167132000Y-46482000D03*
D20*
X167132000Y-54102000D03*
D21*
X113466000Y-57404000D03*
X108966000Y-57404000D03*
X113466000Y-50904000D03*
X108966000Y-50904000D03*
D22*
X137414000Y-50546000D03*
D23*
X129794000Y-35306000D03*
X137414000Y-48006000D03*
X129794000Y-37846000D03*
X137414000Y-45466000D03*
X129794000Y-40386000D03*
X137414000Y-42926000D03*
X129794000Y-42926000D03*
X137414000Y-40386000D03*
X129794000Y-45466000D03*
X137414000Y-37846000D03*
X129794000Y-48006000D03*
X137414000Y-35306000D03*
X129794000Y-50546000D03*
D24*
X151384000Y-53086000D03*
X146504000Y-53086000D03*
D25*
X157480000Y-40894000D03*
D26*
X154940000Y-40894000D03*
D14*
X141732000Y-40894000D03*
D20*
X149352000Y-40894000D03*
D18*
X152400000Y-76962000D03*
D19*
X149860000Y-76962000D03*
X147320000Y-76962000D03*
X144780000Y-76962000D03*
X142240000Y-76962000D03*
X139700000Y-76962000D03*
X137160000Y-76962000D03*
X134620000Y-76962000D03*
D18*
X170688000Y-49022000D03*
D19*
X173228000Y-49022000D03*
X170688000Y-51562000D03*
X173228000Y-51562000D03*
X170688000Y-54102000D03*
X173228000Y-54102000D03*
D18*
X125476000Y-28956000D03*
D19*
X128016000Y-28956000D03*
X130556000Y-28956000D03*
X133096000Y-28956000D03*
X135636000Y-28956000D03*
X138176000Y-28956000D03*
X140716000Y-28956000D03*
X143256000Y-28956000D03*
X145796000Y-28956000D03*
X148336000Y-28956000D03*
D14*
X118491000Y-63754000D03*
X120991000Y-63754000D03*
D15*
X112903000Y-63754000D03*
X115443000Y-63754000D03*
D27*
X110363000Y-63754000D03*
D25*
X125349000Y-73660000D03*
D28*
X127889000Y-73660000D03*
X130429000Y-73660000D03*
D29*
X119380000Y-59817000D03*
D30*
X119380000Y-49657000D03*
D31*
X157226000Y-54356000D02*
X159258000Y-54356000D01*
X159258000Y-54356000D02*
X167132000Y-46482000D01*
X166624000Y-46482000D02*
X170688000Y-46482000D01*
X170688000Y-46482000D02*
X173228000Y-49022000D01*
X108966000Y-57404000D02*
X108966000Y-64608522D01*
X108966000Y-64608522D02*
X109508478Y-65151000D01*
X109508478Y-65151000D02*
X125095000Y-65151000D01*
X125095000Y-65151000D02*
X133858000Y-73914000D01*
X133858000Y-73914000D02*
X139065000Y-73914000D01*
X139065000Y-73914000D02*
X139700000Y-74549000D01*
X139700000Y-74549000D02*
X139700000Y-76962000D01*
X108966000Y-50904000D02*
X108966000Y-57404000D01*
X166624000Y-54102000D02*
X170688000Y-54102000D01*
X170561000Y-54229000D02*
X170688000Y-54102000D01*
X170434000Y-57277000D02*
X170434000Y-54356000D01*
X170434000Y-54356000D02*
X170688000Y-54102000D01*
X170180000Y-73660000D02*
X170180000Y-75705600D01*
X168148000Y-71628000D02*
X170180000Y-73660000D01*
X134874000Y-71628000D02*
X168148000Y-71628000D01*
X130810000Y-67564000D02*
X134874000Y-71628000D01*
X130810000Y-62865000D02*
X130810000Y-67564000D01*
X123952000Y-56007000D02*
X130810000Y-62865000D01*
X123952000Y-31736400D02*
X123952000Y-56007000D01*
X125476000Y-30212400D02*
X123952000Y-31736400D01*
X125476000Y-28956000D02*
X125476000Y-30212400D01*
X170180000Y-75705600D02*
X170180000Y-76962000D01*
X123190000Y-56261000D02*
X130048000Y-63119000D01*
X130048000Y-63119000D02*
X130048000Y-67818000D01*
X167640000Y-73787000D02*
X167640000Y-74549000D01*
X134620000Y-72390000D02*
X130048000Y-67818000D01*
X128016000Y-28956000D02*
X128016000Y-27753919D01*
X128016000Y-27753919D02*
X127694081Y-27432000D01*
X127694081Y-27432000D02*
X124460000Y-27432000D01*
X124460000Y-27432000D02*
X123825000Y-28067000D01*
X123190000Y-31242000D02*
X123190000Y-56261000D01*
X123825000Y-28067000D02*
X123825000Y-30607000D01*
X123825000Y-30607000D02*
X123190000Y-31242000D01*
X167640000Y-76962000D02*
X167640000Y-74549000D01*
X167640000Y-73787000D02*
X166243000Y-72390000D01*
X166243000Y-72390000D02*
X134620000Y-72390000D01*
X137414000Y-65659000D02*
X136144000Y-65659000D01*
X137922000Y-32258000D02*
X142494000Y-32258000D01*
X136144000Y-65659000D02*
X135382000Y-64897000D01*
X135382000Y-34798000D02*
X137922000Y-32258000D01*
X135382000Y-64897000D02*
X135382000Y-34798000D01*
X142494000Y-32258000D02*
X145796000Y-28956000D01*
X139954000Y-66186000D02*
X138322000Y-67818000D01*
X138322000Y-67818000D02*
X136398000Y-67818000D01*
X136398000Y-67818000D02*
X134620000Y-66040000D01*
X137668000Y-31496000D02*
X140716000Y-31496000D01*
X134620000Y-66040000D02*
X134620000Y-34544000D01*
X134620000Y-34544000D02*
X137668000Y-31496000D01*
X140716000Y-31496000D02*
X143256000Y-28956000D01*
X142494000Y-66167000D02*
X140100000Y-68561000D01*
X133858000Y-34290000D02*
X137287000Y-30861000D01*
X140100000Y-68561000D02*
X136144000Y-68561000D01*
X136144000Y-68561000D02*
X133858000Y-66275000D01*
X133858000Y-66275000D02*
X133858000Y-34290000D01*
X137287000Y-30861000D02*
X138811000Y-30861000D01*
X138811000Y-30861000D02*
X140716000Y-28956000D01*
X171971599Y-52818401D02*
X173228000Y-51562000D01*
X142494000Y-64497000D02*
X142494000Y-65786000D01*
X171971599Y-52818401D02*
X171971599Y-60057401D01*
X171971599Y-60057401D02*
X170815000Y-61214000D01*
X170815000Y-61214000D02*
X145777000Y-61214000D01*
X145777000Y-61214000D02*
X142494000Y-64497000D01*
X133096000Y-34036000D02*
X138176000Y-28956000D01*
X133096000Y-34036000D02*
X133096000Y-66548000D01*
X133096000Y-66548000D02*
X135890000Y-69342000D01*
X170688000Y-49022000D02*
X171958000Y-50292000D01*
X174117000Y-50292000D02*
X174625000Y-50800000D01*
X171958000Y-50292000D02*
X174117000Y-50292000D01*
X174625000Y-50800000D02*
X174625000Y-54864000D01*
X174625000Y-54864000D02*
X172720000Y-56769000D01*
X145034000Y-66167000D02*
X141878000Y-69323000D01*
X172720000Y-56769000D02*
X172720000Y-60452000D01*
X172720000Y-60452000D02*
X171196000Y-61976000D01*
X171196000Y-61976000D02*
X146177000Y-61976000D01*
X146177000Y-61976000D02*
X145034000Y-63119000D01*
X145034000Y-63119000D02*
X145034000Y-65297000D01*
X141859000Y-69342000D02*
X135871000Y-69342000D01*
X170688000Y-51562000D02*
X163576000Y-51562000D01*
X163576000Y-51562000D02*
X159131000Y-56007000D01*
X153924000Y-43053000D02*
X151765000Y-40894000D01*
X159131000Y-56007000D02*
X155448000Y-56007000D01*
X153924000Y-54483000D02*
X153924000Y-43053000D01*
X155448000Y-56007000D02*
X153924000Y-54483000D01*
X151765000Y-40894000D02*
X149352000Y-40894000D01*
X132334000Y-66837000D02*
X132334000Y-33655000D01*
X135636000Y-28956000D02*
X135636000Y-30158081D01*
X135636000Y-30158081D02*
X132334000Y-33460081D01*
X132334000Y-33460081D02*
X132334000Y-33655000D01*
X147574000Y-66221000D02*
X143656000Y-70139000D01*
X143656000Y-70139000D02*
X135636000Y-70139000D01*
X135636000Y-70139000D02*
X132334000Y-66837000D01*
X152654000Y-66221000D02*
X147974000Y-70901000D01*
X147974000Y-70901000D02*
X135382000Y-70901000D01*
X135382000Y-70901000D02*
X131572000Y-67091000D01*
X131572000Y-67091000D02*
X131572000Y-29972000D01*
X131572000Y-29972000D02*
X130556000Y-28956000D01*
X149352000Y-34290000D02*
X166102400Y-34290000D01*
X166102400Y-34290000D02*
X170180000Y-30212400D01*
X170180000Y-30212400D02*
X170180000Y-28956000D01*
X167640000Y-31496000D02*
X167640000Y-28956000D01*
X165608000Y-33528000D02*
X167640000Y-31496000D01*
X150876000Y-33528000D02*
X165608000Y-33528000D01*
X150114000Y-32766000D02*
X150876000Y-33528000D01*
X148590000Y-32766000D02*
X150114000Y-32766000D01*
X148082000Y-33274000D02*
X148590000Y-32766000D01*
X148082000Y-35190630D02*
X148082000Y-33274000D01*
X149352000Y-37592000D02*
X149352000Y-36460630D01*
X149352000Y-36460630D02*
X148082000Y-35190630D01*
X143383000Y-39243000D02*
X153289000Y-39243000D01*
X153289000Y-39243000D02*
X154940000Y-40894000D01*
X141732000Y-40894000D02*
X143383000Y-39243000D01*
X118491000Y-63754000D02*
X119761000Y-62484000D01*
X119761000Y-62484000D02*
X123571000Y-62484000D01*
X123571000Y-62484000D02*
X134239000Y-73152000D01*
X134239000Y-73152000D02*
X141478000Y-73152000D01*
X141478000Y-73152000D02*
X142240000Y-73914000D01*
X142240000Y-73914000D02*
X142240000Y-76962000D01*
X118491000Y-63754000D02*
X115443000Y-63754000D01*
D32*
G36*
X174550000Y-70676958D02*
X174299677Y-70302323D01*
X173574915Y-69818053D01*
X172720000Y-69648000D01*
X171865085Y-69818053D01*
X171140323Y-70302323D01*
X170656053Y-71027085D01*
X170486000Y-71882000D01*
X170656053Y-72736915D01*
X171140323Y-73461677D01*
X171865085Y-73945947D01*
X172720000Y-74116000D01*
X173574915Y-73945947D01*
X174299677Y-73461677D01*
X174550000Y-73087042D01*
X174550000Y-74164945D01*
X172174563Y-77015469D01*
X172123451Y-77109388D01*
X172064046Y-77198295D01*
X172057697Y-77230214D01*
X172042141Y-77258798D01*
X172030861Y-77365125D01*
X172010000Y-77470000D01*
X172010000Y-78792000D01*
X121855042Y-78792000D01*
X122229677Y-78541677D01*
X122713947Y-77816915D01*
X122809856Y-77334745D01*
X123123861Y-77334745D01*
X123197995Y-77580864D01*
X123735223Y-77773965D01*
X124305454Y-77746778D01*
X124706005Y-77580864D01*
X124780139Y-77334745D01*
X123952000Y-76506605D01*
X123123861Y-77334745D01*
X122809856Y-77334745D01*
X122851160Y-77127098D01*
X122944255Y-77155139D01*
X123772395Y-76327000D01*
X122944255Y-75498861D01*
X122698136Y-75572995D01*
X122578842Y-75904885D01*
X122229677Y-75382323D01*
X121504915Y-74898053D01*
X120650000Y-74728000D01*
X119795085Y-74898053D01*
X119070323Y-75382323D01*
X118586053Y-76107085D01*
X118416000Y-76962000D01*
X118586053Y-77816915D01*
X119070323Y-78541677D01*
X119444958Y-78792000D01*
X107390000Y-78792000D01*
X107390000Y-71278750D01*
X109883000Y-71278750D01*
X109883000Y-72869310D01*
X109979673Y-73102699D01*
X110158302Y-73281327D01*
X110391691Y-73378000D01*
X111982250Y-73378000D01*
X112141000Y-73219250D01*
X112141000Y-71120000D01*
X112395000Y-71120000D01*
X112395000Y-73219250D01*
X112553750Y-73378000D01*
X113223378Y-73378000D01*
X113066559Y-73478910D01*
X112921569Y-73691110D01*
X112870560Y-73943000D01*
X112870560Y-77443000D01*
X112914838Y-77678317D01*
X113053910Y-77894441D01*
X113266110Y-78039431D01*
X113518000Y-78090440D01*
X117018000Y-78090440D01*
X117253317Y-78046162D01*
X117469441Y-77907090D01*
X117614431Y-77694890D01*
X117665440Y-77443000D01*
X117665440Y-73943000D01*
X117621162Y-73707683D01*
X117482090Y-73491559D01*
X117334097Y-73390440D01*
X120018000Y-73390440D01*
X120253317Y-73346162D01*
X120469441Y-73207090D01*
X120614431Y-72994890D01*
X120665440Y-72743000D01*
X120665440Y-69243000D01*
X120621162Y-69007683D01*
X120482090Y-68791559D01*
X120269890Y-68646569D01*
X120018000Y-68595560D01*
X116518000Y-68595560D01*
X116282683Y-68639838D01*
X116066559Y-68778910D01*
X115921569Y-68991110D01*
X115870560Y-69243000D01*
X115870560Y-72743000D01*
X115914838Y-72978317D01*
X116053910Y-73194441D01*
X116201903Y-73295560D01*
X114343337Y-73295560D01*
X114377698Y-73281327D01*
X114556327Y-73102699D01*
X114653000Y-72869310D01*
X114653000Y-71278750D01*
X114494250Y-71120000D01*
X112395000Y-71120000D01*
X112141000Y-71120000D01*
X110041750Y-71120000D01*
X109883000Y-71278750D01*
X107390000Y-71278750D01*
X107390000Y-69116690D01*
X109883000Y-69116690D01*
X109883000Y-70707250D01*
X110041750Y-70866000D01*
X112141000Y-70866000D01*
X112141000Y-68766750D01*
X112395000Y-68766750D01*
X112395000Y-70866000D01*
X114494250Y-70866000D01*
X114653000Y-70707250D01*
X114653000Y-69116690D01*
X114556327Y-68883301D01*
X114377698Y-68704673D01*
X114144309Y-68608000D01*
X112553750Y-68608000D01*
X112395000Y-68766750D01*
X112141000Y-68766750D01*
X111982250Y-68608000D01*
X110391691Y-68608000D01*
X110158302Y-68704673D01*
X109979673Y-68883301D01*
X109883000Y-69116690D01*
X107390000Y-69116690D01*
X107390000Y-57871273D01*
X107579106Y-58328943D01*
X108038637Y-58789278D01*
X108127800Y-58826302D01*
X108127800Y-64608522D01*
X108191604Y-64929288D01*
X108373303Y-65201219D01*
X108915781Y-65743697D01*
X109187713Y-65925396D01*
X109508478Y-65989200D01*
X124747806Y-65989200D01*
X130989019Y-72230413D01*
X130459072Y-72125000D01*
X130398928Y-72125000D01*
X129811509Y-72241845D01*
X129313519Y-72574591D01*
X129154499Y-72812582D01*
X128796576Y-72422034D01*
X128253742Y-72168954D01*
X128016000Y-72289003D01*
X128016000Y-73533000D01*
X128036000Y-73533000D01*
X128036000Y-73787000D01*
X128016000Y-73787000D01*
X128016000Y-73807000D01*
X127762000Y-73807000D01*
X127762000Y-73787000D01*
X127742000Y-73787000D01*
X127742000Y-73533000D01*
X127762000Y-73533000D01*
X127762000Y-72289003D01*
X127524258Y-72168954D01*
X126981424Y-72422034D01*
X126858156Y-72556538D01*
X126852162Y-72524683D01*
X126713090Y-72308559D01*
X126500890Y-72163569D01*
X126249000Y-72112560D01*
X124449000Y-72112560D01*
X124213683Y-72156838D01*
X123997559Y-72295910D01*
X123852569Y-72508110D01*
X123801560Y-72760000D01*
X123801560Y-74560000D01*
X123845838Y-74795317D01*
X123908343Y-74892452D01*
X123598546Y-74907222D01*
X123197995Y-75073136D01*
X123123861Y-75319255D01*
X123952000Y-76147395D01*
X124780139Y-75319255D01*
X124746459Y-75207440D01*
X125542346Y-75207440D01*
X125236176Y-75513077D01*
X125208577Y-75579544D01*
X125205864Y-75572995D01*
X124959745Y-75498861D01*
X124131605Y-76327000D01*
X124959745Y-77155139D01*
X125205864Y-77081005D01*
X125208196Y-77074517D01*
X125234757Y-77138800D01*
X125638077Y-77542824D01*
X126165309Y-77761750D01*
X126736187Y-77762248D01*
X127263800Y-77544243D01*
X127571683Y-77236897D01*
X127877077Y-77542824D01*
X128404309Y-77761750D01*
X128975187Y-77762248D01*
X129502800Y-77544243D01*
X129712663Y-77334745D01*
X130362861Y-77334745D01*
X130436995Y-77580864D01*
X130974223Y-77773965D01*
X131544454Y-77746778D01*
X131945005Y-77580864D01*
X132019139Y-77334745D01*
X131191000Y-76506605D01*
X130362861Y-77334745D01*
X129712663Y-77334745D01*
X129906824Y-77140923D01*
X129934423Y-77074456D01*
X129937136Y-77081005D01*
X130183255Y-77155139D01*
X131011395Y-76327000D01*
X131370605Y-76327000D01*
X132198745Y-77155139D01*
X132444864Y-77081005D01*
X132637965Y-76543777D01*
X132610778Y-75973546D01*
X132444864Y-75572995D01*
X132198745Y-75498861D01*
X131370605Y-76327000D01*
X131011395Y-76327000D01*
X130183255Y-75498861D01*
X129937136Y-75572995D01*
X129934804Y-75579483D01*
X129908243Y-75515200D01*
X129504923Y-75111176D01*
X128977691Y-74892250D01*
X128801955Y-74892097D01*
X129154499Y-74507418D01*
X129313519Y-74745409D01*
X129811509Y-75078155D01*
X130398928Y-75195000D01*
X130400288Y-75195000D01*
X130362861Y-75319255D01*
X131191000Y-76147395D01*
X132019139Y-75319255D01*
X131945005Y-75073136D01*
X131407777Y-74880035D01*
X131338021Y-74883361D01*
X131544481Y-74745409D01*
X131877227Y-74247419D01*
X131994072Y-73660000D01*
X131888659Y-73130053D01*
X133265303Y-74506697D01*
X133537235Y-74688396D01*
X133858000Y-74752200D01*
X138717806Y-74752200D01*
X138861800Y-74896194D01*
X138861800Y-75741297D01*
X138649946Y-75882853D01*
X138430000Y-76212026D01*
X138210054Y-75882853D01*
X137728285Y-75560946D01*
X137160000Y-75447907D01*
X136591715Y-75560946D01*
X136109946Y-75882853D01*
X135890000Y-76212026D01*
X135670054Y-75882853D01*
X135188285Y-75560946D01*
X134620000Y-75447907D01*
X134051715Y-75560946D01*
X133569946Y-75882853D01*
X133248039Y-76364622D01*
X133135000Y-76932907D01*
X133135000Y-76991093D01*
X133248039Y-77559378D01*
X133569946Y-78041147D01*
X134051715Y-78363054D01*
X134620000Y-78476093D01*
X135188285Y-78363054D01*
X135670054Y-78041147D01*
X135890000Y-77711974D01*
X136109946Y-78041147D01*
X136591715Y-78363054D01*
X137160000Y-78476093D01*
X137728285Y-78363054D01*
X138210054Y-78041147D01*
X138430000Y-77711974D01*
X138649946Y-78041147D01*
X139131715Y-78363054D01*
X139700000Y-78476093D01*
X140268285Y-78363054D01*
X140750054Y-78041147D01*
X140970000Y-77711974D01*
X141189946Y-78041147D01*
X141671715Y-78363054D01*
X142240000Y-78476093D01*
X142808285Y-78363054D01*
X143290054Y-78041147D01*
X143510000Y-77711974D01*
X143729946Y-78041147D01*
X144211715Y-78363054D01*
X144780000Y-78476093D01*
X145348285Y-78363054D01*
X145830054Y-78041147D01*
X146057702Y-77700447D01*
X146124817Y-77843358D01*
X146553076Y-78233645D01*
X146963110Y-78403476D01*
X147193000Y-78282155D01*
X147193000Y-77089000D01*
X147447000Y-77089000D01*
X147447000Y-78282155D01*
X147676890Y-78403476D01*
X148086924Y-78233645D01*
X148515183Y-77843358D01*
X148590000Y-77684046D01*
X148664817Y-77843358D01*
X149093076Y-78233645D01*
X149503110Y-78403476D01*
X149733000Y-78282155D01*
X149733000Y-77089000D01*
X147447000Y-77089000D01*
X147193000Y-77089000D01*
X147173000Y-77089000D01*
X147173000Y-76835000D01*
X147193000Y-76835000D01*
X147193000Y-75641845D01*
X147447000Y-75641845D01*
X147447000Y-76835000D01*
X149733000Y-76835000D01*
X149733000Y-75641845D01*
X149987000Y-75641845D01*
X149987000Y-76835000D01*
X150007000Y-76835000D01*
X150007000Y-77089000D01*
X149987000Y-77089000D01*
X149987000Y-78282155D01*
X150216890Y-78403476D01*
X150626924Y-78233645D01*
X150929937Y-77957499D01*
X150946838Y-78047317D01*
X151085910Y-78263441D01*
X151298110Y-78408431D01*
X151550000Y-78459440D01*
X153250000Y-78459440D01*
X153485317Y-78415162D01*
X153701441Y-78276090D01*
X153846431Y-78063890D01*
X153897440Y-77812000D01*
X153897440Y-76112000D01*
X153853162Y-75876683D01*
X153714090Y-75660559D01*
X153501890Y-75515569D01*
X153250000Y-75464560D01*
X151550000Y-75464560D01*
X151314683Y-75508838D01*
X151098559Y-75647910D01*
X150953569Y-75860110D01*
X150931699Y-75968107D01*
X150626924Y-75690355D01*
X150216890Y-75520524D01*
X149987000Y-75641845D01*
X149733000Y-75641845D01*
X149503110Y-75520524D01*
X149093076Y-75690355D01*
X148664817Y-76080642D01*
X148590000Y-76239954D01*
X148515183Y-76080642D01*
X148086924Y-75690355D01*
X147676890Y-75520524D01*
X147447000Y-75641845D01*
X147193000Y-75641845D01*
X146963110Y-75520524D01*
X146553076Y-75690355D01*
X146124817Y-76080642D01*
X146057702Y-76223553D01*
X145830054Y-75882853D01*
X145348285Y-75560946D01*
X144780000Y-75447907D01*
X144211715Y-75560946D01*
X143729946Y-75882853D01*
X143510000Y-76212026D01*
X143290054Y-75882853D01*
X143078200Y-75741297D01*
X143078200Y-73914000D01*
X143014396Y-73593235D01*
X142832697Y-73321303D01*
X142739594Y-73228200D01*
X165895806Y-73228200D01*
X166801800Y-74134194D01*
X166801800Y-75741297D01*
X166589946Y-75882853D01*
X166370000Y-76212026D01*
X166150054Y-75882853D01*
X165668285Y-75560946D01*
X165100000Y-75447907D01*
X164531715Y-75560946D01*
X164049946Y-75882853D01*
X163830000Y-76212026D01*
X163610054Y-75882853D01*
X163128285Y-75560946D01*
X162560000Y-75447907D01*
X161991715Y-75560946D01*
X161509946Y-75882853D01*
X161290000Y-76212026D01*
X161070054Y-75882853D01*
X160588285Y-75560946D01*
X160020000Y-75447907D01*
X159451715Y-75560946D01*
X158969946Y-75882853D01*
X158750000Y-76212026D01*
X158530054Y-75882853D01*
X158048285Y-75560946D01*
X157480000Y-75447907D01*
X156911715Y-75560946D01*
X156429946Y-75882853D01*
X156108039Y-76364622D01*
X155995000Y-76932907D01*
X155995000Y-76991093D01*
X156108039Y-77559378D01*
X156429946Y-78041147D01*
X156911715Y-78363054D01*
X157480000Y-78476093D01*
X158048285Y-78363054D01*
X158530054Y-78041147D01*
X158750000Y-77711974D01*
X158969946Y-78041147D01*
X159451715Y-78363054D01*
X160020000Y-78476093D01*
X160588285Y-78363054D01*
X161070054Y-78041147D01*
X161290000Y-77711974D01*
X161509946Y-78041147D01*
X161991715Y-78363054D01*
X162560000Y-78476093D01*
X163128285Y-78363054D01*
X163610054Y-78041147D01*
X163830000Y-77711974D01*
X164049946Y-78041147D01*
X164531715Y-78363054D01*
X165100000Y-78476093D01*
X165668285Y-78363054D01*
X166150054Y-78041147D01*
X166370000Y-77711974D01*
X166589946Y-78041147D01*
X167071715Y-78363054D01*
X167640000Y-78476093D01*
X168208285Y-78363054D01*
X168690054Y-78041147D01*
X168717850Y-77999548D01*
X168726838Y-78047317D01*
X168865910Y-78263441D01*
X169078110Y-78408431D01*
X169330000Y-78459440D01*
X171030000Y-78459440D01*
X171265317Y-78415162D01*
X171481441Y-78276090D01*
X171626431Y-78063890D01*
X171677440Y-77812000D01*
X171677440Y-76112000D01*
X171633162Y-75876683D01*
X171494090Y-75660559D01*
X171281890Y-75515569D01*
X171030000Y-75464560D01*
X171018200Y-75464560D01*
X171018200Y-73660000D01*
X170954396Y-73339235D01*
X170954396Y-73339234D01*
X170772697Y-73067303D01*
X168740697Y-71035303D01*
X168468766Y-70853604D01*
X168148000Y-70789800D01*
X149270594Y-70789800D01*
X152445014Y-67615380D01*
X152654000Y-67656950D01*
X153203151Y-67547717D01*
X153668698Y-67236648D01*
X153921507Y-66858293D01*
X154269104Y-67290500D01*
X154762181Y-67560367D01*
X154844961Y-67577904D01*
X155067000Y-67455915D01*
X155067000Y-65913000D01*
X155047000Y-65913000D01*
X155047000Y-65659000D01*
X155067000Y-65659000D01*
X155067000Y-64116085D01*
X155321000Y-64116085D01*
X155321000Y-65659000D01*
X155341000Y-65659000D01*
X155341000Y-65913000D01*
X155321000Y-65913000D01*
X155321000Y-67455915D01*
X155543039Y-67577904D01*
X155625819Y-67560367D01*
X156118896Y-67290500D01*
X156466493Y-66858293D01*
X156719302Y-67236648D01*
X157184849Y-67547717D01*
X157734000Y-67656950D01*
X158283151Y-67547717D01*
X158748698Y-67236648D01*
X159004000Y-66854562D01*
X159259302Y-67236648D01*
X159724849Y-67547717D01*
X160274000Y-67656950D01*
X160823151Y-67547717D01*
X161288698Y-67236648D01*
X161544000Y-66854562D01*
X161799302Y-67236648D01*
X162264849Y-67547717D01*
X162814000Y-67656950D01*
X163363151Y-67547717D01*
X163828698Y-67236648D01*
X164084000Y-66854562D01*
X164339302Y-67236648D01*
X164804849Y-67547717D01*
X165354000Y-67656950D01*
X165903151Y-67547717D01*
X166368698Y-67236648D01*
X166624000Y-66854562D01*
X166879302Y-67236648D01*
X167344849Y-67547717D01*
X167894000Y-67656950D01*
X168443151Y-67547717D01*
X168908698Y-67236648D01*
X169164000Y-66854562D01*
X169419302Y-67236648D01*
X169884849Y-67547717D01*
X170434000Y-67656950D01*
X170983151Y-67547717D01*
X171448698Y-67236648D01*
X171759767Y-66771101D01*
X171869000Y-66221950D01*
X171869000Y-65350050D01*
X171759767Y-64800899D01*
X171448698Y-64335352D01*
X170983151Y-64024283D01*
X170434000Y-63915050D01*
X169884849Y-64024283D01*
X169419302Y-64335352D01*
X169164000Y-64717438D01*
X168908698Y-64335352D01*
X168443151Y-64024283D01*
X167894000Y-63915050D01*
X167344849Y-64024283D01*
X166879302Y-64335352D01*
X166624000Y-64717438D01*
X166368698Y-64335352D01*
X165903151Y-64024283D01*
X165354000Y-63915050D01*
X164804849Y-64024283D01*
X164339302Y-64335352D01*
X164084000Y-64717438D01*
X163828698Y-64335352D01*
X163363151Y-64024283D01*
X162814000Y-63915050D01*
X162264849Y-64024283D01*
X161799302Y-64335352D01*
X161544000Y-64717438D01*
X161288698Y-64335352D01*
X160823151Y-64024283D01*
X160274000Y-63915050D01*
X159724849Y-64024283D01*
X159259302Y-64335352D01*
X159004000Y-64717438D01*
X158748698Y-64335352D01*
X158283151Y-64024283D01*
X157734000Y-63915050D01*
X157184849Y-64024283D01*
X156719302Y-64335352D01*
X156466493Y-64713707D01*
X156118896Y-64281500D01*
X155625819Y-64011633D01*
X155543039Y-63994096D01*
X155321000Y-64116085D01*
X155067000Y-64116085D01*
X154844961Y-63994096D01*
X154762181Y-64011633D01*
X154269104Y-64281500D01*
X153921507Y-64713707D01*
X153668698Y-64335352D01*
X153203151Y-64024283D01*
X152654000Y-63915050D01*
X152104849Y-64024283D01*
X151639302Y-64335352D01*
X151384000Y-64717438D01*
X151128698Y-64335352D01*
X150663151Y-64024283D01*
X150114000Y-63915050D01*
X149564849Y-64024283D01*
X149099302Y-64335352D01*
X148844000Y-64717438D01*
X148588698Y-64335352D01*
X148123151Y-64024283D01*
X147574000Y-63915050D01*
X147024849Y-64024283D01*
X146559302Y-64335352D01*
X146304000Y-64717438D01*
X146048698Y-64335352D01*
X145872200Y-64217420D01*
X145872200Y-63466194D01*
X146524194Y-62814200D01*
X171196000Y-62814200D01*
X171516766Y-62750396D01*
X171788697Y-62568697D01*
X173312697Y-61044697D01*
X173494396Y-60772765D01*
X173558200Y-60452000D01*
X173558200Y-57116194D01*
X174550000Y-56124394D01*
X174550000Y-70676958D01*
X174550000Y-70676958D01*
G37*
X174550000Y-70676958D02*
X174299677Y-70302323D01*
X173574915Y-69818053D01*
X172720000Y-69648000D01*
X171865085Y-69818053D01*
X171140323Y-70302323D01*
X170656053Y-71027085D01*
X170486000Y-71882000D01*
X170656053Y-72736915D01*
X171140323Y-73461677D01*
X171865085Y-73945947D01*
X172720000Y-74116000D01*
X173574915Y-73945947D01*
X174299677Y-73461677D01*
X174550000Y-73087042D01*
X174550000Y-74164945D01*
X172174563Y-77015469D01*
X172123451Y-77109388D01*
X172064046Y-77198295D01*
X172057697Y-77230214D01*
X172042141Y-77258798D01*
X172030861Y-77365125D01*
X172010000Y-77470000D01*
X172010000Y-78792000D01*
X121855042Y-78792000D01*
X122229677Y-78541677D01*
X122713947Y-77816915D01*
X122809856Y-77334745D01*
X123123861Y-77334745D01*
X123197995Y-77580864D01*
X123735223Y-77773965D01*
X124305454Y-77746778D01*
X124706005Y-77580864D01*
X124780139Y-77334745D01*
X123952000Y-76506605D01*
X123123861Y-77334745D01*
X122809856Y-77334745D01*
X122851160Y-77127098D01*
X122944255Y-77155139D01*
X123772395Y-76327000D01*
X122944255Y-75498861D01*
X122698136Y-75572995D01*
X122578842Y-75904885D01*
X122229677Y-75382323D01*
X121504915Y-74898053D01*
X120650000Y-74728000D01*
X119795085Y-74898053D01*
X119070323Y-75382323D01*
X118586053Y-76107085D01*
X118416000Y-76962000D01*
X118586053Y-77816915D01*
X119070323Y-78541677D01*
X119444958Y-78792000D01*
X107390000Y-78792000D01*
X107390000Y-71278750D01*
X109883000Y-71278750D01*
X109883000Y-72869310D01*
X109979673Y-73102699D01*
X110158302Y-73281327D01*
X110391691Y-73378000D01*
X111982250Y-73378000D01*
X112141000Y-73219250D01*
X112141000Y-71120000D01*
X112395000Y-71120000D01*
X112395000Y-73219250D01*
X112553750Y-73378000D01*
X113223378Y-73378000D01*
X113066559Y-73478910D01*
X112921569Y-73691110D01*
X112870560Y-73943000D01*
X112870560Y-77443000D01*
X112914838Y-77678317D01*
X113053910Y-77894441D01*
X113266110Y-78039431D01*
X113518000Y-78090440D01*
X117018000Y-78090440D01*
X117253317Y-78046162D01*
X117469441Y-77907090D01*
X117614431Y-77694890D01*
X117665440Y-77443000D01*
X117665440Y-73943000D01*
X117621162Y-73707683D01*
X117482090Y-73491559D01*
X117334097Y-73390440D01*
X120018000Y-73390440D01*
X120253317Y-73346162D01*
X120469441Y-73207090D01*
X120614431Y-72994890D01*
X120665440Y-72743000D01*
X120665440Y-69243000D01*
X120621162Y-69007683D01*
X120482090Y-68791559D01*
X120269890Y-68646569D01*
X120018000Y-68595560D01*
X116518000Y-68595560D01*
X116282683Y-68639838D01*
X116066559Y-68778910D01*
X115921569Y-68991110D01*
X115870560Y-69243000D01*
X115870560Y-72743000D01*
X115914838Y-72978317D01*
X116053910Y-73194441D01*
X116201903Y-73295560D01*
X114343337Y-73295560D01*
X114377698Y-73281327D01*
X114556327Y-73102699D01*
X114653000Y-72869310D01*
X114653000Y-71278750D01*
X114494250Y-71120000D01*
X112395000Y-71120000D01*
X112141000Y-71120000D01*
X110041750Y-71120000D01*
X109883000Y-71278750D01*
X107390000Y-71278750D01*
X107390000Y-69116690D01*
X109883000Y-69116690D01*
X109883000Y-70707250D01*
X110041750Y-70866000D01*
X112141000Y-70866000D01*
X112141000Y-68766750D01*
X112395000Y-68766750D01*
X112395000Y-70866000D01*
X114494250Y-70866000D01*
X114653000Y-70707250D01*
X114653000Y-69116690D01*
X114556327Y-68883301D01*
X114377698Y-68704673D01*
X114144309Y-68608000D01*
X112553750Y-68608000D01*
X112395000Y-68766750D01*
X112141000Y-68766750D01*
X111982250Y-68608000D01*
X110391691Y-68608000D01*
X110158302Y-68704673D01*
X109979673Y-68883301D01*
X109883000Y-69116690D01*
X107390000Y-69116690D01*
X107390000Y-57871273D01*
X107579106Y-58328943D01*
X108038637Y-58789278D01*
X108127800Y-58826302D01*
X108127800Y-64608522D01*
X108191604Y-64929288D01*
X108373303Y-65201219D01*
X108915781Y-65743697D01*
X109187713Y-65925396D01*
X109508478Y-65989200D01*
X124747806Y-65989200D01*
X130989019Y-72230413D01*
X130459072Y-72125000D01*
X130398928Y-72125000D01*
X129811509Y-72241845D01*
X129313519Y-72574591D01*
X129154499Y-72812582D01*
X128796576Y-72422034D01*
X128253742Y-72168954D01*
X128016000Y-72289003D01*
X128016000Y-73533000D01*
X128036000Y-73533000D01*
X128036000Y-73787000D01*
X128016000Y-73787000D01*
X128016000Y-73807000D01*
X127762000Y-73807000D01*
X127762000Y-73787000D01*
X127742000Y-73787000D01*
X127742000Y-73533000D01*
X127762000Y-73533000D01*
X127762000Y-72289003D01*
X127524258Y-72168954D01*
X126981424Y-72422034D01*
X126858156Y-72556538D01*
X126852162Y-72524683D01*
X126713090Y-72308559D01*
X126500890Y-72163569D01*
X126249000Y-72112560D01*
X124449000Y-72112560D01*
X124213683Y-72156838D01*
X123997559Y-72295910D01*
X123852569Y-72508110D01*
X123801560Y-72760000D01*
X123801560Y-74560000D01*
X123845838Y-74795317D01*
X123908343Y-74892452D01*
X123598546Y-74907222D01*
X123197995Y-75073136D01*
X123123861Y-75319255D01*
X123952000Y-76147395D01*
X124780139Y-75319255D01*
X124746459Y-75207440D01*
X125542346Y-75207440D01*
X125236176Y-75513077D01*
X125208577Y-75579544D01*
X125205864Y-75572995D01*
X124959745Y-75498861D01*
X124131605Y-76327000D01*
X124959745Y-77155139D01*
X125205864Y-77081005D01*
X125208196Y-77074517D01*
X125234757Y-77138800D01*
X125638077Y-77542824D01*
X126165309Y-77761750D01*
X126736187Y-77762248D01*
X127263800Y-77544243D01*
X127571683Y-77236897D01*
X127877077Y-77542824D01*
X128404309Y-77761750D01*
X128975187Y-77762248D01*
X129502800Y-77544243D01*
X129712663Y-77334745D01*
X130362861Y-77334745D01*
X130436995Y-77580864D01*
X130974223Y-77773965D01*
X131544454Y-77746778D01*
X131945005Y-77580864D01*
X132019139Y-77334745D01*
X131191000Y-76506605D01*
X130362861Y-77334745D01*
X129712663Y-77334745D01*
X129906824Y-77140923D01*
X129934423Y-77074456D01*
X129937136Y-77081005D01*
X130183255Y-77155139D01*
X131011395Y-76327000D01*
X131370605Y-76327000D01*
X132198745Y-77155139D01*
X132444864Y-77081005D01*
X132637965Y-76543777D01*
X132610778Y-75973546D01*
X132444864Y-75572995D01*
X132198745Y-75498861D01*
X131370605Y-76327000D01*
X131011395Y-76327000D01*
X130183255Y-75498861D01*
X129937136Y-75572995D01*
X129934804Y-75579483D01*
X129908243Y-75515200D01*
X129504923Y-75111176D01*
X128977691Y-74892250D01*
X128801955Y-74892097D01*
X129154499Y-74507418D01*
X129313519Y-74745409D01*
X129811509Y-75078155D01*
X130398928Y-75195000D01*
X130400288Y-75195000D01*
X130362861Y-75319255D01*
X131191000Y-76147395D01*
X132019139Y-75319255D01*
X131945005Y-75073136D01*
X131407777Y-74880035D01*
X131338021Y-74883361D01*
X131544481Y-74745409D01*
X131877227Y-74247419D01*
X131994072Y-73660000D01*
X131888659Y-73130053D01*
X133265303Y-74506697D01*
X133537235Y-74688396D01*
X133858000Y-74752200D01*
X138717806Y-74752200D01*
X138861800Y-74896194D01*
X138861800Y-75741297D01*
X138649946Y-75882853D01*
X138430000Y-76212026D01*
X138210054Y-75882853D01*
X137728285Y-75560946D01*
X137160000Y-75447907D01*
X136591715Y-75560946D01*
X136109946Y-75882853D01*
X135890000Y-76212026D01*
X135670054Y-75882853D01*
X135188285Y-75560946D01*
X134620000Y-75447907D01*
X134051715Y-75560946D01*
X133569946Y-75882853D01*
X133248039Y-76364622D01*
X133135000Y-76932907D01*
X133135000Y-76991093D01*
X133248039Y-77559378D01*
X133569946Y-78041147D01*
X134051715Y-78363054D01*
X134620000Y-78476093D01*
X135188285Y-78363054D01*
X135670054Y-78041147D01*
X135890000Y-77711974D01*
X136109946Y-78041147D01*
X136591715Y-78363054D01*
X137160000Y-78476093D01*
X137728285Y-78363054D01*
X138210054Y-78041147D01*
X138430000Y-77711974D01*
X138649946Y-78041147D01*
X139131715Y-78363054D01*
X139700000Y-78476093D01*
X140268285Y-78363054D01*
X140750054Y-78041147D01*
X140970000Y-77711974D01*
X141189946Y-78041147D01*
X141671715Y-78363054D01*
X142240000Y-78476093D01*
X142808285Y-78363054D01*
X143290054Y-78041147D01*
X143510000Y-77711974D01*
X143729946Y-78041147D01*
X144211715Y-78363054D01*
X144780000Y-78476093D01*
X145348285Y-78363054D01*
X145830054Y-78041147D01*
X146057702Y-77700447D01*
X146124817Y-77843358D01*
X146553076Y-78233645D01*
X146963110Y-78403476D01*
X147193000Y-78282155D01*
X147193000Y-77089000D01*
X147447000Y-77089000D01*
X147447000Y-78282155D01*
X147676890Y-78403476D01*
X148086924Y-78233645D01*
X148515183Y-77843358D01*
X148590000Y-77684046D01*
X148664817Y-77843358D01*
X149093076Y-78233645D01*
X149503110Y-78403476D01*
X149733000Y-78282155D01*
X149733000Y-77089000D01*
X147447000Y-77089000D01*
X147193000Y-77089000D01*
X147173000Y-77089000D01*
X147173000Y-76835000D01*
X147193000Y-76835000D01*
X147193000Y-75641845D01*
X147447000Y-75641845D01*
X147447000Y-76835000D01*
X149733000Y-76835000D01*
X149733000Y-75641845D01*
X149987000Y-75641845D01*
X149987000Y-76835000D01*
X150007000Y-76835000D01*
X150007000Y-77089000D01*
X149987000Y-77089000D01*
X149987000Y-78282155D01*
X150216890Y-78403476D01*
X150626924Y-78233645D01*
X150929937Y-77957499D01*
X150946838Y-78047317D01*
X151085910Y-78263441D01*
X151298110Y-78408431D01*
X151550000Y-78459440D01*
X153250000Y-78459440D01*
X153485317Y-78415162D01*
X153701441Y-78276090D01*
X153846431Y-78063890D01*
X153897440Y-77812000D01*
X153897440Y-76112000D01*
X153853162Y-75876683D01*
X153714090Y-75660559D01*
X153501890Y-75515569D01*
X153250000Y-75464560D01*
X151550000Y-75464560D01*
X151314683Y-75508838D01*
X151098559Y-75647910D01*
X150953569Y-75860110D01*
X150931699Y-75968107D01*
X150626924Y-75690355D01*
X150216890Y-75520524D01*
X149987000Y-75641845D01*
X149733000Y-75641845D01*
X149503110Y-75520524D01*
X149093076Y-75690355D01*
X148664817Y-76080642D01*
X148590000Y-76239954D01*
X148515183Y-76080642D01*
X148086924Y-75690355D01*
X147676890Y-75520524D01*
X147447000Y-75641845D01*
X147193000Y-75641845D01*
X146963110Y-75520524D01*
X146553076Y-75690355D01*
X146124817Y-76080642D01*
X146057702Y-76223553D01*
X145830054Y-75882853D01*
X145348285Y-75560946D01*
X144780000Y-75447907D01*
X144211715Y-75560946D01*
X143729946Y-75882853D01*
X143510000Y-76212026D01*
X143290054Y-75882853D01*
X143078200Y-75741297D01*
X143078200Y-73914000D01*
X143014396Y-73593235D01*
X142832697Y-73321303D01*
X142739594Y-73228200D01*
X165895806Y-73228200D01*
X166801800Y-74134194D01*
X166801800Y-75741297D01*
X166589946Y-75882853D01*
X166370000Y-76212026D01*
X166150054Y-75882853D01*
X165668285Y-75560946D01*
X165100000Y-75447907D01*
X164531715Y-75560946D01*
X164049946Y-75882853D01*
X163830000Y-76212026D01*
X163610054Y-75882853D01*
X163128285Y-75560946D01*
X162560000Y-75447907D01*
X161991715Y-75560946D01*
X161509946Y-75882853D01*
X161290000Y-76212026D01*
X161070054Y-75882853D01*
X160588285Y-75560946D01*
X160020000Y-75447907D01*
X159451715Y-75560946D01*
X158969946Y-75882853D01*
X158750000Y-76212026D01*
X158530054Y-75882853D01*
X158048285Y-75560946D01*
X157480000Y-75447907D01*
X156911715Y-75560946D01*
X156429946Y-75882853D01*
X156108039Y-76364622D01*
X155995000Y-76932907D01*
X155995000Y-76991093D01*
X156108039Y-77559378D01*
X156429946Y-78041147D01*
X156911715Y-78363054D01*
X157480000Y-78476093D01*
X158048285Y-78363054D01*
X158530054Y-78041147D01*
X158750000Y-77711974D01*
X158969946Y-78041147D01*
X159451715Y-78363054D01*
X160020000Y-78476093D01*
X160588285Y-78363054D01*
X161070054Y-78041147D01*
X161290000Y-77711974D01*
X161509946Y-78041147D01*
X161991715Y-78363054D01*
X162560000Y-78476093D01*
X163128285Y-78363054D01*
X163610054Y-78041147D01*
X163830000Y-77711974D01*
X164049946Y-78041147D01*
X164531715Y-78363054D01*
X165100000Y-78476093D01*
X165668285Y-78363054D01*
X166150054Y-78041147D01*
X166370000Y-77711974D01*
X166589946Y-78041147D01*
X167071715Y-78363054D01*
X167640000Y-78476093D01*
X168208285Y-78363054D01*
X168690054Y-78041147D01*
X168717850Y-77999548D01*
X168726838Y-78047317D01*
X168865910Y-78263441D01*
X169078110Y-78408431D01*
X169330000Y-78459440D01*
X171030000Y-78459440D01*
X171265317Y-78415162D01*
X171481441Y-78276090D01*
X171626431Y-78063890D01*
X171677440Y-77812000D01*
X171677440Y-76112000D01*
X171633162Y-75876683D01*
X171494090Y-75660559D01*
X171281890Y-75515569D01*
X171030000Y-75464560D01*
X171018200Y-75464560D01*
X171018200Y-73660000D01*
X170954396Y-73339235D01*
X170954396Y-73339234D01*
X170772697Y-73067303D01*
X168740697Y-71035303D01*
X168468766Y-70853604D01*
X168148000Y-70789800D01*
X149270594Y-70789800D01*
X152445014Y-67615380D01*
X152654000Y-67656950D01*
X153203151Y-67547717D01*
X153668698Y-67236648D01*
X153921507Y-66858293D01*
X154269104Y-67290500D01*
X154762181Y-67560367D01*
X154844961Y-67577904D01*
X155067000Y-67455915D01*
X155067000Y-65913000D01*
X155047000Y-65913000D01*
X155047000Y-65659000D01*
X155067000Y-65659000D01*
X155067000Y-64116085D01*
X155321000Y-64116085D01*
X155321000Y-65659000D01*
X155341000Y-65659000D01*
X155341000Y-65913000D01*
X155321000Y-65913000D01*
X155321000Y-67455915D01*
X155543039Y-67577904D01*
X155625819Y-67560367D01*
X156118896Y-67290500D01*
X156466493Y-66858293D01*
X156719302Y-67236648D01*
X157184849Y-67547717D01*
X157734000Y-67656950D01*
X158283151Y-67547717D01*
X158748698Y-67236648D01*
X159004000Y-66854562D01*
X159259302Y-67236648D01*
X159724849Y-67547717D01*
X160274000Y-67656950D01*
X160823151Y-67547717D01*
X161288698Y-67236648D01*
X161544000Y-66854562D01*
X161799302Y-67236648D01*
X162264849Y-67547717D01*
X162814000Y-67656950D01*
X163363151Y-67547717D01*
X163828698Y-67236648D01*
X164084000Y-66854562D01*
X164339302Y-67236648D01*
X164804849Y-67547717D01*
X165354000Y-67656950D01*
X165903151Y-67547717D01*
X166368698Y-67236648D01*
X166624000Y-66854562D01*
X166879302Y-67236648D01*
X167344849Y-67547717D01*
X167894000Y-67656950D01*
X168443151Y-67547717D01*
X168908698Y-67236648D01*
X169164000Y-66854562D01*
X169419302Y-67236648D01*
X169884849Y-67547717D01*
X170434000Y-67656950D01*
X170983151Y-67547717D01*
X171448698Y-67236648D01*
X171759767Y-66771101D01*
X171869000Y-66221950D01*
X171869000Y-65350050D01*
X171759767Y-64800899D01*
X171448698Y-64335352D01*
X170983151Y-64024283D01*
X170434000Y-63915050D01*
X169884849Y-64024283D01*
X169419302Y-64335352D01*
X169164000Y-64717438D01*
X168908698Y-64335352D01*
X168443151Y-64024283D01*
X167894000Y-63915050D01*
X167344849Y-64024283D01*
X166879302Y-64335352D01*
X166624000Y-64717438D01*
X166368698Y-64335352D01*
X165903151Y-64024283D01*
X165354000Y-63915050D01*
X164804849Y-64024283D01*
X164339302Y-64335352D01*
X164084000Y-64717438D01*
X163828698Y-64335352D01*
X163363151Y-64024283D01*
X162814000Y-63915050D01*
X162264849Y-64024283D01*
X161799302Y-64335352D01*
X161544000Y-64717438D01*
X161288698Y-64335352D01*
X160823151Y-64024283D01*
X160274000Y-63915050D01*
X159724849Y-64024283D01*
X159259302Y-64335352D01*
X159004000Y-64717438D01*
X158748698Y-64335352D01*
X158283151Y-64024283D01*
X157734000Y-63915050D01*
X157184849Y-64024283D01*
X156719302Y-64335352D01*
X156466493Y-64713707D01*
X156118896Y-64281500D01*
X155625819Y-64011633D01*
X155543039Y-63994096D01*
X155321000Y-64116085D01*
X155067000Y-64116085D01*
X154844961Y-63994096D01*
X154762181Y-64011633D01*
X154269104Y-64281500D01*
X153921507Y-64713707D01*
X153668698Y-64335352D01*
X153203151Y-64024283D01*
X152654000Y-63915050D01*
X152104849Y-64024283D01*
X151639302Y-64335352D01*
X151384000Y-64717438D01*
X151128698Y-64335352D01*
X150663151Y-64024283D01*
X150114000Y-63915050D01*
X149564849Y-64024283D01*
X149099302Y-64335352D01*
X148844000Y-64717438D01*
X148588698Y-64335352D01*
X148123151Y-64024283D01*
X147574000Y-63915050D01*
X147024849Y-64024283D01*
X146559302Y-64335352D01*
X146304000Y-64717438D01*
X146048698Y-64335352D01*
X145872200Y-64217420D01*
X145872200Y-63466194D01*
X146524194Y-62814200D01*
X171196000Y-62814200D01*
X171516766Y-62750396D01*
X171788697Y-62568697D01*
X173312697Y-61044697D01*
X173494396Y-60772765D01*
X173558200Y-60452000D01*
X173558200Y-57116194D01*
X174550000Y-56124394D01*
X174550000Y-70676958D01*
G36*
X120086323Y-27376323D02*
X119602053Y-28101085D01*
X119432000Y-28956000D01*
X119602053Y-29810915D01*
X120086323Y-30535677D01*
X120811085Y-31019947D01*
X121666000Y-31190000D01*
X122390822Y-31045824D01*
X122351800Y-31242000D01*
X122351800Y-56261000D01*
X122415604Y-56581766D01*
X122597303Y-56853697D01*
X129209800Y-63466194D01*
X129209800Y-66937406D01*
X124163697Y-61891303D01*
X123891766Y-61709604D01*
X123571000Y-61645800D01*
X120679063Y-61645800D01*
X120815317Y-61620162D01*
X121031441Y-61481090D01*
X121176431Y-61268890D01*
X121227440Y-61017000D01*
X121227440Y-58617000D01*
X121183162Y-58381683D01*
X121044090Y-58165559D01*
X120831890Y-58020569D01*
X120580000Y-57969560D01*
X118180000Y-57969560D01*
X117944683Y-58013838D01*
X117728559Y-58152910D01*
X117583569Y-58365110D01*
X117532560Y-58617000D01*
X117532560Y-61017000D01*
X117576838Y-61252317D01*
X117715910Y-61468441D01*
X117928110Y-61613431D01*
X118180000Y-61664440D01*
X119667290Y-61664440D01*
X119440234Y-61709604D01*
X119168303Y-61891303D01*
X118740389Y-62319217D01*
X118206813Y-62318752D01*
X117679200Y-62536757D01*
X117299495Y-62915800D01*
X116577371Y-62915800D01*
X116234236Y-62572066D01*
X115721700Y-62359242D01*
X115166735Y-62358758D01*
X114653828Y-62570687D01*
X114261066Y-62962764D01*
X114179609Y-63158934D01*
X114123742Y-63024059D01*
X113881764Y-62954841D01*
X113082605Y-63754000D01*
X113096748Y-63768143D01*
X112917143Y-63947748D01*
X112903000Y-63933605D01*
X112888858Y-63947748D01*
X112709253Y-63768143D01*
X112723395Y-63754000D01*
X111924236Y-62954841D01*
X111770440Y-62998834D01*
X111770440Y-62994000D01*
X111729277Y-62775236D01*
X112103841Y-62775236D01*
X112903000Y-63574395D01*
X113702159Y-62775236D01*
X113632941Y-62533258D01*
X113110220Y-62346845D01*
X112555951Y-62374659D01*
X112173059Y-62533258D01*
X112103841Y-62775236D01*
X111729277Y-62775236D01*
X111726162Y-62758683D01*
X111587090Y-62542559D01*
X111374890Y-62397569D01*
X111123000Y-62346560D01*
X109804200Y-62346560D01*
X109804200Y-58826736D01*
X109890943Y-58790894D01*
X110125715Y-58556532D01*
X112493073Y-58556532D01*
X112591736Y-58823387D01*
X113201461Y-59049908D01*
X113851460Y-59025856D01*
X114340264Y-58823387D01*
X114438927Y-58556532D01*
X113466000Y-57583605D01*
X112493073Y-58556532D01*
X110125715Y-58556532D01*
X110351278Y-58331363D01*
X110600716Y-57730648D01*
X110601232Y-57139461D01*
X111820092Y-57139461D01*
X111844144Y-57789460D01*
X112046613Y-58278264D01*
X112313468Y-58376927D01*
X113286395Y-57404000D01*
X113645605Y-57404000D01*
X114618532Y-58376927D01*
X114885387Y-58278264D01*
X115111908Y-57668539D01*
X115087856Y-57018540D01*
X114885387Y-56529736D01*
X114618532Y-56431073D01*
X113645605Y-57404000D01*
X113286395Y-57404000D01*
X112313468Y-56431073D01*
X112046613Y-56529736D01*
X111820092Y-57139461D01*
X110601232Y-57139461D01*
X110601284Y-57080205D01*
X110352894Y-56479057D01*
X110125703Y-56251468D01*
X112493073Y-56251468D01*
X113466000Y-57224395D01*
X114438927Y-56251468D01*
X114340264Y-55984613D01*
X113730539Y-55758092D01*
X113080540Y-55782144D01*
X112591736Y-55984613D01*
X112493073Y-56251468D01*
X110125703Y-56251468D01*
X109893363Y-56018722D01*
X109804200Y-55981698D01*
X109804200Y-52326736D01*
X109890943Y-52290894D01*
X110125715Y-52056532D01*
X112493073Y-52056532D01*
X112591736Y-52323387D01*
X113201461Y-52549908D01*
X113851460Y-52525856D01*
X114340264Y-52323387D01*
X114438927Y-52056532D01*
X113466000Y-51083605D01*
X112493073Y-52056532D01*
X110125715Y-52056532D01*
X110351278Y-51831363D01*
X110600716Y-51230648D01*
X110601232Y-50639461D01*
X111820092Y-50639461D01*
X111844144Y-51289460D01*
X112046613Y-51778264D01*
X112313468Y-51876927D01*
X113286395Y-50904000D01*
X113645605Y-50904000D01*
X114618532Y-51876927D01*
X114885387Y-51778264D01*
X115111908Y-51168539D01*
X115087856Y-50518540D01*
X114885387Y-50029736D01*
X114618532Y-49931073D01*
X113645605Y-50904000D01*
X113286395Y-50904000D01*
X112313468Y-49931073D01*
X112046613Y-50029736D01*
X111820092Y-50639461D01*
X110601232Y-50639461D01*
X110601284Y-50580205D01*
X110352894Y-49979057D01*
X110125703Y-49751468D01*
X112493073Y-49751468D01*
X113466000Y-50724395D01*
X114438927Y-49751468D01*
X114390709Y-49621050D01*
X117545000Y-49621050D01*
X117545000Y-49692950D01*
X117684681Y-50395174D01*
X118082459Y-50990491D01*
X118677776Y-51388269D01*
X119380000Y-51527950D01*
X120082224Y-51388269D01*
X120677541Y-50990491D01*
X121075319Y-50395174D01*
X121215000Y-49692950D01*
X121215000Y-49621050D01*
X121075319Y-48918826D01*
X120677541Y-48323509D01*
X120082224Y-47925731D01*
X119380000Y-47786050D01*
X118677776Y-47925731D01*
X118082459Y-48323509D01*
X117684681Y-48918826D01*
X117545000Y-49621050D01*
X114390709Y-49621050D01*
X114340264Y-49484613D01*
X113730539Y-49258092D01*
X113080540Y-49282144D01*
X112591736Y-49484613D01*
X112493073Y-49751468D01*
X110125703Y-49751468D01*
X109893363Y-49518722D01*
X109292648Y-49269284D01*
X108642205Y-49268716D01*
X108041057Y-49517106D01*
X107580722Y-49976637D01*
X107390000Y-50435948D01*
X107390000Y-47606833D01*
X112062887Y-47606833D01*
X112126916Y-47847696D01*
X112548524Y-48567870D01*
X113213638Y-49071882D01*
X114021000Y-49283000D01*
X114521000Y-49283000D01*
X114521000Y-47275000D01*
X114775000Y-47275000D01*
X114775000Y-49283000D01*
X115275000Y-49283000D01*
X116082362Y-49071882D01*
X116747476Y-48567870D01*
X117169084Y-47847696D01*
X117233113Y-47606833D01*
X117120165Y-47275000D01*
X114775000Y-47275000D01*
X114521000Y-47275000D01*
X112175835Y-47275000D01*
X112062887Y-47606833D01*
X107390000Y-47606833D01*
X107390000Y-46689167D01*
X112062887Y-46689167D01*
X112175835Y-47021000D01*
X114521000Y-47021000D01*
X114521000Y-45013000D01*
X114775000Y-45013000D01*
X114775000Y-47021000D01*
X117120165Y-47021000D01*
X117233113Y-46689167D01*
X117169084Y-46448304D01*
X116747476Y-45728130D01*
X116082362Y-45224118D01*
X115275000Y-45013000D01*
X114775000Y-45013000D01*
X114521000Y-45013000D01*
X114021000Y-45013000D01*
X113213638Y-45224118D01*
X112548524Y-45728130D01*
X112126916Y-46448304D01*
X112062887Y-46689167D01*
X107390000Y-46689167D01*
X107390000Y-43396764D01*
X116548841Y-43396764D01*
X116618059Y-43638742D01*
X117140780Y-43825155D01*
X117695049Y-43797341D01*
X118077941Y-43638742D01*
X118147159Y-43396764D01*
X117348000Y-42597605D01*
X116548841Y-43396764D01*
X107390000Y-43396764D01*
X107390000Y-42210780D01*
X115940845Y-42210780D01*
X115968659Y-42765049D01*
X116127258Y-43147941D01*
X116369236Y-43217159D01*
X117168395Y-42418000D01*
X116369236Y-41618841D01*
X116127258Y-41688059D01*
X115940845Y-42210780D01*
X107390000Y-42210780D01*
X107390000Y-40154265D01*
X115952758Y-40154265D01*
X116164687Y-40667172D01*
X116556764Y-41059934D01*
X116752934Y-41141391D01*
X116618059Y-41197258D01*
X116548841Y-41439236D01*
X117348000Y-42238395D01*
X118147159Y-41439236D01*
X118077941Y-41197258D01*
X117933138Y-41145618D01*
X118137172Y-41061313D01*
X118348024Y-40850829D01*
X118556764Y-41059934D01*
X118768738Y-41147954D01*
X118558828Y-41234687D01*
X118166066Y-41626764D01*
X118057581Y-41888024D01*
X117527605Y-42418000D01*
X118057595Y-42947990D01*
X118164687Y-43207172D01*
X118556764Y-43599934D01*
X119069300Y-43812758D01*
X119624265Y-43813242D01*
X120137172Y-43601313D01*
X120529934Y-43209236D01*
X120742758Y-42696700D01*
X120743242Y-42141735D01*
X120531313Y-41628828D01*
X120139236Y-41236066D01*
X119927262Y-41148046D01*
X120137172Y-41061313D01*
X120529934Y-40669236D01*
X120742758Y-40156700D01*
X120743242Y-39601735D01*
X120531313Y-39088828D01*
X120139236Y-38696066D01*
X119626700Y-38483242D01*
X119071735Y-38482758D01*
X118558828Y-38694687D01*
X118347976Y-38905171D01*
X118139236Y-38696066D01*
X117626700Y-38483242D01*
X117071735Y-38482758D01*
X116558828Y-38694687D01*
X116166066Y-39086764D01*
X115953242Y-39599300D01*
X115952758Y-40154265D01*
X107390000Y-40154265D01*
X107390000Y-35606833D01*
X112062887Y-35606833D01*
X112126916Y-35847696D01*
X112548524Y-36567870D01*
X113213638Y-37071882D01*
X114021000Y-37283000D01*
X114521000Y-37283000D01*
X114521000Y-35275000D01*
X114775000Y-35275000D01*
X114775000Y-37283000D01*
X115275000Y-37283000D01*
X116082362Y-37071882D01*
X116747476Y-36567870D01*
X117169084Y-35847696D01*
X117233113Y-35606833D01*
X117120165Y-35275000D01*
X114775000Y-35275000D01*
X114521000Y-35275000D01*
X112175835Y-35275000D01*
X112062887Y-35606833D01*
X107390000Y-35606833D01*
X107390000Y-34689167D01*
X112062887Y-34689167D01*
X112175835Y-35021000D01*
X114521000Y-35021000D01*
X114521000Y-33013000D01*
X114775000Y-33013000D01*
X114775000Y-35021000D01*
X117120165Y-35021000D01*
X117233113Y-34689167D01*
X117169084Y-34448304D01*
X116747476Y-33728130D01*
X116082362Y-33224118D01*
X115275000Y-33013000D01*
X114775000Y-33013000D01*
X114521000Y-33013000D01*
X114021000Y-33013000D01*
X113213638Y-33224118D01*
X112548524Y-33728130D01*
X112126916Y-34448304D01*
X112062887Y-34689167D01*
X107390000Y-34689167D01*
X107390000Y-29812500D01*
X114553572Y-29812500D01*
X114553572Y-27126000D01*
X120460958Y-27126000D01*
X120086323Y-27376323D01*
X120086323Y-27376323D01*
G37*
X120086323Y-27376323D02*
X119602053Y-28101085D01*
X119432000Y-28956000D01*
X119602053Y-29810915D01*
X120086323Y-30535677D01*
X120811085Y-31019947D01*
X121666000Y-31190000D01*
X122390822Y-31045824D01*
X122351800Y-31242000D01*
X122351800Y-56261000D01*
X122415604Y-56581766D01*
X122597303Y-56853697D01*
X129209800Y-63466194D01*
X129209800Y-66937406D01*
X124163697Y-61891303D01*
X123891766Y-61709604D01*
X123571000Y-61645800D01*
X120679063Y-61645800D01*
X120815317Y-61620162D01*
X121031441Y-61481090D01*
X121176431Y-61268890D01*
X121227440Y-61017000D01*
X121227440Y-58617000D01*
X121183162Y-58381683D01*
X121044090Y-58165559D01*
X120831890Y-58020569D01*
X120580000Y-57969560D01*
X118180000Y-57969560D01*
X117944683Y-58013838D01*
X117728559Y-58152910D01*
X117583569Y-58365110D01*
X117532560Y-58617000D01*
X117532560Y-61017000D01*
X117576838Y-61252317D01*
X117715910Y-61468441D01*
X117928110Y-61613431D01*
X118180000Y-61664440D01*
X119667290Y-61664440D01*
X119440234Y-61709604D01*
X119168303Y-61891303D01*
X118740389Y-62319217D01*
X118206813Y-62318752D01*
X117679200Y-62536757D01*
X117299495Y-62915800D01*
X116577371Y-62915800D01*
X116234236Y-62572066D01*
X115721700Y-62359242D01*
X115166735Y-62358758D01*
X114653828Y-62570687D01*
X114261066Y-62962764D01*
X114179609Y-63158934D01*
X114123742Y-63024059D01*
X113881764Y-62954841D01*
X113082605Y-63754000D01*
X113096748Y-63768143D01*
X112917143Y-63947748D01*
X112903000Y-63933605D01*
X112888858Y-63947748D01*
X112709253Y-63768143D01*
X112723395Y-63754000D01*
X111924236Y-62954841D01*
X111770440Y-62998834D01*
X111770440Y-62994000D01*
X111729277Y-62775236D01*
X112103841Y-62775236D01*
X112903000Y-63574395D01*
X113702159Y-62775236D01*
X113632941Y-62533258D01*
X113110220Y-62346845D01*
X112555951Y-62374659D01*
X112173059Y-62533258D01*
X112103841Y-62775236D01*
X111729277Y-62775236D01*
X111726162Y-62758683D01*
X111587090Y-62542559D01*
X111374890Y-62397569D01*
X111123000Y-62346560D01*
X109804200Y-62346560D01*
X109804200Y-58826736D01*
X109890943Y-58790894D01*
X110125715Y-58556532D01*
X112493073Y-58556532D01*
X112591736Y-58823387D01*
X113201461Y-59049908D01*
X113851460Y-59025856D01*
X114340264Y-58823387D01*
X114438927Y-58556532D01*
X113466000Y-57583605D01*
X112493073Y-58556532D01*
X110125715Y-58556532D01*
X110351278Y-58331363D01*
X110600716Y-57730648D01*
X110601232Y-57139461D01*
X111820092Y-57139461D01*
X111844144Y-57789460D01*
X112046613Y-58278264D01*
X112313468Y-58376927D01*
X113286395Y-57404000D01*
X113645605Y-57404000D01*
X114618532Y-58376927D01*
X114885387Y-58278264D01*
X115111908Y-57668539D01*
X115087856Y-57018540D01*
X114885387Y-56529736D01*
X114618532Y-56431073D01*
X113645605Y-57404000D01*
X113286395Y-57404000D01*
X112313468Y-56431073D01*
X112046613Y-56529736D01*
X111820092Y-57139461D01*
X110601232Y-57139461D01*
X110601284Y-57080205D01*
X110352894Y-56479057D01*
X110125703Y-56251468D01*
X112493073Y-56251468D01*
X113466000Y-57224395D01*
X114438927Y-56251468D01*
X114340264Y-55984613D01*
X113730539Y-55758092D01*
X113080540Y-55782144D01*
X112591736Y-55984613D01*
X112493073Y-56251468D01*
X110125703Y-56251468D01*
X109893363Y-56018722D01*
X109804200Y-55981698D01*
X109804200Y-52326736D01*
X109890943Y-52290894D01*
X110125715Y-52056532D01*
X112493073Y-52056532D01*
X112591736Y-52323387D01*
X113201461Y-52549908D01*
X113851460Y-52525856D01*
X114340264Y-52323387D01*
X114438927Y-52056532D01*
X113466000Y-51083605D01*
X112493073Y-52056532D01*
X110125715Y-52056532D01*
X110351278Y-51831363D01*
X110600716Y-51230648D01*
X110601232Y-50639461D01*
X111820092Y-50639461D01*
X111844144Y-51289460D01*
X112046613Y-51778264D01*
X112313468Y-51876927D01*
X113286395Y-50904000D01*
X113645605Y-50904000D01*
X114618532Y-51876927D01*
X114885387Y-51778264D01*
X115111908Y-51168539D01*
X115087856Y-50518540D01*
X114885387Y-50029736D01*
X114618532Y-49931073D01*
X113645605Y-50904000D01*
X113286395Y-50904000D01*
X112313468Y-49931073D01*
X112046613Y-50029736D01*
X111820092Y-50639461D01*
X110601232Y-50639461D01*
X110601284Y-50580205D01*
X110352894Y-49979057D01*
X110125703Y-49751468D01*
X112493073Y-49751468D01*
X113466000Y-50724395D01*
X114438927Y-49751468D01*
X114390709Y-49621050D01*
X117545000Y-49621050D01*
X117545000Y-49692950D01*
X117684681Y-50395174D01*
X118082459Y-50990491D01*
X118677776Y-51388269D01*
X119380000Y-51527950D01*
X120082224Y-51388269D01*
X120677541Y-50990491D01*
X121075319Y-50395174D01*
X121215000Y-49692950D01*
X121215000Y-49621050D01*
X121075319Y-48918826D01*
X120677541Y-48323509D01*
X120082224Y-47925731D01*
X119380000Y-47786050D01*
X118677776Y-47925731D01*
X118082459Y-48323509D01*
X117684681Y-48918826D01*
X117545000Y-49621050D01*
X114390709Y-49621050D01*
X114340264Y-49484613D01*
X113730539Y-49258092D01*
X113080540Y-49282144D01*
X112591736Y-49484613D01*
X112493073Y-49751468D01*
X110125703Y-49751468D01*
X109893363Y-49518722D01*
X109292648Y-49269284D01*
X108642205Y-49268716D01*
X108041057Y-49517106D01*
X107580722Y-49976637D01*
X107390000Y-50435948D01*
X107390000Y-47606833D01*
X112062887Y-47606833D01*
X112126916Y-47847696D01*
X112548524Y-48567870D01*
X113213638Y-49071882D01*
X114021000Y-49283000D01*
X114521000Y-49283000D01*
X114521000Y-47275000D01*
X114775000Y-47275000D01*
X114775000Y-49283000D01*
X115275000Y-49283000D01*
X116082362Y-49071882D01*
X116747476Y-48567870D01*
X117169084Y-47847696D01*
X117233113Y-47606833D01*
X117120165Y-47275000D01*
X114775000Y-47275000D01*
X114521000Y-47275000D01*
X112175835Y-47275000D01*
X112062887Y-47606833D01*
X107390000Y-47606833D01*
X107390000Y-46689167D01*
X112062887Y-46689167D01*
X112175835Y-47021000D01*
X114521000Y-47021000D01*
X114521000Y-45013000D01*
X114775000Y-45013000D01*
X114775000Y-47021000D01*
X117120165Y-47021000D01*
X117233113Y-46689167D01*
X117169084Y-46448304D01*
X116747476Y-45728130D01*
X116082362Y-45224118D01*
X115275000Y-45013000D01*
X114775000Y-45013000D01*
X114521000Y-45013000D01*
X114021000Y-45013000D01*
X113213638Y-45224118D01*
X112548524Y-45728130D01*
X112126916Y-46448304D01*
X112062887Y-46689167D01*
X107390000Y-46689167D01*
X107390000Y-43396764D01*
X116548841Y-43396764D01*
X116618059Y-43638742D01*
X117140780Y-43825155D01*
X117695049Y-43797341D01*
X118077941Y-43638742D01*
X118147159Y-43396764D01*
X117348000Y-42597605D01*
X116548841Y-43396764D01*
X107390000Y-43396764D01*
X107390000Y-42210780D01*
X115940845Y-42210780D01*
X115968659Y-42765049D01*
X116127258Y-43147941D01*
X116369236Y-43217159D01*
X117168395Y-42418000D01*
X116369236Y-41618841D01*
X116127258Y-41688059D01*
X115940845Y-42210780D01*
X107390000Y-42210780D01*
X107390000Y-40154265D01*
X115952758Y-40154265D01*
X116164687Y-40667172D01*
X116556764Y-41059934D01*
X116752934Y-41141391D01*
X116618059Y-41197258D01*
X116548841Y-41439236D01*
X117348000Y-42238395D01*
X118147159Y-41439236D01*
X118077941Y-41197258D01*
X117933138Y-41145618D01*
X118137172Y-41061313D01*
X118348024Y-40850829D01*
X118556764Y-41059934D01*
X118768738Y-41147954D01*
X118558828Y-41234687D01*
X118166066Y-41626764D01*
X118057581Y-41888024D01*
X117527605Y-42418000D01*
X118057595Y-42947990D01*
X118164687Y-43207172D01*
X118556764Y-43599934D01*
X119069300Y-43812758D01*
X119624265Y-43813242D01*
X120137172Y-43601313D01*
X120529934Y-43209236D01*
X120742758Y-42696700D01*
X120743242Y-42141735D01*
X120531313Y-41628828D01*
X120139236Y-41236066D01*
X119927262Y-41148046D01*
X120137172Y-41061313D01*
X120529934Y-40669236D01*
X120742758Y-40156700D01*
X120743242Y-39601735D01*
X120531313Y-39088828D01*
X120139236Y-38696066D01*
X119626700Y-38483242D01*
X119071735Y-38482758D01*
X118558828Y-38694687D01*
X118347976Y-38905171D01*
X118139236Y-38696066D01*
X117626700Y-38483242D01*
X117071735Y-38482758D01*
X116558828Y-38694687D01*
X116166066Y-39086764D01*
X115953242Y-39599300D01*
X115952758Y-40154265D01*
X107390000Y-40154265D01*
X107390000Y-35606833D01*
X112062887Y-35606833D01*
X112126916Y-35847696D01*
X112548524Y-36567870D01*
X113213638Y-37071882D01*
X114021000Y-37283000D01*
X114521000Y-37283000D01*
X114521000Y-35275000D01*
X114775000Y-35275000D01*
X114775000Y-37283000D01*
X115275000Y-37283000D01*
X116082362Y-37071882D01*
X116747476Y-36567870D01*
X117169084Y-35847696D01*
X117233113Y-35606833D01*
X117120165Y-35275000D01*
X114775000Y-35275000D01*
X114521000Y-35275000D01*
X112175835Y-35275000D01*
X112062887Y-35606833D01*
X107390000Y-35606833D01*
X107390000Y-34689167D01*
X112062887Y-34689167D01*
X112175835Y-35021000D01*
X114521000Y-35021000D01*
X114521000Y-33013000D01*
X114775000Y-33013000D01*
X114775000Y-35021000D01*
X117120165Y-35021000D01*
X117233113Y-34689167D01*
X117169084Y-34448304D01*
X116747476Y-33728130D01*
X116082362Y-33224118D01*
X115275000Y-33013000D01*
X114775000Y-33013000D01*
X114521000Y-33013000D01*
X114021000Y-33013000D01*
X113213638Y-33224118D01*
X112548524Y-33728130D01*
X112126916Y-34448304D01*
X112062887Y-34689167D01*
X107390000Y-34689167D01*
X107390000Y-29812500D01*
X114553572Y-29812500D01*
X114553572Y-27126000D01*
X120460958Y-27126000D01*
X120086323Y-27376323D01*
G36*
X172010000Y-39370000D02*
X172030861Y-39474875D01*
X172042141Y-39581202D01*
X172057697Y-39609786D01*
X172064046Y-39641705D01*
X172123451Y-39730612D01*
X172174563Y-39824531D01*
X173713095Y-41670769D01*
X173672116Y-41643388D01*
X172720000Y-41454000D01*
X171767884Y-41643388D01*
X170960718Y-42182718D01*
X170421388Y-42989884D01*
X170232000Y-43942000D01*
X170421388Y-44894116D01*
X170958225Y-45697551D01*
X170688000Y-45643800D01*
X168322889Y-45643800D01*
X167945923Y-45266176D01*
X167418691Y-45047250D01*
X166847813Y-45046752D01*
X166320200Y-45264757D01*
X165916176Y-45668077D01*
X165697250Y-46195309D01*
X165696782Y-46731824D01*
X158910806Y-53517800D01*
X158416889Y-53517800D01*
X158039923Y-53140176D01*
X157973456Y-53112577D01*
X157980005Y-53109864D01*
X158054139Y-52863745D01*
X157226000Y-52035605D01*
X156397861Y-52863745D01*
X156471995Y-53109864D01*
X156478483Y-53112196D01*
X156414200Y-53138757D01*
X156010176Y-53542077D01*
X155791250Y-54069309D01*
X155790752Y-54640187D01*
X156008757Y-55167800D01*
X156009755Y-55168800D01*
X155795194Y-55168800D01*
X154762200Y-54135806D01*
X154762200Y-51639223D01*
X155779035Y-51639223D01*
X155806222Y-52209454D01*
X155972136Y-52610005D01*
X156218255Y-52684139D01*
X157046395Y-51856000D01*
X157405605Y-51856000D01*
X158233745Y-52684139D01*
X158479864Y-52610005D01*
X158672965Y-52072777D01*
X158645778Y-51502546D01*
X158479864Y-51101995D01*
X158233745Y-51027861D01*
X157405605Y-51856000D01*
X157046395Y-51856000D01*
X156218255Y-51027861D01*
X155972136Y-51101995D01*
X155779035Y-51639223D01*
X154762200Y-51639223D01*
X154762200Y-50848255D01*
X156397861Y-50848255D01*
X157226000Y-51676395D01*
X158054139Y-50848255D01*
X157980005Y-50602136D01*
X157442777Y-50409035D01*
X156872546Y-50436222D01*
X156471995Y-50602136D01*
X156397861Y-50848255D01*
X154762200Y-50848255D01*
X154762200Y-43053000D01*
X154751872Y-43001077D01*
X154698396Y-42732234D01*
X154516697Y-42460303D01*
X154379889Y-42323495D01*
X154633330Y-42428733D01*
X155243991Y-42429265D01*
X155808371Y-42196068D01*
X155985841Y-42018908D01*
X156041673Y-42153699D01*
X156220302Y-42332327D01*
X156453691Y-42429000D01*
X157194250Y-42429000D01*
X157353000Y-42270250D01*
X157353000Y-41021000D01*
X157607000Y-41021000D01*
X157607000Y-42270250D01*
X157765750Y-42429000D01*
X158506309Y-42429000D01*
X158739698Y-42332327D01*
X158918327Y-42153699D01*
X159015000Y-41920310D01*
X159015000Y-41179750D01*
X158856250Y-41021000D01*
X157607000Y-41021000D01*
X157353000Y-41021000D01*
X157333000Y-41021000D01*
X157333000Y-40767000D01*
X157353000Y-40767000D01*
X157353000Y-39517750D01*
X157607000Y-39517750D01*
X157607000Y-40767000D01*
X158856250Y-40767000D01*
X159015000Y-40608250D01*
X159015000Y-39867690D01*
X158918327Y-39634301D01*
X158739698Y-39455673D01*
X158506309Y-39359000D01*
X157765750Y-39359000D01*
X157607000Y-39517750D01*
X157353000Y-39517750D01*
X157194250Y-39359000D01*
X156453691Y-39359000D01*
X156220302Y-39455673D01*
X156041673Y-39634301D01*
X155985881Y-39768994D01*
X155810643Y-39593449D01*
X155246670Y-39359267D01*
X154636009Y-39358735D01*
X154603543Y-39372149D01*
X153881697Y-38650303D01*
X153609766Y-38468604D01*
X153289000Y-38404800D01*
X150568290Y-38404800D01*
X150786750Y-37878691D01*
X150787248Y-37307813D01*
X150569243Y-36780200D01*
X150175262Y-36385531D01*
X150129854Y-36157250D01*
X150126396Y-36139864D01*
X149944697Y-35867933D01*
X149753528Y-35676764D01*
X150163800Y-35507243D01*
X150543505Y-35128200D01*
X166102400Y-35128200D01*
X166423166Y-35064396D01*
X166695097Y-34882697D01*
X170772697Y-30805097D01*
X170954396Y-30533166D01*
X170970254Y-30453440D01*
X171030000Y-30453440D01*
X171265317Y-30409162D01*
X171481441Y-30270090D01*
X171626431Y-30057890D01*
X171677440Y-29806000D01*
X171677440Y-28106000D01*
X171633162Y-27870683D01*
X171494090Y-27654559D01*
X171281890Y-27509569D01*
X171030000Y-27458560D01*
X169330000Y-27458560D01*
X169094683Y-27502838D01*
X168878559Y-27641910D01*
X168733569Y-27854110D01*
X168719914Y-27921541D01*
X168690054Y-27876853D01*
X168208285Y-27554946D01*
X167640000Y-27441907D01*
X167071715Y-27554946D01*
X166589946Y-27876853D01*
X166370000Y-28206026D01*
X166150054Y-27876853D01*
X165668285Y-27554946D01*
X165100000Y-27441907D01*
X164531715Y-27554946D01*
X164049946Y-27876853D01*
X163830000Y-28206026D01*
X163610054Y-27876853D01*
X163128285Y-27554946D01*
X162560000Y-27441907D01*
X161991715Y-27554946D01*
X161509946Y-27876853D01*
X161290000Y-28206026D01*
X161070054Y-27876853D01*
X160588285Y-27554946D01*
X160020000Y-27441907D01*
X159451715Y-27554946D01*
X158969946Y-27876853D01*
X158750000Y-28206026D01*
X158530054Y-27876853D01*
X158048285Y-27554946D01*
X157480000Y-27441907D01*
X156911715Y-27554946D01*
X156429946Y-27876853D01*
X156210000Y-28206026D01*
X155990054Y-27876853D01*
X155508285Y-27554946D01*
X154940000Y-27441907D01*
X154371715Y-27554946D01*
X153889946Y-27876853D01*
X153670000Y-28206026D01*
X153450054Y-27876853D01*
X152968285Y-27554946D01*
X152400000Y-27441907D01*
X151831715Y-27554946D01*
X151349946Y-27876853D01*
X151028039Y-28358622D01*
X150915000Y-28926907D01*
X150915000Y-28985093D01*
X151028039Y-29553378D01*
X151349946Y-30035147D01*
X151831715Y-30357054D01*
X152400000Y-30470093D01*
X152968285Y-30357054D01*
X153450054Y-30035147D01*
X153670000Y-29705974D01*
X153889946Y-30035147D01*
X154371715Y-30357054D01*
X154940000Y-30470093D01*
X155508285Y-30357054D01*
X155990054Y-30035147D01*
X156210000Y-29705974D01*
X156429946Y-30035147D01*
X156911715Y-30357054D01*
X157480000Y-30470093D01*
X158048285Y-30357054D01*
X158530054Y-30035147D01*
X158750000Y-29705974D01*
X158969946Y-30035147D01*
X159451715Y-30357054D01*
X160020000Y-30470093D01*
X160588285Y-30357054D01*
X161070054Y-30035147D01*
X161290000Y-29705974D01*
X161509946Y-30035147D01*
X161991715Y-30357054D01*
X162560000Y-30470093D01*
X163128285Y-30357054D01*
X163610054Y-30035147D01*
X163830000Y-29705974D01*
X164049946Y-30035147D01*
X164531715Y-30357054D01*
X165100000Y-30470093D01*
X165668285Y-30357054D01*
X166150054Y-30035147D01*
X166370000Y-29705974D01*
X166589946Y-30035147D01*
X166801800Y-30176703D01*
X166801800Y-31148806D01*
X165260806Y-32689800D01*
X151223194Y-32689800D01*
X150706697Y-32173303D01*
X150434766Y-31991604D01*
X150114000Y-31927800D01*
X148590000Y-31927800D01*
X148269235Y-31991604D01*
X148136642Y-32080200D01*
X147997303Y-32173303D01*
X147489303Y-32681303D01*
X147307604Y-32953234D01*
X147270590Y-33139315D01*
X147243800Y-33274000D01*
X147243800Y-35190630D01*
X147307604Y-35511396D01*
X147489303Y-35783327D01*
X148310266Y-36604290D01*
X148136176Y-36778077D01*
X147917250Y-37305309D01*
X147916752Y-37876187D01*
X148134757Y-38403800D01*
X148135755Y-38404800D01*
X143383000Y-38404800D01*
X143062235Y-38468604D01*
X142790303Y-38650303D01*
X141981389Y-39459217D01*
X141447813Y-39458752D01*
X140920200Y-39676757D01*
X140516176Y-40080077D01*
X140297250Y-40607309D01*
X140296752Y-41178187D01*
X140514757Y-41705800D01*
X140918077Y-42109824D01*
X141445309Y-42328750D01*
X142016187Y-42329248D01*
X142543800Y-42111243D01*
X142947824Y-41707923D01*
X143166750Y-41180691D01*
X143167218Y-40644176D01*
X143730194Y-40081200D01*
X148174285Y-40081200D01*
X147998120Y-40344849D01*
X147888887Y-40894000D01*
X147998120Y-41443151D01*
X148309189Y-41908698D01*
X148774736Y-42219767D01*
X149323887Y-42329000D01*
X149380113Y-42329000D01*
X149929264Y-42219767D01*
X150394811Y-41908698D01*
X150512743Y-41732200D01*
X151417806Y-41732200D01*
X153085800Y-43400194D01*
X153085800Y-54483000D01*
X153149604Y-54803766D01*
X153331303Y-55075697D01*
X154657394Y-56401788D01*
X154644849Y-56404283D01*
X154179302Y-56715352D01*
X153926493Y-57093707D01*
X153578896Y-56661500D01*
X153085819Y-56391633D01*
X153003039Y-56374096D01*
X152781000Y-56496085D01*
X152781000Y-58039000D01*
X152801000Y-58039000D01*
X152801000Y-58293000D01*
X152781000Y-58293000D01*
X152781000Y-59835915D01*
X153003039Y-59957904D01*
X153085819Y-59940367D01*
X153578896Y-59670500D01*
X153926493Y-59238293D01*
X154179302Y-59616648D01*
X154644849Y-59927717D01*
X155194000Y-60036950D01*
X155743151Y-59927717D01*
X156208698Y-59616648D01*
X156464000Y-59234562D01*
X156719302Y-59616648D01*
X157184849Y-59927717D01*
X157734000Y-60036950D01*
X158283151Y-59927717D01*
X158748698Y-59616648D01*
X159004000Y-59234562D01*
X159259302Y-59616648D01*
X159724849Y-59927717D01*
X160274000Y-60036950D01*
X160823151Y-59927717D01*
X161288698Y-59616648D01*
X161544000Y-59234562D01*
X161799302Y-59616648D01*
X162264849Y-59927717D01*
X162814000Y-60036950D01*
X163363151Y-59927717D01*
X163828698Y-59616648D01*
X164084000Y-59234562D01*
X164339302Y-59616648D01*
X164804849Y-59927717D01*
X165354000Y-60036950D01*
X165903151Y-59927717D01*
X166368698Y-59616648D01*
X166624000Y-59234562D01*
X166879302Y-59616648D01*
X167344849Y-59927717D01*
X167894000Y-60036950D01*
X168443151Y-59927717D01*
X168908698Y-59616648D01*
X169006251Y-59470650D01*
X169030838Y-59601317D01*
X169169910Y-59817441D01*
X169382110Y-59962431D01*
X169634000Y-60013440D01*
X170830166Y-60013440D01*
X170467806Y-60375800D01*
X145777000Y-60375800D01*
X145456234Y-60439604D01*
X145184303Y-60621303D01*
X141901303Y-63904303D01*
X141721351Y-64173620D01*
X141479302Y-64335352D01*
X141224000Y-64717438D01*
X140968698Y-64335352D01*
X140503151Y-64024283D01*
X139954000Y-63915050D01*
X139404849Y-64024283D01*
X138939302Y-64335352D01*
X138684000Y-64717438D01*
X138428698Y-64335352D01*
X137963151Y-64024283D01*
X137414000Y-63915050D01*
X136864849Y-64024283D01*
X136399302Y-64335352D01*
X136241665Y-64571271D01*
X136220200Y-64549806D01*
X136220200Y-59348603D01*
X136399302Y-59616648D01*
X136864849Y-59927717D01*
X137414000Y-60036950D01*
X137963151Y-59927717D01*
X138428698Y-59616648D01*
X138684000Y-59234562D01*
X138939302Y-59616648D01*
X139404849Y-59927717D01*
X139954000Y-60036950D01*
X140503151Y-59927717D01*
X140968698Y-59616648D01*
X141224000Y-59234562D01*
X141479302Y-59616648D01*
X141944849Y-59927717D01*
X142494000Y-60036950D01*
X143043151Y-59927717D01*
X143508698Y-59616648D01*
X143764000Y-59234562D01*
X144019302Y-59616648D01*
X144484849Y-59927717D01*
X145034000Y-60036950D01*
X145583151Y-59927717D01*
X146048698Y-59616648D01*
X146304000Y-59234562D01*
X146559302Y-59616648D01*
X147024849Y-59927717D01*
X147574000Y-60036950D01*
X148123151Y-59927717D01*
X148588698Y-59616648D01*
X148844000Y-59234562D01*
X149099302Y-59616648D01*
X149564849Y-59927717D01*
X150114000Y-60036950D01*
X150663151Y-59927717D01*
X151128698Y-59616648D01*
X151381507Y-59238293D01*
X151729104Y-59670500D01*
X152222181Y-59940367D01*
X152304961Y-59957904D01*
X152527000Y-59835915D01*
X152527000Y-58293000D01*
X152507000Y-58293000D01*
X152507000Y-58039000D01*
X152527000Y-58039000D01*
X152527000Y-56496085D01*
X152304961Y-56374096D01*
X152222181Y-56391633D01*
X151729104Y-56661500D01*
X151381507Y-57093707D01*
X151128698Y-56715352D01*
X150663151Y-56404283D01*
X150114000Y-56295050D01*
X149564849Y-56404283D01*
X149099302Y-56715352D01*
X148844000Y-57097438D01*
X148588698Y-56715352D01*
X148123151Y-56404283D01*
X147574000Y-56295050D01*
X147024849Y-56404283D01*
X146559302Y-56715352D01*
X146304000Y-57097438D01*
X146048698Y-56715352D01*
X145583151Y-56404283D01*
X145034000Y-56295050D01*
X144484849Y-56404283D01*
X144019302Y-56715352D01*
X143764000Y-57097438D01*
X143508698Y-56715352D01*
X143043151Y-56404283D01*
X142494000Y-56295050D01*
X141944849Y-56404283D01*
X141479302Y-56715352D01*
X141224000Y-57097438D01*
X140968698Y-56715352D01*
X140503151Y-56404283D01*
X139954000Y-56295050D01*
X139404849Y-56404283D01*
X138939302Y-56715352D01*
X138684000Y-57097438D01*
X138428698Y-56715352D01*
X137963151Y-56404283D01*
X137414000Y-56295050D01*
X136864849Y-56404283D01*
X136399302Y-56715352D01*
X136220200Y-56983397D01*
X136220200Y-53360285D01*
X145118760Y-53360285D01*
X145329169Y-53869515D01*
X145718436Y-54259461D01*
X146227298Y-54470759D01*
X146778285Y-54471240D01*
X147287515Y-54260831D01*
X147677461Y-53871564D01*
X147888759Y-53362702D01*
X147888761Y-53360285D01*
X149998760Y-53360285D01*
X150209169Y-53869515D01*
X150598436Y-54259461D01*
X151107298Y-54470759D01*
X151658285Y-54471240D01*
X152167515Y-54260831D01*
X152557461Y-53871564D01*
X152768759Y-53362702D01*
X152769240Y-52811715D01*
X152558831Y-52302485D01*
X152169564Y-51912539D01*
X151660702Y-51701241D01*
X151109715Y-51700760D01*
X150600485Y-51911169D01*
X150210539Y-52300436D01*
X149999241Y-52809298D01*
X149998760Y-53360285D01*
X147888761Y-53360285D01*
X147889240Y-52811715D01*
X147678831Y-52302485D01*
X147289564Y-51912539D01*
X146780702Y-51701241D01*
X146229715Y-51700760D01*
X145720485Y-51911169D01*
X145330539Y-52300436D01*
X145119241Y-52809298D01*
X145118760Y-53360285D01*
X136220200Y-53360285D01*
X136220200Y-51993440D01*
X138614000Y-51993440D01*
X138849317Y-51949162D01*
X139065441Y-51810090D01*
X139210431Y-51597890D01*
X139261440Y-51346000D01*
X139261440Y-49746000D01*
X139217162Y-49510683D01*
X139078090Y-49294559D01*
X138865890Y-49149569D01*
X138716926Y-49119403D01*
X138796569Y-49066187D01*
X145249752Y-49066187D01*
X145467757Y-49593800D01*
X145871077Y-49997824D01*
X146398309Y-50216750D01*
X146969187Y-50217248D01*
X147496800Y-49999243D01*
X147900824Y-49595923D01*
X148119750Y-49068691D01*
X148119799Y-49012187D01*
X149694752Y-49012187D01*
X149912757Y-49539800D01*
X150316077Y-49943824D01*
X150843309Y-50162750D01*
X151414187Y-50163248D01*
X151941800Y-49945243D01*
X152345824Y-49541923D01*
X152564750Y-49014691D01*
X152565248Y-48443813D01*
X152347243Y-47916200D01*
X151943923Y-47512176D01*
X151877456Y-47484577D01*
X151884005Y-47481864D01*
X151958139Y-47235745D01*
X151130000Y-46407605D01*
X150301861Y-47235745D01*
X150375995Y-47481864D01*
X150382483Y-47484196D01*
X150318200Y-47510757D01*
X149914176Y-47914077D01*
X149695250Y-48441309D01*
X149694752Y-49012187D01*
X148119799Y-49012187D01*
X148120248Y-48497813D01*
X147902243Y-47970200D01*
X147498923Y-47566176D01*
X147432456Y-47538577D01*
X147439005Y-47535864D01*
X147513139Y-47289745D01*
X146685000Y-46461605D01*
X145856861Y-47289745D01*
X145930995Y-47535864D01*
X145937483Y-47538196D01*
X145873200Y-47564757D01*
X145469176Y-47968077D01*
X145250250Y-48495309D01*
X145249752Y-49066187D01*
X138796569Y-49066187D01*
X138864648Y-49020698D01*
X139175717Y-48555151D01*
X139284950Y-48006000D01*
X139175717Y-47456849D01*
X139086112Y-47322745D01*
X140903861Y-47322745D01*
X140977995Y-47568864D01*
X141515223Y-47761965D01*
X142085454Y-47734778D01*
X142486005Y-47568864D01*
X142560139Y-47322745D01*
X141732000Y-46494605D01*
X140903861Y-47322745D01*
X139086112Y-47322745D01*
X138864648Y-46991302D01*
X138482562Y-46736000D01*
X138864648Y-46480698D01*
X139120209Y-46098223D01*
X140285035Y-46098223D01*
X140312222Y-46668454D01*
X140478136Y-47069005D01*
X140724255Y-47143139D01*
X141552395Y-46315000D01*
X141911605Y-46315000D01*
X142739745Y-47143139D01*
X142985864Y-47069005D01*
X143178965Y-46531777D01*
X143156722Y-46065223D01*
X145238035Y-46065223D01*
X145265222Y-46635454D01*
X145431136Y-47036005D01*
X145677255Y-47110139D01*
X146505395Y-46282000D01*
X146864605Y-46282000D01*
X147692745Y-47110139D01*
X147938864Y-47036005D01*
X148131965Y-46498777D01*
X148108720Y-46011223D01*
X149683035Y-46011223D01*
X149710222Y-46581454D01*
X149876136Y-46982005D01*
X150122255Y-47056139D01*
X150950395Y-46228000D01*
X151309605Y-46228000D01*
X152137745Y-47056139D01*
X152383864Y-46982005D01*
X152576965Y-46444777D01*
X152549778Y-45874546D01*
X152383864Y-45473995D01*
X152137745Y-45399861D01*
X151309605Y-46228000D01*
X150950395Y-46228000D01*
X150122255Y-45399861D01*
X149876136Y-45473995D01*
X149683035Y-46011223D01*
X148108720Y-46011223D01*
X148104778Y-45928546D01*
X147938864Y-45527995D01*
X147692745Y-45453861D01*
X146864605Y-46282000D01*
X146505395Y-46282000D01*
X145677255Y-45453861D01*
X145431136Y-45527995D01*
X145238035Y-46065223D01*
X143156722Y-46065223D01*
X143151778Y-45961546D01*
X142985864Y-45560995D01*
X142739745Y-45486861D01*
X141911605Y-46315000D01*
X141552395Y-46315000D01*
X140724255Y-45486861D01*
X140478136Y-45560995D01*
X140285035Y-46098223D01*
X139120209Y-46098223D01*
X139175717Y-46015151D01*
X139284950Y-45466000D01*
X139175717Y-44916849D01*
X138864648Y-44451302D01*
X138482562Y-44196000D01*
X138627452Y-44099187D01*
X140296752Y-44099187D01*
X140514757Y-44626800D01*
X140918077Y-45030824D01*
X140984544Y-45058423D01*
X140977995Y-45061136D01*
X140903861Y-45307255D01*
X141732000Y-46135395D01*
X142560139Y-45307255D01*
X142550200Y-45274255D01*
X145856861Y-45274255D01*
X146685000Y-46102395D01*
X147513139Y-45274255D01*
X147496874Y-45220255D01*
X150301861Y-45220255D01*
X151130000Y-46048395D01*
X151958139Y-45220255D01*
X151884005Y-44974136D01*
X151346777Y-44781035D01*
X150776546Y-44808222D01*
X150375995Y-44974136D01*
X150301861Y-45220255D01*
X147496874Y-45220255D01*
X147439005Y-45028136D01*
X146901777Y-44835035D01*
X146331546Y-44862222D01*
X145930995Y-45028136D01*
X145856861Y-45274255D01*
X142550200Y-45274255D01*
X142486005Y-45061136D01*
X142479517Y-45058804D01*
X142543800Y-45032243D01*
X142947824Y-44628923D01*
X143166750Y-44101691D01*
X143167248Y-43530813D01*
X142949243Y-43003200D01*
X142545923Y-42599176D01*
X142018691Y-42380250D01*
X141447813Y-42379752D01*
X140920200Y-42597757D01*
X140516176Y-43001077D01*
X140297250Y-43528309D01*
X140296752Y-44099187D01*
X138627452Y-44099187D01*
X138864648Y-43940698D01*
X139175717Y-43475151D01*
X139284950Y-42926000D01*
X139175717Y-42376849D01*
X138864648Y-41911302D01*
X138482562Y-41656000D01*
X138864648Y-41400698D01*
X139175717Y-40935151D01*
X139284950Y-40386000D01*
X139175717Y-39836849D01*
X138864648Y-39371302D01*
X138482562Y-39116000D01*
X138864648Y-38860698D01*
X139175717Y-38395151D01*
X139284950Y-37846000D01*
X139234427Y-37592000D01*
X140268887Y-37592000D01*
X140378120Y-38141151D01*
X140689189Y-38606698D01*
X141154736Y-38917767D01*
X141703887Y-39027000D01*
X141760113Y-39027000D01*
X142309264Y-38917767D01*
X142774811Y-38606698D01*
X143085880Y-38141151D01*
X143195113Y-37592000D01*
X143085880Y-37042849D01*
X142774811Y-36577302D01*
X142309264Y-36266233D01*
X141760113Y-36157000D01*
X141703887Y-36157000D01*
X141154736Y-36266233D01*
X140689189Y-36577302D01*
X140378120Y-37042849D01*
X140268887Y-37592000D01*
X139234427Y-37592000D01*
X139175717Y-37296849D01*
X138864648Y-36831302D01*
X138482562Y-36576000D01*
X138864648Y-36320698D01*
X139175717Y-35855151D01*
X139284950Y-35306000D01*
X139175717Y-34756849D01*
X138864648Y-34291302D01*
X138399101Y-33980233D01*
X137849950Y-33871000D01*
X137494394Y-33871000D01*
X138269194Y-33096200D01*
X140957234Y-33096200D01*
X140689189Y-33275302D01*
X140378120Y-33740849D01*
X140268887Y-34290000D01*
X140378120Y-34839151D01*
X140689189Y-35304698D01*
X141154736Y-35615767D01*
X141703887Y-35725000D01*
X141760113Y-35725000D01*
X142309264Y-35615767D01*
X142774811Y-35304698D01*
X143085880Y-34839151D01*
X143195113Y-34290000D01*
X143085880Y-33740849D01*
X142774811Y-33275302D01*
X142503838Y-33094243D01*
X142814766Y-33032396D01*
X143086697Y-32850697D01*
X145521836Y-30415558D01*
X145796000Y-30470093D01*
X146364285Y-30357054D01*
X146846054Y-30035147D01*
X147066000Y-29705974D01*
X147285946Y-30035147D01*
X147767715Y-30357054D01*
X148336000Y-30470093D01*
X148904285Y-30357054D01*
X149386054Y-30035147D01*
X149707961Y-29553378D01*
X149821000Y-28985093D01*
X149821000Y-28926907D01*
X149707961Y-28358622D01*
X149386054Y-27876853D01*
X148904285Y-27554946D01*
X148336000Y-27441907D01*
X147767715Y-27554946D01*
X147285946Y-27876853D01*
X147066000Y-28206026D01*
X146846054Y-27876853D01*
X146364285Y-27554946D01*
X145796000Y-27441907D01*
X145227715Y-27554946D01*
X144745946Y-27876853D01*
X144526000Y-28206026D01*
X144306054Y-27876853D01*
X143824285Y-27554946D01*
X143256000Y-27441907D01*
X142687715Y-27554946D01*
X142205946Y-27876853D01*
X141986000Y-28206026D01*
X141766054Y-27876853D01*
X141284285Y-27554946D01*
X140716000Y-27441907D01*
X140147715Y-27554946D01*
X139665946Y-27876853D01*
X139446000Y-28206026D01*
X139226054Y-27876853D01*
X138744285Y-27554946D01*
X138176000Y-27441907D01*
X137607715Y-27554946D01*
X137125946Y-27876853D01*
X136906000Y-28206026D01*
X136686054Y-27876853D01*
X136204285Y-27554946D01*
X135636000Y-27441907D01*
X135067715Y-27554946D01*
X134585946Y-27876853D01*
X134358298Y-28217553D01*
X134291183Y-28074642D01*
X133862924Y-27684355D01*
X133452890Y-27514524D01*
X133223000Y-27635845D01*
X133223000Y-28829000D01*
X133243000Y-28829000D01*
X133243000Y-29083000D01*
X133223000Y-29083000D01*
X133223000Y-30276155D01*
X133452890Y-30397476D01*
X133862924Y-30227645D01*
X134291183Y-29837358D01*
X134358298Y-29694447D01*
X134580977Y-30027710D01*
X132410200Y-32198487D01*
X132410200Y-30261246D01*
X132739110Y-30397476D01*
X132969000Y-30276155D01*
X132969000Y-29083000D01*
X132949000Y-29083000D01*
X132949000Y-28829000D01*
X132969000Y-28829000D01*
X132969000Y-27635845D01*
X132739110Y-27514524D01*
X132329076Y-27684355D01*
X131900817Y-28074642D01*
X131833702Y-28217553D01*
X131606054Y-27876853D01*
X131124285Y-27554946D01*
X130556000Y-27441907D01*
X129987715Y-27554946D01*
X129505946Y-27876853D01*
X129286000Y-28206026D01*
X129066054Y-27876853D01*
X128849928Y-27732443D01*
X128814622Y-27554946D01*
X128790396Y-27433153D01*
X128608697Y-27161222D01*
X128573475Y-27126000D01*
X172010000Y-27126000D01*
X172010000Y-39370000D01*
X172010000Y-39370000D01*
G37*
X172010000Y-39370000D02*
X172030861Y-39474875D01*
X172042141Y-39581202D01*
X172057697Y-39609786D01*
X172064046Y-39641705D01*
X172123451Y-39730612D01*
X172174563Y-39824531D01*
X173713095Y-41670769D01*
X173672116Y-41643388D01*
X172720000Y-41454000D01*
X171767884Y-41643388D01*
X170960718Y-42182718D01*
X170421388Y-42989884D01*
X170232000Y-43942000D01*
X170421388Y-44894116D01*
X170958225Y-45697551D01*
X170688000Y-45643800D01*
X168322889Y-45643800D01*
X167945923Y-45266176D01*
X167418691Y-45047250D01*
X166847813Y-45046752D01*
X166320200Y-45264757D01*
X165916176Y-45668077D01*
X165697250Y-46195309D01*
X165696782Y-46731824D01*
X158910806Y-53517800D01*
X158416889Y-53517800D01*
X158039923Y-53140176D01*
X157973456Y-53112577D01*
X157980005Y-53109864D01*
X158054139Y-52863745D01*
X157226000Y-52035605D01*
X156397861Y-52863745D01*
X156471995Y-53109864D01*
X156478483Y-53112196D01*
X156414200Y-53138757D01*
X156010176Y-53542077D01*
X155791250Y-54069309D01*
X155790752Y-54640187D01*
X156008757Y-55167800D01*
X156009755Y-55168800D01*
X155795194Y-55168800D01*
X154762200Y-54135806D01*
X154762200Y-51639223D01*
X155779035Y-51639223D01*
X155806222Y-52209454D01*
X155972136Y-52610005D01*
X156218255Y-52684139D01*
X157046395Y-51856000D01*
X157405605Y-51856000D01*
X158233745Y-52684139D01*
X158479864Y-52610005D01*
X158672965Y-52072777D01*
X158645778Y-51502546D01*
X158479864Y-51101995D01*
X158233745Y-51027861D01*
X157405605Y-51856000D01*
X157046395Y-51856000D01*
X156218255Y-51027861D01*
X155972136Y-51101995D01*
X155779035Y-51639223D01*
X154762200Y-51639223D01*
X154762200Y-50848255D01*
X156397861Y-50848255D01*
X157226000Y-51676395D01*
X158054139Y-50848255D01*
X157980005Y-50602136D01*
X157442777Y-50409035D01*
X156872546Y-50436222D01*
X156471995Y-50602136D01*
X156397861Y-50848255D01*
X154762200Y-50848255D01*
X154762200Y-43053000D01*
X154751872Y-43001077D01*
X154698396Y-42732234D01*
X154516697Y-42460303D01*
X154379889Y-42323495D01*
X154633330Y-42428733D01*
X155243991Y-42429265D01*
X155808371Y-42196068D01*
X155985841Y-42018908D01*
X156041673Y-42153699D01*
X156220302Y-42332327D01*
X156453691Y-42429000D01*
X157194250Y-42429000D01*
X157353000Y-42270250D01*
X157353000Y-41021000D01*
X157607000Y-41021000D01*
X157607000Y-42270250D01*
X157765750Y-42429000D01*
X158506309Y-42429000D01*
X158739698Y-42332327D01*
X158918327Y-42153699D01*
X159015000Y-41920310D01*
X159015000Y-41179750D01*
X158856250Y-41021000D01*
X157607000Y-41021000D01*
X157353000Y-41021000D01*
X157333000Y-41021000D01*
X157333000Y-40767000D01*
X157353000Y-40767000D01*
X157353000Y-39517750D01*
X157607000Y-39517750D01*
X157607000Y-40767000D01*
X158856250Y-40767000D01*
X159015000Y-40608250D01*
X159015000Y-39867690D01*
X158918327Y-39634301D01*
X158739698Y-39455673D01*
X158506309Y-39359000D01*
X157765750Y-39359000D01*
X157607000Y-39517750D01*
X157353000Y-39517750D01*
X157194250Y-39359000D01*
X156453691Y-39359000D01*
X156220302Y-39455673D01*
X156041673Y-39634301D01*
X155985881Y-39768994D01*
X155810643Y-39593449D01*
X155246670Y-39359267D01*
X154636009Y-39358735D01*
X154603543Y-39372149D01*
X153881697Y-38650303D01*
X153609766Y-38468604D01*
X153289000Y-38404800D01*
X150568290Y-38404800D01*
X150786750Y-37878691D01*
X150787248Y-37307813D01*
X150569243Y-36780200D01*
X150175262Y-36385531D01*
X150129854Y-36157250D01*
X150126396Y-36139864D01*
X149944697Y-35867933D01*
X149753528Y-35676764D01*
X150163800Y-35507243D01*
X150543505Y-35128200D01*
X166102400Y-35128200D01*
X166423166Y-35064396D01*
X166695097Y-34882697D01*
X170772697Y-30805097D01*
X170954396Y-30533166D01*
X170970254Y-30453440D01*
X171030000Y-30453440D01*
X171265317Y-30409162D01*
X171481441Y-30270090D01*
X171626431Y-30057890D01*
X171677440Y-29806000D01*
X171677440Y-28106000D01*
X171633162Y-27870683D01*
X171494090Y-27654559D01*
X171281890Y-27509569D01*
X171030000Y-27458560D01*
X169330000Y-27458560D01*
X169094683Y-27502838D01*
X168878559Y-27641910D01*
X168733569Y-27854110D01*
X168719914Y-27921541D01*
X168690054Y-27876853D01*
X168208285Y-27554946D01*
X167640000Y-27441907D01*
X167071715Y-27554946D01*
X166589946Y-27876853D01*
X166370000Y-28206026D01*
X166150054Y-27876853D01*
X165668285Y-27554946D01*
X165100000Y-27441907D01*
X164531715Y-27554946D01*
X164049946Y-27876853D01*
X163830000Y-28206026D01*
X163610054Y-27876853D01*
X163128285Y-27554946D01*
X162560000Y-27441907D01*
X161991715Y-27554946D01*
X161509946Y-27876853D01*
X161290000Y-28206026D01*
X161070054Y-27876853D01*
X160588285Y-27554946D01*
X160020000Y-27441907D01*
X159451715Y-27554946D01*
X158969946Y-27876853D01*
X158750000Y-28206026D01*
X158530054Y-27876853D01*
X158048285Y-27554946D01*
X157480000Y-27441907D01*
X156911715Y-27554946D01*
X156429946Y-27876853D01*
X156210000Y-28206026D01*
X155990054Y-27876853D01*
X155508285Y-27554946D01*
X154940000Y-27441907D01*
X154371715Y-27554946D01*
X153889946Y-27876853D01*
X153670000Y-28206026D01*
X153450054Y-27876853D01*
X152968285Y-27554946D01*
X152400000Y-27441907D01*
X151831715Y-27554946D01*
X151349946Y-27876853D01*
X151028039Y-28358622D01*
X150915000Y-28926907D01*
X150915000Y-28985093D01*
X151028039Y-29553378D01*
X151349946Y-30035147D01*
X151831715Y-30357054D01*
X152400000Y-30470093D01*
X152968285Y-30357054D01*
X153450054Y-30035147D01*
X153670000Y-29705974D01*
X153889946Y-30035147D01*
X154371715Y-30357054D01*
X154940000Y-30470093D01*
X155508285Y-30357054D01*
X155990054Y-30035147D01*
X156210000Y-29705974D01*
X156429946Y-30035147D01*
X156911715Y-30357054D01*
X157480000Y-30470093D01*
X158048285Y-30357054D01*
X158530054Y-30035147D01*
X158750000Y-29705974D01*
X158969946Y-30035147D01*
X159451715Y-30357054D01*
X160020000Y-30470093D01*
X160588285Y-30357054D01*
X161070054Y-30035147D01*
X161290000Y-29705974D01*
X161509946Y-30035147D01*
X161991715Y-30357054D01*
X162560000Y-30470093D01*
X163128285Y-30357054D01*
X163610054Y-30035147D01*
X163830000Y-29705974D01*
X164049946Y-30035147D01*
X164531715Y-30357054D01*
X165100000Y-30470093D01*
X165668285Y-30357054D01*
X166150054Y-30035147D01*
X166370000Y-29705974D01*
X166589946Y-30035147D01*
X166801800Y-30176703D01*
X166801800Y-31148806D01*
X165260806Y-32689800D01*
X151223194Y-32689800D01*
X150706697Y-32173303D01*
X150434766Y-31991604D01*
X150114000Y-31927800D01*
X148590000Y-31927800D01*
X148269235Y-31991604D01*
X148136642Y-32080200D01*
X147997303Y-32173303D01*
X147489303Y-32681303D01*
X147307604Y-32953234D01*
X147270590Y-33139315D01*
X147243800Y-33274000D01*
X147243800Y-35190630D01*
X147307604Y-35511396D01*
X147489303Y-35783327D01*
X148310266Y-36604290D01*
X148136176Y-36778077D01*
X147917250Y-37305309D01*
X147916752Y-37876187D01*
X148134757Y-38403800D01*
X148135755Y-38404800D01*
X143383000Y-38404800D01*
X143062235Y-38468604D01*
X142790303Y-38650303D01*
X141981389Y-39459217D01*
X141447813Y-39458752D01*
X140920200Y-39676757D01*
X140516176Y-40080077D01*
X140297250Y-40607309D01*
X140296752Y-41178187D01*
X140514757Y-41705800D01*
X140918077Y-42109824D01*
X141445309Y-42328750D01*
X142016187Y-42329248D01*
X142543800Y-42111243D01*
X142947824Y-41707923D01*
X143166750Y-41180691D01*
X143167218Y-40644176D01*
X143730194Y-40081200D01*
X148174285Y-40081200D01*
X147998120Y-40344849D01*
X147888887Y-40894000D01*
X147998120Y-41443151D01*
X148309189Y-41908698D01*
X148774736Y-42219767D01*
X149323887Y-42329000D01*
X149380113Y-42329000D01*
X149929264Y-42219767D01*
X150394811Y-41908698D01*
X150512743Y-41732200D01*
X151417806Y-41732200D01*
X153085800Y-43400194D01*
X153085800Y-54483000D01*
X153149604Y-54803766D01*
X153331303Y-55075697D01*
X154657394Y-56401788D01*
X154644849Y-56404283D01*
X154179302Y-56715352D01*
X153926493Y-57093707D01*
X153578896Y-56661500D01*
X153085819Y-56391633D01*
X153003039Y-56374096D01*
X152781000Y-56496085D01*
X152781000Y-58039000D01*
X152801000Y-58039000D01*
X152801000Y-58293000D01*
X152781000Y-58293000D01*
X152781000Y-59835915D01*
X153003039Y-59957904D01*
X153085819Y-59940367D01*
X153578896Y-59670500D01*
X153926493Y-59238293D01*
X154179302Y-59616648D01*
X154644849Y-59927717D01*
X155194000Y-60036950D01*
X155743151Y-59927717D01*
X156208698Y-59616648D01*
X156464000Y-59234562D01*
X156719302Y-59616648D01*
X157184849Y-59927717D01*
X157734000Y-60036950D01*
X158283151Y-59927717D01*
X158748698Y-59616648D01*
X159004000Y-59234562D01*
X159259302Y-59616648D01*
X159724849Y-59927717D01*
X160274000Y-60036950D01*
X160823151Y-59927717D01*
X161288698Y-59616648D01*
X161544000Y-59234562D01*
X161799302Y-59616648D01*
X162264849Y-59927717D01*
X162814000Y-60036950D01*
X163363151Y-59927717D01*
X163828698Y-59616648D01*
X164084000Y-59234562D01*
X164339302Y-59616648D01*
X164804849Y-59927717D01*
X165354000Y-60036950D01*
X165903151Y-59927717D01*
X166368698Y-59616648D01*
X166624000Y-59234562D01*
X166879302Y-59616648D01*
X167344849Y-59927717D01*
X167894000Y-60036950D01*
X168443151Y-59927717D01*
X168908698Y-59616648D01*
X169006251Y-59470650D01*
X169030838Y-59601317D01*
X169169910Y-59817441D01*
X169382110Y-59962431D01*
X169634000Y-60013440D01*
X170830166Y-60013440D01*
X170467806Y-60375800D01*
X145777000Y-60375800D01*
X145456234Y-60439604D01*
X145184303Y-60621303D01*
X141901303Y-63904303D01*
X141721351Y-64173620D01*
X141479302Y-64335352D01*
X141224000Y-64717438D01*
X140968698Y-64335352D01*
X140503151Y-64024283D01*
X139954000Y-63915050D01*
X139404849Y-64024283D01*
X138939302Y-64335352D01*
X138684000Y-64717438D01*
X138428698Y-64335352D01*
X137963151Y-64024283D01*
X137414000Y-63915050D01*
X136864849Y-64024283D01*
X136399302Y-64335352D01*
X136241665Y-64571271D01*
X136220200Y-64549806D01*
X136220200Y-59348603D01*
X136399302Y-59616648D01*
X136864849Y-59927717D01*
X137414000Y-60036950D01*
X137963151Y-59927717D01*
X138428698Y-59616648D01*
X138684000Y-59234562D01*
X138939302Y-59616648D01*
X139404849Y-59927717D01*
X139954000Y-60036950D01*
X140503151Y-59927717D01*
X140968698Y-59616648D01*
X141224000Y-59234562D01*
X141479302Y-59616648D01*
X141944849Y-59927717D01*
X142494000Y-60036950D01*
X143043151Y-59927717D01*
X143508698Y-59616648D01*
X143764000Y-59234562D01*
X144019302Y-59616648D01*
X144484849Y-59927717D01*
X145034000Y-60036950D01*
X145583151Y-59927717D01*
X146048698Y-59616648D01*
X146304000Y-59234562D01*
X146559302Y-59616648D01*
X147024849Y-59927717D01*
X147574000Y-60036950D01*
X148123151Y-59927717D01*
X148588698Y-59616648D01*
X148844000Y-59234562D01*
X149099302Y-59616648D01*
X149564849Y-59927717D01*
X150114000Y-60036950D01*
X150663151Y-59927717D01*
X151128698Y-59616648D01*
X151381507Y-59238293D01*
X151729104Y-59670500D01*
X152222181Y-59940367D01*
X152304961Y-59957904D01*
X152527000Y-59835915D01*
X152527000Y-58293000D01*
X152507000Y-58293000D01*
X152507000Y-58039000D01*
X152527000Y-58039000D01*
X152527000Y-56496085D01*
X152304961Y-56374096D01*
X152222181Y-56391633D01*
X151729104Y-56661500D01*
X151381507Y-57093707D01*
X151128698Y-56715352D01*
X150663151Y-56404283D01*
X150114000Y-56295050D01*
X149564849Y-56404283D01*
X149099302Y-56715352D01*
X148844000Y-57097438D01*
X148588698Y-56715352D01*
X148123151Y-56404283D01*
X147574000Y-56295050D01*
X147024849Y-56404283D01*
X146559302Y-56715352D01*
X146304000Y-57097438D01*
X146048698Y-56715352D01*
X145583151Y-56404283D01*
X145034000Y-56295050D01*
X144484849Y-56404283D01*
X144019302Y-56715352D01*
X143764000Y-57097438D01*
X143508698Y-56715352D01*
X143043151Y-56404283D01*
X142494000Y-56295050D01*
X141944849Y-56404283D01*
X141479302Y-56715352D01*
X141224000Y-57097438D01*
X140968698Y-56715352D01*
X140503151Y-56404283D01*
X139954000Y-56295050D01*
X139404849Y-56404283D01*
X138939302Y-56715352D01*
X138684000Y-57097438D01*
X138428698Y-56715352D01*
X137963151Y-56404283D01*
X137414000Y-56295050D01*
X136864849Y-56404283D01*
X136399302Y-56715352D01*
X136220200Y-56983397D01*
X136220200Y-53360285D01*
X145118760Y-53360285D01*
X145329169Y-53869515D01*
X145718436Y-54259461D01*
X146227298Y-54470759D01*
X146778285Y-54471240D01*
X147287515Y-54260831D01*
X147677461Y-53871564D01*
X147888759Y-53362702D01*
X147888761Y-53360285D01*
X149998760Y-53360285D01*
X150209169Y-53869515D01*
X150598436Y-54259461D01*
X151107298Y-54470759D01*
X151658285Y-54471240D01*
X152167515Y-54260831D01*
X152557461Y-53871564D01*
X152768759Y-53362702D01*
X152769240Y-52811715D01*
X152558831Y-52302485D01*
X152169564Y-51912539D01*
X151660702Y-51701241D01*
X151109715Y-51700760D01*
X150600485Y-51911169D01*
X150210539Y-52300436D01*
X149999241Y-52809298D01*
X149998760Y-53360285D01*
X147888761Y-53360285D01*
X147889240Y-52811715D01*
X147678831Y-52302485D01*
X147289564Y-51912539D01*
X146780702Y-51701241D01*
X146229715Y-51700760D01*
X145720485Y-51911169D01*
X145330539Y-52300436D01*
X145119241Y-52809298D01*
X145118760Y-53360285D01*
X136220200Y-53360285D01*
X136220200Y-51993440D01*
X138614000Y-51993440D01*
X138849317Y-51949162D01*
X139065441Y-51810090D01*
X139210431Y-51597890D01*
X139261440Y-51346000D01*
X139261440Y-49746000D01*
X139217162Y-49510683D01*
X139078090Y-49294559D01*
X138865890Y-49149569D01*
X138716926Y-49119403D01*
X138796569Y-49066187D01*
X145249752Y-49066187D01*
X145467757Y-49593800D01*
X145871077Y-49997824D01*
X146398309Y-50216750D01*
X146969187Y-50217248D01*
X147496800Y-49999243D01*
X147900824Y-49595923D01*
X148119750Y-49068691D01*
X148119799Y-49012187D01*
X149694752Y-49012187D01*
X149912757Y-49539800D01*
X150316077Y-49943824D01*
X150843309Y-50162750D01*
X151414187Y-50163248D01*
X151941800Y-49945243D01*
X152345824Y-49541923D01*
X152564750Y-49014691D01*
X152565248Y-48443813D01*
X152347243Y-47916200D01*
X151943923Y-47512176D01*
X151877456Y-47484577D01*
X151884005Y-47481864D01*
X151958139Y-47235745D01*
X151130000Y-46407605D01*
X150301861Y-47235745D01*
X150375995Y-47481864D01*
X150382483Y-47484196D01*
X150318200Y-47510757D01*
X149914176Y-47914077D01*
X149695250Y-48441309D01*
X149694752Y-49012187D01*
X148119799Y-49012187D01*
X148120248Y-48497813D01*
X147902243Y-47970200D01*
X147498923Y-47566176D01*
X147432456Y-47538577D01*
X147439005Y-47535864D01*
X147513139Y-47289745D01*
X146685000Y-46461605D01*
X145856861Y-47289745D01*
X145930995Y-47535864D01*
X145937483Y-47538196D01*
X145873200Y-47564757D01*
X145469176Y-47968077D01*
X145250250Y-48495309D01*
X145249752Y-49066187D01*
X138796569Y-49066187D01*
X138864648Y-49020698D01*
X139175717Y-48555151D01*
X139284950Y-48006000D01*
X139175717Y-47456849D01*
X139086112Y-47322745D01*
X140903861Y-47322745D01*
X140977995Y-47568864D01*
X141515223Y-47761965D01*
X142085454Y-47734778D01*
X142486005Y-47568864D01*
X142560139Y-47322745D01*
X141732000Y-46494605D01*
X140903861Y-47322745D01*
X139086112Y-47322745D01*
X138864648Y-46991302D01*
X138482562Y-46736000D01*
X138864648Y-46480698D01*
X139120209Y-46098223D01*
X140285035Y-46098223D01*
X140312222Y-46668454D01*
X140478136Y-47069005D01*
X140724255Y-47143139D01*
X141552395Y-46315000D01*
X141911605Y-46315000D01*
X142739745Y-47143139D01*
X142985864Y-47069005D01*
X143178965Y-46531777D01*
X143156722Y-46065223D01*
X145238035Y-46065223D01*
X145265222Y-46635454D01*
X145431136Y-47036005D01*
X145677255Y-47110139D01*
X146505395Y-46282000D01*
X146864605Y-46282000D01*
X147692745Y-47110139D01*
X147938864Y-47036005D01*
X148131965Y-46498777D01*
X148108720Y-46011223D01*
X149683035Y-46011223D01*
X149710222Y-46581454D01*
X149876136Y-46982005D01*
X150122255Y-47056139D01*
X150950395Y-46228000D01*
X151309605Y-46228000D01*
X152137745Y-47056139D01*
X152383864Y-46982005D01*
X152576965Y-46444777D01*
X152549778Y-45874546D01*
X152383864Y-45473995D01*
X152137745Y-45399861D01*
X151309605Y-46228000D01*
X150950395Y-46228000D01*
X150122255Y-45399861D01*
X149876136Y-45473995D01*
X149683035Y-46011223D01*
X148108720Y-46011223D01*
X148104778Y-45928546D01*
X147938864Y-45527995D01*
X147692745Y-45453861D01*
X146864605Y-46282000D01*
X146505395Y-46282000D01*
X145677255Y-45453861D01*
X145431136Y-45527995D01*
X145238035Y-46065223D01*
X143156722Y-46065223D01*
X143151778Y-45961546D01*
X142985864Y-45560995D01*
X142739745Y-45486861D01*
X141911605Y-46315000D01*
X141552395Y-46315000D01*
X140724255Y-45486861D01*
X140478136Y-45560995D01*
X140285035Y-46098223D01*
X139120209Y-46098223D01*
X139175717Y-46015151D01*
X139284950Y-45466000D01*
X139175717Y-44916849D01*
X138864648Y-44451302D01*
X138482562Y-44196000D01*
X138627452Y-44099187D01*
X140296752Y-44099187D01*
X140514757Y-44626800D01*
X140918077Y-45030824D01*
X140984544Y-45058423D01*
X140977995Y-45061136D01*
X140903861Y-45307255D01*
X141732000Y-46135395D01*
X142560139Y-45307255D01*
X142550200Y-45274255D01*
X145856861Y-45274255D01*
X146685000Y-46102395D01*
X147513139Y-45274255D01*
X147496874Y-45220255D01*
X150301861Y-45220255D01*
X151130000Y-46048395D01*
X151958139Y-45220255D01*
X151884005Y-44974136D01*
X151346777Y-44781035D01*
X150776546Y-44808222D01*
X150375995Y-44974136D01*
X150301861Y-45220255D01*
X147496874Y-45220255D01*
X147439005Y-45028136D01*
X146901777Y-44835035D01*
X146331546Y-44862222D01*
X145930995Y-45028136D01*
X145856861Y-45274255D01*
X142550200Y-45274255D01*
X142486005Y-45061136D01*
X142479517Y-45058804D01*
X142543800Y-45032243D01*
X142947824Y-44628923D01*
X143166750Y-44101691D01*
X143167248Y-43530813D01*
X142949243Y-43003200D01*
X142545923Y-42599176D01*
X142018691Y-42380250D01*
X141447813Y-42379752D01*
X140920200Y-42597757D01*
X140516176Y-43001077D01*
X140297250Y-43528309D01*
X140296752Y-44099187D01*
X138627452Y-44099187D01*
X138864648Y-43940698D01*
X139175717Y-43475151D01*
X139284950Y-42926000D01*
X139175717Y-42376849D01*
X138864648Y-41911302D01*
X138482562Y-41656000D01*
X138864648Y-41400698D01*
X139175717Y-40935151D01*
X139284950Y-40386000D01*
X139175717Y-39836849D01*
X138864648Y-39371302D01*
X138482562Y-39116000D01*
X138864648Y-38860698D01*
X139175717Y-38395151D01*
X139284950Y-37846000D01*
X139234427Y-37592000D01*
X140268887Y-37592000D01*
X140378120Y-38141151D01*
X140689189Y-38606698D01*
X141154736Y-38917767D01*
X141703887Y-39027000D01*
X141760113Y-39027000D01*
X142309264Y-38917767D01*
X142774811Y-38606698D01*
X143085880Y-38141151D01*
X143195113Y-37592000D01*
X143085880Y-37042849D01*
X142774811Y-36577302D01*
X142309264Y-36266233D01*
X141760113Y-36157000D01*
X141703887Y-36157000D01*
X141154736Y-36266233D01*
X140689189Y-36577302D01*
X140378120Y-37042849D01*
X140268887Y-37592000D01*
X139234427Y-37592000D01*
X139175717Y-37296849D01*
X138864648Y-36831302D01*
X138482562Y-36576000D01*
X138864648Y-36320698D01*
X139175717Y-35855151D01*
X139284950Y-35306000D01*
X139175717Y-34756849D01*
X138864648Y-34291302D01*
X138399101Y-33980233D01*
X137849950Y-33871000D01*
X137494394Y-33871000D01*
X138269194Y-33096200D01*
X140957234Y-33096200D01*
X140689189Y-33275302D01*
X140378120Y-33740849D01*
X140268887Y-34290000D01*
X140378120Y-34839151D01*
X140689189Y-35304698D01*
X141154736Y-35615767D01*
X141703887Y-35725000D01*
X141760113Y-35725000D01*
X142309264Y-35615767D01*
X142774811Y-35304698D01*
X143085880Y-34839151D01*
X143195113Y-34290000D01*
X143085880Y-33740849D01*
X142774811Y-33275302D01*
X142503838Y-33094243D01*
X142814766Y-33032396D01*
X143086697Y-32850697D01*
X145521836Y-30415558D01*
X145796000Y-30470093D01*
X146364285Y-30357054D01*
X146846054Y-30035147D01*
X147066000Y-29705974D01*
X147285946Y-30035147D01*
X147767715Y-30357054D01*
X148336000Y-30470093D01*
X148904285Y-30357054D01*
X149386054Y-30035147D01*
X149707961Y-29553378D01*
X149821000Y-28985093D01*
X149821000Y-28926907D01*
X149707961Y-28358622D01*
X149386054Y-27876853D01*
X148904285Y-27554946D01*
X148336000Y-27441907D01*
X147767715Y-27554946D01*
X147285946Y-27876853D01*
X147066000Y-28206026D01*
X146846054Y-27876853D01*
X146364285Y-27554946D01*
X145796000Y-27441907D01*
X145227715Y-27554946D01*
X144745946Y-27876853D01*
X144526000Y-28206026D01*
X144306054Y-27876853D01*
X143824285Y-27554946D01*
X143256000Y-27441907D01*
X142687715Y-27554946D01*
X142205946Y-27876853D01*
X141986000Y-28206026D01*
X141766054Y-27876853D01*
X141284285Y-27554946D01*
X140716000Y-27441907D01*
X140147715Y-27554946D01*
X139665946Y-27876853D01*
X139446000Y-28206026D01*
X139226054Y-27876853D01*
X138744285Y-27554946D01*
X138176000Y-27441907D01*
X137607715Y-27554946D01*
X137125946Y-27876853D01*
X136906000Y-28206026D01*
X136686054Y-27876853D01*
X136204285Y-27554946D01*
X135636000Y-27441907D01*
X135067715Y-27554946D01*
X134585946Y-27876853D01*
X134358298Y-28217553D01*
X134291183Y-28074642D01*
X133862924Y-27684355D01*
X133452890Y-27514524D01*
X133223000Y-27635845D01*
X133223000Y-28829000D01*
X133243000Y-28829000D01*
X133243000Y-29083000D01*
X133223000Y-29083000D01*
X133223000Y-30276155D01*
X133452890Y-30397476D01*
X133862924Y-30227645D01*
X134291183Y-29837358D01*
X134358298Y-29694447D01*
X134580977Y-30027710D01*
X132410200Y-32198487D01*
X132410200Y-30261246D01*
X132739110Y-30397476D01*
X132969000Y-30276155D01*
X132969000Y-29083000D01*
X132949000Y-29083000D01*
X132949000Y-28829000D01*
X132969000Y-28829000D01*
X132969000Y-27635845D01*
X132739110Y-27514524D01*
X132329076Y-27684355D01*
X131900817Y-28074642D01*
X131833702Y-28217553D01*
X131606054Y-27876853D01*
X131124285Y-27554946D01*
X130556000Y-27441907D01*
X129987715Y-27554946D01*
X129505946Y-27876853D01*
X129286000Y-28206026D01*
X129066054Y-27876853D01*
X128849928Y-27732443D01*
X128814622Y-27554946D01*
X128790396Y-27433153D01*
X128608697Y-27161222D01*
X128573475Y-27126000D01*
X172010000Y-27126000D01*
X172010000Y-39370000D01*
G36*
X121184748Y-63739858D02*
X121170605Y-63754000D01*
X121184748Y-63768142D01*
X121005143Y-63947748D01*
X120991000Y-63933605D01*
X120976858Y-63947748D01*
X120797252Y-63768142D01*
X120811395Y-63754000D01*
X120797252Y-63739858D01*
X120976858Y-63560253D01*
X120991000Y-63574395D01*
X121005143Y-63560253D01*
X121184748Y-63739858D01*
X121184748Y-63739858D01*
G37*
X121184748Y-63739858D02*
X121170605Y-63754000D01*
X121184748Y-63768142D01*
X121005143Y-63947748D01*
X120991000Y-63933605D01*
X120976858Y-63947748D01*
X120797252Y-63768142D01*
X120811395Y-63754000D01*
X120797252Y-63739858D01*
X120976858Y-63560253D01*
X120991000Y-63574395D01*
X121005143Y-63560253D01*
X121184748Y-63739858D01*
G36*
X129505946Y-30035147D02*
X129987715Y-30357054D01*
X130556000Y-30470093D01*
X130733800Y-30434726D01*
X130733800Y-33971222D01*
X130229950Y-33871000D01*
X129358050Y-33871000D01*
X128808899Y-33980233D01*
X128343352Y-34291302D01*
X128032283Y-34756849D01*
X127923050Y-35306000D01*
X128032283Y-35855151D01*
X128343352Y-36320698D01*
X128721707Y-36573507D01*
X128289500Y-36921104D01*
X128019633Y-37414181D01*
X128002096Y-37496961D01*
X128124085Y-37719000D01*
X129667000Y-37719000D01*
X129667000Y-37699000D01*
X129921000Y-37699000D01*
X129921000Y-37719000D01*
X129941000Y-37719000D01*
X129941000Y-37973000D01*
X129921000Y-37973000D01*
X129921000Y-40259000D01*
X129941000Y-40259000D01*
X129941000Y-40513000D01*
X129921000Y-40513000D01*
X129921000Y-40533000D01*
X129667000Y-40533000D01*
X129667000Y-40513000D01*
X128124085Y-40513000D01*
X128002096Y-40735039D01*
X128019633Y-40817819D01*
X128289500Y-41310896D01*
X128721707Y-41658493D01*
X128343352Y-41911302D01*
X128032283Y-42376849D01*
X127923050Y-42926000D01*
X128032283Y-43475151D01*
X128343352Y-43940698D01*
X128725438Y-44196000D01*
X128343352Y-44451302D01*
X128032283Y-44916849D01*
X127923050Y-45466000D01*
X128032283Y-46015151D01*
X128343352Y-46480698D01*
X128725438Y-46736000D01*
X128343352Y-46991302D01*
X128032283Y-47456849D01*
X127923050Y-48006000D01*
X128032283Y-48555151D01*
X128343352Y-49020698D01*
X128721707Y-49273507D01*
X128289500Y-49621104D01*
X128019633Y-50114181D01*
X128002096Y-50196961D01*
X128124085Y-50419000D01*
X129667000Y-50419000D01*
X129667000Y-50399000D01*
X129921000Y-50399000D01*
X129921000Y-50419000D01*
X129941000Y-50419000D01*
X129941000Y-50673000D01*
X129921000Y-50673000D01*
X129921000Y-51981000D01*
X130321000Y-51981000D01*
X130733800Y-51860229D01*
X130733800Y-61603406D01*
X124790200Y-55659806D01*
X124790200Y-50895039D01*
X128002096Y-50895039D01*
X128019633Y-50977819D01*
X128289500Y-51470896D01*
X128727517Y-51823166D01*
X129267000Y-51981000D01*
X129667000Y-51981000D01*
X129667000Y-50673000D01*
X128124085Y-50673000D01*
X128002096Y-50895039D01*
X124790200Y-50895039D01*
X124790200Y-44155025D01*
X125189309Y-44320750D01*
X125760187Y-44321248D01*
X126287800Y-44103243D01*
X126691824Y-43699923D01*
X126910750Y-43172691D01*
X126911248Y-42601813D01*
X126693243Y-42074200D01*
X126289923Y-41670176D01*
X126223456Y-41642577D01*
X126230005Y-41639864D01*
X126304139Y-41393745D01*
X125476000Y-40565605D01*
X125461858Y-40579748D01*
X125282252Y-40400142D01*
X125296395Y-40386000D01*
X125655605Y-40386000D01*
X126483745Y-41214139D01*
X126729864Y-41140005D01*
X126922965Y-40602777D01*
X126895778Y-40032546D01*
X126729864Y-39631995D01*
X126483745Y-39557861D01*
X125655605Y-40386000D01*
X125296395Y-40386000D01*
X125282252Y-40371858D01*
X125461858Y-40192252D01*
X125476000Y-40206395D01*
X126304139Y-39378255D01*
X126230005Y-39132136D01*
X125692777Y-38939035D01*
X125122546Y-38966222D01*
X124790200Y-39103885D01*
X124790200Y-38195039D01*
X128002096Y-38195039D01*
X128019633Y-38277819D01*
X128289500Y-38770896D01*
X128718607Y-39116000D01*
X128289500Y-39461104D01*
X128019633Y-39954181D01*
X128002096Y-40036961D01*
X128124085Y-40259000D01*
X129667000Y-40259000D01*
X129667000Y-37973000D01*
X128124085Y-37973000D01*
X128002096Y-38195039D01*
X124790200Y-38195039D01*
X124790200Y-32083594D01*
X126068697Y-30805097D01*
X126124485Y-30721604D01*
X126250396Y-30533165D01*
X126266254Y-30453440D01*
X126326000Y-30453440D01*
X126561317Y-30409162D01*
X126777441Y-30270090D01*
X126922431Y-30057890D01*
X126936086Y-29990459D01*
X126965946Y-30035147D01*
X127447715Y-30357054D01*
X128016000Y-30470093D01*
X128584285Y-30357054D01*
X129066054Y-30035147D01*
X129286000Y-29705974D01*
X129505946Y-30035147D01*
X129505946Y-30035147D01*
G37*
X129505946Y-30035147D02*
X129987715Y-30357054D01*
X130556000Y-30470093D01*
X130733800Y-30434726D01*
X130733800Y-33971222D01*
X130229950Y-33871000D01*
X129358050Y-33871000D01*
X128808899Y-33980233D01*
X128343352Y-34291302D01*
X128032283Y-34756849D01*
X127923050Y-35306000D01*
X128032283Y-35855151D01*
X128343352Y-36320698D01*
X128721707Y-36573507D01*
X128289500Y-36921104D01*
X128019633Y-37414181D01*
X128002096Y-37496961D01*
X128124085Y-37719000D01*
X129667000Y-37719000D01*
X129667000Y-37699000D01*
X129921000Y-37699000D01*
X129921000Y-37719000D01*
X129941000Y-37719000D01*
X129941000Y-37973000D01*
X129921000Y-37973000D01*
X129921000Y-40259000D01*
X129941000Y-40259000D01*
X129941000Y-40513000D01*
X129921000Y-40513000D01*
X129921000Y-40533000D01*
X129667000Y-40533000D01*
X129667000Y-40513000D01*
X128124085Y-40513000D01*
X128002096Y-40735039D01*
X128019633Y-40817819D01*
X128289500Y-41310896D01*
X128721707Y-41658493D01*
X128343352Y-41911302D01*
X128032283Y-42376849D01*
X127923050Y-42926000D01*
X128032283Y-43475151D01*
X128343352Y-43940698D01*
X128725438Y-44196000D01*
X128343352Y-44451302D01*
X128032283Y-44916849D01*
X127923050Y-45466000D01*
X128032283Y-46015151D01*
X128343352Y-46480698D01*
X128725438Y-46736000D01*
X128343352Y-46991302D01*
X128032283Y-47456849D01*
X127923050Y-48006000D01*
X128032283Y-48555151D01*
X128343352Y-49020698D01*
X128721707Y-49273507D01*
X128289500Y-49621104D01*
X128019633Y-50114181D01*
X128002096Y-50196961D01*
X128124085Y-50419000D01*
X129667000Y-50419000D01*
X129667000Y-50399000D01*
X129921000Y-50399000D01*
X129921000Y-50419000D01*
X129941000Y-50419000D01*
X129941000Y-50673000D01*
X129921000Y-50673000D01*
X129921000Y-51981000D01*
X130321000Y-51981000D01*
X130733800Y-51860229D01*
X130733800Y-61603406D01*
X124790200Y-55659806D01*
X124790200Y-50895039D01*
X128002096Y-50895039D01*
X128019633Y-50977819D01*
X128289500Y-51470896D01*
X128727517Y-51823166D01*
X129267000Y-51981000D01*
X129667000Y-51981000D01*
X129667000Y-50673000D01*
X128124085Y-50673000D01*
X128002096Y-50895039D01*
X124790200Y-50895039D01*
X124790200Y-44155025D01*
X125189309Y-44320750D01*
X125760187Y-44321248D01*
X126287800Y-44103243D01*
X126691824Y-43699923D01*
X126910750Y-43172691D01*
X126911248Y-42601813D01*
X126693243Y-42074200D01*
X126289923Y-41670176D01*
X126223456Y-41642577D01*
X126230005Y-41639864D01*
X126304139Y-41393745D01*
X125476000Y-40565605D01*
X125461858Y-40579748D01*
X125282252Y-40400142D01*
X125296395Y-40386000D01*
X125655605Y-40386000D01*
X126483745Y-41214139D01*
X126729864Y-41140005D01*
X126922965Y-40602777D01*
X126895778Y-40032546D01*
X126729864Y-39631995D01*
X126483745Y-39557861D01*
X125655605Y-40386000D01*
X125296395Y-40386000D01*
X125282252Y-40371858D01*
X125461858Y-40192252D01*
X125476000Y-40206395D01*
X126304139Y-39378255D01*
X126230005Y-39132136D01*
X125692777Y-38939035D01*
X125122546Y-38966222D01*
X124790200Y-39103885D01*
X124790200Y-38195039D01*
X128002096Y-38195039D01*
X128019633Y-38277819D01*
X128289500Y-38770896D01*
X128718607Y-39116000D01*
X128289500Y-39461104D01*
X128019633Y-39954181D01*
X128002096Y-40036961D01*
X128124085Y-40259000D01*
X129667000Y-40259000D01*
X129667000Y-37973000D01*
X128124085Y-37973000D01*
X128002096Y-38195039D01*
X124790200Y-38195039D01*
X124790200Y-32083594D01*
X126068697Y-30805097D01*
X126124485Y-30721604D01*
X126250396Y-30533165D01*
X126266254Y-30453440D01*
X126326000Y-30453440D01*
X126561317Y-30409162D01*
X126777441Y-30270090D01*
X126922431Y-30057890D01*
X126936086Y-29990459D01*
X126965946Y-30035147D01*
X127447715Y-30357054D01*
X128016000Y-30470093D01*
X128584285Y-30357054D01*
X129066054Y-30035147D01*
X129286000Y-29705974D01*
X129505946Y-30035147D01*
G36*
X173355000Y-53975000D02*
X173375000Y-53975000D01*
X173375000Y-54229000D01*
X173355000Y-54229000D01*
X173355000Y-54249000D01*
X173101000Y-54249000D01*
X173101000Y-54229000D01*
X173081000Y-54229000D01*
X173081000Y-53975000D01*
X173101000Y-53975000D01*
X173101000Y-53955000D01*
X173355000Y-53955000D01*
X173355000Y-53975000D01*
X173355000Y-53975000D01*
G37*
X173355000Y-53975000D02*
X173375000Y-53975000D01*
X173375000Y-54229000D01*
X173355000Y-54229000D01*
X173355000Y-54249000D01*
X173101000Y-54249000D01*
X173101000Y-54229000D01*
X173081000Y-54229000D01*
X173081000Y-53975000D01*
X173101000Y-53975000D01*
X173101000Y-53955000D01*
X173355000Y-53955000D01*
X173355000Y-53975000D01*
M02*
