M48
;DRILL file {KiCad 4.0.5+dfsg1-4} date Sat Jun 16 18:21:42 2018
;FORMAT={-:-/ absolute / inch / decimal}
FMAT,2
INCH,TZ
T1C0.031
T2C0.032
T3C0.035
T4C0.039
T5C0.043
T6C0.047
T7C0.091
%
G90
G05
M72
T1
X4.345Y-2.51
X4.445Y-2.51
X4.545Y-2.51
X4.665Y-2.51
X4.7634Y-2.51
X4.88Y-3.005
X4.94Y-1.59
X4.94Y-1.6884
X4.9784Y-3.005
X5.0666Y-3.005
X5.11Y-1.39
X5.11Y-1.49
X5.11Y-1.59
X5.11Y-1.69
X5.11Y-1.79
X5.11Y-1.89
X5.11Y-1.99
X5.165Y-3.005
X5.41Y-1.39
X5.41Y-1.49
X5.41Y-1.59
X5.41Y-1.69
X5.41Y-1.79
X5.41Y-1.89
X5.41Y-1.99
X5.41Y-2.29
X5.41Y-2.59
X5.51Y-2.29
X5.51Y-2.59
X5.58Y-1.35
X5.58Y-1.48
X5.58Y-1.61
X5.58Y-1.725
X5.58Y-1.8234
X5.61Y-2.29
X5.61Y-2.59
X5.71Y-2.29
X5.71Y-2.59
X5.7679Y-2.09
X5.775Y-1.8221
X5.775Y-1.9206
X5.81Y-2.29
X5.81Y-2.59
X5.88Y-1.35
X5.88Y-1.48
X5.88Y-1.61
X5.91Y-2.29
X5.91Y-2.59
X5.95Y-1.82
X5.95Y-1.9184
X5.96Y-2.09
X6.01Y-2.29
X6.01Y-2.59
X6.11Y-2.29
X6.11Y-2.59
X6.19Y-2.0416
X6.19Y-2.14
X6.21Y-2.29
X6.21Y-2.59
X6.31Y-2.29
X6.31Y-2.59
X6.41Y-2.29
X6.41Y-2.59
X6.51Y-2.29
X6.51Y-2.59
X6.58Y-1.83
X6.58Y-2.13
X6.61Y-2.29
X6.61Y-2.59
X6.71Y-2.29
X6.71Y-2.59
T2
X4.62Y-1.57
X4.62Y-1.67
X4.6987Y-1.57
X4.6987Y-1.67
T3
X6.1Y-1.61
X6.2Y-1.61
T4
X4.935Y-2.9
X4.94Y-1.14
X5.035Y-2.9
X5.04Y-1.14
X5.135Y-2.9
X5.14Y-1.14
X5.24Y-1.14
X5.3Y-3.03
X5.34Y-1.14
X5.4Y-3.03
X5.44Y-1.14
X5.5Y-3.03
X5.54Y-1.14
X5.6Y-3.03
X5.64Y-1.14
X5.7Y-3.03
X5.74Y-1.14
X5.8Y-3.03
X5.84Y-1.14
X5.9Y-3.03
X6.Y-1.14
X6.Y-3.03
X6.1Y-1.14
X6.2Y-1.14
X6.2Y-3.03
X6.3Y-1.14
X6.3Y-3.03
X6.4Y-1.14
X6.4Y-3.03
X6.5Y-1.14
X6.5Y-3.03
X6.6Y-1.14
X6.6Y-3.03
X6.7Y-1.14
X6.7Y-3.03
X6.72Y-1.93
X6.72Y-2.03
X6.72Y-2.13
X6.82Y-1.93
X6.82Y-2.03
X6.82Y-2.13
T5
X4.29Y-2.0041
X4.29Y-2.26
X4.4672Y-2.0041
X4.4672Y-2.26
T6
X4.7Y-1.955
X4.7Y-2.355
T7
X4.5137Y-1.3838
X4.5137Y-1.8562
T4
X4.42Y-2.7556G85X4.42Y-2.8344
G05
X4.4987Y-2.98G85X4.5775Y-2.98
G05
X4.6562Y-2.7556G85X4.6562Y-2.8344
G05
T0
M30
