G04 #@! TF.FileFunction,Copper,L2,Bot,Signal*
%FSLAX46Y46*%
G04 Gerber Fmt 4.6, Leading zero omitted, Abs format (unit mm)*
G04 Created by KiCad (PCBNEW 4.0.5+dfsg1-4) date Sun Jun 17 23:04:47 2018*
%MOMM*%
%LPD*%
G01*
G04 APERTURE LIST*
%ADD10C,0.100000*%
%ADD11R,0.500000X0.600000*%
%ADD12R,0.600000X0.400000*%
%ADD13R,0.700000X0.250000*%
%ADD14R,0.250000X0.700000*%
%ADD15R,1.800000X1.200000*%
%ADD16R,1.400000X1.000000*%
%ADD17C,0.600000*%
%ADD18C,0.203200*%
G04 APERTURE END LIST*
D10*
D11*
X170561000Y-92541000D03*
X170561000Y-93641000D03*
X162941000Y-92583000D03*
X162941000Y-93683000D03*
X168910000Y-100372000D03*
X168910000Y-99272000D03*
X162941000Y-96435000D03*
X162941000Y-95335000D03*
D12*
X167513000Y-99187000D03*
X167513000Y-100087000D03*
X166116000Y-99176000D03*
X166116000Y-100076000D03*
D13*
X164364000Y-97123000D03*
X164364000Y-96623000D03*
X164364000Y-96123000D03*
X164364000Y-95623000D03*
X164364000Y-95123000D03*
X164364000Y-94623000D03*
X164364000Y-94123000D03*
X164364000Y-93623000D03*
D14*
X165014000Y-92973000D03*
X165514000Y-92973000D03*
X166014000Y-92973000D03*
X166514000Y-92973000D03*
X167014000Y-92973000D03*
X167514000Y-92973000D03*
X168014000Y-92973000D03*
X168514000Y-92973000D03*
D13*
X169164000Y-93623000D03*
X169164000Y-94123000D03*
X169164000Y-94623000D03*
X169164000Y-95123000D03*
X169164000Y-95623000D03*
X169164000Y-96123000D03*
X169164000Y-96623000D03*
X169164000Y-97123000D03*
D14*
X168514000Y-97773000D03*
X168014000Y-97773000D03*
X167514000Y-97773000D03*
X167014000Y-97773000D03*
X166514000Y-97773000D03*
X166014000Y-97773000D03*
X165514000Y-97773000D03*
X165014000Y-97773000D03*
D15*
X164751000Y-90735000D03*
X168751000Y-90735000D03*
X168751000Y-88335000D03*
X164751000Y-88335000D03*
D16*
X164929000Y-103378000D03*
X164929000Y-101978000D03*
X168529000Y-103378000D03*
X168529000Y-101978000D03*
D17*
X167513000Y-100838000D03*
X166116000Y-100838000D03*
X170561000Y-100838000D03*
X162941000Y-100838000D03*
D18*
X167513000Y-100087000D02*
X167513000Y-100838000D01*
X166116000Y-100076000D02*
X166116000Y-100838000D01*
X164751000Y-88335000D02*
X165854200Y-88335000D01*
X165854200Y-88335000D02*
X165911200Y-88392000D01*
X165911200Y-88392000D02*
X166370000Y-88392000D01*
X166370000Y-88392000D02*
X167513000Y-89535000D01*
X167513000Y-89535000D02*
X169599642Y-89535000D01*
X169599642Y-89535000D02*
X170561000Y-90496358D01*
X170561000Y-90496358D02*
X170561000Y-92037800D01*
X170561000Y-92037800D02*
X170561000Y-92541000D01*
X161573379Y-90090979D02*
X163329358Y-88335000D01*
X163329358Y-88335000D02*
X164751000Y-88335000D01*
X164364000Y-97123000D02*
X164139000Y-97123000D01*
X164139000Y-97123000D02*
X163815789Y-97446211D01*
X163815789Y-97446211D02*
X162278818Y-97446210D01*
X162278818Y-97446210D02*
X161573379Y-96740771D01*
X161573379Y-96740771D02*
X161573379Y-90090979D01*
X168910000Y-100372000D02*
X168910000Y-101597000D01*
X168910000Y-101597000D02*
X168529000Y-101978000D01*
X162941000Y-93683000D02*
X162941000Y-94186200D01*
X162941000Y-94186200D02*
X162386199Y-94741001D01*
X162386199Y-94741001D02*
X162386199Y-95830199D01*
X162386199Y-95830199D02*
X162941000Y-96385000D01*
X162941000Y-96385000D02*
X162941000Y-96435000D01*
X163253000Y-96123000D02*
X164364000Y-96123000D01*
X162941000Y-96435000D02*
X163253000Y-96123000D01*
X163703000Y-89535000D02*
X162941000Y-90297000D01*
X162941000Y-90297000D02*
X162941000Y-90496358D01*
X166447800Y-89535000D02*
X163703000Y-89535000D01*
X168751000Y-90735000D02*
X167647800Y-90735000D01*
X167647800Y-90735000D02*
X166447800Y-89535000D01*
X162941000Y-92583000D02*
X162941000Y-90496358D01*
X164364000Y-96623000D02*
X163810800Y-96623000D01*
X163810800Y-96623000D02*
X163393999Y-97039801D01*
X163393999Y-97039801D02*
X162447159Y-97039801D01*
X162447159Y-97039801D02*
X161979789Y-96572431D01*
X161979789Y-96572431D02*
X161979789Y-93091011D01*
X162487800Y-92583000D02*
X162941000Y-92583000D01*
X161979789Y-93091011D02*
X162487800Y-92583000D01*
X168910000Y-99272000D02*
X168910000Y-98768800D01*
X167514000Y-98326200D02*
X167514000Y-97773000D01*
X168910000Y-98768800D02*
X168569001Y-98427801D01*
X168569001Y-98427801D02*
X167615601Y-98427801D01*
X167615601Y-98427801D02*
X167514000Y-98326200D01*
X165514000Y-97773000D02*
X165514000Y-96219800D01*
X165514000Y-96219800D02*
X164917200Y-95623000D01*
X164917200Y-95623000D02*
X164364000Y-95623000D01*
X165014000Y-97773000D02*
X165514000Y-97773000D01*
X162941000Y-100838000D02*
X165014000Y-98765000D01*
X165014000Y-98765000D02*
X165014000Y-97773000D01*
X162941000Y-95335000D02*
X163229000Y-95623000D01*
X163229000Y-95623000D02*
X164364000Y-95623000D01*
X167513000Y-99187000D02*
X166514000Y-98188000D01*
X166514000Y-98188000D02*
X166514000Y-97773000D01*
X166116000Y-99176000D02*
X166014000Y-99074000D01*
X166014000Y-99074000D02*
X166014000Y-97773000D01*
X168529000Y-103378000D02*
X164929000Y-103378000D01*
X169464801Y-100918199D02*
X169533801Y-100987199D01*
X169533801Y-103276399D02*
X169432200Y-103378000D01*
X169533801Y-100987199D02*
X169533801Y-103276399D01*
X169432200Y-103378000D02*
X168529000Y-103378000D01*
X169164000Y-97123000D02*
X169164000Y-97451200D01*
X169164000Y-97451200D02*
X169464801Y-97752001D01*
X169464801Y-97752001D02*
X169464801Y-100918199D01*
G36*
X172364400Y-88016340D02*
X172340200Y-88138000D01*
X172340200Y-100330000D01*
X172364400Y-100451660D01*
X172364400Y-101732340D01*
X172340200Y-101854000D01*
X172364400Y-101975660D01*
X172364400Y-104014200D01*
X169504838Y-104014200D01*
X169515287Y-103998907D01*
X169539771Y-103878000D01*
X169539771Y-103763003D01*
X169587723Y-103753465D01*
X169719568Y-103665368D01*
X169821170Y-103563767D01*
X169909267Y-103431921D01*
X169940201Y-103276399D01*
X169940201Y-100987199D01*
X169909266Y-100831676D01*
X169871201Y-100774708D01*
X169871201Y-97752001D01*
X169840266Y-97596478D01*
X169752169Y-97464633D01*
X169741898Y-97454362D01*
X169800287Y-97368907D01*
X169824771Y-97248000D01*
X169824771Y-96998000D01*
X169803518Y-96885048D01*
X169796602Y-96874300D01*
X169800287Y-96868907D01*
X169824771Y-96748000D01*
X169824771Y-96498000D01*
X169803518Y-96385048D01*
X169796602Y-96374300D01*
X169800287Y-96368907D01*
X169824771Y-96248000D01*
X169824771Y-95998000D01*
X169803518Y-95885048D01*
X169796602Y-95874300D01*
X169800287Y-95868907D01*
X169824771Y-95748000D01*
X169824771Y-95498000D01*
X169803518Y-95385048D01*
X169796602Y-95374300D01*
X169800287Y-95368907D01*
X169824771Y-95248000D01*
X169824771Y-94998000D01*
X169803518Y-94885048D01*
X169796602Y-94874300D01*
X169800287Y-94868907D01*
X169824771Y-94748000D01*
X169824771Y-94498000D01*
X169803518Y-94385048D01*
X169796602Y-94374300D01*
X169800287Y-94368907D01*
X169824771Y-94248000D01*
X169824771Y-93998000D01*
X169803518Y-93885048D01*
X169796602Y-93874300D01*
X169800287Y-93868907D01*
X169800632Y-93867200D01*
X170006200Y-93867200D01*
X170006200Y-94001628D01*
X170052603Y-94113655D01*
X170138344Y-94199397D01*
X170250371Y-94245800D01*
X170359800Y-94245800D01*
X170436000Y-94169600D01*
X170436000Y-93791000D01*
X170686000Y-93791000D01*
X170686000Y-94169600D01*
X170762200Y-94245800D01*
X170871629Y-94245800D01*
X170983656Y-94199397D01*
X171069397Y-94113655D01*
X171115800Y-94001628D01*
X171115800Y-93867200D01*
X171039600Y-93791000D01*
X170686000Y-93791000D01*
X170436000Y-93791000D01*
X170082400Y-93791000D01*
X170006200Y-93867200D01*
X169800632Y-93867200D01*
X169824771Y-93748000D01*
X169824771Y-93498000D01*
X169803518Y-93385048D01*
X169736763Y-93281308D01*
X169634907Y-93211713D01*
X169514000Y-93187229D01*
X168949771Y-93187229D01*
X168949771Y-92623000D01*
X168928518Y-92510048D01*
X168861763Y-92406308D01*
X168759907Y-92336713D01*
X168639000Y-92312229D01*
X168389000Y-92312229D01*
X168276048Y-92333482D01*
X168265300Y-92340398D01*
X168259907Y-92336713D01*
X168139000Y-92312229D01*
X167889000Y-92312229D01*
X167776048Y-92333482D01*
X167765300Y-92340398D01*
X167759907Y-92336713D01*
X167639000Y-92312229D01*
X167389000Y-92312229D01*
X167276048Y-92333482D01*
X167260569Y-92343442D01*
X167199629Y-92318200D01*
X167152700Y-92318200D01*
X167076500Y-92394400D01*
X167076500Y-92820600D01*
X167078229Y-92820600D01*
X167078229Y-93125400D01*
X167076500Y-93125400D01*
X167076500Y-93551600D01*
X167152700Y-93627800D01*
X167199629Y-93627800D01*
X167259122Y-93603157D01*
X167268093Y-93609287D01*
X167389000Y-93633771D01*
X167639000Y-93633771D01*
X167751952Y-93612518D01*
X167762700Y-93605602D01*
X167768093Y-93609287D01*
X167889000Y-93633771D01*
X168139000Y-93633771D01*
X168251952Y-93612518D01*
X168262700Y-93605602D01*
X168268093Y-93609287D01*
X168389000Y-93633771D01*
X168503229Y-93633771D01*
X168503229Y-93748000D01*
X168524482Y-93860952D01*
X168531398Y-93871700D01*
X168527713Y-93877093D01*
X168503229Y-93998000D01*
X168503229Y-94248000D01*
X168524482Y-94360952D01*
X168531398Y-94371700D01*
X168527713Y-94377093D01*
X168503229Y-94498000D01*
X168503229Y-94748000D01*
X168524482Y-94860952D01*
X168531398Y-94871700D01*
X168527713Y-94877093D01*
X168503229Y-94998000D01*
X168503229Y-95248000D01*
X168524482Y-95360952D01*
X168531398Y-95371700D01*
X168527713Y-95377093D01*
X168503229Y-95498000D01*
X168503229Y-95748000D01*
X168524482Y-95860952D01*
X168531398Y-95871700D01*
X168527713Y-95877093D01*
X168503229Y-95998000D01*
X168503229Y-96248000D01*
X168524482Y-96360952D01*
X168531398Y-96371700D01*
X168527713Y-96377093D01*
X168503229Y-96498000D01*
X168503229Y-96748000D01*
X168524482Y-96860952D01*
X168531398Y-96871700D01*
X168527713Y-96877093D01*
X168503229Y-96998000D01*
X168503229Y-97112229D01*
X168389000Y-97112229D01*
X168276048Y-97133482D01*
X168265300Y-97140398D01*
X168259907Y-97136713D01*
X168139000Y-97112229D01*
X167889000Y-97112229D01*
X167776048Y-97133482D01*
X167765300Y-97140398D01*
X167759907Y-97136713D01*
X167639000Y-97112229D01*
X167389000Y-97112229D01*
X167276048Y-97133482D01*
X167260569Y-97143442D01*
X167199629Y-97118200D01*
X167152700Y-97118200D01*
X167076500Y-97194400D01*
X167076500Y-97620600D01*
X167078229Y-97620600D01*
X167078229Y-97925400D01*
X167076500Y-97925400D01*
X167076500Y-97945400D01*
X166951500Y-97945400D01*
X166951500Y-97925400D01*
X166949771Y-97925400D01*
X166949771Y-97620600D01*
X166951500Y-97620600D01*
X166951500Y-97194400D01*
X166875300Y-97118200D01*
X166828371Y-97118200D01*
X166768878Y-97142843D01*
X166759907Y-97136713D01*
X166639000Y-97112229D01*
X166389000Y-97112229D01*
X166276048Y-97133482D01*
X166265300Y-97140398D01*
X166259907Y-97136713D01*
X166139000Y-97112229D01*
X165920400Y-97112229D01*
X165920400Y-96219800D01*
X165889465Y-96064277D01*
X165801368Y-95932432D01*
X165204568Y-95335632D01*
X165123267Y-95281308D01*
X165072723Y-95247535D01*
X165024771Y-95237997D01*
X165024771Y-94998000D01*
X165003518Y-94885048D01*
X164996602Y-94874300D01*
X165000287Y-94868907D01*
X165024771Y-94748000D01*
X165024771Y-94498000D01*
X165003518Y-94385048D01*
X164996602Y-94374300D01*
X165000287Y-94368907D01*
X165024771Y-94248000D01*
X165024771Y-93998000D01*
X165003518Y-93885048D01*
X164996602Y-93874300D01*
X165000287Y-93868907D01*
X165024771Y-93748000D01*
X165024771Y-93633771D01*
X165139000Y-93633771D01*
X165251952Y-93612518D01*
X165262700Y-93605602D01*
X165268093Y-93609287D01*
X165389000Y-93633771D01*
X165639000Y-93633771D01*
X165751952Y-93612518D01*
X165762700Y-93605602D01*
X165768093Y-93609287D01*
X165889000Y-93633771D01*
X166139000Y-93633771D01*
X166251952Y-93612518D01*
X166262700Y-93605602D01*
X166268093Y-93609287D01*
X166389000Y-93633771D01*
X166639000Y-93633771D01*
X166751952Y-93612518D01*
X166767431Y-93602558D01*
X166828371Y-93627800D01*
X166875300Y-93627800D01*
X166951500Y-93551600D01*
X166951500Y-93125400D01*
X166949771Y-93125400D01*
X166949771Y-92820600D01*
X166951500Y-92820600D01*
X166951500Y-92394400D01*
X166875300Y-92318200D01*
X166828371Y-92318200D01*
X166768878Y-92342843D01*
X166759907Y-92336713D01*
X166639000Y-92312229D01*
X166389000Y-92312229D01*
X166276048Y-92333482D01*
X166265300Y-92340398D01*
X166259907Y-92336713D01*
X166139000Y-92312229D01*
X165889000Y-92312229D01*
X165776048Y-92333482D01*
X165765300Y-92340398D01*
X165759907Y-92336713D01*
X165639000Y-92312229D01*
X165389000Y-92312229D01*
X165276048Y-92333482D01*
X165265300Y-92340398D01*
X165259907Y-92336713D01*
X165139000Y-92312229D01*
X164889000Y-92312229D01*
X164776048Y-92333482D01*
X164672308Y-92400237D01*
X164602713Y-92502093D01*
X164578229Y-92623000D01*
X164578229Y-93187229D01*
X164014000Y-93187229D01*
X163901048Y-93208482D01*
X163797308Y-93275237D01*
X163727713Y-93377093D01*
X163703229Y-93498000D01*
X163703229Y-93748000D01*
X163724482Y-93860952D01*
X163731398Y-93871700D01*
X163727713Y-93877093D01*
X163703229Y-93998000D01*
X163703229Y-94248000D01*
X163724482Y-94360952D01*
X163731398Y-94371700D01*
X163727713Y-94377093D01*
X163703229Y-94498000D01*
X163703229Y-94748000D01*
X163724482Y-94860952D01*
X163731398Y-94871700D01*
X163727713Y-94877093D01*
X163703229Y-94998000D01*
X163703229Y-95216600D01*
X163501771Y-95216600D01*
X163501771Y-95035000D01*
X163480518Y-94922048D01*
X163413763Y-94818308D01*
X163311907Y-94748713D01*
X163191000Y-94724229D01*
X162691000Y-94724229D01*
X162578048Y-94745482D01*
X162474308Y-94812237D01*
X162404713Y-94914093D01*
X162386189Y-95005568D01*
X162386189Y-93909200D01*
X162386200Y-93909200D01*
X162386200Y-94043628D01*
X162432603Y-94155655D01*
X162518344Y-94241397D01*
X162630371Y-94287800D01*
X162739800Y-94287800D01*
X162816000Y-94211600D01*
X162816000Y-93833000D01*
X163066000Y-93833000D01*
X163066000Y-94211600D01*
X163142200Y-94287800D01*
X163251629Y-94287800D01*
X163363656Y-94241397D01*
X163449397Y-94155655D01*
X163495800Y-94043628D01*
X163495800Y-93909200D01*
X163419600Y-93833000D01*
X163066000Y-93833000D01*
X162816000Y-93833000D01*
X162462400Y-93833000D01*
X162386200Y-93909200D01*
X162386189Y-93909200D01*
X162386189Y-93259347D01*
X162430773Y-93214763D01*
X162386200Y-93322372D01*
X162386200Y-93456800D01*
X162462400Y-93533000D01*
X162816000Y-93533000D01*
X162816000Y-93510600D01*
X163066000Y-93510600D01*
X163066000Y-93533000D01*
X163419600Y-93533000D01*
X163495800Y-93456800D01*
X163495800Y-93322372D01*
X163449397Y-93210345D01*
X163369434Y-93130381D01*
X163407692Y-93105763D01*
X163477287Y-93003907D01*
X163501771Y-92883000D01*
X163501771Y-92283000D01*
X163480518Y-92170048D01*
X163413763Y-92066308D01*
X163347400Y-92020964D01*
X163347400Y-90963600D01*
X163546200Y-90963600D01*
X163546200Y-91395629D01*
X163592603Y-91507656D01*
X163678345Y-91593397D01*
X163790372Y-91639800D01*
X164522400Y-91639800D01*
X164598600Y-91563600D01*
X164598600Y-90887400D01*
X164903400Y-90887400D01*
X164903400Y-91563600D01*
X164979600Y-91639800D01*
X165711628Y-91639800D01*
X165823655Y-91593397D01*
X165909397Y-91507656D01*
X165955800Y-91395629D01*
X165955800Y-90963600D01*
X165879600Y-90887400D01*
X164903400Y-90887400D01*
X164598600Y-90887400D01*
X163622400Y-90887400D01*
X163546200Y-90963600D01*
X163347400Y-90963600D01*
X163347400Y-90465336D01*
X163546200Y-90266536D01*
X163546200Y-90506400D01*
X163622400Y-90582600D01*
X164598600Y-90582600D01*
X164598600Y-90562600D01*
X164903400Y-90562600D01*
X164903400Y-90582600D01*
X165879600Y-90582600D01*
X165955800Y-90506400D01*
X165955800Y-90074371D01*
X165909397Y-89962344D01*
X165888453Y-89941400D01*
X166279464Y-89941400D01*
X167360432Y-91022368D01*
X167492277Y-91110465D01*
X167540229Y-91120003D01*
X167540229Y-91335000D01*
X167561482Y-91447952D01*
X167628237Y-91551692D01*
X167730093Y-91621287D01*
X167851000Y-91645771D01*
X169651000Y-91645771D01*
X169763952Y-91624518D01*
X169867692Y-91557763D01*
X169937287Y-91455907D01*
X169961771Y-91335000D01*
X169961771Y-90471866D01*
X170154600Y-90664695D01*
X170154600Y-91979440D01*
X170094308Y-92018237D01*
X170024713Y-92120093D01*
X170000229Y-92241000D01*
X170000229Y-92841000D01*
X170021482Y-92953952D01*
X170088237Y-93057692D01*
X170132804Y-93088143D01*
X170052603Y-93168345D01*
X170006200Y-93280372D01*
X170006200Y-93414800D01*
X170082400Y-93491000D01*
X170436000Y-93491000D01*
X170436000Y-93468600D01*
X170686000Y-93468600D01*
X170686000Y-93491000D01*
X171039600Y-93491000D01*
X171115800Y-93414800D01*
X171115800Y-93280372D01*
X171069397Y-93168345D01*
X170989434Y-93088381D01*
X171027692Y-93063763D01*
X171097287Y-92961907D01*
X171121771Y-92841000D01*
X171121771Y-92241000D01*
X171100518Y-92128048D01*
X171033763Y-92024308D01*
X170967400Y-91978964D01*
X170967400Y-90496358D01*
X170957708Y-90447632D01*
X170936466Y-90340836D01*
X170848369Y-90208990D01*
X169887010Y-89247632D01*
X169812659Y-89197952D01*
X169823655Y-89193397D01*
X169909397Y-89107656D01*
X169955800Y-88995629D01*
X169955800Y-88563600D01*
X169879600Y-88487400D01*
X168903400Y-88487400D01*
X168903400Y-88507400D01*
X168598600Y-88507400D01*
X168598600Y-88487400D01*
X167622400Y-88487400D01*
X167546200Y-88563600D01*
X167546200Y-88993464D01*
X166657368Y-88104632D01*
X166617756Y-88078164D01*
X166525523Y-88016535D01*
X166370000Y-87985600D01*
X166048732Y-87985600D01*
X166009723Y-87959535D01*
X165961771Y-87949997D01*
X165961771Y-87735000D01*
X165950364Y-87674371D01*
X167546200Y-87674371D01*
X167546200Y-88106400D01*
X167622400Y-88182600D01*
X168598600Y-88182600D01*
X168598600Y-87506400D01*
X168903400Y-87506400D01*
X168903400Y-88182600D01*
X169879600Y-88182600D01*
X169955800Y-88106400D01*
X169955800Y-87674371D01*
X169909397Y-87562344D01*
X169823655Y-87476603D01*
X169711628Y-87430200D01*
X168979600Y-87430200D01*
X168903400Y-87506400D01*
X168598600Y-87506400D01*
X168522400Y-87430200D01*
X167790372Y-87430200D01*
X167678345Y-87476603D01*
X167592603Y-87562344D01*
X167546200Y-87674371D01*
X165950364Y-87674371D01*
X165940518Y-87622048D01*
X165873763Y-87518308D01*
X165771907Y-87448713D01*
X165651000Y-87424229D01*
X163851000Y-87424229D01*
X163738048Y-87445482D01*
X163634308Y-87512237D01*
X163564713Y-87614093D01*
X163540229Y-87735000D01*
X163540229Y-87928600D01*
X163329358Y-87928600D01*
X163173835Y-87959535D01*
X163041990Y-88047632D01*
X161286011Y-89803611D01*
X161197914Y-89935456D01*
X161166979Y-90090979D01*
X161166979Y-96740771D01*
X161197914Y-96896294D01*
X161245478Y-96967478D01*
X161286011Y-97028139D01*
X161991450Y-97733578D01*
X162123295Y-97821675D01*
X162278818Y-97852610D01*
X163815789Y-97852611D01*
X163971312Y-97821676D01*
X164103157Y-97733579D01*
X164277965Y-97558771D01*
X164578229Y-97558771D01*
X164578229Y-98123000D01*
X164599482Y-98235952D01*
X164607600Y-98248568D01*
X164607600Y-98596664D01*
X162971038Y-100233226D01*
X162821226Y-100233095D01*
X162598856Y-100324976D01*
X162428574Y-100494961D01*
X162336305Y-100717170D01*
X162336095Y-100957774D01*
X162427976Y-101180144D01*
X162597961Y-101350426D01*
X162820170Y-101442695D01*
X163060774Y-101442905D01*
X163122571Y-101417371D01*
X163924200Y-101417371D01*
X163924200Y-101749400D01*
X164000400Y-101825600D01*
X164776600Y-101825600D01*
X164776600Y-101249400D01*
X164700400Y-101173200D01*
X164168372Y-101173200D01*
X164056345Y-101219603D01*
X163970603Y-101305344D01*
X163924200Y-101417371D01*
X163122571Y-101417371D01*
X163283144Y-101351024D01*
X163453426Y-101181039D01*
X163545695Y-100958830D01*
X163545827Y-100807909D01*
X165301368Y-99052368D01*
X165352396Y-98976000D01*
X165389465Y-98920523D01*
X165420400Y-98765000D01*
X165420400Y-98433771D01*
X165607600Y-98433771D01*
X165607600Y-98747901D01*
X165599308Y-98753237D01*
X165529713Y-98855093D01*
X165505229Y-98976000D01*
X165505229Y-99376000D01*
X165526482Y-99488952D01*
X165593237Y-99592692D01*
X165641815Y-99625884D01*
X165599308Y-99653237D01*
X165529713Y-99755093D01*
X165505229Y-99876000D01*
X165505229Y-100276000D01*
X165526482Y-100388952D01*
X165593237Y-100492692D01*
X165602023Y-100498695D01*
X165511305Y-100717170D01*
X165511095Y-100957774D01*
X165600107Y-101173200D01*
X165157600Y-101173200D01*
X165081400Y-101249400D01*
X165081400Y-101825600D01*
X165857600Y-101825600D01*
X165933800Y-101749400D01*
X165933800Y-101417371D01*
X165933720Y-101417179D01*
X165995170Y-101442695D01*
X166235774Y-101442905D01*
X166458144Y-101351024D01*
X166628426Y-101181039D01*
X166720695Y-100958830D01*
X166720905Y-100718226D01*
X166630743Y-100500017D01*
X166632692Y-100498763D01*
X166702287Y-100396907D01*
X166726771Y-100276000D01*
X166726771Y-99876000D01*
X166705518Y-99763048D01*
X166638763Y-99659308D01*
X166590185Y-99626116D01*
X166632692Y-99598763D01*
X166702287Y-99496907D01*
X166726771Y-99376000D01*
X166726771Y-98976000D01*
X166726657Y-98975393D01*
X166902229Y-99150965D01*
X166902229Y-99387000D01*
X166923482Y-99499952D01*
X166990237Y-99603692D01*
X167038815Y-99636884D01*
X166996308Y-99664237D01*
X166926713Y-99766093D01*
X166902229Y-99887000D01*
X166902229Y-100287000D01*
X166923482Y-100399952D01*
X166990237Y-100503692D01*
X166995465Y-100507264D01*
X166908305Y-100717170D01*
X166908095Y-100957774D01*
X166999976Y-101180144D01*
X167169961Y-101350426D01*
X167392170Y-101442695D01*
X167524200Y-101442810D01*
X167524200Y-101749400D01*
X167600400Y-101825600D01*
X168376600Y-101825600D01*
X168376600Y-101249400D01*
X168300400Y-101173200D01*
X168028681Y-101173200D01*
X168117695Y-100958830D01*
X168117905Y-100718226D01*
X168068312Y-100598200D01*
X168355200Y-100598200D01*
X168355200Y-100732628D01*
X168401603Y-100844655D01*
X168487344Y-100930397D01*
X168599371Y-100976800D01*
X168708800Y-100976800D01*
X168785000Y-100900600D01*
X168785000Y-100522000D01*
X168431400Y-100522000D01*
X168355200Y-100598200D01*
X168068312Y-100598200D01*
X168030987Y-100507868D01*
X168099287Y-100407907D01*
X168123771Y-100287000D01*
X168123771Y-99887000D01*
X168102518Y-99774048D01*
X168035763Y-99670308D01*
X167987185Y-99637116D01*
X168029692Y-99609763D01*
X168099287Y-99507907D01*
X168123771Y-99387000D01*
X168123771Y-98987000D01*
X168102518Y-98874048D01*
X168076877Y-98834201D01*
X168385255Y-98834201D01*
X168373713Y-98851093D01*
X168349229Y-98972000D01*
X168349229Y-99572000D01*
X168370482Y-99684952D01*
X168437237Y-99788692D01*
X168481804Y-99819143D01*
X168401603Y-99899345D01*
X168355200Y-100011372D01*
X168355200Y-100145800D01*
X168431400Y-100222000D01*
X168785000Y-100222000D01*
X168785000Y-100199600D01*
X169035000Y-100199600D01*
X169035000Y-100222000D01*
X169058401Y-100222000D01*
X169058401Y-100522000D01*
X169035000Y-100522000D01*
X169035000Y-100900600D01*
X169059842Y-100925442D01*
X169089336Y-101073722D01*
X169127401Y-101130690D01*
X169127401Y-101173200D01*
X168757600Y-101173200D01*
X168681400Y-101249400D01*
X168681400Y-101825600D01*
X168701400Y-101825600D01*
X168701400Y-102130400D01*
X168681400Y-102130400D01*
X168681400Y-102150400D01*
X168376600Y-102150400D01*
X168376600Y-102130400D01*
X167600400Y-102130400D01*
X167524200Y-102206600D01*
X167524200Y-102538629D01*
X167570603Y-102650656D01*
X167597239Y-102677292D01*
X167542713Y-102757093D01*
X167518229Y-102878000D01*
X167518229Y-102971600D01*
X165939771Y-102971600D01*
X165939771Y-102878000D01*
X165918518Y-102765048D01*
X165861544Y-102676508D01*
X165887397Y-102650656D01*
X165933800Y-102538629D01*
X165933800Y-102206600D01*
X165857600Y-102130400D01*
X165081400Y-102130400D01*
X165081400Y-102150400D01*
X164776600Y-102150400D01*
X164776600Y-102130400D01*
X164000400Y-102130400D01*
X163924200Y-102206600D01*
X163924200Y-102538629D01*
X163970603Y-102650656D01*
X163997239Y-102677292D01*
X163942713Y-102757093D01*
X163918229Y-102878000D01*
X163918229Y-103878000D01*
X163939482Y-103990952D01*
X163954442Y-104014200D01*
X161161800Y-104014200D01*
X161161800Y-85977800D01*
X172364400Y-85977800D01*
X172364400Y-88016340D01*
X172364400Y-88016340D01*
G37*
X172364400Y-88016340D02*
X172340200Y-88138000D01*
X172340200Y-100330000D01*
X172364400Y-100451660D01*
X172364400Y-101732340D01*
X172340200Y-101854000D01*
X172364400Y-101975660D01*
X172364400Y-104014200D01*
X169504838Y-104014200D01*
X169515287Y-103998907D01*
X169539771Y-103878000D01*
X169539771Y-103763003D01*
X169587723Y-103753465D01*
X169719568Y-103665368D01*
X169821170Y-103563767D01*
X169909267Y-103431921D01*
X169940201Y-103276399D01*
X169940201Y-100987199D01*
X169909266Y-100831676D01*
X169871201Y-100774708D01*
X169871201Y-97752001D01*
X169840266Y-97596478D01*
X169752169Y-97464633D01*
X169741898Y-97454362D01*
X169800287Y-97368907D01*
X169824771Y-97248000D01*
X169824771Y-96998000D01*
X169803518Y-96885048D01*
X169796602Y-96874300D01*
X169800287Y-96868907D01*
X169824771Y-96748000D01*
X169824771Y-96498000D01*
X169803518Y-96385048D01*
X169796602Y-96374300D01*
X169800287Y-96368907D01*
X169824771Y-96248000D01*
X169824771Y-95998000D01*
X169803518Y-95885048D01*
X169796602Y-95874300D01*
X169800287Y-95868907D01*
X169824771Y-95748000D01*
X169824771Y-95498000D01*
X169803518Y-95385048D01*
X169796602Y-95374300D01*
X169800287Y-95368907D01*
X169824771Y-95248000D01*
X169824771Y-94998000D01*
X169803518Y-94885048D01*
X169796602Y-94874300D01*
X169800287Y-94868907D01*
X169824771Y-94748000D01*
X169824771Y-94498000D01*
X169803518Y-94385048D01*
X169796602Y-94374300D01*
X169800287Y-94368907D01*
X169824771Y-94248000D01*
X169824771Y-93998000D01*
X169803518Y-93885048D01*
X169796602Y-93874300D01*
X169800287Y-93868907D01*
X169800632Y-93867200D01*
X170006200Y-93867200D01*
X170006200Y-94001628D01*
X170052603Y-94113655D01*
X170138344Y-94199397D01*
X170250371Y-94245800D01*
X170359800Y-94245800D01*
X170436000Y-94169600D01*
X170436000Y-93791000D01*
X170686000Y-93791000D01*
X170686000Y-94169600D01*
X170762200Y-94245800D01*
X170871629Y-94245800D01*
X170983656Y-94199397D01*
X171069397Y-94113655D01*
X171115800Y-94001628D01*
X171115800Y-93867200D01*
X171039600Y-93791000D01*
X170686000Y-93791000D01*
X170436000Y-93791000D01*
X170082400Y-93791000D01*
X170006200Y-93867200D01*
X169800632Y-93867200D01*
X169824771Y-93748000D01*
X169824771Y-93498000D01*
X169803518Y-93385048D01*
X169736763Y-93281308D01*
X169634907Y-93211713D01*
X169514000Y-93187229D01*
X168949771Y-93187229D01*
X168949771Y-92623000D01*
X168928518Y-92510048D01*
X168861763Y-92406308D01*
X168759907Y-92336713D01*
X168639000Y-92312229D01*
X168389000Y-92312229D01*
X168276048Y-92333482D01*
X168265300Y-92340398D01*
X168259907Y-92336713D01*
X168139000Y-92312229D01*
X167889000Y-92312229D01*
X167776048Y-92333482D01*
X167765300Y-92340398D01*
X167759907Y-92336713D01*
X167639000Y-92312229D01*
X167389000Y-92312229D01*
X167276048Y-92333482D01*
X167260569Y-92343442D01*
X167199629Y-92318200D01*
X167152700Y-92318200D01*
X167076500Y-92394400D01*
X167076500Y-92820600D01*
X167078229Y-92820600D01*
X167078229Y-93125400D01*
X167076500Y-93125400D01*
X167076500Y-93551600D01*
X167152700Y-93627800D01*
X167199629Y-93627800D01*
X167259122Y-93603157D01*
X167268093Y-93609287D01*
X167389000Y-93633771D01*
X167639000Y-93633771D01*
X167751952Y-93612518D01*
X167762700Y-93605602D01*
X167768093Y-93609287D01*
X167889000Y-93633771D01*
X168139000Y-93633771D01*
X168251952Y-93612518D01*
X168262700Y-93605602D01*
X168268093Y-93609287D01*
X168389000Y-93633771D01*
X168503229Y-93633771D01*
X168503229Y-93748000D01*
X168524482Y-93860952D01*
X168531398Y-93871700D01*
X168527713Y-93877093D01*
X168503229Y-93998000D01*
X168503229Y-94248000D01*
X168524482Y-94360952D01*
X168531398Y-94371700D01*
X168527713Y-94377093D01*
X168503229Y-94498000D01*
X168503229Y-94748000D01*
X168524482Y-94860952D01*
X168531398Y-94871700D01*
X168527713Y-94877093D01*
X168503229Y-94998000D01*
X168503229Y-95248000D01*
X168524482Y-95360952D01*
X168531398Y-95371700D01*
X168527713Y-95377093D01*
X168503229Y-95498000D01*
X168503229Y-95748000D01*
X168524482Y-95860952D01*
X168531398Y-95871700D01*
X168527713Y-95877093D01*
X168503229Y-95998000D01*
X168503229Y-96248000D01*
X168524482Y-96360952D01*
X168531398Y-96371700D01*
X168527713Y-96377093D01*
X168503229Y-96498000D01*
X168503229Y-96748000D01*
X168524482Y-96860952D01*
X168531398Y-96871700D01*
X168527713Y-96877093D01*
X168503229Y-96998000D01*
X168503229Y-97112229D01*
X168389000Y-97112229D01*
X168276048Y-97133482D01*
X168265300Y-97140398D01*
X168259907Y-97136713D01*
X168139000Y-97112229D01*
X167889000Y-97112229D01*
X167776048Y-97133482D01*
X167765300Y-97140398D01*
X167759907Y-97136713D01*
X167639000Y-97112229D01*
X167389000Y-97112229D01*
X167276048Y-97133482D01*
X167260569Y-97143442D01*
X167199629Y-97118200D01*
X167152700Y-97118200D01*
X167076500Y-97194400D01*
X167076500Y-97620600D01*
X167078229Y-97620600D01*
X167078229Y-97925400D01*
X167076500Y-97925400D01*
X167076500Y-97945400D01*
X166951500Y-97945400D01*
X166951500Y-97925400D01*
X166949771Y-97925400D01*
X166949771Y-97620600D01*
X166951500Y-97620600D01*
X166951500Y-97194400D01*
X166875300Y-97118200D01*
X166828371Y-97118200D01*
X166768878Y-97142843D01*
X166759907Y-97136713D01*
X166639000Y-97112229D01*
X166389000Y-97112229D01*
X166276048Y-97133482D01*
X166265300Y-97140398D01*
X166259907Y-97136713D01*
X166139000Y-97112229D01*
X165920400Y-97112229D01*
X165920400Y-96219800D01*
X165889465Y-96064277D01*
X165801368Y-95932432D01*
X165204568Y-95335632D01*
X165123267Y-95281308D01*
X165072723Y-95247535D01*
X165024771Y-95237997D01*
X165024771Y-94998000D01*
X165003518Y-94885048D01*
X164996602Y-94874300D01*
X165000287Y-94868907D01*
X165024771Y-94748000D01*
X165024771Y-94498000D01*
X165003518Y-94385048D01*
X164996602Y-94374300D01*
X165000287Y-94368907D01*
X165024771Y-94248000D01*
X165024771Y-93998000D01*
X165003518Y-93885048D01*
X164996602Y-93874300D01*
X165000287Y-93868907D01*
X165024771Y-93748000D01*
X165024771Y-93633771D01*
X165139000Y-93633771D01*
X165251952Y-93612518D01*
X165262700Y-93605602D01*
X165268093Y-93609287D01*
X165389000Y-93633771D01*
X165639000Y-93633771D01*
X165751952Y-93612518D01*
X165762700Y-93605602D01*
X165768093Y-93609287D01*
X165889000Y-93633771D01*
X166139000Y-93633771D01*
X166251952Y-93612518D01*
X166262700Y-93605602D01*
X166268093Y-93609287D01*
X166389000Y-93633771D01*
X166639000Y-93633771D01*
X166751952Y-93612518D01*
X166767431Y-93602558D01*
X166828371Y-93627800D01*
X166875300Y-93627800D01*
X166951500Y-93551600D01*
X166951500Y-93125400D01*
X166949771Y-93125400D01*
X166949771Y-92820600D01*
X166951500Y-92820600D01*
X166951500Y-92394400D01*
X166875300Y-92318200D01*
X166828371Y-92318200D01*
X166768878Y-92342843D01*
X166759907Y-92336713D01*
X166639000Y-92312229D01*
X166389000Y-92312229D01*
X166276048Y-92333482D01*
X166265300Y-92340398D01*
X166259907Y-92336713D01*
X166139000Y-92312229D01*
X165889000Y-92312229D01*
X165776048Y-92333482D01*
X165765300Y-92340398D01*
X165759907Y-92336713D01*
X165639000Y-92312229D01*
X165389000Y-92312229D01*
X165276048Y-92333482D01*
X165265300Y-92340398D01*
X165259907Y-92336713D01*
X165139000Y-92312229D01*
X164889000Y-92312229D01*
X164776048Y-92333482D01*
X164672308Y-92400237D01*
X164602713Y-92502093D01*
X164578229Y-92623000D01*
X164578229Y-93187229D01*
X164014000Y-93187229D01*
X163901048Y-93208482D01*
X163797308Y-93275237D01*
X163727713Y-93377093D01*
X163703229Y-93498000D01*
X163703229Y-93748000D01*
X163724482Y-93860952D01*
X163731398Y-93871700D01*
X163727713Y-93877093D01*
X163703229Y-93998000D01*
X163703229Y-94248000D01*
X163724482Y-94360952D01*
X163731398Y-94371700D01*
X163727713Y-94377093D01*
X163703229Y-94498000D01*
X163703229Y-94748000D01*
X163724482Y-94860952D01*
X163731398Y-94871700D01*
X163727713Y-94877093D01*
X163703229Y-94998000D01*
X163703229Y-95216600D01*
X163501771Y-95216600D01*
X163501771Y-95035000D01*
X163480518Y-94922048D01*
X163413763Y-94818308D01*
X163311907Y-94748713D01*
X163191000Y-94724229D01*
X162691000Y-94724229D01*
X162578048Y-94745482D01*
X162474308Y-94812237D01*
X162404713Y-94914093D01*
X162386189Y-95005568D01*
X162386189Y-93909200D01*
X162386200Y-93909200D01*
X162386200Y-94043628D01*
X162432603Y-94155655D01*
X162518344Y-94241397D01*
X162630371Y-94287800D01*
X162739800Y-94287800D01*
X162816000Y-94211600D01*
X162816000Y-93833000D01*
X163066000Y-93833000D01*
X163066000Y-94211600D01*
X163142200Y-94287800D01*
X163251629Y-94287800D01*
X163363656Y-94241397D01*
X163449397Y-94155655D01*
X163495800Y-94043628D01*
X163495800Y-93909200D01*
X163419600Y-93833000D01*
X163066000Y-93833000D01*
X162816000Y-93833000D01*
X162462400Y-93833000D01*
X162386200Y-93909200D01*
X162386189Y-93909200D01*
X162386189Y-93259347D01*
X162430773Y-93214763D01*
X162386200Y-93322372D01*
X162386200Y-93456800D01*
X162462400Y-93533000D01*
X162816000Y-93533000D01*
X162816000Y-93510600D01*
X163066000Y-93510600D01*
X163066000Y-93533000D01*
X163419600Y-93533000D01*
X163495800Y-93456800D01*
X163495800Y-93322372D01*
X163449397Y-93210345D01*
X163369434Y-93130381D01*
X163407692Y-93105763D01*
X163477287Y-93003907D01*
X163501771Y-92883000D01*
X163501771Y-92283000D01*
X163480518Y-92170048D01*
X163413763Y-92066308D01*
X163347400Y-92020964D01*
X163347400Y-90963600D01*
X163546200Y-90963600D01*
X163546200Y-91395629D01*
X163592603Y-91507656D01*
X163678345Y-91593397D01*
X163790372Y-91639800D01*
X164522400Y-91639800D01*
X164598600Y-91563600D01*
X164598600Y-90887400D01*
X164903400Y-90887400D01*
X164903400Y-91563600D01*
X164979600Y-91639800D01*
X165711628Y-91639800D01*
X165823655Y-91593397D01*
X165909397Y-91507656D01*
X165955800Y-91395629D01*
X165955800Y-90963600D01*
X165879600Y-90887400D01*
X164903400Y-90887400D01*
X164598600Y-90887400D01*
X163622400Y-90887400D01*
X163546200Y-90963600D01*
X163347400Y-90963600D01*
X163347400Y-90465336D01*
X163546200Y-90266536D01*
X163546200Y-90506400D01*
X163622400Y-90582600D01*
X164598600Y-90582600D01*
X164598600Y-90562600D01*
X164903400Y-90562600D01*
X164903400Y-90582600D01*
X165879600Y-90582600D01*
X165955800Y-90506400D01*
X165955800Y-90074371D01*
X165909397Y-89962344D01*
X165888453Y-89941400D01*
X166279464Y-89941400D01*
X167360432Y-91022368D01*
X167492277Y-91110465D01*
X167540229Y-91120003D01*
X167540229Y-91335000D01*
X167561482Y-91447952D01*
X167628237Y-91551692D01*
X167730093Y-91621287D01*
X167851000Y-91645771D01*
X169651000Y-91645771D01*
X169763952Y-91624518D01*
X169867692Y-91557763D01*
X169937287Y-91455907D01*
X169961771Y-91335000D01*
X169961771Y-90471866D01*
X170154600Y-90664695D01*
X170154600Y-91979440D01*
X170094308Y-92018237D01*
X170024713Y-92120093D01*
X170000229Y-92241000D01*
X170000229Y-92841000D01*
X170021482Y-92953952D01*
X170088237Y-93057692D01*
X170132804Y-93088143D01*
X170052603Y-93168345D01*
X170006200Y-93280372D01*
X170006200Y-93414800D01*
X170082400Y-93491000D01*
X170436000Y-93491000D01*
X170436000Y-93468600D01*
X170686000Y-93468600D01*
X170686000Y-93491000D01*
X171039600Y-93491000D01*
X171115800Y-93414800D01*
X171115800Y-93280372D01*
X171069397Y-93168345D01*
X170989434Y-93088381D01*
X171027692Y-93063763D01*
X171097287Y-92961907D01*
X171121771Y-92841000D01*
X171121771Y-92241000D01*
X171100518Y-92128048D01*
X171033763Y-92024308D01*
X170967400Y-91978964D01*
X170967400Y-90496358D01*
X170957708Y-90447632D01*
X170936466Y-90340836D01*
X170848369Y-90208990D01*
X169887010Y-89247632D01*
X169812659Y-89197952D01*
X169823655Y-89193397D01*
X169909397Y-89107656D01*
X169955800Y-88995629D01*
X169955800Y-88563600D01*
X169879600Y-88487400D01*
X168903400Y-88487400D01*
X168903400Y-88507400D01*
X168598600Y-88507400D01*
X168598600Y-88487400D01*
X167622400Y-88487400D01*
X167546200Y-88563600D01*
X167546200Y-88993464D01*
X166657368Y-88104632D01*
X166617756Y-88078164D01*
X166525523Y-88016535D01*
X166370000Y-87985600D01*
X166048732Y-87985600D01*
X166009723Y-87959535D01*
X165961771Y-87949997D01*
X165961771Y-87735000D01*
X165950364Y-87674371D01*
X167546200Y-87674371D01*
X167546200Y-88106400D01*
X167622400Y-88182600D01*
X168598600Y-88182600D01*
X168598600Y-87506400D01*
X168903400Y-87506400D01*
X168903400Y-88182600D01*
X169879600Y-88182600D01*
X169955800Y-88106400D01*
X169955800Y-87674371D01*
X169909397Y-87562344D01*
X169823655Y-87476603D01*
X169711628Y-87430200D01*
X168979600Y-87430200D01*
X168903400Y-87506400D01*
X168598600Y-87506400D01*
X168522400Y-87430200D01*
X167790372Y-87430200D01*
X167678345Y-87476603D01*
X167592603Y-87562344D01*
X167546200Y-87674371D01*
X165950364Y-87674371D01*
X165940518Y-87622048D01*
X165873763Y-87518308D01*
X165771907Y-87448713D01*
X165651000Y-87424229D01*
X163851000Y-87424229D01*
X163738048Y-87445482D01*
X163634308Y-87512237D01*
X163564713Y-87614093D01*
X163540229Y-87735000D01*
X163540229Y-87928600D01*
X163329358Y-87928600D01*
X163173835Y-87959535D01*
X163041990Y-88047632D01*
X161286011Y-89803611D01*
X161197914Y-89935456D01*
X161166979Y-90090979D01*
X161166979Y-96740771D01*
X161197914Y-96896294D01*
X161245478Y-96967478D01*
X161286011Y-97028139D01*
X161991450Y-97733578D01*
X162123295Y-97821675D01*
X162278818Y-97852610D01*
X163815789Y-97852611D01*
X163971312Y-97821676D01*
X164103157Y-97733579D01*
X164277965Y-97558771D01*
X164578229Y-97558771D01*
X164578229Y-98123000D01*
X164599482Y-98235952D01*
X164607600Y-98248568D01*
X164607600Y-98596664D01*
X162971038Y-100233226D01*
X162821226Y-100233095D01*
X162598856Y-100324976D01*
X162428574Y-100494961D01*
X162336305Y-100717170D01*
X162336095Y-100957774D01*
X162427976Y-101180144D01*
X162597961Y-101350426D01*
X162820170Y-101442695D01*
X163060774Y-101442905D01*
X163122571Y-101417371D01*
X163924200Y-101417371D01*
X163924200Y-101749400D01*
X164000400Y-101825600D01*
X164776600Y-101825600D01*
X164776600Y-101249400D01*
X164700400Y-101173200D01*
X164168372Y-101173200D01*
X164056345Y-101219603D01*
X163970603Y-101305344D01*
X163924200Y-101417371D01*
X163122571Y-101417371D01*
X163283144Y-101351024D01*
X163453426Y-101181039D01*
X163545695Y-100958830D01*
X163545827Y-100807909D01*
X165301368Y-99052368D01*
X165352396Y-98976000D01*
X165389465Y-98920523D01*
X165420400Y-98765000D01*
X165420400Y-98433771D01*
X165607600Y-98433771D01*
X165607600Y-98747901D01*
X165599308Y-98753237D01*
X165529713Y-98855093D01*
X165505229Y-98976000D01*
X165505229Y-99376000D01*
X165526482Y-99488952D01*
X165593237Y-99592692D01*
X165641815Y-99625884D01*
X165599308Y-99653237D01*
X165529713Y-99755093D01*
X165505229Y-99876000D01*
X165505229Y-100276000D01*
X165526482Y-100388952D01*
X165593237Y-100492692D01*
X165602023Y-100498695D01*
X165511305Y-100717170D01*
X165511095Y-100957774D01*
X165600107Y-101173200D01*
X165157600Y-101173200D01*
X165081400Y-101249400D01*
X165081400Y-101825600D01*
X165857600Y-101825600D01*
X165933800Y-101749400D01*
X165933800Y-101417371D01*
X165933720Y-101417179D01*
X165995170Y-101442695D01*
X166235774Y-101442905D01*
X166458144Y-101351024D01*
X166628426Y-101181039D01*
X166720695Y-100958830D01*
X166720905Y-100718226D01*
X166630743Y-100500017D01*
X166632692Y-100498763D01*
X166702287Y-100396907D01*
X166726771Y-100276000D01*
X166726771Y-99876000D01*
X166705518Y-99763048D01*
X166638763Y-99659308D01*
X166590185Y-99626116D01*
X166632692Y-99598763D01*
X166702287Y-99496907D01*
X166726771Y-99376000D01*
X166726771Y-98976000D01*
X166726657Y-98975393D01*
X166902229Y-99150965D01*
X166902229Y-99387000D01*
X166923482Y-99499952D01*
X166990237Y-99603692D01*
X167038815Y-99636884D01*
X166996308Y-99664237D01*
X166926713Y-99766093D01*
X166902229Y-99887000D01*
X166902229Y-100287000D01*
X166923482Y-100399952D01*
X166990237Y-100503692D01*
X166995465Y-100507264D01*
X166908305Y-100717170D01*
X166908095Y-100957774D01*
X166999976Y-101180144D01*
X167169961Y-101350426D01*
X167392170Y-101442695D01*
X167524200Y-101442810D01*
X167524200Y-101749400D01*
X167600400Y-101825600D01*
X168376600Y-101825600D01*
X168376600Y-101249400D01*
X168300400Y-101173200D01*
X168028681Y-101173200D01*
X168117695Y-100958830D01*
X168117905Y-100718226D01*
X168068312Y-100598200D01*
X168355200Y-100598200D01*
X168355200Y-100732628D01*
X168401603Y-100844655D01*
X168487344Y-100930397D01*
X168599371Y-100976800D01*
X168708800Y-100976800D01*
X168785000Y-100900600D01*
X168785000Y-100522000D01*
X168431400Y-100522000D01*
X168355200Y-100598200D01*
X168068312Y-100598200D01*
X168030987Y-100507868D01*
X168099287Y-100407907D01*
X168123771Y-100287000D01*
X168123771Y-99887000D01*
X168102518Y-99774048D01*
X168035763Y-99670308D01*
X167987185Y-99637116D01*
X168029692Y-99609763D01*
X168099287Y-99507907D01*
X168123771Y-99387000D01*
X168123771Y-98987000D01*
X168102518Y-98874048D01*
X168076877Y-98834201D01*
X168385255Y-98834201D01*
X168373713Y-98851093D01*
X168349229Y-98972000D01*
X168349229Y-99572000D01*
X168370482Y-99684952D01*
X168437237Y-99788692D01*
X168481804Y-99819143D01*
X168401603Y-99899345D01*
X168355200Y-100011372D01*
X168355200Y-100145800D01*
X168431400Y-100222000D01*
X168785000Y-100222000D01*
X168785000Y-100199600D01*
X169035000Y-100199600D01*
X169035000Y-100222000D01*
X169058401Y-100222000D01*
X169058401Y-100522000D01*
X169035000Y-100522000D01*
X169035000Y-100900600D01*
X169059842Y-100925442D01*
X169089336Y-101073722D01*
X169127401Y-101130690D01*
X169127401Y-101173200D01*
X168757600Y-101173200D01*
X168681400Y-101249400D01*
X168681400Y-101825600D01*
X168701400Y-101825600D01*
X168701400Y-102130400D01*
X168681400Y-102130400D01*
X168681400Y-102150400D01*
X168376600Y-102150400D01*
X168376600Y-102130400D01*
X167600400Y-102130400D01*
X167524200Y-102206600D01*
X167524200Y-102538629D01*
X167570603Y-102650656D01*
X167597239Y-102677292D01*
X167542713Y-102757093D01*
X167518229Y-102878000D01*
X167518229Y-102971600D01*
X165939771Y-102971600D01*
X165939771Y-102878000D01*
X165918518Y-102765048D01*
X165861544Y-102676508D01*
X165887397Y-102650656D01*
X165933800Y-102538629D01*
X165933800Y-102206600D01*
X165857600Y-102130400D01*
X165081400Y-102130400D01*
X165081400Y-102150400D01*
X164776600Y-102150400D01*
X164776600Y-102130400D01*
X164000400Y-102130400D01*
X163924200Y-102206600D01*
X163924200Y-102538629D01*
X163970603Y-102650656D01*
X163997239Y-102677292D01*
X163942713Y-102757093D01*
X163918229Y-102878000D01*
X163918229Y-103878000D01*
X163939482Y-103990952D01*
X163954442Y-104014200D01*
X161161800Y-104014200D01*
X161161800Y-85977800D01*
X172364400Y-85977800D01*
X172364400Y-88016340D01*
G36*
X163066000Y-96285000D02*
X163113400Y-96285000D01*
X163113400Y-96585000D01*
X163066000Y-96585000D01*
X163066000Y-96607400D01*
X162816000Y-96607400D01*
X162816000Y-96585000D01*
X162768600Y-96585000D01*
X162768600Y-96285000D01*
X162816000Y-96285000D01*
X162816000Y-96262600D01*
X163066000Y-96262600D01*
X163066000Y-96285000D01*
X163066000Y-96285000D01*
G37*
X163066000Y-96285000D02*
X163113400Y-96285000D01*
X163113400Y-96585000D01*
X163066000Y-96585000D01*
X163066000Y-96607400D01*
X162816000Y-96607400D01*
X162816000Y-96585000D01*
X162768600Y-96585000D01*
X162768600Y-96285000D01*
X162816000Y-96285000D01*
X162816000Y-96262600D01*
X163066000Y-96262600D01*
X163066000Y-96285000D01*
G36*
X162401482Y-95747952D02*
X162468237Y-95851692D01*
X162512804Y-95882143D01*
X162432603Y-95962345D01*
X162386200Y-96074372D01*
X162386200Y-96208800D01*
X162459998Y-96282598D01*
X162386200Y-96282598D01*
X162386200Y-96404106D01*
X162386189Y-96404095D01*
X162386189Y-95666675D01*
X162401482Y-95747952D01*
X162401482Y-95747952D01*
G37*
X162401482Y-95747952D02*
X162468237Y-95851692D01*
X162512804Y-95882143D01*
X162432603Y-95962345D01*
X162386200Y-96074372D01*
X162386200Y-96208800D01*
X162459998Y-96282598D01*
X162386200Y-96282598D01*
X162386200Y-96404106D01*
X162386189Y-96404095D01*
X162386189Y-95666675D01*
X162401482Y-95747952D01*
G36*
X163785400Y-96060500D02*
X164211600Y-96060500D01*
X164211600Y-96058771D01*
X164516400Y-96058771D01*
X164516400Y-96060500D01*
X164536400Y-96060500D01*
X164536400Y-96185500D01*
X164516400Y-96185500D01*
X164516400Y-96187229D01*
X164211600Y-96187229D01*
X164211600Y-96185500D01*
X163785400Y-96185500D01*
X163740271Y-96230629D01*
X163655277Y-96247535D01*
X163525319Y-96334371D01*
X163523432Y-96335632D01*
X163495800Y-96363264D01*
X163495800Y-96282598D01*
X163422002Y-96282598D01*
X163495800Y-96208800D01*
X163495800Y-96074372D01*
X163477172Y-96029400D01*
X163754300Y-96029400D01*
X163785400Y-96060500D01*
X163785400Y-96060500D01*
G37*
X163785400Y-96060500D02*
X164211600Y-96060500D01*
X164211600Y-96058771D01*
X164516400Y-96058771D01*
X164516400Y-96060500D01*
X164536400Y-96060500D01*
X164536400Y-96185500D01*
X164516400Y-96185500D01*
X164516400Y-96187229D01*
X164211600Y-96187229D01*
X164211600Y-96185500D01*
X163785400Y-96185500D01*
X163740271Y-96230629D01*
X163655277Y-96247535D01*
X163525319Y-96334371D01*
X163523432Y-96335632D01*
X163495800Y-96363264D01*
X163495800Y-96282598D01*
X163422002Y-96282598D01*
X163495800Y-96208800D01*
X163495800Y-96074372D01*
X163477172Y-96029400D01*
X163754300Y-96029400D01*
X163785400Y-96060500D01*
M02*
