G04 #@! TF.FileFunction,Paste,Bot*
%FSLAX46Y46*%
G04 Gerber Fmt 4.6, Leading zero omitted, Abs format (unit mm)*
G04 Created by KiCad (PCBNEW 4.0.5+dfsg1-4) date Sun Jun 17 23:04:47 2018*
%MOMM*%
%LPD*%
G01*
G04 APERTURE LIST*
%ADD10C,0.100000*%
%ADD11R,0.500000X0.600000*%
%ADD12R,0.600000X0.400000*%
%ADD13R,0.700000X0.250000*%
%ADD14R,0.250000X0.700000*%
%ADD15R,1.800000X1.200000*%
%ADD16R,1.400000X1.000000*%
G04 APERTURE END LIST*
D10*
D11*
X170561000Y-92541000D03*
X170561000Y-93641000D03*
X162941000Y-92583000D03*
X162941000Y-93683000D03*
X168910000Y-100372000D03*
X168910000Y-99272000D03*
X162941000Y-96435000D03*
X162941000Y-95335000D03*
D12*
X167513000Y-99187000D03*
X167513000Y-100087000D03*
X166116000Y-99176000D03*
X166116000Y-100076000D03*
D13*
X164364000Y-97123000D03*
X164364000Y-96623000D03*
X164364000Y-96123000D03*
X164364000Y-95623000D03*
X164364000Y-95123000D03*
X164364000Y-94623000D03*
X164364000Y-94123000D03*
X164364000Y-93623000D03*
D14*
X165014000Y-92973000D03*
X165514000Y-92973000D03*
X166014000Y-92973000D03*
X166514000Y-92973000D03*
X167014000Y-92973000D03*
X167514000Y-92973000D03*
X168014000Y-92973000D03*
X168514000Y-92973000D03*
D13*
X169164000Y-93623000D03*
X169164000Y-94123000D03*
X169164000Y-94623000D03*
X169164000Y-95123000D03*
X169164000Y-95623000D03*
X169164000Y-96123000D03*
X169164000Y-96623000D03*
X169164000Y-97123000D03*
D14*
X168514000Y-97773000D03*
X168014000Y-97773000D03*
X167514000Y-97773000D03*
X167014000Y-97773000D03*
X166514000Y-97773000D03*
X166014000Y-97773000D03*
X165514000Y-97773000D03*
X165014000Y-97773000D03*
D15*
X164751000Y-90735000D03*
X168751000Y-90735000D03*
X168751000Y-88335000D03*
X164751000Y-88335000D03*
D16*
X164929000Y-103378000D03*
X164929000Y-101978000D03*
X168529000Y-103378000D03*
X168529000Y-101978000D03*
M02*
