G04 #@! TF.FileFunction,Legend,Bot*
%FSLAX46Y46*%
G04 Gerber Fmt 4.6, Leading zero omitted, Abs format (unit mm)*
G04 Created by KiCad (PCBNEW 4.0.5+dfsg1-4) date Sun Jun 17 23:04:47 2018*
%MOMM*%
%LPD*%
G01*
G04 APERTURE LIST*
%ADD10C,0.100000*%
%ADD11C,0.150000*%
G04 APERTURE END LIST*
D10*
D11*
X170129200Y-101600000D02*
X169672000Y-101600000D01*
X169672000Y-101600000D02*
X169672000Y-104394000D01*
X163830000Y-104394000D02*
X163830000Y-101600000D01*
X163283900Y-101600000D02*
X163830000Y-101600000D01*
X172720000Y-85598000D02*
X172720000Y-88265000D01*
X175260000Y-88138000D02*
X175260000Y-85598000D01*
X185928000Y-95504000D02*
X185928000Y-92964000D01*
X176530000Y-92964000D02*
X176530000Y-95504000D01*
X172720000Y-104394000D02*
X172720000Y-101854000D01*
X175260000Y-101854000D02*
X175260000Y-104394000D01*
X187198000Y-104394000D02*
X187198000Y-101854000D01*
X189738000Y-101854000D02*
X189738000Y-104394000D01*
X187198000Y-88138000D02*
X187198000Y-85598000D01*
X189738000Y-85598000D02*
X189738000Y-88138000D01*
X171403527Y-100332115D02*
X171403527Y-88140115D01*
X170133527Y-86870115D02*
G75*
G02X171403528Y-88140114I1J-1270000D01*
G01*
X170133527Y-86870115D02*
X163275527Y-86870115D01*
X171403527Y-100332115D02*
G75*
G02X170133527Y-101602115I-1270000J0D01*
G01*
X163275528Y-101602114D02*
G75*
G02X162005527Y-100332115I-1J1270000D01*
G01*
X162005527Y-100332115D02*
X162005527Y-88140115D01*
X162005527Y-88140115D02*
G75*
G02X163275526Y-86870114I1270000J1D01*
G01*
X170086000Y-93341000D02*
X170086000Y-92841000D01*
X171036000Y-92841000D02*
X171036000Y-93341000D01*
X162466000Y-93383000D02*
X162466000Y-92883000D01*
X163416000Y-92883000D02*
X163416000Y-93383000D01*
X169385000Y-99572000D02*
X169385000Y-100072000D01*
X168435000Y-100072000D02*
X168435000Y-99572000D01*
X163416000Y-95635000D02*
X163416000Y-96135000D01*
X162466000Y-96135000D02*
X162466000Y-95635000D01*
X166988000Y-99887000D02*
X166988000Y-99387000D01*
X168038000Y-99387000D02*
X168038000Y-99887000D01*
X165591000Y-99876000D02*
X165591000Y-99376000D01*
X166641000Y-99376000D02*
X166641000Y-99876000D01*
X169389000Y-97998000D02*
X169389000Y-97473000D01*
X164139000Y-92748000D02*
X164139000Y-93273000D01*
X169389000Y-92748000D02*
X169389000Y-93273000D01*
X164139000Y-97998000D02*
X164664000Y-97998000D01*
X164139000Y-92748000D02*
X164664000Y-92748000D01*
X169389000Y-92748000D02*
X168864000Y-92748000D01*
X169389000Y-97998000D02*
X168864000Y-97998000D01*
X165851000Y-87735000D02*
X165851000Y-87435000D01*
X164051000Y-89135000D02*
X163751000Y-89135000D01*
X165851000Y-87735000D02*
X167651000Y-87735000D01*
X169451000Y-89135000D02*
X169451000Y-89935000D01*
X167651000Y-91335000D02*
X165851000Y-91335000D01*
X164051000Y-89935000D02*
X164051000Y-89135000D01*
X164829000Y-104178000D02*
X168629000Y-104178000D01*
X164829000Y-101178000D02*
X168629000Y-101178000D01*
M02*
