G04 #@! TF.FileFunction,Profile,NP*
%FSLAX46Y46*%
G04 Gerber Fmt 4.6, Leading zero omitted, Abs format (unit mm)*
G04 Created by KiCad (PCBNEW 4.0.5+dfsg1-4) date Sun Jun 17 23:04:47 2018*
%MOMM*%
%LPD*%
G01*
G04 APERTURE LIST*
%ADD10C,0.100000*%
%ADD11C,0.150000*%
G04 APERTURE END LIST*
D10*
D11*
X177800000Y-101600000D02*
X178308000Y-101600000D01*
X184658000Y-101600000D02*
X184150000Y-101600000D01*
X197739000Y-104394000D02*
X201676000Y-104394000D01*
X184150000Y-104394000D02*
X193675000Y-104394000D01*
X197739000Y-101346000D02*
G75*
G03X197358000Y-100965000I-381000J0D01*
G01*
X197739000Y-101346000D02*
X197739000Y-104394000D01*
X194056000Y-100965000D02*
X197358000Y-100965000D01*
X194056000Y-100965000D02*
G75*
G03X193675000Y-101346000I0J-381000D01*
G01*
X193675000Y-104394000D02*
X193675000Y-101346000D01*
X184150000Y-101600000D02*
X184150000Y-104394000D01*
X178308000Y-104394000D02*
X178308000Y-101600000D01*
X176530000Y-95504000D02*
X176530000Y-100330000D01*
X176530000Y-88138000D02*
X176530000Y-92964000D01*
X185928000Y-92964000D02*
X185928000Y-88138000D01*
X185928000Y-100330000D02*
X185928000Y-95504000D01*
X183388000Y-95504000D02*
X179070000Y-95504000D01*
X179070000Y-92964000D02*
X183388000Y-92964000D01*
X178816000Y-94234000D02*
G75*
G03X178816000Y-94234000I-254000J0D01*
G01*
X178816000Y-94996000D02*
G75*
G03X178816000Y-94996000I-254000J0D01*
G01*
X177292000Y-94234000D02*
G75*
G03X177292000Y-94234000I-254000J0D01*
G01*
X176530000Y-92964000D02*
X179070000Y-92964000D01*
X178816000Y-93472000D02*
G75*
G03X178816000Y-93472000I-254000J0D01*
G01*
X177292000Y-93472000D02*
G75*
G03X177292000Y-93472000I-254000J0D01*
G01*
X176530000Y-95504000D02*
X179070000Y-95504000D01*
X177292000Y-94996000D02*
G75*
G03X177292000Y-94996000I-254000J0D01*
G01*
X183388000Y-95504000D02*
X185928000Y-95504000D01*
X183388000Y-92964000D02*
X185928000Y-92964000D01*
X184150000Y-93472000D02*
G75*
G03X184150000Y-93472000I-254000J0D01*
G01*
X185674000Y-93472000D02*
G75*
G03X185674000Y-93472000I-254000J0D01*
G01*
X185674000Y-94234000D02*
G75*
G03X185674000Y-94234000I-254000J0D01*
G01*
X184150000Y-94996000D02*
G75*
G03X184150000Y-94996000I-254000J0D01*
G01*
X184150000Y-94234000D02*
G75*
G03X184150000Y-94234000I-254000J0D01*
G01*
X185674000Y-94996000D02*
G75*
G03X185674000Y-94996000I-254000J0D01*
G01*
X172720000Y-101854000D02*
X175260000Y-101854000D01*
X172720000Y-88138000D02*
X175260000Y-88138000D01*
X187198000Y-88138000D02*
X189738000Y-88138000D01*
X187198000Y-101854000D02*
X189738000Y-101854000D01*
X160782000Y-99060000D02*
X160782000Y-104394000D01*
X177800000Y-86868000D02*
G75*
G03X176529999Y-88137999I-1J-1270000D01*
G01*
X185928000Y-88138000D02*
G75*
G03X184658001Y-86867999I-1270000J1D01*
G01*
X184657999Y-101599999D02*
G75*
G03X185928000Y-100330000I1J1270000D01*
G01*
X176530000Y-100330000D02*
G75*
G03X177800000Y-101600000I1270000J0D01*
G01*
X177800000Y-86868000D02*
X184658000Y-86868000D01*
X201676000Y-104394000D02*
X201676000Y-85598000D01*
X187198000Y-85598000D02*
X201676000Y-85598000D01*
X189484000Y-86868000D02*
G75*
G03X189484000Y-86868000I-254000J0D01*
G01*
X189484000Y-86106000D02*
G75*
G03X189484000Y-86106000I-254000J0D01*
G01*
X187960000Y-103886000D02*
G75*
G03X187960000Y-103886000I-254000J0D01*
G01*
X189484000Y-102362000D02*
G75*
G03X189484000Y-102362000I-254000J0D01*
G01*
X189484000Y-103124000D02*
G75*
G03X189484000Y-103124000I-254000J0D01*
G01*
X187960000Y-103124000D02*
G75*
G03X187960000Y-103124000I-254000J0D01*
G01*
X187960000Y-102362000D02*
G75*
G03X187960000Y-102362000I-254000J0D01*
G01*
X189484000Y-103886000D02*
G75*
G03X189484000Y-103886000I-254000J0D01*
G01*
X187960000Y-87630000D02*
G75*
G03X187960000Y-87630000I-254000J0D01*
G01*
X187960000Y-86106000D02*
G75*
G03X187960000Y-86106000I-254000J0D01*
G01*
X189484000Y-87630000D02*
G75*
G03X189484000Y-87630000I-254000J0D01*
G01*
X187960000Y-86868000D02*
G75*
G03X187960000Y-86868000I-254000J0D01*
G01*
X189738000Y-88138000D02*
X189738000Y-101854000D01*
X187198000Y-101854000D02*
X187198000Y-88138000D01*
X175260000Y-88138000D02*
X175260000Y-101854000D01*
X175006000Y-87630000D02*
G75*
G03X175006000Y-87630000I-254000J0D01*
G01*
X173482000Y-86106000D02*
G75*
G03X173482000Y-86106000I-254000J0D01*
G01*
X173482000Y-87630000D02*
G75*
G03X173482000Y-87630000I-254000J0D01*
G01*
X175006000Y-86106000D02*
G75*
G03X175006000Y-86106000I-254000J0D01*
G01*
X173482000Y-86868000D02*
G75*
G03X173482000Y-86868000I-254000J0D01*
G01*
X175006000Y-86868000D02*
G75*
G03X175006000Y-86868000I-254000J0D01*
G01*
X175006000Y-103124000D02*
G75*
G03X175006000Y-103124000I-254000J0D01*
G01*
X175006000Y-102362000D02*
G75*
G03X175006000Y-102362000I-254000J0D01*
G01*
X175006000Y-103886000D02*
G75*
G03X175006000Y-103886000I-254000J0D01*
G01*
X173482000Y-102362000D02*
G75*
G03X173482000Y-102362000I-254000J0D01*
G01*
X173482000Y-103124000D02*
G75*
G03X173482000Y-103124000I-254000J0D01*
G01*
X173482000Y-103886000D02*
G75*
G03X173482000Y-103886000I-254000J0D01*
G01*
X172720000Y-85598000D02*
X187198000Y-85598000D01*
X172720000Y-104394000D02*
X178308000Y-104394000D01*
X172720000Y-101854000D02*
X172720000Y-88138000D01*
X160782000Y-104394000D02*
X172720000Y-104394000D01*
X160782000Y-85598000D02*
X160782000Y-99060000D01*
X160782000Y-85598000D02*
X172720000Y-85598000D01*
M02*
