G04 #@! TF.FileFunction,Copper,L2,Bot,Signal*
%FSLAX46Y46*%
G04 Gerber Fmt 4.6, Leading zero omitted, Abs format (unit mm)*
G04 Created by KiCad (PCBNEW 4.0.5+dfsg1-4) date Sun Mar 15 11:09:47 2020*
%MOMM*%
%LPD*%
G01*
G04 APERTURE LIST*
%ADD10C,0.100000*%
%ADD11C,0.150000*%
%ADD12C,1.600000*%
%ADD13R,1.600000X2.400000*%
%ADD14O,1.600000X2.400000*%
%ADD15R,3.500000X3.500000*%
%ADD16R,1.700000X1.700000*%
%ADD17O,1.700000X1.700000*%
%ADD18O,1.600000X1.600000*%
%ADD19C,2.000000*%
%ADD20C,1.500000*%
%ADD21R,1.800000X1.800000*%
%ADD22C,1.800000*%
%ADD23C,1.520000*%
%ADD24R,1.520000X1.520000*%
%ADD25O,1.800000X1.800000*%
%ADD26R,1.727200X1.727200*%
%ADD27O,1.727200X1.727200*%
%ADD28C,0.406400*%
%ADD29C,0.254000*%
G04 APERTURE END LIST*
D10*
D11*
X119546429Y-73163357D02*
X119582143Y-73199071D01*
X119689286Y-73234786D01*
X119760715Y-73234786D01*
X119867858Y-73199071D01*
X119939286Y-73127643D01*
X119975001Y-73056214D01*
X120010715Y-72913357D01*
X120010715Y-72806214D01*
X119975001Y-72663357D01*
X119939286Y-72591929D01*
X119867858Y-72520500D01*
X119760715Y-72484786D01*
X119689286Y-72484786D01*
X119582143Y-72520500D01*
X119546429Y-72556214D01*
X119225001Y-73234786D02*
X119225001Y-72484786D01*
X119046429Y-72484786D01*
X118939286Y-72520500D01*
X118867858Y-72591929D01*
X118832143Y-72663357D01*
X118796429Y-72806214D01*
X118796429Y-72913357D01*
X118832143Y-73056214D01*
X118867858Y-73127643D01*
X118939286Y-73199071D01*
X119046429Y-73234786D01*
X119225001Y-73234786D01*
X118475001Y-73234786D02*
X118475001Y-72484786D01*
X118225001Y-73020500D01*
X117975001Y-72484786D01*
X117975001Y-73234786D01*
X116617857Y-73234786D02*
X116867857Y-72877643D01*
X117046429Y-73234786D02*
X117046429Y-72484786D01*
X116760714Y-72484786D01*
X116689286Y-72520500D01*
X116653571Y-72556214D01*
X116617857Y-72627643D01*
X116617857Y-72734786D01*
X116653571Y-72806214D01*
X116689286Y-72841929D01*
X116760714Y-72877643D01*
X117046429Y-72877643D01*
X116296429Y-73163357D02*
X116260714Y-73199071D01*
X116296429Y-73234786D01*
X116332143Y-73199071D01*
X116296429Y-73163357D01*
X116296429Y-73234786D01*
X116296429Y-72770500D02*
X116260714Y-72806214D01*
X116296429Y-72841929D01*
X116332143Y-72806214D01*
X116296429Y-72770500D01*
X116296429Y-72841929D01*
X115117857Y-72841929D02*
X115010714Y-72877643D01*
X114974999Y-72913357D01*
X114939285Y-72984786D01*
X114939285Y-73091929D01*
X114974999Y-73163357D01*
X115010714Y-73199071D01*
X115082142Y-73234786D01*
X115367857Y-73234786D01*
X115367857Y-72484786D01*
X115117857Y-72484786D01*
X115046428Y-72520500D01*
X115010714Y-72556214D01*
X114974999Y-72627643D01*
X114974999Y-72699071D01*
X115010714Y-72770500D01*
X115046428Y-72806214D01*
X115117857Y-72841929D01*
X115367857Y-72841929D01*
X119689286Y-73831214D02*
X119653572Y-73795500D01*
X119582143Y-73759786D01*
X119403572Y-73759786D01*
X119332143Y-73795500D01*
X119296429Y-73831214D01*
X119260714Y-73902643D01*
X119260714Y-73974071D01*
X119296429Y-74081214D01*
X119725000Y-74509786D01*
X119260714Y-74509786D01*
X118939286Y-74224071D02*
X118367857Y-74224071D01*
X117653572Y-73759786D02*
X118010715Y-73759786D01*
X118046429Y-74116929D01*
X118010715Y-74081214D01*
X117939286Y-74045500D01*
X117760715Y-74045500D01*
X117689286Y-74081214D01*
X117653572Y-74116929D01*
X117617857Y-74188357D01*
X117617857Y-74366929D01*
X117653572Y-74438357D01*
X117689286Y-74474071D01*
X117760715Y-74509786D01*
X117939286Y-74509786D01*
X118010715Y-74474071D01*
X118046429Y-74438357D01*
X117296429Y-74224071D02*
X116725000Y-74224071D01*
X116403572Y-73831214D02*
X116367858Y-73795500D01*
X116296429Y-73759786D01*
X116117858Y-73759786D01*
X116046429Y-73795500D01*
X116010715Y-73831214D01*
X115975000Y-73902643D01*
X115975000Y-73974071D01*
X116010715Y-74081214D01*
X116439286Y-74509786D01*
X115975000Y-74509786D01*
X115510714Y-73759786D02*
X115439286Y-73759786D01*
X115367857Y-73795500D01*
X115332143Y-73831214D01*
X115296429Y-73902643D01*
X115260714Y-74045500D01*
X115260714Y-74224071D01*
X115296429Y-74366929D01*
X115332143Y-74438357D01*
X115367857Y-74474071D01*
X115439286Y-74509786D01*
X115510714Y-74509786D01*
X115582143Y-74474071D01*
X115617857Y-74438357D01*
X115653572Y-74366929D01*
X115689286Y-74224071D01*
X115689286Y-74045500D01*
X115653572Y-73902643D01*
X115617857Y-73831214D01*
X115582143Y-73795500D01*
X115510714Y-73759786D01*
D12*
X125476000Y-74422000D03*
X122976000Y-74422000D03*
D13*
X178054000Y-103632000D03*
D14*
X145034000Y-111252000D03*
X175514000Y-103632000D03*
X147574000Y-111252000D03*
X172974000Y-103632000D03*
X150114000Y-111252000D03*
X170434000Y-103632000D03*
X152654000Y-111252000D03*
X167894000Y-103632000D03*
X155194000Y-111252000D03*
X165354000Y-103632000D03*
X157734000Y-111252000D03*
X162814000Y-103632000D03*
X160274000Y-111252000D03*
X160274000Y-103632000D03*
X162814000Y-111252000D03*
X157734000Y-103632000D03*
X165354000Y-111252000D03*
X155194000Y-103632000D03*
X167894000Y-111252000D03*
X152654000Y-103632000D03*
X170434000Y-111252000D03*
X150114000Y-103632000D03*
X172974000Y-111252000D03*
X147574000Y-103632000D03*
X175514000Y-111252000D03*
X145034000Y-103632000D03*
X178054000Y-111252000D03*
D12*
X164846000Y-99822000D03*
X164846000Y-97322000D03*
X134072000Y-121793000D03*
X131572000Y-121793000D03*
X136311000Y-121793000D03*
X138811000Y-121793000D03*
X158750000Y-91694000D03*
X158750000Y-94194000D03*
X154305000Y-91748000D03*
X154305000Y-94248000D03*
D15*
X125888000Y-116459000D03*
X119888000Y-116459000D03*
X122888000Y-121159000D03*
D16*
X177800000Y-122428000D03*
D17*
X175260000Y-122428000D03*
X172720000Y-122428000D03*
X170180000Y-122428000D03*
X167640000Y-122428000D03*
X165100000Y-122428000D03*
D16*
X177800000Y-74422000D03*
D17*
X175260000Y-74422000D03*
X172720000Y-74422000D03*
X170180000Y-74422000D03*
X167640000Y-74422000D03*
X165100000Y-74422000D03*
X162560000Y-74422000D03*
X160020000Y-74422000D03*
D12*
X156972000Y-83058000D03*
D18*
X149352000Y-83058000D03*
D12*
X156972000Y-79756000D03*
D18*
X149352000Y-79756000D03*
D12*
X174752000Y-91948000D03*
D18*
X174752000Y-99568000D03*
D19*
X121086000Y-102870000D03*
X116586000Y-102870000D03*
X121086000Y-96370000D03*
X116586000Y-96370000D03*
D20*
X159004000Y-98552000D03*
X154124000Y-98552000D03*
D21*
X165100000Y-86360000D03*
D22*
X162560000Y-86360000D03*
D12*
X149352000Y-86360000D03*
D18*
X156972000Y-86360000D03*
D16*
X160020000Y-122428000D03*
D17*
X157480000Y-122428000D03*
X154940000Y-122428000D03*
X152400000Y-122428000D03*
X149860000Y-122428000D03*
X147320000Y-122428000D03*
X144780000Y-122428000D03*
X142240000Y-122428000D03*
D16*
X178308000Y-94488000D03*
D17*
X180848000Y-94488000D03*
X178308000Y-97028000D03*
X180848000Y-97028000D03*
X178308000Y-99568000D03*
X180848000Y-99568000D03*
D16*
X133096000Y-74422000D03*
D17*
X135636000Y-74422000D03*
X138176000Y-74422000D03*
X140716000Y-74422000D03*
X143256000Y-74422000D03*
X145796000Y-74422000D03*
X148336000Y-74422000D03*
X150876000Y-74422000D03*
X153416000Y-74422000D03*
X155956000Y-74422000D03*
D12*
X126111000Y-109220000D03*
X128611000Y-109220000D03*
D23*
X120523000Y-109220000D03*
X123063000Y-109220000D03*
D24*
X117983000Y-109220000D03*
D21*
X132969000Y-119126000D03*
D25*
X135509000Y-119126000D03*
X138049000Y-119126000D03*
D26*
X127381000Y-91821000D03*
D27*
X124841000Y-91821000D03*
X127381000Y-89281000D03*
X124841000Y-89281000D03*
X127381000Y-86741000D03*
X124841000Y-86741000D03*
X127381000Y-84201000D03*
X124841000Y-84201000D03*
X127381000Y-81661000D03*
X124841000Y-81661000D03*
X127381000Y-79121000D03*
X124841000Y-79121000D03*
D28*
X129286000Y-92964000D02*
X129286000Y-88646000D01*
X129286000Y-88646000D02*
X127381000Y-86741000D01*
X128524000Y-93726000D02*
X129286000Y-92964000D01*
X125524686Y-93726000D02*
X128524000Y-93726000D01*
X124841000Y-91821000D02*
X124841000Y-93042314D01*
X124841000Y-93042314D02*
X125524686Y-93726000D01*
X164846000Y-99822000D02*
X166878000Y-99822000D01*
X166878000Y-99822000D02*
X174752000Y-91948000D01*
X174244000Y-91948000D02*
X178308000Y-91948000D01*
X178308000Y-91948000D02*
X180848000Y-94488000D01*
X122976000Y-74422000D02*
X116586000Y-80812000D01*
X116586000Y-80812000D02*
X116586000Y-96370000D01*
X116586000Y-102870000D02*
X116586000Y-110074522D01*
X116586000Y-110074522D02*
X117128478Y-110617000D01*
X117128478Y-110617000D02*
X132715000Y-110617000D01*
X132715000Y-110617000D02*
X141478000Y-119380000D01*
X141478000Y-119380000D02*
X146685000Y-119380000D01*
X146685000Y-119380000D02*
X147320000Y-120015000D01*
X147320000Y-120015000D02*
X147320000Y-122428000D01*
X116586000Y-96370000D02*
X116586000Y-102870000D01*
X174244000Y-99568000D02*
X178308000Y-99568000D01*
X178181000Y-99695000D02*
X178308000Y-99568000D01*
X178054000Y-102743000D02*
X178054000Y-99822000D01*
X178054000Y-99822000D02*
X178308000Y-99568000D01*
X177800000Y-119126000D02*
X177800000Y-121171600D01*
X175768000Y-117094000D02*
X177800000Y-119126000D01*
X142494000Y-117094000D02*
X175768000Y-117094000D01*
X138430000Y-113030000D02*
X142494000Y-117094000D01*
X138430000Y-108331000D02*
X138430000Y-113030000D01*
X131572000Y-101473000D02*
X138430000Y-108331000D01*
X131572000Y-77202400D02*
X131572000Y-101473000D01*
X133096000Y-75678400D02*
X131572000Y-77202400D01*
X133096000Y-74422000D02*
X133096000Y-75678400D01*
X177800000Y-121171600D02*
X177800000Y-122428000D01*
X130810000Y-101727000D02*
X137668000Y-108585000D01*
X137668000Y-108585000D02*
X137668000Y-113284000D01*
X175260000Y-119253000D02*
X175260000Y-120015000D01*
X142240000Y-117856000D02*
X137668000Y-113284000D01*
X135636000Y-74422000D02*
X135636000Y-73219919D01*
X135636000Y-73219919D02*
X135314081Y-72898000D01*
X135314081Y-72898000D02*
X132080000Y-72898000D01*
X132080000Y-72898000D02*
X131445000Y-73533000D01*
X130810000Y-76708000D02*
X130810000Y-101727000D01*
X131445000Y-73533000D02*
X131445000Y-76073000D01*
X131445000Y-76073000D02*
X130810000Y-76708000D01*
X175260000Y-122428000D02*
X175260000Y-120015000D01*
X175260000Y-119253000D02*
X173863000Y-117856000D01*
X173863000Y-117856000D02*
X142240000Y-117856000D01*
X145034000Y-111125000D02*
X143764000Y-111125000D01*
X145542000Y-77724000D02*
X150114000Y-77724000D01*
X143764000Y-111125000D02*
X143002000Y-110363000D01*
X143002000Y-80264000D02*
X145542000Y-77724000D01*
X143002000Y-110363000D02*
X143002000Y-80264000D01*
X150114000Y-77724000D02*
X153416000Y-74422000D01*
X147574000Y-111652000D02*
X145942000Y-113284000D01*
X145942000Y-113284000D02*
X144018000Y-113284000D01*
X144018000Y-113284000D02*
X142240000Y-111506000D01*
X145288000Y-76962000D02*
X148336000Y-76962000D01*
X142240000Y-111506000D02*
X142240000Y-80010000D01*
X142240000Y-80010000D02*
X145288000Y-76962000D01*
X148336000Y-76962000D02*
X150876000Y-74422000D01*
X150114000Y-111633000D02*
X147720000Y-114027000D01*
X141478000Y-79756000D02*
X144907000Y-76327000D01*
X147720000Y-114027000D02*
X143764000Y-114027000D01*
X143764000Y-114027000D02*
X141478000Y-111741000D01*
X141478000Y-111741000D02*
X141478000Y-79756000D01*
X144907000Y-76327000D02*
X146431000Y-76327000D01*
X146431000Y-76327000D02*
X148336000Y-74422000D01*
X179591599Y-98284401D02*
X180848000Y-97028000D01*
X150114000Y-109963000D02*
X150114000Y-111252000D01*
X179591599Y-98284401D02*
X179591599Y-105523401D01*
X179591599Y-105523401D02*
X178435000Y-106680000D01*
X178435000Y-106680000D02*
X153397000Y-106680000D01*
X153397000Y-106680000D02*
X150114000Y-109963000D01*
X140716000Y-79502000D02*
X145796000Y-74422000D01*
X140716000Y-79502000D02*
X140716000Y-112014000D01*
X140716000Y-112014000D02*
X143510000Y-114808000D01*
X178308000Y-94488000D02*
X179578000Y-95758000D01*
X181737000Y-95758000D02*
X182245000Y-96266000D01*
X179578000Y-95758000D02*
X181737000Y-95758000D01*
X182245000Y-96266000D02*
X182245000Y-100330000D01*
X182245000Y-100330000D02*
X180340000Y-102235000D01*
X152654000Y-111633000D02*
X149498000Y-114789000D01*
X180340000Y-102235000D02*
X180340000Y-105918000D01*
X180340000Y-105918000D02*
X178816000Y-107442000D01*
X178816000Y-107442000D02*
X153797000Y-107442000D01*
X153797000Y-107442000D02*
X152654000Y-108585000D01*
X152654000Y-108585000D02*
X152654000Y-110763000D01*
X149479000Y-114808000D02*
X143491000Y-114808000D01*
X178308000Y-97028000D02*
X171196000Y-97028000D01*
X171196000Y-97028000D02*
X166751000Y-101473000D01*
X161544000Y-88519000D02*
X159385000Y-86360000D01*
X166751000Y-101473000D02*
X163068000Y-101473000D01*
X161544000Y-99949000D02*
X161544000Y-88519000D01*
X163068000Y-101473000D02*
X161544000Y-99949000D01*
X159385000Y-86360000D02*
X156972000Y-86360000D01*
X139954000Y-112303000D02*
X139954000Y-79121000D01*
X143256000Y-74422000D02*
X143256000Y-75624081D01*
X143256000Y-75624081D02*
X139954000Y-78926081D01*
X139954000Y-78926081D02*
X139954000Y-79121000D01*
X155194000Y-111687000D02*
X151276000Y-115605000D01*
X151276000Y-115605000D02*
X143256000Y-115605000D01*
X143256000Y-115605000D02*
X139954000Y-112303000D01*
X160274000Y-111687000D02*
X155594000Y-116367000D01*
X155594000Y-116367000D02*
X143002000Y-116367000D01*
X143002000Y-116367000D02*
X139192000Y-112557000D01*
X139192000Y-112557000D02*
X139192000Y-75438000D01*
X139192000Y-75438000D02*
X138176000Y-74422000D01*
X156972000Y-83058000D02*
X170420400Y-83058000D01*
X170420400Y-83058000D02*
X177800000Y-75678400D01*
X177800000Y-75678400D02*
X177800000Y-74422000D01*
X156972000Y-79756000D02*
X169926000Y-79756000D01*
X169926000Y-79756000D02*
X175260000Y-74422000D01*
X151003000Y-84709000D02*
X160909000Y-84709000D01*
X160909000Y-84709000D02*
X162560000Y-86360000D01*
X149352000Y-86360000D02*
X151003000Y-84709000D01*
X123063000Y-108145198D02*
X123063000Y-109220000D01*
X126111000Y-109220000D02*
X127381000Y-107950000D01*
X127381000Y-107950000D02*
X131191000Y-107950000D01*
X131191000Y-107950000D02*
X141859000Y-118618000D01*
X141859000Y-118618000D02*
X149098000Y-118618000D01*
X149098000Y-118618000D02*
X149860000Y-119380000D01*
X149860000Y-119380000D02*
X149860000Y-122428000D01*
X126111000Y-109220000D02*
X123063000Y-109220000D01*
X127381000Y-79121000D02*
X124841000Y-81661000D01*
X125476000Y-74422000D02*
X125476000Y-77216000D01*
X125476000Y-77216000D02*
X127381000Y-79121000D01*
X127381000Y-81661000D02*
X124841000Y-84201000D01*
X124841000Y-86741000D02*
X127381000Y-84201000D01*
D29*
G36*
X182170000Y-116142958D02*
X181919677Y-115768323D01*
X181194915Y-115284053D01*
X180340000Y-115114000D01*
X179485085Y-115284053D01*
X178760323Y-115768323D01*
X178276053Y-116493085D01*
X178106000Y-117348000D01*
X178276053Y-118202915D01*
X178760323Y-118927677D01*
X179485085Y-119411947D01*
X180340000Y-119582000D01*
X181194915Y-119411947D01*
X181919677Y-118927677D01*
X182170000Y-118553042D01*
X182170000Y-119630945D01*
X179794563Y-122481469D01*
X179743451Y-122575388D01*
X179684046Y-122664295D01*
X179677697Y-122696214D01*
X179662141Y-122724798D01*
X179650861Y-122831125D01*
X179630000Y-122936000D01*
X179630000Y-124258000D01*
X129475042Y-124258000D01*
X129849677Y-124007677D01*
X130333947Y-123282915D01*
X130429856Y-122800745D01*
X130743861Y-122800745D01*
X130817995Y-123046864D01*
X131355223Y-123239965D01*
X131925454Y-123212778D01*
X132326005Y-123046864D01*
X132400139Y-122800745D01*
X131572000Y-121972605D01*
X130743861Y-122800745D01*
X130429856Y-122800745D01*
X130471160Y-122593098D01*
X130564255Y-122621139D01*
X131392395Y-121793000D01*
X130564255Y-120964861D01*
X130318136Y-121038995D01*
X130198842Y-121370885D01*
X129849677Y-120848323D01*
X129124915Y-120364053D01*
X128270000Y-120194000D01*
X127415085Y-120364053D01*
X126690323Y-120848323D01*
X126206053Y-121573085D01*
X126036000Y-122428000D01*
X126206053Y-123282915D01*
X126690323Y-124007677D01*
X127064958Y-124258000D01*
X115010000Y-124258000D01*
X115010000Y-116744750D01*
X117503000Y-116744750D01*
X117503000Y-118335310D01*
X117599673Y-118568699D01*
X117778302Y-118747327D01*
X118011691Y-118844000D01*
X119602250Y-118844000D01*
X119761000Y-118685250D01*
X119761000Y-116586000D01*
X120015000Y-116586000D01*
X120015000Y-118685250D01*
X120173750Y-118844000D01*
X120843378Y-118844000D01*
X120686559Y-118944910D01*
X120541569Y-119157110D01*
X120490560Y-119409000D01*
X120490560Y-122909000D01*
X120534838Y-123144317D01*
X120673910Y-123360441D01*
X120886110Y-123505431D01*
X121138000Y-123556440D01*
X124638000Y-123556440D01*
X124873317Y-123512162D01*
X125089441Y-123373090D01*
X125234431Y-123160890D01*
X125285440Y-122909000D01*
X125285440Y-119409000D01*
X125241162Y-119173683D01*
X125102090Y-118957559D01*
X124954097Y-118856440D01*
X127638000Y-118856440D01*
X127873317Y-118812162D01*
X128089441Y-118673090D01*
X128234431Y-118460890D01*
X128285440Y-118209000D01*
X128285440Y-114709000D01*
X128241162Y-114473683D01*
X128102090Y-114257559D01*
X127889890Y-114112569D01*
X127638000Y-114061560D01*
X124138000Y-114061560D01*
X123902683Y-114105838D01*
X123686559Y-114244910D01*
X123541569Y-114457110D01*
X123490560Y-114709000D01*
X123490560Y-118209000D01*
X123534838Y-118444317D01*
X123673910Y-118660441D01*
X123821903Y-118761560D01*
X121963337Y-118761560D01*
X121997698Y-118747327D01*
X122176327Y-118568699D01*
X122273000Y-118335310D01*
X122273000Y-116744750D01*
X122114250Y-116586000D01*
X120015000Y-116586000D01*
X119761000Y-116586000D01*
X117661750Y-116586000D01*
X117503000Y-116744750D01*
X115010000Y-116744750D01*
X115010000Y-114582690D01*
X117503000Y-114582690D01*
X117503000Y-116173250D01*
X117661750Y-116332000D01*
X119761000Y-116332000D01*
X119761000Y-114232750D01*
X120015000Y-114232750D01*
X120015000Y-116332000D01*
X122114250Y-116332000D01*
X122273000Y-116173250D01*
X122273000Y-114582690D01*
X122176327Y-114349301D01*
X121997698Y-114170673D01*
X121764309Y-114074000D01*
X120173750Y-114074000D01*
X120015000Y-114232750D01*
X119761000Y-114232750D01*
X119602250Y-114074000D01*
X118011691Y-114074000D01*
X117778302Y-114170673D01*
X117599673Y-114349301D01*
X117503000Y-114582690D01*
X115010000Y-114582690D01*
X115010000Y-103337273D01*
X115199106Y-103794943D01*
X115658637Y-104255278D01*
X115747800Y-104292302D01*
X115747800Y-110074522D01*
X115811604Y-110395288D01*
X115993303Y-110667219D01*
X116535781Y-111209697D01*
X116807713Y-111391396D01*
X117128478Y-111455200D01*
X132367806Y-111455200D01*
X138609019Y-117696413D01*
X138079072Y-117591000D01*
X138018928Y-117591000D01*
X137431509Y-117707845D01*
X136933519Y-118040591D01*
X136774499Y-118278582D01*
X136416576Y-117888034D01*
X135873742Y-117634954D01*
X135636000Y-117755003D01*
X135636000Y-118999000D01*
X135656000Y-118999000D01*
X135656000Y-119253000D01*
X135636000Y-119253000D01*
X135636000Y-119273000D01*
X135382000Y-119273000D01*
X135382000Y-119253000D01*
X135362000Y-119253000D01*
X135362000Y-118999000D01*
X135382000Y-118999000D01*
X135382000Y-117755003D01*
X135144258Y-117634954D01*
X134601424Y-117888034D01*
X134478156Y-118022538D01*
X134472162Y-117990683D01*
X134333090Y-117774559D01*
X134120890Y-117629569D01*
X133869000Y-117578560D01*
X132069000Y-117578560D01*
X131833683Y-117622838D01*
X131617559Y-117761910D01*
X131472569Y-117974110D01*
X131421560Y-118226000D01*
X131421560Y-120026000D01*
X131465838Y-120261317D01*
X131528343Y-120358452D01*
X131218546Y-120373222D01*
X130817995Y-120539136D01*
X130743861Y-120785255D01*
X131572000Y-121613395D01*
X132400139Y-120785255D01*
X132366459Y-120673440D01*
X133162346Y-120673440D01*
X132856176Y-120979077D01*
X132828577Y-121045544D01*
X132825864Y-121038995D01*
X132579745Y-120964861D01*
X131751605Y-121793000D01*
X132579745Y-122621139D01*
X132825864Y-122547005D01*
X132828196Y-122540517D01*
X132854757Y-122604800D01*
X133258077Y-123008824D01*
X133785309Y-123227750D01*
X134356187Y-123228248D01*
X134883800Y-123010243D01*
X135191683Y-122702897D01*
X135497077Y-123008824D01*
X136024309Y-123227750D01*
X136595187Y-123228248D01*
X137122800Y-123010243D01*
X137332663Y-122800745D01*
X137982861Y-122800745D01*
X138056995Y-123046864D01*
X138594223Y-123239965D01*
X139164454Y-123212778D01*
X139565005Y-123046864D01*
X139639139Y-122800745D01*
X138811000Y-121972605D01*
X137982861Y-122800745D01*
X137332663Y-122800745D01*
X137526824Y-122606923D01*
X137554423Y-122540456D01*
X137557136Y-122547005D01*
X137803255Y-122621139D01*
X138631395Y-121793000D01*
X138990605Y-121793000D01*
X139818745Y-122621139D01*
X140064864Y-122547005D01*
X140257965Y-122009777D01*
X140230778Y-121439546D01*
X140064864Y-121038995D01*
X139818745Y-120964861D01*
X138990605Y-121793000D01*
X138631395Y-121793000D01*
X137803255Y-120964861D01*
X137557136Y-121038995D01*
X137554804Y-121045483D01*
X137528243Y-120981200D01*
X137124923Y-120577176D01*
X136597691Y-120358250D01*
X136421955Y-120358097D01*
X136774499Y-119973418D01*
X136933519Y-120211409D01*
X137431509Y-120544155D01*
X138018928Y-120661000D01*
X138020288Y-120661000D01*
X137982861Y-120785255D01*
X138811000Y-121613395D01*
X139639139Y-120785255D01*
X139565005Y-120539136D01*
X139027777Y-120346035D01*
X138958021Y-120349361D01*
X139164481Y-120211409D01*
X139497227Y-119713419D01*
X139614072Y-119126000D01*
X139508659Y-118596053D01*
X140885303Y-119972697D01*
X141157235Y-120154396D01*
X141478000Y-120218200D01*
X146337806Y-120218200D01*
X146481800Y-120362194D01*
X146481800Y-121207297D01*
X146269946Y-121348853D01*
X146050000Y-121678026D01*
X145830054Y-121348853D01*
X145348285Y-121026946D01*
X144780000Y-120913907D01*
X144211715Y-121026946D01*
X143729946Y-121348853D01*
X143510000Y-121678026D01*
X143290054Y-121348853D01*
X142808285Y-121026946D01*
X142240000Y-120913907D01*
X141671715Y-121026946D01*
X141189946Y-121348853D01*
X140868039Y-121830622D01*
X140755000Y-122398907D01*
X140755000Y-122457093D01*
X140868039Y-123025378D01*
X141189946Y-123507147D01*
X141671715Y-123829054D01*
X142240000Y-123942093D01*
X142808285Y-123829054D01*
X143290054Y-123507147D01*
X143510000Y-123177974D01*
X143729946Y-123507147D01*
X144211715Y-123829054D01*
X144780000Y-123942093D01*
X145348285Y-123829054D01*
X145830054Y-123507147D01*
X146050000Y-123177974D01*
X146269946Y-123507147D01*
X146751715Y-123829054D01*
X147320000Y-123942093D01*
X147888285Y-123829054D01*
X148370054Y-123507147D01*
X148590000Y-123177974D01*
X148809946Y-123507147D01*
X149291715Y-123829054D01*
X149860000Y-123942093D01*
X150428285Y-123829054D01*
X150910054Y-123507147D01*
X151130000Y-123177974D01*
X151349946Y-123507147D01*
X151831715Y-123829054D01*
X152400000Y-123942093D01*
X152968285Y-123829054D01*
X153450054Y-123507147D01*
X153677702Y-123166447D01*
X153744817Y-123309358D01*
X154173076Y-123699645D01*
X154583110Y-123869476D01*
X154813000Y-123748155D01*
X154813000Y-122555000D01*
X155067000Y-122555000D01*
X155067000Y-123748155D01*
X155296890Y-123869476D01*
X155706924Y-123699645D01*
X156135183Y-123309358D01*
X156210000Y-123150046D01*
X156284817Y-123309358D01*
X156713076Y-123699645D01*
X157123110Y-123869476D01*
X157353000Y-123748155D01*
X157353000Y-122555000D01*
X155067000Y-122555000D01*
X154813000Y-122555000D01*
X154793000Y-122555000D01*
X154793000Y-122301000D01*
X154813000Y-122301000D01*
X154813000Y-121107845D01*
X155067000Y-121107845D01*
X155067000Y-122301000D01*
X157353000Y-122301000D01*
X157353000Y-121107845D01*
X157607000Y-121107845D01*
X157607000Y-122301000D01*
X157627000Y-122301000D01*
X157627000Y-122555000D01*
X157607000Y-122555000D01*
X157607000Y-123748155D01*
X157836890Y-123869476D01*
X158246924Y-123699645D01*
X158549937Y-123423499D01*
X158566838Y-123513317D01*
X158705910Y-123729441D01*
X158918110Y-123874431D01*
X159170000Y-123925440D01*
X160870000Y-123925440D01*
X161105317Y-123881162D01*
X161321441Y-123742090D01*
X161466431Y-123529890D01*
X161517440Y-123278000D01*
X161517440Y-121578000D01*
X161473162Y-121342683D01*
X161334090Y-121126559D01*
X161121890Y-120981569D01*
X160870000Y-120930560D01*
X159170000Y-120930560D01*
X158934683Y-120974838D01*
X158718559Y-121113910D01*
X158573569Y-121326110D01*
X158551699Y-121434107D01*
X158246924Y-121156355D01*
X157836890Y-120986524D01*
X157607000Y-121107845D01*
X157353000Y-121107845D01*
X157123110Y-120986524D01*
X156713076Y-121156355D01*
X156284817Y-121546642D01*
X156210000Y-121705954D01*
X156135183Y-121546642D01*
X155706924Y-121156355D01*
X155296890Y-120986524D01*
X155067000Y-121107845D01*
X154813000Y-121107845D01*
X154583110Y-120986524D01*
X154173076Y-121156355D01*
X153744817Y-121546642D01*
X153677702Y-121689553D01*
X153450054Y-121348853D01*
X152968285Y-121026946D01*
X152400000Y-120913907D01*
X151831715Y-121026946D01*
X151349946Y-121348853D01*
X151130000Y-121678026D01*
X150910054Y-121348853D01*
X150698200Y-121207297D01*
X150698200Y-119380000D01*
X150634396Y-119059235D01*
X150452697Y-118787303D01*
X150359594Y-118694200D01*
X173515806Y-118694200D01*
X174421800Y-119600194D01*
X174421800Y-121207297D01*
X174209946Y-121348853D01*
X173990000Y-121678026D01*
X173770054Y-121348853D01*
X173288285Y-121026946D01*
X172720000Y-120913907D01*
X172151715Y-121026946D01*
X171669946Y-121348853D01*
X171450000Y-121678026D01*
X171230054Y-121348853D01*
X170748285Y-121026946D01*
X170180000Y-120913907D01*
X169611715Y-121026946D01*
X169129946Y-121348853D01*
X168910000Y-121678026D01*
X168690054Y-121348853D01*
X168208285Y-121026946D01*
X167640000Y-120913907D01*
X167071715Y-121026946D01*
X166589946Y-121348853D01*
X166370000Y-121678026D01*
X166150054Y-121348853D01*
X165668285Y-121026946D01*
X165100000Y-120913907D01*
X164531715Y-121026946D01*
X164049946Y-121348853D01*
X163728039Y-121830622D01*
X163615000Y-122398907D01*
X163615000Y-122457093D01*
X163728039Y-123025378D01*
X164049946Y-123507147D01*
X164531715Y-123829054D01*
X165100000Y-123942093D01*
X165668285Y-123829054D01*
X166150054Y-123507147D01*
X166370000Y-123177974D01*
X166589946Y-123507147D01*
X167071715Y-123829054D01*
X167640000Y-123942093D01*
X168208285Y-123829054D01*
X168690054Y-123507147D01*
X168910000Y-123177974D01*
X169129946Y-123507147D01*
X169611715Y-123829054D01*
X170180000Y-123942093D01*
X170748285Y-123829054D01*
X171230054Y-123507147D01*
X171450000Y-123177974D01*
X171669946Y-123507147D01*
X172151715Y-123829054D01*
X172720000Y-123942093D01*
X173288285Y-123829054D01*
X173770054Y-123507147D01*
X173990000Y-123177974D01*
X174209946Y-123507147D01*
X174691715Y-123829054D01*
X175260000Y-123942093D01*
X175828285Y-123829054D01*
X176310054Y-123507147D01*
X176337850Y-123465548D01*
X176346838Y-123513317D01*
X176485910Y-123729441D01*
X176698110Y-123874431D01*
X176950000Y-123925440D01*
X178650000Y-123925440D01*
X178885317Y-123881162D01*
X179101441Y-123742090D01*
X179246431Y-123529890D01*
X179297440Y-123278000D01*
X179297440Y-121578000D01*
X179253162Y-121342683D01*
X179114090Y-121126559D01*
X178901890Y-120981569D01*
X178650000Y-120930560D01*
X178638200Y-120930560D01*
X178638200Y-119126000D01*
X178574396Y-118805235D01*
X178574396Y-118805234D01*
X178392697Y-118533303D01*
X176360697Y-116501303D01*
X176088766Y-116319604D01*
X175768000Y-116255800D01*
X156890594Y-116255800D01*
X160065014Y-113081380D01*
X160274000Y-113122950D01*
X160823151Y-113013717D01*
X161288698Y-112702648D01*
X161541507Y-112324293D01*
X161889104Y-112756500D01*
X162382181Y-113026367D01*
X162464961Y-113043904D01*
X162687000Y-112921915D01*
X162687000Y-111379000D01*
X162667000Y-111379000D01*
X162667000Y-111125000D01*
X162687000Y-111125000D01*
X162687000Y-109582085D01*
X162941000Y-109582085D01*
X162941000Y-111125000D01*
X162961000Y-111125000D01*
X162961000Y-111379000D01*
X162941000Y-111379000D01*
X162941000Y-112921915D01*
X163163039Y-113043904D01*
X163245819Y-113026367D01*
X163738896Y-112756500D01*
X164086493Y-112324293D01*
X164339302Y-112702648D01*
X164804849Y-113013717D01*
X165354000Y-113122950D01*
X165903151Y-113013717D01*
X166368698Y-112702648D01*
X166624000Y-112320562D01*
X166879302Y-112702648D01*
X167344849Y-113013717D01*
X167894000Y-113122950D01*
X168443151Y-113013717D01*
X168908698Y-112702648D01*
X169164000Y-112320562D01*
X169419302Y-112702648D01*
X169884849Y-113013717D01*
X170434000Y-113122950D01*
X170983151Y-113013717D01*
X171448698Y-112702648D01*
X171704000Y-112320562D01*
X171959302Y-112702648D01*
X172424849Y-113013717D01*
X172974000Y-113122950D01*
X173523151Y-113013717D01*
X173988698Y-112702648D01*
X174244000Y-112320562D01*
X174499302Y-112702648D01*
X174964849Y-113013717D01*
X175514000Y-113122950D01*
X176063151Y-113013717D01*
X176528698Y-112702648D01*
X176784000Y-112320562D01*
X177039302Y-112702648D01*
X177504849Y-113013717D01*
X178054000Y-113122950D01*
X178603151Y-113013717D01*
X179068698Y-112702648D01*
X179379767Y-112237101D01*
X179489000Y-111687950D01*
X179489000Y-110816050D01*
X179379767Y-110266899D01*
X179068698Y-109801352D01*
X178603151Y-109490283D01*
X178054000Y-109381050D01*
X177504849Y-109490283D01*
X177039302Y-109801352D01*
X176784000Y-110183438D01*
X176528698Y-109801352D01*
X176063151Y-109490283D01*
X175514000Y-109381050D01*
X174964849Y-109490283D01*
X174499302Y-109801352D01*
X174244000Y-110183438D01*
X173988698Y-109801352D01*
X173523151Y-109490283D01*
X172974000Y-109381050D01*
X172424849Y-109490283D01*
X171959302Y-109801352D01*
X171704000Y-110183438D01*
X171448698Y-109801352D01*
X170983151Y-109490283D01*
X170434000Y-109381050D01*
X169884849Y-109490283D01*
X169419302Y-109801352D01*
X169164000Y-110183438D01*
X168908698Y-109801352D01*
X168443151Y-109490283D01*
X167894000Y-109381050D01*
X167344849Y-109490283D01*
X166879302Y-109801352D01*
X166624000Y-110183438D01*
X166368698Y-109801352D01*
X165903151Y-109490283D01*
X165354000Y-109381050D01*
X164804849Y-109490283D01*
X164339302Y-109801352D01*
X164086493Y-110179707D01*
X163738896Y-109747500D01*
X163245819Y-109477633D01*
X163163039Y-109460096D01*
X162941000Y-109582085D01*
X162687000Y-109582085D01*
X162464961Y-109460096D01*
X162382181Y-109477633D01*
X161889104Y-109747500D01*
X161541507Y-110179707D01*
X161288698Y-109801352D01*
X160823151Y-109490283D01*
X160274000Y-109381050D01*
X159724849Y-109490283D01*
X159259302Y-109801352D01*
X159004000Y-110183438D01*
X158748698Y-109801352D01*
X158283151Y-109490283D01*
X157734000Y-109381050D01*
X157184849Y-109490283D01*
X156719302Y-109801352D01*
X156464000Y-110183438D01*
X156208698Y-109801352D01*
X155743151Y-109490283D01*
X155194000Y-109381050D01*
X154644849Y-109490283D01*
X154179302Y-109801352D01*
X153924000Y-110183438D01*
X153668698Y-109801352D01*
X153492200Y-109683420D01*
X153492200Y-108932194D01*
X154144194Y-108280200D01*
X178816000Y-108280200D01*
X179136766Y-108216396D01*
X179408697Y-108034697D01*
X180932697Y-106510697D01*
X181114396Y-106238765D01*
X181178200Y-105918000D01*
X181178200Y-102582194D01*
X182170000Y-101590394D01*
X182170000Y-116142958D01*
X182170000Y-116142958D01*
G37*
X182170000Y-116142958D02*
X181919677Y-115768323D01*
X181194915Y-115284053D01*
X180340000Y-115114000D01*
X179485085Y-115284053D01*
X178760323Y-115768323D01*
X178276053Y-116493085D01*
X178106000Y-117348000D01*
X178276053Y-118202915D01*
X178760323Y-118927677D01*
X179485085Y-119411947D01*
X180340000Y-119582000D01*
X181194915Y-119411947D01*
X181919677Y-118927677D01*
X182170000Y-118553042D01*
X182170000Y-119630945D01*
X179794563Y-122481469D01*
X179743451Y-122575388D01*
X179684046Y-122664295D01*
X179677697Y-122696214D01*
X179662141Y-122724798D01*
X179650861Y-122831125D01*
X179630000Y-122936000D01*
X179630000Y-124258000D01*
X129475042Y-124258000D01*
X129849677Y-124007677D01*
X130333947Y-123282915D01*
X130429856Y-122800745D01*
X130743861Y-122800745D01*
X130817995Y-123046864D01*
X131355223Y-123239965D01*
X131925454Y-123212778D01*
X132326005Y-123046864D01*
X132400139Y-122800745D01*
X131572000Y-121972605D01*
X130743861Y-122800745D01*
X130429856Y-122800745D01*
X130471160Y-122593098D01*
X130564255Y-122621139D01*
X131392395Y-121793000D01*
X130564255Y-120964861D01*
X130318136Y-121038995D01*
X130198842Y-121370885D01*
X129849677Y-120848323D01*
X129124915Y-120364053D01*
X128270000Y-120194000D01*
X127415085Y-120364053D01*
X126690323Y-120848323D01*
X126206053Y-121573085D01*
X126036000Y-122428000D01*
X126206053Y-123282915D01*
X126690323Y-124007677D01*
X127064958Y-124258000D01*
X115010000Y-124258000D01*
X115010000Y-116744750D01*
X117503000Y-116744750D01*
X117503000Y-118335310D01*
X117599673Y-118568699D01*
X117778302Y-118747327D01*
X118011691Y-118844000D01*
X119602250Y-118844000D01*
X119761000Y-118685250D01*
X119761000Y-116586000D01*
X120015000Y-116586000D01*
X120015000Y-118685250D01*
X120173750Y-118844000D01*
X120843378Y-118844000D01*
X120686559Y-118944910D01*
X120541569Y-119157110D01*
X120490560Y-119409000D01*
X120490560Y-122909000D01*
X120534838Y-123144317D01*
X120673910Y-123360441D01*
X120886110Y-123505431D01*
X121138000Y-123556440D01*
X124638000Y-123556440D01*
X124873317Y-123512162D01*
X125089441Y-123373090D01*
X125234431Y-123160890D01*
X125285440Y-122909000D01*
X125285440Y-119409000D01*
X125241162Y-119173683D01*
X125102090Y-118957559D01*
X124954097Y-118856440D01*
X127638000Y-118856440D01*
X127873317Y-118812162D01*
X128089441Y-118673090D01*
X128234431Y-118460890D01*
X128285440Y-118209000D01*
X128285440Y-114709000D01*
X128241162Y-114473683D01*
X128102090Y-114257559D01*
X127889890Y-114112569D01*
X127638000Y-114061560D01*
X124138000Y-114061560D01*
X123902683Y-114105838D01*
X123686559Y-114244910D01*
X123541569Y-114457110D01*
X123490560Y-114709000D01*
X123490560Y-118209000D01*
X123534838Y-118444317D01*
X123673910Y-118660441D01*
X123821903Y-118761560D01*
X121963337Y-118761560D01*
X121997698Y-118747327D01*
X122176327Y-118568699D01*
X122273000Y-118335310D01*
X122273000Y-116744750D01*
X122114250Y-116586000D01*
X120015000Y-116586000D01*
X119761000Y-116586000D01*
X117661750Y-116586000D01*
X117503000Y-116744750D01*
X115010000Y-116744750D01*
X115010000Y-114582690D01*
X117503000Y-114582690D01*
X117503000Y-116173250D01*
X117661750Y-116332000D01*
X119761000Y-116332000D01*
X119761000Y-114232750D01*
X120015000Y-114232750D01*
X120015000Y-116332000D01*
X122114250Y-116332000D01*
X122273000Y-116173250D01*
X122273000Y-114582690D01*
X122176327Y-114349301D01*
X121997698Y-114170673D01*
X121764309Y-114074000D01*
X120173750Y-114074000D01*
X120015000Y-114232750D01*
X119761000Y-114232750D01*
X119602250Y-114074000D01*
X118011691Y-114074000D01*
X117778302Y-114170673D01*
X117599673Y-114349301D01*
X117503000Y-114582690D01*
X115010000Y-114582690D01*
X115010000Y-103337273D01*
X115199106Y-103794943D01*
X115658637Y-104255278D01*
X115747800Y-104292302D01*
X115747800Y-110074522D01*
X115811604Y-110395288D01*
X115993303Y-110667219D01*
X116535781Y-111209697D01*
X116807713Y-111391396D01*
X117128478Y-111455200D01*
X132367806Y-111455200D01*
X138609019Y-117696413D01*
X138079072Y-117591000D01*
X138018928Y-117591000D01*
X137431509Y-117707845D01*
X136933519Y-118040591D01*
X136774499Y-118278582D01*
X136416576Y-117888034D01*
X135873742Y-117634954D01*
X135636000Y-117755003D01*
X135636000Y-118999000D01*
X135656000Y-118999000D01*
X135656000Y-119253000D01*
X135636000Y-119253000D01*
X135636000Y-119273000D01*
X135382000Y-119273000D01*
X135382000Y-119253000D01*
X135362000Y-119253000D01*
X135362000Y-118999000D01*
X135382000Y-118999000D01*
X135382000Y-117755003D01*
X135144258Y-117634954D01*
X134601424Y-117888034D01*
X134478156Y-118022538D01*
X134472162Y-117990683D01*
X134333090Y-117774559D01*
X134120890Y-117629569D01*
X133869000Y-117578560D01*
X132069000Y-117578560D01*
X131833683Y-117622838D01*
X131617559Y-117761910D01*
X131472569Y-117974110D01*
X131421560Y-118226000D01*
X131421560Y-120026000D01*
X131465838Y-120261317D01*
X131528343Y-120358452D01*
X131218546Y-120373222D01*
X130817995Y-120539136D01*
X130743861Y-120785255D01*
X131572000Y-121613395D01*
X132400139Y-120785255D01*
X132366459Y-120673440D01*
X133162346Y-120673440D01*
X132856176Y-120979077D01*
X132828577Y-121045544D01*
X132825864Y-121038995D01*
X132579745Y-120964861D01*
X131751605Y-121793000D01*
X132579745Y-122621139D01*
X132825864Y-122547005D01*
X132828196Y-122540517D01*
X132854757Y-122604800D01*
X133258077Y-123008824D01*
X133785309Y-123227750D01*
X134356187Y-123228248D01*
X134883800Y-123010243D01*
X135191683Y-122702897D01*
X135497077Y-123008824D01*
X136024309Y-123227750D01*
X136595187Y-123228248D01*
X137122800Y-123010243D01*
X137332663Y-122800745D01*
X137982861Y-122800745D01*
X138056995Y-123046864D01*
X138594223Y-123239965D01*
X139164454Y-123212778D01*
X139565005Y-123046864D01*
X139639139Y-122800745D01*
X138811000Y-121972605D01*
X137982861Y-122800745D01*
X137332663Y-122800745D01*
X137526824Y-122606923D01*
X137554423Y-122540456D01*
X137557136Y-122547005D01*
X137803255Y-122621139D01*
X138631395Y-121793000D01*
X138990605Y-121793000D01*
X139818745Y-122621139D01*
X140064864Y-122547005D01*
X140257965Y-122009777D01*
X140230778Y-121439546D01*
X140064864Y-121038995D01*
X139818745Y-120964861D01*
X138990605Y-121793000D01*
X138631395Y-121793000D01*
X137803255Y-120964861D01*
X137557136Y-121038995D01*
X137554804Y-121045483D01*
X137528243Y-120981200D01*
X137124923Y-120577176D01*
X136597691Y-120358250D01*
X136421955Y-120358097D01*
X136774499Y-119973418D01*
X136933519Y-120211409D01*
X137431509Y-120544155D01*
X138018928Y-120661000D01*
X138020288Y-120661000D01*
X137982861Y-120785255D01*
X138811000Y-121613395D01*
X139639139Y-120785255D01*
X139565005Y-120539136D01*
X139027777Y-120346035D01*
X138958021Y-120349361D01*
X139164481Y-120211409D01*
X139497227Y-119713419D01*
X139614072Y-119126000D01*
X139508659Y-118596053D01*
X140885303Y-119972697D01*
X141157235Y-120154396D01*
X141478000Y-120218200D01*
X146337806Y-120218200D01*
X146481800Y-120362194D01*
X146481800Y-121207297D01*
X146269946Y-121348853D01*
X146050000Y-121678026D01*
X145830054Y-121348853D01*
X145348285Y-121026946D01*
X144780000Y-120913907D01*
X144211715Y-121026946D01*
X143729946Y-121348853D01*
X143510000Y-121678026D01*
X143290054Y-121348853D01*
X142808285Y-121026946D01*
X142240000Y-120913907D01*
X141671715Y-121026946D01*
X141189946Y-121348853D01*
X140868039Y-121830622D01*
X140755000Y-122398907D01*
X140755000Y-122457093D01*
X140868039Y-123025378D01*
X141189946Y-123507147D01*
X141671715Y-123829054D01*
X142240000Y-123942093D01*
X142808285Y-123829054D01*
X143290054Y-123507147D01*
X143510000Y-123177974D01*
X143729946Y-123507147D01*
X144211715Y-123829054D01*
X144780000Y-123942093D01*
X145348285Y-123829054D01*
X145830054Y-123507147D01*
X146050000Y-123177974D01*
X146269946Y-123507147D01*
X146751715Y-123829054D01*
X147320000Y-123942093D01*
X147888285Y-123829054D01*
X148370054Y-123507147D01*
X148590000Y-123177974D01*
X148809946Y-123507147D01*
X149291715Y-123829054D01*
X149860000Y-123942093D01*
X150428285Y-123829054D01*
X150910054Y-123507147D01*
X151130000Y-123177974D01*
X151349946Y-123507147D01*
X151831715Y-123829054D01*
X152400000Y-123942093D01*
X152968285Y-123829054D01*
X153450054Y-123507147D01*
X153677702Y-123166447D01*
X153744817Y-123309358D01*
X154173076Y-123699645D01*
X154583110Y-123869476D01*
X154813000Y-123748155D01*
X154813000Y-122555000D01*
X155067000Y-122555000D01*
X155067000Y-123748155D01*
X155296890Y-123869476D01*
X155706924Y-123699645D01*
X156135183Y-123309358D01*
X156210000Y-123150046D01*
X156284817Y-123309358D01*
X156713076Y-123699645D01*
X157123110Y-123869476D01*
X157353000Y-123748155D01*
X157353000Y-122555000D01*
X155067000Y-122555000D01*
X154813000Y-122555000D01*
X154793000Y-122555000D01*
X154793000Y-122301000D01*
X154813000Y-122301000D01*
X154813000Y-121107845D01*
X155067000Y-121107845D01*
X155067000Y-122301000D01*
X157353000Y-122301000D01*
X157353000Y-121107845D01*
X157607000Y-121107845D01*
X157607000Y-122301000D01*
X157627000Y-122301000D01*
X157627000Y-122555000D01*
X157607000Y-122555000D01*
X157607000Y-123748155D01*
X157836890Y-123869476D01*
X158246924Y-123699645D01*
X158549937Y-123423499D01*
X158566838Y-123513317D01*
X158705910Y-123729441D01*
X158918110Y-123874431D01*
X159170000Y-123925440D01*
X160870000Y-123925440D01*
X161105317Y-123881162D01*
X161321441Y-123742090D01*
X161466431Y-123529890D01*
X161517440Y-123278000D01*
X161517440Y-121578000D01*
X161473162Y-121342683D01*
X161334090Y-121126559D01*
X161121890Y-120981569D01*
X160870000Y-120930560D01*
X159170000Y-120930560D01*
X158934683Y-120974838D01*
X158718559Y-121113910D01*
X158573569Y-121326110D01*
X158551699Y-121434107D01*
X158246924Y-121156355D01*
X157836890Y-120986524D01*
X157607000Y-121107845D01*
X157353000Y-121107845D01*
X157123110Y-120986524D01*
X156713076Y-121156355D01*
X156284817Y-121546642D01*
X156210000Y-121705954D01*
X156135183Y-121546642D01*
X155706924Y-121156355D01*
X155296890Y-120986524D01*
X155067000Y-121107845D01*
X154813000Y-121107845D01*
X154583110Y-120986524D01*
X154173076Y-121156355D01*
X153744817Y-121546642D01*
X153677702Y-121689553D01*
X153450054Y-121348853D01*
X152968285Y-121026946D01*
X152400000Y-120913907D01*
X151831715Y-121026946D01*
X151349946Y-121348853D01*
X151130000Y-121678026D01*
X150910054Y-121348853D01*
X150698200Y-121207297D01*
X150698200Y-119380000D01*
X150634396Y-119059235D01*
X150452697Y-118787303D01*
X150359594Y-118694200D01*
X173515806Y-118694200D01*
X174421800Y-119600194D01*
X174421800Y-121207297D01*
X174209946Y-121348853D01*
X173990000Y-121678026D01*
X173770054Y-121348853D01*
X173288285Y-121026946D01*
X172720000Y-120913907D01*
X172151715Y-121026946D01*
X171669946Y-121348853D01*
X171450000Y-121678026D01*
X171230054Y-121348853D01*
X170748285Y-121026946D01*
X170180000Y-120913907D01*
X169611715Y-121026946D01*
X169129946Y-121348853D01*
X168910000Y-121678026D01*
X168690054Y-121348853D01*
X168208285Y-121026946D01*
X167640000Y-120913907D01*
X167071715Y-121026946D01*
X166589946Y-121348853D01*
X166370000Y-121678026D01*
X166150054Y-121348853D01*
X165668285Y-121026946D01*
X165100000Y-120913907D01*
X164531715Y-121026946D01*
X164049946Y-121348853D01*
X163728039Y-121830622D01*
X163615000Y-122398907D01*
X163615000Y-122457093D01*
X163728039Y-123025378D01*
X164049946Y-123507147D01*
X164531715Y-123829054D01*
X165100000Y-123942093D01*
X165668285Y-123829054D01*
X166150054Y-123507147D01*
X166370000Y-123177974D01*
X166589946Y-123507147D01*
X167071715Y-123829054D01*
X167640000Y-123942093D01*
X168208285Y-123829054D01*
X168690054Y-123507147D01*
X168910000Y-123177974D01*
X169129946Y-123507147D01*
X169611715Y-123829054D01*
X170180000Y-123942093D01*
X170748285Y-123829054D01*
X171230054Y-123507147D01*
X171450000Y-123177974D01*
X171669946Y-123507147D01*
X172151715Y-123829054D01*
X172720000Y-123942093D01*
X173288285Y-123829054D01*
X173770054Y-123507147D01*
X173990000Y-123177974D01*
X174209946Y-123507147D01*
X174691715Y-123829054D01*
X175260000Y-123942093D01*
X175828285Y-123829054D01*
X176310054Y-123507147D01*
X176337850Y-123465548D01*
X176346838Y-123513317D01*
X176485910Y-123729441D01*
X176698110Y-123874431D01*
X176950000Y-123925440D01*
X178650000Y-123925440D01*
X178885317Y-123881162D01*
X179101441Y-123742090D01*
X179246431Y-123529890D01*
X179297440Y-123278000D01*
X179297440Y-121578000D01*
X179253162Y-121342683D01*
X179114090Y-121126559D01*
X178901890Y-120981569D01*
X178650000Y-120930560D01*
X178638200Y-120930560D01*
X178638200Y-119126000D01*
X178574396Y-118805235D01*
X178574396Y-118805234D01*
X178392697Y-118533303D01*
X176360697Y-116501303D01*
X176088766Y-116319604D01*
X175768000Y-116255800D01*
X156890594Y-116255800D01*
X160065014Y-113081380D01*
X160274000Y-113122950D01*
X160823151Y-113013717D01*
X161288698Y-112702648D01*
X161541507Y-112324293D01*
X161889104Y-112756500D01*
X162382181Y-113026367D01*
X162464961Y-113043904D01*
X162687000Y-112921915D01*
X162687000Y-111379000D01*
X162667000Y-111379000D01*
X162667000Y-111125000D01*
X162687000Y-111125000D01*
X162687000Y-109582085D01*
X162941000Y-109582085D01*
X162941000Y-111125000D01*
X162961000Y-111125000D01*
X162961000Y-111379000D01*
X162941000Y-111379000D01*
X162941000Y-112921915D01*
X163163039Y-113043904D01*
X163245819Y-113026367D01*
X163738896Y-112756500D01*
X164086493Y-112324293D01*
X164339302Y-112702648D01*
X164804849Y-113013717D01*
X165354000Y-113122950D01*
X165903151Y-113013717D01*
X166368698Y-112702648D01*
X166624000Y-112320562D01*
X166879302Y-112702648D01*
X167344849Y-113013717D01*
X167894000Y-113122950D01*
X168443151Y-113013717D01*
X168908698Y-112702648D01*
X169164000Y-112320562D01*
X169419302Y-112702648D01*
X169884849Y-113013717D01*
X170434000Y-113122950D01*
X170983151Y-113013717D01*
X171448698Y-112702648D01*
X171704000Y-112320562D01*
X171959302Y-112702648D01*
X172424849Y-113013717D01*
X172974000Y-113122950D01*
X173523151Y-113013717D01*
X173988698Y-112702648D01*
X174244000Y-112320562D01*
X174499302Y-112702648D01*
X174964849Y-113013717D01*
X175514000Y-113122950D01*
X176063151Y-113013717D01*
X176528698Y-112702648D01*
X176784000Y-112320562D01*
X177039302Y-112702648D01*
X177504849Y-113013717D01*
X178054000Y-113122950D01*
X178603151Y-113013717D01*
X179068698Y-112702648D01*
X179379767Y-112237101D01*
X179489000Y-111687950D01*
X179489000Y-110816050D01*
X179379767Y-110266899D01*
X179068698Y-109801352D01*
X178603151Y-109490283D01*
X178054000Y-109381050D01*
X177504849Y-109490283D01*
X177039302Y-109801352D01*
X176784000Y-110183438D01*
X176528698Y-109801352D01*
X176063151Y-109490283D01*
X175514000Y-109381050D01*
X174964849Y-109490283D01*
X174499302Y-109801352D01*
X174244000Y-110183438D01*
X173988698Y-109801352D01*
X173523151Y-109490283D01*
X172974000Y-109381050D01*
X172424849Y-109490283D01*
X171959302Y-109801352D01*
X171704000Y-110183438D01*
X171448698Y-109801352D01*
X170983151Y-109490283D01*
X170434000Y-109381050D01*
X169884849Y-109490283D01*
X169419302Y-109801352D01*
X169164000Y-110183438D01*
X168908698Y-109801352D01*
X168443151Y-109490283D01*
X167894000Y-109381050D01*
X167344849Y-109490283D01*
X166879302Y-109801352D01*
X166624000Y-110183438D01*
X166368698Y-109801352D01*
X165903151Y-109490283D01*
X165354000Y-109381050D01*
X164804849Y-109490283D01*
X164339302Y-109801352D01*
X164086493Y-110179707D01*
X163738896Y-109747500D01*
X163245819Y-109477633D01*
X163163039Y-109460096D01*
X162941000Y-109582085D01*
X162687000Y-109582085D01*
X162464961Y-109460096D01*
X162382181Y-109477633D01*
X161889104Y-109747500D01*
X161541507Y-110179707D01*
X161288698Y-109801352D01*
X160823151Y-109490283D01*
X160274000Y-109381050D01*
X159724849Y-109490283D01*
X159259302Y-109801352D01*
X159004000Y-110183438D01*
X158748698Y-109801352D01*
X158283151Y-109490283D01*
X157734000Y-109381050D01*
X157184849Y-109490283D01*
X156719302Y-109801352D01*
X156464000Y-110183438D01*
X156208698Y-109801352D01*
X155743151Y-109490283D01*
X155194000Y-109381050D01*
X154644849Y-109490283D01*
X154179302Y-109801352D01*
X153924000Y-110183438D01*
X153668698Y-109801352D01*
X153492200Y-109683420D01*
X153492200Y-108932194D01*
X154144194Y-108280200D01*
X178816000Y-108280200D01*
X179136766Y-108216396D01*
X179408697Y-108034697D01*
X180932697Y-106510697D01*
X181114396Y-106238765D01*
X181178200Y-105918000D01*
X181178200Y-102582194D01*
X182170000Y-101590394D01*
X182170000Y-116142958D01*
G36*
X124258757Y-75233800D02*
X124637800Y-75613505D01*
X124637800Y-77216000D01*
X124701604Y-77536766D01*
X124765019Y-77631674D01*
X124238152Y-77736474D01*
X123751971Y-78061330D01*
X123427115Y-78547511D01*
X123313041Y-79121000D01*
X123427115Y-79694489D01*
X123751971Y-80180670D01*
X124066752Y-80391000D01*
X123751971Y-80601330D01*
X123427115Y-81087511D01*
X123313041Y-81661000D01*
X123427115Y-82234489D01*
X123751971Y-82720670D01*
X124066752Y-82931000D01*
X123751971Y-83141330D01*
X123427115Y-83627511D01*
X123313041Y-84201000D01*
X123427115Y-84774489D01*
X123751971Y-85260670D01*
X124066752Y-85471000D01*
X123751971Y-85681330D01*
X123427115Y-86167511D01*
X123313041Y-86741000D01*
X123427115Y-87314489D01*
X123751971Y-87800670D01*
X124075228Y-88016664D01*
X123952510Y-88074179D01*
X123558312Y-88506053D01*
X123386042Y-88921974D01*
X123507183Y-89154000D01*
X124714000Y-89154000D01*
X124714000Y-89134000D01*
X124968000Y-89134000D01*
X124968000Y-89154000D01*
X127254000Y-89154000D01*
X127254000Y-89134000D01*
X127508000Y-89134000D01*
X127508000Y-89154000D01*
X127528000Y-89154000D01*
X127528000Y-89408000D01*
X127508000Y-89408000D01*
X127508000Y-91694000D01*
X127528000Y-91694000D01*
X127528000Y-91948000D01*
X127508000Y-91948000D01*
X127508000Y-91968000D01*
X127254000Y-91968000D01*
X127254000Y-91948000D01*
X127234000Y-91948000D01*
X127234000Y-91694000D01*
X127254000Y-91694000D01*
X127254000Y-89408000D01*
X124968000Y-89408000D01*
X124968000Y-89428000D01*
X124714000Y-89428000D01*
X124714000Y-89408000D01*
X123507183Y-89408000D01*
X123386042Y-89640026D01*
X123558312Y-90055947D01*
X123952510Y-90487821D01*
X124075228Y-90545336D01*
X123751971Y-90761330D01*
X123427115Y-91247511D01*
X123313041Y-91821000D01*
X123427115Y-92394489D01*
X123751971Y-92880670D01*
X124004166Y-93049181D01*
X124066604Y-93363080D01*
X124248303Y-93635011D01*
X124931989Y-94318697D01*
X125203920Y-94500396D01*
X125524686Y-94564200D01*
X128524000Y-94564200D01*
X128844766Y-94500396D01*
X129116697Y-94318697D01*
X129878697Y-93556697D01*
X129971800Y-93417358D01*
X129971800Y-101727000D01*
X130035604Y-102047766D01*
X130217303Y-102319697D01*
X136829800Y-108932194D01*
X136829800Y-112403406D01*
X131783697Y-107357303D01*
X131511766Y-107175604D01*
X131191000Y-107111800D01*
X127381000Y-107111800D01*
X127060234Y-107175604D01*
X126788303Y-107357303D01*
X126360389Y-107785217D01*
X125826813Y-107784752D01*
X125299200Y-108002757D01*
X124919495Y-108381800D01*
X124197371Y-108381800D01*
X123886274Y-108070160D01*
X123837396Y-107824433D01*
X123655697Y-107552501D01*
X123383765Y-107370802D01*
X123063000Y-107306998D01*
X122742235Y-107370802D01*
X122470303Y-107552501D01*
X122288604Y-107824433D01*
X122239585Y-108070871D01*
X121881066Y-108428764D01*
X121799609Y-108624934D01*
X121743742Y-108490059D01*
X121501764Y-108420841D01*
X120702605Y-109220000D01*
X120716748Y-109234143D01*
X120537143Y-109413748D01*
X120523000Y-109399605D01*
X120508858Y-109413748D01*
X120329253Y-109234143D01*
X120343395Y-109220000D01*
X119544236Y-108420841D01*
X119390440Y-108464834D01*
X119390440Y-108460000D01*
X119349277Y-108241236D01*
X119723841Y-108241236D01*
X120523000Y-109040395D01*
X121322159Y-108241236D01*
X121252941Y-107999258D01*
X120730220Y-107812845D01*
X120175951Y-107840659D01*
X119793059Y-107999258D01*
X119723841Y-108241236D01*
X119349277Y-108241236D01*
X119346162Y-108224683D01*
X119207090Y-108008559D01*
X118994890Y-107863569D01*
X118743000Y-107812560D01*
X117424200Y-107812560D01*
X117424200Y-104292736D01*
X117510943Y-104256894D01*
X117745715Y-104022532D01*
X120113073Y-104022532D01*
X120211736Y-104289387D01*
X120821461Y-104515908D01*
X121471460Y-104491856D01*
X121960264Y-104289387D01*
X122058927Y-104022532D01*
X121086000Y-103049605D01*
X120113073Y-104022532D01*
X117745715Y-104022532D01*
X117971278Y-103797363D01*
X118220716Y-103196648D01*
X118221232Y-102605461D01*
X119440092Y-102605461D01*
X119464144Y-103255460D01*
X119666613Y-103744264D01*
X119933468Y-103842927D01*
X120906395Y-102870000D01*
X121265605Y-102870000D01*
X122238532Y-103842927D01*
X122505387Y-103744264D01*
X122731908Y-103134539D01*
X122707856Y-102484540D01*
X122505387Y-101995736D01*
X122238532Y-101897073D01*
X121265605Y-102870000D01*
X120906395Y-102870000D01*
X119933468Y-101897073D01*
X119666613Y-101995736D01*
X119440092Y-102605461D01*
X118221232Y-102605461D01*
X118221284Y-102546205D01*
X117972894Y-101945057D01*
X117745703Y-101717468D01*
X120113073Y-101717468D01*
X121086000Y-102690395D01*
X122058927Y-101717468D01*
X121960264Y-101450613D01*
X121350539Y-101224092D01*
X120700540Y-101248144D01*
X120211736Y-101450613D01*
X120113073Y-101717468D01*
X117745703Y-101717468D01*
X117513363Y-101484722D01*
X117424200Y-101447698D01*
X117424200Y-97792736D01*
X117510943Y-97756894D01*
X117745715Y-97522532D01*
X120113073Y-97522532D01*
X120211736Y-97789387D01*
X120821461Y-98015908D01*
X121471460Y-97991856D01*
X121960264Y-97789387D01*
X122058927Y-97522532D01*
X121086000Y-96549605D01*
X120113073Y-97522532D01*
X117745715Y-97522532D01*
X117971278Y-97297363D01*
X118220716Y-96696648D01*
X118221232Y-96105461D01*
X119440092Y-96105461D01*
X119464144Y-96755460D01*
X119666613Y-97244264D01*
X119933468Y-97342927D01*
X120906395Y-96370000D01*
X121265605Y-96370000D01*
X122238532Y-97342927D01*
X122505387Y-97244264D01*
X122731908Y-96634539D01*
X122707856Y-95984540D01*
X122505387Y-95495736D01*
X122238532Y-95397073D01*
X121265605Y-96370000D01*
X120906395Y-96370000D01*
X119933468Y-95397073D01*
X119666613Y-95495736D01*
X119440092Y-96105461D01*
X118221232Y-96105461D01*
X118221284Y-96046205D01*
X117972894Y-95445057D01*
X117745703Y-95217468D01*
X120113073Y-95217468D01*
X121086000Y-96190395D01*
X122058927Y-95217468D01*
X121960264Y-94950613D01*
X121350539Y-94724092D01*
X120700540Y-94748144D01*
X120211736Y-94950613D01*
X120113073Y-95217468D01*
X117745703Y-95217468D01*
X117513363Y-94984722D01*
X117424200Y-94947698D01*
X117424200Y-81159194D01*
X122726611Y-75856783D01*
X123260187Y-75857248D01*
X123787800Y-75639243D01*
X124191824Y-75235923D01*
X124225813Y-75154069D01*
X124258757Y-75233800D01*
X124258757Y-75233800D01*
G37*
X124258757Y-75233800D02*
X124637800Y-75613505D01*
X124637800Y-77216000D01*
X124701604Y-77536766D01*
X124765019Y-77631674D01*
X124238152Y-77736474D01*
X123751971Y-78061330D01*
X123427115Y-78547511D01*
X123313041Y-79121000D01*
X123427115Y-79694489D01*
X123751971Y-80180670D01*
X124066752Y-80391000D01*
X123751971Y-80601330D01*
X123427115Y-81087511D01*
X123313041Y-81661000D01*
X123427115Y-82234489D01*
X123751971Y-82720670D01*
X124066752Y-82931000D01*
X123751971Y-83141330D01*
X123427115Y-83627511D01*
X123313041Y-84201000D01*
X123427115Y-84774489D01*
X123751971Y-85260670D01*
X124066752Y-85471000D01*
X123751971Y-85681330D01*
X123427115Y-86167511D01*
X123313041Y-86741000D01*
X123427115Y-87314489D01*
X123751971Y-87800670D01*
X124075228Y-88016664D01*
X123952510Y-88074179D01*
X123558312Y-88506053D01*
X123386042Y-88921974D01*
X123507183Y-89154000D01*
X124714000Y-89154000D01*
X124714000Y-89134000D01*
X124968000Y-89134000D01*
X124968000Y-89154000D01*
X127254000Y-89154000D01*
X127254000Y-89134000D01*
X127508000Y-89134000D01*
X127508000Y-89154000D01*
X127528000Y-89154000D01*
X127528000Y-89408000D01*
X127508000Y-89408000D01*
X127508000Y-91694000D01*
X127528000Y-91694000D01*
X127528000Y-91948000D01*
X127508000Y-91948000D01*
X127508000Y-91968000D01*
X127254000Y-91968000D01*
X127254000Y-91948000D01*
X127234000Y-91948000D01*
X127234000Y-91694000D01*
X127254000Y-91694000D01*
X127254000Y-89408000D01*
X124968000Y-89408000D01*
X124968000Y-89428000D01*
X124714000Y-89428000D01*
X124714000Y-89408000D01*
X123507183Y-89408000D01*
X123386042Y-89640026D01*
X123558312Y-90055947D01*
X123952510Y-90487821D01*
X124075228Y-90545336D01*
X123751971Y-90761330D01*
X123427115Y-91247511D01*
X123313041Y-91821000D01*
X123427115Y-92394489D01*
X123751971Y-92880670D01*
X124004166Y-93049181D01*
X124066604Y-93363080D01*
X124248303Y-93635011D01*
X124931989Y-94318697D01*
X125203920Y-94500396D01*
X125524686Y-94564200D01*
X128524000Y-94564200D01*
X128844766Y-94500396D01*
X129116697Y-94318697D01*
X129878697Y-93556697D01*
X129971800Y-93417358D01*
X129971800Y-101727000D01*
X130035604Y-102047766D01*
X130217303Y-102319697D01*
X136829800Y-108932194D01*
X136829800Y-112403406D01*
X131783697Y-107357303D01*
X131511766Y-107175604D01*
X131191000Y-107111800D01*
X127381000Y-107111800D01*
X127060234Y-107175604D01*
X126788303Y-107357303D01*
X126360389Y-107785217D01*
X125826813Y-107784752D01*
X125299200Y-108002757D01*
X124919495Y-108381800D01*
X124197371Y-108381800D01*
X123886274Y-108070160D01*
X123837396Y-107824433D01*
X123655697Y-107552501D01*
X123383765Y-107370802D01*
X123063000Y-107306998D01*
X122742235Y-107370802D01*
X122470303Y-107552501D01*
X122288604Y-107824433D01*
X122239585Y-108070871D01*
X121881066Y-108428764D01*
X121799609Y-108624934D01*
X121743742Y-108490059D01*
X121501764Y-108420841D01*
X120702605Y-109220000D01*
X120716748Y-109234143D01*
X120537143Y-109413748D01*
X120523000Y-109399605D01*
X120508858Y-109413748D01*
X120329253Y-109234143D01*
X120343395Y-109220000D01*
X119544236Y-108420841D01*
X119390440Y-108464834D01*
X119390440Y-108460000D01*
X119349277Y-108241236D01*
X119723841Y-108241236D01*
X120523000Y-109040395D01*
X121322159Y-108241236D01*
X121252941Y-107999258D01*
X120730220Y-107812845D01*
X120175951Y-107840659D01*
X119793059Y-107999258D01*
X119723841Y-108241236D01*
X119349277Y-108241236D01*
X119346162Y-108224683D01*
X119207090Y-108008559D01*
X118994890Y-107863569D01*
X118743000Y-107812560D01*
X117424200Y-107812560D01*
X117424200Y-104292736D01*
X117510943Y-104256894D01*
X117745715Y-104022532D01*
X120113073Y-104022532D01*
X120211736Y-104289387D01*
X120821461Y-104515908D01*
X121471460Y-104491856D01*
X121960264Y-104289387D01*
X122058927Y-104022532D01*
X121086000Y-103049605D01*
X120113073Y-104022532D01*
X117745715Y-104022532D01*
X117971278Y-103797363D01*
X118220716Y-103196648D01*
X118221232Y-102605461D01*
X119440092Y-102605461D01*
X119464144Y-103255460D01*
X119666613Y-103744264D01*
X119933468Y-103842927D01*
X120906395Y-102870000D01*
X121265605Y-102870000D01*
X122238532Y-103842927D01*
X122505387Y-103744264D01*
X122731908Y-103134539D01*
X122707856Y-102484540D01*
X122505387Y-101995736D01*
X122238532Y-101897073D01*
X121265605Y-102870000D01*
X120906395Y-102870000D01*
X119933468Y-101897073D01*
X119666613Y-101995736D01*
X119440092Y-102605461D01*
X118221232Y-102605461D01*
X118221284Y-102546205D01*
X117972894Y-101945057D01*
X117745703Y-101717468D01*
X120113073Y-101717468D01*
X121086000Y-102690395D01*
X122058927Y-101717468D01*
X121960264Y-101450613D01*
X121350539Y-101224092D01*
X120700540Y-101248144D01*
X120211736Y-101450613D01*
X120113073Y-101717468D01*
X117745703Y-101717468D01*
X117513363Y-101484722D01*
X117424200Y-101447698D01*
X117424200Y-97792736D01*
X117510943Y-97756894D01*
X117745715Y-97522532D01*
X120113073Y-97522532D01*
X120211736Y-97789387D01*
X120821461Y-98015908D01*
X121471460Y-97991856D01*
X121960264Y-97789387D01*
X122058927Y-97522532D01*
X121086000Y-96549605D01*
X120113073Y-97522532D01*
X117745715Y-97522532D01*
X117971278Y-97297363D01*
X118220716Y-96696648D01*
X118221232Y-96105461D01*
X119440092Y-96105461D01*
X119464144Y-96755460D01*
X119666613Y-97244264D01*
X119933468Y-97342927D01*
X120906395Y-96370000D01*
X121265605Y-96370000D01*
X122238532Y-97342927D01*
X122505387Y-97244264D01*
X122731908Y-96634539D01*
X122707856Y-95984540D01*
X122505387Y-95495736D01*
X122238532Y-95397073D01*
X121265605Y-96370000D01*
X120906395Y-96370000D01*
X119933468Y-95397073D01*
X119666613Y-95495736D01*
X119440092Y-96105461D01*
X118221232Y-96105461D01*
X118221284Y-96046205D01*
X117972894Y-95445057D01*
X117745703Y-95217468D01*
X120113073Y-95217468D01*
X121086000Y-96190395D01*
X122058927Y-95217468D01*
X121960264Y-94950613D01*
X121350539Y-94724092D01*
X120700540Y-94748144D01*
X120211736Y-94950613D01*
X120113073Y-95217468D01*
X117745703Y-95217468D01*
X117513363Y-94984722D01*
X117424200Y-94947698D01*
X117424200Y-81159194D01*
X122726611Y-75856783D01*
X123260187Y-75857248D01*
X123787800Y-75639243D01*
X124191824Y-75235923D01*
X124225813Y-75154069D01*
X124258757Y-75233800D01*
G36*
X179630000Y-72938092D02*
X179630000Y-84836000D01*
X179650861Y-84940875D01*
X179662141Y-85047202D01*
X179677697Y-85075786D01*
X179684046Y-85107705D01*
X179743451Y-85196612D01*
X179794563Y-85290531D01*
X181333095Y-87136769D01*
X181292116Y-87109388D01*
X180340000Y-86920000D01*
X179387884Y-87109388D01*
X178580718Y-87648718D01*
X178041388Y-88455884D01*
X177852000Y-89408000D01*
X178041388Y-90360116D01*
X178578225Y-91163551D01*
X178308000Y-91109800D01*
X175942889Y-91109800D01*
X175565923Y-90732176D01*
X175038691Y-90513250D01*
X174467813Y-90512752D01*
X173940200Y-90730757D01*
X173536176Y-91134077D01*
X173317250Y-91661309D01*
X173316782Y-92197824D01*
X166530806Y-98983800D01*
X166036889Y-98983800D01*
X165659923Y-98606176D01*
X165593456Y-98578577D01*
X165600005Y-98575864D01*
X165674139Y-98329745D01*
X164846000Y-97501605D01*
X164017861Y-98329745D01*
X164091995Y-98575864D01*
X164098483Y-98578196D01*
X164034200Y-98604757D01*
X163630176Y-99008077D01*
X163411250Y-99535309D01*
X163410752Y-100106187D01*
X163628757Y-100633800D01*
X163629755Y-100634800D01*
X163415194Y-100634800D01*
X162382200Y-99601806D01*
X162382200Y-97105223D01*
X163399035Y-97105223D01*
X163426222Y-97675454D01*
X163592136Y-98076005D01*
X163838255Y-98150139D01*
X164666395Y-97322000D01*
X165025605Y-97322000D01*
X165853745Y-98150139D01*
X166099864Y-98076005D01*
X166292965Y-97538777D01*
X166265778Y-96968546D01*
X166099864Y-96567995D01*
X165853745Y-96493861D01*
X165025605Y-97322000D01*
X164666395Y-97322000D01*
X163838255Y-96493861D01*
X163592136Y-96567995D01*
X163399035Y-97105223D01*
X162382200Y-97105223D01*
X162382200Y-96314255D01*
X164017861Y-96314255D01*
X164846000Y-97142395D01*
X165674139Y-96314255D01*
X165600005Y-96068136D01*
X165062777Y-95875035D01*
X164492546Y-95902222D01*
X164091995Y-96068136D01*
X164017861Y-96314255D01*
X162382200Y-96314255D01*
X162382200Y-88519000D01*
X162379625Y-88506053D01*
X162318396Y-88198234D01*
X162136697Y-87926303D01*
X161999889Y-87789495D01*
X162253330Y-87894733D01*
X162863991Y-87895265D01*
X163428371Y-87662068D01*
X163605841Y-87484908D01*
X163661673Y-87619699D01*
X163840302Y-87798327D01*
X164073691Y-87895000D01*
X164814250Y-87895000D01*
X164973000Y-87736250D01*
X164973000Y-86487000D01*
X165227000Y-86487000D01*
X165227000Y-87736250D01*
X165385750Y-87895000D01*
X166126309Y-87895000D01*
X166359698Y-87798327D01*
X166538327Y-87619699D01*
X166635000Y-87386310D01*
X166635000Y-86645750D01*
X166476250Y-86487000D01*
X165227000Y-86487000D01*
X164973000Y-86487000D01*
X164953000Y-86487000D01*
X164953000Y-86233000D01*
X164973000Y-86233000D01*
X164973000Y-84983750D01*
X165227000Y-84983750D01*
X165227000Y-86233000D01*
X166476250Y-86233000D01*
X166635000Y-86074250D01*
X166635000Y-85333690D01*
X166538327Y-85100301D01*
X166359698Y-84921673D01*
X166126309Y-84825000D01*
X165385750Y-84825000D01*
X165227000Y-84983750D01*
X164973000Y-84983750D01*
X164814250Y-84825000D01*
X164073691Y-84825000D01*
X163840302Y-84921673D01*
X163661673Y-85100301D01*
X163605881Y-85234994D01*
X163430643Y-85059449D01*
X162866670Y-84825267D01*
X162256009Y-84824735D01*
X162223543Y-84838149D01*
X161501697Y-84116303D01*
X161229766Y-83934604D01*
X161036695Y-83896200D01*
X170420400Y-83896200D01*
X170741166Y-83832396D01*
X171013097Y-83650697D01*
X178392697Y-76271097D01*
X178448485Y-76187604D01*
X178574396Y-75999165D01*
X178590254Y-75919440D01*
X178650000Y-75919440D01*
X178885317Y-75875162D01*
X179101441Y-75736090D01*
X179246431Y-75523890D01*
X179297440Y-75272000D01*
X179297440Y-73572000D01*
X179253162Y-73336683D01*
X179114090Y-73120559D01*
X178901890Y-72975569D01*
X178650000Y-72924560D01*
X176950000Y-72924560D01*
X176714683Y-72968838D01*
X176498559Y-73107910D01*
X176353569Y-73320110D01*
X176339914Y-73387541D01*
X176310054Y-73342853D01*
X175828285Y-73020946D01*
X175260000Y-72907907D01*
X174691715Y-73020946D01*
X174209946Y-73342853D01*
X173990000Y-73672026D01*
X173770054Y-73342853D01*
X173288285Y-73020946D01*
X172720000Y-72907907D01*
X172151715Y-73020946D01*
X171669946Y-73342853D01*
X171450000Y-73672026D01*
X171230054Y-73342853D01*
X170748285Y-73020946D01*
X170180000Y-72907907D01*
X169611715Y-73020946D01*
X169129946Y-73342853D01*
X168910000Y-73672026D01*
X168690054Y-73342853D01*
X168208285Y-73020946D01*
X167640000Y-72907907D01*
X167071715Y-73020946D01*
X166589946Y-73342853D01*
X166370000Y-73672026D01*
X166150054Y-73342853D01*
X165668285Y-73020946D01*
X165100000Y-72907907D01*
X164531715Y-73020946D01*
X164049946Y-73342853D01*
X163830000Y-73672026D01*
X163610054Y-73342853D01*
X163128285Y-73020946D01*
X162560000Y-72907907D01*
X161991715Y-73020946D01*
X161509946Y-73342853D01*
X161290000Y-73672026D01*
X161070054Y-73342853D01*
X160588285Y-73020946D01*
X160020000Y-72907907D01*
X159451715Y-73020946D01*
X158969946Y-73342853D01*
X158648039Y-73824622D01*
X158535000Y-74392907D01*
X158535000Y-74451093D01*
X158648039Y-75019378D01*
X158969946Y-75501147D01*
X159451715Y-75823054D01*
X160020000Y-75936093D01*
X160588285Y-75823054D01*
X161070054Y-75501147D01*
X161290000Y-75171974D01*
X161509946Y-75501147D01*
X161991715Y-75823054D01*
X162560000Y-75936093D01*
X163128285Y-75823054D01*
X163610054Y-75501147D01*
X163830000Y-75171974D01*
X164049946Y-75501147D01*
X164531715Y-75823054D01*
X165100000Y-75936093D01*
X165668285Y-75823054D01*
X166150054Y-75501147D01*
X166370000Y-75171974D01*
X166589946Y-75501147D01*
X167071715Y-75823054D01*
X167640000Y-75936093D01*
X168208285Y-75823054D01*
X168690054Y-75501147D01*
X168910000Y-75171974D01*
X169129946Y-75501147D01*
X169611715Y-75823054D01*
X170180000Y-75936093D01*
X170748285Y-75823054D01*
X171230054Y-75501147D01*
X171450000Y-75171974D01*
X171669946Y-75501147D01*
X172151715Y-75823054D01*
X172586974Y-75909632D01*
X169578806Y-78917800D01*
X158162889Y-78917800D01*
X157785923Y-78540176D01*
X157258691Y-78321250D01*
X156687813Y-78320752D01*
X156160200Y-78538757D01*
X155756176Y-78942077D01*
X155537250Y-79469309D01*
X155536752Y-80040187D01*
X155754757Y-80567800D01*
X156158077Y-80971824D01*
X156685309Y-81190750D01*
X157256187Y-81191248D01*
X157783800Y-80973243D01*
X158163505Y-80594200D01*
X169926000Y-80594200D01*
X170246766Y-80530396D01*
X170518697Y-80348697D01*
X174985836Y-75881558D01*
X175260000Y-75936093D01*
X175828285Y-75823054D01*
X176310054Y-75501147D01*
X176337850Y-75459548D01*
X176346838Y-75507317D01*
X176485910Y-75723441D01*
X176535608Y-75757398D01*
X170073206Y-82219800D01*
X158162889Y-82219800D01*
X157785923Y-81842176D01*
X157258691Y-81623250D01*
X156687813Y-81622752D01*
X156160200Y-81840757D01*
X155756176Y-82244077D01*
X155537250Y-82771309D01*
X155536752Y-83342187D01*
X155754757Y-83869800D01*
X155755755Y-83870800D01*
X151003000Y-83870800D01*
X150682235Y-83934604D01*
X150410303Y-84116303D01*
X149601389Y-84925217D01*
X149067813Y-84924752D01*
X148540200Y-85142757D01*
X148136176Y-85546077D01*
X147917250Y-86073309D01*
X147916752Y-86644187D01*
X148134757Y-87171800D01*
X148538077Y-87575824D01*
X149065309Y-87794750D01*
X149636187Y-87795248D01*
X150163800Y-87577243D01*
X150567824Y-87173923D01*
X150786750Y-86646691D01*
X150787218Y-86110176D01*
X151350194Y-85547200D01*
X155794285Y-85547200D01*
X155618120Y-85810849D01*
X155508887Y-86360000D01*
X155618120Y-86909151D01*
X155929189Y-87374698D01*
X156394736Y-87685767D01*
X156943887Y-87795000D01*
X157000113Y-87795000D01*
X157549264Y-87685767D01*
X158014811Y-87374698D01*
X158132743Y-87198200D01*
X159037806Y-87198200D01*
X160705800Y-88866194D01*
X160705800Y-99949000D01*
X160769604Y-100269766D01*
X160951303Y-100541697D01*
X162277394Y-101867788D01*
X162264849Y-101870283D01*
X161799302Y-102181352D01*
X161546493Y-102559707D01*
X161198896Y-102127500D01*
X160705819Y-101857633D01*
X160623039Y-101840096D01*
X160401000Y-101962085D01*
X160401000Y-103505000D01*
X160421000Y-103505000D01*
X160421000Y-103759000D01*
X160401000Y-103759000D01*
X160401000Y-105301915D01*
X160623039Y-105423904D01*
X160705819Y-105406367D01*
X161198896Y-105136500D01*
X161546493Y-104704293D01*
X161799302Y-105082648D01*
X162264849Y-105393717D01*
X162814000Y-105502950D01*
X163363151Y-105393717D01*
X163828698Y-105082648D01*
X164084000Y-104700562D01*
X164339302Y-105082648D01*
X164804849Y-105393717D01*
X165354000Y-105502950D01*
X165903151Y-105393717D01*
X166368698Y-105082648D01*
X166624000Y-104700562D01*
X166879302Y-105082648D01*
X167344849Y-105393717D01*
X167894000Y-105502950D01*
X168443151Y-105393717D01*
X168908698Y-105082648D01*
X169164000Y-104700562D01*
X169419302Y-105082648D01*
X169884849Y-105393717D01*
X170434000Y-105502950D01*
X170983151Y-105393717D01*
X171448698Y-105082648D01*
X171704000Y-104700562D01*
X171959302Y-105082648D01*
X172424849Y-105393717D01*
X172974000Y-105502950D01*
X173523151Y-105393717D01*
X173988698Y-105082648D01*
X174244000Y-104700562D01*
X174499302Y-105082648D01*
X174964849Y-105393717D01*
X175514000Y-105502950D01*
X176063151Y-105393717D01*
X176528698Y-105082648D01*
X176626251Y-104936650D01*
X176650838Y-105067317D01*
X176789910Y-105283441D01*
X177002110Y-105428431D01*
X177254000Y-105479440D01*
X178450166Y-105479440D01*
X178087806Y-105841800D01*
X153397000Y-105841800D01*
X153076234Y-105905604D01*
X152804303Y-106087303D01*
X149521303Y-109370303D01*
X149341351Y-109639620D01*
X149099302Y-109801352D01*
X148844000Y-110183438D01*
X148588698Y-109801352D01*
X148123151Y-109490283D01*
X147574000Y-109381050D01*
X147024849Y-109490283D01*
X146559302Y-109801352D01*
X146304000Y-110183438D01*
X146048698Y-109801352D01*
X145583151Y-109490283D01*
X145034000Y-109381050D01*
X144484849Y-109490283D01*
X144019302Y-109801352D01*
X143861665Y-110037271D01*
X143840200Y-110015806D01*
X143840200Y-104814603D01*
X144019302Y-105082648D01*
X144484849Y-105393717D01*
X145034000Y-105502950D01*
X145583151Y-105393717D01*
X146048698Y-105082648D01*
X146304000Y-104700562D01*
X146559302Y-105082648D01*
X147024849Y-105393717D01*
X147574000Y-105502950D01*
X148123151Y-105393717D01*
X148588698Y-105082648D01*
X148844000Y-104700562D01*
X149099302Y-105082648D01*
X149564849Y-105393717D01*
X150114000Y-105502950D01*
X150663151Y-105393717D01*
X151128698Y-105082648D01*
X151384000Y-104700562D01*
X151639302Y-105082648D01*
X152104849Y-105393717D01*
X152654000Y-105502950D01*
X153203151Y-105393717D01*
X153668698Y-105082648D01*
X153924000Y-104700562D01*
X154179302Y-105082648D01*
X154644849Y-105393717D01*
X155194000Y-105502950D01*
X155743151Y-105393717D01*
X156208698Y-105082648D01*
X156464000Y-104700562D01*
X156719302Y-105082648D01*
X157184849Y-105393717D01*
X157734000Y-105502950D01*
X158283151Y-105393717D01*
X158748698Y-105082648D01*
X159001507Y-104704293D01*
X159349104Y-105136500D01*
X159842181Y-105406367D01*
X159924961Y-105423904D01*
X160147000Y-105301915D01*
X160147000Y-103759000D01*
X160127000Y-103759000D01*
X160127000Y-103505000D01*
X160147000Y-103505000D01*
X160147000Y-101962085D01*
X159924961Y-101840096D01*
X159842181Y-101857633D01*
X159349104Y-102127500D01*
X159001507Y-102559707D01*
X158748698Y-102181352D01*
X158283151Y-101870283D01*
X157734000Y-101761050D01*
X157184849Y-101870283D01*
X156719302Y-102181352D01*
X156464000Y-102563438D01*
X156208698Y-102181352D01*
X155743151Y-101870283D01*
X155194000Y-101761050D01*
X154644849Y-101870283D01*
X154179302Y-102181352D01*
X153924000Y-102563438D01*
X153668698Y-102181352D01*
X153203151Y-101870283D01*
X152654000Y-101761050D01*
X152104849Y-101870283D01*
X151639302Y-102181352D01*
X151384000Y-102563438D01*
X151128698Y-102181352D01*
X150663151Y-101870283D01*
X150114000Y-101761050D01*
X149564849Y-101870283D01*
X149099302Y-102181352D01*
X148844000Y-102563438D01*
X148588698Y-102181352D01*
X148123151Y-101870283D01*
X147574000Y-101761050D01*
X147024849Y-101870283D01*
X146559302Y-102181352D01*
X146304000Y-102563438D01*
X146048698Y-102181352D01*
X145583151Y-101870283D01*
X145034000Y-101761050D01*
X144484849Y-101870283D01*
X144019302Y-102181352D01*
X143840200Y-102449397D01*
X143840200Y-98826285D01*
X152738760Y-98826285D01*
X152949169Y-99335515D01*
X153338436Y-99725461D01*
X153847298Y-99936759D01*
X154398285Y-99937240D01*
X154907515Y-99726831D01*
X155297461Y-99337564D01*
X155508759Y-98828702D01*
X155508761Y-98826285D01*
X157618760Y-98826285D01*
X157829169Y-99335515D01*
X158218436Y-99725461D01*
X158727298Y-99936759D01*
X159278285Y-99937240D01*
X159787515Y-99726831D01*
X160177461Y-99337564D01*
X160388759Y-98828702D01*
X160389240Y-98277715D01*
X160178831Y-97768485D01*
X159789564Y-97378539D01*
X159280702Y-97167241D01*
X158729715Y-97166760D01*
X158220485Y-97377169D01*
X157830539Y-97766436D01*
X157619241Y-98275298D01*
X157618760Y-98826285D01*
X155508761Y-98826285D01*
X155509240Y-98277715D01*
X155298831Y-97768485D01*
X154909564Y-97378539D01*
X154400702Y-97167241D01*
X153849715Y-97166760D01*
X153340485Y-97377169D01*
X152950539Y-97766436D01*
X152739241Y-98275298D01*
X152738760Y-98826285D01*
X143840200Y-98826285D01*
X143840200Y-94532187D01*
X152869752Y-94532187D01*
X153087757Y-95059800D01*
X153491077Y-95463824D01*
X154018309Y-95682750D01*
X154589187Y-95683248D01*
X155116800Y-95465243D01*
X155520824Y-95061923D01*
X155739750Y-94534691D01*
X155739799Y-94478187D01*
X157314752Y-94478187D01*
X157532757Y-95005800D01*
X157936077Y-95409824D01*
X158463309Y-95628750D01*
X159034187Y-95629248D01*
X159561800Y-95411243D01*
X159965824Y-95007923D01*
X160184750Y-94480691D01*
X160185248Y-93909813D01*
X159967243Y-93382200D01*
X159563923Y-92978176D01*
X159497456Y-92950577D01*
X159504005Y-92947864D01*
X159578139Y-92701745D01*
X158750000Y-91873605D01*
X157921861Y-92701745D01*
X157995995Y-92947864D01*
X158002483Y-92950196D01*
X157938200Y-92976757D01*
X157534176Y-93380077D01*
X157315250Y-93907309D01*
X157314752Y-94478187D01*
X155739799Y-94478187D01*
X155740248Y-93963813D01*
X155522243Y-93436200D01*
X155118923Y-93032176D01*
X155052456Y-93004577D01*
X155059005Y-93001864D01*
X155133139Y-92755745D01*
X154305000Y-91927605D01*
X153476861Y-92755745D01*
X153550995Y-93001864D01*
X153557483Y-93004196D01*
X153493200Y-93030757D01*
X153089176Y-93434077D01*
X152870250Y-93961309D01*
X152869752Y-94532187D01*
X143840200Y-94532187D01*
X143840200Y-91531223D01*
X152858035Y-91531223D01*
X152885222Y-92101454D01*
X153051136Y-92502005D01*
X153297255Y-92576139D01*
X154125395Y-91748000D01*
X154484605Y-91748000D01*
X155312745Y-92576139D01*
X155558864Y-92502005D01*
X155751965Y-91964777D01*
X155728720Y-91477223D01*
X157303035Y-91477223D01*
X157330222Y-92047454D01*
X157496136Y-92448005D01*
X157742255Y-92522139D01*
X158570395Y-91694000D01*
X158929605Y-91694000D01*
X159757745Y-92522139D01*
X160003864Y-92448005D01*
X160196965Y-91910777D01*
X160169778Y-91340546D01*
X160003864Y-90939995D01*
X159757745Y-90865861D01*
X158929605Y-91694000D01*
X158570395Y-91694000D01*
X157742255Y-90865861D01*
X157496136Y-90939995D01*
X157303035Y-91477223D01*
X155728720Y-91477223D01*
X155724778Y-91394546D01*
X155558864Y-90993995D01*
X155312745Y-90919861D01*
X154484605Y-91748000D01*
X154125395Y-91748000D01*
X153297255Y-90919861D01*
X153051136Y-90993995D01*
X152858035Y-91531223D01*
X143840200Y-91531223D01*
X143840200Y-90740255D01*
X153476861Y-90740255D01*
X154305000Y-91568395D01*
X155133139Y-90740255D01*
X155116874Y-90686255D01*
X157921861Y-90686255D01*
X158750000Y-91514395D01*
X159578139Y-90686255D01*
X159504005Y-90440136D01*
X158966777Y-90247035D01*
X158396546Y-90274222D01*
X157995995Y-90440136D01*
X157921861Y-90686255D01*
X155116874Y-90686255D01*
X155059005Y-90494136D01*
X154521777Y-90301035D01*
X153951546Y-90328222D01*
X153550995Y-90494136D01*
X153476861Y-90740255D01*
X143840200Y-90740255D01*
X143840200Y-83058000D01*
X147888887Y-83058000D01*
X147998120Y-83607151D01*
X148309189Y-84072698D01*
X148774736Y-84383767D01*
X149323887Y-84493000D01*
X149380113Y-84493000D01*
X149929264Y-84383767D01*
X150394811Y-84072698D01*
X150705880Y-83607151D01*
X150815113Y-83058000D01*
X150705880Y-82508849D01*
X150394811Y-82043302D01*
X149929264Y-81732233D01*
X149380113Y-81623000D01*
X149323887Y-81623000D01*
X148774736Y-81732233D01*
X148309189Y-82043302D01*
X147998120Y-82508849D01*
X147888887Y-83058000D01*
X143840200Y-83058000D01*
X143840200Y-80611194D01*
X145889194Y-78562200D01*
X148577234Y-78562200D01*
X148309189Y-78741302D01*
X147998120Y-79206849D01*
X147888887Y-79756000D01*
X147998120Y-80305151D01*
X148309189Y-80770698D01*
X148774736Y-81081767D01*
X149323887Y-81191000D01*
X149380113Y-81191000D01*
X149929264Y-81081767D01*
X150394811Y-80770698D01*
X150705880Y-80305151D01*
X150815113Y-79756000D01*
X150705880Y-79206849D01*
X150394811Y-78741302D01*
X150123838Y-78560243D01*
X150434766Y-78498396D01*
X150706697Y-78316697D01*
X153141836Y-75881558D01*
X153416000Y-75936093D01*
X153984285Y-75823054D01*
X154466054Y-75501147D01*
X154686000Y-75171974D01*
X154905946Y-75501147D01*
X155387715Y-75823054D01*
X155956000Y-75936093D01*
X156524285Y-75823054D01*
X157006054Y-75501147D01*
X157327961Y-75019378D01*
X157441000Y-74451093D01*
X157441000Y-74392907D01*
X157327961Y-73824622D01*
X157006054Y-73342853D01*
X156524285Y-73020946D01*
X155956000Y-72907907D01*
X155387715Y-73020946D01*
X154905946Y-73342853D01*
X154686000Y-73672026D01*
X154466054Y-73342853D01*
X153984285Y-73020946D01*
X153416000Y-72907907D01*
X152847715Y-73020946D01*
X152365946Y-73342853D01*
X152146000Y-73672026D01*
X151926054Y-73342853D01*
X151444285Y-73020946D01*
X150876000Y-72907907D01*
X150307715Y-73020946D01*
X149825946Y-73342853D01*
X149606000Y-73672026D01*
X149386054Y-73342853D01*
X148904285Y-73020946D01*
X148336000Y-72907907D01*
X147767715Y-73020946D01*
X147285946Y-73342853D01*
X147066000Y-73672026D01*
X146846054Y-73342853D01*
X146364285Y-73020946D01*
X145796000Y-72907907D01*
X145227715Y-73020946D01*
X144745946Y-73342853D01*
X144526000Y-73672026D01*
X144306054Y-73342853D01*
X143824285Y-73020946D01*
X143256000Y-72907907D01*
X142687715Y-73020946D01*
X142205946Y-73342853D01*
X141978298Y-73683553D01*
X141911183Y-73540642D01*
X141482924Y-73150355D01*
X141072890Y-72980524D01*
X140843000Y-73101845D01*
X140843000Y-74295000D01*
X140863000Y-74295000D01*
X140863000Y-74549000D01*
X140843000Y-74549000D01*
X140843000Y-75742155D01*
X141072890Y-75863476D01*
X141482924Y-75693645D01*
X141911183Y-75303358D01*
X141978298Y-75160447D01*
X142200977Y-75493710D01*
X140030200Y-77664487D01*
X140030200Y-75727246D01*
X140359110Y-75863476D01*
X140589000Y-75742155D01*
X140589000Y-74549000D01*
X140569000Y-74549000D01*
X140569000Y-74295000D01*
X140589000Y-74295000D01*
X140589000Y-73101845D01*
X140359110Y-72980524D01*
X139949076Y-73150355D01*
X139520817Y-73540642D01*
X139453702Y-73683553D01*
X139226054Y-73342853D01*
X138744285Y-73020946D01*
X138176000Y-72907907D01*
X137607715Y-73020946D01*
X137125946Y-73342853D01*
X136906000Y-73672026D01*
X136686054Y-73342853D01*
X136469928Y-73198443D01*
X136427820Y-72986752D01*
X136410396Y-72899153D01*
X136228697Y-72627222D01*
X136193475Y-72592000D01*
X179283908Y-72592000D01*
X179630000Y-72938092D01*
X179630000Y-72938092D01*
G37*
X179630000Y-72938092D02*
X179630000Y-84836000D01*
X179650861Y-84940875D01*
X179662141Y-85047202D01*
X179677697Y-85075786D01*
X179684046Y-85107705D01*
X179743451Y-85196612D01*
X179794563Y-85290531D01*
X181333095Y-87136769D01*
X181292116Y-87109388D01*
X180340000Y-86920000D01*
X179387884Y-87109388D01*
X178580718Y-87648718D01*
X178041388Y-88455884D01*
X177852000Y-89408000D01*
X178041388Y-90360116D01*
X178578225Y-91163551D01*
X178308000Y-91109800D01*
X175942889Y-91109800D01*
X175565923Y-90732176D01*
X175038691Y-90513250D01*
X174467813Y-90512752D01*
X173940200Y-90730757D01*
X173536176Y-91134077D01*
X173317250Y-91661309D01*
X173316782Y-92197824D01*
X166530806Y-98983800D01*
X166036889Y-98983800D01*
X165659923Y-98606176D01*
X165593456Y-98578577D01*
X165600005Y-98575864D01*
X165674139Y-98329745D01*
X164846000Y-97501605D01*
X164017861Y-98329745D01*
X164091995Y-98575864D01*
X164098483Y-98578196D01*
X164034200Y-98604757D01*
X163630176Y-99008077D01*
X163411250Y-99535309D01*
X163410752Y-100106187D01*
X163628757Y-100633800D01*
X163629755Y-100634800D01*
X163415194Y-100634800D01*
X162382200Y-99601806D01*
X162382200Y-97105223D01*
X163399035Y-97105223D01*
X163426222Y-97675454D01*
X163592136Y-98076005D01*
X163838255Y-98150139D01*
X164666395Y-97322000D01*
X165025605Y-97322000D01*
X165853745Y-98150139D01*
X166099864Y-98076005D01*
X166292965Y-97538777D01*
X166265778Y-96968546D01*
X166099864Y-96567995D01*
X165853745Y-96493861D01*
X165025605Y-97322000D01*
X164666395Y-97322000D01*
X163838255Y-96493861D01*
X163592136Y-96567995D01*
X163399035Y-97105223D01*
X162382200Y-97105223D01*
X162382200Y-96314255D01*
X164017861Y-96314255D01*
X164846000Y-97142395D01*
X165674139Y-96314255D01*
X165600005Y-96068136D01*
X165062777Y-95875035D01*
X164492546Y-95902222D01*
X164091995Y-96068136D01*
X164017861Y-96314255D01*
X162382200Y-96314255D01*
X162382200Y-88519000D01*
X162379625Y-88506053D01*
X162318396Y-88198234D01*
X162136697Y-87926303D01*
X161999889Y-87789495D01*
X162253330Y-87894733D01*
X162863991Y-87895265D01*
X163428371Y-87662068D01*
X163605841Y-87484908D01*
X163661673Y-87619699D01*
X163840302Y-87798327D01*
X164073691Y-87895000D01*
X164814250Y-87895000D01*
X164973000Y-87736250D01*
X164973000Y-86487000D01*
X165227000Y-86487000D01*
X165227000Y-87736250D01*
X165385750Y-87895000D01*
X166126309Y-87895000D01*
X166359698Y-87798327D01*
X166538327Y-87619699D01*
X166635000Y-87386310D01*
X166635000Y-86645750D01*
X166476250Y-86487000D01*
X165227000Y-86487000D01*
X164973000Y-86487000D01*
X164953000Y-86487000D01*
X164953000Y-86233000D01*
X164973000Y-86233000D01*
X164973000Y-84983750D01*
X165227000Y-84983750D01*
X165227000Y-86233000D01*
X166476250Y-86233000D01*
X166635000Y-86074250D01*
X166635000Y-85333690D01*
X166538327Y-85100301D01*
X166359698Y-84921673D01*
X166126309Y-84825000D01*
X165385750Y-84825000D01*
X165227000Y-84983750D01*
X164973000Y-84983750D01*
X164814250Y-84825000D01*
X164073691Y-84825000D01*
X163840302Y-84921673D01*
X163661673Y-85100301D01*
X163605881Y-85234994D01*
X163430643Y-85059449D01*
X162866670Y-84825267D01*
X162256009Y-84824735D01*
X162223543Y-84838149D01*
X161501697Y-84116303D01*
X161229766Y-83934604D01*
X161036695Y-83896200D01*
X170420400Y-83896200D01*
X170741166Y-83832396D01*
X171013097Y-83650697D01*
X178392697Y-76271097D01*
X178448485Y-76187604D01*
X178574396Y-75999165D01*
X178590254Y-75919440D01*
X178650000Y-75919440D01*
X178885317Y-75875162D01*
X179101441Y-75736090D01*
X179246431Y-75523890D01*
X179297440Y-75272000D01*
X179297440Y-73572000D01*
X179253162Y-73336683D01*
X179114090Y-73120559D01*
X178901890Y-72975569D01*
X178650000Y-72924560D01*
X176950000Y-72924560D01*
X176714683Y-72968838D01*
X176498559Y-73107910D01*
X176353569Y-73320110D01*
X176339914Y-73387541D01*
X176310054Y-73342853D01*
X175828285Y-73020946D01*
X175260000Y-72907907D01*
X174691715Y-73020946D01*
X174209946Y-73342853D01*
X173990000Y-73672026D01*
X173770054Y-73342853D01*
X173288285Y-73020946D01*
X172720000Y-72907907D01*
X172151715Y-73020946D01*
X171669946Y-73342853D01*
X171450000Y-73672026D01*
X171230054Y-73342853D01*
X170748285Y-73020946D01*
X170180000Y-72907907D01*
X169611715Y-73020946D01*
X169129946Y-73342853D01*
X168910000Y-73672026D01*
X168690054Y-73342853D01*
X168208285Y-73020946D01*
X167640000Y-72907907D01*
X167071715Y-73020946D01*
X166589946Y-73342853D01*
X166370000Y-73672026D01*
X166150054Y-73342853D01*
X165668285Y-73020946D01*
X165100000Y-72907907D01*
X164531715Y-73020946D01*
X164049946Y-73342853D01*
X163830000Y-73672026D01*
X163610054Y-73342853D01*
X163128285Y-73020946D01*
X162560000Y-72907907D01*
X161991715Y-73020946D01*
X161509946Y-73342853D01*
X161290000Y-73672026D01*
X161070054Y-73342853D01*
X160588285Y-73020946D01*
X160020000Y-72907907D01*
X159451715Y-73020946D01*
X158969946Y-73342853D01*
X158648039Y-73824622D01*
X158535000Y-74392907D01*
X158535000Y-74451093D01*
X158648039Y-75019378D01*
X158969946Y-75501147D01*
X159451715Y-75823054D01*
X160020000Y-75936093D01*
X160588285Y-75823054D01*
X161070054Y-75501147D01*
X161290000Y-75171974D01*
X161509946Y-75501147D01*
X161991715Y-75823054D01*
X162560000Y-75936093D01*
X163128285Y-75823054D01*
X163610054Y-75501147D01*
X163830000Y-75171974D01*
X164049946Y-75501147D01*
X164531715Y-75823054D01*
X165100000Y-75936093D01*
X165668285Y-75823054D01*
X166150054Y-75501147D01*
X166370000Y-75171974D01*
X166589946Y-75501147D01*
X167071715Y-75823054D01*
X167640000Y-75936093D01*
X168208285Y-75823054D01*
X168690054Y-75501147D01*
X168910000Y-75171974D01*
X169129946Y-75501147D01*
X169611715Y-75823054D01*
X170180000Y-75936093D01*
X170748285Y-75823054D01*
X171230054Y-75501147D01*
X171450000Y-75171974D01*
X171669946Y-75501147D01*
X172151715Y-75823054D01*
X172586974Y-75909632D01*
X169578806Y-78917800D01*
X158162889Y-78917800D01*
X157785923Y-78540176D01*
X157258691Y-78321250D01*
X156687813Y-78320752D01*
X156160200Y-78538757D01*
X155756176Y-78942077D01*
X155537250Y-79469309D01*
X155536752Y-80040187D01*
X155754757Y-80567800D01*
X156158077Y-80971824D01*
X156685309Y-81190750D01*
X157256187Y-81191248D01*
X157783800Y-80973243D01*
X158163505Y-80594200D01*
X169926000Y-80594200D01*
X170246766Y-80530396D01*
X170518697Y-80348697D01*
X174985836Y-75881558D01*
X175260000Y-75936093D01*
X175828285Y-75823054D01*
X176310054Y-75501147D01*
X176337850Y-75459548D01*
X176346838Y-75507317D01*
X176485910Y-75723441D01*
X176535608Y-75757398D01*
X170073206Y-82219800D01*
X158162889Y-82219800D01*
X157785923Y-81842176D01*
X157258691Y-81623250D01*
X156687813Y-81622752D01*
X156160200Y-81840757D01*
X155756176Y-82244077D01*
X155537250Y-82771309D01*
X155536752Y-83342187D01*
X155754757Y-83869800D01*
X155755755Y-83870800D01*
X151003000Y-83870800D01*
X150682235Y-83934604D01*
X150410303Y-84116303D01*
X149601389Y-84925217D01*
X149067813Y-84924752D01*
X148540200Y-85142757D01*
X148136176Y-85546077D01*
X147917250Y-86073309D01*
X147916752Y-86644187D01*
X148134757Y-87171800D01*
X148538077Y-87575824D01*
X149065309Y-87794750D01*
X149636187Y-87795248D01*
X150163800Y-87577243D01*
X150567824Y-87173923D01*
X150786750Y-86646691D01*
X150787218Y-86110176D01*
X151350194Y-85547200D01*
X155794285Y-85547200D01*
X155618120Y-85810849D01*
X155508887Y-86360000D01*
X155618120Y-86909151D01*
X155929189Y-87374698D01*
X156394736Y-87685767D01*
X156943887Y-87795000D01*
X157000113Y-87795000D01*
X157549264Y-87685767D01*
X158014811Y-87374698D01*
X158132743Y-87198200D01*
X159037806Y-87198200D01*
X160705800Y-88866194D01*
X160705800Y-99949000D01*
X160769604Y-100269766D01*
X160951303Y-100541697D01*
X162277394Y-101867788D01*
X162264849Y-101870283D01*
X161799302Y-102181352D01*
X161546493Y-102559707D01*
X161198896Y-102127500D01*
X160705819Y-101857633D01*
X160623039Y-101840096D01*
X160401000Y-101962085D01*
X160401000Y-103505000D01*
X160421000Y-103505000D01*
X160421000Y-103759000D01*
X160401000Y-103759000D01*
X160401000Y-105301915D01*
X160623039Y-105423904D01*
X160705819Y-105406367D01*
X161198896Y-105136500D01*
X161546493Y-104704293D01*
X161799302Y-105082648D01*
X162264849Y-105393717D01*
X162814000Y-105502950D01*
X163363151Y-105393717D01*
X163828698Y-105082648D01*
X164084000Y-104700562D01*
X164339302Y-105082648D01*
X164804849Y-105393717D01*
X165354000Y-105502950D01*
X165903151Y-105393717D01*
X166368698Y-105082648D01*
X166624000Y-104700562D01*
X166879302Y-105082648D01*
X167344849Y-105393717D01*
X167894000Y-105502950D01*
X168443151Y-105393717D01*
X168908698Y-105082648D01*
X169164000Y-104700562D01*
X169419302Y-105082648D01*
X169884849Y-105393717D01*
X170434000Y-105502950D01*
X170983151Y-105393717D01*
X171448698Y-105082648D01*
X171704000Y-104700562D01*
X171959302Y-105082648D01*
X172424849Y-105393717D01*
X172974000Y-105502950D01*
X173523151Y-105393717D01*
X173988698Y-105082648D01*
X174244000Y-104700562D01*
X174499302Y-105082648D01*
X174964849Y-105393717D01*
X175514000Y-105502950D01*
X176063151Y-105393717D01*
X176528698Y-105082648D01*
X176626251Y-104936650D01*
X176650838Y-105067317D01*
X176789910Y-105283441D01*
X177002110Y-105428431D01*
X177254000Y-105479440D01*
X178450166Y-105479440D01*
X178087806Y-105841800D01*
X153397000Y-105841800D01*
X153076234Y-105905604D01*
X152804303Y-106087303D01*
X149521303Y-109370303D01*
X149341351Y-109639620D01*
X149099302Y-109801352D01*
X148844000Y-110183438D01*
X148588698Y-109801352D01*
X148123151Y-109490283D01*
X147574000Y-109381050D01*
X147024849Y-109490283D01*
X146559302Y-109801352D01*
X146304000Y-110183438D01*
X146048698Y-109801352D01*
X145583151Y-109490283D01*
X145034000Y-109381050D01*
X144484849Y-109490283D01*
X144019302Y-109801352D01*
X143861665Y-110037271D01*
X143840200Y-110015806D01*
X143840200Y-104814603D01*
X144019302Y-105082648D01*
X144484849Y-105393717D01*
X145034000Y-105502950D01*
X145583151Y-105393717D01*
X146048698Y-105082648D01*
X146304000Y-104700562D01*
X146559302Y-105082648D01*
X147024849Y-105393717D01*
X147574000Y-105502950D01*
X148123151Y-105393717D01*
X148588698Y-105082648D01*
X148844000Y-104700562D01*
X149099302Y-105082648D01*
X149564849Y-105393717D01*
X150114000Y-105502950D01*
X150663151Y-105393717D01*
X151128698Y-105082648D01*
X151384000Y-104700562D01*
X151639302Y-105082648D01*
X152104849Y-105393717D01*
X152654000Y-105502950D01*
X153203151Y-105393717D01*
X153668698Y-105082648D01*
X153924000Y-104700562D01*
X154179302Y-105082648D01*
X154644849Y-105393717D01*
X155194000Y-105502950D01*
X155743151Y-105393717D01*
X156208698Y-105082648D01*
X156464000Y-104700562D01*
X156719302Y-105082648D01*
X157184849Y-105393717D01*
X157734000Y-105502950D01*
X158283151Y-105393717D01*
X158748698Y-105082648D01*
X159001507Y-104704293D01*
X159349104Y-105136500D01*
X159842181Y-105406367D01*
X159924961Y-105423904D01*
X160147000Y-105301915D01*
X160147000Y-103759000D01*
X160127000Y-103759000D01*
X160127000Y-103505000D01*
X160147000Y-103505000D01*
X160147000Y-101962085D01*
X159924961Y-101840096D01*
X159842181Y-101857633D01*
X159349104Y-102127500D01*
X159001507Y-102559707D01*
X158748698Y-102181352D01*
X158283151Y-101870283D01*
X157734000Y-101761050D01*
X157184849Y-101870283D01*
X156719302Y-102181352D01*
X156464000Y-102563438D01*
X156208698Y-102181352D01*
X155743151Y-101870283D01*
X155194000Y-101761050D01*
X154644849Y-101870283D01*
X154179302Y-102181352D01*
X153924000Y-102563438D01*
X153668698Y-102181352D01*
X153203151Y-101870283D01*
X152654000Y-101761050D01*
X152104849Y-101870283D01*
X151639302Y-102181352D01*
X151384000Y-102563438D01*
X151128698Y-102181352D01*
X150663151Y-101870283D01*
X150114000Y-101761050D01*
X149564849Y-101870283D01*
X149099302Y-102181352D01*
X148844000Y-102563438D01*
X148588698Y-102181352D01*
X148123151Y-101870283D01*
X147574000Y-101761050D01*
X147024849Y-101870283D01*
X146559302Y-102181352D01*
X146304000Y-102563438D01*
X146048698Y-102181352D01*
X145583151Y-101870283D01*
X145034000Y-101761050D01*
X144484849Y-101870283D01*
X144019302Y-102181352D01*
X143840200Y-102449397D01*
X143840200Y-98826285D01*
X152738760Y-98826285D01*
X152949169Y-99335515D01*
X153338436Y-99725461D01*
X153847298Y-99936759D01*
X154398285Y-99937240D01*
X154907515Y-99726831D01*
X155297461Y-99337564D01*
X155508759Y-98828702D01*
X155508761Y-98826285D01*
X157618760Y-98826285D01*
X157829169Y-99335515D01*
X158218436Y-99725461D01*
X158727298Y-99936759D01*
X159278285Y-99937240D01*
X159787515Y-99726831D01*
X160177461Y-99337564D01*
X160388759Y-98828702D01*
X160389240Y-98277715D01*
X160178831Y-97768485D01*
X159789564Y-97378539D01*
X159280702Y-97167241D01*
X158729715Y-97166760D01*
X158220485Y-97377169D01*
X157830539Y-97766436D01*
X157619241Y-98275298D01*
X157618760Y-98826285D01*
X155508761Y-98826285D01*
X155509240Y-98277715D01*
X155298831Y-97768485D01*
X154909564Y-97378539D01*
X154400702Y-97167241D01*
X153849715Y-97166760D01*
X153340485Y-97377169D01*
X152950539Y-97766436D01*
X152739241Y-98275298D01*
X152738760Y-98826285D01*
X143840200Y-98826285D01*
X143840200Y-94532187D01*
X152869752Y-94532187D01*
X153087757Y-95059800D01*
X153491077Y-95463824D01*
X154018309Y-95682750D01*
X154589187Y-95683248D01*
X155116800Y-95465243D01*
X155520824Y-95061923D01*
X155739750Y-94534691D01*
X155739799Y-94478187D01*
X157314752Y-94478187D01*
X157532757Y-95005800D01*
X157936077Y-95409824D01*
X158463309Y-95628750D01*
X159034187Y-95629248D01*
X159561800Y-95411243D01*
X159965824Y-95007923D01*
X160184750Y-94480691D01*
X160185248Y-93909813D01*
X159967243Y-93382200D01*
X159563923Y-92978176D01*
X159497456Y-92950577D01*
X159504005Y-92947864D01*
X159578139Y-92701745D01*
X158750000Y-91873605D01*
X157921861Y-92701745D01*
X157995995Y-92947864D01*
X158002483Y-92950196D01*
X157938200Y-92976757D01*
X157534176Y-93380077D01*
X157315250Y-93907309D01*
X157314752Y-94478187D01*
X155739799Y-94478187D01*
X155740248Y-93963813D01*
X155522243Y-93436200D01*
X155118923Y-93032176D01*
X155052456Y-93004577D01*
X155059005Y-93001864D01*
X155133139Y-92755745D01*
X154305000Y-91927605D01*
X153476861Y-92755745D01*
X153550995Y-93001864D01*
X153557483Y-93004196D01*
X153493200Y-93030757D01*
X153089176Y-93434077D01*
X152870250Y-93961309D01*
X152869752Y-94532187D01*
X143840200Y-94532187D01*
X143840200Y-91531223D01*
X152858035Y-91531223D01*
X152885222Y-92101454D01*
X153051136Y-92502005D01*
X153297255Y-92576139D01*
X154125395Y-91748000D01*
X154484605Y-91748000D01*
X155312745Y-92576139D01*
X155558864Y-92502005D01*
X155751965Y-91964777D01*
X155728720Y-91477223D01*
X157303035Y-91477223D01*
X157330222Y-92047454D01*
X157496136Y-92448005D01*
X157742255Y-92522139D01*
X158570395Y-91694000D01*
X158929605Y-91694000D01*
X159757745Y-92522139D01*
X160003864Y-92448005D01*
X160196965Y-91910777D01*
X160169778Y-91340546D01*
X160003864Y-90939995D01*
X159757745Y-90865861D01*
X158929605Y-91694000D01*
X158570395Y-91694000D01*
X157742255Y-90865861D01*
X157496136Y-90939995D01*
X157303035Y-91477223D01*
X155728720Y-91477223D01*
X155724778Y-91394546D01*
X155558864Y-90993995D01*
X155312745Y-90919861D01*
X154484605Y-91748000D01*
X154125395Y-91748000D01*
X153297255Y-90919861D01*
X153051136Y-90993995D01*
X152858035Y-91531223D01*
X143840200Y-91531223D01*
X143840200Y-90740255D01*
X153476861Y-90740255D01*
X154305000Y-91568395D01*
X155133139Y-90740255D01*
X155116874Y-90686255D01*
X157921861Y-90686255D01*
X158750000Y-91514395D01*
X159578139Y-90686255D01*
X159504005Y-90440136D01*
X158966777Y-90247035D01*
X158396546Y-90274222D01*
X157995995Y-90440136D01*
X157921861Y-90686255D01*
X155116874Y-90686255D01*
X155059005Y-90494136D01*
X154521777Y-90301035D01*
X153951546Y-90328222D01*
X153550995Y-90494136D01*
X153476861Y-90740255D01*
X143840200Y-90740255D01*
X143840200Y-83058000D01*
X147888887Y-83058000D01*
X147998120Y-83607151D01*
X148309189Y-84072698D01*
X148774736Y-84383767D01*
X149323887Y-84493000D01*
X149380113Y-84493000D01*
X149929264Y-84383767D01*
X150394811Y-84072698D01*
X150705880Y-83607151D01*
X150815113Y-83058000D01*
X150705880Y-82508849D01*
X150394811Y-82043302D01*
X149929264Y-81732233D01*
X149380113Y-81623000D01*
X149323887Y-81623000D01*
X148774736Y-81732233D01*
X148309189Y-82043302D01*
X147998120Y-82508849D01*
X147888887Y-83058000D01*
X143840200Y-83058000D01*
X143840200Y-80611194D01*
X145889194Y-78562200D01*
X148577234Y-78562200D01*
X148309189Y-78741302D01*
X147998120Y-79206849D01*
X147888887Y-79756000D01*
X147998120Y-80305151D01*
X148309189Y-80770698D01*
X148774736Y-81081767D01*
X149323887Y-81191000D01*
X149380113Y-81191000D01*
X149929264Y-81081767D01*
X150394811Y-80770698D01*
X150705880Y-80305151D01*
X150815113Y-79756000D01*
X150705880Y-79206849D01*
X150394811Y-78741302D01*
X150123838Y-78560243D01*
X150434766Y-78498396D01*
X150706697Y-78316697D01*
X153141836Y-75881558D01*
X153416000Y-75936093D01*
X153984285Y-75823054D01*
X154466054Y-75501147D01*
X154686000Y-75171974D01*
X154905946Y-75501147D01*
X155387715Y-75823054D01*
X155956000Y-75936093D01*
X156524285Y-75823054D01*
X157006054Y-75501147D01*
X157327961Y-75019378D01*
X157441000Y-74451093D01*
X157441000Y-74392907D01*
X157327961Y-73824622D01*
X157006054Y-73342853D01*
X156524285Y-73020946D01*
X155956000Y-72907907D01*
X155387715Y-73020946D01*
X154905946Y-73342853D01*
X154686000Y-73672026D01*
X154466054Y-73342853D01*
X153984285Y-73020946D01*
X153416000Y-72907907D01*
X152847715Y-73020946D01*
X152365946Y-73342853D01*
X152146000Y-73672026D01*
X151926054Y-73342853D01*
X151444285Y-73020946D01*
X150876000Y-72907907D01*
X150307715Y-73020946D01*
X149825946Y-73342853D01*
X149606000Y-73672026D01*
X149386054Y-73342853D01*
X148904285Y-73020946D01*
X148336000Y-72907907D01*
X147767715Y-73020946D01*
X147285946Y-73342853D01*
X147066000Y-73672026D01*
X146846054Y-73342853D01*
X146364285Y-73020946D01*
X145796000Y-72907907D01*
X145227715Y-73020946D01*
X144745946Y-73342853D01*
X144526000Y-73672026D01*
X144306054Y-73342853D01*
X143824285Y-73020946D01*
X143256000Y-72907907D01*
X142687715Y-73020946D01*
X142205946Y-73342853D01*
X141978298Y-73683553D01*
X141911183Y-73540642D01*
X141482924Y-73150355D01*
X141072890Y-72980524D01*
X140843000Y-73101845D01*
X140843000Y-74295000D01*
X140863000Y-74295000D01*
X140863000Y-74549000D01*
X140843000Y-74549000D01*
X140843000Y-75742155D01*
X141072890Y-75863476D01*
X141482924Y-75693645D01*
X141911183Y-75303358D01*
X141978298Y-75160447D01*
X142200977Y-75493710D01*
X140030200Y-77664487D01*
X140030200Y-75727246D01*
X140359110Y-75863476D01*
X140589000Y-75742155D01*
X140589000Y-74549000D01*
X140569000Y-74549000D01*
X140569000Y-74295000D01*
X140589000Y-74295000D01*
X140589000Y-73101845D01*
X140359110Y-72980524D01*
X139949076Y-73150355D01*
X139520817Y-73540642D01*
X139453702Y-73683553D01*
X139226054Y-73342853D01*
X138744285Y-73020946D01*
X138176000Y-72907907D01*
X137607715Y-73020946D01*
X137125946Y-73342853D01*
X136906000Y-73672026D01*
X136686054Y-73342853D01*
X136469928Y-73198443D01*
X136427820Y-72986752D01*
X136410396Y-72899153D01*
X136228697Y-72627222D01*
X136193475Y-72592000D01*
X179283908Y-72592000D01*
X179630000Y-72938092D01*
G36*
X128804748Y-109205858D02*
X128790605Y-109220000D01*
X128804748Y-109234142D01*
X128625143Y-109413748D01*
X128611000Y-109399605D01*
X128596858Y-109413748D01*
X128417252Y-109234142D01*
X128431395Y-109220000D01*
X128417252Y-109205858D01*
X128596858Y-109026253D01*
X128611000Y-109040395D01*
X128625143Y-109026253D01*
X128804748Y-109205858D01*
X128804748Y-109205858D01*
G37*
X128804748Y-109205858D02*
X128790605Y-109220000D01*
X128804748Y-109234142D01*
X128625143Y-109413748D01*
X128611000Y-109399605D01*
X128596858Y-109413748D01*
X128417252Y-109234142D01*
X128431395Y-109220000D01*
X128417252Y-109205858D01*
X128596858Y-109026253D01*
X128611000Y-109040395D01*
X128625143Y-109026253D01*
X128804748Y-109205858D01*
G36*
X180975000Y-99441000D02*
X180995000Y-99441000D01*
X180995000Y-99695000D01*
X180975000Y-99695000D01*
X180975000Y-99715000D01*
X180721000Y-99715000D01*
X180721000Y-99695000D01*
X180701000Y-99695000D01*
X180701000Y-99441000D01*
X180721000Y-99441000D01*
X180721000Y-99421000D01*
X180975000Y-99421000D01*
X180975000Y-99441000D01*
X180975000Y-99441000D01*
G37*
X180975000Y-99441000D02*
X180995000Y-99441000D01*
X180995000Y-99695000D01*
X180975000Y-99695000D01*
X180975000Y-99715000D01*
X180721000Y-99715000D01*
X180721000Y-99695000D01*
X180701000Y-99695000D01*
X180701000Y-99441000D01*
X180721000Y-99441000D01*
X180721000Y-99421000D01*
X180975000Y-99421000D01*
X180975000Y-99441000D01*
M02*
