G04 #@! TF.FileFunction,Legend,Bot*
%FSLAX46Y46*%
G04 Gerber Fmt 4.6, Leading zero omitted, Abs format (unit mm)*
G04 Created by KiCad (PCBNEW 4.0.5+dfsg1-4) date Sun Mar 15 11:09:47 2020*
%MOMM*%
%LPD*%
G01*
G04 APERTURE LIST*
%ADD10C,0.100000*%
%ADD11C,0.150000*%
%ADD12C,0.625000*%
%ADD13C,0.010000*%
G04 APERTURE END LIST*
D10*
D11*
X123205905Y-91892429D02*
X122444000Y-91892429D01*
X122824952Y-92273381D02*
X122824952Y-91511476D01*
X121491619Y-91273381D02*
X121967810Y-91273381D01*
X122015429Y-91749571D01*
X121967810Y-91701952D01*
X121872572Y-91654333D01*
X121634476Y-91654333D01*
X121539238Y-91701952D01*
X121491619Y-91749571D01*
X121444000Y-91844810D01*
X121444000Y-92082905D01*
X121491619Y-92178143D01*
X121539238Y-92225762D01*
X121634476Y-92273381D01*
X121872572Y-92273381D01*
X121967810Y-92225762D01*
X122015429Y-92178143D01*
X121158286Y-91273381D02*
X120824953Y-92273381D01*
X120491619Y-91273381D01*
X122682095Y-88781000D02*
X122777333Y-88733381D01*
X122920190Y-88733381D01*
X123063048Y-88781000D01*
X123158286Y-88876238D01*
X123205905Y-88971476D01*
X123253524Y-89161952D01*
X123253524Y-89304810D01*
X123205905Y-89495286D01*
X123158286Y-89590524D01*
X123063048Y-89685762D01*
X122920190Y-89733381D01*
X122824952Y-89733381D01*
X122682095Y-89685762D01*
X122634476Y-89638143D01*
X122634476Y-89304810D01*
X122824952Y-89304810D01*
X122205905Y-89733381D02*
X122205905Y-88733381D01*
X121634476Y-89733381D01*
X121634476Y-88733381D01*
X121158286Y-89733381D02*
X121158286Y-88733381D01*
X120920191Y-88733381D01*
X120777333Y-88781000D01*
X120682095Y-88876238D01*
X120634476Y-88971476D01*
X120586857Y-89161952D01*
X120586857Y-89304810D01*
X120634476Y-89495286D01*
X120682095Y-89590524D01*
X120777333Y-89685762D01*
X120920191Y-89733381D01*
X121158286Y-89733381D01*
X122634476Y-87193381D02*
X122967810Y-86717190D01*
X123205905Y-87193381D02*
X123205905Y-86193381D01*
X122824952Y-86193381D01*
X122729714Y-86241000D01*
X122682095Y-86288619D01*
X122634476Y-86383857D01*
X122634476Y-86526714D01*
X122682095Y-86621952D01*
X122729714Y-86669571D01*
X122824952Y-86717190D01*
X123205905Y-86717190D01*
X122301143Y-86193381D02*
X121634476Y-87193381D01*
X121634476Y-86193381D02*
X122301143Y-87193381D01*
X123348762Y-83653381D02*
X122777333Y-83653381D01*
X123063048Y-84653381D02*
X123063048Y-83653381D01*
X122539238Y-83653381D02*
X121872571Y-84653381D01*
X121872571Y-83653381D02*
X122539238Y-84653381D01*
X123205905Y-82113381D02*
X123205905Y-81113381D01*
X122967810Y-81113381D01*
X122824952Y-81161000D01*
X122729714Y-81256238D01*
X122682095Y-81351476D01*
X122634476Y-81541952D01*
X122634476Y-81684810D01*
X122682095Y-81875286D01*
X122729714Y-81970524D01*
X122824952Y-82065762D01*
X122967810Y-82113381D01*
X123205905Y-82113381D01*
X122348762Y-81113381D02*
X121777333Y-81113381D01*
X122063048Y-82113381D02*
X122063048Y-81113381D01*
X120872571Y-82113381D02*
X121205905Y-81637190D01*
X121444000Y-82113381D02*
X121444000Y-81113381D01*
X121063047Y-81113381D01*
X120967809Y-81161000D01*
X120920190Y-81208619D01*
X120872571Y-81303857D01*
X120872571Y-81446714D01*
X120920190Y-81541952D01*
X120967809Y-81589571D01*
X121063047Y-81637190D01*
X121444000Y-81637190D01*
X122634476Y-79573381D02*
X122967810Y-79097190D01*
X123205905Y-79573381D02*
X123205905Y-78573381D01*
X122824952Y-78573381D01*
X122729714Y-78621000D01*
X122682095Y-78668619D01*
X122634476Y-78763857D01*
X122634476Y-78906714D01*
X122682095Y-79001952D01*
X122729714Y-79049571D01*
X122824952Y-79097190D01*
X123205905Y-79097190D01*
X122253524Y-79525762D02*
X122110667Y-79573381D01*
X121872571Y-79573381D01*
X121777333Y-79525762D01*
X121729714Y-79478143D01*
X121682095Y-79382905D01*
X121682095Y-79287667D01*
X121729714Y-79192429D01*
X121777333Y-79144810D01*
X121872571Y-79097190D01*
X122063048Y-79049571D01*
X122158286Y-79001952D01*
X122205905Y-78954333D01*
X122253524Y-78859095D01*
X122253524Y-78763857D01*
X122205905Y-78668619D01*
X122158286Y-78621000D01*
X122063048Y-78573381D01*
X121824952Y-78573381D01*
X121682095Y-78621000D01*
X121396381Y-78573381D02*
X120824952Y-78573381D01*
X121110667Y-79573381D02*
X121110667Y-78573381D01*
X131063714Y-91321000D02*
X131158952Y-91273381D01*
X131301809Y-91273381D01*
X131444667Y-91321000D01*
X131539905Y-91416238D01*
X131587524Y-91511476D01*
X131635143Y-91701952D01*
X131635143Y-91844810D01*
X131587524Y-92035286D01*
X131539905Y-92130524D01*
X131444667Y-92225762D01*
X131301809Y-92273381D01*
X131206571Y-92273381D01*
X131063714Y-92225762D01*
X131016095Y-92178143D01*
X131016095Y-91844810D01*
X131206571Y-91844810D01*
X130587524Y-92273381D02*
X130587524Y-91273381D01*
X130016095Y-92273381D01*
X130016095Y-91273381D01*
X129539905Y-92273381D02*
X129539905Y-91273381D01*
X129301810Y-91273381D01*
X129158952Y-91321000D01*
X129063714Y-91416238D01*
X129016095Y-91511476D01*
X128968476Y-91701952D01*
X128968476Y-91844810D01*
X129016095Y-92035286D01*
X129063714Y-92130524D01*
X129158952Y-92225762D01*
X129301810Y-92273381D01*
X129539905Y-92273381D01*
X131063714Y-88781000D02*
X131158952Y-88733381D01*
X131301809Y-88733381D01*
X131444667Y-88781000D01*
X131539905Y-88876238D01*
X131587524Y-88971476D01*
X131635143Y-89161952D01*
X131635143Y-89304810D01*
X131587524Y-89495286D01*
X131539905Y-89590524D01*
X131444667Y-89685762D01*
X131301809Y-89733381D01*
X131206571Y-89733381D01*
X131063714Y-89685762D01*
X131016095Y-89638143D01*
X131016095Y-89304810D01*
X131206571Y-89304810D01*
X130587524Y-89733381D02*
X130587524Y-88733381D01*
X130016095Y-89733381D01*
X130016095Y-88733381D01*
X129539905Y-89733381D02*
X129539905Y-88733381D01*
X129301810Y-88733381D01*
X129158952Y-88781000D01*
X129063714Y-88876238D01*
X129016095Y-88971476D01*
X128968476Y-89161952D01*
X128968476Y-89304810D01*
X129016095Y-89495286D01*
X129063714Y-89590524D01*
X129158952Y-89685762D01*
X129301810Y-89733381D01*
X129539905Y-89733381D01*
X131587524Y-86812429D02*
X130825619Y-86812429D01*
X131206571Y-87193381D02*
X131206571Y-86431476D01*
X129873238Y-86193381D02*
X130349429Y-86193381D01*
X130397048Y-86669571D01*
X130349429Y-86621952D01*
X130254191Y-86574333D01*
X130016095Y-86574333D01*
X129920857Y-86621952D01*
X129873238Y-86669571D01*
X129825619Y-86764810D01*
X129825619Y-87002905D01*
X129873238Y-87098143D01*
X129920857Y-87145762D01*
X130016095Y-87193381D01*
X130254191Y-87193381D01*
X130349429Y-87145762D01*
X130397048Y-87098143D01*
X129539905Y-86193381D02*
X129206572Y-87193381D01*
X128873238Y-86193381D01*
X129920857Y-84653381D02*
X130254191Y-84177190D01*
X130492286Y-84653381D02*
X130492286Y-83653381D01*
X130111333Y-83653381D01*
X130016095Y-83701000D01*
X129968476Y-83748619D01*
X129920857Y-83843857D01*
X129920857Y-83986714D01*
X129968476Y-84081952D01*
X130016095Y-84129571D01*
X130111333Y-84177190D01*
X130492286Y-84177190D01*
X129587524Y-83653381D02*
X128920857Y-84653381D01*
X128920857Y-83653381D02*
X129587524Y-84653381D01*
X130397048Y-81113381D02*
X129825619Y-81113381D01*
X130111334Y-82113381D02*
X130111334Y-81113381D01*
X129587524Y-81113381D02*
X128920857Y-82113381D01*
X128920857Y-81113381D02*
X129587524Y-82113381D01*
X131301810Y-79573381D02*
X131301810Y-78573381D01*
X131063715Y-78573381D01*
X130920857Y-78621000D01*
X130825619Y-78716238D01*
X130778000Y-78811476D01*
X130730381Y-79001952D01*
X130730381Y-79144810D01*
X130778000Y-79335286D01*
X130825619Y-79430524D01*
X130920857Y-79525762D01*
X131063715Y-79573381D01*
X131301810Y-79573381D01*
X130444667Y-78573381D02*
X129873238Y-78573381D01*
X130158953Y-79573381D02*
X130158953Y-78573381D01*
X128968476Y-79573381D02*
X129301810Y-79097190D01*
X129539905Y-79573381D02*
X129539905Y-78573381D01*
X129158952Y-78573381D01*
X129063714Y-78621000D01*
X129016095Y-78668619D01*
X128968476Y-78763857D01*
X128968476Y-78906714D01*
X129016095Y-79001952D01*
X129063714Y-79049571D01*
X129158952Y-79097190D01*
X129539905Y-79097190D01*
D12*
X172100905Y-113473952D02*
X170672333Y-113473952D01*
X171386619Y-115973952D02*
X171386619Y-113473952D01*
X169839000Y-115973952D02*
X169839000Y-113473952D01*
X169839000Y-114664429D02*
X168410428Y-114664429D01*
X168410428Y-115973952D02*
X168410428Y-113473952D01*
X167219952Y-113473952D02*
X167219952Y-115497762D01*
X167100904Y-115735857D01*
X166981857Y-115854905D01*
X166743761Y-115973952D01*
X166267571Y-115973952D01*
X166029476Y-115854905D01*
X165910428Y-115735857D01*
X165791380Y-115497762D01*
X165791380Y-113473952D01*
X164600904Y-115973952D02*
X164600904Y-113473952D01*
X163172332Y-115973952D01*
X163172332Y-113473952D01*
X161981856Y-115973952D02*
X161981856Y-113473952D01*
X160553284Y-115973952D02*
X161624713Y-114545381D01*
X160553284Y-113473952D02*
X161981856Y-114902524D01*
X159481856Y-115973952D02*
X159481856Y-113473952D01*
X158648523Y-113473952D02*
X157219951Y-113473952D01*
X157934237Y-115973952D02*
X157934237Y-113473952D01*
X171743762Y-119039429D02*
X170910429Y-119039429D01*
X170553286Y-120348952D02*
X171743762Y-120348952D01*
X171743762Y-117848952D01*
X170553286Y-117848952D01*
X168291381Y-120348952D02*
X169481857Y-120348952D01*
X169481857Y-117848952D01*
X167458047Y-119039429D02*
X166624714Y-119039429D01*
X166267571Y-120348952D02*
X167458047Y-120348952D01*
X167458047Y-117848952D01*
X166267571Y-117848952D01*
X163767570Y-120110857D02*
X163886618Y-120229905D01*
X164243761Y-120348952D01*
X164481856Y-120348952D01*
X164838999Y-120229905D01*
X165077094Y-119991810D01*
X165196142Y-119753714D01*
X165315190Y-119277524D01*
X165315190Y-118920381D01*
X165196142Y-118444190D01*
X165077094Y-118206095D01*
X164838999Y-117968000D01*
X164481856Y-117848952D01*
X164243761Y-117848952D01*
X163886618Y-117968000D01*
X163767570Y-118087048D01*
X163053285Y-117848952D02*
X161624713Y-117848952D01*
X162338999Y-120348952D02*
X162338999Y-117848952D01*
X159362808Y-120348952D02*
X160196142Y-119158476D01*
X160791380Y-120348952D02*
X160791380Y-117848952D01*
X159838999Y-117848952D01*
X159600904Y-117968000D01*
X159481856Y-118087048D01*
X159362808Y-118325143D01*
X159362808Y-118682286D01*
X159481856Y-118920381D01*
X159600904Y-119039429D01*
X159838999Y-119158476D01*
X160791380Y-119158476D01*
X157815189Y-117848952D02*
X157338999Y-117848952D01*
X157100904Y-117968000D01*
X156862808Y-118206095D01*
X156743761Y-118682286D01*
X156743761Y-119515619D01*
X156862808Y-119991810D01*
X157100904Y-120229905D01*
X157338999Y-120348952D01*
X157815189Y-120348952D01*
X158053285Y-120229905D01*
X158291380Y-119991810D01*
X158410428Y-119515619D01*
X158410428Y-118682286D01*
X158291380Y-118206095D01*
X158053285Y-117968000D01*
X157815189Y-117848952D01*
X155672332Y-120348952D02*
X155672332Y-117848952D01*
X154243760Y-120348952D01*
X154243760Y-117848952D01*
X153053284Y-120348952D02*
X153053284Y-117848952D01*
X150434236Y-120110857D02*
X150553284Y-120229905D01*
X150910427Y-120348952D01*
X151148522Y-120348952D01*
X151505665Y-120229905D01*
X151743760Y-119991810D01*
X151862808Y-119753714D01*
X151981856Y-119277524D01*
X151981856Y-118920381D01*
X151862808Y-118444190D01*
X151743760Y-118206095D01*
X151505665Y-117968000D01*
X151148522Y-117848952D01*
X150910427Y-117848952D01*
X150553284Y-117968000D01*
X150434236Y-118087048D01*
X149481856Y-120229905D02*
X149124713Y-120348952D01*
X148529475Y-120348952D01*
X148291379Y-120229905D01*
X148172332Y-120110857D01*
X148053284Y-119872762D01*
X148053284Y-119634667D01*
X148172332Y-119396571D01*
X148291379Y-119277524D01*
X148529475Y-119158476D01*
X149005665Y-119039429D01*
X149243760Y-118920381D01*
X149362808Y-118801333D01*
X149481856Y-118563238D01*
X149481856Y-118325143D01*
X149362808Y-118087048D01*
X149243760Y-117968000D01*
X149005665Y-117848952D01*
X148410427Y-117848952D01*
X148053284Y-117968000D01*
D13*
G36*
X145756384Y-120254800D02*
X145731042Y-120184333D01*
X145689968Y-120075541D01*
X145627778Y-119908700D01*
X145548430Y-119694597D01*
X145455881Y-119444022D01*
X145354089Y-119167760D01*
X145247013Y-118876601D01*
X145138611Y-118581333D01*
X145032841Y-118292742D01*
X144933661Y-118021618D01*
X144845029Y-117778747D01*
X144770903Y-117574918D01*
X144715241Y-117420919D01*
X144682001Y-117327537D01*
X144674167Y-117303791D01*
X144714738Y-117298813D01*
X144829408Y-117293587D01*
X145007609Y-117288367D01*
X145238776Y-117283405D01*
X145512341Y-117278956D01*
X145817737Y-117275274D01*
X145891978Y-117274556D01*
X147109790Y-117263333D01*
X145706262Y-115407567D01*
X145442073Y-115058597D01*
X145192241Y-114729253D01*
X144961596Y-114425860D01*
X144754968Y-114154740D01*
X144577189Y-113922216D01*
X144433090Y-113734611D01*
X144327500Y-113598247D01*
X144265250Y-113519449D01*
X144250859Y-113502567D01*
X144215676Y-113480503D01*
X144220652Y-113527790D01*
X144223536Y-113538000D01*
X144249782Y-113631377D01*
X144292386Y-113786335D01*
X144348159Y-113990999D01*
X144413909Y-114233497D01*
X144486446Y-114501955D01*
X144562577Y-114784499D01*
X144639113Y-115069256D01*
X144712861Y-115344352D01*
X144780632Y-115597914D01*
X144839234Y-115818068D01*
X144885475Y-115992941D01*
X144916166Y-116110659D01*
X144928114Y-116159349D01*
X144928167Y-116159859D01*
X144887619Y-116166067D01*
X144773116Y-116171677D01*
X144595368Y-116176474D01*
X144365087Y-116180240D01*
X144092982Y-116182759D01*
X143789765Y-116183815D01*
X143742833Y-116183833D01*
X143435916Y-116184557D01*
X143158524Y-116186599D01*
X142921368Y-116189770D01*
X142735159Y-116193877D01*
X142610607Y-116198731D01*
X142558424Y-116204140D01*
X142557500Y-116204977D01*
X142582758Y-116240681D01*
X142654868Y-116335901D01*
X142768332Y-116483607D01*
X142917653Y-116676773D01*
X143097334Y-116908369D01*
X143301878Y-117171367D01*
X143525787Y-117458739D01*
X143763564Y-117763457D01*
X144009712Y-118078492D01*
X144258734Y-118396817D01*
X144505133Y-118711403D01*
X144743410Y-119015221D01*
X144968070Y-119301244D01*
X145173614Y-119562442D01*
X145354546Y-119791789D01*
X145505368Y-119982256D01*
X145620583Y-120126813D01*
X145694695Y-120218434D01*
X145719664Y-120247833D01*
X145756426Y-120280808D01*
X145756384Y-120254800D01*
X145756384Y-120254800D01*
G37*
X145756384Y-120254800D02*
X145731042Y-120184333D01*
X145689968Y-120075541D01*
X145627778Y-119908700D01*
X145548430Y-119694597D01*
X145455881Y-119444022D01*
X145354089Y-119167760D01*
X145247013Y-118876601D01*
X145138611Y-118581333D01*
X145032841Y-118292742D01*
X144933661Y-118021618D01*
X144845029Y-117778747D01*
X144770903Y-117574918D01*
X144715241Y-117420919D01*
X144682001Y-117327537D01*
X144674167Y-117303791D01*
X144714738Y-117298813D01*
X144829408Y-117293587D01*
X145007609Y-117288367D01*
X145238776Y-117283405D01*
X145512341Y-117278956D01*
X145817737Y-117275274D01*
X145891978Y-117274556D01*
X147109790Y-117263333D01*
X145706262Y-115407567D01*
X145442073Y-115058597D01*
X145192241Y-114729253D01*
X144961596Y-114425860D01*
X144754968Y-114154740D01*
X144577189Y-113922216D01*
X144433090Y-113734611D01*
X144327500Y-113598247D01*
X144265250Y-113519449D01*
X144250859Y-113502567D01*
X144215676Y-113480503D01*
X144220652Y-113527790D01*
X144223536Y-113538000D01*
X144249782Y-113631377D01*
X144292386Y-113786335D01*
X144348159Y-113990999D01*
X144413909Y-114233497D01*
X144486446Y-114501955D01*
X144562577Y-114784499D01*
X144639113Y-115069256D01*
X144712861Y-115344352D01*
X144780632Y-115597914D01*
X144839234Y-115818068D01*
X144885475Y-115992941D01*
X144916166Y-116110659D01*
X144928114Y-116159349D01*
X144928167Y-116159859D01*
X144887619Y-116166067D01*
X144773116Y-116171677D01*
X144595368Y-116176474D01*
X144365087Y-116180240D01*
X144092982Y-116182759D01*
X143789765Y-116183815D01*
X143742833Y-116183833D01*
X143435916Y-116184557D01*
X143158524Y-116186599D01*
X142921368Y-116189770D01*
X142735159Y-116193877D01*
X142610607Y-116198731D01*
X142558424Y-116204140D01*
X142557500Y-116204977D01*
X142582758Y-116240681D01*
X142654868Y-116335901D01*
X142768332Y-116483607D01*
X142917653Y-116676773D01*
X143097334Y-116908369D01*
X143301878Y-117171367D01*
X143525787Y-117458739D01*
X143763564Y-117763457D01*
X144009712Y-118078492D01*
X144258734Y-118396817D01*
X144505133Y-118711403D01*
X144743410Y-119015221D01*
X144968070Y-119301244D01*
X145173614Y-119562442D01*
X145354546Y-119791789D01*
X145505368Y-119982256D01*
X145620583Y-120126813D01*
X145694695Y-120218434D01*
X145719664Y-120247833D01*
X145756426Y-120280808D01*
X145756384Y-120254800D01*
M02*
