G04 #@! TF.FileFunction,Copper,L1,Top,Signal*
%FSLAX46Y46*%
G04 Gerber Fmt 4.6, Leading zero omitted, Abs format (unit mm)*
G04 Created by KiCad (PCBNEW 4.0.5+dfsg1-4) date Sun Mar 15 11:09:47 2020*
%MOMM*%
%LPD*%
G01*
G04 APERTURE LIST*
%ADD10C,0.100000*%
%ADD11C,1.600000*%
%ADD12R,1.600000X2.400000*%
%ADD13O,1.600000X2.400000*%
%ADD14R,3.500000X3.500000*%
%ADD15R,1.700000X1.700000*%
%ADD16O,1.700000X1.700000*%
%ADD17O,1.600000X1.600000*%
%ADD18C,2.000000*%
%ADD19C,1.500000*%
%ADD20R,1.800000X1.800000*%
%ADD21C,1.800000*%
%ADD22C,1.520000*%
%ADD23R,1.520000X1.520000*%
%ADD24O,1.800000X1.800000*%
%ADD25R,1.727200X1.727200*%
%ADD26O,1.727200X1.727200*%
%ADD27C,0.406400*%
%ADD28C,0.254000*%
G04 APERTURE END LIST*
D10*
D11*
X125476000Y-74422000D03*
X122976000Y-74422000D03*
D12*
X178054000Y-103632000D03*
D13*
X145034000Y-111252000D03*
X175514000Y-103632000D03*
X147574000Y-111252000D03*
X172974000Y-103632000D03*
X150114000Y-111252000D03*
X170434000Y-103632000D03*
X152654000Y-111252000D03*
X167894000Y-103632000D03*
X155194000Y-111252000D03*
X165354000Y-103632000D03*
X157734000Y-111252000D03*
X162814000Y-103632000D03*
X160274000Y-111252000D03*
X160274000Y-103632000D03*
X162814000Y-111252000D03*
X157734000Y-103632000D03*
X165354000Y-111252000D03*
X155194000Y-103632000D03*
X167894000Y-111252000D03*
X152654000Y-103632000D03*
X170434000Y-111252000D03*
X150114000Y-103632000D03*
X172974000Y-111252000D03*
X147574000Y-103632000D03*
X175514000Y-111252000D03*
X145034000Y-103632000D03*
X178054000Y-111252000D03*
D11*
X164846000Y-99822000D03*
X164846000Y-97322000D03*
X134072000Y-121793000D03*
X131572000Y-121793000D03*
X136311000Y-121793000D03*
X138811000Y-121793000D03*
X158750000Y-91694000D03*
X158750000Y-94194000D03*
X154305000Y-91748000D03*
X154305000Y-94248000D03*
D14*
X125888000Y-116459000D03*
X119888000Y-116459000D03*
X122888000Y-121159000D03*
D15*
X177800000Y-122428000D03*
D16*
X175260000Y-122428000D03*
X172720000Y-122428000D03*
X170180000Y-122428000D03*
X167640000Y-122428000D03*
X165100000Y-122428000D03*
D15*
X177800000Y-74422000D03*
D16*
X175260000Y-74422000D03*
X172720000Y-74422000D03*
X170180000Y-74422000D03*
X167640000Y-74422000D03*
X165100000Y-74422000D03*
X162560000Y-74422000D03*
X160020000Y-74422000D03*
D11*
X156972000Y-83058000D03*
D17*
X149352000Y-83058000D03*
D11*
X156972000Y-79756000D03*
D17*
X149352000Y-79756000D03*
D11*
X174752000Y-91948000D03*
D17*
X174752000Y-99568000D03*
D18*
X121086000Y-102870000D03*
X116586000Y-102870000D03*
X121086000Y-96370000D03*
X116586000Y-96370000D03*
D19*
X159004000Y-98552000D03*
X154124000Y-98552000D03*
D20*
X165100000Y-86360000D03*
D21*
X162560000Y-86360000D03*
D11*
X149352000Y-86360000D03*
D17*
X156972000Y-86360000D03*
D15*
X160020000Y-122428000D03*
D16*
X157480000Y-122428000D03*
X154940000Y-122428000D03*
X152400000Y-122428000D03*
X149860000Y-122428000D03*
X147320000Y-122428000D03*
X144780000Y-122428000D03*
X142240000Y-122428000D03*
D15*
X178308000Y-94488000D03*
D16*
X180848000Y-94488000D03*
X178308000Y-97028000D03*
X180848000Y-97028000D03*
X178308000Y-99568000D03*
X180848000Y-99568000D03*
D15*
X133096000Y-74422000D03*
D16*
X135636000Y-74422000D03*
X138176000Y-74422000D03*
X140716000Y-74422000D03*
X143256000Y-74422000D03*
X145796000Y-74422000D03*
X148336000Y-74422000D03*
X150876000Y-74422000D03*
X153416000Y-74422000D03*
X155956000Y-74422000D03*
D11*
X126111000Y-109220000D03*
X128611000Y-109220000D03*
D22*
X120523000Y-109220000D03*
X123063000Y-109220000D03*
D23*
X117983000Y-109220000D03*
D20*
X132969000Y-119126000D03*
D24*
X135509000Y-119126000D03*
X138049000Y-119126000D03*
D25*
X127381000Y-91821000D03*
D26*
X124841000Y-91821000D03*
X127381000Y-89281000D03*
X124841000Y-89281000D03*
X127381000Y-86741000D03*
X124841000Y-86741000D03*
X127381000Y-84201000D03*
X124841000Y-84201000D03*
X127381000Y-81661000D03*
X124841000Y-81661000D03*
X127381000Y-79121000D03*
X124841000Y-79121000D03*
D27*
X134072000Y-121793000D02*
X136739000Y-124460000D01*
X136739000Y-124460000D02*
X159258000Y-124460000D01*
X159258000Y-124460000D02*
X159258000Y-124446400D01*
X159258000Y-124446400D02*
X160020000Y-123684400D01*
X160020000Y-123684400D02*
X160020000Y-122428000D01*
X132969000Y-119126000D02*
X132969000Y-120690000D01*
X132969000Y-120690000D02*
X134072000Y-121793000D01*
X125888000Y-116459000D02*
X131608400Y-116459000D01*
X131608400Y-116459000D02*
X132969000Y-117819600D01*
X132969000Y-117819600D02*
X132969000Y-119126000D01*
X123698000Y-103378000D02*
X123698000Y-92964000D01*
X123698000Y-92964000D02*
X124841000Y-91821000D01*
X117983000Y-109220000D02*
X117983000Y-107061000D01*
X117983000Y-107061000D02*
X119761000Y-105283000D01*
X119761000Y-105283000D02*
X121793000Y-105283000D01*
X121793000Y-105283000D02*
X123698000Y-103378000D01*
X138049000Y-119126000D02*
X137149001Y-120025999D01*
X137149001Y-120025999D02*
X137149001Y-120954999D01*
X137149001Y-120954999D02*
X136311000Y-121793000D01*
X133985000Y-111887000D02*
X138049000Y-115951000D01*
X118237000Y-110617000D02*
X119507000Y-111887000D01*
X119507000Y-111887000D02*
X133985000Y-111887000D01*
X118213600Y-110617000D02*
X118237000Y-110617000D01*
X138049000Y-115951000D02*
X138049000Y-119126000D01*
X144780000Y-122428000D02*
X143523599Y-123684401D01*
X143523599Y-123684401D02*
X138202401Y-123684401D01*
X138202401Y-123684401D02*
X136311000Y-121793000D01*
X117983000Y-109220000D02*
X117983000Y-110386400D01*
X117983000Y-110386400D02*
X118213600Y-110617000D01*
X162814000Y-103632000D02*
X162814000Y-101854000D01*
X162814000Y-101854000D02*
X164846000Y-99822000D01*
X157734000Y-116713000D02*
X157734000Y-111252000D01*
X152400000Y-122047000D02*
X157734000Y-116713000D01*
X152400000Y-122428000D02*
X152400000Y-122047000D01*
X150876000Y-120904000D02*
X152400000Y-122428000D01*
X162814000Y-104883000D02*
X162814000Y-103632000D01*
X157734000Y-109963000D02*
X157734000Y-111252000D01*
X162814000Y-104883000D02*
X157734000Y-109963000D01*
X146304000Y-120904000D02*
X150876000Y-120904000D01*
X144780000Y-122428000D02*
X146304000Y-120904000D01*
X157734000Y-99822000D02*
X157734000Y-103632000D01*
X159004000Y-98552000D02*
X159004000Y-94194000D01*
X159004000Y-98552000D02*
X157734000Y-99822000D01*
X155194000Y-99568000D02*
X155194000Y-103632000D01*
X154124000Y-98552000D02*
X154124000Y-94248000D01*
X154124000Y-98498000D02*
X155194000Y-99568000D01*
X153035000Y-123825000D02*
X148717000Y-123825000D01*
X147320000Y-122428000D02*
X148169999Y-123277999D01*
X148169999Y-123277999D02*
X148717000Y-123825000D01*
X178054000Y-103632000D02*
X178054000Y-108077000D01*
X178054000Y-108077000D02*
X177038000Y-109093000D01*
X163068000Y-120904000D02*
X154432000Y-120904000D01*
X177038000Y-109093000D02*
X164973000Y-109093000D01*
X164973000Y-109093000D02*
X164084000Y-109982000D01*
X164084000Y-109982000D02*
X164084000Y-119888000D01*
X164084000Y-119888000D02*
X163068000Y-120904000D01*
X154432000Y-120904000D02*
X153670000Y-121666000D01*
X153670000Y-121666000D02*
X153670000Y-123190000D01*
X153670000Y-123190000D02*
X153035000Y-123825000D01*
X178054000Y-110363000D02*
X178054000Y-122174000D01*
X178054000Y-122174000D02*
X177800000Y-122428000D01*
X175514000Y-110363000D02*
X175514000Y-122174000D01*
X175514000Y-122174000D02*
X175260000Y-122428000D01*
X172974000Y-110363000D02*
X172974000Y-122174000D01*
X172974000Y-122174000D02*
X172720000Y-122428000D01*
X170434000Y-110363000D02*
X170434000Y-122174000D01*
X170434000Y-122174000D02*
X170180000Y-122428000D01*
X167894000Y-110363000D02*
X167894000Y-122174000D01*
X167894000Y-122174000D02*
X167640000Y-122428000D01*
X165354000Y-110363000D02*
X165354000Y-122174000D01*
X165354000Y-122174000D02*
X165100000Y-122428000D01*
X150622000Y-80010000D02*
X150622000Y-97409000D01*
X145034000Y-103632000D02*
X145034000Y-103232000D01*
X145034000Y-103232000D02*
X150622000Y-97644000D01*
X150622000Y-97644000D02*
X150622000Y-97409000D01*
X155956000Y-74676000D02*
X150622000Y-80010000D01*
X155956000Y-74422000D02*
X155956000Y-74676000D01*
X155194000Y-111252000D02*
X155194000Y-110852000D01*
X155194000Y-110852000D02*
X161544000Y-104502000D01*
X161544000Y-104502000D02*
X161544000Y-88519000D01*
X161544000Y-88519000D02*
X159385000Y-86360000D01*
X159385000Y-86360000D02*
X156972000Y-86360000D01*
X177800000Y-74422000D02*
X173482000Y-78740000D01*
X173482000Y-78740000D02*
X173482000Y-101200000D01*
X173482000Y-101200000D02*
X175514000Y-103232000D01*
X175514000Y-103232000D02*
X175514000Y-103632000D01*
X172974000Y-103632000D02*
X172974000Y-102025600D01*
X172974000Y-102025600D02*
X172720000Y-101771600D01*
X172720000Y-77343000D02*
X175260000Y-74803000D01*
X172720000Y-101771600D02*
X172720000Y-77343000D01*
X175260000Y-74803000D02*
X175260000Y-74422000D01*
X170434000Y-103632000D02*
X170434000Y-100457000D01*
X171958000Y-76962000D02*
X172720000Y-76200000D01*
X170434000Y-100457000D02*
X171958000Y-98933000D01*
X171958000Y-98933000D02*
X171958000Y-76962000D01*
X172720000Y-76200000D02*
X172720000Y-74422000D01*
X170180000Y-74422000D02*
X171196000Y-75438000D01*
X171196000Y-75438000D02*
X171196000Y-98578880D01*
X171196000Y-98578880D02*
X167894000Y-101880880D01*
X167894000Y-101880880D02*
X167894000Y-103632000D01*
X165354000Y-103632000D02*
X165354000Y-103232000D01*
X170561000Y-98025000D02*
X170561000Y-77343000D01*
X165354000Y-103232000D02*
X170561000Y-98025000D01*
X170561000Y-77343000D02*
X167640000Y-74422000D01*
X162560000Y-74422000D02*
X159512000Y-77470000D01*
X159512000Y-77470000D02*
X155702000Y-77470000D01*
X150114000Y-103232000D02*
X150114000Y-103632000D01*
X155702000Y-77470000D02*
X152044389Y-81127611D01*
X152044389Y-81127611D02*
X152044389Y-101301611D01*
X152044389Y-101301611D02*
X150114000Y-103232000D01*
X160020000Y-74422000D02*
X157734000Y-76708000D01*
X157734000Y-76708000D02*
X155194000Y-76708000D01*
X155194000Y-76708000D02*
X151434779Y-80467221D01*
X151434779Y-80467221D02*
X151434779Y-99371221D01*
X147574000Y-103232000D02*
X147574000Y-103632000D01*
X151434779Y-99371221D02*
X147574000Y-103232000D01*
X161290000Y-78232000D02*
X155956000Y-78232000D01*
X165100000Y-74422000D02*
X161290000Y-78232000D01*
X152781000Y-81407000D02*
X155956000Y-78232000D01*
X152781000Y-81407000D02*
X152781000Y-103505000D01*
X152781000Y-103505000D02*
X152654000Y-103632000D01*
X149352000Y-79756000D02*
X138684000Y-79756000D01*
X138684000Y-79756000D02*
X136779000Y-81661000D01*
X136779000Y-81661000D02*
X127381000Y-81661000D01*
X127381000Y-84201000D02*
X137414000Y-84201000D01*
X137414000Y-84201000D02*
X138557000Y-83058000D01*
X138557000Y-83058000D02*
X149352000Y-83058000D01*
D28*
G36*
X179884000Y-72832882D02*
X179884000Y-84836000D01*
X179897397Y-84903350D01*
X179904642Y-84971645D01*
X179914633Y-84990004D01*
X179918711Y-85010504D01*
X179956865Y-85067606D01*
X179989691Y-85127924D01*
X182424000Y-88049095D01*
X182424000Y-88653898D01*
X182403947Y-88553085D01*
X181919677Y-87828323D01*
X181194915Y-87344053D01*
X180340000Y-87174000D01*
X179485085Y-87344053D01*
X178760323Y-87828323D01*
X178276053Y-88553085D01*
X178106000Y-89408000D01*
X178276053Y-90262915D01*
X178760323Y-90987677D01*
X179485085Y-91471947D01*
X180340000Y-91642000D01*
X181194915Y-91471947D01*
X181919677Y-90987677D01*
X182403947Y-90262915D01*
X182424000Y-90162102D01*
X182424000Y-119722905D01*
X179989691Y-122644076D01*
X179956865Y-122704394D01*
X179918711Y-122761496D01*
X179914633Y-122781996D01*
X179904642Y-122800355D01*
X179897397Y-122868650D01*
X179884000Y-122936000D01*
X179884000Y-124512000D01*
X160018584Y-124512000D01*
X160433092Y-124097492D01*
X160559731Y-123907963D01*
X160604200Y-123684400D01*
X160604200Y-123666464D01*
X160870000Y-123666464D01*
X161011190Y-123639897D01*
X161140865Y-123556454D01*
X161227859Y-123429134D01*
X161258464Y-123278000D01*
X161258464Y-121578000D01*
X161241567Y-121488200D01*
X163068000Y-121488200D01*
X163291564Y-121443730D01*
X163481092Y-121317092D01*
X164497092Y-120301092D01*
X164531523Y-120249562D01*
X164623730Y-120111564D01*
X164668200Y-119888000D01*
X164668200Y-112617822D01*
X164769800Y-112685709D01*
X164769800Y-121238564D01*
X164628917Y-121266587D01*
X164229552Y-121533435D01*
X163962704Y-121932800D01*
X163869000Y-122403883D01*
X163869000Y-122452117D01*
X163962704Y-122923200D01*
X164229552Y-123322565D01*
X164628917Y-123589413D01*
X165100000Y-123683117D01*
X165571083Y-123589413D01*
X165970448Y-123322565D01*
X166237296Y-122923200D01*
X166331000Y-122452117D01*
X166331000Y-122403883D01*
X166237296Y-121932800D01*
X165970448Y-121533435D01*
X165938200Y-121511888D01*
X165938200Y-112685709D01*
X166189093Y-112518067D01*
X166445102Y-112134923D01*
X166535000Y-111682974D01*
X166535000Y-110821026D01*
X166445102Y-110369077D01*
X166189093Y-109985933D01*
X165805949Y-109729924D01*
X165540887Y-109677200D01*
X167707113Y-109677200D01*
X167442051Y-109729924D01*
X167058907Y-109985933D01*
X166802898Y-110369077D01*
X166713000Y-110821026D01*
X166713000Y-111682974D01*
X166802898Y-112134923D01*
X167058907Y-112518067D01*
X167309800Y-112685709D01*
X167309800Y-121238564D01*
X167168917Y-121266587D01*
X166769552Y-121533435D01*
X166502704Y-121932800D01*
X166409000Y-122403883D01*
X166409000Y-122452117D01*
X166502704Y-122923200D01*
X166769552Y-123322565D01*
X167168917Y-123589413D01*
X167640000Y-123683117D01*
X168111083Y-123589413D01*
X168510448Y-123322565D01*
X168777296Y-122923200D01*
X168871000Y-122452117D01*
X168871000Y-122403883D01*
X168777296Y-121932800D01*
X168510448Y-121533435D01*
X168478200Y-121511888D01*
X168478200Y-112685709D01*
X168729093Y-112518067D01*
X168985102Y-112134923D01*
X169075000Y-111682974D01*
X169075000Y-110821026D01*
X168985102Y-110369077D01*
X168729093Y-109985933D01*
X168345949Y-109729924D01*
X168080887Y-109677200D01*
X170247113Y-109677200D01*
X169982051Y-109729924D01*
X169598907Y-109985933D01*
X169342898Y-110369077D01*
X169253000Y-110821026D01*
X169253000Y-111682974D01*
X169342898Y-112134923D01*
X169598907Y-112518067D01*
X169849800Y-112685709D01*
X169849800Y-121238564D01*
X169708917Y-121266587D01*
X169309552Y-121533435D01*
X169042704Y-121932800D01*
X168949000Y-122403883D01*
X168949000Y-122452117D01*
X169042704Y-122923200D01*
X169309552Y-123322565D01*
X169708917Y-123589413D01*
X170180000Y-123683117D01*
X170651083Y-123589413D01*
X171050448Y-123322565D01*
X171317296Y-122923200D01*
X171411000Y-122452117D01*
X171411000Y-122403883D01*
X171317296Y-121932800D01*
X171050448Y-121533435D01*
X171018200Y-121511888D01*
X171018200Y-112685709D01*
X171269093Y-112518067D01*
X171525102Y-112134923D01*
X171615000Y-111682974D01*
X171615000Y-110821026D01*
X171525102Y-110369077D01*
X171269093Y-109985933D01*
X170885949Y-109729924D01*
X170620887Y-109677200D01*
X172787113Y-109677200D01*
X172522051Y-109729924D01*
X172138907Y-109985933D01*
X171882898Y-110369077D01*
X171793000Y-110821026D01*
X171793000Y-111682974D01*
X171882898Y-112134923D01*
X172138907Y-112518067D01*
X172389800Y-112685709D01*
X172389800Y-121238564D01*
X172248917Y-121266587D01*
X171849552Y-121533435D01*
X171582704Y-121932800D01*
X171489000Y-122403883D01*
X171489000Y-122452117D01*
X171582704Y-122923200D01*
X171849552Y-123322565D01*
X172248917Y-123589413D01*
X172720000Y-123683117D01*
X173191083Y-123589413D01*
X173590448Y-123322565D01*
X173857296Y-122923200D01*
X173951000Y-122452117D01*
X173951000Y-122403883D01*
X173857296Y-121932800D01*
X173590448Y-121533435D01*
X173558200Y-121511888D01*
X173558200Y-112685709D01*
X173809093Y-112518067D01*
X174065102Y-112134923D01*
X174155000Y-111682974D01*
X174155000Y-110821026D01*
X174065102Y-110369077D01*
X173809093Y-109985933D01*
X173425949Y-109729924D01*
X173160887Y-109677200D01*
X175327113Y-109677200D01*
X175062051Y-109729924D01*
X174678907Y-109985933D01*
X174422898Y-110369077D01*
X174333000Y-110821026D01*
X174333000Y-111682974D01*
X174422898Y-112134923D01*
X174678907Y-112518067D01*
X174929800Y-112685709D01*
X174929800Y-121238564D01*
X174788917Y-121266587D01*
X174389552Y-121533435D01*
X174122704Y-121932800D01*
X174029000Y-122403883D01*
X174029000Y-122452117D01*
X174122704Y-122923200D01*
X174389552Y-123322565D01*
X174788917Y-123589413D01*
X175260000Y-123683117D01*
X175731083Y-123589413D01*
X176130448Y-123322565D01*
X176397296Y-122923200D01*
X176491000Y-122452117D01*
X176491000Y-122403883D01*
X176397296Y-121932800D01*
X176160226Y-121578000D01*
X176561536Y-121578000D01*
X176561536Y-123278000D01*
X176588103Y-123419190D01*
X176671546Y-123548865D01*
X176798866Y-123635859D01*
X176950000Y-123666464D01*
X178650000Y-123666464D01*
X178791190Y-123639897D01*
X178920865Y-123556454D01*
X179007859Y-123429134D01*
X179038464Y-123278000D01*
X179038464Y-121578000D01*
X179011897Y-121436810D01*
X178928454Y-121307135D01*
X178801134Y-121220141D01*
X178650000Y-121189536D01*
X178638200Y-121189536D01*
X178638200Y-118296502D01*
X178939929Y-118748071D01*
X179582287Y-119177281D01*
X180340000Y-119328000D01*
X181097713Y-119177281D01*
X181740071Y-118748071D01*
X182169281Y-118105713D01*
X182320000Y-117348000D01*
X182169281Y-116590287D01*
X181740071Y-115947929D01*
X181097713Y-115518719D01*
X180340000Y-115368000D01*
X179582287Y-115518719D01*
X178939929Y-115947929D01*
X178638200Y-116399498D01*
X178638200Y-112685709D01*
X178889093Y-112518067D01*
X179145102Y-112134923D01*
X179235000Y-111682974D01*
X179235000Y-110821026D01*
X179145102Y-110369077D01*
X178889093Y-109985933D01*
X178505949Y-109729924D01*
X178054000Y-109640026D01*
X177602051Y-109729924D01*
X177218907Y-109985933D01*
X176962898Y-110369077D01*
X176873000Y-110821026D01*
X176873000Y-111682974D01*
X176962898Y-112134923D01*
X177218907Y-112518067D01*
X177469800Y-112685709D01*
X177469800Y-121189536D01*
X176950000Y-121189536D01*
X176808810Y-121216103D01*
X176679135Y-121299546D01*
X176592141Y-121426866D01*
X176561536Y-121578000D01*
X176160226Y-121578000D01*
X176130448Y-121533435D01*
X176098200Y-121511888D01*
X176098200Y-112685709D01*
X176349093Y-112518067D01*
X176605102Y-112134923D01*
X176695000Y-111682974D01*
X176695000Y-110821026D01*
X176605102Y-110369077D01*
X176349093Y-109985933D01*
X175965949Y-109729924D01*
X175700887Y-109677200D01*
X177038000Y-109677200D01*
X177261564Y-109632730D01*
X177451092Y-109506092D01*
X178467092Y-108490092D01*
X178513364Y-108420841D01*
X178593730Y-108300564D01*
X178638200Y-108077000D01*
X178638200Y-105220464D01*
X178854000Y-105220464D01*
X178995190Y-105193897D01*
X179124865Y-105110454D01*
X179211859Y-104983134D01*
X179242464Y-104832000D01*
X179242464Y-102432000D01*
X179215897Y-102290810D01*
X179132454Y-102161135D01*
X179005134Y-102074141D01*
X178854000Y-102043536D01*
X177254000Y-102043536D01*
X177112810Y-102070103D01*
X176983135Y-102153546D01*
X176896141Y-102280866D01*
X176865536Y-102432000D01*
X176865536Y-104832000D01*
X176892103Y-104973190D01*
X176975546Y-105102865D01*
X177102866Y-105189859D01*
X177254000Y-105220464D01*
X177469800Y-105220464D01*
X177469800Y-107835016D01*
X176796016Y-108508800D01*
X164973000Y-108508800D01*
X164749436Y-108553270D01*
X164654461Y-108616730D01*
X164559908Y-108679908D01*
X163670908Y-109568908D01*
X163601736Y-109672431D01*
X163245819Y-109477633D01*
X163163039Y-109460096D01*
X162941000Y-109582085D01*
X162941000Y-111125000D01*
X162961000Y-111125000D01*
X162961000Y-111379000D01*
X162941000Y-111379000D01*
X162941000Y-112921915D01*
X163163039Y-113043904D01*
X163245819Y-113026367D01*
X163499800Y-112887360D01*
X163499800Y-119646016D01*
X162826016Y-120319800D01*
X154953384Y-120319800D01*
X158147092Y-117126092D01*
X158232192Y-116998730D01*
X158273730Y-116936564D01*
X158318200Y-116713000D01*
X158318200Y-112685709D01*
X158569093Y-112518067D01*
X158825102Y-112134923D01*
X158915000Y-111682974D01*
X158915000Y-110821026D01*
X159093000Y-110821026D01*
X159093000Y-111682974D01*
X159182898Y-112134923D01*
X159438907Y-112518067D01*
X159822051Y-112774076D01*
X160274000Y-112863974D01*
X160725949Y-112774076D01*
X161109093Y-112518067D01*
X161365102Y-112134923D01*
X161412871Y-111894772D01*
X161536834Y-112318483D01*
X161889104Y-112756500D01*
X162382181Y-113026367D01*
X162464961Y-113043904D01*
X162687000Y-112921915D01*
X162687000Y-111379000D01*
X162667000Y-111379000D01*
X162667000Y-111125000D01*
X162687000Y-111125000D01*
X162687000Y-109582085D01*
X162464961Y-109460096D01*
X162382181Y-109477633D01*
X161889104Y-109747500D01*
X161536834Y-110185517D01*
X161412871Y-110609228D01*
X161365102Y-110369077D01*
X161109093Y-109985933D01*
X160725949Y-109729924D01*
X160274000Y-109640026D01*
X159822051Y-109729924D01*
X159438907Y-109985933D01*
X159182898Y-110369077D01*
X159093000Y-110821026D01*
X158915000Y-110821026D01*
X158825102Y-110369077D01*
X158569093Y-109985933D01*
X158550005Y-109973179D01*
X163227092Y-105296092D01*
X163298074Y-105189859D01*
X163353730Y-105106564D01*
X163356286Y-105093715D01*
X163649093Y-104898067D01*
X163905102Y-104514923D01*
X163995000Y-104062974D01*
X163995000Y-103201026D01*
X164173000Y-103201026D01*
X164173000Y-104062974D01*
X164262898Y-104514923D01*
X164518907Y-104898067D01*
X164902051Y-105154076D01*
X165354000Y-105243974D01*
X165805949Y-105154076D01*
X166189093Y-104898067D01*
X166445102Y-104514923D01*
X166535000Y-104062974D01*
X166535000Y-103201026D01*
X166481271Y-102930913D01*
X167309800Y-102102384D01*
X167309800Y-102198291D01*
X167058907Y-102365933D01*
X166802898Y-102749077D01*
X166713000Y-103201026D01*
X166713000Y-104062974D01*
X166802898Y-104514923D01*
X167058907Y-104898067D01*
X167442051Y-105154076D01*
X167894000Y-105243974D01*
X168345949Y-105154076D01*
X168729093Y-104898067D01*
X168985102Y-104514923D01*
X169075000Y-104062974D01*
X169075000Y-103201026D01*
X168985102Y-102749077D01*
X168729093Y-102365933D01*
X168478200Y-102198291D01*
X168478200Y-102122864D01*
X169849800Y-100751264D01*
X169849800Y-102198291D01*
X169598907Y-102365933D01*
X169342898Y-102749077D01*
X169253000Y-103201026D01*
X169253000Y-104062974D01*
X169342898Y-104514923D01*
X169598907Y-104898067D01*
X169982051Y-105154076D01*
X170434000Y-105243974D01*
X170885949Y-105154076D01*
X171269093Y-104898067D01*
X171525102Y-104514923D01*
X171615000Y-104062974D01*
X171615000Y-103201026D01*
X171525102Y-102749077D01*
X171269093Y-102365933D01*
X171018200Y-102198291D01*
X171018200Y-100698984D01*
X172135800Y-99581383D01*
X172135800Y-101771600D01*
X172180270Y-101995164D01*
X172253288Y-102104443D01*
X172306908Y-102184692D01*
X172348262Y-102226046D01*
X172138907Y-102365933D01*
X171882898Y-102749077D01*
X171793000Y-103201026D01*
X171793000Y-104062974D01*
X171882898Y-104514923D01*
X172138907Y-104898067D01*
X172522051Y-105154076D01*
X172974000Y-105243974D01*
X173425949Y-105154076D01*
X173809093Y-104898067D01*
X174065102Y-104514923D01*
X174155000Y-104062974D01*
X174155000Y-103201026D01*
X174065102Y-102749077D01*
X173809093Y-102365933D01*
X173558200Y-102198291D01*
X173558200Y-102102384D01*
X174386729Y-102930913D01*
X174333000Y-103201026D01*
X174333000Y-104062974D01*
X174422898Y-104514923D01*
X174678907Y-104898067D01*
X175062051Y-105154076D01*
X175514000Y-105243974D01*
X175965949Y-105154076D01*
X176349093Y-104898067D01*
X176605102Y-104514923D01*
X176695000Y-104062974D01*
X176695000Y-103201026D01*
X176605102Y-102749077D01*
X176349093Y-102365933D01*
X175965949Y-102109924D01*
X175514000Y-102020026D01*
X175192217Y-102084033D01*
X174066200Y-100958016D01*
X174066200Y-100525985D01*
X174300051Y-100682239D01*
X174752000Y-100772137D01*
X175203949Y-100682239D01*
X175587093Y-100426230D01*
X175843102Y-100043086D01*
X175933000Y-99591137D01*
X175933000Y-99568000D01*
X177052883Y-99568000D01*
X177146587Y-100039083D01*
X177413435Y-100438448D01*
X177812800Y-100705296D01*
X178283883Y-100799000D01*
X178332117Y-100799000D01*
X178803200Y-100705296D01*
X179202565Y-100438448D01*
X179459788Y-100053488D01*
X179576355Y-100334924D01*
X179966642Y-100763183D01*
X180491108Y-101009486D01*
X180721000Y-100888819D01*
X180721000Y-99695000D01*
X180975000Y-99695000D01*
X180975000Y-100888819D01*
X181204892Y-101009486D01*
X181729358Y-100763183D01*
X182119645Y-100334924D01*
X182289476Y-99924890D01*
X182168155Y-99695000D01*
X180975000Y-99695000D01*
X180721000Y-99695000D01*
X180701000Y-99695000D01*
X180701000Y-99441000D01*
X180721000Y-99441000D01*
X180721000Y-99421000D01*
X180975000Y-99421000D01*
X180975000Y-99441000D01*
X182168155Y-99441000D01*
X182289476Y-99211110D01*
X182119645Y-98801076D01*
X181729358Y-98372817D01*
X181304053Y-98173083D01*
X181343200Y-98165296D01*
X181742565Y-97898448D01*
X182009413Y-97499083D01*
X182103117Y-97028000D01*
X182009413Y-96556917D01*
X181742565Y-96157552D01*
X181343200Y-95890704D01*
X180872117Y-95797000D01*
X180823883Y-95797000D01*
X180352800Y-95890704D01*
X179953435Y-96157552D01*
X179686587Y-96556917D01*
X179592883Y-97028000D01*
X179686587Y-97499083D01*
X179953435Y-97898448D01*
X180352800Y-98165296D01*
X180391947Y-98173083D01*
X179966642Y-98372817D01*
X179576355Y-98801076D01*
X179459788Y-99082512D01*
X179202565Y-98697552D01*
X178803200Y-98430704D01*
X178332117Y-98337000D01*
X178283883Y-98337000D01*
X177812800Y-98430704D01*
X177413435Y-98697552D01*
X177146587Y-99096917D01*
X177052883Y-99568000D01*
X175933000Y-99568000D01*
X175933000Y-99544863D01*
X175843102Y-99092914D01*
X175587093Y-98709770D01*
X175203949Y-98453761D01*
X174752000Y-98363863D01*
X174300051Y-98453761D01*
X174066200Y-98610015D01*
X174066200Y-97028000D01*
X177052883Y-97028000D01*
X177146587Y-97499083D01*
X177413435Y-97898448D01*
X177812800Y-98165296D01*
X178283883Y-98259000D01*
X178332117Y-98259000D01*
X178803200Y-98165296D01*
X179202565Y-97898448D01*
X179469413Y-97499083D01*
X179563117Y-97028000D01*
X179469413Y-96556917D01*
X179202565Y-96157552D01*
X178803200Y-95890704D01*
X178332117Y-95797000D01*
X178283883Y-95797000D01*
X177812800Y-95890704D01*
X177413435Y-96157552D01*
X177146587Y-96556917D01*
X177052883Y-97028000D01*
X174066200Y-97028000D01*
X174066200Y-93638000D01*
X177069536Y-93638000D01*
X177069536Y-95338000D01*
X177096103Y-95479190D01*
X177179546Y-95608865D01*
X177306866Y-95695859D01*
X177458000Y-95726464D01*
X179158000Y-95726464D01*
X179299190Y-95699897D01*
X179428865Y-95616454D01*
X179515859Y-95489134D01*
X179546464Y-95338000D01*
X179546464Y-94488000D01*
X179592883Y-94488000D01*
X179686587Y-94959083D01*
X179953435Y-95358448D01*
X180352800Y-95625296D01*
X180823883Y-95719000D01*
X180872117Y-95719000D01*
X181343200Y-95625296D01*
X181742565Y-95358448D01*
X182009413Y-94959083D01*
X182103117Y-94488000D01*
X182009413Y-94016917D01*
X181742565Y-93617552D01*
X181343200Y-93350704D01*
X180872117Y-93257000D01*
X180823883Y-93257000D01*
X180352800Y-93350704D01*
X179953435Y-93617552D01*
X179686587Y-94016917D01*
X179592883Y-94488000D01*
X179546464Y-94488000D01*
X179546464Y-93638000D01*
X179519897Y-93496810D01*
X179436454Y-93367135D01*
X179309134Y-93280141D01*
X179158000Y-93249536D01*
X177458000Y-93249536D01*
X177316810Y-93276103D01*
X177187135Y-93359546D01*
X177100141Y-93486866D01*
X177069536Y-93638000D01*
X174066200Y-93638000D01*
X174066200Y-92932647D01*
X174082144Y-92948619D01*
X174516054Y-93128794D01*
X174985885Y-93129204D01*
X175420109Y-92949787D01*
X175752619Y-92617856D01*
X175932794Y-92183946D01*
X175933204Y-91714115D01*
X175753787Y-91279891D01*
X175421856Y-90947381D01*
X174987946Y-90767206D01*
X174518115Y-90766796D01*
X174083891Y-90946213D01*
X174066200Y-90963873D01*
X174066200Y-78981984D01*
X177387720Y-75660464D01*
X178650000Y-75660464D01*
X178791190Y-75633897D01*
X178920865Y-75550454D01*
X179007859Y-75423134D01*
X179038464Y-75272000D01*
X179038464Y-73572000D01*
X179011897Y-73430810D01*
X178928454Y-73301135D01*
X178801134Y-73214141D01*
X178650000Y-73183536D01*
X176950000Y-73183536D01*
X176808810Y-73210103D01*
X176679135Y-73293546D01*
X176592141Y-73420866D01*
X176561536Y-73572000D01*
X176561536Y-74834280D01*
X176233543Y-75162273D01*
X176397296Y-74917200D01*
X176491000Y-74446117D01*
X176491000Y-74397883D01*
X176397296Y-73926800D01*
X176130448Y-73527435D01*
X175731083Y-73260587D01*
X175260000Y-73166883D01*
X174788917Y-73260587D01*
X174389552Y-73527435D01*
X174122704Y-73926800D01*
X174029000Y-74397883D01*
X174029000Y-74446117D01*
X174122704Y-74917200D01*
X174201576Y-75035240D01*
X173304200Y-75932616D01*
X173304200Y-75507830D01*
X173590448Y-75316565D01*
X173857296Y-74917200D01*
X173951000Y-74446117D01*
X173951000Y-74397883D01*
X173857296Y-73926800D01*
X173590448Y-73527435D01*
X173191083Y-73260587D01*
X172720000Y-73166883D01*
X172248917Y-73260587D01*
X171849552Y-73527435D01*
X171582704Y-73926800D01*
X171489000Y-74397883D01*
X171489000Y-74446117D01*
X171582704Y-74917200D01*
X171849552Y-75316565D01*
X172135800Y-75507830D01*
X172135800Y-75958016D01*
X171780200Y-76313616D01*
X171780200Y-75438000D01*
X171735730Y-75214436D01*
X171609092Y-75024908D01*
X171347838Y-74763654D01*
X171411000Y-74446117D01*
X171411000Y-74397883D01*
X171317296Y-73926800D01*
X171050448Y-73527435D01*
X170651083Y-73260587D01*
X170180000Y-73166883D01*
X169708917Y-73260587D01*
X169309552Y-73527435D01*
X169042704Y-73926800D01*
X168949000Y-74397883D01*
X168949000Y-74446117D01*
X169042704Y-74917200D01*
X169206457Y-75162273D01*
X168807838Y-74763654D01*
X168871000Y-74446117D01*
X168871000Y-74397883D01*
X168777296Y-73926800D01*
X168510448Y-73527435D01*
X168111083Y-73260587D01*
X167640000Y-73166883D01*
X167168917Y-73260587D01*
X166769552Y-73527435D01*
X166502704Y-73926800D01*
X166409000Y-74397883D01*
X166409000Y-74446117D01*
X166502704Y-74917200D01*
X166769552Y-75316565D01*
X167168917Y-75583413D01*
X167640000Y-75677117D01*
X167997769Y-75605953D01*
X169976800Y-77584984D01*
X169976800Y-97783016D01*
X165675783Y-102084033D01*
X165354000Y-102020026D01*
X164902051Y-102109924D01*
X164518907Y-102365933D01*
X164262898Y-102749077D01*
X164173000Y-103201026D01*
X163995000Y-103201026D01*
X163905102Y-102749077D01*
X163649093Y-102365933D01*
X163398200Y-102198291D01*
X163398200Y-102095984D01*
X164526206Y-100967978D01*
X164610054Y-101002794D01*
X165079885Y-101003204D01*
X165514109Y-100823787D01*
X165846619Y-100491856D01*
X166026794Y-100057946D01*
X166027204Y-99588115D01*
X165847787Y-99153891D01*
X165515856Y-98821381D01*
X165261879Y-98715921D01*
X165600005Y-98575864D01*
X165674139Y-98329745D01*
X164846000Y-97501605D01*
X164017861Y-98329745D01*
X164091995Y-98575864D01*
X164454187Y-98706050D01*
X164177891Y-98820213D01*
X163845381Y-99152144D01*
X163665206Y-99586054D01*
X163664796Y-100055885D01*
X163700214Y-100141602D01*
X162400908Y-101440908D01*
X162274270Y-101630436D01*
X162229800Y-101854000D01*
X162229800Y-102198291D01*
X162128200Y-102266178D01*
X162128200Y-97105223D01*
X163399035Y-97105223D01*
X163426222Y-97675454D01*
X163592136Y-98076005D01*
X163838255Y-98150139D01*
X164666395Y-97322000D01*
X165025605Y-97322000D01*
X165853745Y-98150139D01*
X166099864Y-98076005D01*
X166292965Y-97538777D01*
X166265778Y-96968546D01*
X166099864Y-96567995D01*
X165853745Y-96493861D01*
X165025605Y-97322000D01*
X164666395Y-97322000D01*
X163838255Y-96493861D01*
X163592136Y-96567995D01*
X163399035Y-97105223D01*
X162128200Y-97105223D01*
X162128200Y-96314255D01*
X164017861Y-96314255D01*
X164846000Y-97142395D01*
X165674139Y-96314255D01*
X165600005Y-96068136D01*
X165062777Y-95875035D01*
X164492546Y-95902222D01*
X164091995Y-96068136D01*
X164017861Y-96314255D01*
X162128200Y-96314255D01*
X162128200Y-88519000D01*
X162083730Y-88295436D01*
X161957092Y-88105908D01*
X160464873Y-86613689D01*
X161278778Y-86613689D01*
X161473388Y-87084680D01*
X161833425Y-87445345D01*
X162304076Y-87640777D01*
X162813689Y-87641222D01*
X163284680Y-87446612D01*
X163565000Y-87166780D01*
X163565000Y-87386310D01*
X163661673Y-87619699D01*
X163840302Y-87798327D01*
X164073691Y-87895000D01*
X164814250Y-87895000D01*
X164973000Y-87736250D01*
X164973000Y-86487000D01*
X165227000Y-86487000D01*
X165227000Y-87736250D01*
X165385750Y-87895000D01*
X166126309Y-87895000D01*
X166359698Y-87798327D01*
X166538327Y-87619699D01*
X166635000Y-87386310D01*
X166635000Y-86645750D01*
X166476250Y-86487000D01*
X165227000Y-86487000D01*
X164973000Y-86487000D01*
X164953000Y-86487000D01*
X164953000Y-86233000D01*
X164973000Y-86233000D01*
X164973000Y-84983750D01*
X165227000Y-84983750D01*
X165227000Y-86233000D01*
X166476250Y-86233000D01*
X166635000Y-86074250D01*
X166635000Y-85333690D01*
X166538327Y-85100301D01*
X166359698Y-84921673D01*
X166126309Y-84825000D01*
X165385750Y-84825000D01*
X165227000Y-84983750D01*
X164973000Y-84983750D01*
X164814250Y-84825000D01*
X164073691Y-84825000D01*
X163840302Y-84921673D01*
X163661673Y-85100301D01*
X163565000Y-85333690D01*
X163565000Y-85553566D01*
X163286575Y-85274655D01*
X162815924Y-85079223D01*
X162306311Y-85078778D01*
X161835320Y-85273388D01*
X161474655Y-85633425D01*
X161279223Y-86104076D01*
X161278778Y-86613689D01*
X160464873Y-86613689D01*
X159798092Y-85946908D01*
X159739938Y-85908051D01*
X159608564Y-85820270D01*
X159385000Y-85775800D01*
X157997872Y-85775800D01*
X157830230Y-85524907D01*
X157447086Y-85268898D01*
X156995137Y-85179000D01*
X156948863Y-85179000D01*
X156496914Y-85268898D01*
X156113770Y-85524907D01*
X155857761Y-85908051D01*
X155767863Y-86360000D01*
X155857761Y-86811949D01*
X156113770Y-87195093D01*
X156496914Y-87451102D01*
X156948863Y-87541000D01*
X156995137Y-87541000D01*
X157447086Y-87451102D01*
X157830230Y-87195093D01*
X157997872Y-86944200D01*
X159143016Y-86944200D01*
X160959800Y-88760984D01*
X160959800Y-101996640D01*
X160705819Y-101857633D01*
X160623039Y-101840096D01*
X160401000Y-101962085D01*
X160401000Y-103505000D01*
X160421000Y-103505000D01*
X160421000Y-103759000D01*
X160401000Y-103759000D01*
X160401000Y-103779000D01*
X160147000Y-103779000D01*
X160147000Y-103759000D01*
X160127000Y-103759000D01*
X160127000Y-103505000D01*
X160147000Y-103505000D01*
X160147000Y-101962085D01*
X159924961Y-101840096D01*
X159842181Y-101857633D01*
X159349104Y-102127500D01*
X158996834Y-102565517D01*
X158872871Y-102989228D01*
X158825102Y-102749077D01*
X158569093Y-102365933D01*
X158318200Y-102198291D01*
X158318200Y-100063984D01*
X158722460Y-99659724D01*
X158778043Y-99682804D01*
X159227983Y-99683196D01*
X159643823Y-99511375D01*
X159962256Y-99193497D01*
X160134804Y-98777957D01*
X160135196Y-98328017D01*
X159963375Y-97912177D01*
X159645497Y-97593744D01*
X159588200Y-97569952D01*
X159588200Y-95025992D01*
X159750619Y-94863856D01*
X159930794Y-94429946D01*
X159931204Y-93960115D01*
X159751787Y-93525891D01*
X159419856Y-93193381D01*
X159165879Y-93087921D01*
X159504005Y-92947864D01*
X159578139Y-92701745D01*
X158750000Y-91873605D01*
X157921861Y-92701745D01*
X157995995Y-92947864D01*
X158358187Y-93078050D01*
X158081891Y-93192213D01*
X157749381Y-93524144D01*
X157569206Y-93958054D01*
X157568796Y-94427885D01*
X157748213Y-94862109D01*
X158080144Y-95194619D01*
X158419800Y-95335656D01*
X158419800Y-97569642D01*
X158364177Y-97592625D01*
X158045744Y-97910503D01*
X157873196Y-98326043D01*
X157872804Y-98775983D01*
X157896495Y-98833321D01*
X157320908Y-99408908D01*
X157194270Y-99598436D01*
X157149800Y-99822000D01*
X157149800Y-102198291D01*
X156898907Y-102365933D01*
X156642898Y-102749077D01*
X156553000Y-103201026D01*
X156553000Y-104062974D01*
X156642898Y-104514923D01*
X156898907Y-104898067D01*
X157282051Y-105154076D01*
X157734000Y-105243974D01*
X158185949Y-105154076D01*
X158569093Y-104898067D01*
X158825102Y-104514923D01*
X158872871Y-104274772D01*
X158996834Y-104698483D01*
X159349104Y-105136500D01*
X159823612Y-105396204D01*
X155515783Y-109704033D01*
X155194000Y-109640026D01*
X154742051Y-109729924D01*
X154358907Y-109985933D01*
X154102898Y-110369077D01*
X154013000Y-110821026D01*
X154013000Y-111682974D01*
X154102898Y-112134923D01*
X154358907Y-112518067D01*
X154742051Y-112774076D01*
X155194000Y-112863974D01*
X155645949Y-112774076D01*
X156029093Y-112518067D01*
X156285102Y-112134923D01*
X156375000Y-111682974D01*
X156375000Y-110821026D01*
X156321271Y-110550913D01*
X157318153Y-109554031D01*
X157194270Y-109739436D01*
X157182997Y-109796110D01*
X156898907Y-109985933D01*
X156642898Y-110369077D01*
X156553000Y-110821026D01*
X156553000Y-111682974D01*
X156642898Y-112134923D01*
X156898907Y-112518067D01*
X157149800Y-112685709D01*
X157149800Y-116471016D01*
X152439980Y-121180836D01*
X152400000Y-121172883D01*
X152042231Y-121244047D01*
X151289092Y-120490908D01*
X151194539Y-120427730D01*
X151099564Y-120364270D01*
X150876000Y-120319800D01*
X146304000Y-120319800D01*
X146080436Y-120364270D01*
X145890908Y-120490908D01*
X145890906Y-120490911D01*
X145137769Y-121244048D01*
X144780000Y-121172883D01*
X144308917Y-121266587D01*
X143909552Y-121533435D01*
X143642704Y-121932800D01*
X143549000Y-122403883D01*
X143549000Y-122452117D01*
X143612162Y-122769654D01*
X143281615Y-123100201D01*
X143259027Y-123100201D01*
X143377296Y-122923200D01*
X143471000Y-122452117D01*
X143471000Y-122403883D01*
X143377296Y-121932800D01*
X143110448Y-121533435D01*
X142711083Y-121266587D01*
X142240000Y-121172883D01*
X141768917Y-121266587D01*
X141369552Y-121533435D01*
X141102704Y-121932800D01*
X141009000Y-122403883D01*
X141009000Y-122452117D01*
X141102704Y-122923200D01*
X141220973Y-123100201D01*
X139436238Y-123100201D01*
X139565005Y-123046864D01*
X139639139Y-122800745D01*
X138811000Y-121972605D01*
X138796858Y-121986748D01*
X138617252Y-121807142D01*
X138631395Y-121793000D01*
X138990605Y-121793000D01*
X139818745Y-122621139D01*
X140064864Y-122547005D01*
X140257965Y-122009777D01*
X140230778Y-121439546D01*
X140064864Y-121038995D01*
X139818745Y-120964861D01*
X138990605Y-121793000D01*
X138631395Y-121793000D01*
X137803255Y-120964861D01*
X137726649Y-120987936D01*
X137733201Y-120954999D01*
X137733201Y-120785255D01*
X137982861Y-120785255D01*
X138811000Y-121613395D01*
X139639139Y-120785255D01*
X139565005Y-120539136D01*
X139027777Y-120346035D01*
X138457546Y-120373222D01*
X138056995Y-120539136D01*
X137982861Y-120785255D01*
X137733201Y-120785255D01*
X137733201Y-120349176D01*
X138023904Y-120407000D01*
X138074096Y-120407000D01*
X138564313Y-120309490D01*
X138979900Y-120031804D01*
X139257586Y-119616217D01*
X139355096Y-119126000D01*
X139257586Y-118635783D01*
X138979900Y-118220196D01*
X138633200Y-117988539D01*
X138633200Y-115951000D01*
X138588730Y-115727436D01*
X138462092Y-115537908D01*
X134398092Y-111473908D01*
X134208564Y-111347270D01*
X133985000Y-111302800D01*
X119748984Y-111302800D01*
X119267210Y-110821026D01*
X143853000Y-110821026D01*
X143853000Y-111682974D01*
X143942898Y-112134923D01*
X144198907Y-112518067D01*
X144582051Y-112774076D01*
X145034000Y-112863974D01*
X145485949Y-112774076D01*
X145869093Y-112518067D01*
X146125102Y-112134923D01*
X146215000Y-111682974D01*
X146215000Y-110821026D01*
X146393000Y-110821026D01*
X146393000Y-111682974D01*
X146482898Y-112134923D01*
X146738907Y-112518067D01*
X147122051Y-112774076D01*
X147574000Y-112863974D01*
X148025949Y-112774076D01*
X148409093Y-112518067D01*
X148665102Y-112134923D01*
X148755000Y-111682974D01*
X148755000Y-110821026D01*
X148933000Y-110821026D01*
X148933000Y-111682974D01*
X149022898Y-112134923D01*
X149278907Y-112518067D01*
X149662051Y-112774076D01*
X150114000Y-112863974D01*
X150565949Y-112774076D01*
X150949093Y-112518067D01*
X151205102Y-112134923D01*
X151295000Y-111682974D01*
X151295000Y-110821026D01*
X151473000Y-110821026D01*
X151473000Y-111682974D01*
X151562898Y-112134923D01*
X151818907Y-112518067D01*
X152202051Y-112774076D01*
X152654000Y-112863974D01*
X153105949Y-112774076D01*
X153489093Y-112518067D01*
X153745102Y-112134923D01*
X153835000Y-111682974D01*
X153835000Y-110821026D01*
X153745102Y-110369077D01*
X153489093Y-109985933D01*
X153105949Y-109729924D01*
X152654000Y-109640026D01*
X152202051Y-109729924D01*
X151818907Y-109985933D01*
X151562898Y-110369077D01*
X151473000Y-110821026D01*
X151295000Y-110821026D01*
X151205102Y-110369077D01*
X150949093Y-109985933D01*
X150565949Y-109729924D01*
X150114000Y-109640026D01*
X149662051Y-109729924D01*
X149278907Y-109985933D01*
X149022898Y-110369077D01*
X148933000Y-110821026D01*
X148755000Y-110821026D01*
X148665102Y-110369077D01*
X148409093Y-109985933D01*
X148025949Y-109729924D01*
X147574000Y-109640026D01*
X147122051Y-109729924D01*
X146738907Y-109985933D01*
X146482898Y-110369077D01*
X146393000Y-110821026D01*
X146215000Y-110821026D01*
X146125102Y-110369077D01*
X145869093Y-109985933D01*
X145485949Y-109729924D01*
X145034000Y-109640026D01*
X144582051Y-109729924D01*
X144198907Y-109985933D01*
X143942898Y-110369077D01*
X143853000Y-110821026D01*
X119267210Y-110821026D01*
X118803301Y-110357117D01*
X118884190Y-110341897D01*
X119013865Y-110258454D01*
X119054649Y-110198764D01*
X119723841Y-110198764D01*
X119793059Y-110440742D01*
X120315780Y-110627155D01*
X120870049Y-110599341D01*
X121252941Y-110440742D01*
X121322159Y-110198764D01*
X120523000Y-109399605D01*
X119723841Y-110198764D01*
X119054649Y-110198764D01*
X119100859Y-110131134D01*
X119131464Y-109980000D01*
X119131464Y-109324031D01*
X119143659Y-109567049D01*
X119302258Y-109949941D01*
X119544236Y-110019159D01*
X120343395Y-109220000D01*
X120702605Y-109220000D01*
X121501764Y-110019159D01*
X121743742Y-109949941D01*
X121922698Y-109448131D01*
X122095143Y-109865480D01*
X122415831Y-110186729D01*
X122835045Y-110360802D01*
X123288963Y-110361198D01*
X123708480Y-110187857D01*
X124029729Y-109867169D01*
X124201339Y-109453885D01*
X124929796Y-109453885D01*
X125109213Y-109888109D01*
X125441144Y-110220619D01*
X125875054Y-110400794D01*
X126344885Y-110401204D01*
X126764689Y-110227745D01*
X127782861Y-110227745D01*
X127856995Y-110473864D01*
X128394223Y-110666965D01*
X128964454Y-110639778D01*
X129365005Y-110473864D01*
X129439139Y-110227745D01*
X128611000Y-109399605D01*
X127782861Y-110227745D01*
X126764689Y-110227745D01*
X126779109Y-110221787D01*
X127111619Y-109889856D01*
X127217079Y-109635879D01*
X127357136Y-109974005D01*
X127603255Y-110048139D01*
X128431395Y-109220000D01*
X128790605Y-109220000D01*
X129618745Y-110048139D01*
X129864864Y-109974005D01*
X130057965Y-109436777D01*
X130030778Y-108866546D01*
X129864864Y-108465995D01*
X129618745Y-108391861D01*
X128790605Y-109220000D01*
X128431395Y-109220000D01*
X127603255Y-108391861D01*
X127357136Y-108465995D01*
X127226950Y-108828187D01*
X127112787Y-108551891D01*
X126780856Y-108219381D01*
X126763695Y-108212255D01*
X127782861Y-108212255D01*
X128611000Y-109040395D01*
X129439139Y-108212255D01*
X129365005Y-107966136D01*
X128827777Y-107773035D01*
X128257546Y-107800222D01*
X127856995Y-107966136D01*
X127782861Y-108212255D01*
X126763695Y-108212255D01*
X126346946Y-108039206D01*
X125877115Y-108038796D01*
X125442891Y-108218213D01*
X125110381Y-108550144D01*
X124930206Y-108984054D01*
X124929796Y-109453885D01*
X124201339Y-109453885D01*
X124203802Y-109447955D01*
X124204198Y-108994037D01*
X124030857Y-108574520D01*
X123710169Y-108253271D01*
X123290955Y-108079198D01*
X122837037Y-108078802D01*
X122417520Y-108252143D01*
X122096271Y-108572831D01*
X121922198Y-108992045D01*
X121921961Y-109263929D01*
X121902341Y-108872951D01*
X121743742Y-108490059D01*
X121501764Y-108420841D01*
X120702605Y-109220000D01*
X120343395Y-109220000D01*
X119544236Y-108420841D01*
X119302258Y-108490059D01*
X119131464Y-108968983D01*
X119131464Y-108460000D01*
X119104897Y-108318810D01*
X119054980Y-108241236D01*
X119723841Y-108241236D01*
X120523000Y-109040395D01*
X121322159Y-108241236D01*
X121252941Y-107999258D01*
X120730220Y-107812845D01*
X120175951Y-107840659D01*
X119793059Y-107999258D01*
X119723841Y-108241236D01*
X119054980Y-108241236D01*
X119021454Y-108189135D01*
X118894134Y-108102141D01*
X118743000Y-108071536D01*
X118567200Y-108071536D01*
X118567200Y-107302984D01*
X120002984Y-105867200D01*
X121793000Y-105867200D01*
X122016564Y-105822730D01*
X122206092Y-105696092D01*
X124111092Y-103791092D01*
X124142381Y-103744264D01*
X124237730Y-103601564D01*
X124282200Y-103378000D01*
X124282200Y-93205984D01*
X124487959Y-93000225D01*
X124816617Y-93065600D01*
X124865383Y-93065600D01*
X125341671Y-92970860D01*
X125745448Y-92701065D01*
X125882400Y-92496102D01*
X125882400Y-92810910D01*
X125979073Y-93044299D01*
X126157702Y-93222927D01*
X126391091Y-93319600D01*
X127095250Y-93319600D01*
X127254000Y-93160850D01*
X127254000Y-91948000D01*
X127508000Y-91948000D01*
X127508000Y-93160850D01*
X127666750Y-93319600D01*
X128370909Y-93319600D01*
X128604298Y-93222927D01*
X128782927Y-93044299D01*
X128879600Y-92810910D01*
X128879600Y-92106750D01*
X128720850Y-91948000D01*
X127508000Y-91948000D01*
X127254000Y-91948000D01*
X127234000Y-91948000D01*
X127234000Y-91694000D01*
X127254000Y-91694000D01*
X127254000Y-89408000D01*
X127508000Y-89408000D01*
X127508000Y-91694000D01*
X128720850Y-91694000D01*
X128879600Y-91535250D01*
X128879600Y-90831090D01*
X128782927Y-90597701D01*
X128604298Y-90419073D01*
X128406880Y-90337300D01*
X128663688Y-90055947D01*
X128835958Y-89640026D01*
X128714817Y-89408000D01*
X127508000Y-89408000D01*
X127254000Y-89408000D01*
X124968000Y-89408000D01*
X124968000Y-89428000D01*
X124714000Y-89428000D01*
X124714000Y-89408000D01*
X123507183Y-89408000D01*
X123386042Y-89640026D01*
X123558312Y-90055947D01*
X123952510Y-90487821D01*
X124342662Y-90670676D01*
X124340329Y-90671140D01*
X123936552Y-90940935D01*
X123666757Y-91344712D01*
X123572017Y-91821000D01*
X123645482Y-92190334D01*
X123284908Y-92550908D01*
X123158270Y-92740436D01*
X123113800Y-92964000D01*
X123113800Y-103136016D01*
X122322712Y-103927104D01*
X122238534Y-103842926D01*
X122505387Y-103744264D01*
X122731908Y-103134539D01*
X122707856Y-102484540D01*
X122505387Y-101995736D01*
X122238532Y-101897073D01*
X121265605Y-102870000D01*
X121279748Y-102884143D01*
X121100143Y-103063748D01*
X121086000Y-103049605D01*
X120113073Y-104022532D01*
X120211736Y-104289387D01*
X120821461Y-104515908D01*
X121471460Y-104491856D01*
X121960264Y-104289387D01*
X122058926Y-104022534D01*
X122143104Y-104106712D01*
X121551016Y-104698800D01*
X119761005Y-104698800D01*
X119761000Y-104698799D01*
X119537437Y-104743269D01*
X119347908Y-104869908D01*
X117569908Y-106647908D01*
X117443270Y-106837436D01*
X117398800Y-107061000D01*
X117398800Y-108071536D01*
X117223000Y-108071536D01*
X117081810Y-108098103D01*
X116952135Y-108181546D01*
X116865141Y-108308866D01*
X116834536Y-108460000D01*
X116834536Y-109980000D01*
X116861103Y-110121190D01*
X116944546Y-110250865D01*
X117071866Y-110337859D01*
X117223000Y-110368464D01*
X117398800Y-110368464D01*
X117398800Y-110386400D01*
X117443270Y-110609964D01*
X117569908Y-110799492D01*
X117800508Y-111030092D01*
X117871028Y-111077212D01*
X119093908Y-112300092D01*
X119283436Y-112426730D01*
X119507000Y-112471200D01*
X133743016Y-112471200D01*
X137464800Y-116192984D01*
X137464800Y-117988539D01*
X137118100Y-118220196D01*
X136906870Y-118536324D01*
X136821240Y-118329583D01*
X136416576Y-117888034D01*
X135873742Y-117634954D01*
X135636000Y-117755003D01*
X135636000Y-118999000D01*
X135656000Y-118999000D01*
X135656000Y-119253000D01*
X135636000Y-119253000D01*
X135636000Y-120496997D01*
X135873742Y-120617046D01*
X136416576Y-120363966D01*
X136564801Y-120202230D01*
X136564801Y-120619620D01*
X136546946Y-120612206D01*
X136077115Y-120611796D01*
X135642891Y-120791213D01*
X135310381Y-121123144D01*
X135191430Y-121409610D01*
X135073787Y-121124891D01*
X134741856Y-120792381D01*
X134307946Y-120612206D01*
X133838115Y-120611796D01*
X133752397Y-120647214D01*
X133553200Y-120448016D01*
X133553200Y-120414464D01*
X133869000Y-120414464D01*
X134010190Y-120387897D01*
X134139865Y-120304454D01*
X134226859Y-120177134D01*
X134257464Y-120026000D01*
X134257464Y-119988654D01*
X134601424Y-120363966D01*
X135144258Y-120617046D01*
X135382000Y-120496997D01*
X135382000Y-119253000D01*
X135362000Y-119253000D01*
X135362000Y-118999000D01*
X135382000Y-118999000D01*
X135382000Y-117755003D01*
X135144258Y-117634954D01*
X134601424Y-117888034D01*
X134257464Y-118263346D01*
X134257464Y-118226000D01*
X134230897Y-118084810D01*
X134147454Y-117955135D01*
X134020134Y-117868141D01*
X133869000Y-117837536D01*
X133553200Y-117837536D01*
X133553200Y-117819600D01*
X133508730Y-117596036D01*
X133382092Y-117406508D01*
X132021492Y-116045908D01*
X131831964Y-115919270D01*
X131608400Y-115874800D01*
X128026464Y-115874800D01*
X128026464Y-114709000D01*
X127999897Y-114567810D01*
X127916454Y-114438135D01*
X127789134Y-114351141D01*
X127638000Y-114320536D01*
X124138000Y-114320536D01*
X123996810Y-114347103D01*
X123867135Y-114430546D01*
X123780141Y-114557866D01*
X123749536Y-114709000D01*
X123749536Y-118209000D01*
X123776103Y-118350190D01*
X123859546Y-118479865D01*
X123986866Y-118566859D01*
X124138000Y-118597464D01*
X127638000Y-118597464D01*
X127779190Y-118570897D01*
X127908865Y-118487454D01*
X127995859Y-118360134D01*
X128026464Y-118209000D01*
X128026464Y-117043200D01*
X131366416Y-117043200D01*
X132160752Y-117837536D01*
X132069000Y-117837536D01*
X131927810Y-117864103D01*
X131798135Y-117947546D01*
X131711141Y-118074866D01*
X131680536Y-118226000D01*
X131680536Y-120026000D01*
X131707103Y-120167190D01*
X131790546Y-120296865D01*
X131917866Y-120383859D01*
X132069000Y-120414464D01*
X132384800Y-120414464D01*
X132384800Y-120690000D01*
X132403149Y-120782243D01*
X132400139Y-120785253D01*
X132326005Y-120539136D01*
X131788777Y-120346035D01*
X131218546Y-120373222D01*
X130817995Y-120539136D01*
X130743861Y-120785255D01*
X131572000Y-121613395D01*
X131586142Y-121599252D01*
X131765748Y-121778858D01*
X131751605Y-121793000D01*
X132579745Y-122621139D01*
X132825864Y-122547005D01*
X132956050Y-122184813D01*
X133070213Y-122461109D01*
X133402144Y-122793619D01*
X133836054Y-122973794D01*
X134305885Y-122974204D01*
X134391603Y-122938786D01*
X135964817Y-124512000D01*
X114756000Y-124512000D01*
X114756000Y-119409000D01*
X120749536Y-119409000D01*
X120749536Y-122909000D01*
X120776103Y-123050190D01*
X120859546Y-123179865D01*
X120986866Y-123266859D01*
X121138000Y-123297464D01*
X124638000Y-123297464D01*
X124779190Y-123270897D01*
X124908865Y-123187454D01*
X124995859Y-123060134D01*
X125026464Y-122909000D01*
X125026464Y-122428000D01*
X126290000Y-122428000D01*
X126440719Y-123185713D01*
X126869929Y-123828071D01*
X127512287Y-124257281D01*
X128270000Y-124408000D01*
X129027713Y-124257281D01*
X129670071Y-123828071D01*
X130099281Y-123185713D01*
X130175856Y-122800745D01*
X130743861Y-122800745D01*
X130817995Y-123046864D01*
X131355223Y-123239965D01*
X131925454Y-123212778D01*
X132326005Y-123046864D01*
X132400139Y-122800745D01*
X131572000Y-121972605D01*
X130743861Y-122800745D01*
X130175856Y-122800745D01*
X130250000Y-122428000D01*
X130232592Y-122340484D01*
X130318136Y-122547005D01*
X130564255Y-122621139D01*
X131392395Y-121793000D01*
X130564255Y-120964861D01*
X130318136Y-121038995D01*
X130125035Y-121576223D01*
X130139052Y-121870231D01*
X130099281Y-121670287D01*
X129670071Y-121027929D01*
X129027713Y-120598719D01*
X128270000Y-120448000D01*
X127512287Y-120598719D01*
X126869929Y-121027929D01*
X126440719Y-121670287D01*
X126290000Y-122428000D01*
X125026464Y-122428000D01*
X125026464Y-119409000D01*
X124999897Y-119267810D01*
X124916454Y-119138135D01*
X124789134Y-119051141D01*
X124638000Y-119020536D01*
X121138000Y-119020536D01*
X120996810Y-119047103D01*
X120867135Y-119130546D01*
X120780141Y-119257866D01*
X120749536Y-119409000D01*
X114756000Y-119409000D01*
X114756000Y-116744750D01*
X117503000Y-116744750D01*
X117503000Y-118335310D01*
X117599673Y-118568699D01*
X117778302Y-118747327D01*
X118011691Y-118844000D01*
X119602250Y-118844000D01*
X119761000Y-118685250D01*
X119761000Y-116586000D01*
X120015000Y-116586000D01*
X120015000Y-118685250D01*
X120173750Y-118844000D01*
X121764309Y-118844000D01*
X121997698Y-118747327D01*
X122176327Y-118568699D01*
X122273000Y-118335310D01*
X122273000Y-116744750D01*
X122114250Y-116586000D01*
X120015000Y-116586000D01*
X119761000Y-116586000D01*
X117661750Y-116586000D01*
X117503000Y-116744750D01*
X114756000Y-116744750D01*
X114756000Y-114582690D01*
X117503000Y-114582690D01*
X117503000Y-116173250D01*
X117661750Y-116332000D01*
X119761000Y-116332000D01*
X119761000Y-114232750D01*
X120015000Y-114232750D01*
X120015000Y-116332000D01*
X122114250Y-116332000D01*
X122273000Y-116173250D01*
X122273000Y-114582690D01*
X122176327Y-114349301D01*
X121997698Y-114170673D01*
X121764309Y-114074000D01*
X120173750Y-114074000D01*
X120015000Y-114232750D01*
X119761000Y-114232750D01*
X119602250Y-114074000D01*
X118011691Y-114074000D01*
X117778302Y-114170673D01*
X117599673Y-114349301D01*
X117503000Y-114582690D01*
X114756000Y-114582690D01*
X114756000Y-103143493D01*
X115204761Y-103143493D01*
X115414563Y-103651251D01*
X115802705Y-104040072D01*
X116310097Y-104250759D01*
X116859493Y-104251239D01*
X117367251Y-104041437D01*
X117756072Y-103653295D01*
X117966759Y-103145903D01*
X117967231Y-102605461D01*
X119440092Y-102605461D01*
X119464144Y-103255460D01*
X119666613Y-103744264D01*
X119933468Y-103842927D01*
X120906395Y-102870000D01*
X119933468Y-101897073D01*
X119666613Y-101995736D01*
X119440092Y-102605461D01*
X117967231Y-102605461D01*
X117967239Y-102596507D01*
X117757437Y-102088749D01*
X117386805Y-101717468D01*
X120113073Y-101717468D01*
X121086000Y-102690395D01*
X122058927Y-101717468D01*
X121960264Y-101450613D01*
X121350539Y-101224092D01*
X120700540Y-101248144D01*
X120211736Y-101450613D01*
X120113073Y-101717468D01*
X117386805Y-101717468D01*
X117369295Y-101699928D01*
X116861903Y-101489241D01*
X116312507Y-101488761D01*
X115804749Y-101698563D01*
X115415928Y-102086705D01*
X115205241Y-102594097D01*
X115204761Y-103143493D01*
X114756000Y-103143493D01*
X114756000Y-96643493D01*
X115204761Y-96643493D01*
X115414563Y-97151251D01*
X115802705Y-97540072D01*
X116310097Y-97750759D01*
X116859493Y-97751239D01*
X117367251Y-97541437D01*
X117386189Y-97522532D01*
X120113073Y-97522532D01*
X120211736Y-97789387D01*
X120821461Y-98015908D01*
X121471460Y-97991856D01*
X121960264Y-97789387D01*
X122058927Y-97522532D01*
X121086000Y-96549605D01*
X120113073Y-97522532D01*
X117386189Y-97522532D01*
X117756072Y-97153295D01*
X117966759Y-96645903D01*
X117967231Y-96105461D01*
X119440092Y-96105461D01*
X119464144Y-96755460D01*
X119666613Y-97244264D01*
X119933468Y-97342927D01*
X120906395Y-96370000D01*
X121265605Y-96370000D01*
X122238532Y-97342927D01*
X122505387Y-97244264D01*
X122731908Y-96634539D01*
X122707856Y-95984540D01*
X122505387Y-95495736D01*
X122238532Y-95397073D01*
X121265605Y-96370000D01*
X120906395Y-96370000D01*
X119933468Y-95397073D01*
X119666613Y-95495736D01*
X119440092Y-96105461D01*
X117967231Y-96105461D01*
X117967239Y-96096507D01*
X117757437Y-95588749D01*
X117386805Y-95217468D01*
X120113073Y-95217468D01*
X121086000Y-96190395D01*
X122058927Y-95217468D01*
X121960264Y-94950613D01*
X121350539Y-94724092D01*
X120700540Y-94748144D01*
X120211736Y-94950613D01*
X120113073Y-95217468D01*
X117386805Y-95217468D01*
X117369295Y-95199928D01*
X116861903Y-94989241D01*
X116312507Y-94988761D01*
X115804749Y-95198563D01*
X115415928Y-95586705D01*
X115205241Y-96094097D01*
X115204761Y-96643493D01*
X114756000Y-96643493D01*
X114756000Y-88921974D01*
X123386042Y-88921974D01*
X123507183Y-89154000D01*
X124714000Y-89154000D01*
X124714000Y-89134000D01*
X124968000Y-89134000D01*
X124968000Y-89154000D01*
X127254000Y-89154000D01*
X127254000Y-89134000D01*
X127508000Y-89134000D01*
X127508000Y-89154000D01*
X128714817Y-89154000D01*
X128835958Y-88921974D01*
X128663688Y-88506053D01*
X128269490Y-88074179D01*
X127879338Y-87891324D01*
X127881671Y-87890860D01*
X128285448Y-87621065D01*
X128555243Y-87217288D01*
X128649983Y-86741000D01*
X128555243Y-86264712D01*
X128285448Y-85860935D01*
X127881671Y-85591140D01*
X127405383Y-85496400D01*
X127356617Y-85496400D01*
X126880329Y-85591140D01*
X126476552Y-85860935D01*
X126206757Y-86264712D01*
X126112017Y-86741000D01*
X126206757Y-87217288D01*
X126476552Y-87621065D01*
X126880329Y-87890860D01*
X126882662Y-87891324D01*
X126492510Y-88074179D01*
X126111000Y-88492152D01*
X125729490Y-88074179D01*
X125339338Y-87891324D01*
X125341671Y-87890860D01*
X125745448Y-87621065D01*
X126015243Y-87217288D01*
X126109983Y-86741000D01*
X126015243Y-86264712D01*
X125745448Y-85860935D01*
X125341671Y-85591140D01*
X124865383Y-85496400D01*
X124816617Y-85496400D01*
X124340329Y-85591140D01*
X123936552Y-85860935D01*
X123666757Y-86264712D01*
X123572017Y-86741000D01*
X123666757Y-87217288D01*
X123936552Y-87621065D01*
X124340329Y-87890860D01*
X124342662Y-87891324D01*
X123952510Y-88074179D01*
X123558312Y-88506053D01*
X123386042Y-88921974D01*
X114756000Y-88921974D01*
X114756000Y-84201000D01*
X123572017Y-84201000D01*
X123666757Y-84677288D01*
X123936552Y-85081065D01*
X124340329Y-85350860D01*
X124816617Y-85445600D01*
X124865383Y-85445600D01*
X125341671Y-85350860D01*
X125745448Y-85081065D01*
X126015243Y-84677288D01*
X126109983Y-84201000D01*
X126015243Y-83724712D01*
X125745448Y-83320935D01*
X125341671Y-83051140D01*
X124865383Y-82956400D01*
X124816617Y-82956400D01*
X124340329Y-83051140D01*
X123936552Y-83320935D01*
X123666757Y-83724712D01*
X123572017Y-84201000D01*
X114756000Y-84201000D01*
X114756000Y-81661000D01*
X123572017Y-81661000D01*
X123666757Y-82137288D01*
X123936552Y-82541065D01*
X124340329Y-82810860D01*
X124816617Y-82905600D01*
X124865383Y-82905600D01*
X125341671Y-82810860D01*
X125745448Y-82541065D01*
X126015243Y-82137288D01*
X126109983Y-81661000D01*
X126112017Y-81661000D01*
X126206757Y-82137288D01*
X126476552Y-82541065D01*
X126880329Y-82810860D01*
X127356617Y-82905600D01*
X127405383Y-82905600D01*
X127881671Y-82810860D01*
X128285448Y-82541065D01*
X128483139Y-82245200D01*
X136779000Y-82245200D01*
X137002564Y-82200730D01*
X137192092Y-82074092D01*
X138925984Y-80340200D01*
X148326128Y-80340200D01*
X148493770Y-80591093D01*
X148876914Y-80847102D01*
X149328863Y-80937000D01*
X149375137Y-80937000D01*
X149827086Y-80847102D01*
X150037800Y-80706307D01*
X150037800Y-82107693D01*
X149827086Y-81966898D01*
X149375137Y-81877000D01*
X149328863Y-81877000D01*
X148876914Y-81966898D01*
X148493770Y-82222907D01*
X148326128Y-82473800D01*
X138557000Y-82473800D01*
X138333436Y-82518270D01*
X138202062Y-82606051D01*
X138143908Y-82644908D01*
X137172016Y-83616800D01*
X128483139Y-83616800D01*
X128285448Y-83320935D01*
X127881671Y-83051140D01*
X127405383Y-82956400D01*
X127356617Y-82956400D01*
X126880329Y-83051140D01*
X126476552Y-83320935D01*
X126206757Y-83724712D01*
X126112017Y-84201000D01*
X126206757Y-84677288D01*
X126476552Y-85081065D01*
X126880329Y-85350860D01*
X127356617Y-85445600D01*
X127405383Y-85445600D01*
X127881671Y-85350860D01*
X128285448Y-85081065D01*
X128483139Y-84785200D01*
X137414000Y-84785200D01*
X137637564Y-84740730D01*
X137827092Y-84614092D01*
X138798984Y-83642200D01*
X148326128Y-83642200D01*
X148493770Y-83893093D01*
X148876914Y-84149102D01*
X149328863Y-84239000D01*
X149375137Y-84239000D01*
X149827086Y-84149102D01*
X150037800Y-84008307D01*
X150037800Y-85375353D01*
X150021856Y-85359381D01*
X149587946Y-85179206D01*
X149118115Y-85178796D01*
X148683891Y-85358213D01*
X148351381Y-85690144D01*
X148171206Y-86124054D01*
X148170796Y-86593885D01*
X148350213Y-87028109D01*
X148682144Y-87360619D01*
X149116054Y-87540794D01*
X149585885Y-87541204D01*
X150020109Y-87361787D01*
X150037800Y-87344127D01*
X150037800Y-97402016D01*
X145355783Y-102084033D01*
X145034000Y-102020026D01*
X144582051Y-102109924D01*
X144198907Y-102365933D01*
X143942898Y-102749077D01*
X143853000Y-103201026D01*
X143853000Y-104062974D01*
X143942898Y-104514923D01*
X144198907Y-104898067D01*
X144582051Y-105154076D01*
X145034000Y-105243974D01*
X145485949Y-105154076D01*
X145869093Y-104898067D01*
X146125102Y-104514923D01*
X146215000Y-104062974D01*
X146215000Y-103201026D01*
X146161271Y-102930913D01*
X150850579Y-98241605D01*
X150850579Y-99129237D01*
X147895783Y-102084033D01*
X147574000Y-102020026D01*
X147122051Y-102109924D01*
X146738907Y-102365933D01*
X146482898Y-102749077D01*
X146393000Y-103201026D01*
X146393000Y-104062974D01*
X146482898Y-104514923D01*
X146738907Y-104898067D01*
X147122051Y-105154076D01*
X147574000Y-105243974D01*
X148025949Y-105154076D01*
X148409093Y-104898067D01*
X148665102Y-104514923D01*
X148755000Y-104062974D01*
X148755000Y-103201026D01*
X148701271Y-102930913D01*
X151460189Y-100171995D01*
X151460189Y-101059627D01*
X150435783Y-102084033D01*
X150114000Y-102020026D01*
X149662051Y-102109924D01*
X149278907Y-102365933D01*
X149022898Y-102749077D01*
X148933000Y-103201026D01*
X148933000Y-104062974D01*
X149022898Y-104514923D01*
X149278907Y-104898067D01*
X149662051Y-105154076D01*
X150114000Y-105243974D01*
X150565949Y-105154076D01*
X150949093Y-104898067D01*
X151205102Y-104514923D01*
X151295000Y-104062974D01*
X151295000Y-103201026D01*
X151241271Y-102930913D01*
X152196800Y-101975384D01*
X152196800Y-102113433D01*
X151818907Y-102365933D01*
X151562898Y-102749077D01*
X151473000Y-103201026D01*
X151473000Y-104062974D01*
X151562898Y-104514923D01*
X151818907Y-104898067D01*
X152202051Y-105154076D01*
X152654000Y-105243974D01*
X153105949Y-105154076D01*
X153489093Y-104898067D01*
X153745102Y-104514923D01*
X153835000Y-104062974D01*
X153835000Y-103201026D01*
X153745102Y-102749077D01*
X153489093Y-102365933D01*
X153365200Y-102283150D01*
X153365200Y-99392748D01*
X153482503Y-99510256D01*
X153898043Y-99682804D01*
X154347983Y-99683196D01*
X154443533Y-99643716D01*
X154609800Y-99809983D01*
X154609800Y-102198291D01*
X154358907Y-102365933D01*
X154102898Y-102749077D01*
X154013000Y-103201026D01*
X154013000Y-104062974D01*
X154102898Y-104514923D01*
X154358907Y-104898067D01*
X154742051Y-105154076D01*
X155194000Y-105243974D01*
X155645949Y-105154076D01*
X156029093Y-104898067D01*
X156285102Y-104514923D01*
X156375000Y-104062974D01*
X156375000Y-103201026D01*
X156285102Y-102749077D01*
X156029093Y-102365933D01*
X155778200Y-102198291D01*
X155778200Y-99568005D01*
X155778201Y-99568000D01*
X155733731Y-99344437D01*
X155662478Y-99237800D01*
X155607092Y-99154908D01*
X155607089Y-99154906D01*
X155247568Y-98795384D01*
X155254804Y-98777957D01*
X155255196Y-98328017D01*
X155083375Y-97912177D01*
X154765497Y-97593744D01*
X154708200Y-97569952D01*
X154708200Y-95359245D01*
X154973109Y-95249787D01*
X155305619Y-94917856D01*
X155485794Y-94483946D01*
X155486204Y-94014115D01*
X155306787Y-93579891D01*
X154974856Y-93247381D01*
X154720879Y-93141921D01*
X155059005Y-93001864D01*
X155133139Y-92755745D01*
X154305000Y-91927605D01*
X154290858Y-91941748D01*
X154111252Y-91762142D01*
X154125395Y-91748000D01*
X154484605Y-91748000D01*
X155312745Y-92576139D01*
X155558864Y-92502005D01*
X155751965Y-91964777D01*
X155728720Y-91477223D01*
X157303035Y-91477223D01*
X157330222Y-92047454D01*
X157496136Y-92448005D01*
X157742255Y-92522139D01*
X158570395Y-91694000D01*
X158929605Y-91694000D01*
X159757745Y-92522139D01*
X160003864Y-92448005D01*
X160196965Y-91910777D01*
X160169778Y-91340546D01*
X160003864Y-90939995D01*
X159757745Y-90865861D01*
X158929605Y-91694000D01*
X158570395Y-91694000D01*
X157742255Y-90865861D01*
X157496136Y-90939995D01*
X157303035Y-91477223D01*
X155728720Y-91477223D01*
X155724778Y-91394546D01*
X155558864Y-90993995D01*
X155312745Y-90919861D01*
X154484605Y-91748000D01*
X154125395Y-91748000D01*
X154111252Y-91733858D01*
X154290858Y-91554252D01*
X154305000Y-91568395D01*
X155133139Y-90740255D01*
X155116874Y-90686255D01*
X157921861Y-90686255D01*
X158750000Y-91514395D01*
X159578139Y-90686255D01*
X159504005Y-90440136D01*
X158966777Y-90247035D01*
X158396546Y-90274222D01*
X157995995Y-90440136D01*
X157921861Y-90686255D01*
X155116874Y-90686255D01*
X155059005Y-90494136D01*
X154521777Y-90301035D01*
X153951546Y-90328222D01*
X153550995Y-90494136D01*
X153476861Y-90740253D01*
X153365200Y-90628592D01*
X153365200Y-83291885D01*
X155790796Y-83291885D01*
X155970213Y-83726109D01*
X156302144Y-84058619D01*
X156736054Y-84238794D01*
X157205885Y-84239204D01*
X157640109Y-84059787D01*
X157972619Y-83727856D01*
X158152794Y-83293946D01*
X158153204Y-82824115D01*
X157973787Y-82389891D01*
X157641856Y-82057381D01*
X157207946Y-81877206D01*
X156738115Y-81876796D01*
X156303891Y-82056213D01*
X155971381Y-82388144D01*
X155791206Y-82822054D01*
X155790796Y-83291885D01*
X153365200Y-83291885D01*
X153365200Y-81648984D01*
X156197984Y-78816200D01*
X156241796Y-78816200D01*
X155971381Y-79086144D01*
X155791206Y-79520054D01*
X155790796Y-79989885D01*
X155970213Y-80424109D01*
X156302144Y-80756619D01*
X156736054Y-80936794D01*
X157205885Y-80937204D01*
X157640109Y-80757787D01*
X157972619Y-80425856D01*
X158152794Y-79991946D01*
X158153204Y-79522115D01*
X157973787Y-79087891D01*
X157702569Y-78816200D01*
X161290000Y-78816200D01*
X161513564Y-78771730D01*
X161703092Y-78645092D01*
X164742231Y-75605953D01*
X165100000Y-75677117D01*
X165571083Y-75583413D01*
X165970448Y-75316565D01*
X166237296Y-74917200D01*
X166331000Y-74446117D01*
X166331000Y-74397883D01*
X166237296Y-73926800D01*
X165970448Y-73527435D01*
X165571083Y-73260587D01*
X165100000Y-73166883D01*
X164628917Y-73260587D01*
X164229552Y-73527435D01*
X163962704Y-73926800D01*
X163869000Y-74397883D01*
X163869000Y-74446117D01*
X163932162Y-74763654D01*
X163533543Y-75162273D01*
X163697296Y-74917200D01*
X163791000Y-74446117D01*
X163791000Y-74397883D01*
X163697296Y-73926800D01*
X163430448Y-73527435D01*
X163031083Y-73260587D01*
X162560000Y-73166883D01*
X162088917Y-73260587D01*
X161689552Y-73527435D01*
X161422704Y-73926800D01*
X161329000Y-74397883D01*
X161329000Y-74446117D01*
X161392162Y-74763654D01*
X160993543Y-75162273D01*
X161157296Y-74917200D01*
X161251000Y-74446117D01*
X161251000Y-74397883D01*
X161157296Y-73926800D01*
X160890448Y-73527435D01*
X160491083Y-73260587D01*
X160020000Y-73166883D01*
X159548917Y-73260587D01*
X159149552Y-73527435D01*
X158882704Y-73926800D01*
X158789000Y-74397883D01*
X158789000Y-74446117D01*
X158852162Y-74763654D01*
X157492016Y-76123800D01*
X155334384Y-76123800D01*
X155810090Y-75648094D01*
X155956000Y-75677117D01*
X156427083Y-75583413D01*
X156826448Y-75316565D01*
X157093296Y-74917200D01*
X157187000Y-74446117D01*
X157187000Y-74397883D01*
X157093296Y-73926800D01*
X156826448Y-73527435D01*
X156427083Y-73260587D01*
X155956000Y-73166883D01*
X155484917Y-73260587D01*
X155085552Y-73527435D01*
X154818704Y-73926800D01*
X154725000Y-74397883D01*
X154725000Y-74446117D01*
X154818704Y-74917200D01*
X154846707Y-74959109D01*
X150472133Y-79333683D01*
X150466239Y-79304051D01*
X150210230Y-78920907D01*
X149827086Y-78664898D01*
X149375137Y-78575000D01*
X149328863Y-78575000D01*
X148876914Y-78664898D01*
X148493770Y-78920907D01*
X148326128Y-79171800D01*
X138684000Y-79171800D01*
X138460436Y-79216270D01*
X138365461Y-79279730D01*
X138270908Y-79342908D01*
X136537016Y-81076800D01*
X128483139Y-81076800D01*
X128285448Y-80780935D01*
X127881671Y-80511140D01*
X127405383Y-80416400D01*
X127356617Y-80416400D01*
X126880329Y-80511140D01*
X126476552Y-80780935D01*
X126206757Y-81184712D01*
X126112017Y-81661000D01*
X126109983Y-81661000D01*
X126015243Y-81184712D01*
X125745448Y-80780935D01*
X125341671Y-80511140D01*
X124865383Y-80416400D01*
X124816617Y-80416400D01*
X124340329Y-80511140D01*
X123936552Y-80780935D01*
X123666757Y-81184712D01*
X123572017Y-81661000D01*
X114756000Y-81661000D01*
X114756000Y-79121000D01*
X123572017Y-79121000D01*
X123666757Y-79597288D01*
X123936552Y-80001065D01*
X124340329Y-80270860D01*
X124816617Y-80365600D01*
X124865383Y-80365600D01*
X125341671Y-80270860D01*
X125745448Y-80001065D01*
X126015243Y-79597288D01*
X126109983Y-79121000D01*
X126112017Y-79121000D01*
X126206757Y-79597288D01*
X126476552Y-80001065D01*
X126880329Y-80270860D01*
X127356617Y-80365600D01*
X127405383Y-80365600D01*
X127881671Y-80270860D01*
X128285448Y-80001065D01*
X128555243Y-79597288D01*
X128649983Y-79121000D01*
X128555243Y-78644712D01*
X128285448Y-78240935D01*
X127881671Y-77971140D01*
X127405383Y-77876400D01*
X127356617Y-77876400D01*
X126880329Y-77971140D01*
X126476552Y-78240935D01*
X126206757Y-78644712D01*
X126112017Y-79121000D01*
X126109983Y-79121000D01*
X126015243Y-78644712D01*
X125745448Y-78240935D01*
X125341671Y-77971140D01*
X124865383Y-77876400D01*
X124816617Y-77876400D01*
X124340329Y-77971140D01*
X123936552Y-78240935D01*
X123666757Y-78644712D01*
X123572017Y-79121000D01*
X114756000Y-79121000D01*
X114756000Y-74655885D01*
X121794796Y-74655885D01*
X121974213Y-75090109D01*
X122306144Y-75422619D01*
X122740054Y-75602794D01*
X123209885Y-75603204D01*
X123644109Y-75423787D01*
X123976619Y-75091856D01*
X124156794Y-74657946D01*
X124156795Y-74655885D01*
X124294796Y-74655885D01*
X124474213Y-75090109D01*
X124806144Y-75422619D01*
X125240054Y-75602794D01*
X125709885Y-75603204D01*
X126144109Y-75423787D01*
X126476619Y-75091856D01*
X126656794Y-74657946D01*
X126656999Y-74422000D01*
X127306000Y-74422000D01*
X127456719Y-75179713D01*
X127885929Y-75822071D01*
X128528287Y-76251281D01*
X129286000Y-76402000D01*
X130043713Y-76251281D01*
X130686071Y-75822071D01*
X131115281Y-75179713D01*
X131266000Y-74422000D01*
X131115281Y-73664287D01*
X131053617Y-73572000D01*
X131857536Y-73572000D01*
X131857536Y-75272000D01*
X131884103Y-75413190D01*
X131967546Y-75542865D01*
X132094866Y-75629859D01*
X132246000Y-75660464D01*
X133946000Y-75660464D01*
X134087190Y-75633897D01*
X134216865Y-75550454D01*
X134303859Y-75423134D01*
X134334464Y-75272000D01*
X134334464Y-74397883D01*
X134405000Y-74397883D01*
X134405000Y-74446117D01*
X134498704Y-74917200D01*
X134765552Y-75316565D01*
X135164917Y-75583413D01*
X135636000Y-75677117D01*
X136107083Y-75583413D01*
X136506448Y-75316565D01*
X136773296Y-74917200D01*
X136867000Y-74446117D01*
X136867000Y-74397883D01*
X136945000Y-74397883D01*
X136945000Y-74446117D01*
X137038704Y-74917200D01*
X137305552Y-75316565D01*
X137704917Y-75583413D01*
X138176000Y-75677117D01*
X138647083Y-75583413D01*
X139046448Y-75316565D01*
X139313296Y-74917200D01*
X139321083Y-74878053D01*
X139520817Y-75303358D01*
X139949076Y-75693645D01*
X140359110Y-75863476D01*
X140589000Y-75742155D01*
X140589000Y-74549000D01*
X140569000Y-74549000D01*
X140569000Y-74295000D01*
X140589000Y-74295000D01*
X140589000Y-73101845D01*
X140843000Y-73101845D01*
X140843000Y-74295000D01*
X140863000Y-74295000D01*
X140863000Y-74549000D01*
X140843000Y-74549000D01*
X140843000Y-75742155D01*
X141072890Y-75863476D01*
X141482924Y-75693645D01*
X141911183Y-75303358D01*
X142110917Y-74878053D01*
X142118704Y-74917200D01*
X142385552Y-75316565D01*
X142784917Y-75583413D01*
X143256000Y-75677117D01*
X143727083Y-75583413D01*
X144126448Y-75316565D01*
X144393296Y-74917200D01*
X144487000Y-74446117D01*
X144487000Y-74397883D01*
X144565000Y-74397883D01*
X144565000Y-74446117D01*
X144658704Y-74917200D01*
X144925552Y-75316565D01*
X145324917Y-75583413D01*
X145796000Y-75677117D01*
X146267083Y-75583413D01*
X146666448Y-75316565D01*
X146933296Y-74917200D01*
X147027000Y-74446117D01*
X147027000Y-74397883D01*
X147105000Y-74397883D01*
X147105000Y-74446117D01*
X147198704Y-74917200D01*
X147465552Y-75316565D01*
X147864917Y-75583413D01*
X148336000Y-75677117D01*
X148807083Y-75583413D01*
X149206448Y-75316565D01*
X149473296Y-74917200D01*
X149567000Y-74446117D01*
X149567000Y-74397883D01*
X149645000Y-74397883D01*
X149645000Y-74446117D01*
X149738704Y-74917200D01*
X150005552Y-75316565D01*
X150404917Y-75583413D01*
X150876000Y-75677117D01*
X151347083Y-75583413D01*
X151746448Y-75316565D01*
X152013296Y-74917200D01*
X152107000Y-74446117D01*
X152107000Y-74397883D01*
X152185000Y-74397883D01*
X152185000Y-74446117D01*
X152278704Y-74917200D01*
X152545552Y-75316565D01*
X152944917Y-75583413D01*
X153416000Y-75677117D01*
X153887083Y-75583413D01*
X154286448Y-75316565D01*
X154553296Y-74917200D01*
X154647000Y-74446117D01*
X154647000Y-74397883D01*
X154553296Y-73926800D01*
X154286448Y-73527435D01*
X153887083Y-73260587D01*
X153416000Y-73166883D01*
X152944917Y-73260587D01*
X152545552Y-73527435D01*
X152278704Y-73926800D01*
X152185000Y-74397883D01*
X152107000Y-74397883D01*
X152013296Y-73926800D01*
X151746448Y-73527435D01*
X151347083Y-73260587D01*
X150876000Y-73166883D01*
X150404917Y-73260587D01*
X150005552Y-73527435D01*
X149738704Y-73926800D01*
X149645000Y-74397883D01*
X149567000Y-74397883D01*
X149473296Y-73926800D01*
X149206448Y-73527435D01*
X148807083Y-73260587D01*
X148336000Y-73166883D01*
X147864917Y-73260587D01*
X147465552Y-73527435D01*
X147198704Y-73926800D01*
X147105000Y-74397883D01*
X147027000Y-74397883D01*
X146933296Y-73926800D01*
X146666448Y-73527435D01*
X146267083Y-73260587D01*
X145796000Y-73166883D01*
X145324917Y-73260587D01*
X144925552Y-73527435D01*
X144658704Y-73926800D01*
X144565000Y-74397883D01*
X144487000Y-74397883D01*
X144393296Y-73926800D01*
X144126448Y-73527435D01*
X143727083Y-73260587D01*
X143256000Y-73166883D01*
X142784917Y-73260587D01*
X142385552Y-73527435D01*
X142118704Y-73926800D01*
X142110917Y-73965947D01*
X141911183Y-73540642D01*
X141482924Y-73150355D01*
X141072890Y-72980524D01*
X140843000Y-73101845D01*
X140589000Y-73101845D01*
X140359110Y-72980524D01*
X139949076Y-73150355D01*
X139520817Y-73540642D01*
X139321083Y-73965947D01*
X139313296Y-73926800D01*
X139046448Y-73527435D01*
X138647083Y-73260587D01*
X138176000Y-73166883D01*
X137704917Y-73260587D01*
X137305552Y-73527435D01*
X137038704Y-73926800D01*
X136945000Y-74397883D01*
X136867000Y-74397883D01*
X136773296Y-73926800D01*
X136506448Y-73527435D01*
X136107083Y-73260587D01*
X135636000Y-73166883D01*
X135164917Y-73260587D01*
X134765552Y-73527435D01*
X134498704Y-73926800D01*
X134405000Y-74397883D01*
X134334464Y-74397883D01*
X134334464Y-73572000D01*
X134307897Y-73430810D01*
X134224454Y-73301135D01*
X134097134Y-73214141D01*
X133946000Y-73183536D01*
X132246000Y-73183536D01*
X132104810Y-73210103D01*
X131975135Y-73293546D01*
X131888141Y-73420866D01*
X131857536Y-73572000D01*
X131053617Y-73572000D01*
X130686071Y-73021929D01*
X130043713Y-72592719D01*
X129286000Y-72442000D01*
X128528287Y-72592719D01*
X127885929Y-73021929D01*
X127456719Y-73664287D01*
X127306000Y-74422000D01*
X126656999Y-74422000D01*
X126657204Y-74188115D01*
X126477787Y-73753891D01*
X126145856Y-73421381D01*
X125711946Y-73241206D01*
X125242115Y-73240796D01*
X124807891Y-73420213D01*
X124475381Y-73752144D01*
X124295206Y-74186054D01*
X124294796Y-74655885D01*
X124156795Y-74655885D01*
X124157204Y-74188115D01*
X123977787Y-73753891D01*
X123645856Y-73421381D01*
X123211946Y-73241206D01*
X122742115Y-73240796D01*
X122307891Y-73420213D01*
X121975381Y-73752144D01*
X121795206Y-74186054D01*
X121794796Y-74655885D01*
X114756000Y-74655885D01*
X114756000Y-72338000D01*
X179389118Y-72338000D01*
X179884000Y-72832882D01*
X179884000Y-72832882D01*
G37*
X179884000Y-72832882D02*
X179884000Y-84836000D01*
X179897397Y-84903350D01*
X179904642Y-84971645D01*
X179914633Y-84990004D01*
X179918711Y-85010504D01*
X179956865Y-85067606D01*
X179989691Y-85127924D01*
X182424000Y-88049095D01*
X182424000Y-88653898D01*
X182403947Y-88553085D01*
X181919677Y-87828323D01*
X181194915Y-87344053D01*
X180340000Y-87174000D01*
X179485085Y-87344053D01*
X178760323Y-87828323D01*
X178276053Y-88553085D01*
X178106000Y-89408000D01*
X178276053Y-90262915D01*
X178760323Y-90987677D01*
X179485085Y-91471947D01*
X180340000Y-91642000D01*
X181194915Y-91471947D01*
X181919677Y-90987677D01*
X182403947Y-90262915D01*
X182424000Y-90162102D01*
X182424000Y-119722905D01*
X179989691Y-122644076D01*
X179956865Y-122704394D01*
X179918711Y-122761496D01*
X179914633Y-122781996D01*
X179904642Y-122800355D01*
X179897397Y-122868650D01*
X179884000Y-122936000D01*
X179884000Y-124512000D01*
X160018584Y-124512000D01*
X160433092Y-124097492D01*
X160559731Y-123907963D01*
X160604200Y-123684400D01*
X160604200Y-123666464D01*
X160870000Y-123666464D01*
X161011190Y-123639897D01*
X161140865Y-123556454D01*
X161227859Y-123429134D01*
X161258464Y-123278000D01*
X161258464Y-121578000D01*
X161241567Y-121488200D01*
X163068000Y-121488200D01*
X163291564Y-121443730D01*
X163481092Y-121317092D01*
X164497092Y-120301092D01*
X164531523Y-120249562D01*
X164623730Y-120111564D01*
X164668200Y-119888000D01*
X164668200Y-112617822D01*
X164769800Y-112685709D01*
X164769800Y-121238564D01*
X164628917Y-121266587D01*
X164229552Y-121533435D01*
X163962704Y-121932800D01*
X163869000Y-122403883D01*
X163869000Y-122452117D01*
X163962704Y-122923200D01*
X164229552Y-123322565D01*
X164628917Y-123589413D01*
X165100000Y-123683117D01*
X165571083Y-123589413D01*
X165970448Y-123322565D01*
X166237296Y-122923200D01*
X166331000Y-122452117D01*
X166331000Y-122403883D01*
X166237296Y-121932800D01*
X165970448Y-121533435D01*
X165938200Y-121511888D01*
X165938200Y-112685709D01*
X166189093Y-112518067D01*
X166445102Y-112134923D01*
X166535000Y-111682974D01*
X166535000Y-110821026D01*
X166445102Y-110369077D01*
X166189093Y-109985933D01*
X165805949Y-109729924D01*
X165540887Y-109677200D01*
X167707113Y-109677200D01*
X167442051Y-109729924D01*
X167058907Y-109985933D01*
X166802898Y-110369077D01*
X166713000Y-110821026D01*
X166713000Y-111682974D01*
X166802898Y-112134923D01*
X167058907Y-112518067D01*
X167309800Y-112685709D01*
X167309800Y-121238564D01*
X167168917Y-121266587D01*
X166769552Y-121533435D01*
X166502704Y-121932800D01*
X166409000Y-122403883D01*
X166409000Y-122452117D01*
X166502704Y-122923200D01*
X166769552Y-123322565D01*
X167168917Y-123589413D01*
X167640000Y-123683117D01*
X168111083Y-123589413D01*
X168510448Y-123322565D01*
X168777296Y-122923200D01*
X168871000Y-122452117D01*
X168871000Y-122403883D01*
X168777296Y-121932800D01*
X168510448Y-121533435D01*
X168478200Y-121511888D01*
X168478200Y-112685709D01*
X168729093Y-112518067D01*
X168985102Y-112134923D01*
X169075000Y-111682974D01*
X169075000Y-110821026D01*
X168985102Y-110369077D01*
X168729093Y-109985933D01*
X168345949Y-109729924D01*
X168080887Y-109677200D01*
X170247113Y-109677200D01*
X169982051Y-109729924D01*
X169598907Y-109985933D01*
X169342898Y-110369077D01*
X169253000Y-110821026D01*
X169253000Y-111682974D01*
X169342898Y-112134923D01*
X169598907Y-112518067D01*
X169849800Y-112685709D01*
X169849800Y-121238564D01*
X169708917Y-121266587D01*
X169309552Y-121533435D01*
X169042704Y-121932800D01*
X168949000Y-122403883D01*
X168949000Y-122452117D01*
X169042704Y-122923200D01*
X169309552Y-123322565D01*
X169708917Y-123589413D01*
X170180000Y-123683117D01*
X170651083Y-123589413D01*
X171050448Y-123322565D01*
X171317296Y-122923200D01*
X171411000Y-122452117D01*
X171411000Y-122403883D01*
X171317296Y-121932800D01*
X171050448Y-121533435D01*
X171018200Y-121511888D01*
X171018200Y-112685709D01*
X171269093Y-112518067D01*
X171525102Y-112134923D01*
X171615000Y-111682974D01*
X171615000Y-110821026D01*
X171525102Y-110369077D01*
X171269093Y-109985933D01*
X170885949Y-109729924D01*
X170620887Y-109677200D01*
X172787113Y-109677200D01*
X172522051Y-109729924D01*
X172138907Y-109985933D01*
X171882898Y-110369077D01*
X171793000Y-110821026D01*
X171793000Y-111682974D01*
X171882898Y-112134923D01*
X172138907Y-112518067D01*
X172389800Y-112685709D01*
X172389800Y-121238564D01*
X172248917Y-121266587D01*
X171849552Y-121533435D01*
X171582704Y-121932800D01*
X171489000Y-122403883D01*
X171489000Y-122452117D01*
X171582704Y-122923200D01*
X171849552Y-123322565D01*
X172248917Y-123589413D01*
X172720000Y-123683117D01*
X173191083Y-123589413D01*
X173590448Y-123322565D01*
X173857296Y-122923200D01*
X173951000Y-122452117D01*
X173951000Y-122403883D01*
X173857296Y-121932800D01*
X173590448Y-121533435D01*
X173558200Y-121511888D01*
X173558200Y-112685709D01*
X173809093Y-112518067D01*
X174065102Y-112134923D01*
X174155000Y-111682974D01*
X174155000Y-110821026D01*
X174065102Y-110369077D01*
X173809093Y-109985933D01*
X173425949Y-109729924D01*
X173160887Y-109677200D01*
X175327113Y-109677200D01*
X175062051Y-109729924D01*
X174678907Y-109985933D01*
X174422898Y-110369077D01*
X174333000Y-110821026D01*
X174333000Y-111682974D01*
X174422898Y-112134923D01*
X174678907Y-112518067D01*
X174929800Y-112685709D01*
X174929800Y-121238564D01*
X174788917Y-121266587D01*
X174389552Y-121533435D01*
X174122704Y-121932800D01*
X174029000Y-122403883D01*
X174029000Y-122452117D01*
X174122704Y-122923200D01*
X174389552Y-123322565D01*
X174788917Y-123589413D01*
X175260000Y-123683117D01*
X175731083Y-123589413D01*
X176130448Y-123322565D01*
X176397296Y-122923200D01*
X176491000Y-122452117D01*
X176491000Y-122403883D01*
X176397296Y-121932800D01*
X176160226Y-121578000D01*
X176561536Y-121578000D01*
X176561536Y-123278000D01*
X176588103Y-123419190D01*
X176671546Y-123548865D01*
X176798866Y-123635859D01*
X176950000Y-123666464D01*
X178650000Y-123666464D01*
X178791190Y-123639897D01*
X178920865Y-123556454D01*
X179007859Y-123429134D01*
X179038464Y-123278000D01*
X179038464Y-121578000D01*
X179011897Y-121436810D01*
X178928454Y-121307135D01*
X178801134Y-121220141D01*
X178650000Y-121189536D01*
X178638200Y-121189536D01*
X178638200Y-118296502D01*
X178939929Y-118748071D01*
X179582287Y-119177281D01*
X180340000Y-119328000D01*
X181097713Y-119177281D01*
X181740071Y-118748071D01*
X182169281Y-118105713D01*
X182320000Y-117348000D01*
X182169281Y-116590287D01*
X181740071Y-115947929D01*
X181097713Y-115518719D01*
X180340000Y-115368000D01*
X179582287Y-115518719D01*
X178939929Y-115947929D01*
X178638200Y-116399498D01*
X178638200Y-112685709D01*
X178889093Y-112518067D01*
X179145102Y-112134923D01*
X179235000Y-111682974D01*
X179235000Y-110821026D01*
X179145102Y-110369077D01*
X178889093Y-109985933D01*
X178505949Y-109729924D01*
X178054000Y-109640026D01*
X177602051Y-109729924D01*
X177218907Y-109985933D01*
X176962898Y-110369077D01*
X176873000Y-110821026D01*
X176873000Y-111682974D01*
X176962898Y-112134923D01*
X177218907Y-112518067D01*
X177469800Y-112685709D01*
X177469800Y-121189536D01*
X176950000Y-121189536D01*
X176808810Y-121216103D01*
X176679135Y-121299546D01*
X176592141Y-121426866D01*
X176561536Y-121578000D01*
X176160226Y-121578000D01*
X176130448Y-121533435D01*
X176098200Y-121511888D01*
X176098200Y-112685709D01*
X176349093Y-112518067D01*
X176605102Y-112134923D01*
X176695000Y-111682974D01*
X176695000Y-110821026D01*
X176605102Y-110369077D01*
X176349093Y-109985933D01*
X175965949Y-109729924D01*
X175700887Y-109677200D01*
X177038000Y-109677200D01*
X177261564Y-109632730D01*
X177451092Y-109506092D01*
X178467092Y-108490092D01*
X178513364Y-108420841D01*
X178593730Y-108300564D01*
X178638200Y-108077000D01*
X178638200Y-105220464D01*
X178854000Y-105220464D01*
X178995190Y-105193897D01*
X179124865Y-105110454D01*
X179211859Y-104983134D01*
X179242464Y-104832000D01*
X179242464Y-102432000D01*
X179215897Y-102290810D01*
X179132454Y-102161135D01*
X179005134Y-102074141D01*
X178854000Y-102043536D01*
X177254000Y-102043536D01*
X177112810Y-102070103D01*
X176983135Y-102153546D01*
X176896141Y-102280866D01*
X176865536Y-102432000D01*
X176865536Y-104832000D01*
X176892103Y-104973190D01*
X176975546Y-105102865D01*
X177102866Y-105189859D01*
X177254000Y-105220464D01*
X177469800Y-105220464D01*
X177469800Y-107835016D01*
X176796016Y-108508800D01*
X164973000Y-108508800D01*
X164749436Y-108553270D01*
X164654461Y-108616730D01*
X164559908Y-108679908D01*
X163670908Y-109568908D01*
X163601736Y-109672431D01*
X163245819Y-109477633D01*
X163163039Y-109460096D01*
X162941000Y-109582085D01*
X162941000Y-111125000D01*
X162961000Y-111125000D01*
X162961000Y-111379000D01*
X162941000Y-111379000D01*
X162941000Y-112921915D01*
X163163039Y-113043904D01*
X163245819Y-113026367D01*
X163499800Y-112887360D01*
X163499800Y-119646016D01*
X162826016Y-120319800D01*
X154953384Y-120319800D01*
X158147092Y-117126092D01*
X158232192Y-116998730D01*
X158273730Y-116936564D01*
X158318200Y-116713000D01*
X158318200Y-112685709D01*
X158569093Y-112518067D01*
X158825102Y-112134923D01*
X158915000Y-111682974D01*
X158915000Y-110821026D01*
X159093000Y-110821026D01*
X159093000Y-111682974D01*
X159182898Y-112134923D01*
X159438907Y-112518067D01*
X159822051Y-112774076D01*
X160274000Y-112863974D01*
X160725949Y-112774076D01*
X161109093Y-112518067D01*
X161365102Y-112134923D01*
X161412871Y-111894772D01*
X161536834Y-112318483D01*
X161889104Y-112756500D01*
X162382181Y-113026367D01*
X162464961Y-113043904D01*
X162687000Y-112921915D01*
X162687000Y-111379000D01*
X162667000Y-111379000D01*
X162667000Y-111125000D01*
X162687000Y-111125000D01*
X162687000Y-109582085D01*
X162464961Y-109460096D01*
X162382181Y-109477633D01*
X161889104Y-109747500D01*
X161536834Y-110185517D01*
X161412871Y-110609228D01*
X161365102Y-110369077D01*
X161109093Y-109985933D01*
X160725949Y-109729924D01*
X160274000Y-109640026D01*
X159822051Y-109729924D01*
X159438907Y-109985933D01*
X159182898Y-110369077D01*
X159093000Y-110821026D01*
X158915000Y-110821026D01*
X158825102Y-110369077D01*
X158569093Y-109985933D01*
X158550005Y-109973179D01*
X163227092Y-105296092D01*
X163298074Y-105189859D01*
X163353730Y-105106564D01*
X163356286Y-105093715D01*
X163649093Y-104898067D01*
X163905102Y-104514923D01*
X163995000Y-104062974D01*
X163995000Y-103201026D01*
X164173000Y-103201026D01*
X164173000Y-104062974D01*
X164262898Y-104514923D01*
X164518907Y-104898067D01*
X164902051Y-105154076D01*
X165354000Y-105243974D01*
X165805949Y-105154076D01*
X166189093Y-104898067D01*
X166445102Y-104514923D01*
X166535000Y-104062974D01*
X166535000Y-103201026D01*
X166481271Y-102930913D01*
X167309800Y-102102384D01*
X167309800Y-102198291D01*
X167058907Y-102365933D01*
X166802898Y-102749077D01*
X166713000Y-103201026D01*
X166713000Y-104062974D01*
X166802898Y-104514923D01*
X167058907Y-104898067D01*
X167442051Y-105154076D01*
X167894000Y-105243974D01*
X168345949Y-105154076D01*
X168729093Y-104898067D01*
X168985102Y-104514923D01*
X169075000Y-104062974D01*
X169075000Y-103201026D01*
X168985102Y-102749077D01*
X168729093Y-102365933D01*
X168478200Y-102198291D01*
X168478200Y-102122864D01*
X169849800Y-100751264D01*
X169849800Y-102198291D01*
X169598907Y-102365933D01*
X169342898Y-102749077D01*
X169253000Y-103201026D01*
X169253000Y-104062974D01*
X169342898Y-104514923D01*
X169598907Y-104898067D01*
X169982051Y-105154076D01*
X170434000Y-105243974D01*
X170885949Y-105154076D01*
X171269093Y-104898067D01*
X171525102Y-104514923D01*
X171615000Y-104062974D01*
X171615000Y-103201026D01*
X171525102Y-102749077D01*
X171269093Y-102365933D01*
X171018200Y-102198291D01*
X171018200Y-100698984D01*
X172135800Y-99581383D01*
X172135800Y-101771600D01*
X172180270Y-101995164D01*
X172253288Y-102104443D01*
X172306908Y-102184692D01*
X172348262Y-102226046D01*
X172138907Y-102365933D01*
X171882898Y-102749077D01*
X171793000Y-103201026D01*
X171793000Y-104062974D01*
X171882898Y-104514923D01*
X172138907Y-104898067D01*
X172522051Y-105154076D01*
X172974000Y-105243974D01*
X173425949Y-105154076D01*
X173809093Y-104898067D01*
X174065102Y-104514923D01*
X174155000Y-104062974D01*
X174155000Y-103201026D01*
X174065102Y-102749077D01*
X173809093Y-102365933D01*
X173558200Y-102198291D01*
X173558200Y-102102384D01*
X174386729Y-102930913D01*
X174333000Y-103201026D01*
X174333000Y-104062974D01*
X174422898Y-104514923D01*
X174678907Y-104898067D01*
X175062051Y-105154076D01*
X175514000Y-105243974D01*
X175965949Y-105154076D01*
X176349093Y-104898067D01*
X176605102Y-104514923D01*
X176695000Y-104062974D01*
X176695000Y-103201026D01*
X176605102Y-102749077D01*
X176349093Y-102365933D01*
X175965949Y-102109924D01*
X175514000Y-102020026D01*
X175192217Y-102084033D01*
X174066200Y-100958016D01*
X174066200Y-100525985D01*
X174300051Y-100682239D01*
X174752000Y-100772137D01*
X175203949Y-100682239D01*
X175587093Y-100426230D01*
X175843102Y-100043086D01*
X175933000Y-99591137D01*
X175933000Y-99568000D01*
X177052883Y-99568000D01*
X177146587Y-100039083D01*
X177413435Y-100438448D01*
X177812800Y-100705296D01*
X178283883Y-100799000D01*
X178332117Y-100799000D01*
X178803200Y-100705296D01*
X179202565Y-100438448D01*
X179459788Y-100053488D01*
X179576355Y-100334924D01*
X179966642Y-100763183D01*
X180491108Y-101009486D01*
X180721000Y-100888819D01*
X180721000Y-99695000D01*
X180975000Y-99695000D01*
X180975000Y-100888819D01*
X181204892Y-101009486D01*
X181729358Y-100763183D01*
X182119645Y-100334924D01*
X182289476Y-99924890D01*
X182168155Y-99695000D01*
X180975000Y-99695000D01*
X180721000Y-99695000D01*
X180701000Y-99695000D01*
X180701000Y-99441000D01*
X180721000Y-99441000D01*
X180721000Y-99421000D01*
X180975000Y-99421000D01*
X180975000Y-99441000D01*
X182168155Y-99441000D01*
X182289476Y-99211110D01*
X182119645Y-98801076D01*
X181729358Y-98372817D01*
X181304053Y-98173083D01*
X181343200Y-98165296D01*
X181742565Y-97898448D01*
X182009413Y-97499083D01*
X182103117Y-97028000D01*
X182009413Y-96556917D01*
X181742565Y-96157552D01*
X181343200Y-95890704D01*
X180872117Y-95797000D01*
X180823883Y-95797000D01*
X180352800Y-95890704D01*
X179953435Y-96157552D01*
X179686587Y-96556917D01*
X179592883Y-97028000D01*
X179686587Y-97499083D01*
X179953435Y-97898448D01*
X180352800Y-98165296D01*
X180391947Y-98173083D01*
X179966642Y-98372817D01*
X179576355Y-98801076D01*
X179459788Y-99082512D01*
X179202565Y-98697552D01*
X178803200Y-98430704D01*
X178332117Y-98337000D01*
X178283883Y-98337000D01*
X177812800Y-98430704D01*
X177413435Y-98697552D01*
X177146587Y-99096917D01*
X177052883Y-99568000D01*
X175933000Y-99568000D01*
X175933000Y-99544863D01*
X175843102Y-99092914D01*
X175587093Y-98709770D01*
X175203949Y-98453761D01*
X174752000Y-98363863D01*
X174300051Y-98453761D01*
X174066200Y-98610015D01*
X174066200Y-97028000D01*
X177052883Y-97028000D01*
X177146587Y-97499083D01*
X177413435Y-97898448D01*
X177812800Y-98165296D01*
X178283883Y-98259000D01*
X178332117Y-98259000D01*
X178803200Y-98165296D01*
X179202565Y-97898448D01*
X179469413Y-97499083D01*
X179563117Y-97028000D01*
X179469413Y-96556917D01*
X179202565Y-96157552D01*
X178803200Y-95890704D01*
X178332117Y-95797000D01*
X178283883Y-95797000D01*
X177812800Y-95890704D01*
X177413435Y-96157552D01*
X177146587Y-96556917D01*
X177052883Y-97028000D01*
X174066200Y-97028000D01*
X174066200Y-93638000D01*
X177069536Y-93638000D01*
X177069536Y-95338000D01*
X177096103Y-95479190D01*
X177179546Y-95608865D01*
X177306866Y-95695859D01*
X177458000Y-95726464D01*
X179158000Y-95726464D01*
X179299190Y-95699897D01*
X179428865Y-95616454D01*
X179515859Y-95489134D01*
X179546464Y-95338000D01*
X179546464Y-94488000D01*
X179592883Y-94488000D01*
X179686587Y-94959083D01*
X179953435Y-95358448D01*
X180352800Y-95625296D01*
X180823883Y-95719000D01*
X180872117Y-95719000D01*
X181343200Y-95625296D01*
X181742565Y-95358448D01*
X182009413Y-94959083D01*
X182103117Y-94488000D01*
X182009413Y-94016917D01*
X181742565Y-93617552D01*
X181343200Y-93350704D01*
X180872117Y-93257000D01*
X180823883Y-93257000D01*
X180352800Y-93350704D01*
X179953435Y-93617552D01*
X179686587Y-94016917D01*
X179592883Y-94488000D01*
X179546464Y-94488000D01*
X179546464Y-93638000D01*
X179519897Y-93496810D01*
X179436454Y-93367135D01*
X179309134Y-93280141D01*
X179158000Y-93249536D01*
X177458000Y-93249536D01*
X177316810Y-93276103D01*
X177187135Y-93359546D01*
X177100141Y-93486866D01*
X177069536Y-93638000D01*
X174066200Y-93638000D01*
X174066200Y-92932647D01*
X174082144Y-92948619D01*
X174516054Y-93128794D01*
X174985885Y-93129204D01*
X175420109Y-92949787D01*
X175752619Y-92617856D01*
X175932794Y-92183946D01*
X175933204Y-91714115D01*
X175753787Y-91279891D01*
X175421856Y-90947381D01*
X174987946Y-90767206D01*
X174518115Y-90766796D01*
X174083891Y-90946213D01*
X174066200Y-90963873D01*
X174066200Y-78981984D01*
X177387720Y-75660464D01*
X178650000Y-75660464D01*
X178791190Y-75633897D01*
X178920865Y-75550454D01*
X179007859Y-75423134D01*
X179038464Y-75272000D01*
X179038464Y-73572000D01*
X179011897Y-73430810D01*
X178928454Y-73301135D01*
X178801134Y-73214141D01*
X178650000Y-73183536D01*
X176950000Y-73183536D01*
X176808810Y-73210103D01*
X176679135Y-73293546D01*
X176592141Y-73420866D01*
X176561536Y-73572000D01*
X176561536Y-74834280D01*
X176233543Y-75162273D01*
X176397296Y-74917200D01*
X176491000Y-74446117D01*
X176491000Y-74397883D01*
X176397296Y-73926800D01*
X176130448Y-73527435D01*
X175731083Y-73260587D01*
X175260000Y-73166883D01*
X174788917Y-73260587D01*
X174389552Y-73527435D01*
X174122704Y-73926800D01*
X174029000Y-74397883D01*
X174029000Y-74446117D01*
X174122704Y-74917200D01*
X174201576Y-75035240D01*
X173304200Y-75932616D01*
X173304200Y-75507830D01*
X173590448Y-75316565D01*
X173857296Y-74917200D01*
X173951000Y-74446117D01*
X173951000Y-74397883D01*
X173857296Y-73926800D01*
X173590448Y-73527435D01*
X173191083Y-73260587D01*
X172720000Y-73166883D01*
X172248917Y-73260587D01*
X171849552Y-73527435D01*
X171582704Y-73926800D01*
X171489000Y-74397883D01*
X171489000Y-74446117D01*
X171582704Y-74917200D01*
X171849552Y-75316565D01*
X172135800Y-75507830D01*
X172135800Y-75958016D01*
X171780200Y-76313616D01*
X171780200Y-75438000D01*
X171735730Y-75214436D01*
X171609092Y-75024908D01*
X171347838Y-74763654D01*
X171411000Y-74446117D01*
X171411000Y-74397883D01*
X171317296Y-73926800D01*
X171050448Y-73527435D01*
X170651083Y-73260587D01*
X170180000Y-73166883D01*
X169708917Y-73260587D01*
X169309552Y-73527435D01*
X169042704Y-73926800D01*
X168949000Y-74397883D01*
X168949000Y-74446117D01*
X169042704Y-74917200D01*
X169206457Y-75162273D01*
X168807838Y-74763654D01*
X168871000Y-74446117D01*
X168871000Y-74397883D01*
X168777296Y-73926800D01*
X168510448Y-73527435D01*
X168111083Y-73260587D01*
X167640000Y-73166883D01*
X167168917Y-73260587D01*
X166769552Y-73527435D01*
X166502704Y-73926800D01*
X166409000Y-74397883D01*
X166409000Y-74446117D01*
X166502704Y-74917200D01*
X166769552Y-75316565D01*
X167168917Y-75583413D01*
X167640000Y-75677117D01*
X167997769Y-75605953D01*
X169976800Y-77584984D01*
X169976800Y-97783016D01*
X165675783Y-102084033D01*
X165354000Y-102020026D01*
X164902051Y-102109924D01*
X164518907Y-102365933D01*
X164262898Y-102749077D01*
X164173000Y-103201026D01*
X163995000Y-103201026D01*
X163905102Y-102749077D01*
X163649093Y-102365933D01*
X163398200Y-102198291D01*
X163398200Y-102095984D01*
X164526206Y-100967978D01*
X164610054Y-101002794D01*
X165079885Y-101003204D01*
X165514109Y-100823787D01*
X165846619Y-100491856D01*
X166026794Y-100057946D01*
X166027204Y-99588115D01*
X165847787Y-99153891D01*
X165515856Y-98821381D01*
X165261879Y-98715921D01*
X165600005Y-98575864D01*
X165674139Y-98329745D01*
X164846000Y-97501605D01*
X164017861Y-98329745D01*
X164091995Y-98575864D01*
X164454187Y-98706050D01*
X164177891Y-98820213D01*
X163845381Y-99152144D01*
X163665206Y-99586054D01*
X163664796Y-100055885D01*
X163700214Y-100141602D01*
X162400908Y-101440908D01*
X162274270Y-101630436D01*
X162229800Y-101854000D01*
X162229800Y-102198291D01*
X162128200Y-102266178D01*
X162128200Y-97105223D01*
X163399035Y-97105223D01*
X163426222Y-97675454D01*
X163592136Y-98076005D01*
X163838255Y-98150139D01*
X164666395Y-97322000D01*
X165025605Y-97322000D01*
X165853745Y-98150139D01*
X166099864Y-98076005D01*
X166292965Y-97538777D01*
X166265778Y-96968546D01*
X166099864Y-96567995D01*
X165853745Y-96493861D01*
X165025605Y-97322000D01*
X164666395Y-97322000D01*
X163838255Y-96493861D01*
X163592136Y-96567995D01*
X163399035Y-97105223D01*
X162128200Y-97105223D01*
X162128200Y-96314255D01*
X164017861Y-96314255D01*
X164846000Y-97142395D01*
X165674139Y-96314255D01*
X165600005Y-96068136D01*
X165062777Y-95875035D01*
X164492546Y-95902222D01*
X164091995Y-96068136D01*
X164017861Y-96314255D01*
X162128200Y-96314255D01*
X162128200Y-88519000D01*
X162083730Y-88295436D01*
X161957092Y-88105908D01*
X160464873Y-86613689D01*
X161278778Y-86613689D01*
X161473388Y-87084680D01*
X161833425Y-87445345D01*
X162304076Y-87640777D01*
X162813689Y-87641222D01*
X163284680Y-87446612D01*
X163565000Y-87166780D01*
X163565000Y-87386310D01*
X163661673Y-87619699D01*
X163840302Y-87798327D01*
X164073691Y-87895000D01*
X164814250Y-87895000D01*
X164973000Y-87736250D01*
X164973000Y-86487000D01*
X165227000Y-86487000D01*
X165227000Y-87736250D01*
X165385750Y-87895000D01*
X166126309Y-87895000D01*
X166359698Y-87798327D01*
X166538327Y-87619699D01*
X166635000Y-87386310D01*
X166635000Y-86645750D01*
X166476250Y-86487000D01*
X165227000Y-86487000D01*
X164973000Y-86487000D01*
X164953000Y-86487000D01*
X164953000Y-86233000D01*
X164973000Y-86233000D01*
X164973000Y-84983750D01*
X165227000Y-84983750D01*
X165227000Y-86233000D01*
X166476250Y-86233000D01*
X166635000Y-86074250D01*
X166635000Y-85333690D01*
X166538327Y-85100301D01*
X166359698Y-84921673D01*
X166126309Y-84825000D01*
X165385750Y-84825000D01*
X165227000Y-84983750D01*
X164973000Y-84983750D01*
X164814250Y-84825000D01*
X164073691Y-84825000D01*
X163840302Y-84921673D01*
X163661673Y-85100301D01*
X163565000Y-85333690D01*
X163565000Y-85553566D01*
X163286575Y-85274655D01*
X162815924Y-85079223D01*
X162306311Y-85078778D01*
X161835320Y-85273388D01*
X161474655Y-85633425D01*
X161279223Y-86104076D01*
X161278778Y-86613689D01*
X160464873Y-86613689D01*
X159798092Y-85946908D01*
X159739938Y-85908051D01*
X159608564Y-85820270D01*
X159385000Y-85775800D01*
X157997872Y-85775800D01*
X157830230Y-85524907D01*
X157447086Y-85268898D01*
X156995137Y-85179000D01*
X156948863Y-85179000D01*
X156496914Y-85268898D01*
X156113770Y-85524907D01*
X155857761Y-85908051D01*
X155767863Y-86360000D01*
X155857761Y-86811949D01*
X156113770Y-87195093D01*
X156496914Y-87451102D01*
X156948863Y-87541000D01*
X156995137Y-87541000D01*
X157447086Y-87451102D01*
X157830230Y-87195093D01*
X157997872Y-86944200D01*
X159143016Y-86944200D01*
X160959800Y-88760984D01*
X160959800Y-101996640D01*
X160705819Y-101857633D01*
X160623039Y-101840096D01*
X160401000Y-101962085D01*
X160401000Y-103505000D01*
X160421000Y-103505000D01*
X160421000Y-103759000D01*
X160401000Y-103759000D01*
X160401000Y-103779000D01*
X160147000Y-103779000D01*
X160147000Y-103759000D01*
X160127000Y-103759000D01*
X160127000Y-103505000D01*
X160147000Y-103505000D01*
X160147000Y-101962085D01*
X159924961Y-101840096D01*
X159842181Y-101857633D01*
X159349104Y-102127500D01*
X158996834Y-102565517D01*
X158872871Y-102989228D01*
X158825102Y-102749077D01*
X158569093Y-102365933D01*
X158318200Y-102198291D01*
X158318200Y-100063984D01*
X158722460Y-99659724D01*
X158778043Y-99682804D01*
X159227983Y-99683196D01*
X159643823Y-99511375D01*
X159962256Y-99193497D01*
X160134804Y-98777957D01*
X160135196Y-98328017D01*
X159963375Y-97912177D01*
X159645497Y-97593744D01*
X159588200Y-97569952D01*
X159588200Y-95025992D01*
X159750619Y-94863856D01*
X159930794Y-94429946D01*
X159931204Y-93960115D01*
X159751787Y-93525891D01*
X159419856Y-93193381D01*
X159165879Y-93087921D01*
X159504005Y-92947864D01*
X159578139Y-92701745D01*
X158750000Y-91873605D01*
X157921861Y-92701745D01*
X157995995Y-92947864D01*
X158358187Y-93078050D01*
X158081891Y-93192213D01*
X157749381Y-93524144D01*
X157569206Y-93958054D01*
X157568796Y-94427885D01*
X157748213Y-94862109D01*
X158080144Y-95194619D01*
X158419800Y-95335656D01*
X158419800Y-97569642D01*
X158364177Y-97592625D01*
X158045744Y-97910503D01*
X157873196Y-98326043D01*
X157872804Y-98775983D01*
X157896495Y-98833321D01*
X157320908Y-99408908D01*
X157194270Y-99598436D01*
X157149800Y-99822000D01*
X157149800Y-102198291D01*
X156898907Y-102365933D01*
X156642898Y-102749077D01*
X156553000Y-103201026D01*
X156553000Y-104062974D01*
X156642898Y-104514923D01*
X156898907Y-104898067D01*
X157282051Y-105154076D01*
X157734000Y-105243974D01*
X158185949Y-105154076D01*
X158569093Y-104898067D01*
X158825102Y-104514923D01*
X158872871Y-104274772D01*
X158996834Y-104698483D01*
X159349104Y-105136500D01*
X159823612Y-105396204D01*
X155515783Y-109704033D01*
X155194000Y-109640026D01*
X154742051Y-109729924D01*
X154358907Y-109985933D01*
X154102898Y-110369077D01*
X154013000Y-110821026D01*
X154013000Y-111682974D01*
X154102898Y-112134923D01*
X154358907Y-112518067D01*
X154742051Y-112774076D01*
X155194000Y-112863974D01*
X155645949Y-112774076D01*
X156029093Y-112518067D01*
X156285102Y-112134923D01*
X156375000Y-111682974D01*
X156375000Y-110821026D01*
X156321271Y-110550913D01*
X157318153Y-109554031D01*
X157194270Y-109739436D01*
X157182997Y-109796110D01*
X156898907Y-109985933D01*
X156642898Y-110369077D01*
X156553000Y-110821026D01*
X156553000Y-111682974D01*
X156642898Y-112134923D01*
X156898907Y-112518067D01*
X157149800Y-112685709D01*
X157149800Y-116471016D01*
X152439980Y-121180836D01*
X152400000Y-121172883D01*
X152042231Y-121244047D01*
X151289092Y-120490908D01*
X151194539Y-120427730D01*
X151099564Y-120364270D01*
X150876000Y-120319800D01*
X146304000Y-120319800D01*
X146080436Y-120364270D01*
X145890908Y-120490908D01*
X145890906Y-120490911D01*
X145137769Y-121244048D01*
X144780000Y-121172883D01*
X144308917Y-121266587D01*
X143909552Y-121533435D01*
X143642704Y-121932800D01*
X143549000Y-122403883D01*
X143549000Y-122452117D01*
X143612162Y-122769654D01*
X143281615Y-123100201D01*
X143259027Y-123100201D01*
X143377296Y-122923200D01*
X143471000Y-122452117D01*
X143471000Y-122403883D01*
X143377296Y-121932800D01*
X143110448Y-121533435D01*
X142711083Y-121266587D01*
X142240000Y-121172883D01*
X141768917Y-121266587D01*
X141369552Y-121533435D01*
X141102704Y-121932800D01*
X141009000Y-122403883D01*
X141009000Y-122452117D01*
X141102704Y-122923200D01*
X141220973Y-123100201D01*
X139436238Y-123100201D01*
X139565005Y-123046864D01*
X139639139Y-122800745D01*
X138811000Y-121972605D01*
X138796858Y-121986748D01*
X138617252Y-121807142D01*
X138631395Y-121793000D01*
X138990605Y-121793000D01*
X139818745Y-122621139D01*
X140064864Y-122547005D01*
X140257965Y-122009777D01*
X140230778Y-121439546D01*
X140064864Y-121038995D01*
X139818745Y-120964861D01*
X138990605Y-121793000D01*
X138631395Y-121793000D01*
X137803255Y-120964861D01*
X137726649Y-120987936D01*
X137733201Y-120954999D01*
X137733201Y-120785255D01*
X137982861Y-120785255D01*
X138811000Y-121613395D01*
X139639139Y-120785255D01*
X139565005Y-120539136D01*
X139027777Y-120346035D01*
X138457546Y-120373222D01*
X138056995Y-120539136D01*
X137982861Y-120785255D01*
X137733201Y-120785255D01*
X137733201Y-120349176D01*
X138023904Y-120407000D01*
X138074096Y-120407000D01*
X138564313Y-120309490D01*
X138979900Y-120031804D01*
X139257586Y-119616217D01*
X139355096Y-119126000D01*
X139257586Y-118635783D01*
X138979900Y-118220196D01*
X138633200Y-117988539D01*
X138633200Y-115951000D01*
X138588730Y-115727436D01*
X138462092Y-115537908D01*
X134398092Y-111473908D01*
X134208564Y-111347270D01*
X133985000Y-111302800D01*
X119748984Y-111302800D01*
X119267210Y-110821026D01*
X143853000Y-110821026D01*
X143853000Y-111682974D01*
X143942898Y-112134923D01*
X144198907Y-112518067D01*
X144582051Y-112774076D01*
X145034000Y-112863974D01*
X145485949Y-112774076D01*
X145869093Y-112518067D01*
X146125102Y-112134923D01*
X146215000Y-111682974D01*
X146215000Y-110821026D01*
X146393000Y-110821026D01*
X146393000Y-111682974D01*
X146482898Y-112134923D01*
X146738907Y-112518067D01*
X147122051Y-112774076D01*
X147574000Y-112863974D01*
X148025949Y-112774076D01*
X148409093Y-112518067D01*
X148665102Y-112134923D01*
X148755000Y-111682974D01*
X148755000Y-110821026D01*
X148933000Y-110821026D01*
X148933000Y-111682974D01*
X149022898Y-112134923D01*
X149278907Y-112518067D01*
X149662051Y-112774076D01*
X150114000Y-112863974D01*
X150565949Y-112774076D01*
X150949093Y-112518067D01*
X151205102Y-112134923D01*
X151295000Y-111682974D01*
X151295000Y-110821026D01*
X151473000Y-110821026D01*
X151473000Y-111682974D01*
X151562898Y-112134923D01*
X151818907Y-112518067D01*
X152202051Y-112774076D01*
X152654000Y-112863974D01*
X153105949Y-112774076D01*
X153489093Y-112518067D01*
X153745102Y-112134923D01*
X153835000Y-111682974D01*
X153835000Y-110821026D01*
X153745102Y-110369077D01*
X153489093Y-109985933D01*
X153105949Y-109729924D01*
X152654000Y-109640026D01*
X152202051Y-109729924D01*
X151818907Y-109985933D01*
X151562898Y-110369077D01*
X151473000Y-110821026D01*
X151295000Y-110821026D01*
X151205102Y-110369077D01*
X150949093Y-109985933D01*
X150565949Y-109729924D01*
X150114000Y-109640026D01*
X149662051Y-109729924D01*
X149278907Y-109985933D01*
X149022898Y-110369077D01*
X148933000Y-110821026D01*
X148755000Y-110821026D01*
X148665102Y-110369077D01*
X148409093Y-109985933D01*
X148025949Y-109729924D01*
X147574000Y-109640026D01*
X147122051Y-109729924D01*
X146738907Y-109985933D01*
X146482898Y-110369077D01*
X146393000Y-110821026D01*
X146215000Y-110821026D01*
X146125102Y-110369077D01*
X145869093Y-109985933D01*
X145485949Y-109729924D01*
X145034000Y-109640026D01*
X144582051Y-109729924D01*
X144198907Y-109985933D01*
X143942898Y-110369077D01*
X143853000Y-110821026D01*
X119267210Y-110821026D01*
X118803301Y-110357117D01*
X118884190Y-110341897D01*
X119013865Y-110258454D01*
X119054649Y-110198764D01*
X119723841Y-110198764D01*
X119793059Y-110440742D01*
X120315780Y-110627155D01*
X120870049Y-110599341D01*
X121252941Y-110440742D01*
X121322159Y-110198764D01*
X120523000Y-109399605D01*
X119723841Y-110198764D01*
X119054649Y-110198764D01*
X119100859Y-110131134D01*
X119131464Y-109980000D01*
X119131464Y-109324031D01*
X119143659Y-109567049D01*
X119302258Y-109949941D01*
X119544236Y-110019159D01*
X120343395Y-109220000D01*
X120702605Y-109220000D01*
X121501764Y-110019159D01*
X121743742Y-109949941D01*
X121922698Y-109448131D01*
X122095143Y-109865480D01*
X122415831Y-110186729D01*
X122835045Y-110360802D01*
X123288963Y-110361198D01*
X123708480Y-110187857D01*
X124029729Y-109867169D01*
X124201339Y-109453885D01*
X124929796Y-109453885D01*
X125109213Y-109888109D01*
X125441144Y-110220619D01*
X125875054Y-110400794D01*
X126344885Y-110401204D01*
X126764689Y-110227745D01*
X127782861Y-110227745D01*
X127856995Y-110473864D01*
X128394223Y-110666965D01*
X128964454Y-110639778D01*
X129365005Y-110473864D01*
X129439139Y-110227745D01*
X128611000Y-109399605D01*
X127782861Y-110227745D01*
X126764689Y-110227745D01*
X126779109Y-110221787D01*
X127111619Y-109889856D01*
X127217079Y-109635879D01*
X127357136Y-109974005D01*
X127603255Y-110048139D01*
X128431395Y-109220000D01*
X128790605Y-109220000D01*
X129618745Y-110048139D01*
X129864864Y-109974005D01*
X130057965Y-109436777D01*
X130030778Y-108866546D01*
X129864864Y-108465995D01*
X129618745Y-108391861D01*
X128790605Y-109220000D01*
X128431395Y-109220000D01*
X127603255Y-108391861D01*
X127357136Y-108465995D01*
X127226950Y-108828187D01*
X127112787Y-108551891D01*
X126780856Y-108219381D01*
X126763695Y-108212255D01*
X127782861Y-108212255D01*
X128611000Y-109040395D01*
X129439139Y-108212255D01*
X129365005Y-107966136D01*
X128827777Y-107773035D01*
X128257546Y-107800222D01*
X127856995Y-107966136D01*
X127782861Y-108212255D01*
X126763695Y-108212255D01*
X126346946Y-108039206D01*
X125877115Y-108038796D01*
X125442891Y-108218213D01*
X125110381Y-108550144D01*
X124930206Y-108984054D01*
X124929796Y-109453885D01*
X124201339Y-109453885D01*
X124203802Y-109447955D01*
X124204198Y-108994037D01*
X124030857Y-108574520D01*
X123710169Y-108253271D01*
X123290955Y-108079198D01*
X122837037Y-108078802D01*
X122417520Y-108252143D01*
X122096271Y-108572831D01*
X121922198Y-108992045D01*
X121921961Y-109263929D01*
X121902341Y-108872951D01*
X121743742Y-108490059D01*
X121501764Y-108420841D01*
X120702605Y-109220000D01*
X120343395Y-109220000D01*
X119544236Y-108420841D01*
X119302258Y-108490059D01*
X119131464Y-108968983D01*
X119131464Y-108460000D01*
X119104897Y-108318810D01*
X119054980Y-108241236D01*
X119723841Y-108241236D01*
X120523000Y-109040395D01*
X121322159Y-108241236D01*
X121252941Y-107999258D01*
X120730220Y-107812845D01*
X120175951Y-107840659D01*
X119793059Y-107999258D01*
X119723841Y-108241236D01*
X119054980Y-108241236D01*
X119021454Y-108189135D01*
X118894134Y-108102141D01*
X118743000Y-108071536D01*
X118567200Y-108071536D01*
X118567200Y-107302984D01*
X120002984Y-105867200D01*
X121793000Y-105867200D01*
X122016564Y-105822730D01*
X122206092Y-105696092D01*
X124111092Y-103791092D01*
X124142381Y-103744264D01*
X124237730Y-103601564D01*
X124282200Y-103378000D01*
X124282200Y-93205984D01*
X124487959Y-93000225D01*
X124816617Y-93065600D01*
X124865383Y-93065600D01*
X125341671Y-92970860D01*
X125745448Y-92701065D01*
X125882400Y-92496102D01*
X125882400Y-92810910D01*
X125979073Y-93044299D01*
X126157702Y-93222927D01*
X126391091Y-93319600D01*
X127095250Y-93319600D01*
X127254000Y-93160850D01*
X127254000Y-91948000D01*
X127508000Y-91948000D01*
X127508000Y-93160850D01*
X127666750Y-93319600D01*
X128370909Y-93319600D01*
X128604298Y-93222927D01*
X128782927Y-93044299D01*
X128879600Y-92810910D01*
X128879600Y-92106750D01*
X128720850Y-91948000D01*
X127508000Y-91948000D01*
X127254000Y-91948000D01*
X127234000Y-91948000D01*
X127234000Y-91694000D01*
X127254000Y-91694000D01*
X127254000Y-89408000D01*
X127508000Y-89408000D01*
X127508000Y-91694000D01*
X128720850Y-91694000D01*
X128879600Y-91535250D01*
X128879600Y-90831090D01*
X128782927Y-90597701D01*
X128604298Y-90419073D01*
X128406880Y-90337300D01*
X128663688Y-90055947D01*
X128835958Y-89640026D01*
X128714817Y-89408000D01*
X127508000Y-89408000D01*
X127254000Y-89408000D01*
X124968000Y-89408000D01*
X124968000Y-89428000D01*
X124714000Y-89428000D01*
X124714000Y-89408000D01*
X123507183Y-89408000D01*
X123386042Y-89640026D01*
X123558312Y-90055947D01*
X123952510Y-90487821D01*
X124342662Y-90670676D01*
X124340329Y-90671140D01*
X123936552Y-90940935D01*
X123666757Y-91344712D01*
X123572017Y-91821000D01*
X123645482Y-92190334D01*
X123284908Y-92550908D01*
X123158270Y-92740436D01*
X123113800Y-92964000D01*
X123113800Y-103136016D01*
X122322712Y-103927104D01*
X122238534Y-103842926D01*
X122505387Y-103744264D01*
X122731908Y-103134539D01*
X122707856Y-102484540D01*
X122505387Y-101995736D01*
X122238532Y-101897073D01*
X121265605Y-102870000D01*
X121279748Y-102884143D01*
X121100143Y-103063748D01*
X121086000Y-103049605D01*
X120113073Y-104022532D01*
X120211736Y-104289387D01*
X120821461Y-104515908D01*
X121471460Y-104491856D01*
X121960264Y-104289387D01*
X122058926Y-104022534D01*
X122143104Y-104106712D01*
X121551016Y-104698800D01*
X119761005Y-104698800D01*
X119761000Y-104698799D01*
X119537437Y-104743269D01*
X119347908Y-104869908D01*
X117569908Y-106647908D01*
X117443270Y-106837436D01*
X117398800Y-107061000D01*
X117398800Y-108071536D01*
X117223000Y-108071536D01*
X117081810Y-108098103D01*
X116952135Y-108181546D01*
X116865141Y-108308866D01*
X116834536Y-108460000D01*
X116834536Y-109980000D01*
X116861103Y-110121190D01*
X116944546Y-110250865D01*
X117071866Y-110337859D01*
X117223000Y-110368464D01*
X117398800Y-110368464D01*
X117398800Y-110386400D01*
X117443270Y-110609964D01*
X117569908Y-110799492D01*
X117800508Y-111030092D01*
X117871028Y-111077212D01*
X119093908Y-112300092D01*
X119283436Y-112426730D01*
X119507000Y-112471200D01*
X133743016Y-112471200D01*
X137464800Y-116192984D01*
X137464800Y-117988539D01*
X137118100Y-118220196D01*
X136906870Y-118536324D01*
X136821240Y-118329583D01*
X136416576Y-117888034D01*
X135873742Y-117634954D01*
X135636000Y-117755003D01*
X135636000Y-118999000D01*
X135656000Y-118999000D01*
X135656000Y-119253000D01*
X135636000Y-119253000D01*
X135636000Y-120496997D01*
X135873742Y-120617046D01*
X136416576Y-120363966D01*
X136564801Y-120202230D01*
X136564801Y-120619620D01*
X136546946Y-120612206D01*
X136077115Y-120611796D01*
X135642891Y-120791213D01*
X135310381Y-121123144D01*
X135191430Y-121409610D01*
X135073787Y-121124891D01*
X134741856Y-120792381D01*
X134307946Y-120612206D01*
X133838115Y-120611796D01*
X133752397Y-120647214D01*
X133553200Y-120448016D01*
X133553200Y-120414464D01*
X133869000Y-120414464D01*
X134010190Y-120387897D01*
X134139865Y-120304454D01*
X134226859Y-120177134D01*
X134257464Y-120026000D01*
X134257464Y-119988654D01*
X134601424Y-120363966D01*
X135144258Y-120617046D01*
X135382000Y-120496997D01*
X135382000Y-119253000D01*
X135362000Y-119253000D01*
X135362000Y-118999000D01*
X135382000Y-118999000D01*
X135382000Y-117755003D01*
X135144258Y-117634954D01*
X134601424Y-117888034D01*
X134257464Y-118263346D01*
X134257464Y-118226000D01*
X134230897Y-118084810D01*
X134147454Y-117955135D01*
X134020134Y-117868141D01*
X133869000Y-117837536D01*
X133553200Y-117837536D01*
X133553200Y-117819600D01*
X133508730Y-117596036D01*
X133382092Y-117406508D01*
X132021492Y-116045908D01*
X131831964Y-115919270D01*
X131608400Y-115874800D01*
X128026464Y-115874800D01*
X128026464Y-114709000D01*
X127999897Y-114567810D01*
X127916454Y-114438135D01*
X127789134Y-114351141D01*
X127638000Y-114320536D01*
X124138000Y-114320536D01*
X123996810Y-114347103D01*
X123867135Y-114430546D01*
X123780141Y-114557866D01*
X123749536Y-114709000D01*
X123749536Y-118209000D01*
X123776103Y-118350190D01*
X123859546Y-118479865D01*
X123986866Y-118566859D01*
X124138000Y-118597464D01*
X127638000Y-118597464D01*
X127779190Y-118570897D01*
X127908865Y-118487454D01*
X127995859Y-118360134D01*
X128026464Y-118209000D01*
X128026464Y-117043200D01*
X131366416Y-117043200D01*
X132160752Y-117837536D01*
X132069000Y-117837536D01*
X131927810Y-117864103D01*
X131798135Y-117947546D01*
X131711141Y-118074866D01*
X131680536Y-118226000D01*
X131680536Y-120026000D01*
X131707103Y-120167190D01*
X131790546Y-120296865D01*
X131917866Y-120383859D01*
X132069000Y-120414464D01*
X132384800Y-120414464D01*
X132384800Y-120690000D01*
X132403149Y-120782243D01*
X132400139Y-120785253D01*
X132326005Y-120539136D01*
X131788777Y-120346035D01*
X131218546Y-120373222D01*
X130817995Y-120539136D01*
X130743861Y-120785255D01*
X131572000Y-121613395D01*
X131586142Y-121599252D01*
X131765748Y-121778858D01*
X131751605Y-121793000D01*
X132579745Y-122621139D01*
X132825864Y-122547005D01*
X132956050Y-122184813D01*
X133070213Y-122461109D01*
X133402144Y-122793619D01*
X133836054Y-122973794D01*
X134305885Y-122974204D01*
X134391603Y-122938786D01*
X135964817Y-124512000D01*
X114756000Y-124512000D01*
X114756000Y-119409000D01*
X120749536Y-119409000D01*
X120749536Y-122909000D01*
X120776103Y-123050190D01*
X120859546Y-123179865D01*
X120986866Y-123266859D01*
X121138000Y-123297464D01*
X124638000Y-123297464D01*
X124779190Y-123270897D01*
X124908865Y-123187454D01*
X124995859Y-123060134D01*
X125026464Y-122909000D01*
X125026464Y-122428000D01*
X126290000Y-122428000D01*
X126440719Y-123185713D01*
X126869929Y-123828071D01*
X127512287Y-124257281D01*
X128270000Y-124408000D01*
X129027713Y-124257281D01*
X129670071Y-123828071D01*
X130099281Y-123185713D01*
X130175856Y-122800745D01*
X130743861Y-122800745D01*
X130817995Y-123046864D01*
X131355223Y-123239965D01*
X131925454Y-123212778D01*
X132326005Y-123046864D01*
X132400139Y-122800745D01*
X131572000Y-121972605D01*
X130743861Y-122800745D01*
X130175856Y-122800745D01*
X130250000Y-122428000D01*
X130232592Y-122340484D01*
X130318136Y-122547005D01*
X130564255Y-122621139D01*
X131392395Y-121793000D01*
X130564255Y-120964861D01*
X130318136Y-121038995D01*
X130125035Y-121576223D01*
X130139052Y-121870231D01*
X130099281Y-121670287D01*
X129670071Y-121027929D01*
X129027713Y-120598719D01*
X128270000Y-120448000D01*
X127512287Y-120598719D01*
X126869929Y-121027929D01*
X126440719Y-121670287D01*
X126290000Y-122428000D01*
X125026464Y-122428000D01*
X125026464Y-119409000D01*
X124999897Y-119267810D01*
X124916454Y-119138135D01*
X124789134Y-119051141D01*
X124638000Y-119020536D01*
X121138000Y-119020536D01*
X120996810Y-119047103D01*
X120867135Y-119130546D01*
X120780141Y-119257866D01*
X120749536Y-119409000D01*
X114756000Y-119409000D01*
X114756000Y-116744750D01*
X117503000Y-116744750D01*
X117503000Y-118335310D01*
X117599673Y-118568699D01*
X117778302Y-118747327D01*
X118011691Y-118844000D01*
X119602250Y-118844000D01*
X119761000Y-118685250D01*
X119761000Y-116586000D01*
X120015000Y-116586000D01*
X120015000Y-118685250D01*
X120173750Y-118844000D01*
X121764309Y-118844000D01*
X121997698Y-118747327D01*
X122176327Y-118568699D01*
X122273000Y-118335310D01*
X122273000Y-116744750D01*
X122114250Y-116586000D01*
X120015000Y-116586000D01*
X119761000Y-116586000D01*
X117661750Y-116586000D01*
X117503000Y-116744750D01*
X114756000Y-116744750D01*
X114756000Y-114582690D01*
X117503000Y-114582690D01*
X117503000Y-116173250D01*
X117661750Y-116332000D01*
X119761000Y-116332000D01*
X119761000Y-114232750D01*
X120015000Y-114232750D01*
X120015000Y-116332000D01*
X122114250Y-116332000D01*
X122273000Y-116173250D01*
X122273000Y-114582690D01*
X122176327Y-114349301D01*
X121997698Y-114170673D01*
X121764309Y-114074000D01*
X120173750Y-114074000D01*
X120015000Y-114232750D01*
X119761000Y-114232750D01*
X119602250Y-114074000D01*
X118011691Y-114074000D01*
X117778302Y-114170673D01*
X117599673Y-114349301D01*
X117503000Y-114582690D01*
X114756000Y-114582690D01*
X114756000Y-103143493D01*
X115204761Y-103143493D01*
X115414563Y-103651251D01*
X115802705Y-104040072D01*
X116310097Y-104250759D01*
X116859493Y-104251239D01*
X117367251Y-104041437D01*
X117756072Y-103653295D01*
X117966759Y-103145903D01*
X117967231Y-102605461D01*
X119440092Y-102605461D01*
X119464144Y-103255460D01*
X119666613Y-103744264D01*
X119933468Y-103842927D01*
X120906395Y-102870000D01*
X119933468Y-101897073D01*
X119666613Y-101995736D01*
X119440092Y-102605461D01*
X117967231Y-102605461D01*
X117967239Y-102596507D01*
X117757437Y-102088749D01*
X117386805Y-101717468D01*
X120113073Y-101717468D01*
X121086000Y-102690395D01*
X122058927Y-101717468D01*
X121960264Y-101450613D01*
X121350539Y-101224092D01*
X120700540Y-101248144D01*
X120211736Y-101450613D01*
X120113073Y-101717468D01*
X117386805Y-101717468D01*
X117369295Y-101699928D01*
X116861903Y-101489241D01*
X116312507Y-101488761D01*
X115804749Y-101698563D01*
X115415928Y-102086705D01*
X115205241Y-102594097D01*
X115204761Y-103143493D01*
X114756000Y-103143493D01*
X114756000Y-96643493D01*
X115204761Y-96643493D01*
X115414563Y-97151251D01*
X115802705Y-97540072D01*
X116310097Y-97750759D01*
X116859493Y-97751239D01*
X117367251Y-97541437D01*
X117386189Y-97522532D01*
X120113073Y-97522532D01*
X120211736Y-97789387D01*
X120821461Y-98015908D01*
X121471460Y-97991856D01*
X121960264Y-97789387D01*
X122058927Y-97522532D01*
X121086000Y-96549605D01*
X120113073Y-97522532D01*
X117386189Y-97522532D01*
X117756072Y-97153295D01*
X117966759Y-96645903D01*
X117967231Y-96105461D01*
X119440092Y-96105461D01*
X119464144Y-96755460D01*
X119666613Y-97244264D01*
X119933468Y-97342927D01*
X120906395Y-96370000D01*
X121265605Y-96370000D01*
X122238532Y-97342927D01*
X122505387Y-97244264D01*
X122731908Y-96634539D01*
X122707856Y-95984540D01*
X122505387Y-95495736D01*
X122238532Y-95397073D01*
X121265605Y-96370000D01*
X120906395Y-96370000D01*
X119933468Y-95397073D01*
X119666613Y-95495736D01*
X119440092Y-96105461D01*
X117967231Y-96105461D01*
X117967239Y-96096507D01*
X117757437Y-95588749D01*
X117386805Y-95217468D01*
X120113073Y-95217468D01*
X121086000Y-96190395D01*
X122058927Y-95217468D01*
X121960264Y-94950613D01*
X121350539Y-94724092D01*
X120700540Y-94748144D01*
X120211736Y-94950613D01*
X120113073Y-95217468D01*
X117386805Y-95217468D01*
X117369295Y-95199928D01*
X116861903Y-94989241D01*
X116312507Y-94988761D01*
X115804749Y-95198563D01*
X115415928Y-95586705D01*
X115205241Y-96094097D01*
X115204761Y-96643493D01*
X114756000Y-96643493D01*
X114756000Y-88921974D01*
X123386042Y-88921974D01*
X123507183Y-89154000D01*
X124714000Y-89154000D01*
X124714000Y-89134000D01*
X124968000Y-89134000D01*
X124968000Y-89154000D01*
X127254000Y-89154000D01*
X127254000Y-89134000D01*
X127508000Y-89134000D01*
X127508000Y-89154000D01*
X128714817Y-89154000D01*
X128835958Y-88921974D01*
X128663688Y-88506053D01*
X128269490Y-88074179D01*
X127879338Y-87891324D01*
X127881671Y-87890860D01*
X128285448Y-87621065D01*
X128555243Y-87217288D01*
X128649983Y-86741000D01*
X128555243Y-86264712D01*
X128285448Y-85860935D01*
X127881671Y-85591140D01*
X127405383Y-85496400D01*
X127356617Y-85496400D01*
X126880329Y-85591140D01*
X126476552Y-85860935D01*
X126206757Y-86264712D01*
X126112017Y-86741000D01*
X126206757Y-87217288D01*
X126476552Y-87621065D01*
X126880329Y-87890860D01*
X126882662Y-87891324D01*
X126492510Y-88074179D01*
X126111000Y-88492152D01*
X125729490Y-88074179D01*
X125339338Y-87891324D01*
X125341671Y-87890860D01*
X125745448Y-87621065D01*
X126015243Y-87217288D01*
X126109983Y-86741000D01*
X126015243Y-86264712D01*
X125745448Y-85860935D01*
X125341671Y-85591140D01*
X124865383Y-85496400D01*
X124816617Y-85496400D01*
X124340329Y-85591140D01*
X123936552Y-85860935D01*
X123666757Y-86264712D01*
X123572017Y-86741000D01*
X123666757Y-87217288D01*
X123936552Y-87621065D01*
X124340329Y-87890860D01*
X124342662Y-87891324D01*
X123952510Y-88074179D01*
X123558312Y-88506053D01*
X123386042Y-88921974D01*
X114756000Y-88921974D01*
X114756000Y-84201000D01*
X123572017Y-84201000D01*
X123666757Y-84677288D01*
X123936552Y-85081065D01*
X124340329Y-85350860D01*
X124816617Y-85445600D01*
X124865383Y-85445600D01*
X125341671Y-85350860D01*
X125745448Y-85081065D01*
X126015243Y-84677288D01*
X126109983Y-84201000D01*
X126015243Y-83724712D01*
X125745448Y-83320935D01*
X125341671Y-83051140D01*
X124865383Y-82956400D01*
X124816617Y-82956400D01*
X124340329Y-83051140D01*
X123936552Y-83320935D01*
X123666757Y-83724712D01*
X123572017Y-84201000D01*
X114756000Y-84201000D01*
X114756000Y-81661000D01*
X123572017Y-81661000D01*
X123666757Y-82137288D01*
X123936552Y-82541065D01*
X124340329Y-82810860D01*
X124816617Y-82905600D01*
X124865383Y-82905600D01*
X125341671Y-82810860D01*
X125745448Y-82541065D01*
X126015243Y-82137288D01*
X126109983Y-81661000D01*
X126112017Y-81661000D01*
X126206757Y-82137288D01*
X126476552Y-82541065D01*
X126880329Y-82810860D01*
X127356617Y-82905600D01*
X127405383Y-82905600D01*
X127881671Y-82810860D01*
X128285448Y-82541065D01*
X128483139Y-82245200D01*
X136779000Y-82245200D01*
X137002564Y-82200730D01*
X137192092Y-82074092D01*
X138925984Y-80340200D01*
X148326128Y-80340200D01*
X148493770Y-80591093D01*
X148876914Y-80847102D01*
X149328863Y-80937000D01*
X149375137Y-80937000D01*
X149827086Y-80847102D01*
X150037800Y-80706307D01*
X150037800Y-82107693D01*
X149827086Y-81966898D01*
X149375137Y-81877000D01*
X149328863Y-81877000D01*
X148876914Y-81966898D01*
X148493770Y-82222907D01*
X148326128Y-82473800D01*
X138557000Y-82473800D01*
X138333436Y-82518270D01*
X138202062Y-82606051D01*
X138143908Y-82644908D01*
X137172016Y-83616800D01*
X128483139Y-83616800D01*
X128285448Y-83320935D01*
X127881671Y-83051140D01*
X127405383Y-82956400D01*
X127356617Y-82956400D01*
X126880329Y-83051140D01*
X126476552Y-83320935D01*
X126206757Y-83724712D01*
X126112017Y-84201000D01*
X126206757Y-84677288D01*
X126476552Y-85081065D01*
X126880329Y-85350860D01*
X127356617Y-85445600D01*
X127405383Y-85445600D01*
X127881671Y-85350860D01*
X128285448Y-85081065D01*
X128483139Y-84785200D01*
X137414000Y-84785200D01*
X137637564Y-84740730D01*
X137827092Y-84614092D01*
X138798984Y-83642200D01*
X148326128Y-83642200D01*
X148493770Y-83893093D01*
X148876914Y-84149102D01*
X149328863Y-84239000D01*
X149375137Y-84239000D01*
X149827086Y-84149102D01*
X150037800Y-84008307D01*
X150037800Y-85375353D01*
X150021856Y-85359381D01*
X149587946Y-85179206D01*
X149118115Y-85178796D01*
X148683891Y-85358213D01*
X148351381Y-85690144D01*
X148171206Y-86124054D01*
X148170796Y-86593885D01*
X148350213Y-87028109D01*
X148682144Y-87360619D01*
X149116054Y-87540794D01*
X149585885Y-87541204D01*
X150020109Y-87361787D01*
X150037800Y-87344127D01*
X150037800Y-97402016D01*
X145355783Y-102084033D01*
X145034000Y-102020026D01*
X144582051Y-102109924D01*
X144198907Y-102365933D01*
X143942898Y-102749077D01*
X143853000Y-103201026D01*
X143853000Y-104062974D01*
X143942898Y-104514923D01*
X144198907Y-104898067D01*
X144582051Y-105154076D01*
X145034000Y-105243974D01*
X145485949Y-105154076D01*
X145869093Y-104898067D01*
X146125102Y-104514923D01*
X146215000Y-104062974D01*
X146215000Y-103201026D01*
X146161271Y-102930913D01*
X150850579Y-98241605D01*
X150850579Y-99129237D01*
X147895783Y-102084033D01*
X147574000Y-102020026D01*
X147122051Y-102109924D01*
X146738907Y-102365933D01*
X146482898Y-102749077D01*
X146393000Y-103201026D01*
X146393000Y-104062974D01*
X146482898Y-104514923D01*
X146738907Y-104898067D01*
X147122051Y-105154076D01*
X147574000Y-105243974D01*
X148025949Y-105154076D01*
X148409093Y-104898067D01*
X148665102Y-104514923D01*
X148755000Y-104062974D01*
X148755000Y-103201026D01*
X148701271Y-102930913D01*
X151460189Y-100171995D01*
X151460189Y-101059627D01*
X150435783Y-102084033D01*
X150114000Y-102020026D01*
X149662051Y-102109924D01*
X149278907Y-102365933D01*
X149022898Y-102749077D01*
X148933000Y-103201026D01*
X148933000Y-104062974D01*
X149022898Y-104514923D01*
X149278907Y-104898067D01*
X149662051Y-105154076D01*
X150114000Y-105243974D01*
X150565949Y-105154076D01*
X150949093Y-104898067D01*
X151205102Y-104514923D01*
X151295000Y-104062974D01*
X151295000Y-103201026D01*
X151241271Y-102930913D01*
X152196800Y-101975384D01*
X152196800Y-102113433D01*
X151818907Y-102365933D01*
X151562898Y-102749077D01*
X151473000Y-103201026D01*
X151473000Y-104062974D01*
X151562898Y-104514923D01*
X151818907Y-104898067D01*
X152202051Y-105154076D01*
X152654000Y-105243974D01*
X153105949Y-105154076D01*
X153489093Y-104898067D01*
X153745102Y-104514923D01*
X153835000Y-104062974D01*
X153835000Y-103201026D01*
X153745102Y-102749077D01*
X153489093Y-102365933D01*
X153365200Y-102283150D01*
X153365200Y-99392748D01*
X153482503Y-99510256D01*
X153898043Y-99682804D01*
X154347983Y-99683196D01*
X154443533Y-99643716D01*
X154609800Y-99809983D01*
X154609800Y-102198291D01*
X154358907Y-102365933D01*
X154102898Y-102749077D01*
X154013000Y-103201026D01*
X154013000Y-104062974D01*
X154102898Y-104514923D01*
X154358907Y-104898067D01*
X154742051Y-105154076D01*
X155194000Y-105243974D01*
X155645949Y-105154076D01*
X156029093Y-104898067D01*
X156285102Y-104514923D01*
X156375000Y-104062974D01*
X156375000Y-103201026D01*
X156285102Y-102749077D01*
X156029093Y-102365933D01*
X155778200Y-102198291D01*
X155778200Y-99568005D01*
X155778201Y-99568000D01*
X155733731Y-99344437D01*
X155662478Y-99237800D01*
X155607092Y-99154908D01*
X155607089Y-99154906D01*
X155247568Y-98795384D01*
X155254804Y-98777957D01*
X155255196Y-98328017D01*
X155083375Y-97912177D01*
X154765497Y-97593744D01*
X154708200Y-97569952D01*
X154708200Y-95359245D01*
X154973109Y-95249787D01*
X155305619Y-94917856D01*
X155485794Y-94483946D01*
X155486204Y-94014115D01*
X155306787Y-93579891D01*
X154974856Y-93247381D01*
X154720879Y-93141921D01*
X155059005Y-93001864D01*
X155133139Y-92755745D01*
X154305000Y-91927605D01*
X154290858Y-91941748D01*
X154111252Y-91762142D01*
X154125395Y-91748000D01*
X154484605Y-91748000D01*
X155312745Y-92576139D01*
X155558864Y-92502005D01*
X155751965Y-91964777D01*
X155728720Y-91477223D01*
X157303035Y-91477223D01*
X157330222Y-92047454D01*
X157496136Y-92448005D01*
X157742255Y-92522139D01*
X158570395Y-91694000D01*
X158929605Y-91694000D01*
X159757745Y-92522139D01*
X160003864Y-92448005D01*
X160196965Y-91910777D01*
X160169778Y-91340546D01*
X160003864Y-90939995D01*
X159757745Y-90865861D01*
X158929605Y-91694000D01*
X158570395Y-91694000D01*
X157742255Y-90865861D01*
X157496136Y-90939995D01*
X157303035Y-91477223D01*
X155728720Y-91477223D01*
X155724778Y-91394546D01*
X155558864Y-90993995D01*
X155312745Y-90919861D01*
X154484605Y-91748000D01*
X154125395Y-91748000D01*
X154111252Y-91733858D01*
X154290858Y-91554252D01*
X154305000Y-91568395D01*
X155133139Y-90740255D01*
X155116874Y-90686255D01*
X157921861Y-90686255D01*
X158750000Y-91514395D01*
X159578139Y-90686255D01*
X159504005Y-90440136D01*
X158966777Y-90247035D01*
X158396546Y-90274222D01*
X157995995Y-90440136D01*
X157921861Y-90686255D01*
X155116874Y-90686255D01*
X155059005Y-90494136D01*
X154521777Y-90301035D01*
X153951546Y-90328222D01*
X153550995Y-90494136D01*
X153476861Y-90740253D01*
X153365200Y-90628592D01*
X153365200Y-83291885D01*
X155790796Y-83291885D01*
X155970213Y-83726109D01*
X156302144Y-84058619D01*
X156736054Y-84238794D01*
X157205885Y-84239204D01*
X157640109Y-84059787D01*
X157972619Y-83727856D01*
X158152794Y-83293946D01*
X158153204Y-82824115D01*
X157973787Y-82389891D01*
X157641856Y-82057381D01*
X157207946Y-81877206D01*
X156738115Y-81876796D01*
X156303891Y-82056213D01*
X155971381Y-82388144D01*
X155791206Y-82822054D01*
X155790796Y-83291885D01*
X153365200Y-83291885D01*
X153365200Y-81648984D01*
X156197984Y-78816200D01*
X156241796Y-78816200D01*
X155971381Y-79086144D01*
X155791206Y-79520054D01*
X155790796Y-79989885D01*
X155970213Y-80424109D01*
X156302144Y-80756619D01*
X156736054Y-80936794D01*
X157205885Y-80937204D01*
X157640109Y-80757787D01*
X157972619Y-80425856D01*
X158152794Y-79991946D01*
X158153204Y-79522115D01*
X157973787Y-79087891D01*
X157702569Y-78816200D01*
X161290000Y-78816200D01*
X161513564Y-78771730D01*
X161703092Y-78645092D01*
X164742231Y-75605953D01*
X165100000Y-75677117D01*
X165571083Y-75583413D01*
X165970448Y-75316565D01*
X166237296Y-74917200D01*
X166331000Y-74446117D01*
X166331000Y-74397883D01*
X166237296Y-73926800D01*
X165970448Y-73527435D01*
X165571083Y-73260587D01*
X165100000Y-73166883D01*
X164628917Y-73260587D01*
X164229552Y-73527435D01*
X163962704Y-73926800D01*
X163869000Y-74397883D01*
X163869000Y-74446117D01*
X163932162Y-74763654D01*
X163533543Y-75162273D01*
X163697296Y-74917200D01*
X163791000Y-74446117D01*
X163791000Y-74397883D01*
X163697296Y-73926800D01*
X163430448Y-73527435D01*
X163031083Y-73260587D01*
X162560000Y-73166883D01*
X162088917Y-73260587D01*
X161689552Y-73527435D01*
X161422704Y-73926800D01*
X161329000Y-74397883D01*
X161329000Y-74446117D01*
X161392162Y-74763654D01*
X160993543Y-75162273D01*
X161157296Y-74917200D01*
X161251000Y-74446117D01*
X161251000Y-74397883D01*
X161157296Y-73926800D01*
X160890448Y-73527435D01*
X160491083Y-73260587D01*
X160020000Y-73166883D01*
X159548917Y-73260587D01*
X159149552Y-73527435D01*
X158882704Y-73926800D01*
X158789000Y-74397883D01*
X158789000Y-74446117D01*
X158852162Y-74763654D01*
X157492016Y-76123800D01*
X155334384Y-76123800D01*
X155810090Y-75648094D01*
X155956000Y-75677117D01*
X156427083Y-75583413D01*
X156826448Y-75316565D01*
X157093296Y-74917200D01*
X157187000Y-74446117D01*
X157187000Y-74397883D01*
X157093296Y-73926800D01*
X156826448Y-73527435D01*
X156427083Y-73260587D01*
X155956000Y-73166883D01*
X155484917Y-73260587D01*
X155085552Y-73527435D01*
X154818704Y-73926800D01*
X154725000Y-74397883D01*
X154725000Y-74446117D01*
X154818704Y-74917200D01*
X154846707Y-74959109D01*
X150472133Y-79333683D01*
X150466239Y-79304051D01*
X150210230Y-78920907D01*
X149827086Y-78664898D01*
X149375137Y-78575000D01*
X149328863Y-78575000D01*
X148876914Y-78664898D01*
X148493770Y-78920907D01*
X148326128Y-79171800D01*
X138684000Y-79171800D01*
X138460436Y-79216270D01*
X138365461Y-79279730D01*
X138270908Y-79342908D01*
X136537016Y-81076800D01*
X128483139Y-81076800D01*
X128285448Y-80780935D01*
X127881671Y-80511140D01*
X127405383Y-80416400D01*
X127356617Y-80416400D01*
X126880329Y-80511140D01*
X126476552Y-80780935D01*
X126206757Y-81184712D01*
X126112017Y-81661000D01*
X126109983Y-81661000D01*
X126015243Y-81184712D01*
X125745448Y-80780935D01*
X125341671Y-80511140D01*
X124865383Y-80416400D01*
X124816617Y-80416400D01*
X124340329Y-80511140D01*
X123936552Y-80780935D01*
X123666757Y-81184712D01*
X123572017Y-81661000D01*
X114756000Y-81661000D01*
X114756000Y-79121000D01*
X123572017Y-79121000D01*
X123666757Y-79597288D01*
X123936552Y-80001065D01*
X124340329Y-80270860D01*
X124816617Y-80365600D01*
X124865383Y-80365600D01*
X125341671Y-80270860D01*
X125745448Y-80001065D01*
X126015243Y-79597288D01*
X126109983Y-79121000D01*
X126112017Y-79121000D01*
X126206757Y-79597288D01*
X126476552Y-80001065D01*
X126880329Y-80270860D01*
X127356617Y-80365600D01*
X127405383Y-80365600D01*
X127881671Y-80270860D01*
X128285448Y-80001065D01*
X128555243Y-79597288D01*
X128649983Y-79121000D01*
X128555243Y-78644712D01*
X128285448Y-78240935D01*
X127881671Y-77971140D01*
X127405383Y-77876400D01*
X127356617Y-77876400D01*
X126880329Y-77971140D01*
X126476552Y-78240935D01*
X126206757Y-78644712D01*
X126112017Y-79121000D01*
X126109983Y-79121000D01*
X126015243Y-78644712D01*
X125745448Y-78240935D01*
X125341671Y-77971140D01*
X124865383Y-77876400D01*
X124816617Y-77876400D01*
X124340329Y-77971140D01*
X123936552Y-78240935D01*
X123666757Y-78644712D01*
X123572017Y-79121000D01*
X114756000Y-79121000D01*
X114756000Y-74655885D01*
X121794796Y-74655885D01*
X121974213Y-75090109D01*
X122306144Y-75422619D01*
X122740054Y-75602794D01*
X123209885Y-75603204D01*
X123644109Y-75423787D01*
X123976619Y-75091856D01*
X124156794Y-74657946D01*
X124156795Y-74655885D01*
X124294796Y-74655885D01*
X124474213Y-75090109D01*
X124806144Y-75422619D01*
X125240054Y-75602794D01*
X125709885Y-75603204D01*
X126144109Y-75423787D01*
X126476619Y-75091856D01*
X126656794Y-74657946D01*
X126656999Y-74422000D01*
X127306000Y-74422000D01*
X127456719Y-75179713D01*
X127885929Y-75822071D01*
X128528287Y-76251281D01*
X129286000Y-76402000D01*
X130043713Y-76251281D01*
X130686071Y-75822071D01*
X131115281Y-75179713D01*
X131266000Y-74422000D01*
X131115281Y-73664287D01*
X131053617Y-73572000D01*
X131857536Y-73572000D01*
X131857536Y-75272000D01*
X131884103Y-75413190D01*
X131967546Y-75542865D01*
X132094866Y-75629859D01*
X132246000Y-75660464D01*
X133946000Y-75660464D01*
X134087190Y-75633897D01*
X134216865Y-75550454D01*
X134303859Y-75423134D01*
X134334464Y-75272000D01*
X134334464Y-74397883D01*
X134405000Y-74397883D01*
X134405000Y-74446117D01*
X134498704Y-74917200D01*
X134765552Y-75316565D01*
X135164917Y-75583413D01*
X135636000Y-75677117D01*
X136107083Y-75583413D01*
X136506448Y-75316565D01*
X136773296Y-74917200D01*
X136867000Y-74446117D01*
X136867000Y-74397883D01*
X136945000Y-74397883D01*
X136945000Y-74446117D01*
X137038704Y-74917200D01*
X137305552Y-75316565D01*
X137704917Y-75583413D01*
X138176000Y-75677117D01*
X138647083Y-75583413D01*
X139046448Y-75316565D01*
X139313296Y-74917200D01*
X139321083Y-74878053D01*
X139520817Y-75303358D01*
X139949076Y-75693645D01*
X140359110Y-75863476D01*
X140589000Y-75742155D01*
X140589000Y-74549000D01*
X140569000Y-74549000D01*
X140569000Y-74295000D01*
X140589000Y-74295000D01*
X140589000Y-73101845D01*
X140843000Y-73101845D01*
X140843000Y-74295000D01*
X140863000Y-74295000D01*
X140863000Y-74549000D01*
X140843000Y-74549000D01*
X140843000Y-75742155D01*
X141072890Y-75863476D01*
X141482924Y-75693645D01*
X141911183Y-75303358D01*
X142110917Y-74878053D01*
X142118704Y-74917200D01*
X142385552Y-75316565D01*
X142784917Y-75583413D01*
X143256000Y-75677117D01*
X143727083Y-75583413D01*
X144126448Y-75316565D01*
X144393296Y-74917200D01*
X144487000Y-74446117D01*
X144487000Y-74397883D01*
X144565000Y-74397883D01*
X144565000Y-74446117D01*
X144658704Y-74917200D01*
X144925552Y-75316565D01*
X145324917Y-75583413D01*
X145796000Y-75677117D01*
X146267083Y-75583413D01*
X146666448Y-75316565D01*
X146933296Y-74917200D01*
X147027000Y-74446117D01*
X147027000Y-74397883D01*
X147105000Y-74397883D01*
X147105000Y-74446117D01*
X147198704Y-74917200D01*
X147465552Y-75316565D01*
X147864917Y-75583413D01*
X148336000Y-75677117D01*
X148807083Y-75583413D01*
X149206448Y-75316565D01*
X149473296Y-74917200D01*
X149567000Y-74446117D01*
X149567000Y-74397883D01*
X149645000Y-74397883D01*
X149645000Y-74446117D01*
X149738704Y-74917200D01*
X150005552Y-75316565D01*
X150404917Y-75583413D01*
X150876000Y-75677117D01*
X151347083Y-75583413D01*
X151746448Y-75316565D01*
X152013296Y-74917200D01*
X152107000Y-74446117D01*
X152107000Y-74397883D01*
X152185000Y-74397883D01*
X152185000Y-74446117D01*
X152278704Y-74917200D01*
X152545552Y-75316565D01*
X152944917Y-75583413D01*
X153416000Y-75677117D01*
X153887083Y-75583413D01*
X154286448Y-75316565D01*
X154553296Y-74917200D01*
X154647000Y-74446117D01*
X154647000Y-74397883D01*
X154553296Y-73926800D01*
X154286448Y-73527435D01*
X153887083Y-73260587D01*
X153416000Y-73166883D01*
X152944917Y-73260587D01*
X152545552Y-73527435D01*
X152278704Y-73926800D01*
X152185000Y-74397883D01*
X152107000Y-74397883D01*
X152013296Y-73926800D01*
X151746448Y-73527435D01*
X151347083Y-73260587D01*
X150876000Y-73166883D01*
X150404917Y-73260587D01*
X150005552Y-73527435D01*
X149738704Y-73926800D01*
X149645000Y-74397883D01*
X149567000Y-74397883D01*
X149473296Y-73926800D01*
X149206448Y-73527435D01*
X148807083Y-73260587D01*
X148336000Y-73166883D01*
X147864917Y-73260587D01*
X147465552Y-73527435D01*
X147198704Y-73926800D01*
X147105000Y-74397883D01*
X147027000Y-74397883D01*
X146933296Y-73926800D01*
X146666448Y-73527435D01*
X146267083Y-73260587D01*
X145796000Y-73166883D01*
X145324917Y-73260587D01*
X144925552Y-73527435D01*
X144658704Y-73926800D01*
X144565000Y-74397883D01*
X144487000Y-74397883D01*
X144393296Y-73926800D01*
X144126448Y-73527435D01*
X143727083Y-73260587D01*
X143256000Y-73166883D01*
X142784917Y-73260587D01*
X142385552Y-73527435D01*
X142118704Y-73926800D01*
X142110917Y-73965947D01*
X141911183Y-73540642D01*
X141482924Y-73150355D01*
X141072890Y-72980524D01*
X140843000Y-73101845D01*
X140589000Y-73101845D01*
X140359110Y-72980524D01*
X139949076Y-73150355D01*
X139520817Y-73540642D01*
X139321083Y-73965947D01*
X139313296Y-73926800D01*
X139046448Y-73527435D01*
X138647083Y-73260587D01*
X138176000Y-73166883D01*
X137704917Y-73260587D01*
X137305552Y-73527435D01*
X137038704Y-73926800D01*
X136945000Y-74397883D01*
X136867000Y-74397883D01*
X136773296Y-73926800D01*
X136506448Y-73527435D01*
X136107083Y-73260587D01*
X135636000Y-73166883D01*
X135164917Y-73260587D01*
X134765552Y-73527435D01*
X134498704Y-73926800D01*
X134405000Y-74397883D01*
X134334464Y-74397883D01*
X134334464Y-73572000D01*
X134307897Y-73430810D01*
X134224454Y-73301135D01*
X134097134Y-73214141D01*
X133946000Y-73183536D01*
X132246000Y-73183536D01*
X132104810Y-73210103D01*
X131975135Y-73293546D01*
X131888141Y-73420866D01*
X131857536Y-73572000D01*
X131053617Y-73572000D01*
X130686071Y-73021929D01*
X130043713Y-72592719D01*
X129286000Y-72442000D01*
X128528287Y-72592719D01*
X127885929Y-73021929D01*
X127456719Y-73664287D01*
X127306000Y-74422000D01*
X126656999Y-74422000D01*
X126657204Y-74188115D01*
X126477787Y-73753891D01*
X126145856Y-73421381D01*
X125711946Y-73241206D01*
X125242115Y-73240796D01*
X124807891Y-73420213D01*
X124475381Y-73752144D01*
X124295206Y-74186054D01*
X124294796Y-74655885D01*
X124156795Y-74655885D01*
X124157204Y-74188115D01*
X123977787Y-73753891D01*
X123645856Y-73421381D01*
X123211946Y-73241206D01*
X122742115Y-73240796D01*
X122307891Y-73420213D01*
X121975381Y-73752144D01*
X121795206Y-74186054D01*
X121794796Y-74655885D01*
X114756000Y-74655885D01*
X114756000Y-72338000D01*
X179389118Y-72338000D01*
X179884000Y-72832882D01*
G36*
X155067000Y-122301000D02*
X157353000Y-122301000D01*
X157353000Y-122281000D01*
X157607000Y-122281000D01*
X157607000Y-122301000D01*
X157627000Y-122301000D01*
X157627000Y-122555000D01*
X157607000Y-122555000D01*
X157607000Y-122575000D01*
X157353000Y-122575000D01*
X157353000Y-122555000D01*
X155067000Y-122555000D01*
X155067000Y-122575000D01*
X154813000Y-122575000D01*
X154813000Y-122555000D01*
X154793000Y-122555000D01*
X154793000Y-122301000D01*
X154813000Y-122301000D01*
X154813000Y-122281000D01*
X155067000Y-122281000D01*
X155067000Y-122301000D01*
X155067000Y-122301000D01*
G37*
X155067000Y-122301000D02*
X157353000Y-122301000D01*
X157353000Y-122281000D01*
X157607000Y-122281000D01*
X157607000Y-122301000D01*
X157627000Y-122301000D01*
X157627000Y-122555000D01*
X157607000Y-122555000D01*
X157607000Y-122575000D01*
X157353000Y-122575000D01*
X157353000Y-122555000D01*
X155067000Y-122555000D01*
X155067000Y-122575000D01*
X154813000Y-122575000D01*
X154813000Y-122555000D01*
X154793000Y-122555000D01*
X154793000Y-122301000D01*
X154813000Y-122301000D01*
X154813000Y-122281000D01*
X155067000Y-122281000D01*
X155067000Y-122301000D01*
M02*
