M48
;DRILL file {KiCad 4.0.5+dfsg1-4} date Sun Mar 15 11:09:52 2020
;FORMAT={-:-/ absolute / inch / decimal}
FMAT,2
INCH,TZ
T1C0.031
T2C0.035
T3C0.039
T4C0.040
T5C0.043
%
G90
G05
M72
T1
X4.645Y-4.3
X4.745Y-4.3
X4.8416Y-2.93
X4.845Y-4.3
X4.94Y-2.93
X4.965Y-4.3
X5.0634Y-4.3
X5.18Y-4.795
X5.2784Y-4.795
X5.3666Y-4.795
X5.465Y-4.795
X5.71Y-4.08
X5.71Y-4.38
X5.81Y-4.08
X5.81Y-4.38
X5.88Y-3.14
X5.88Y-3.27
X5.88Y-3.4
X5.91Y-4.08
X5.91Y-4.38
X6.01Y-4.08
X6.01Y-4.38
X6.0679Y-3.88
X6.075Y-3.6121
X6.075Y-3.7106
X6.11Y-4.08
X6.11Y-4.38
X6.18Y-3.14
X6.18Y-3.27
X6.18Y-3.4
X6.21Y-4.08
X6.21Y-4.38
X6.25Y-3.61
X6.25Y-3.7084
X6.26Y-3.88
X6.31Y-4.08
X6.31Y-4.38
X6.41Y-4.08
X6.41Y-4.38
X6.49Y-3.8316
X6.49Y-3.93
X6.51Y-4.08
X6.51Y-4.38
X6.61Y-4.08
X6.61Y-4.38
X6.71Y-4.08
X6.71Y-4.38
X6.81Y-4.08
X6.81Y-4.38
X6.88Y-3.62
X6.88Y-3.92
X6.91Y-4.08
X6.91Y-4.38
X7.01Y-4.08
X7.01Y-4.38
T2
X6.4Y-3.4
X6.5Y-3.4
T3
X5.235Y-4.69
X5.24Y-2.93
X5.335Y-4.69
X5.34Y-2.93
X5.435Y-4.69
X5.44Y-2.93
X5.54Y-2.93
X5.6Y-4.82
X5.64Y-2.93
X5.7Y-4.82
X5.74Y-2.93
X5.8Y-4.82
X5.84Y-2.93
X5.9Y-4.82
X5.94Y-2.93
X6.Y-4.82
X6.04Y-2.93
X6.1Y-4.82
X6.14Y-2.93
X6.2Y-4.82
X6.3Y-2.93
X6.3Y-4.82
X6.4Y-2.93
X6.5Y-2.93
X6.5Y-4.82
X6.6Y-2.93
X6.6Y-4.82
X6.7Y-2.93
X6.7Y-4.82
X6.8Y-2.93
X6.8Y-4.82
X6.9Y-2.93
X6.9Y-4.82
X7.Y-2.93
X7.Y-4.82
X7.02Y-3.72
X7.02Y-3.82
X7.02Y-3.92
X7.12Y-3.72
X7.12Y-3.82
X7.12Y-3.92
T4
X4.915Y-3.115
X4.915Y-3.215
X4.915Y-3.315
X4.915Y-3.415
X4.915Y-3.515
X4.915Y-3.615
X5.015Y-3.115
X5.015Y-3.215
X5.015Y-3.315
X5.015Y-3.415
X5.015Y-3.515
X5.015Y-3.615
T5
X4.59Y-3.7941
X4.59Y-4.05
X4.7672Y-3.7941
X4.7672Y-4.05
T3
X4.72Y-4.5456G85X4.72Y-4.6244
G05
X4.7987Y-4.77G85X4.8775Y-4.77
G05
X4.9562Y-4.5456G85X4.9562Y-4.6244
G05
T0
M30
