G04 #@! TF.FileFunction,Copper,L2,Bot,Signal*
%FSLAX46Y46*%
G04 Gerber Fmt 4.6, Leading zero omitted, Abs format (unit mm)*
G04 Created by KiCad (PCBNEW 4.0.5+dfsg1-4) date Fri Nov  2 19:26:51 2018*
%MOMM*%
%LPD*%
G01*
G04 APERTURE LIST*
%ADD10C,0.100000*%
%ADD11C,0.150000*%
%ADD12C,0.600000*%
%ADD13R,1.727200X1.727200*%
%ADD14O,1.727200X1.727200*%
%ADD15R,1.700000X1.700000*%
%ADD16O,1.700000X1.700000*%
%ADD17C,0.304800*%
%ADD18C,0.254000*%
G04 APERTURE END LIST*
D10*
D11*
X134913429Y-123328357D02*
X134949143Y-123364071D01*
X135056286Y-123399786D01*
X135127715Y-123399786D01*
X135234858Y-123364071D01*
X135306286Y-123292643D01*
X135342001Y-123221214D01*
X135377715Y-123078357D01*
X135377715Y-122971214D01*
X135342001Y-122828357D01*
X135306286Y-122756929D01*
X135234858Y-122685500D01*
X135127715Y-122649786D01*
X135056286Y-122649786D01*
X134949143Y-122685500D01*
X134913429Y-122721214D01*
X134592001Y-123399786D02*
X134592001Y-122649786D01*
X134413429Y-122649786D01*
X134306286Y-122685500D01*
X134234858Y-122756929D01*
X134199143Y-122828357D01*
X134163429Y-122971214D01*
X134163429Y-123078357D01*
X134199143Y-123221214D01*
X134234858Y-123292643D01*
X134306286Y-123364071D01*
X134413429Y-123399786D01*
X134592001Y-123399786D01*
X133842001Y-123399786D02*
X133842001Y-122649786D01*
X133592001Y-123185500D01*
X133342001Y-122649786D01*
X133342001Y-123399786D01*
X131984857Y-123399786D02*
X132234857Y-123042643D01*
X132413429Y-123399786D02*
X132413429Y-122649786D01*
X132127714Y-122649786D01*
X132056286Y-122685500D01*
X132020571Y-122721214D01*
X131984857Y-122792643D01*
X131984857Y-122899786D01*
X132020571Y-122971214D01*
X132056286Y-123006929D01*
X132127714Y-123042643D01*
X132413429Y-123042643D01*
X131663429Y-123328357D02*
X131627714Y-123364071D01*
X131663429Y-123399786D01*
X131699143Y-123364071D01*
X131663429Y-123328357D01*
X131663429Y-123399786D01*
X131663429Y-122935500D02*
X131627714Y-122971214D01*
X131663429Y-123006929D01*
X131699143Y-122971214D01*
X131663429Y-122935500D01*
X131663429Y-123006929D01*
X130484857Y-123006929D02*
X130377714Y-123042643D01*
X130341999Y-123078357D01*
X130306285Y-123149786D01*
X130306285Y-123256929D01*
X130341999Y-123328357D01*
X130377714Y-123364071D01*
X130449142Y-123399786D01*
X130734857Y-123399786D01*
X130734857Y-122649786D01*
X130484857Y-122649786D01*
X130413428Y-122685500D01*
X130377714Y-122721214D01*
X130341999Y-122792643D01*
X130341999Y-122864071D01*
X130377714Y-122935500D01*
X130413428Y-122971214D01*
X130484857Y-123006929D01*
X130734857Y-123006929D01*
X134984857Y-124674786D02*
X135413429Y-124674786D01*
X135199143Y-124674786D02*
X135199143Y-123924786D01*
X135270572Y-124031929D01*
X135342000Y-124103357D01*
X135413429Y-124139071D01*
X134270571Y-124674786D02*
X134699143Y-124674786D01*
X134484857Y-124674786D02*
X134484857Y-123924786D01*
X134556286Y-124031929D01*
X134627714Y-124103357D01*
X134699143Y-124139071D01*
X133949143Y-124389071D02*
X133377714Y-124389071D01*
X133056286Y-123996214D02*
X133020572Y-123960500D01*
X132949143Y-123924786D01*
X132770572Y-123924786D01*
X132699143Y-123960500D01*
X132663429Y-123996214D01*
X132627714Y-124067643D01*
X132627714Y-124139071D01*
X132663429Y-124246214D01*
X133092000Y-124674786D01*
X132627714Y-124674786D01*
X132306286Y-124389071D02*
X131734857Y-124389071D01*
X130984857Y-124674786D02*
X131413429Y-124674786D01*
X131199143Y-124674786D02*
X131199143Y-123924786D01*
X131270572Y-124031929D01*
X131342000Y-124103357D01*
X131413429Y-124139071D01*
X130556286Y-124246214D02*
X130627714Y-124210500D01*
X130663429Y-124174786D01*
X130699143Y-124103357D01*
X130699143Y-124067643D01*
X130663429Y-123996214D01*
X130627714Y-123960500D01*
X130556286Y-123924786D01*
X130413429Y-123924786D01*
X130342000Y-123960500D01*
X130306286Y-123996214D01*
X130270571Y-124067643D01*
X130270571Y-124103357D01*
X130306286Y-124174786D01*
X130342000Y-124210500D01*
X130413429Y-124246214D01*
X130556286Y-124246214D01*
X130627714Y-124281929D01*
X130663429Y-124317643D01*
X130699143Y-124389071D01*
X130699143Y-124531929D01*
X130663429Y-124603357D01*
X130627714Y-124639071D01*
X130556286Y-124674786D01*
X130413429Y-124674786D01*
X130342000Y-124639071D01*
X130306286Y-124603357D01*
X130270571Y-124531929D01*
X130270571Y-124389071D01*
X130306286Y-124317643D01*
X130342000Y-124281929D01*
X130413429Y-124246214D01*
D12*
X163830000Y-105537000D03*
D13*
X153162000Y-85090000D03*
D14*
X153162000Y-82550000D03*
X155702000Y-85090000D03*
X155702000Y-82550000D03*
X158242000Y-85090000D03*
X158242000Y-82550000D03*
X160782000Y-85090000D03*
X160782000Y-82550000D03*
X163322000Y-85090000D03*
X163322000Y-82550000D03*
X165862000Y-85090000D03*
X165862000Y-82550000D03*
X168402000Y-85090000D03*
X168402000Y-82550000D03*
X170942000Y-85090000D03*
X170942000Y-82550000D03*
D15*
X177800000Y-122428000D03*
D16*
X175260000Y-122428000D03*
X172720000Y-122428000D03*
X170180000Y-122428000D03*
X167640000Y-122428000D03*
X165100000Y-122428000D03*
D15*
X177800000Y-74422000D03*
D16*
X175260000Y-74422000D03*
X172720000Y-74422000D03*
X170180000Y-74422000D03*
X167640000Y-74422000D03*
X165100000Y-74422000D03*
X162560000Y-74422000D03*
X160020000Y-74422000D03*
D15*
X160020000Y-122428000D03*
D16*
X157480000Y-122428000D03*
X154940000Y-122428000D03*
X152400000Y-122428000D03*
X149860000Y-122428000D03*
X147320000Y-122428000D03*
X144780000Y-122428000D03*
X142240000Y-122428000D03*
D15*
X133096000Y-74422000D03*
D16*
X135636000Y-74422000D03*
X138176000Y-74422000D03*
X140716000Y-74422000D03*
X143256000Y-74422000D03*
X145796000Y-74422000D03*
X148336000Y-74422000D03*
X150876000Y-74422000D03*
X153416000Y-74422000D03*
X155956000Y-74422000D03*
D13*
X151003000Y-109347000D03*
D14*
X148463000Y-109347000D03*
X151003000Y-106807000D03*
X148463000Y-106807000D03*
X151003000Y-104267000D03*
X148463000Y-104267000D03*
X151003000Y-101727000D03*
X148463000Y-101727000D03*
X151003000Y-99187000D03*
X148463000Y-99187000D03*
X151003000Y-96647000D03*
X148463000Y-96647000D03*
X151003000Y-94107000D03*
X148463000Y-94107000D03*
X151003000Y-91567000D03*
X148463000Y-91567000D03*
D13*
X131572000Y-85090000D03*
D14*
X131572000Y-82550000D03*
X134112000Y-85090000D03*
X134112000Y-82550000D03*
X136652000Y-85090000D03*
X136652000Y-82550000D03*
X139192000Y-85090000D03*
X139192000Y-82550000D03*
X141732000Y-85090000D03*
X141732000Y-82550000D03*
X144272000Y-85090000D03*
X144272000Y-82550000D03*
X146812000Y-85090000D03*
X146812000Y-82550000D03*
X149352000Y-85090000D03*
X149352000Y-82550000D03*
D12*
X164846000Y-86741000D03*
X162306000Y-109220000D03*
X162306000Y-105537000D03*
X161036000Y-105537000D03*
X170942000Y-90043000D03*
X168402000Y-90043000D03*
X171450000Y-101981000D03*
X171450000Y-100711000D03*
X171450000Y-99441000D03*
X171450000Y-98171000D03*
X171450000Y-96901000D03*
X171450000Y-95631000D03*
X171450000Y-94361000D03*
X171450000Y-93091000D03*
D17*
X162306000Y-105537000D02*
X162306000Y-109220000D01*
X129286000Y-94742000D02*
X129286000Y-80010000D01*
X133096000Y-76200000D02*
X129286000Y-80010000D01*
X133096000Y-74422000D02*
X133096000Y-76200000D01*
X177800000Y-122428000D02*
X176022000Y-124206000D01*
X176022000Y-124206000D02*
X164375274Y-124206000D01*
X164375274Y-124206000D02*
X157263274Y-117094000D01*
X157263274Y-117094000D02*
X151638000Y-117094000D01*
X151638000Y-117094000D02*
X129286000Y-94742000D01*
X174410001Y-123277999D02*
X175260000Y-122428000D01*
X164521311Y-123633601D02*
X174054399Y-123633601D01*
X151891989Y-116585989D02*
X157473699Y-116585989D01*
X129794000Y-94488000D02*
X151891989Y-116585989D01*
X129794000Y-80264000D02*
X129794000Y-94488000D01*
X174054399Y-123633601D02*
X174410001Y-123277999D01*
X157473699Y-116585989D02*
X164521311Y-123633601D01*
X135636000Y-74422000D02*
X129794000Y-80264000D01*
X172720000Y-122428000D02*
X161036000Y-110744000D01*
X161036000Y-110744000D02*
X161036000Y-105537000D01*
X170942000Y-90043000D02*
X168402000Y-90043000D01*
X153390599Y-102895401D02*
X154787599Y-102895401D01*
X154787599Y-102895401D02*
X155702000Y-101981000D01*
X131572000Y-85090000D02*
X133604000Y-87122000D01*
X133604000Y-87122000D02*
X133604000Y-90170000D01*
X145592799Y-102185217D02*
X146302983Y-102895401D01*
X133604000Y-90170000D02*
X145592799Y-102158799D01*
X145592799Y-102158799D02*
X145592799Y-102185217D01*
X146302983Y-102895401D02*
X153390599Y-102895401D01*
X155702000Y-101981000D02*
X171450000Y-101981000D01*
X146302983Y-100355401D02*
X153416000Y-100355401D01*
X171450000Y-100711000D02*
X153771599Y-100711000D01*
X153771599Y-100711000D02*
X153416000Y-100355401D01*
X134112000Y-85090000D02*
X134975599Y-85953599D01*
X134975599Y-89028017D02*
X146302983Y-100355401D01*
X134975599Y-85953599D02*
X134975599Y-89028017D01*
X136652000Y-85090000D02*
X136652000Y-88164418D01*
X136652000Y-88164418D02*
X146328381Y-97840799D01*
X153162000Y-97840799D02*
X154762201Y-99441000D01*
X146328381Y-97840799D02*
X153162000Y-97840799D01*
X154762201Y-99441000D02*
X171450000Y-99441000D01*
X146226783Y-95300799D02*
X152019000Y-95300799D01*
X154889201Y-98171000D02*
X152019000Y-95300799D01*
X171450000Y-98171000D02*
X154889201Y-98171000D01*
X139192000Y-85090000D02*
X139192000Y-88266016D01*
X139192000Y-88266016D02*
X146226783Y-95300799D01*
X146100799Y-92760799D02*
X151765000Y-92760799D01*
X155829000Y-96901000D02*
X171450000Y-96901000D01*
X151765000Y-92760799D02*
X151765000Y-92837000D01*
X151765000Y-92837000D02*
X155829000Y-96901000D01*
X141732000Y-88164418D02*
X141732000Y-88392000D01*
X141732000Y-88392000D02*
X146100799Y-92760799D01*
X141732000Y-88164418D02*
X141758418Y-88164418D01*
X141732000Y-85090000D02*
X141732000Y-88164418D01*
X156845000Y-95631000D02*
X171450000Y-95631000D01*
X151434799Y-90220799D02*
X156845000Y-95631000D01*
X146226783Y-90220799D02*
X151434799Y-90220799D01*
X144272000Y-85090000D02*
X144272000Y-88266016D01*
X144272000Y-88266016D02*
X146226783Y-90220799D01*
X156845000Y-94361000D02*
X156972000Y-94361000D01*
X155448000Y-92964000D02*
X156845000Y-94361000D01*
X156972000Y-94361000D02*
X171450000Y-94361000D01*
X148793201Y-86309201D02*
X155448000Y-92964000D01*
X146812000Y-85090000D02*
X148031201Y-86309201D01*
X148031201Y-86309201D02*
X148793201Y-86309201D01*
X157353000Y-93091000D02*
X171450000Y-93091000D01*
X155956000Y-91694000D02*
X157353000Y-93091000D01*
X149352000Y-85090000D02*
X155956000Y-91694000D01*
D18*
G36*
X127706323Y-72842323D02*
X127222053Y-73567085D01*
X127052000Y-74422000D01*
X127222053Y-75276915D01*
X127706323Y-76001677D01*
X128431085Y-76485947D01*
X129286000Y-76656000D01*
X130140915Y-76485947D01*
X130865677Y-76001677D01*
X131349947Y-75276915D01*
X131520000Y-74422000D01*
X131349947Y-73567085D01*
X130865677Y-72842323D01*
X130491042Y-72592000D01*
X179630000Y-72592000D01*
X179630000Y-84836000D01*
X179650861Y-84940875D01*
X179662141Y-85047202D01*
X179677697Y-85075786D01*
X179684046Y-85107705D01*
X179743451Y-85196612D01*
X179794563Y-85290531D01*
X181333095Y-87136769D01*
X181292116Y-87109388D01*
X180340000Y-86920000D01*
X179387884Y-87109388D01*
X178580718Y-87648718D01*
X178041388Y-88455884D01*
X177852000Y-89408000D01*
X178041388Y-90360116D01*
X178580718Y-91167282D01*
X179387884Y-91706612D01*
X180340000Y-91896000D01*
X181292116Y-91706612D01*
X182099282Y-91167282D01*
X182170000Y-91061445D01*
X182170000Y-116142958D01*
X181919677Y-115768323D01*
X181194915Y-115284053D01*
X180340000Y-115114000D01*
X179485085Y-115284053D01*
X178760323Y-115768323D01*
X178276053Y-116493085D01*
X178106000Y-117348000D01*
X178276053Y-118202915D01*
X178760323Y-118927677D01*
X179485085Y-119411947D01*
X180340000Y-119582000D01*
X181194915Y-119411947D01*
X181919677Y-118927677D01*
X182170000Y-118553042D01*
X182170000Y-119630945D01*
X179794563Y-122481469D01*
X179743451Y-122575388D01*
X179684046Y-122664295D01*
X179677697Y-122696214D01*
X179662141Y-122724798D01*
X179650861Y-122831125D01*
X179630000Y-122936000D01*
X179630000Y-124258000D01*
X177083552Y-124258000D01*
X177416112Y-123925440D01*
X178650000Y-123925440D01*
X178885317Y-123881162D01*
X179101441Y-123742090D01*
X179246431Y-123529890D01*
X179297440Y-123278000D01*
X179297440Y-121578000D01*
X179253162Y-121342683D01*
X179114090Y-121126559D01*
X178901890Y-120981569D01*
X178650000Y-120930560D01*
X176950000Y-120930560D01*
X176714683Y-120974838D01*
X176498559Y-121113910D01*
X176353569Y-121326110D01*
X176339914Y-121393541D01*
X176310054Y-121348853D01*
X175828285Y-121026946D01*
X175260000Y-120913907D01*
X174691715Y-121026946D01*
X174209946Y-121348853D01*
X173990000Y-121678026D01*
X173770054Y-121348853D01*
X173288285Y-121026946D01*
X172720000Y-120913907D01*
X172385913Y-120980361D01*
X161823400Y-110417848D01*
X161823400Y-110032010D01*
X162119201Y-110154838D01*
X162491167Y-110155162D01*
X162834943Y-110013117D01*
X163098192Y-109750327D01*
X163240838Y-109406799D01*
X163241162Y-109034833D01*
X163099117Y-108691057D01*
X163093400Y-108685330D01*
X163093400Y-106072111D01*
X163098192Y-106067327D01*
X163240838Y-105723799D01*
X163241162Y-105351833D01*
X163099117Y-105008057D01*
X162836327Y-104744808D01*
X162492799Y-104602162D01*
X162120833Y-104601838D01*
X161777057Y-104743883D01*
X161671046Y-104849710D01*
X161566327Y-104744808D01*
X161222799Y-104602162D01*
X160850833Y-104601838D01*
X160507057Y-104743883D01*
X160243808Y-105006673D01*
X160101162Y-105350201D01*
X160100838Y-105722167D01*
X160242883Y-106065943D01*
X160248600Y-106071670D01*
X160248600Y-110744000D01*
X160308537Y-111045325D01*
X160479224Y-111300776D01*
X170106896Y-120928448D01*
X169611715Y-121026946D01*
X169129946Y-121348853D01*
X168910000Y-121678026D01*
X168690054Y-121348853D01*
X168208285Y-121026946D01*
X167640000Y-120913907D01*
X167071715Y-121026946D01*
X166589946Y-121348853D01*
X166370000Y-121678026D01*
X166150054Y-121348853D01*
X165668285Y-121026946D01*
X165100000Y-120913907D01*
X164531715Y-121026946D01*
X164049946Y-121348853D01*
X163769633Y-121768371D01*
X158030475Y-116029213D01*
X157775024Y-115858526D01*
X157473699Y-115798589D01*
X152218141Y-115798589D01*
X146125578Y-109706026D01*
X147008042Y-109706026D01*
X147180312Y-110121947D01*
X147574510Y-110553821D01*
X148103973Y-110801968D01*
X148336000Y-110681469D01*
X148336000Y-109474000D01*
X147129183Y-109474000D01*
X147008042Y-109706026D01*
X146125578Y-109706026D01*
X143585578Y-107166026D01*
X147008042Y-107166026D01*
X147180312Y-107581947D01*
X147574510Y-108013821D01*
X147709313Y-108077000D01*
X147574510Y-108140179D01*
X147180312Y-108572053D01*
X147008042Y-108987974D01*
X147129183Y-109220000D01*
X148336000Y-109220000D01*
X148336000Y-106934000D01*
X147129183Y-106934000D01*
X147008042Y-107166026D01*
X143585578Y-107166026D01*
X141045578Y-104626026D01*
X147008042Y-104626026D01*
X147180312Y-105041947D01*
X147574510Y-105473821D01*
X147709313Y-105537000D01*
X147574510Y-105600179D01*
X147180312Y-106032053D01*
X147008042Y-106447974D01*
X147129183Y-106680000D01*
X148336000Y-106680000D01*
X148336000Y-104394000D01*
X147129183Y-104394000D01*
X147008042Y-104626026D01*
X141045578Y-104626026D01*
X130581400Y-94161848D01*
X130581400Y-86575322D01*
X130708400Y-86601040D01*
X131969488Y-86601040D01*
X132816600Y-87448152D01*
X132816600Y-90170000D01*
X132876537Y-90471325D01*
X133047224Y-90726776D01*
X144982826Y-102662378D01*
X145036023Y-102741993D01*
X145746207Y-103452177D01*
X146001658Y-103622864D01*
X146302983Y-103682801D01*
X147101306Y-103682801D01*
X147008042Y-103907974D01*
X147129183Y-104140000D01*
X148336000Y-104140000D01*
X148336000Y-104120000D01*
X148590000Y-104120000D01*
X148590000Y-104140000D01*
X148610000Y-104140000D01*
X148610000Y-104394000D01*
X148590000Y-104394000D01*
X148590000Y-106680000D01*
X148610000Y-106680000D01*
X148610000Y-106934000D01*
X148590000Y-106934000D01*
X148590000Y-109220000D01*
X148610000Y-109220000D01*
X148610000Y-109474000D01*
X148590000Y-109474000D01*
X148590000Y-110681469D01*
X148822027Y-110801968D01*
X149351490Y-110553821D01*
X149521495Y-110367567D01*
X149536238Y-110445917D01*
X149675310Y-110662041D01*
X149887510Y-110807031D01*
X150139400Y-110858040D01*
X151866600Y-110858040D01*
X152101917Y-110813762D01*
X152318041Y-110674690D01*
X152463031Y-110462490D01*
X152514040Y-110210600D01*
X152514040Y-108483400D01*
X152469762Y-108248083D01*
X152330690Y-108031959D01*
X152118490Y-107886969D01*
X152074869Y-107878136D01*
X152092029Y-107866670D01*
X152416885Y-107380489D01*
X152530959Y-106807000D01*
X152416885Y-106233511D01*
X152092029Y-105747330D01*
X151777248Y-105537000D01*
X152092029Y-105326670D01*
X152416885Y-104840489D01*
X152530959Y-104267000D01*
X152416885Y-103693511D01*
X152409729Y-103682801D01*
X154787599Y-103682801D01*
X155088924Y-103622864D01*
X155344375Y-103452177D01*
X156028152Y-102768400D01*
X170914889Y-102768400D01*
X170919673Y-102773192D01*
X171263201Y-102915838D01*
X171635167Y-102916162D01*
X171978943Y-102774117D01*
X172242192Y-102511327D01*
X172384838Y-102167799D01*
X172385162Y-101795833D01*
X172243117Y-101452057D01*
X172137290Y-101346046D01*
X172242192Y-101241327D01*
X172384838Y-100897799D01*
X172385162Y-100525833D01*
X172243117Y-100182057D01*
X172137290Y-100076046D01*
X172242192Y-99971327D01*
X172384838Y-99627799D01*
X172385162Y-99255833D01*
X172243117Y-98912057D01*
X172137290Y-98806046D01*
X172242192Y-98701327D01*
X172384838Y-98357799D01*
X172385162Y-97985833D01*
X172243117Y-97642057D01*
X172137290Y-97536046D01*
X172242192Y-97431327D01*
X172384838Y-97087799D01*
X172385162Y-96715833D01*
X172243117Y-96372057D01*
X172137290Y-96266046D01*
X172242192Y-96161327D01*
X172384838Y-95817799D01*
X172385162Y-95445833D01*
X172243117Y-95102057D01*
X172137290Y-94996046D01*
X172242192Y-94891327D01*
X172384838Y-94547799D01*
X172385162Y-94175833D01*
X172243117Y-93832057D01*
X172137290Y-93726046D01*
X172242192Y-93621327D01*
X172384838Y-93277799D01*
X172385162Y-92905833D01*
X172243117Y-92562057D01*
X171980327Y-92298808D01*
X171636799Y-92156162D01*
X171264833Y-92155838D01*
X170921057Y-92297883D01*
X170915330Y-92303600D01*
X157679152Y-92303600D01*
X155603719Y-90228167D01*
X167466838Y-90228167D01*
X167608883Y-90571943D01*
X167871673Y-90835192D01*
X168215201Y-90977838D01*
X168587167Y-90978162D01*
X168930943Y-90836117D01*
X168936670Y-90830400D01*
X170406889Y-90830400D01*
X170411673Y-90835192D01*
X170755201Y-90977838D01*
X171127167Y-90978162D01*
X171470943Y-90836117D01*
X171734192Y-90573327D01*
X171876838Y-90229799D01*
X171877162Y-89857833D01*
X171735117Y-89514057D01*
X171472327Y-89250808D01*
X171128799Y-89108162D01*
X170756833Y-89107838D01*
X170413057Y-89249883D01*
X170407330Y-89255600D01*
X168937111Y-89255600D01*
X168932327Y-89250808D01*
X168588799Y-89108162D01*
X168216833Y-89107838D01*
X167873057Y-89249883D01*
X167609808Y-89512673D01*
X167467162Y-89856201D01*
X167466838Y-90228167D01*
X155603719Y-90228167D01*
X150791587Y-85416035D01*
X150850600Y-85119359D01*
X150850600Y-85060641D01*
X150736526Y-84487152D01*
X150562297Y-84226400D01*
X151650960Y-84226400D01*
X151650960Y-85953600D01*
X151695238Y-86188917D01*
X151834310Y-86405041D01*
X152046510Y-86550031D01*
X152298400Y-86601040D01*
X154025600Y-86601040D01*
X154260917Y-86556762D01*
X154477041Y-86417690D01*
X154622031Y-86205490D01*
X154630864Y-86161869D01*
X154642330Y-86179029D01*
X155128511Y-86503885D01*
X155702000Y-86617959D01*
X156275489Y-86503885D01*
X156761670Y-86179029D01*
X156972000Y-85864248D01*
X157182330Y-86179029D01*
X157668511Y-86503885D01*
X158242000Y-86617959D01*
X158815489Y-86503885D01*
X159301670Y-86179029D01*
X159512000Y-85864248D01*
X159722330Y-86179029D01*
X160208511Y-86503885D01*
X160782000Y-86617959D01*
X161355489Y-86503885D01*
X161841670Y-86179029D01*
X162052000Y-85864248D01*
X162262330Y-86179029D01*
X162748511Y-86503885D01*
X163322000Y-86617959D01*
X163895489Y-86503885D01*
X164381670Y-86179029D01*
X164592000Y-85864248D01*
X164802330Y-86179029D01*
X165288511Y-86503885D01*
X165862000Y-86617959D01*
X166435489Y-86503885D01*
X166921670Y-86179029D01*
X167132000Y-85864248D01*
X167342330Y-86179029D01*
X167828511Y-86503885D01*
X168402000Y-86617959D01*
X168975489Y-86503885D01*
X169461670Y-86179029D01*
X169672000Y-85864248D01*
X169882330Y-86179029D01*
X170368511Y-86503885D01*
X170942000Y-86617959D01*
X171515489Y-86503885D01*
X172001670Y-86179029D01*
X172326526Y-85692848D01*
X172440600Y-85119359D01*
X172440600Y-85060641D01*
X172326526Y-84487152D01*
X172001670Y-84000971D01*
X171730828Y-83820000D01*
X172001670Y-83639029D01*
X172326526Y-83152848D01*
X172440600Y-82579359D01*
X172440600Y-82520641D01*
X172326526Y-81947152D01*
X172001670Y-81460971D01*
X171515489Y-81136115D01*
X170942000Y-81022041D01*
X170368511Y-81136115D01*
X169882330Y-81460971D01*
X169672000Y-81775752D01*
X169461670Y-81460971D01*
X168975489Y-81136115D01*
X168402000Y-81022041D01*
X167828511Y-81136115D01*
X167342330Y-81460971D01*
X167132000Y-81775752D01*
X166921670Y-81460971D01*
X166435489Y-81136115D01*
X165862000Y-81022041D01*
X165288511Y-81136115D01*
X164802330Y-81460971D01*
X164592000Y-81775752D01*
X164381670Y-81460971D01*
X163895489Y-81136115D01*
X163322000Y-81022041D01*
X162748511Y-81136115D01*
X162262330Y-81460971D01*
X162052000Y-81775752D01*
X161841670Y-81460971D01*
X161355489Y-81136115D01*
X160782000Y-81022041D01*
X160208511Y-81136115D01*
X159722330Y-81460971D01*
X159512000Y-81775752D01*
X159301670Y-81460971D01*
X158815489Y-81136115D01*
X158242000Y-81022041D01*
X157668511Y-81136115D01*
X157182330Y-81460971D01*
X156972000Y-81775752D01*
X156761670Y-81460971D01*
X156275489Y-81136115D01*
X155702000Y-81022041D01*
X155128511Y-81136115D01*
X154642330Y-81460971D01*
X154432000Y-81775752D01*
X154221670Y-81460971D01*
X153735489Y-81136115D01*
X153162000Y-81022041D01*
X152588511Y-81136115D01*
X152102330Y-81460971D01*
X151777474Y-81947152D01*
X151663400Y-82520641D01*
X151663400Y-82579359D01*
X151777474Y-83152848D01*
X152088574Y-83618442D01*
X152063083Y-83623238D01*
X151846959Y-83762310D01*
X151701969Y-83974510D01*
X151650960Y-84226400D01*
X150562297Y-84226400D01*
X150411670Y-84000971D01*
X150140828Y-83820000D01*
X150411670Y-83639029D01*
X150736526Y-83152848D01*
X150850600Y-82579359D01*
X150850600Y-82520641D01*
X150736526Y-81947152D01*
X150411670Y-81460971D01*
X149925489Y-81136115D01*
X149352000Y-81022041D01*
X148778511Y-81136115D01*
X148292330Y-81460971D01*
X148082000Y-81775752D01*
X147871670Y-81460971D01*
X147385489Y-81136115D01*
X146812000Y-81022041D01*
X146238511Y-81136115D01*
X145752330Y-81460971D01*
X145542000Y-81775752D01*
X145331670Y-81460971D01*
X144845489Y-81136115D01*
X144272000Y-81022041D01*
X143698511Y-81136115D01*
X143212330Y-81460971D01*
X143002000Y-81775752D01*
X142791670Y-81460971D01*
X142305489Y-81136115D01*
X141732000Y-81022041D01*
X141158511Y-81136115D01*
X140672330Y-81460971D01*
X140462000Y-81775752D01*
X140251670Y-81460971D01*
X139765489Y-81136115D01*
X139192000Y-81022041D01*
X138618511Y-81136115D01*
X138132330Y-81460971D01*
X137922000Y-81775752D01*
X137711670Y-81460971D01*
X137225489Y-81136115D01*
X136652000Y-81022041D01*
X136078511Y-81136115D01*
X135592330Y-81460971D01*
X135382000Y-81775752D01*
X135171670Y-81460971D01*
X134685489Y-81136115D01*
X134112000Y-81022041D01*
X133538511Y-81136115D01*
X133052330Y-81460971D01*
X132842000Y-81775752D01*
X132631670Y-81460971D01*
X132145489Y-81136115D01*
X131572000Y-81022041D01*
X130998511Y-81136115D01*
X130581400Y-81414820D01*
X130581400Y-80590152D01*
X135301913Y-75869639D01*
X135636000Y-75936093D01*
X136204285Y-75823054D01*
X136686054Y-75501147D01*
X136906000Y-75171974D01*
X137125946Y-75501147D01*
X137607715Y-75823054D01*
X138176000Y-75936093D01*
X138744285Y-75823054D01*
X139226054Y-75501147D01*
X139453702Y-75160447D01*
X139520817Y-75303358D01*
X139949076Y-75693645D01*
X140359110Y-75863476D01*
X140589000Y-75742155D01*
X140589000Y-74549000D01*
X140569000Y-74549000D01*
X140569000Y-74295000D01*
X140589000Y-74295000D01*
X140589000Y-73101845D01*
X140843000Y-73101845D01*
X140843000Y-74295000D01*
X140863000Y-74295000D01*
X140863000Y-74549000D01*
X140843000Y-74549000D01*
X140843000Y-75742155D01*
X141072890Y-75863476D01*
X141482924Y-75693645D01*
X141911183Y-75303358D01*
X141978298Y-75160447D01*
X142205946Y-75501147D01*
X142687715Y-75823054D01*
X143256000Y-75936093D01*
X143824285Y-75823054D01*
X144306054Y-75501147D01*
X144526000Y-75171974D01*
X144745946Y-75501147D01*
X145227715Y-75823054D01*
X145796000Y-75936093D01*
X146364285Y-75823054D01*
X146846054Y-75501147D01*
X147066000Y-75171974D01*
X147285946Y-75501147D01*
X147767715Y-75823054D01*
X148336000Y-75936093D01*
X148904285Y-75823054D01*
X149386054Y-75501147D01*
X149606000Y-75171974D01*
X149825946Y-75501147D01*
X150307715Y-75823054D01*
X150876000Y-75936093D01*
X151444285Y-75823054D01*
X151926054Y-75501147D01*
X152146000Y-75171974D01*
X152365946Y-75501147D01*
X152847715Y-75823054D01*
X153416000Y-75936093D01*
X153984285Y-75823054D01*
X154466054Y-75501147D01*
X154686000Y-75171974D01*
X154905946Y-75501147D01*
X155387715Y-75823054D01*
X155956000Y-75936093D01*
X156524285Y-75823054D01*
X157006054Y-75501147D01*
X157327961Y-75019378D01*
X157441000Y-74451093D01*
X157441000Y-74392907D01*
X158535000Y-74392907D01*
X158535000Y-74451093D01*
X158648039Y-75019378D01*
X158969946Y-75501147D01*
X159451715Y-75823054D01*
X160020000Y-75936093D01*
X160588285Y-75823054D01*
X161070054Y-75501147D01*
X161290000Y-75171974D01*
X161509946Y-75501147D01*
X161991715Y-75823054D01*
X162560000Y-75936093D01*
X163128285Y-75823054D01*
X163610054Y-75501147D01*
X163830000Y-75171974D01*
X164049946Y-75501147D01*
X164531715Y-75823054D01*
X165100000Y-75936093D01*
X165668285Y-75823054D01*
X166150054Y-75501147D01*
X166370000Y-75171974D01*
X166589946Y-75501147D01*
X167071715Y-75823054D01*
X167640000Y-75936093D01*
X168208285Y-75823054D01*
X168690054Y-75501147D01*
X168910000Y-75171974D01*
X169129946Y-75501147D01*
X169611715Y-75823054D01*
X170180000Y-75936093D01*
X170748285Y-75823054D01*
X171230054Y-75501147D01*
X171450000Y-75171974D01*
X171669946Y-75501147D01*
X172151715Y-75823054D01*
X172720000Y-75936093D01*
X173288285Y-75823054D01*
X173770054Y-75501147D01*
X173990000Y-75171974D01*
X174209946Y-75501147D01*
X174691715Y-75823054D01*
X175260000Y-75936093D01*
X175828285Y-75823054D01*
X176310054Y-75501147D01*
X176337850Y-75459548D01*
X176346838Y-75507317D01*
X176485910Y-75723441D01*
X176698110Y-75868431D01*
X176950000Y-75919440D01*
X178650000Y-75919440D01*
X178885317Y-75875162D01*
X179101441Y-75736090D01*
X179246431Y-75523890D01*
X179297440Y-75272000D01*
X179297440Y-73572000D01*
X179253162Y-73336683D01*
X179114090Y-73120559D01*
X178901890Y-72975569D01*
X178650000Y-72924560D01*
X176950000Y-72924560D01*
X176714683Y-72968838D01*
X176498559Y-73107910D01*
X176353569Y-73320110D01*
X176339914Y-73387541D01*
X176310054Y-73342853D01*
X175828285Y-73020946D01*
X175260000Y-72907907D01*
X174691715Y-73020946D01*
X174209946Y-73342853D01*
X173990000Y-73672026D01*
X173770054Y-73342853D01*
X173288285Y-73020946D01*
X172720000Y-72907907D01*
X172151715Y-73020946D01*
X171669946Y-73342853D01*
X171450000Y-73672026D01*
X171230054Y-73342853D01*
X170748285Y-73020946D01*
X170180000Y-72907907D01*
X169611715Y-73020946D01*
X169129946Y-73342853D01*
X168910000Y-73672026D01*
X168690054Y-73342853D01*
X168208285Y-73020946D01*
X167640000Y-72907907D01*
X167071715Y-73020946D01*
X166589946Y-73342853D01*
X166370000Y-73672026D01*
X166150054Y-73342853D01*
X165668285Y-73020946D01*
X165100000Y-72907907D01*
X164531715Y-73020946D01*
X164049946Y-73342853D01*
X163830000Y-73672026D01*
X163610054Y-73342853D01*
X163128285Y-73020946D01*
X162560000Y-72907907D01*
X161991715Y-73020946D01*
X161509946Y-73342853D01*
X161290000Y-73672026D01*
X161070054Y-73342853D01*
X160588285Y-73020946D01*
X160020000Y-72907907D01*
X159451715Y-73020946D01*
X158969946Y-73342853D01*
X158648039Y-73824622D01*
X158535000Y-74392907D01*
X157441000Y-74392907D01*
X157327961Y-73824622D01*
X157006054Y-73342853D01*
X156524285Y-73020946D01*
X155956000Y-72907907D01*
X155387715Y-73020946D01*
X154905946Y-73342853D01*
X154686000Y-73672026D01*
X154466054Y-73342853D01*
X153984285Y-73020946D01*
X153416000Y-72907907D01*
X152847715Y-73020946D01*
X152365946Y-73342853D01*
X152146000Y-73672026D01*
X151926054Y-73342853D01*
X151444285Y-73020946D01*
X150876000Y-72907907D01*
X150307715Y-73020946D01*
X149825946Y-73342853D01*
X149606000Y-73672026D01*
X149386054Y-73342853D01*
X148904285Y-73020946D01*
X148336000Y-72907907D01*
X147767715Y-73020946D01*
X147285946Y-73342853D01*
X147066000Y-73672026D01*
X146846054Y-73342853D01*
X146364285Y-73020946D01*
X145796000Y-72907907D01*
X145227715Y-73020946D01*
X144745946Y-73342853D01*
X144526000Y-73672026D01*
X144306054Y-73342853D01*
X143824285Y-73020946D01*
X143256000Y-72907907D01*
X142687715Y-73020946D01*
X142205946Y-73342853D01*
X141978298Y-73683553D01*
X141911183Y-73540642D01*
X141482924Y-73150355D01*
X141072890Y-72980524D01*
X140843000Y-73101845D01*
X140589000Y-73101845D01*
X140359110Y-72980524D01*
X139949076Y-73150355D01*
X139520817Y-73540642D01*
X139453702Y-73683553D01*
X139226054Y-73342853D01*
X138744285Y-73020946D01*
X138176000Y-72907907D01*
X137607715Y-73020946D01*
X137125946Y-73342853D01*
X136906000Y-73672026D01*
X136686054Y-73342853D01*
X136204285Y-73020946D01*
X135636000Y-72907907D01*
X135067715Y-73020946D01*
X134585946Y-73342853D01*
X134558150Y-73384452D01*
X134549162Y-73336683D01*
X134410090Y-73120559D01*
X134197890Y-72975569D01*
X133946000Y-72924560D01*
X132246000Y-72924560D01*
X132010683Y-72968838D01*
X131794559Y-73107910D01*
X131649569Y-73320110D01*
X131598560Y-73572000D01*
X131598560Y-75272000D01*
X131642838Y-75507317D01*
X131781910Y-75723441D01*
X131994110Y-75868431D01*
X132246000Y-75919440D01*
X132263008Y-75919440D01*
X128729224Y-79453224D01*
X128558537Y-79708675D01*
X128498600Y-80010000D01*
X128498600Y-94742000D01*
X128558537Y-95043325D01*
X128729224Y-95298776D01*
X151081224Y-117650776D01*
X151336675Y-117821463D01*
X151638000Y-117881400D01*
X156937122Y-117881400D01*
X159986282Y-120930560D01*
X159170000Y-120930560D01*
X158934683Y-120974838D01*
X158718559Y-121113910D01*
X158573569Y-121326110D01*
X158551699Y-121434107D01*
X158246924Y-121156355D01*
X157836890Y-120986524D01*
X157607000Y-121107845D01*
X157607000Y-122301000D01*
X157627000Y-122301000D01*
X157627000Y-122555000D01*
X157607000Y-122555000D01*
X157607000Y-123748155D01*
X157836890Y-123869476D01*
X158246924Y-123699645D01*
X158549937Y-123423499D01*
X158566838Y-123513317D01*
X158705910Y-123729441D01*
X158918110Y-123874431D01*
X159170000Y-123925440D01*
X160870000Y-123925440D01*
X161105317Y-123881162D01*
X161321441Y-123742090D01*
X161466431Y-123529890D01*
X161517440Y-123278000D01*
X161517440Y-122461718D01*
X163313722Y-124258000D01*
X136191286Y-124258000D01*
X136191286Y-122398907D01*
X140755000Y-122398907D01*
X140755000Y-122457093D01*
X140868039Y-123025378D01*
X141189946Y-123507147D01*
X141671715Y-123829054D01*
X142240000Y-123942093D01*
X142808285Y-123829054D01*
X143290054Y-123507147D01*
X143510000Y-123177974D01*
X143729946Y-123507147D01*
X144211715Y-123829054D01*
X144780000Y-123942093D01*
X145348285Y-123829054D01*
X145830054Y-123507147D01*
X146050000Y-123177974D01*
X146269946Y-123507147D01*
X146751715Y-123829054D01*
X147320000Y-123942093D01*
X147888285Y-123829054D01*
X148370054Y-123507147D01*
X148590000Y-123177974D01*
X148809946Y-123507147D01*
X149291715Y-123829054D01*
X149860000Y-123942093D01*
X150428285Y-123829054D01*
X150910054Y-123507147D01*
X151130000Y-123177974D01*
X151349946Y-123507147D01*
X151831715Y-123829054D01*
X152400000Y-123942093D01*
X152968285Y-123829054D01*
X153450054Y-123507147D01*
X153677702Y-123166447D01*
X153744817Y-123309358D01*
X154173076Y-123699645D01*
X154583110Y-123869476D01*
X154813000Y-123748155D01*
X154813000Y-122555000D01*
X155067000Y-122555000D01*
X155067000Y-123748155D01*
X155296890Y-123869476D01*
X155706924Y-123699645D01*
X156135183Y-123309358D01*
X156210000Y-123150046D01*
X156284817Y-123309358D01*
X156713076Y-123699645D01*
X157123110Y-123869476D01*
X157353000Y-123748155D01*
X157353000Y-122555000D01*
X155067000Y-122555000D01*
X154813000Y-122555000D01*
X154793000Y-122555000D01*
X154793000Y-122301000D01*
X154813000Y-122301000D01*
X154813000Y-121107845D01*
X155067000Y-121107845D01*
X155067000Y-122301000D01*
X157353000Y-122301000D01*
X157353000Y-121107845D01*
X157123110Y-120986524D01*
X156713076Y-121156355D01*
X156284817Y-121546642D01*
X156210000Y-121705954D01*
X156135183Y-121546642D01*
X155706924Y-121156355D01*
X155296890Y-120986524D01*
X155067000Y-121107845D01*
X154813000Y-121107845D01*
X154583110Y-120986524D01*
X154173076Y-121156355D01*
X153744817Y-121546642D01*
X153677702Y-121689553D01*
X153450054Y-121348853D01*
X152968285Y-121026946D01*
X152400000Y-120913907D01*
X151831715Y-121026946D01*
X151349946Y-121348853D01*
X151130000Y-121678026D01*
X150910054Y-121348853D01*
X150428285Y-121026946D01*
X149860000Y-120913907D01*
X149291715Y-121026946D01*
X148809946Y-121348853D01*
X148590000Y-121678026D01*
X148370054Y-121348853D01*
X147888285Y-121026946D01*
X147320000Y-120913907D01*
X146751715Y-121026946D01*
X146269946Y-121348853D01*
X146050000Y-121678026D01*
X145830054Y-121348853D01*
X145348285Y-121026946D01*
X144780000Y-120913907D01*
X144211715Y-121026946D01*
X143729946Y-121348853D01*
X143510000Y-121678026D01*
X143290054Y-121348853D01*
X142808285Y-121026946D01*
X142240000Y-120913907D01*
X141671715Y-121026946D01*
X141189946Y-121348853D01*
X140868039Y-121830622D01*
X140755000Y-122398907D01*
X136191286Y-122398907D01*
X136191286Y-121825500D01*
X130384155Y-121825500D01*
X130333947Y-121573085D01*
X129849677Y-120848323D01*
X129124915Y-120364053D01*
X128270000Y-120194000D01*
X127415085Y-120364053D01*
X126694000Y-120845866D01*
X126694000Y-72684092D01*
X126786091Y-72592000D01*
X128080958Y-72592000D01*
X127706323Y-72842323D01*
X127706323Y-72842323D01*
G37*
X127706323Y-72842323D02*
X127222053Y-73567085D01*
X127052000Y-74422000D01*
X127222053Y-75276915D01*
X127706323Y-76001677D01*
X128431085Y-76485947D01*
X129286000Y-76656000D01*
X130140915Y-76485947D01*
X130865677Y-76001677D01*
X131349947Y-75276915D01*
X131520000Y-74422000D01*
X131349947Y-73567085D01*
X130865677Y-72842323D01*
X130491042Y-72592000D01*
X179630000Y-72592000D01*
X179630000Y-84836000D01*
X179650861Y-84940875D01*
X179662141Y-85047202D01*
X179677697Y-85075786D01*
X179684046Y-85107705D01*
X179743451Y-85196612D01*
X179794563Y-85290531D01*
X181333095Y-87136769D01*
X181292116Y-87109388D01*
X180340000Y-86920000D01*
X179387884Y-87109388D01*
X178580718Y-87648718D01*
X178041388Y-88455884D01*
X177852000Y-89408000D01*
X178041388Y-90360116D01*
X178580718Y-91167282D01*
X179387884Y-91706612D01*
X180340000Y-91896000D01*
X181292116Y-91706612D01*
X182099282Y-91167282D01*
X182170000Y-91061445D01*
X182170000Y-116142958D01*
X181919677Y-115768323D01*
X181194915Y-115284053D01*
X180340000Y-115114000D01*
X179485085Y-115284053D01*
X178760323Y-115768323D01*
X178276053Y-116493085D01*
X178106000Y-117348000D01*
X178276053Y-118202915D01*
X178760323Y-118927677D01*
X179485085Y-119411947D01*
X180340000Y-119582000D01*
X181194915Y-119411947D01*
X181919677Y-118927677D01*
X182170000Y-118553042D01*
X182170000Y-119630945D01*
X179794563Y-122481469D01*
X179743451Y-122575388D01*
X179684046Y-122664295D01*
X179677697Y-122696214D01*
X179662141Y-122724798D01*
X179650861Y-122831125D01*
X179630000Y-122936000D01*
X179630000Y-124258000D01*
X177083552Y-124258000D01*
X177416112Y-123925440D01*
X178650000Y-123925440D01*
X178885317Y-123881162D01*
X179101441Y-123742090D01*
X179246431Y-123529890D01*
X179297440Y-123278000D01*
X179297440Y-121578000D01*
X179253162Y-121342683D01*
X179114090Y-121126559D01*
X178901890Y-120981569D01*
X178650000Y-120930560D01*
X176950000Y-120930560D01*
X176714683Y-120974838D01*
X176498559Y-121113910D01*
X176353569Y-121326110D01*
X176339914Y-121393541D01*
X176310054Y-121348853D01*
X175828285Y-121026946D01*
X175260000Y-120913907D01*
X174691715Y-121026946D01*
X174209946Y-121348853D01*
X173990000Y-121678026D01*
X173770054Y-121348853D01*
X173288285Y-121026946D01*
X172720000Y-120913907D01*
X172385913Y-120980361D01*
X161823400Y-110417848D01*
X161823400Y-110032010D01*
X162119201Y-110154838D01*
X162491167Y-110155162D01*
X162834943Y-110013117D01*
X163098192Y-109750327D01*
X163240838Y-109406799D01*
X163241162Y-109034833D01*
X163099117Y-108691057D01*
X163093400Y-108685330D01*
X163093400Y-106072111D01*
X163098192Y-106067327D01*
X163240838Y-105723799D01*
X163241162Y-105351833D01*
X163099117Y-105008057D01*
X162836327Y-104744808D01*
X162492799Y-104602162D01*
X162120833Y-104601838D01*
X161777057Y-104743883D01*
X161671046Y-104849710D01*
X161566327Y-104744808D01*
X161222799Y-104602162D01*
X160850833Y-104601838D01*
X160507057Y-104743883D01*
X160243808Y-105006673D01*
X160101162Y-105350201D01*
X160100838Y-105722167D01*
X160242883Y-106065943D01*
X160248600Y-106071670D01*
X160248600Y-110744000D01*
X160308537Y-111045325D01*
X160479224Y-111300776D01*
X170106896Y-120928448D01*
X169611715Y-121026946D01*
X169129946Y-121348853D01*
X168910000Y-121678026D01*
X168690054Y-121348853D01*
X168208285Y-121026946D01*
X167640000Y-120913907D01*
X167071715Y-121026946D01*
X166589946Y-121348853D01*
X166370000Y-121678026D01*
X166150054Y-121348853D01*
X165668285Y-121026946D01*
X165100000Y-120913907D01*
X164531715Y-121026946D01*
X164049946Y-121348853D01*
X163769633Y-121768371D01*
X158030475Y-116029213D01*
X157775024Y-115858526D01*
X157473699Y-115798589D01*
X152218141Y-115798589D01*
X146125578Y-109706026D01*
X147008042Y-109706026D01*
X147180312Y-110121947D01*
X147574510Y-110553821D01*
X148103973Y-110801968D01*
X148336000Y-110681469D01*
X148336000Y-109474000D01*
X147129183Y-109474000D01*
X147008042Y-109706026D01*
X146125578Y-109706026D01*
X143585578Y-107166026D01*
X147008042Y-107166026D01*
X147180312Y-107581947D01*
X147574510Y-108013821D01*
X147709313Y-108077000D01*
X147574510Y-108140179D01*
X147180312Y-108572053D01*
X147008042Y-108987974D01*
X147129183Y-109220000D01*
X148336000Y-109220000D01*
X148336000Y-106934000D01*
X147129183Y-106934000D01*
X147008042Y-107166026D01*
X143585578Y-107166026D01*
X141045578Y-104626026D01*
X147008042Y-104626026D01*
X147180312Y-105041947D01*
X147574510Y-105473821D01*
X147709313Y-105537000D01*
X147574510Y-105600179D01*
X147180312Y-106032053D01*
X147008042Y-106447974D01*
X147129183Y-106680000D01*
X148336000Y-106680000D01*
X148336000Y-104394000D01*
X147129183Y-104394000D01*
X147008042Y-104626026D01*
X141045578Y-104626026D01*
X130581400Y-94161848D01*
X130581400Y-86575322D01*
X130708400Y-86601040D01*
X131969488Y-86601040D01*
X132816600Y-87448152D01*
X132816600Y-90170000D01*
X132876537Y-90471325D01*
X133047224Y-90726776D01*
X144982826Y-102662378D01*
X145036023Y-102741993D01*
X145746207Y-103452177D01*
X146001658Y-103622864D01*
X146302983Y-103682801D01*
X147101306Y-103682801D01*
X147008042Y-103907974D01*
X147129183Y-104140000D01*
X148336000Y-104140000D01*
X148336000Y-104120000D01*
X148590000Y-104120000D01*
X148590000Y-104140000D01*
X148610000Y-104140000D01*
X148610000Y-104394000D01*
X148590000Y-104394000D01*
X148590000Y-106680000D01*
X148610000Y-106680000D01*
X148610000Y-106934000D01*
X148590000Y-106934000D01*
X148590000Y-109220000D01*
X148610000Y-109220000D01*
X148610000Y-109474000D01*
X148590000Y-109474000D01*
X148590000Y-110681469D01*
X148822027Y-110801968D01*
X149351490Y-110553821D01*
X149521495Y-110367567D01*
X149536238Y-110445917D01*
X149675310Y-110662041D01*
X149887510Y-110807031D01*
X150139400Y-110858040D01*
X151866600Y-110858040D01*
X152101917Y-110813762D01*
X152318041Y-110674690D01*
X152463031Y-110462490D01*
X152514040Y-110210600D01*
X152514040Y-108483400D01*
X152469762Y-108248083D01*
X152330690Y-108031959D01*
X152118490Y-107886969D01*
X152074869Y-107878136D01*
X152092029Y-107866670D01*
X152416885Y-107380489D01*
X152530959Y-106807000D01*
X152416885Y-106233511D01*
X152092029Y-105747330D01*
X151777248Y-105537000D01*
X152092029Y-105326670D01*
X152416885Y-104840489D01*
X152530959Y-104267000D01*
X152416885Y-103693511D01*
X152409729Y-103682801D01*
X154787599Y-103682801D01*
X155088924Y-103622864D01*
X155344375Y-103452177D01*
X156028152Y-102768400D01*
X170914889Y-102768400D01*
X170919673Y-102773192D01*
X171263201Y-102915838D01*
X171635167Y-102916162D01*
X171978943Y-102774117D01*
X172242192Y-102511327D01*
X172384838Y-102167799D01*
X172385162Y-101795833D01*
X172243117Y-101452057D01*
X172137290Y-101346046D01*
X172242192Y-101241327D01*
X172384838Y-100897799D01*
X172385162Y-100525833D01*
X172243117Y-100182057D01*
X172137290Y-100076046D01*
X172242192Y-99971327D01*
X172384838Y-99627799D01*
X172385162Y-99255833D01*
X172243117Y-98912057D01*
X172137290Y-98806046D01*
X172242192Y-98701327D01*
X172384838Y-98357799D01*
X172385162Y-97985833D01*
X172243117Y-97642057D01*
X172137290Y-97536046D01*
X172242192Y-97431327D01*
X172384838Y-97087799D01*
X172385162Y-96715833D01*
X172243117Y-96372057D01*
X172137290Y-96266046D01*
X172242192Y-96161327D01*
X172384838Y-95817799D01*
X172385162Y-95445833D01*
X172243117Y-95102057D01*
X172137290Y-94996046D01*
X172242192Y-94891327D01*
X172384838Y-94547799D01*
X172385162Y-94175833D01*
X172243117Y-93832057D01*
X172137290Y-93726046D01*
X172242192Y-93621327D01*
X172384838Y-93277799D01*
X172385162Y-92905833D01*
X172243117Y-92562057D01*
X171980327Y-92298808D01*
X171636799Y-92156162D01*
X171264833Y-92155838D01*
X170921057Y-92297883D01*
X170915330Y-92303600D01*
X157679152Y-92303600D01*
X155603719Y-90228167D01*
X167466838Y-90228167D01*
X167608883Y-90571943D01*
X167871673Y-90835192D01*
X168215201Y-90977838D01*
X168587167Y-90978162D01*
X168930943Y-90836117D01*
X168936670Y-90830400D01*
X170406889Y-90830400D01*
X170411673Y-90835192D01*
X170755201Y-90977838D01*
X171127167Y-90978162D01*
X171470943Y-90836117D01*
X171734192Y-90573327D01*
X171876838Y-90229799D01*
X171877162Y-89857833D01*
X171735117Y-89514057D01*
X171472327Y-89250808D01*
X171128799Y-89108162D01*
X170756833Y-89107838D01*
X170413057Y-89249883D01*
X170407330Y-89255600D01*
X168937111Y-89255600D01*
X168932327Y-89250808D01*
X168588799Y-89108162D01*
X168216833Y-89107838D01*
X167873057Y-89249883D01*
X167609808Y-89512673D01*
X167467162Y-89856201D01*
X167466838Y-90228167D01*
X155603719Y-90228167D01*
X150791587Y-85416035D01*
X150850600Y-85119359D01*
X150850600Y-85060641D01*
X150736526Y-84487152D01*
X150562297Y-84226400D01*
X151650960Y-84226400D01*
X151650960Y-85953600D01*
X151695238Y-86188917D01*
X151834310Y-86405041D01*
X152046510Y-86550031D01*
X152298400Y-86601040D01*
X154025600Y-86601040D01*
X154260917Y-86556762D01*
X154477041Y-86417690D01*
X154622031Y-86205490D01*
X154630864Y-86161869D01*
X154642330Y-86179029D01*
X155128511Y-86503885D01*
X155702000Y-86617959D01*
X156275489Y-86503885D01*
X156761670Y-86179029D01*
X156972000Y-85864248D01*
X157182330Y-86179029D01*
X157668511Y-86503885D01*
X158242000Y-86617959D01*
X158815489Y-86503885D01*
X159301670Y-86179029D01*
X159512000Y-85864248D01*
X159722330Y-86179029D01*
X160208511Y-86503885D01*
X160782000Y-86617959D01*
X161355489Y-86503885D01*
X161841670Y-86179029D01*
X162052000Y-85864248D01*
X162262330Y-86179029D01*
X162748511Y-86503885D01*
X163322000Y-86617959D01*
X163895489Y-86503885D01*
X164381670Y-86179029D01*
X164592000Y-85864248D01*
X164802330Y-86179029D01*
X165288511Y-86503885D01*
X165862000Y-86617959D01*
X166435489Y-86503885D01*
X166921670Y-86179029D01*
X167132000Y-85864248D01*
X167342330Y-86179029D01*
X167828511Y-86503885D01*
X168402000Y-86617959D01*
X168975489Y-86503885D01*
X169461670Y-86179029D01*
X169672000Y-85864248D01*
X169882330Y-86179029D01*
X170368511Y-86503885D01*
X170942000Y-86617959D01*
X171515489Y-86503885D01*
X172001670Y-86179029D01*
X172326526Y-85692848D01*
X172440600Y-85119359D01*
X172440600Y-85060641D01*
X172326526Y-84487152D01*
X172001670Y-84000971D01*
X171730828Y-83820000D01*
X172001670Y-83639029D01*
X172326526Y-83152848D01*
X172440600Y-82579359D01*
X172440600Y-82520641D01*
X172326526Y-81947152D01*
X172001670Y-81460971D01*
X171515489Y-81136115D01*
X170942000Y-81022041D01*
X170368511Y-81136115D01*
X169882330Y-81460971D01*
X169672000Y-81775752D01*
X169461670Y-81460971D01*
X168975489Y-81136115D01*
X168402000Y-81022041D01*
X167828511Y-81136115D01*
X167342330Y-81460971D01*
X167132000Y-81775752D01*
X166921670Y-81460971D01*
X166435489Y-81136115D01*
X165862000Y-81022041D01*
X165288511Y-81136115D01*
X164802330Y-81460971D01*
X164592000Y-81775752D01*
X164381670Y-81460971D01*
X163895489Y-81136115D01*
X163322000Y-81022041D01*
X162748511Y-81136115D01*
X162262330Y-81460971D01*
X162052000Y-81775752D01*
X161841670Y-81460971D01*
X161355489Y-81136115D01*
X160782000Y-81022041D01*
X160208511Y-81136115D01*
X159722330Y-81460971D01*
X159512000Y-81775752D01*
X159301670Y-81460971D01*
X158815489Y-81136115D01*
X158242000Y-81022041D01*
X157668511Y-81136115D01*
X157182330Y-81460971D01*
X156972000Y-81775752D01*
X156761670Y-81460971D01*
X156275489Y-81136115D01*
X155702000Y-81022041D01*
X155128511Y-81136115D01*
X154642330Y-81460971D01*
X154432000Y-81775752D01*
X154221670Y-81460971D01*
X153735489Y-81136115D01*
X153162000Y-81022041D01*
X152588511Y-81136115D01*
X152102330Y-81460971D01*
X151777474Y-81947152D01*
X151663400Y-82520641D01*
X151663400Y-82579359D01*
X151777474Y-83152848D01*
X152088574Y-83618442D01*
X152063083Y-83623238D01*
X151846959Y-83762310D01*
X151701969Y-83974510D01*
X151650960Y-84226400D01*
X150562297Y-84226400D01*
X150411670Y-84000971D01*
X150140828Y-83820000D01*
X150411670Y-83639029D01*
X150736526Y-83152848D01*
X150850600Y-82579359D01*
X150850600Y-82520641D01*
X150736526Y-81947152D01*
X150411670Y-81460971D01*
X149925489Y-81136115D01*
X149352000Y-81022041D01*
X148778511Y-81136115D01*
X148292330Y-81460971D01*
X148082000Y-81775752D01*
X147871670Y-81460971D01*
X147385489Y-81136115D01*
X146812000Y-81022041D01*
X146238511Y-81136115D01*
X145752330Y-81460971D01*
X145542000Y-81775752D01*
X145331670Y-81460971D01*
X144845489Y-81136115D01*
X144272000Y-81022041D01*
X143698511Y-81136115D01*
X143212330Y-81460971D01*
X143002000Y-81775752D01*
X142791670Y-81460971D01*
X142305489Y-81136115D01*
X141732000Y-81022041D01*
X141158511Y-81136115D01*
X140672330Y-81460971D01*
X140462000Y-81775752D01*
X140251670Y-81460971D01*
X139765489Y-81136115D01*
X139192000Y-81022041D01*
X138618511Y-81136115D01*
X138132330Y-81460971D01*
X137922000Y-81775752D01*
X137711670Y-81460971D01*
X137225489Y-81136115D01*
X136652000Y-81022041D01*
X136078511Y-81136115D01*
X135592330Y-81460971D01*
X135382000Y-81775752D01*
X135171670Y-81460971D01*
X134685489Y-81136115D01*
X134112000Y-81022041D01*
X133538511Y-81136115D01*
X133052330Y-81460971D01*
X132842000Y-81775752D01*
X132631670Y-81460971D01*
X132145489Y-81136115D01*
X131572000Y-81022041D01*
X130998511Y-81136115D01*
X130581400Y-81414820D01*
X130581400Y-80590152D01*
X135301913Y-75869639D01*
X135636000Y-75936093D01*
X136204285Y-75823054D01*
X136686054Y-75501147D01*
X136906000Y-75171974D01*
X137125946Y-75501147D01*
X137607715Y-75823054D01*
X138176000Y-75936093D01*
X138744285Y-75823054D01*
X139226054Y-75501147D01*
X139453702Y-75160447D01*
X139520817Y-75303358D01*
X139949076Y-75693645D01*
X140359110Y-75863476D01*
X140589000Y-75742155D01*
X140589000Y-74549000D01*
X140569000Y-74549000D01*
X140569000Y-74295000D01*
X140589000Y-74295000D01*
X140589000Y-73101845D01*
X140843000Y-73101845D01*
X140843000Y-74295000D01*
X140863000Y-74295000D01*
X140863000Y-74549000D01*
X140843000Y-74549000D01*
X140843000Y-75742155D01*
X141072890Y-75863476D01*
X141482924Y-75693645D01*
X141911183Y-75303358D01*
X141978298Y-75160447D01*
X142205946Y-75501147D01*
X142687715Y-75823054D01*
X143256000Y-75936093D01*
X143824285Y-75823054D01*
X144306054Y-75501147D01*
X144526000Y-75171974D01*
X144745946Y-75501147D01*
X145227715Y-75823054D01*
X145796000Y-75936093D01*
X146364285Y-75823054D01*
X146846054Y-75501147D01*
X147066000Y-75171974D01*
X147285946Y-75501147D01*
X147767715Y-75823054D01*
X148336000Y-75936093D01*
X148904285Y-75823054D01*
X149386054Y-75501147D01*
X149606000Y-75171974D01*
X149825946Y-75501147D01*
X150307715Y-75823054D01*
X150876000Y-75936093D01*
X151444285Y-75823054D01*
X151926054Y-75501147D01*
X152146000Y-75171974D01*
X152365946Y-75501147D01*
X152847715Y-75823054D01*
X153416000Y-75936093D01*
X153984285Y-75823054D01*
X154466054Y-75501147D01*
X154686000Y-75171974D01*
X154905946Y-75501147D01*
X155387715Y-75823054D01*
X155956000Y-75936093D01*
X156524285Y-75823054D01*
X157006054Y-75501147D01*
X157327961Y-75019378D01*
X157441000Y-74451093D01*
X157441000Y-74392907D01*
X158535000Y-74392907D01*
X158535000Y-74451093D01*
X158648039Y-75019378D01*
X158969946Y-75501147D01*
X159451715Y-75823054D01*
X160020000Y-75936093D01*
X160588285Y-75823054D01*
X161070054Y-75501147D01*
X161290000Y-75171974D01*
X161509946Y-75501147D01*
X161991715Y-75823054D01*
X162560000Y-75936093D01*
X163128285Y-75823054D01*
X163610054Y-75501147D01*
X163830000Y-75171974D01*
X164049946Y-75501147D01*
X164531715Y-75823054D01*
X165100000Y-75936093D01*
X165668285Y-75823054D01*
X166150054Y-75501147D01*
X166370000Y-75171974D01*
X166589946Y-75501147D01*
X167071715Y-75823054D01*
X167640000Y-75936093D01*
X168208285Y-75823054D01*
X168690054Y-75501147D01*
X168910000Y-75171974D01*
X169129946Y-75501147D01*
X169611715Y-75823054D01*
X170180000Y-75936093D01*
X170748285Y-75823054D01*
X171230054Y-75501147D01*
X171450000Y-75171974D01*
X171669946Y-75501147D01*
X172151715Y-75823054D01*
X172720000Y-75936093D01*
X173288285Y-75823054D01*
X173770054Y-75501147D01*
X173990000Y-75171974D01*
X174209946Y-75501147D01*
X174691715Y-75823054D01*
X175260000Y-75936093D01*
X175828285Y-75823054D01*
X176310054Y-75501147D01*
X176337850Y-75459548D01*
X176346838Y-75507317D01*
X176485910Y-75723441D01*
X176698110Y-75868431D01*
X176950000Y-75919440D01*
X178650000Y-75919440D01*
X178885317Y-75875162D01*
X179101441Y-75736090D01*
X179246431Y-75523890D01*
X179297440Y-75272000D01*
X179297440Y-73572000D01*
X179253162Y-73336683D01*
X179114090Y-73120559D01*
X178901890Y-72975569D01*
X178650000Y-72924560D01*
X176950000Y-72924560D01*
X176714683Y-72968838D01*
X176498559Y-73107910D01*
X176353569Y-73320110D01*
X176339914Y-73387541D01*
X176310054Y-73342853D01*
X175828285Y-73020946D01*
X175260000Y-72907907D01*
X174691715Y-73020946D01*
X174209946Y-73342853D01*
X173990000Y-73672026D01*
X173770054Y-73342853D01*
X173288285Y-73020946D01*
X172720000Y-72907907D01*
X172151715Y-73020946D01*
X171669946Y-73342853D01*
X171450000Y-73672026D01*
X171230054Y-73342853D01*
X170748285Y-73020946D01*
X170180000Y-72907907D01*
X169611715Y-73020946D01*
X169129946Y-73342853D01*
X168910000Y-73672026D01*
X168690054Y-73342853D01*
X168208285Y-73020946D01*
X167640000Y-72907907D01*
X167071715Y-73020946D01*
X166589946Y-73342853D01*
X166370000Y-73672026D01*
X166150054Y-73342853D01*
X165668285Y-73020946D01*
X165100000Y-72907907D01*
X164531715Y-73020946D01*
X164049946Y-73342853D01*
X163830000Y-73672026D01*
X163610054Y-73342853D01*
X163128285Y-73020946D01*
X162560000Y-72907907D01*
X161991715Y-73020946D01*
X161509946Y-73342853D01*
X161290000Y-73672026D01*
X161070054Y-73342853D01*
X160588285Y-73020946D01*
X160020000Y-72907907D01*
X159451715Y-73020946D01*
X158969946Y-73342853D01*
X158648039Y-73824622D01*
X158535000Y-74392907D01*
X157441000Y-74392907D01*
X157327961Y-73824622D01*
X157006054Y-73342853D01*
X156524285Y-73020946D01*
X155956000Y-72907907D01*
X155387715Y-73020946D01*
X154905946Y-73342853D01*
X154686000Y-73672026D01*
X154466054Y-73342853D01*
X153984285Y-73020946D01*
X153416000Y-72907907D01*
X152847715Y-73020946D01*
X152365946Y-73342853D01*
X152146000Y-73672026D01*
X151926054Y-73342853D01*
X151444285Y-73020946D01*
X150876000Y-72907907D01*
X150307715Y-73020946D01*
X149825946Y-73342853D01*
X149606000Y-73672026D01*
X149386054Y-73342853D01*
X148904285Y-73020946D01*
X148336000Y-72907907D01*
X147767715Y-73020946D01*
X147285946Y-73342853D01*
X147066000Y-73672026D01*
X146846054Y-73342853D01*
X146364285Y-73020946D01*
X145796000Y-72907907D01*
X145227715Y-73020946D01*
X144745946Y-73342853D01*
X144526000Y-73672026D01*
X144306054Y-73342853D01*
X143824285Y-73020946D01*
X143256000Y-72907907D01*
X142687715Y-73020946D01*
X142205946Y-73342853D01*
X141978298Y-73683553D01*
X141911183Y-73540642D01*
X141482924Y-73150355D01*
X141072890Y-72980524D01*
X140843000Y-73101845D01*
X140589000Y-73101845D01*
X140359110Y-72980524D01*
X139949076Y-73150355D01*
X139520817Y-73540642D01*
X139453702Y-73683553D01*
X139226054Y-73342853D01*
X138744285Y-73020946D01*
X138176000Y-72907907D01*
X137607715Y-73020946D01*
X137125946Y-73342853D01*
X136906000Y-73672026D01*
X136686054Y-73342853D01*
X136204285Y-73020946D01*
X135636000Y-72907907D01*
X135067715Y-73020946D01*
X134585946Y-73342853D01*
X134558150Y-73384452D01*
X134549162Y-73336683D01*
X134410090Y-73120559D01*
X134197890Y-72975569D01*
X133946000Y-72924560D01*
X132246000Y-72924560D01*
X132010683Y-72968838D01*
X131794559Y-73107910D01*
X131649569Y-73320110D01*
X131598560Y-73572000D01*
X131598560Y-75272000D01*
X131642838Y-75507317D01*
X131781910Y-75723441D01*
X131994110Y-75868431D01*
X132246000Y-75919440D01*
X132263008Y-75919440D01*
X128729224Y-79453224D01*
X128558537Y-79708675D01*
X128498600Y-80010000D01*
X128498600Y-94742000D01*
X128558537Y-95043325D01*
X128729224Y-95298776D01*
X151081224Y-117650776D01*
X151336675Y-117821463D01*
X151638000Y-117881400D01*
X156937122Y-117881400D01*
X159986282Y-120930560D01*
X159170000Y-120930560D01*
X158934683Y-120974838D01*
X158718559Y-121113910D01*
X158573569Y-121326110D01*
X158551699Y-121434107D01*
X158246924Y-121156355D01*
X157836890Y-120986524D01*
X157607000Y-121107845D01*
X157607000Y-122301000D01*
X157627000Y-122301000D01*
X157627000Y-122555000D01*
X157607000Y-122555000D01*
X157607000Y-123748155D01*
X157836890Y-123869476D01*
X158246924Y-123699645D01*
X158549937Y-123423499D01*
X158566838Y-123513317D01*
X158705910Y-123729441D01*
X158918110Y-123874431D01*
X159170000Y-123925440D01*
X160870000Y-123925440D01*
X161105317Y-123881162D01*
X161321441Y-123742090D01*
X161466431Y-123529890D01*
X161517440Y-123278000D01*
X161517440Y-122461718D01*
X163313722Y-124258000D01*
X136191286Y-124258000D01*
X136191286Y-122398907D01*
X140755000Y-122398907D01*
X140755000Y-122457093D01*
X140868039Y-123025378D01*
X141189946Y-123507147D01*
X141671715Y-123829054D01*
X142240000Y-123942093D01*
X142808285Y-123829054D01*
X143290054Y-123507147D01*
X143510000Y-123177974D01*
X143729946Y-123507147D01*
X144211715Y-123829054D01*
X144780000Y-123942093D01*
X145348285Y-123829054D01*
X145830054Y-123507147D01*
X146050000Y-123177974D01*
X146269946Y-123507147D01*
X146751715Y-123829054D01*
X147320000Y-123942093D01*
X147888285Y-123829054D01*
X148370054Y-123507147D01*
X148590000Y-123177974D01*
X148809946Y-123507147D01*
X149291715Y-123829054D01*
X149860000Y-123942093D01*
X150428285Y-123829054D01*
X150910054Y-123507147D01*
X151130000Y-123177974D01*
X151349946Y-123507147D01*
X151831715Y-123829054D01*
X152400000Y-123942093D01*
X152968285Y-123829054D01*
X153450054Y-123507147D01*
X153677702Y-123166447D01*
X153744817Y-123309358D01*
X154173076Y-123699645D01*
X154583110Y-123869476D01*
X154813000Y-123748155D01*
X154813000Y-122555000D01*
X155067000Y-122555000D01*
X155067000Y-123748155D01*
X155296890Y-123869476D01*
X155706924Y-123699645D01*
X156135183Y-123309358D01*
X156210000Y-123150046D01*
X156284817Y-123309358D01*
X156713076Y-123699645D01*
X157123110Y-123869476D01*
X157353000Y-123748155D01*
X157353000Y-122555000D01*
X155067000Y-122555000D01*
X154813000Y-122555000D01*
X154793000Y-122555000D01*
X154793000Y-122301000D01*
X154813000Y-122301000D01*
X154813000Y-121107845D01*
X155067000Y-121107845D01*
X155067000Y-122301000D01*
X157353000Y-122301000D01*
X157353000Y-121107845D01*
X157123110Y-120986524D01*
X156713076Y-121156355D01*
X156284817Y-121546642D01*
X156210000Y-121705954D01*
X156135183Y-121546642D01*
X155706924Y-121156355D01*
X155296890Y-120986524D01*
X155067000Y-121107845D01*
X154813000Y-121107845D01*
X154583110Y-120986524D01*
X154173076Y-121156355D01*
X153744817Y-121546642D01*
X153677702Y-121689553D01*
X153450054Y-121348853D01*
X152968285Y-121026946D01*
X152400000Y-120913907D01*
X151831715Y-121026946D01*
X151349946Y-121348853D01*
X151130000Y-121678026D01*
X150910054Y-121348853D01*
X150428285Y-121026946D01*
X149860000Y-120913907D01*
X149291715Y-121026946D01*
X148809946Y-121348853D01*
X148590000Y-121678026D01*
X148370054Y-121348853D01*
X147888285Y-121026946D01*
X147320000Y-120913907D01*
X146751715Y-121026946D01*
X146269946Y-121348853D01*
X146050000Y-121678026D01*
X145830054Y-121348853D01*
X145348285Y-121026946D01*
X144780000Y-120913907D01*
X144211715Y-121026946D01*
X143729946Y-121348853D01*
X143510000Y-121678026D01*
X143290054Y-121348853D01*
X142808285Y-121026946D01*
X142240000Y-120913907D01*
X141671715Y-121026946D01*
X141189946Y-121348853D01*
X140868039Y-121830622D01*
X140755000Y-122398907D01*
X136191286Y-122398907D01*
X136191286Y-121825500D01*
X130384155Y-121825500D01*
X130333947Y-121573085D01*
X129849677Y-120848323D01*
X129124915Y-120364053D01*
X128270000Y-120194000D01*
X127415085Y-120364053D01*
X126694000Y-120845866D01*
X126694000Y-72684092D01*
X126786091Y-72592000D01*
X128080958Y-72592000D01*
X127706323Y-72842323D01*
G36*
X134418823Y-89584793D02*
X145746207Y-100912177D01*
X146001658Y-101082864D01*
X146302983Y-101142801D01*
X147101306Y-101142801D01*
X147008042Y-101367974D01*
X147129183Y-101600000D01*
X148336000Y-101600000D01*
X148336000Y-101580000D01*
X148590000Y-101580000D01*
X148590000Y-101600000D01*
X148610000Y-101600000D01*
X148610000Y-101854000D01*
X148590000Y-101854000D01*
X148590000Y-101874000D01*
X148336000Y-101874000D01*
X148336000Y-101854000D01*
X147129183Y-101854000D01*
X147008042Y-102086026D01*
X147017144Y-102108001D01*
X146629135Y-102108001D01*
X146202772Y-101681638D01*
X146149575Y-101602023D01*
X134391400Y-89843848D01*
X134391400Y-89543752D01*
X134418823Y-89584793D01*
X134418823Y-89584793D01*
G37*
X134418823Y-89584793D02*
X145746207Y-100912177D01*
X146001658Y-101082864D01*
X146302983Y-101142801D01*
X147101306Y-101142801D01*
X147008042Y-101367974D01*
X147129183Y-101600000D01*
X148336000Y-101600000D01*
X148336000Y-101580000D01*
X148590000Y-101580000D01*
X148590000Y-101600000D01*
X148610000Y-101600000D01*
X148610000Y-101854000D01*
X148590000Y-101854000D01*
X148590000Y-101874000D01*
X148336000Y-101874000D01*
X148336000Y-101854000D01*
X147129183Y-101854000D01*
X147008042Y-102086026D01*
X147017144Y-102108001D01*
X146629135Y-102108001D01*
X146202772Y-101681638D01*
X146149575Y-101602023D01*
X134391400Y-89843848D01*
X134391400Y-89543752D01*
X134418823Y-89584793D01*
G36*
X135864600Y-86360954D02*
X135864600Y-88164418D01*
X135924537Y-88465743D01*
X136095224Y-88721194D01*
X145771605Y-98397575D01*
X146027056Y-98568262D01*
X146328381Y-98628199D01*
X147090787Y-98628199D01*
X147008042Y-98827974D01*
X147129183Y-99060000D01*
X148336000Y-99060000D01*
X148336000Y-99040000D01*
X148590000Y-99040000D01*
X148590000Y-99060000D01*
X148610000Y-99060000D01*
X148610000Y-99314000D01*
X148590000Y-99314000D01*
X148590000Y-99334000D01*
X148336000Y-99334000D01*
X148336000Y-99314000D01*
X147129183Y-99314000D01*
X147008042Y-99546026D01*
X147017144Y-99568001D01*
X146629135Y-99568001D01*
X135762999Y-88701865D01*
X135762999Y-86293066D01*
X135864600Y-86360954D01*
X135864600Y-86360954D01*
G37*
X135864600Y-86360954D02*
X135864600Y-88164418D01*
X135924537Y-88465743D01*
X136095224Y-88721194D01*
X145771605Y-98397575D01*
X146027056Y-98568262D01*
X146328381Y-98628199D01*
X147090787Y-98628199D01*
X147008042Y-98827974D01*
X147129183Y-99060000D01*
X148336000Y-99060000D01*
X148336000Y-99040000D01*
X148590000Y-99040000D01*
X148590000Y-99060000D01*
X148610000Y-99060000D01*
X148610000Y-99314000D01*
X148590000Y-99314000D01*
X148590000Y-99334000D01*
X148336000Y-99334000D01*
X148336000Y-99314000D01*
X147129183Y-99314000D01*
X147008042Y-99546026D01*
X147017144Y-99568001D01*
X146629135Y-99568001D01*
X135762999Y-88701865D01*
X135762999Y-86293066D01*
X135864600Y-86360954D01*
G36*
X138132330Y-86179029D02*
X138404600Y-86360954D01*
X138404600Y-88266016D01*
X138464537Y-88567341D01*
X138635224Y-88822792D01*
X145670007Y-95857575D01*
X145925458Y-96028262D01*
X146226783Y-96088200D01*
X146226788Y-96088199D01*
X147090787Y-96088199D01*
X147008042Y-96287974D01*
X147129183Y-96520000D01*
X148336000Y-96520000D01*
X148336000Y-96500000D01*
X148590000Y-96500000D01*
X148590000Y-96520000D01*
X148610000Y-96520000D01*
X148610000Y-96774000D01*
X148590000Y-96774000D01*
X148590000Y-96794000D01*
X148336000Y-96794000D01*
X148336000Y-96774000D01*
X147129183Y-96774000D01*
X147008042Y-97006026D01*
X147027663Y-97053399D01*
X146654533Y-97053399D01*
X137439400Y-87838266D01*
X137439400Y-86360954D01*
X137711670Y-86179029D01*
X137922000Y-85864248D01*
X138132330Y-86179029D01*
X138132330Y-86179029D01*
G37*
X138132330Y-86179029D02*
X138404600Y-86360954D01*
X138404600Y-88266016D01*
X138464537Y-88567341D01*
X138635224Y-88822792D01*
X145670007Y-95857575D01*
X145925458Y-96028262D01*
X146226783Y-96088200D01*
X146226788Y-96088199D01*
X147090787Y-96088199D01*
X147008042Y-96287974D01*
X147129183Y-96520000D01*
X148336000Y-96520000D01*
X148336000Y-96500000D01*
X148590000Y-96500000D01*
X148590000Y-96520000D01*
X148610000Y-96520000D01*
X148610000Y-96774000D01*
X148590000Y-96774000D01*
X148590000Y-96794000D01*
X148336000Y-96794000D01*
X148336000Y-96774000D01*
X147129183Y-96774000D01*
X147008042Y-97006026D01*
X147027663Y-97053399D01*
X146654533Y-97053399D01*
X137439400Y-87838266D01*
X137439400Y-86360954D01*
X137711670Y-86179029D01*
X137922000Y-85864248D01*
X138132330Y-86179029D01*
G36*
X140672330Y-86179029D02*
X140944600Y-86360954D01*
X140944600Y-88392000D01*
X141004537Y-88693325D01*
X141175224Y-88948776D01*
X145544023Y-93317575D01*
X145799474Y-93488262D01*
X146100799Y-93548199D01*
X147090787Y-93548199D01*
X147008042Y-93747974D01*
X147129183Y-93980000D01*
X148336000Y-93980000D01*
X148336000Y-93960000D01*
X148590000Y-93960000D01*
X148590000Y-93980000D01*
X148610000Y-93980000D01*
X148610000Y-94234000D01*
X148590000Y-94234000D01*
X148590000Y-94254000D01*
X148336000Y-94254000D01*
X148336000Y-94234000D01*
X147129183Y-94234000D01*
X147008042Y-94466026D01*
X147027663Y-94513399D01*
X146552935Y-94513399D01*
X139979400Y-87939864D01*
X139979400Y-86360954D01*
X140251670Y-86179029D01*
X140462000Y-85864248D01*
X140672330Y-86179029D01*
X140672330Y-86179029D01*
G37*
X140672330Y-86179029D02*
X140944600Y-86360954D01*
X140944600Y-88392000D01*
X141004537Y-88693325D01*
X141175224Y-88948776D01*
X145544023Y-93317575D01*
X145799474Y-93488262D01*
X146100799Y-93548199D01*
X147090787Y-93548199D01*
X147008042Y-93747974D01*
X147129183Y-93980000D01*
X148336000Y-93980000D01*
X148336000Y-93960000D01*
X148590000Y-93960000D01*
X148590000Y-93980000D01*
X148610000Y-93980000D01*
X148610000Y-94234000D01*
X148590000Y-94234000D01*
X148590000Y-94254000D01*
X148336000Y-94254000D01*
X148336000Y-94234000D01*
X147129183Y-94234000D01*
X147008042Y-94466026D01*
X147027663Y-94513399D01*
X146552935Y-94513399D01*
X139979400Y-87939864D01*
X139979400Y-86360954D01*
X140251670Y-86179029D01*
X140462000Y-85864248D01*
X140672330Y-86179029D01*
G36*
X143212330Y-86179029D02*
X143484600Y-86360954D01*
X143484600Y-88266016D01*
X143544537Y-88567341D01*
X143715224Y-88822792D01*
X145670007Y-90777575D01*
X145925458Y-90948262D01*
X146226783Y-91008199D01*
X147090787Y-91008199D01*
X147008042Y-91207974D01*
X147129183Y-91440000D01*
X148336000Y-91440000D01*
X148336000Y-91420000D01*
X148590000Y-91420000D01*
X148590000Y-91440000D01*
X148610000Y-91440000D01*
X148610000Y-91694000D01*
X148590000Y-91694000D01*
X148590000Y-91714000D01*
X148336000Y-91714000D01*
X148336000Y-91694000D01*
X147129183Y-91694000D01*
X147008042Y-91926026D01*
X147027663Y-91973399D01*
X146426951Y-91973399D01*
X142527903Y-88074351D01*
X142519400Y-88031605D01*
X142519400Y-86360954D01*
X142791670Y-86179029D01*
X143002000Y-85864248D01*
X143212330Y-86179029D01*
X143212330Y-86179029D01*
G37*
X143212330Y-86179029D02*
X143484600Y-86360954D01*
X143484600Y-88266016D01*
X143544537Y-88567341D01*
X143715224Y-88822792D01*
X145670007Y-90777575D01*
X145925458Y-90948262D01*
X146226783Y-91008199D01*
X147090787Y-91008199D01*
X147008042Y-91207974D01*
X147129183Y-91440000D01*
X148336000Y-91440000D01*
X148336000Y-91420000D01*
X148590000Y-91420000D01*
X148590000Y-91440000D01*
X148610000Y-91440000D01*
X148610000Y-91694000D01*
X148590000Y-91694000D01*
X148590000Y-91714000D01*
X148336000Y-91714000D01*
X148336000Y-91694000D01*
X147129183Y-91694000D01*
X147008042Y-91926026D01*
X147027663Y-91973399D01*
X146426951Y-91973399D01*
X142527903Y-88074351D01*
X142519400Y-88031605D01*
X142519400Y-86360954D01*
X142791670Y-86179029D01*
X143002000Y-85864248D01*
X143212330Y-86179029D01*
M02*
