G04 #@! TF.FileFunction,Soldermask,Top*
%FSLAX46Y46*%
G04 Gerber Fmt 4.6, Leading zero omitted, Abs format (unit mm)*
G04 Created by KiCad (PCBNEW 4.0.5+dfsg1-4) date Fri Nov  2 19:26:51 2018*
%MOMM*%
%LPD*%
G01*
G04 APERTURE LIST*
%ADD10C,0.100000*%
%ADD11R,1.828800X1.828800*%
%ADD12O,1.828800X1.828800*%
%ADD13R,1.801600X1.801600*%
%ADD14O,1.801600X1.801600*%
%ADD15R,0.901600X0.851600*%
%ADD16R,0.685800X2.108200*%
%ADD17R,2.108200X0.685800*%
%ADD18C,0.254000*%
G04 APERTURE END LIST*
D10*
D11*
X153162000Y-85090000D03*
D12*
X153162000Y-82550000D03*
X155702000Y-85090000D03*
X155702000Y-82550000D03*
X158242000Y-85090000D03*
X158242000Y-82550000D03*
X160782000Y-85090000D03*
X160782000Y-82550000D03*
X163322000Y-85090000D03*
X163322000Y-82550000D03*
X165862000Y-85090000D03*
X165862000Y-82550000D03*
X168402000Y-85090000D03*
X168402000Y-82550000D03*
X170942000Y-85090000D03*
X170942000Y-82550000D03*
D13*
X177800000Y-122428000D03*
D14*
X175260000Y-122428000D03*
X172720000Y-122428000D03*
X170180000Y-122428000D03*
X167640000Y-122428000D03*
X165100000Y-122428000D03*
D13*
X177800000Y-74422000D03*
D14*
X175260000Y-74422000D03*
X172720000Y-74422000D03*
X170180000Y-74422000D03*
X167640000Y-74422000D03*
X165100000Y-74422000D03*
X162560000Y-74422000D03*
X160020000Y-74422000D03*
D13*
X160020000Y-122428000D03*
D14*
X157480000Y-122428000D03*
X154940000Y-122428000D03*
X152400000Y-122428000D03*
X149860000Y-122428000D03*
X147320000Y-122428000D03*
X144780000Y-122428000D03*
X142240000Y-122428000D03*
D13*
X133096000Y-74422000D03*
D14*
X135636000Y-74422000D03*
X138176000Y-74422000D03*
X140716000Y-74422000D03*
X143256000Y-74422000D03*
X145796000Y-74422000D03*
X148336000Y-74422000D03*
X150876000Y-74422000D03*
X153416000Y-74422000D03*
X155956000Y-74422000D03*
D15*
X163818000Y-106680000D03*
X162318000Y-106680000D03*
D11*
X151003000Y-109347000D03*
D12*
X148463000Y-109347000D03*
X151003000Y-106807000D03*
X148463000Y-106807000D03*
X151003000Y-104267000D03*
X148463000Y-104267000D03*
X151003000Y-101727000D03*
X148463000Y-101727000D03*
X151003000Y-99187000D03*
X148463000Y-99187000D03*
X151003000Y-96647000D03*
X148463000Y-96647000D03*
X151003000Y-94107000D03*
X148463000Y-94107000D03*
X151003000Y-91567000D03*
X148463000Y-91567000D03*
D11*
X131572000Y-85090000D03*
D12*
X131572000Y-82550000D03*
X134112000Y-85090000D03*
X134112000Y-82550000D03*
X136652000Y-85090000D03*
X136652000Y-82550000D03*
X139192000Y-85090000D03*
X139192000Y-82550000D03*
X141732000Y-85090000D03*
X141732000Y-82550000D03*
X144272000Y-85090000D03*
X144272000Y-82550000D03*
X146812000Y-85090000D03*
X146812000Y-82550000D03*
X149352000Y-85090000D03*
X149352000Y-82550000D03*
D16*
X163576000Y-103809800D03*
X164846000Y-103809800D03*
X166116000Y-103809800D03*
X167386000Y-103809800D03*
D17*
X169214800Y-101981000D03*
X169214800Y-100711000D03*
X169214800Y-99441000D03*
X169214800Y-98171000D03*
X169214800Y-96901000D03*
X169214800Y-95631000D03*
X169214800Y-94361000D03*
X169214800Y-93091000D03*
X169214800Y-91821000D03*
D16*
X167386000Y-89992200D03*
X166116000Y-89992200D03*
X164846000Y-89992200D03*
X163576000Y-89992200D03*
X162306000Y-89992200D03*
X161036000Y-89992200D03*
X159766000Y-89992200D03*
D17*
X157937200Y-91821000D03*
X157937200Y-93091000D03*
X157937200Y-94361000D03*
X157937200Y-95631000D03*
X157937200Y-96901000D03*
X157937200Y-98171000D03*
X157937200Y-99441000D03*
X157937200Y-100711000D03*
X157937200Y-101981000D03*
D16*
X159766000Y-103809800D03*
X161036000Y-103809800D03*
X162306000Y-103809800D03*
D18*
G36*
X150114000Y-110642400D02*
X149352000Y-110642400D01*
X149352000Y-90357934D01*
X150114000Y-90357934D01*
X150114000Y-110642400D01*
X150114000Y-110642400D01*
G37*
X150114000Y-110642400D02*
X149352000Y-110642400D01*
X149352000Y-90357934D01*
X150114000Y-90357934D01*
X150114000Y-110642400D01*
M02*
