G04 #@! TF.FileFunction,Legend,Top*
%FSLAX46Y46*%
G04 Gerber Fmt 4.6, Leading zero omitted, Abs format (unit mm)*
G04 Created by KiCad (PCBNEW 4.0.5+dfsg1-4) date Fri Nov  2 19:26:51 2018*
%MOMM*%
%LPD*%
G01*
G04 APERTURE LIST*
%ADD10C,0.100000*%
%ADD11C,0.150000*%
%ADD12C,0.200000*%
%ADD13C,0.500000*%
%ADD14C,0.120000*%
%ADD15C,0.010000*%
%ADD16C,0.152400*%
G04 APERTURE END LIST*
D10*
D11*
X127436857Y-82675000D02*
X127794000Y-82675000D01*
X127365429Y-82889286D02*
X127615429Y-82139286D01*
X127865429Y-82889286D01*
X128544000Y-82889286D02*
X128294000Y-82532143D01*
X128115428Y-82889286D02*
X128115428Y-82139286D01*
X128401143Y-82139286D01*
X128472571Y-82175000D01*
X128508286Y-82210714D01*
X128544000Y-82282143D01*
X128544000Y-82389286D01*
X128508286Y-82460714D01*
X128472571Y-82496429D01*
X128401143Y-82532143D01*
X128115428Y-82532143D01*
X128865428Y-82889286D02*
X128865428Y-82139286D01*
X129044000Y-82139286D01*
X129151143Y-82175000D01*
X129222571Y-82246429D01*
X129258286Y-82317857D01*
X129294000Y-82460714D01*
X129294000Y-82567857D01*
X129258286Y-82710714D01*
X129222571Y-82782143D01*
X129151143Y-82853571D01*
X129044000Y-82889286D01*
X128865428Y-82889286D01*
X129615428Y-82817857D02*
X129651143Y-82853571D01*
X129615428Y-82889286D01*
X129579714Y-82853571D01*
X129615428Y-82817857D01*
X129615428Y-82889286D01*
X127222571Y-85429286D02*
X127222571Y-84679286D01*
X127472571Y-85215000D01*
X127722571Y-84679286D01*
X127722571Y-85429286D01*
X128079714Y-85036429D02*
X128329714Y-85036429D01*
X128436857Y-85429286D02*
X128079714Y-85429286D01*
X128079714Y-84679286D01*
X128436857Y-84679286D01*
X128758285Y-85429286D02*
X128758285Y-84679286D01*
X129008285Y-85215000D01*
X129258285Y-84679286D01*
X129258285Y-85429286D01*
X129615428Y-85357857D02*
X129651143Y-85393571D01*
X129615428Y-85429286D01*
X129579714Y-85393571D01*
X129615428Y-85357857D01*
X129615428Y-85429286D01*
X172831715Y-82675000D02*
X173188858Y-82675000D01*
X172760287Y-82889286D02*
X173010287Y-82139286D01*
X173260287Y-82889286D01*
X173938858Y-82889286D02*
X173688858Y-82532143D01*
X173510286Y-82889286D02*
X173510286Y-82139286D01*
X173796001Y-82139286D01*
X173867429Y-82175000D01*
X173903144Y-82210714D01*
X173938858Y-82282143D01*
X173938858Y-82389286D01*
X173903144Y-82460714D01*
X173867429Y-82496429D01*
X173796001Y-82532143D01*
X173510286Y-82532143D01*
X174260286Y-82889286D02*
X174260286Y-82139286D01*
X174438858Y-82139286D01*
X174546001Y-82175000D01*
X174617429Y-82246429D01*
X174653144Y-82317857D01*
X174688858Y-82460714D01*
X174688858Y-82567857D01*
X174653144Y-82710714D01*
X174617429Y-82782143D01*
X174546001Y-82853571D01*
X174438858Y-82889286D01*
X174260286Y-82889286D01*
X175010286Y-82139286D02*
X175010286Y-82746429D01*
X175046001Y-82817857D01*
X175081715Y-82853571D01*
X175153144Y-82889286D01*
X175296001Y-82889286D01*
X175367429Y-82853571D01*
X175403144Y-82817857D01*
X175438858Y-82746429D01*
X175438858Y-82139286D01*
X175796000Y-82889286D02*
X175796000Y-82139286D01*
X176153143Y-82889286D02*
X176153143Y-82139286D01*
X176581715Y-82889286D01*
X176581715Y-82139286D01*
X177081715Y-82139286D02*
X177224572Y-82139286D01*
X177296000Y-82175000D01*
X177367429Y-82246429D01*
X177403143Y-82389286D01*
X177403143Y-82639286D01*
X177367429Y-82782143D01*
X177296000Y-82853571D01*
X177224572Y-82889286D01*
X177081715Y-82889286D01*
X177010286Y-82853571D01*
X176938857Y-82782143D01*
X176903143Y-82639286D01*
X176903143Y-82389286D01*
X176938857Y-82246429D01*
X177010286Y-82175000D01*
X177081715Y-82139286D01*
X172899143Y-85429286D02*
X172899143Y-84679286D01*
X173149143Y-85215000D01*
X173399143Y-84679286D01*
X173399143Y-85429286D01*
X173756286Y-85036429D02*
X174006286Y-85036429D01*
X174113429Y-85429286D02*
X173756286Y-85429286D01*
X173756286Y-84679286D01*
X174113429Y-84679286D01*
X174434857Y-85429286D02*
X174434857Y-84679286D01*
X174684857Y-85215000D01*
X174934857Y-84679286D01*
X174934857Y-85429286D01*
X175434858Y-84679286D02*
X175577715Y-84679286D01*
X175649143Y-84715000D01*
X175720572Y-84786429D01*
X175756286Y-84929286D01*
X175756286Y-85179286D01*
X175720572Y-85322143D01*
X175649143Y-85393571D01*
X175577715Y-85429286D01*
X175434858Y-85429286D01*
X175363429Y-85393571D01*
X175292000Y-85322143D01*
X175256286Y-85179286D01*
X175256286Y-84929286D01*
X175292000Y-84786429D01*
X175363429Y-84715000D01*
X175434858Y-84679286D01*
X176506286Y-85429286D02*
X176256286Y-85072143D01*
X176077714Y-85429286D02*
X176077714Y-84679286D01*
X176363429Y-84679286D01*
X176434857Y-84715000D01*
X176470572Y-84750714D01*
X176506286Y-84822143D01*
X176506286Y-84929286D01*
X176470572Y-85000714D01*
X176434857Y-85036429D01*
X176363429Y-85072143D01*
X176077714Y-85072143D01*
X176970572Y-85072143D02*
X176970572Y-85429286D01*
X176720572Y-84679286D02*
X176970572Y-85072143D01*
X177220572Y-84679286D01*
D12*
X125984000Y-83820000D02*
X180340000Y-83820000D01*
D11*
X152716286Y-80664857D02*
X152716286Y-80164857D01*
X153466286Y-80486286D01*
X155266286Y-80272000D02*
X155266286Y-80414857D01*
X155302000Y-80486286D01*
X155337714Y-80522000D01*
X155444857Y-80593429D01*
X155587714Y-80629143D01*
X155873429Y-80629143D01*
X155944857Y-80593429D01*
X155980571Y-80557714D01*
X156016286Y-80486286D01*
X156016286Y-80343429D01*
X155980571Y-80272000D01*
X155944857Y-80236286D01*
X155873429Y-80200571D01*
X155694857Y-80200571D01*
X155623429Y-80236286D01*
X155587714Y-80272000D01*
X155552000Y-80343429D01*
X155552000Y-80486286D01*
X155587714Y-80557714D01*
X155623429Y-80593429D01*
X155694857Y-80629143D01*
X157816286Y-80236286D02*
X157816286Y-80593429D01*
X158173429Y-80629143D01*
X158137714Y-80593429D01*
X158102000Y-80522000D01*
X158102000Y-80343429D01*
X158137714Y-80272000D01*
X158173429Y-80236286D01*
X158244857Y-80200571D01*
X158423429Y-80200571D01*
X158494857Y-80236286D01*
X158530571Y-80272000D01*
X158566286Y-80343429D01*
X158566286Y-80522000D01*
X158530571Y-80593429D01*
X158494857Y-80629143D01*
X160616286Y-80272000D02*
X161116286Y-80272000D01*
X160330571Y-80450571D02*
X160866286Y-80629143D01*
X160866286Y-80164857D01*
X162916286Y-80664857D02*
X162916286Y-80200571D01*
X163202000Y-80450571D01*
X163202000Y-80343429D01*
X163237714Y-80272000D01*
X163273429Y-80236286D01*
X163344857Y-80200571D01*
X163523429Y-80200571D01*
X163594857Y-80236286D01*
X163630571Y-80272000D01*
X163666286Y-80343429D01*
X163666286Y-80557714D01*
X163630571Y-80629143D01*
X163594857Y-80664857D01*
X165537714Y-80629143D02*
X165502000Y-80593429D01*
X165466286Y-80522000D01*
X165466286Y-80343429D01*
X165502000Y-80272000D01*
X165537714Y-80236286D01*
X165609143Y-80200571D01*
X165680571Y-80200571D01*
X165787714Y-80236286D01*
X166216286Y-80664857D01*
X166216286Y-80200571D01*
X168766286Y-80200571D02*
X168766286Y-80629143D01*
X168766286Y-80414857D02*
X168016286Y-80414857D01*
X168123429Y-80486286D01*
X168194857Y-80557714D01*
X168230571Y-80629143D01*
X170566286Y-80450571D02*
X170566286Y-80379143D01*
X170602000Y-80307714D01*
X170637714Y-80272000D01*
X170709143Y-80236286D01*
X170852000Y-80200571D01*
X171030571Y-80200571D01*
X171173429Y-80236286D01*
X171244857Y-80272000D01*
X171280571Y-80307714D01*
X171316286Y-80379143D01*
X171316286Y-80450571D01*
X171280571Y-80522000D01*
X171244857Y-80557714D01*
X171173429Y-80593429D01*
X171030571Y-80629143D01*
X170852000Y-80629143D01*
X170709143Y-80593429D01*
X170637714Y-80557714D01*
X170602000Y-80522000D01*
X170566286Y-80450571D01*
X131662000Y-80629143D02*
X131662000Y-80272000D01*
X131876286Y-80700571D02*
X131126286Y-80450571D01*
X131876286Y-80200571D01*
X131126286Y-79593429D02*
X131126286Y-79950572D01*
X131483429Y-79986286D01*
X131447714Y-79950572D01*
X131412000Y-79879143D01*
X131412000Y-79700572D01*
X131447714Y-79629143D01*
X131483429Y-79593429D01*
X131554857Y-79557714D01*
X131733429Y-79557714D01*
X131804857Y-79593429D01*
X131840571Y-79629143D01*
X131876286Y-79700572D01*
X131876286Y-79879143D01*
X131840571Y-79950572D01*
X131804857Y-79986286D01*
X134212000Y-80629143D02*
X134212000Y-80272000D01*
X134426286Y-80700571D02*
X133676286Y-80450571D01*
X134426286Y-80200571D01*
X133926286Y-79629143D02*
X134426286Y-79629143D01*
X133640571Y-79807714D02*
X134176286Y-79986286D01*
X134176286Y-79522000D01*
X136976286Y-80200571D02*
X136976286Y-80629143D01*
X136976286Y-80414857D02*
X136226286Y-80414857D01*
X136333429Y-80486286D01*
X136404857Y-80557714D01*
X136440571Y-80629143D01*
X136226286Y-79950571D02*
X136226286Y-79486285D01*
X136512000Y-79736285D01*
X136512000Y-79629143D01*
X136547714Y-79557714D01*
X136583429Y-79522000D01*
X136654857Y-79486285D01*
X136833429Y-79486285D01*
X136904857Y-79522000D01*
X136940571Y-79557714D01*
X136976286Y-79629143D01*
X136976286Y-79843428D01*
X136940571Y-79914857D01*
X136904857Y-79950571D01*
X139526286Y-80200571D02*
X139526286Y-80629143D01*
X139526286Y-80414857D02*
X138776286Y-80414857D01*
X138883429Y-80486286D01*
X138954857Y-80557714D01*
X138990571Y-80629143D01*
X138847714Y-79914857D02*
X138812000Y-79879143D01*
X138776286Y-79807714D01*
X138776286Y-79629143D01*
X138812000Y-79557714D01*
X138847714Y-79522000D01*
X138919143Y-79486285D01*
X138990571Y-79486285D01*
X139097714Y-79522000D01*
X139526286Y-79950571D01*
X139526286Y-79486285D01*
X142076286Y-80200571D02*
X142076286Y-80629143D01*
X142076286Y-80414857D02*
X141326286Y-80414857D01*
X141433429Y-80486286D01*
X141504857Y-80557714D01*
X141540571Y-80629143D01*
X142076286Y-79486285D02*
X142076286Y-79914857D01*
X142076286Y-79700571D02*
X141326286Y-79700571D01*
X141433429Y-79772000D01*
X141504857Y-79843428D01*
X141540571Y-79914857D01*
X144626286Y-80200571D02*
X144626286Y-80629143D01*
X144626286Y-80414857D02*
X143876286Y-80414857D01*
X143983429Y-80486286D01*
X144054857Y-80557714D01*
X144090571Y-80629143D01*
X143876286Y-79736285D02*
X143876286Y-79664857D01*
X143912000Y-79593428D01*
X143947714Y-79557714D01*
X144019143Y-79522000D01*
X144162000Y-79486285D01*
X144340571Y-79486285D01*
X144483429Y-79522000D01*
X144554857Y-79557714D01*
X144590571Y-79593428D01*
X144626286Y-79664857D01*
X144626286Y-79736285D01*
X144590571Y-79807714D01*
X144554857Y-79843428D01*
X144483429Y-79879143D01*
X144340571Y-79914857D01*
X144162000Y-79914857D01*
X144019143Y-79879143D01*
X143947714Y-79843428D01*
X143912000Y-79807714D01*
X143876286Y-79736285D01*
X147176286Y-80557714D02*
X147176286Y-80414857D01*
X147140571Y-80343429D01*
X147104857Y-80307714D01*
X146997714Y-80236286D01*
X146854857Y-80200571D01*
X146569143Y-80200571D01*
X146497714Y-80236286D01*
X146462000Y-80272000D01*
X146426286Y-80343429D01*
X146426286Y-80486286D01*
X146462000Y-80557714D01*
X146497714Y-80593429D01*
X146569143Y-80629143D01*
X146747714Y-80629143D01*
X146819143Y-80593429D01*
X146854857Y-80557714D01*
X146890571Y-80486286D01*
X146890571Y-80343429D01*
X146854857Y-80272000D01*
X146819143Y-80236286D01*
X146747714Y-80200571D01*
X149297714Y-80486286D02*
X149262000Y-80557714D01*
X149226286Y-80593429D01*
X149154857Y-80629143D01*
X149119143Y-80629143D01*
X149047714Y-80593429D01*
X149012000Y-80557714D01*
X148976286Y-80486286D01*
X148976286Y-80343429D01*
X149012000Y-80272000D01*
X149047714Y-80236286D01*
X149119143Y-80200571D01*
X149154857Y-80200571D01*
X149226286Y-80236286D01*
X149262000Y-80272000D01*
X149297714Y-80343429D01*
X149297714Y-80486286D01*
X149333429Y-80557714D01*
X149369143Y-80593429D01*
X149440571Y-80629143D01*
X149583429Y-80629143D01*
X149654857Y-80593429D01*
X149690571Y-80557714D01*
X149726286Y-80486286D01*
X149726286Y-80343429D01*
X149690571Y-80272000D01*
X149654857Y-80236286D01*
X149583429Y-80200571D01*
X149440571Y-80200571D01*
X149369143Y-80236286D01*
X149333429Y-80272000D01*
X149297714Y-80343429D01*
X145097429Y-91192000D02*
X145026000Y-91156286D01*
X144918857Y-91156286D01*
X144811714Y-91192000D01*
X144740286Y-91263429D01*
X144704571Y-91334857D01*
X144668857Y-91477714D01*
X144668857Y-91584857D01*
X144704571Y-91727714D01*
X144740286Y-91799143D01*
X144811714Y-91870571D01*
X144918857Y-91906286D01*
X144990286Y-91906286D01*
X145097429Y-91870571D01*
X145133143Y-91834857D01*
X145133143Y-91584857D01*
X144990286Y-91584857D01*
X145454571Y-91906286D02*
X145454571Y-91156286D01*
X145883143Y-91906286D01*
X145883143Y-91156286D01*
X146240285Y-91906286D02*
X146240285Y-91156286D01*
X146418857Y-91156286D01*
X146526000Y-91192000D01*
X146597428Y-91263429D01*
X146633143Y-91334857D01*
X146668857Y-91477714D01*
X146668857Y-91584857D01*
X146633143Y-91727714D01*
X146597428Y-91799143D01*
X146526000Y-91870571D01*
X146418857Y-91906286D01*
X146240285Y-91906286D01*
D12*
X146431000Y-92583000D02*
X146431000Y-109982000D01*
D11*
X153050857Y-91657000D02*
X153408000Y-91657000D01*
X152979429Y-91871286D02*
X153229429Y-91121286D01*
X153479429Y-91871286D01*
X154122286Y-91871286D02*
X153693714Y-91871286D01*
X153908000Y-91871286D02*
X153908000Y-91121286D01*
X153836571Y-91228429D01*
X153765143Y-91299857D01*
X153693714Y-91335571D01*
X154586572Y-91121286D02*
X154658000Y-91121286D01*
X154729429Y-91157000D01*
X154765143Y-91192714D01*
X154800857Y-91264143D01*
X154836572Y-91407000D01*
X154836572Y-91585571D01*
X154800857Y-91728429D01*
X154765143Y-91799857D01*
X154729429Y-91835571D01*
X154658000Y-91871286D01*
X154586572Y-91871286D01*
X154515143Y-91835571D01*
X154479429Y-91799857D01*
X154443714Y-91728429D01*
X154408000Y-91585571D01*
X154408000Y-91407000D01*
X154443714Y-91264143D01*
X154479429Y-91192714D01*
X154515143Y-91157000D01*
X154586572Y-91121286D01*
X153050857Y-94207000D02*
X153408000Y-94207000D01*
X152979429Y-94421286D02*
X153229429Y-93671286D01*
X153479429Y-94421286D01*
X154122286Y-94421286D02*
X153693714Y-94421286D01*
X153908000Y-94421286D02*
X153908000Y-93671286D01*
X153836571Y-93778429D01*
X153765143Y-93849857D01*
X153693714Y-93885571D01*
X154836572Y-94421286D02*
X154408000Y-94421286D01*
X154622286Y-94421286D02*
X154622286Y-93671286D01*
X154550857Y-93778429D01*
X154479429Y-93849857D01*
X154408000Y-93885571D01*
X153050857Y-96757000D02*
X153408000Y-96757000D01*
X152979429Y-96971286D02*
X153229429Y-96221286D01*
X153479429Y-96971286D01*
X153765143Y-96971286D02*
X153908000Y-96971286D01*
X153979428Y-96935571D01*
X154015143Y-96899857D01*
X154086571Y-96792714D01*
X154122286Y-96649857D01*
X154122286Y-96364143D01*
X154086571Y-96292714D01*
X154050857Y-96257000D01*
X153979428Y-96221286D01*
X153836571Y-96221286D01*
X153765143Y-96257000D01*
X153729428Y-96292714D01*
X153693714Y-96364143D01*
X153693714Y-96542714D01*
X153729428Y-96614143D01*
X153765143Y-96649857D01*
X153836571Y-96685571D01*
X153979428Y-96685571D01*
X154050857Y-96649857D01*
X154086571Y-96614143D01*
X154122286Y-96542714D01*
X153050857Y-99307000D02*
X153408000Y-99307000D01*
X152979429Y-99521286D02*
X153229429Y-98771286D01*
X153479429Y-99521286D01*
X153836571Y-99092714D02*
X153765143Y-99057000D01*
X153729428Y-99021286D01*
X153693714Y-98949857D01*
X153693714Y-98914143D01*
X153729428Y-98842714D01*
X153765143Y-98807000D01*
X153836571Y-98771286D01*
X153979428Y-98771286D01*
X154050857Y-98807000D01*
X154086571Y-98842714D01*
X154122286Y-98914143D01*
X154122286Y-98949857D01*
X154086571Y-99021286D01*
X154050857Y-99057000D01*
X153979428Y-99092714D01*
X153836571Y-99092714D01*
X153765143Y-99128429D01*
X153729428Y-99164143D01*
X153693714Y-99235571D01*
X153693714Y-99378429D01*
X153729428Y-99449857D01*
X153765143Y-99485571D01*
X153836571Y-99521286D01*
X153979428Y-99521286D01*
X154050857Y-99485571D01*
X154086571Y-99449857D01*
X154122286Y-99378429D01*
X154122286Y-99235571D01*
X154086571Y-99164143D01*
X154050857Y-99128429D01*
X153979428Y-99092714D01*
X153050857Y-101857000D02*
X153408000Y-101857000D01*
X152979429Y-102071286D02*
X153229429Y-101321286D01*
X153479429Y-102071286D01*
X154122286Y-102071286D02*
X153693714Y-102071286D01*
X153908000Y-102071286D02*
X153908000Y-101321286D01*
X153836571Y-101428429D01*
X153765143Y-101499857D01*
X153693714Y-101535571D01*
X154372286Y-101321286D02*
X154836572Y-101321286D01*
X154586572Y-101607000D01*
X154693714Y-101607000D01*
X154765143Y-101642714D01*
X154800857Y-101678429D01*
X154836572Y-101749857D01*
X154836572Y-101928429D01*
X154800857Y-101999857D01*
X154765143Y-102035571D01*
X154693714Y-102071286D01*
X154479429Y-102071286D01*
X154408000Y-102035571D01*
X154372286Y-101999857D01*
X153050857Y-104407000D02*
X153408000Y-104407000D01*
X152979429Y-104621286D02*
X153229429Y-103871286D01*
X153479429Y-104621286D01*
X154122286Y-104621286D02*
X153693714Y-104621286D01*
X153908000Y-104621286D02*
X153908000Y-103871286D01*
X153836571Y-103978429D01*
X153765143Y-104049857D01*
X153693714Y-104085571D01*
X154765143Y-104121286D02*
X154765143Y-104621286D01*
X154586572Y-103835571D02*
X154408000Y-104371286D01*
X154872286Y-104371286D01*
X153050857Y-106957000D02*
X153408000Y-106957000D01*
X152979429Y-107171286D02*
X153229429Y-106421286D01*
X153479429Y-107171286D01*
X154122286Y-107171286D02*
X153693714Y-107171286D01*
X153908000Y-107171286D02*
X153908000Y-106421286D01*
X153836571Y-106528429D01*
X153765143Y-106599857D01*
X153693714Y-106635571D01*
X154800857Y-106421286D02*
X154443714Y-106421286D01*
X154408000Y-106778429D01*
X154443714Y-106742714D01*
X154515143Y-106707000D01*
X154693714Y-106707000D01*
X154765143Y-106742714D01*
X154800857Y-106778429D01*
X154836572Y-106849857D01*
X154836572Y-107028429D01*
X154800857Y-107099857D01*
X154765143Y-107135571D01*
X154693714Y-107171286D01*
X154515143Y-107171286D01*
X154443714Y-107135571D01*
X154408000Y-107099857D01*
X153050857Y-109507000D02*
X153408000Y-109507000D01*
X152979429Y-109721286D02*
X153229429Y-108971286D01*
X153479429Y-109721286D01*
X154122286Y-109721286D02*
X153693714Y-109721286D01*
X153908000Y-109721286D02*
X153908000Y-108971286D01*
X153836571Y-109078429D01*
X153765143Y-109149857D01*
X153693714Y-109185571D01*
X154408000Y-109042714D02*
X154443714Y-109007000D01*
X154515143Y-108971286D01*
X154693714Y-108971286D01*
X154765143Y-109007000D01*
X154800857Y-109042714D01*
X154836572Y-109114143D01*
X154836572Y-109185571D01*
X154800857Y-109292714D01*
X154372286Y-109721286D01*
X154836572Y-109721286D01*
X131789000Y-88209286D02*
X131789000Y-87852143D01*
X132003286Y-88280714D02*
X131253286Y-88030714D01*
X132003286Y-87780714D01*
X131253286Y-87602143D02*
X131253286Y-87102143D01*
X132003286Y-87423572D01*
X134339000Y-88209286D02*
X134339000Y-87852143D01*
X134553286Y-88280714D02*
X133803286Y-88030714D01*
X134553286Y-87780714D01*
X133803286Y-87209286D02*
X133803286Y-87352143D01*
X133839000Y-87423572D01*
X133874714Y-87459286D01*
X133981857Y-87530715D01*
X134124714Y-87566429D01*
X134410429Y-87566429D01*
X134481857Y-87530715D01*
X134517571Y-87495000D01*
X134553286Y-87423572D01*
X134553286Y-87280715D01*
X134517571Y-87209286D01*
X134481857Y-87173572D01*
X134410429Y-87137857D01*
X134231857Y-87137857D01*
X134160429Y-87173572D01*
X134124714Y-87209286D01*
X134089000Y-87280715D01*
X134089000Y-87423572D01*
X134124714Y-87495000D01*
X134160429Y-87530715D01*
X134231857Y-87566429D01*
X136889000Y-88209286D02*
X136889000Y-87852143D01*
X137103286Y-88280714D02*
X136353286Y-88030714D01*
X137103286Y-87780714D01*
X136353286Y-87173572D02*
X136353286Y-87530715D01*
X136710429Y-87566429D01*
X136674714Y-87530715D01*
X136639000Y-87459286D01*
X136639000Y-87280715D01*
X136674714Y-87209286D01*
X136710429Y-87173572D01*
X136781857Y-87137857D01*
X136960429Y-87137857D01*
X137031857Y-87173572D01*
X137067571Y-87209286D01*
X137103286Y-87280715D01*
X137103286Y-87459286D01*
X137067571Y-87530715D01*
X137031857Y-87566429D01*
X139439000Y-88209286D02*
X139439000Y-87852143D01*
X139653286Y-88280714D02*
X138903286Y-88030714D01*
X139653286Y-87780714D01*
X139153286Y-87209286D02*
X139653286Y-87209286D01*
X138867571Y-87387857D02*
X139403286Y-87566429D01*
X139403286Y-87102143D01*
X141989000Y-88209286D02*
X141989000Y-87852143D01*
X142203286Y-88280714D02*
X141453286Y-88030714D01*
X142203286Y-87780714D01*
X141453286Y-87602143D02*
X141453286Y-87137857D01*
X141739000Y-87387857D01*
X141739000Y-87280715D01*
X141774714Y-87209286D01*
X141810429Y-87173572D01*
X141881857Y-87137857D01*
X142060429Y-87137857D01*
X142131857Y-87173572D01*
X142167571Y-87209286D01*
X142203286Y-87280715D01*
X142203286Y-87495000D01*
X142167571Y-87566429D01*
X142131857Y-87602143D01*
X144539000Y-88209286D02*
X144539000Y-87852143D01*
X144753286Y-88280714D02*
X144003286Y-88030714D01*
X144753286Y-87780714D01*
X144074714Y-87566429D02*
X144039000Y-87530715D01*
X144003286Y-87459286D01*
X144003286Y-87280715D01*
X144039000Y-87209286D01*
X144074714Y-87173572D01*
X144146143Y-87137857D01*
X144217571Y-87137857D01*
X144324714Y-87173572D01*
X144753286Y-87602143D01*
X144753286Y-87137857D01*
X147089000Y-88209286D02*
X147089000Y-87852143D01*
X147303286Y-88280714D02*
X146553286Y-88030714D01*
X147303286Y-87780714D01*
X147303286Y-87137857D02*
X147303286Y-87566429D01*
X147303286Y-87352143D02*
X146553286Y-87352143D01*
X146660429Y-87423572D01*
X146731857Y-87495000D01*
X146767571Y-87566429D01*
X149639000Y-88209286D02*
X149639000Y-87852143D01*
X149853286Y-88280714D02*
X149103286Y-88030714D01*
X149853286Y-87780714D01*
X149103286Y-87387857D02*
X149103286Y-87316429D01*
X149139000Y-87245000D01*
X149174714Y-87209286D01*
X149246143Y-87173572D01*
X149389000Y-87137857D01*
X149567571Y-87137857D01*
X149710429Y-87173572D01*
X149781857Y-87209286D01*
X149817571Y-87245000D01*
X149853286Y-87316429D01*
X149853286Y-87387857D01*
X149817571Y-87459286D01*
X149781857Y-87495000D01*
X149710429Y-87530715D01*
X149567571Y-87566429D01*
X149389000Y-87566429D01*
X149246143Y-87530715D01*
X149174714Y-87495000D01*
X149139000Y-87459286D01*
X149103286Y-87387857D01*
X153593286Y-88280715D02*
X152843286Y-88280715D01*
X152843286Y-88102143D01*
X152879000Y-87995000D01*
X152950429Y-87923572D01*
X153021857Y-87887857D01*
X153164714Y-87852143D01*
X153271857Y-87852143D01*
X153414714Y-87887857D01*
X153486143Y-87923572D01*
X153557571Y-87995000D01*
X153593286Y-88102143D01*
X153593286Y-88280715D01*
X152843286Y-87602143D02*
X152843286Y-87102143D01*
X153593286Y-87423572D01*
X156143286Y-88280715D02*
X155393286Y-88280715D01*
X155393286Y-88102143D01*
X155429000Y-87995000D01*
X155500429Y-87923572D01*
X155571857Y-87887857D01*
X155714714Y-87852143D01*
X155821857Y-87852143D01*
X155964714Y-87887857D01*
X156036143Y-87923572D01*
X156107571Y-87995000D01*
X156143286Y-88102143D01*
X156143286Y-88280715D01*
X155393286Y-87209286D02*
X155393286Y-87352143D01*
X155429000Y-87423572D01*
X155464714Y-87459286D01*
X155571857Y-87530715D01*
X155714714Y-87566429D01*
X156000429Y-87566429D01*
X156071857Y-87530715D01*
X156107571Y-87495000D01*
X156143286Y-87423572D01*
X156143286Y-87280715D01*
X156107571Y-87209286D01*
X156071857Y-87173572D01*
X156000429Y-87137857D01*
X155821857Y-87137857D01*
X155750429Y-87173572D01*
X155714714Y-87209286D01*
X155679000Y-87280715D01*
X155679000Y-87423572D01*
X155714714Y-87495000D01*
X155750429Y-87530715D01*
X155821857Y-87566429D01*
X158693286Y-88280715D02*
X157943286Y-88280715D01*
X157943286Y-88102143D01*
X157979000Y-87995000D01*
X158050429Y-87923572D01*
X158121857Y-87887857D01*
X158264714Y-87852143D01*
X158371857Y-87852143D01*
X158514714Y-87887857D01*
X158586143Y-87923572D01*
X158657571Y-87995000D01*
X158693286Y-88102143D01*
X158693286Y-88280715D01*
X157943286Y-87173572D02*
X157943286Y-87530715D01*
X158300429Y-87566429D01*
X158264714Y-87530715D01*
X158229000Y-87459286D01*
X158229000Y-87280715D01*
X158264714Y-87209286D01*
X158300429Y-87173572D01*
X158371857Y-87137857D01*
X158550429Y-87137857D01*
X158621857Y-87173572D01*
X158657571Y-87209286D01*
X158693286Y-87280715D01*
X158693286Y-87459286D01*
X158657571Y-87530715D01*
X158621857Y-87566429D01*
X161243286Y-88280715D02*
X160493286Y-88280715D01*
X160493286Y-88102143D01*
X160529000Y-87995000D01*
X160600429Y-87923572D01*
X160671857Y-87887857D01*
X160814714Y-87852143D01*
X160921857Y-87852143D01*
X161064714Y-87887857D01*
X161136143Y-87923572D01*
X161207571Y-87995000D01*
X161243286Y-88102143D01*
X161243286Y-88280715D01*
X160743286Y-87209286D02*
X161243286Y-87209286D01*
X160457571Y-87387857D02*
X160993286Y-87566429D01*
X160993286Y-87102143D01*
X163793286Y-88280715D02*
X163043286Y-88280715D01*
X163043286Y-88102143D01*
X163079000Y-87995000D01*
X163150429Y-87923572D01*
X163221857Y-87887857D01*
X163364714Y-87852143D01*
X163471857Y-87852143D01*
X163614714Y-87887857D01*
X163686143Y-87923572D01*
X163757571Y-87995000D01*
X163793286Y-88102143D01*
X163793286Y-88280715D01*
X163043286Y-87602143D02*
X163043286Y-87137857D01*
X163329000Y-87387857D01*
X163329000Y-87280715D01*
X163364714Y-87209286D01*
X163400429Y-87173572D01*
X163471857Y-87137857D01*
X163650429Y-87137857D01*
X163721857Y-87173572D01*
X163757571Y-87209286D01*
X163793286Y-87280715D01*
X163793286Y-87495000D01*
X163757571Y-87566429D01*
X163721857Y-87602143D01*
X166343286Y-88280715D02*
X165593286Y-88280715D01*
X165593286Y-88102143D01*
X165629000Y-87995000D01*
X165700429Y-87923572D01*
X165771857Y-87887857D01*
X165914714Y-87852143D01*
X166021857Y-87852143D01*
X166164714Y-87887857D01*
X166236143Y-87923572D01*
X166307571Y-87995000D01*
X166343286Y-88102143D01*
X166343286Y-88280715D01*
X165664714Y-87566429D02*
X165629000Y-87530715D01*
X165593286Y-87459286D01*
X165593286Y-87280715D01*
X165629000Y-87209286D01*
X165664714Y-87173572D01*
X165736143Y-87137857D01*
X165807571Y-87137857D01*
X165914714Y-87173572D01*
X166343286Y-87602143D01*
X166343286Y-87137857D01*
X168893286Y-88280715D02*
X168143286Y-88280715D01*
X168143286Y-88102143D01*
X168179000Y-87995000D01*
X168250429Y-87923572D01*
X168321857Y-87887857D01*
X168464714Y-87852143D01*
X168571857Y-87852143D01*
X168714714Y-87887857D01*
X168786143Y-87923572D01*
X168857571Y-87995000D01*
X168893286Y-88102143D01*
X168893286Y-88280715D01*
X168893286Y-87137857D02*
X168893286Y-87566429D01*
X168893286Y-87352143D02*
X168143286Y-87352143D01*
X168250429Y-87423572D01*
X168321857Y-87495000D01*
X168357571Y-87566429D01*
X171443286Y-88280715D02*
X170693286Y-88280715D01*
X170693286Y-88102143D01*
X170729000Y-87995000D01*
X170800429Y-87923572D01*
X170871857Y-87887857D01*
X171014714Y-87852143D01*
X171121857Y-87852143D01*
X171264714Y-87887857D01*
X171336143Y-87923572D01*
X171407571Y-87995000D01*
X171443286Y-88102143D01*
X171443286Y-88280715D01*
X170693286Y-87387857D02*
X170693286Y-87316429D01*
X170729000Y-87245000D01*
X170764714Y-87209286D01*
X170836143Y-87173572D01*
X170979000Y-87137857D01*
X171157571Y-87137857D01*
X171300429Y-87173572D01*
X171371857Y-87209286D01*
X171407571Y-87245000D01*
X171443286Y-87316429D01*
X171443286Y-87387857D01*
X171407571Y-87459286D01*
X171371857Y-87495000D01*
X171300429Y-87530715D01*
X171157571Y-87566429D01*
X170979000Y-87566429D01*
X170836143Y-87530715D01*
X170764714Y-87495000D01*
X170729000Y-87459286D01*
X170693286Y-87387857D01*
X175839381Y-76295285D02*
X175839381Y-76866714D01*
X175839381Y-76581000D02*
X174839381Y-76581000D01*
X174982238Y-76676238D01*
X175077476Y-76771476D01*
X175125095Y-76866714D01*
X177252381Y-76628619D02*
X177252381Y-76533380D01*
X177300000Y-76438142D01*
X177347619Y-76390523D01*
X177442857Y-76342904D01*
X177633333Y-76295285D01*
X177871429Y-76295285D01*
X178061905Y-76342904D01*
X178157143Y-76390523D01*
X178204762Y-76438142D01*
X178252381Y-76533380D01*
X178252381Y-76628619D01*
X178204762Y-76723857D01*
X178157143Y-76771476D01*
X178061905Y-76819095D01*
X177871429Y-76866714D01*
X177633333Y-76866714D01*
X177442857Y-76819095D01*
X177347619Y-76771476D01*
X177300000Y-76723857D01*
X177252381Y-76628619D01*
D12*
X177800000Y-78486000D02*
X177418999Y-78105000D01*
X177800000Y-78486000D02*
X178181000Y-78105000D01*
X177800000Y-77343001D02*
X177800000Y-78486000D01*
X175387000Y-77343000D02*
X175768000Y-77724000D01*
X175387000Y-77343000D02*
X175006000Y-77724000D01*
X175387000Y-78486000D02*
X175387000Y-77343000D01*
D11*
X178252381Y-80049666D02*
X177776190Y-80383000D01*
X178252381Y-80621095D02*
X177252381Y-80621095D01*
X177252381Y-80240142D01*
X177300000Y-80144904D01*
X177347619Y-80097285D01*
X177442857Y-80049666D01*
X177585714Y-80049666D01*
X177680952Y-80097285D01*
X177728571Y-80144904D01*
X177776190Y-80240142D01*
X177776190Y-80621095D01*
X177252381Y-79716333D02*
X178252381Y-79049666D01*
X177252381Y-79049666D02*
X178252381Y-79716333D01*
X174839381Y-80517905D02*
X174839381Y-79946476D01*
X175839381Y-80232191D02*
X174839381Y-80232191D01*
X174839381Y-79708381D02*
X175839381Y-79041714D01*
X174839381Y-79041714D02*
X175839381Y-79708381D01*
X172267619Y-76866714D02*
X172220000Y-76819095D01*
X172172381Y-76723857D01*
X172172381Y-76485761D01*
X172220000Y-76390523D01*
X172267619Y-76342904D01*
X172362857Y-76295285D01*
X172458095Y-76295285D01*
X172600952Y-76342904D01*
X173172381Y-76914333D01*
X173172381Y-76295285D01*
X170251429Y-77700095D02*
X170203810Y-77652476D01*
X170156190Y-77557238D01*
X170251429Y-77366762D01*
X170203810Y-77271523D01*
X170156190Y-77223904D01*
X169632381Y-76938190D02*
X169632381Y-76319142D01*
X170013333Y-76652476D01*
X170013333Y-76509618D01*
X170060952Y-76414380D01*
X170108571Y-76366761D01*
X170203810Y-76319142D01*
X170441905Y-76319142D01*
X170537143Y-76366761D01*
X170584762Y-76414380D01*
X170632381Y-76509618D01*
X170632381Y-76795333D01*
X170584762Y-76890571D01*
X170537143Y-76938190D01*
X167425714Y-76390523D02*
X168092381Y-76390523D01*
X167044762Y-76628619D02*
X167759048Y-76866714D01*
X167759048Y-76247666D01*
X165171429Y-77573095D02*
X165123810Y-77525476D01*
X165076190Y-77430238D01*
X165171429Y-77239762D01*
X165123810Y-77144523D01*
X165076190Y-77096904D01*
X164552381Y-76239761D02*
X164552381Y-76715952D01*
X165028571Y-76763571D01*
X164980952Y-76715952D01*
X164933333Y-76620714D01*
X164933333Y-76382618D01*
X164980952Y-76287380D01*
X165028571Y-76239761D01*
X165123810Y-76192142D01*
X165361905Y-76192142D01*
X165457143Y-76239761D01*
X165504762Y-76287380D01*
X165552381Y-76382618D01*
X165552381Y-76620714D01*
X165504762Y-76715952D01*
X165457143Y-76763571D01*
X162631429Y-77700095D02*
X162583810Y-77652476D01*
X162536190Y-77557238D01*
X162631429Y-77366762D01*
X162583810Y-77271523D01*
X162536190Y-77223904D01*
X162012381Y-76414380D02*
X162012381Y-76604857D01*
X162060000Y-76700095D01*
X162107619Y-76747714D01*
X162250476Y-76842952D01*
X162440952Y-76890571D01*
X162821905Y-76890571D01*
X162917143Y-76842952D01*
X162964762Y-76795333D01*
X163012381Y-76700095D01*
X163012381Y-76509618D01*
X162964762Y-76414380D01*
X162917143Y-76366761D01*
X162821905Y-76319142D01*
X162583810Y-76319142D01*
X162488571Y-76366761D01*
X162440952Y-76414380D01*
X162393333Y-76509618D01*
X162393333Y-76700095D01*
X162440952Y-76795333D01*
X162488571Y-76842952D01*
X162583810Y-76890571D01*
X159472381Y-76914333D02*
X159472381Y-76247666D01*
X160472381Y-76676238D01*
X155836952Y-76676238D02*
X155789333Y-76771476D01*
X155741714Y-76819095D01*
X155646476Y-76866714D01*
X155598857Y-76866714D01*
X155503619Y-76819095D01*
X155456000Y-76771476D01*
X155408381Y-76676238D01*
X155408381Y-76485761D01*
X155456000Y-76390523D01*
X155503619Y-76342904D01*
X155598857Y-76295285D01*
X155646476Y-76295285D01*
X155741714Y-76342904D01*
X155789333Y-76390523D01*
X155836952Y-76485761D01*
X155836952Y-76676238D01*
X155884571Y-76771476D01*
X155932190Y-76819095D01*
X156027429Y-76866714D01*
X156217905Y-76866714D01*
X156313143Y-76819095D01*
X156360762Y-76771476D01*
X156408381Y-76676238D01*
X156408381Y-76485761D01*
X156360762Y-76390523D01*
X156313143Y-76342904D01*
X156217905Y-76295285D01*
X156027429Y-76295285D01*
X155932190Y-76342904D01*
X155884571Y-76390523D01*
X155836952Y-76485761D01*
X153487429Y-77573095D02*
X153439810Y-77525476D01*
X153392190Y-77430238D01*
X153487429Y-77239762D01*
X153439810Y-77144523D01*
X153392190Y-77096904D01*
X153868381Y-76668333D02*
X153868381Y-76477857D01*
X153820762Y-76382618D01*
X153773143Y-76334999D01*
X153630286Y-76239761D01*
X153439810Y-76192142D01*
X153058857Y-76192142D01*
X152963619Y-76239761D01*
X152916000Y-76287380D01*
X152868381Y-76382618D01*
X152868381Y-76573095D01*
X152916000Y-76668333D01*
X152963619Y-76715952D01*
X153058857Y-76763571D01*
X153296952Y-76763571D01*
X153392190Y-76715952D01*
X153439810Y-76668333D01*
X153487429Y-76573095D01*
X153487429Y-76382618D01*
X153439810Y-76287380D01*
X153392190Y-76239761D01*
X153296952Y-76192142D01*
X150947429Y-78060429D02*
X150899810Y-78022333D01*
X150852190Y-77946143D01*
X150947429Y-77793762D01*
X150899810Y-77717571D01*
X150852190Y-77679476D01*
X151328381Y-76955666D02*
X151328381Y-77412809D01*
X151328381Y-77184238D02*
X150328381Y-77184238D01*
X150471238Y-77260428D01*
X150566476Y-77336619D01*
X150614095Y-77412809D01*
X150328381Y-76460428D02*
X150328381Y-76384237D01*
X150376000Y-76308047D01*
X150423619Y-76269952D01*
X150518857Y-76231856D01*
X150709333Y-76193761D01*
X150947429Y-76193761D01*
X151137905Y-76231856D01*
X151233143Y-76269952D01*
X151280762Y-76308047D01*
X151328381Y-76384237D01*
X151328381Y-76460428D01*
X151280762Y-76536618D01*
X151233143Y-76574714D01*
X151137905Y-76612809D01*
X150947429Y-76650904D01*
X150709333Y-76650904D01*
X150518857Y-76612809D01*
X150423619Y-76574714D01*
X150376000Y-76536618D01*
X150328381Y-76460428D01*
X148407429Y-78430286D02*
X148359810Y-78382667D01*
X148312190Y-78287429D01*
X148407429Y-78096953D01*
X148359810Y-78001714D01*
X148312190Y-77954095D01*
X148788381Y-77049333D02*
X148788381Y-77620762D01*
X148788381Y-77335048D02*
X147788381Y-77335048D01*
X147931238Y-77430286D01*
X148026476Y-77525524D01*
X148074095Y-77620762D01*
X148788381Y-76096952D02*
X148788381Y-76668381D01*
X148788381Y-76382667D02*
X147788381Y-76382667D01*
X147931238Y-76477905D01*
X148026476Y-76573143D01*
X148074095Y-76668381D01*
X146248381Y-77152476D02*
X146248381Y-77723905D01*
X146248381Y-77438191D02*
X145248381Y-77438191D01*
X145391238Y-77533429D01*
X145486476Y-77628667D01*
X145534095Y-77723905D01*
X145343619Y-76771524D02*
X145296000Y-76723905D01*
X145248381Y-76628667D01*
X145248381Y-76390571D01*
X145296000Y-76295333D01*
X145343619Y-76247714D01*
X145438857Y-76200095D01*
X145534095Y-76200095D01*
X145676952Y-76247714D01*
X146248381Y-76819143D01*
X146248381Y-76200095D01*
X143708381Y-77152476D02*
X143708381Y-77723905D01*
X143708381Y-77438191D02*
X142708381Y-77438191D01*
X142851238Y-77533429D01*
X142946476Y-77628667D01*
X142994095Y-77723905D01*
X142708381Y-76819143D02*
X142708381Y-76200095D01*
X143089333Y-76533429D01*
X143089333Y-76390571D01*
X143136952Y-76295333D01*
X143184571Y-76247714D01*
X143279810Y-76200095D01*
X143517905Y-76200095D01*
X143613143Y-76247714D01*
X143660762Y-76295333D01*
X143708381Y-76390571D01*
X143708381Y-76676286D01*
X143660762Y-76771524D01*
X143613143Y-76819143D01*
X140341000Y-77787428D02*
X140305286Y-77858857D01*
X140305286Y-77966000D01*
X140341000Y-78073143D01*
X140412429Y-78144571D01*
X140483857Y-78180286D01*
X140626714Y-78216000D01*
X140733857Y-78216000D01*
X140876714Y-78180286D01*
X140948143Y-78144571D01*
X141019571Y-78073143D01*
X141055286Y-77966000D01*
X141055286Y-77894571D01*
X141019571Y-77787428D01*
X140983857Y-77751714D01*
X140733857Y-77751714D01*
X140733857Y-77894571D01*
X141055286Y-77430286D02*
X140305286Y-77430286D01*
X141055286Y-77001714D01*
X140305286Y-77001714D01*
X141055286Y-76644572D02*
X140305286Y-76644572D01*
X140305286Y-76466000D01*
X140341000Y-76358857D01*
X140412429Y-76287429D01*
X140483857Y-76251714D01*
X140626714Y-76216000D01*
X140733857Y-76216000D01*
X140876714Y-76251714D01*
X140948143Y-76287429D01*
X141019571Y-76358857D01*
X141055286Y-76466000D01*
X141055286Y-76644572D01*
X138428000Y-78716000D02*
X138428000Y-78358857D01*
X138642286Y-78787428D02*
X137892286Y-78537428D01*
X138642286Y-78287428D01*
X138642286Y-77608857D02*
X138285143Y-77858857D01*
X138642286Y-78037429D02*
X137892286Y-78037429D01*
X137892286Y-77751714D01*
X137928000Y-77680286D01*
X137963714Y-77644571D01*
X138035143Y-77608857D01*
X138142286Y-77608857D01*
X138213714Y-77644571D01*
X138249429Y-77680286D01*
X138285143Y-77751714D01*
X138285143Y-78037429D01*
X138249429Y-77287429D02*
X138249429Y-77037429D01*
X138642286Y-76930286D02*
X138642286Y-77287429D01*
X137892286Y-77287429D01*
X137892286Y-76930286D01*
X138249429Y-76358858D02*
X138249429Y-76608858D01*
X138642286Y-76608858D02*
X137892286Y-76608858D01*
X137892286Y-76251715D01*
X133500762Y-78660476D02*
X133548381Y-78517619D01*
X133548381Y-78279523D01*
X133500762Y-78184285D01*
X133453143Y-78136666D01*
X133357905Y-78089047D01*
X133262667Y-78089047D01*
X133167429Y-78136666D01*
X133119810Y-78184285D01*
X133072190Y-78279523D01*
X133024571Y-78470000D01*
X132976952Y-78565238D01*
X132929333Y-78612857D01*
X132834095Y-78660476D01*
X132738857Y-78660476D01*
X132643619Y-78612857D01*
X132596000Y-78565238D01*
X132548381Y-78470000D01*
X132548381Y-78231904D01*
X132596000Y-78089047D01*
X133453143Y-77089047D02*
X133500762Y-77136666D01*
X133548381Y-77279523D01*
X133548381Y-77374761D01*
X133500762Y-77517619D01*
X133405524Y-77612857D01*
X133310286Y-77660476D01*
X133119810Y-77708095D01*
X132976952Y-77708095D01*
X132786476Y-77660476D01*
X132691238Y-77612857D01*
X132596000Y-77517619D01*
X132548381Y-77374761D01*
X132548381Y-77279523D01*
X132596000Y-77136666D01*
X132643619Y-77089047D01*
X133548381Y-76184285D02*
X133548381Y-76660476D01*
X132548381Y-76660476D01*
X136040762Y-78684286D02*
X136088381Y-78541429D01*
X136088381Y-78303333D01*
X136040762Y-78208095D01*
X135993143Y-78160476D01*
X135897905Y-78112857D01*
X135802667Y-78112857D01*
X135707429Y-78160476D01*
X135659810Y-78208095D01*
X135612190Y-78303333D01*
X135564571Y-78493810D01*
X135516952Y-78589048D01*
X135469333Y-78636667D01*
X135374095Y-78684286D01*
X135278857Y-78684286D01*
X135183619Y-78636667D01*
X135136000Y-78589048D01*
X135088381Y-78493810D01*
X135088381Y-78255714D01*
X135136000Y-78112857D01*
X136088381Y-77684286D02*
X135088381Y-77684286D01*
X135088381Y-77446191D01*
X135136000Y-77303333D01*
X135231238Y-77208095D01*
X135326476Y-77160476D01*
X135516952Y-77112857D01*
X135659810Y-77112857D01*
X135850286Y-77160476D01*
X135945524Y-77208095D01*
X136040762Y-77303333D01*
X136088381Y-77446191D01*
X136088381Y-77684286D01*
X135802667Y-76731905D02*
X135802667Y-76255714D01*
X136088381Y-76827143D02*
X135088381Y-76493810D01*
X136088381Y-76160476D01*
X177966667Y-120475286D02*
X177966667Y-119999095D01*
X178252381Y-120570524D02*
X177252381Y-120237191D01*
X178252381Y-119903857D01*
X177252381Y-119094333D02*
X177252381Y-119570524D01*
X177728571Y-119618143D01*
X177680952Y-119570524D01*
X177633333Y-119475286D01*
X177633333Y-119237190D01*
X177680952Y-119141952D01*
X177728571Y-119094333D01*
X177823810Y-119046714D01*
X178061905Y-119046714D01*
X178157143Y-119094333D01*
X178204762Y-119141952D01*
X178252381Y-119237190D01*
X178252381Y-119475286D01*
X178204762Y-119570524D01*
X178157143Y-119618143D01*
X175426667Y-120475286D02*
X175426667Y-119999095D01*
X175712381Y-120570524D02*
X174712381Y-120237191D01*
X175712381Y-119903857D01*
X175045714Y-119141952D02*
X175712381Y-119141952D01*
X174664762Y-119380048D02*
X175379048Y-119618143D01*
X175379048Y-118999095D01*
X172886667Y-120475286D02*
X172886667Y-119999095D01*
X173172381Y-120570524D02*
X172172381Y-120237191D01*
X173172381Y-119903857D01*
X172172381Y-119665762D02*
X172172381Y-119046714D01*
X172553333Y-119380048D01*
X172553333Y-119237190D01*
X172600952Y-119141952D01*
X172648571Y-119094333D01*
X172743810Y-119046714D01*
X172981905Y-119046714D01*
X173077143Y-119094333D01*
X173124762Y-119141952D01*
X173172381Y-119237190D01*
X173172381Y-119522905D01*
X173124762Y-119618143D01*
X173077143Y-119665762D01*
X170346667Y-120475286D02*
X170346667Y-119999095D01*
X170632381Y-120570524D02*
X169632381Y-120237191D01*
X170632381Y-119903857D01*
X169727619Y-119618143D02*
X169680000Y-119570524D01*
X169632381Y-119475286D01*
X169632381Y-119237190D01*
X169680000Y-119141952D01*
X169727619Y-119094333D01*
X169822857Y-119046714D01*
X169918095Y-119046714D01*
X170060952Y-119094333D01*
X170632381Y-119665762D01*
X170632381Y-119046714D01*
X167806667Y-120475286D02*
X167806667Y-119999095D01*
X168092381Y-120570524D02*
X167092381Y-120237191D01*
X168092381Y-119903857D01*
X168092381Y-119046714D02*
X168092381Y-119618143D01*
X168092381Y-119332429D02*
X167092381Y-119332429D01*
X167235238Y-119427667D01*
X167330476Y-119522905D01*
X167378095Y-119618143D01*
X165266667Y-120475286D02*
X165266667Y-119999095D01*
X165552381Y-120570524D02*
X164552381Y-120237191D01*
X165552381Y-119903857D01*
X164552381Y-119380048D02*
X164552381Y-119284809D01*
X164600000Y-119189571D01*
X164647619Y-119141952D01*
X164742857Y-119094333D01*
X164933333Y-119046714D01*
X165171429Y-119046714D01*
X165361905Y-119094333D01*
X165457143Y-119141952D01*
X165504762Y-119189571D01*
X165552381Y-119284809D01*
X165552381Y-119380048D01*
X165504762Y-119475286D01*
X165457143Y-119522905D01*
X165361905Y-119570524D01*
X165171429Y-119618143D01*
X164933333Y-119618143D01*
X164742857Y-119570524D01*
X164647619Y-119522905D01*
X164600000Y-119475286D01*
X164552381Y-119380048D01*
X159472381Y-120602238D02*
X160472381Y-120268905D01*
X159472381Y-119935571D01*
X160472381Y-119602238D02*
X159472381Y-119602238D01*
X160472381Y-119126048D02*
X159472381Y-119126048D01*
X160472381Y-118554619D01*
X159472381Y-118554619D01*
X156980000Y-120014904D02*
X156932381Y-120110142D01*
X156932381Y-120252999D01*
X156980000Y-120395857D01*
X157075238Y-120491095D01*
X157170476Y-120538714D01*
X157360952Y-120586333D01*
X157503810Y-120586333D01*
X157694286Y-120538714D01*
X157789524Y-120491095D01*
X157884762Y-120395857D01*
X157932381Y-120252999D01*
X157932381Y-120157761D01*
X157884762Y-120014904D01*
X157837143Y-119967285D01*
X157503810Y-119967285D01*
X157503810Y-120157761D01*
X157932381Y-119538714D02*
X156932381Y-119538714D01*
X157932381Y-118967285D01*
X156932381Y-118967285D01*
X157932381Y-118491095D02*
X156932381Y-118491095D01*
X156932381Y-118253000D01*
X156980000Y-118110142D01*
X157075238Y-118014904D01*
X157170476Y-117967285D01*
X157360952Y-117919666D01*
X157503810Y-117919666D01*
X157694286Y-117967285D01*
X157789524Y-118014904D01*
X157884762Y-118110142D01*
X157932381Y-118253000D01*
X157932381Y-118491095D01*
X154440000Y-120014904D02*
X154392381Y-120110142D01*
X154392381Y-120252999D01*
X154440000Y-120395857D01*
X154535238Y-120491095D01*
X154630476Y-120538714D01*
X154820952Y-120586333D01*
X154963810Y-120586333D01*
X155154286Y-120538714D01*
X155249524Y-120491095D01*
X155344762Y-120395857D01*
X155392381Y-120252999D01*
X155392381Y-120157761D01*
X155344762Y-120014904D01*
X155297143Y-119967285D01*
X154963810Y-119967285D01*
X154963810Y-120157761D01*
X155392381Y-119538714D02*
X154392381Y-119538714D01*
X155392381Y-118967285D01*
X154392381Y-118967285D01*
X155392381Y-118491095D02*
X154392381Y-118491095D01*
X154392381Y-118253000D01*
X154440000Y-118110142D01*
X154535238Y-118014904D01*
X154630476Y-117967285D01*
X154820952Y-117919666D01*
X154963810Y-117919666D01*
X155154286Y-117967285D01*
X155249524Y-118014904D01*
X155344762Y-118110142D01*
X155392381Y-118253000D01*
X155392381Y-118491095D01*
X151852381Y-119951476D02*
X151852381Y-120427667D01*
X152328571Y-120475286D01*
X152280952Y-120427667D01*
X152233333Y-120332429D01*
X152233333Y-120094333D01*
X152280952Y-119999095D01*
X152328571Y-119951476D01*
X152423810Y-119903857D01*
X152661905Y-119903857D01*
X152757143Y-119951476D01*
X152804762Y-119999095D01*
X152852381Y-120094333D01*
X152852381Y-120332429D01*
X152804762Y-120427667D01*
X152757143Y-120475286D01*
X151852381Y-119618143D02*
X152852381Y-119284810D01*
X151852381Y-118951476D01*
X149312381Y-120475190D02*
X149312381Y-119856142D01*
X149693333Y-120189476D01*
X149693333Y-120046618D01*
X149740952Y-119951380D01*
X149788571Y-119903761D01*
X149883810Y-119856142D01*
X150121905Y-119856142D01*
X150217143Y-119903761D01*
X150264762Y-119951380D01*
X150312381Y-120046618D01*
X150312381Y-120332333D01*
X150264762Y-120427571D01*
X150217143Y-120475190D01*
X150217143Y-119427571D02*
X150264762Y-119379952D01*
X150312381Y-119427571D01*
X150264762Y-119475190D01*
X150217143Y-119427571D01*
X150312381Y-119427571D01*
X149312381Y-119046619D02*
X149312381Y-118427571D01*
X149693333Y-118760905D01*
X149693333Y-118618047D01*
X149740952Y-118522809D01*
X149788571Y-118475190D01*
X149883810Y-118427571D01*
X150121905Y-118427571D01*
X150217143Y-118475190D01*
X150264762Y-118522809D01*
X150312381Y-118618047D01*
X150312381Y-118903762D01*
X150264762Y-118999000D01*
X150217143Y-119046619D01*
X149312381Y-118141857D02*
X150312381Y-117808524D01*
X149312381Y-117475190D01*
X147772381Y-119927619D02*
X147296190Y-120260953D01*
X147772381Y-120499048D02*
X146772381Y-120499048D01*
X146772381Y-120118095D01*
X146820000Y-120022857D01*
X146867619Y-119975238D01*
X146962857Y-119927619D01*
X147105714Y-119927619D01*
X147200952Y-119975238D01*
X147248571Y-120022857D01*
X147296190Y-120118095D01*
X147296190Y-120499048D01*
X147724762Y-119546667D02*
X147772381Y-119403810D01*
X147772381Y-119165714D01*
X147724762Y-119070476D01*
X147677143Y-119022857D01*
X147581905Y-118975238D01*
X147486667Y-118975238D01*
X147391429Y-119022857D01*
X147343810Y-119070476D01*
X147296190Y-119165714D01*
X147248571Y-119356191D01*
X147200952Y-119451429D01*
X147153333Y-119499048D01*
X147058095Y-119546667D01*
X146962857Y-119546667D01*
X146867619Y-119499048D01*
X146820000Y-119451429D01*
X146772381Y-119356191D01*
X146772381Y-119118095D01*
X146820000Y-118975238D01*
X146772381Y-118689524D02*
X146772381Y-118118095D01*
X147772381Y-118403810D02*
X146772381Y-118403810D01*
X145232381Y-120522762D02*
X144232381Y-120522762D01*
X144232381Y-119856096D02*
X144232381Y-119665619D01*
X144280000Y-119570381D01*
X144375238Y-119475143D01*
X144565714Y-119427524D01*
X144899048Y-119427524D01*
X145089524Y-119475143D01*
X145184762Y-119570381D01*
X145232381Y-119665619D01*
X145232381Y-119856096D01*
X145184762Y-119951334D01*
X145089524Y-120046572D01*
X144899048Y-120094191D01*
X144565714Y-120094191D01*
X144375238Y-120046572D01*
X144280000Y-119951334D01*
X144232381Y-119856096D01*
X145232381Y-118427524D02*
X144756190Y-118760858D01*
X145232381Y-118998953D02*
X144232381Y-118998953D01*
X144232381Y-118618000D01*
X144280000Y-118522762D01*
X144327619Y-118475143D01*
X144422857Y-118427524D01*
X144565714Y-118427524D01*
X144660952Y-118475143D01*
X144708571Y-118522762D01*
X144756190Y-118618000D01*
X144756190Y-118998953D01*
X144708571Y-117998953D02*
X144708571Y-117665619D01*
X145232381Y-117522762D02*
X145232381Y-117998953D01*
X144232381Y-117998953D01*
X144232381Y-117522762D01*
X144708571Y-116760857D02*
X144708571Y-117094191D01*
X145232381Y-117094191D02*
X144232381Y-117094191D01*
X144232381Y-116618000D01*
X142692381Y-120546714D02*
X141692381Y-120546714D01*
X142692381Y-119975285D01*
X141692381Y-119975285D01*
X142597143Y-118927666D02*
X142644762Y-118975285D01*
X142692381Y-119118142D01*
X142692381Y-119213380D01*
X142644762Y-119356238D01*
X142549524Y-119451476D01*
X142454286Y-119499095D01*
X142263810Y-119546714D01*
X142120952Y-119546714D01*
X141930476Y-119499095D01*
X141835238Y-119451476D01*
X141740000Y-119356238D01*
X141692381Y-119213380D01*
X141692381Y-119118142D01*
X141740000Y-118975285D01*
X141787619Y-118927666D01*
D13*
X143527572Y-115530143D02*
X142099001Y-115530143D01*
X142099001Y-112530143D01*
X145099000Y-112530143D02*
X145670429Y-112530143D01*
X145956143Y-112673000D01*
X146241857Y-112958714D01*
X146384715Y-113530143D01*
X146384715Y-114530143D01*
X146241857Y-115101571D01*
X145956143Y-115387286D01*
X145670429Y-115530143D01*
X145099000Y-115530143D01*
X144813286Y-115387286D01*
X144527572Y-115101571D01*
X144384715Y-114530143D01*
X144384715Y-113530143D01*
X144527572Y-112958714D01*
X144813286Y-112673000D01*
X145099000Y-112530143D01*
X149241857Y-112673000D02*
X148956143Y-112530143D01*
X148527572Y-112530143D01*
X148099000Y-112673000D01*
X147813286Y-112958714D01*
X147670429Y-113244429D01*
X147527572Y-113815857D01*
X147527572Y-114244429D01*
X147670429Y-114815857D01*
X147813286Y-115101571D01*
X148099000Y-115387286D01*
X148527572Y-115530143D01*
X148813286Y-115530143D01*
X149241857Y-115387286D01*
X149384714Y-115244429D01*
X149384714Y-114244429D01*
X148813286Y-114244429D01*
X150670429Y-115530143D02*
X150670429Y-112530143D01*
X153813285Y-115244429D02*
X153670428Y-115387286D01*
X153241857Y-115530143D01*
X152956143Y-115530143D01*
X152527571Y-115387286D01*
X152241857Y-115101571D01*
X152099000Y-114815857D01*
X151956143Y-114244429D01*
X151956143Y-113815857D01*
X152099000Y-113244429D01*
X152241857Y-112958714D01*
X152527571Y-112673000D01*
X152956143Y-112530143D01*
X153241857Y-112530143D01*
X153670428Y-112673000D01*
X153813285Y-112815857D01*
X155813285Y-116530143D02*
X155813285Y-112244429D01*
X157813286Y-115387286D02*
X158241857Y-115530143D01*
X158956143Y-115530143D01*
X159241857Y-115387286D01*
X159384714Y-115244429D01*
X159527571Y-114958714D01*
X159527571Y-114673000D01*
X159384714Y-114387286D01*
X159241857Y-114244429D01*
X158956143Y-114101571D01*
X158384714Y-113958714D01*
X158099000Y-113815857D01*
X157956143Y-113673000D01*
X157813286Y-113387286D01*
X157813286Y-113101571D01*
X157956143Y-112815857D01*
X158099000Y-112673000D01*
X158384714Y-112530143D01*
X159099000Y-112530143D01*
X159527571Y-112673000D01*
X160813286Y-115530143D02*
X160813286Y-112530143D01*
X160813286Y-113958714D02*
X162527571Y-113958714D01*
X162527571Y-115530143D02*
X162527571Y-112530143D01*
X163956143Y-115530143D02*
X163956143Y-112530143D01*
X165384714Y-113958714D02*
X166384714Y-113958714D01*
X166813285Y-115530143D02*
X165384714Y-115530143D01*
X165384714Y-112530143D01*
X166813285Y-112530143D01*
X169527571Y-115530143D02*
X168099000Y-115530143D01*
X168099000Y-112530143D01*
X170527571Y-115530143D02*
X170527571Y-112530143D01*
X171241856Y-112530143D01*
X171670428Y-112673000D01*
X171956142Y-112958714D01*
X172098999Y-113244429D01*
X172241856Y-113815857D01*
X172241856Y-114244429D01*
X172098999Y-114815857D01*
X171956142Y-115101571D01*
X171670428Y-115387286D01*
X171241856Y-115530143D01*
X170527571Y-115530143D01*
D11*
X172212000Y-81280000D02*
X151892000Y-81280000D01*
X154432000Y-86360000D02*
X172212000Y-86360000D01*
X172212000Y-81280000D02*
X172212000Y-86360000D01*
X151892000Y-81280000D02*
X151892000Y-83820000D01*
X151612000Y-85090000D02*
X151612000Y-86640000D01*
X151892000Y-83820000D02*
X154432000Y-83820000D01*
X154432000Y-83820000D02*
X154432000Y-86360000D01*
X151612000Y-86640000D02*
X153162000Y-86640000D01*
D14*
X163770000Y-121098000D02*
X163770000Y-123758000D01*
X176530000Y-121098000D02*
X163770000Y-121098000D01*
X176530000Y-123758000D02*
X163770000Y-123758000D01*
X176530000Y-121098000D02*
X176530000Y-123758000D01*
X177800000Y-121098000D02*
X179130000Y-121098000D01*
X179130000Y-121098000D02*
X179130000Y-122428000D01*
X158690000Y-73092000D02*
X158690000Y-75752000D01*
X176530000Y-73092000D02*
X158690000Y-73092000D01*
X176530000Y-75752000D02*
X158690000Y-75752000D01*
X176530000Y-73092000D02*
X176530000Y-75752000D01*
X177800000Y-73092000D02*
X179130000Y-73092000D01*
X179130000Y-73092000D02*
X179130000Y-74422000D01*
X140910000Y-121098000D02*
X140910000Y-123758000D01*
X158750000Y-121098000D02*
X140910000Y-121098000D01*
X158750000Y-123758000D02*
X140910000Y-123758000D01*
X158750000Y-121098000D02*
X158750000Y-123758000D01*
X160020000Y-121098000D02*
X161350000Y-121098000D01*
X161350000Y-121098000D02*
X161350000Y-122428000D01*
D15*
G36*
X139760354Y-112756280D02*
X139750217Y-112784466D01*
X139733787Y-112827983D01*
X139708911Y-112894720D01*
X139677172Y-112980361D01*
X139640152Y-113080591D01*
X139599436Y-113191096D01*
X139556605Y-113307559D01*
X139513244Y-113425667D01*
X139470936Y-113541103D01*
X139431264Y-113649553D01*
X139395811Y-113746701D01*
X139366161Y-113828233D01*
X139343896Y-113889832D01*
X139330600Y-113927185D01*
X139327467Y-113936684D01*
X139343695Y-113938675D01*
X139389563Y-113940765D01*
X139460844Y-113942853D01*
X139553310Y-113944838D01*
X139662736Y-113946617D01*
X139784895Y-113948090D01*
X139814591Y-113948377D01*
X140301716Y-113952867D01*
X139740305Y-114695173D01*
X139634629Y-114834761D01*
X139534696Y-114966499D01*
X139442438Y-115087856D01*
X139359787Y-115196304D01*
X139288676Y-115289314D01*
X139231036Y-115364356D01*
X139188800Y-115418901D01*
X139163900Y-115450420D01*
X139158144Y-115457173D01*
X139144070Y-115465999D01*
X139146061Y-115447084D01*
X139147214Y-115443000D01*
X139157713Y-115405649D01*
X139174754Y-115343666D01*
X139197064Y-115261800D01*
X139223364Y-115164801D01*
X139252378Y-115057418D01*
X139282831Y-114944400D01*
X139313445Y-114830498D01*
X139342944Y-114720459D01*
X139370053Y-114619034D01*
X139393493Y-114530973D01*
X139411990Y-114461023D01*
X139424266Y-114413936D01*
X139429046Y-114394460D01*
X139429066Y-114394256D01*
X139412847Y-114391773D01*
X139367046Y-114389529D01*
X139295947Y-114387610D01*
X139203835Y-114386104D01*
X139094993Y-114385096D01*
X138973706Y-114384674D01*
X138954933Y-114384666D01*
X138832166Y-114384377D01*
X138721210Y-114383560D01*
X138626347Y-114382292D01*
X138551864Y-114380649D01*
X138502043Y-114378707D01*
X138481169Y-114376544D01*
X138480800Y-114376209D01*
X138490903Y-114361927D01*
X138519747Y-114323840D01*
X138565133Y-114264757D01*
X138624861Y-114187491D01*
X138696734Y-114094852D01*
X138778551Y-113989653D01*
X138868115Y-113874704D01*
X138963226Y-113752817D01*
X139061685Y-113626803D01*
X139161294Y-113499473D01*
X139259853Y-113373639D01*
X139355164Y-113252112D01*
X139445028Y-113137702D01*
X139527246Y-113033223D01*
X139599618Y-112941484D01*
X139659947Y-112865298D01*
X139706033Y-112807475D01*
X139735678Y-112770826D01*
X139745666Y-112759067D01*
X139760370Y-112745877D01*
X139760354Y-112756280D01*
X139760354Y-112756280D01*
G37*
X139760354Y-112756280D02*
X139750217Y-112784466D01*
X139733787Y-112827983D01*
X139708911Y-112894720D01*
X139677172Y-112980361D01*
X139640152Y-113080591D01*
X139599436Y-113191096D01*
X139556605Y-113307559D01*
X139513244Y-113425667D01*
X139470936Y-113541103D01*
X139431264Y-113649553D01*
X139395811Y-113746701D01*
X139366161Y-113828233D01*
X139343896Y-113889832D01*
X139330600Y-113927185D01*
X139327467Y-113936684D01*
X139343695Y-113938675D01*
X139389563Y-113940765D01*
X139460844Y-113942853D01*
X139553310Y-113944838D01*
X139662736Y-113946617D01*
X139784895Y-113948090D01*
X139814591Y-113948377D01*
X140301716Y-113952867D01*
X139740305Y-114695173D01*
X139634629Y-114834761D01*
X139534696Y-114966499D01*
X139442438Y-115087856D01*
X139359787Y-115196304D01*
X139288676Y-115289314D01*
X139231036Y-115364356D01*
X139188800Y-115418901D01*
X139163900Y-115450420D01*
X139158144Y-115457173D01*
X139144070Y-115465999D01*
X139146061Y-115447084D01*
X139147214Y-115443000D01*
X139157713Y-115405649D01*
X139174754Y-115343666D01*
X139197064Y-115261800D01*
X139223364Y-115164801D01*
X139252378Y-115057418D01*
X139282831Y-114944400D01*
X139313445Y-114830498D01*
X139342944Y-114720459D01*
X139370053Y-114619034D01*
X139393493Y-114530973D01*
X139411990Y-114461023D01*
X139424266Y-114413936D01*
X139429046Y-114394460D01*
X139429066Y-114394256D01*
X139412847Y-114391773D01*
X139367046Y-114389529D01*
X139295947Y-114387610D01*
X139203835Y-114386104D01*
X139094993Y-114385096D01*
X138973706Y-114384674D01*
X138954933Y-114384666D01*
X138832166Y-114384377D01*
X138721210Y-114383560D01*
X138626347Y-114382292D01*
X138551864Y-114380649D01*
X138502043Y-114378707D01*
X138481169Y-114376544D01*
X138480800Y-114376209D01*
X138490903Y-114361927D01*
X138519747Y-114323840D01*
X138565133Y-114264757D01*
X138624861Y-114187491D01*
X138696734Y-114094852D01*
X138778551Y-113989653D01*
X138868115Y-113874704D01*
X138963226Y-113752817D01*
X139061685Y-113626803D01*
X139161294Y-113499473D01*
X139259853Y-113373639D01*
X139355164Y-113252112D01*
X139445028Y-113137702D01*
X139527246Y-113033223D01*
X139599618Y-112941484D01*
X139659947Y-112865298D01*
X139706033Y-112807475D01*
X139735678Y-112770826D01*
X139745666Y-112759067D01*
X139760370Y-112745877D01*
X139760354Y-112756280D01*
D14*
X157286000Y-75752000D02*
X157286000Y-73092000D01*
X134366000Y-75752000D02*
X157286000Y-75752000D01*
X134366000Y-73092000D02*
X157286000Y-73092000D01*
X134366000Y-75752000D02*
X134366000Y-73092000D01*
X133096000Y-75752000D02*
X131766000Y-75752000D01*
X131766000Y-75752000D02*
X131766000Y-74422000D01*
D11*
X163418000Y-107280000D02*
X162718000Y-107280000D01*
X162718000Y-106080000D02*
X163418000Y-106080000D01*
X147193000Y-90297000D02*
X147193000Y-110617000D01*
X152273000Y-108077000D02*
X152273000Y-90297000D01*
X147193000Y-90297000D02*
X152273000Y-90297000D01*
X147193000Y-110617000D02*
X149733000Y-110617000D01*
X151003000Y-110897000D02*
X152553000Y-110897000D01*
X149733000Y-110617000D02*
X149733000Y-108077000D01*
X149733000Y-108077000D02*
X152273000Y-108077000D01*
X152553000Y-110897000D02*
X152553000Y-109347000D01*
X150622000Y-81280000D02*
X130302000Y-81280000D01*
X132842000Y-86360000D02*
X150622000Y-86360000D01*
X150622000Y-81280000D02*
X150622000Y-86360000D01*
X130302000Y-81280000D02*
X130302000Y-83820000D01*
X130022000Y-85090000D02*
X130022000Y-86640000D01*
X130302000Y-83820000D02*
X132842000Y-83820000D01*
X132842000Y-83820000D02*
X132842000Y-86360000D01*
X130022000Y-86640000D02*
X131572000Y-86640000D01*
D16*
X168046400Y-103911400D02*
X169316400Y-103911400D01*
X169316400Y-102641400D02*
X169316400Y-102616000D01*
X168021000Y-103911400D02*
X168046400Y-103911400D01*
X169316400Y-91186000D02*
X169316400Y-89890600D01*
X159131000Y-89890600D02*
X157835600Y-89890600D01*
X157835600Y-102616000D02*
X157835600Y-103911400D01*
X169316400Y-102641400D02*
X168046400Y-103911400D01*
X169316400Y-89890600D02*
X168021000Y-89890600D01*
X157835600Y-89890600D02*
X157835600Y-91186000D01*
X157835600Y-103911400D02*
X159131000Y-103911400D01*
X169316400Y-103911400D02*
X169316400Y-102641400D01*
D11*
M02*
