M48
;DRILL file {KiCad 4.0.5+dfsg1-4} date Fri Nov  2 19:26:54 2018
;FORMAT={-:-/ absolute / inch / decimal}
FMAT,2
INCH,TZ
T1C0.016
T2C0.039
T3C0.040
%
G90
G05
M72
T1
X6.34Y-4.155
X6.39Y-4.155
X6.39Y-4.3
X6.45Y-4.155
X6.49Y-3.415
X6.63Y-3.545
X6.73Y-3.545
X6.75Y-3.665
X6.75Y-3.715
X6.75Y-3.765
X6.75Y-3.815
X6.75Y-3.865
X6.75Y-3.915
X6.75Y-3.965
X6.75Y-4.015
T2
X5.24Y-2.93
X5.34Y-2.93
X5.44Y-2.93
X5.54Y-2.93
X5.6Y-4.82
X5.64Y-2.93
X5.7Y-4.82
X5.74Y-2.93
X5.8Y-4.82
X5.84Y-2.93
X5.9Y-4.82
X5.94Y-2.93
X6.Y-4.82
X6.04Y-2.93
X6.1Y-4.82
X6.14Y-2.93
X6.2Y-4.82
X6.3Y-2.93
X6.3Y-4.82
X6.4Y-2.93
X6.5Y-2.93
X6.5Y-4.82
X6.6Y-2.93
X6.6Y-4.82
X6.7Y-2.93
X6.7Y-4.82
X6.8Y-2.93
X6.8Y-4.82
X6.9Y-2.93
X6.9Y-4.82
X7.Y-2.93
X7.Y-4.82
T3
X5.18Y-3.25
X5.18Y-3.35
X5.28Y-3.25
X5.28Y-3.35
X5.38Y-3.25
X5.38Y-3.35
X5.48Y-3.25
X5.48Y-3.35
X5.58Y-3.25
X5.58Y-3.35
X5.68Y-3.25
X5.68Y-3.35
X5.78Y-3.25
X5.78Y-3.35
X5.845Y-3.605
X5.845Y-3.705
X5.845Y-3.805
X5.845Y-3.905
X5.845Y-4.005
X5.845Y-4.105
X5.845Y-4.205
X5.845Y-4.305
X5.88Y-3.25
X5.88Y-3.35
X5.945Y-3.605
X5.945Y-3.705
X5.945Y-3.805
X5.945Y-3.905
X5.945Y-4.005
X5.945Y-4.105
X5.945Y-4.205
X5.945Y-4.305
X6.03Y-3.25
X6.03Y-3.35
X6.13Y-3.25
X6.13Y-3.35
X6.23Y-3.25
X6.23Y-3.35
X6.33Y-3.25
X6.33Y-3.35
X6.43Y-3.25
X6.43Y-3.35
X6.53Y-3.25
X6.53Y-3.35
X6.63Y-3.25
X6.63Y-3.35
X6.73Y-3.25
X6.73Y-3.35
T0
M30
