G04 #@! TF.FileFunction,Legend,Top*
%FSLAX46Y46*%
G04 Gerber Fmt 4.6, Leading zero omitted, Abs format (unit mm)*
G04 Created by KiCad (PCBNEW 4.0.5+dfsg1-4) date Tue Nov  6 22:38:28 2018*
%MOMM*%
%LPD*%
G01*
G04 APERTURE LIST*
%ADD10C,0.100000*%
%ADD11C,0.120000*%
%ADD12C,0.150000*%
G04 APERTURE END LIST*
D10*
D11*
X166754796Y-91424925D02*
X167620822Y-90924925D01*
X167620822Y-90924925D02*
X166570822Y-89106272D01*
X166754796Y-91424925D02*
X165704796Y-89606272D01*
X165708801Y-111498926D02*
X166574827Y-111998926D01*
X166574827Y-111998926D02*
X167624827Y-110180273D01*
X165708801Y-111498926D02*
X166758801Y-109680273D01*
X147457816Y-120537093D02*
X147457816Y-121537093D01*
X147457816Y-121537093D02*
X149557816Y-121537093D01*
X147457816Y-120537093D02*
X149557816Y-120537093D01*
X130506828Y-109247260D02*
X129640802Y-109747260D01*
X129640802Y-109747260D02*
X130690802Y-111565913D01*
X130506828Y-109247260D02*
X131556828Y-111065913D01*
X132168828Y-89104080D02*
X131302802Y-88604080D01*
X131302802Y-88604080D02*
X130252802Y-90422733D01*
X132168828Y-89104080D02*
X131118828Y-90922733D01*
X150019812Y-80389094D02*
X150019812Y-79389094D01*
X150019812Y-79389094D02*
X147919812Y-79389094D01*
X150019812Y-80389094D02*
X147919812Y-80389094D01*
X174266800Y-87291748D02*
X175132826Y-86791748D01*
X175132826Y-86791748D02*
X174082826Y-84973095D01*
X174266800Y-87291748D02*
X173216800Y-85473095D01*
X173182798Y-115747748D02*
X174048824Y-116247748D01*
X174048824Y-116247748D02*
X175098824Y-114429095D01*
X173182798Y-115747748D02*
X174232798Y-113929095D01*
X147457813Y-129173092D02*
X147457813Y-130173092D01*
X147457813Y-130173092D02*
X149557813Y-130173092D01*
X147457813Y-129173092D02*
X149557813Y-129173092D01*
X123186627Y-113644590D02*
X122320601Y-114144590D01*
X122320601Y-114144590D02*
X123370601Y-115963243D01*
X123186627Y-113644590D02*
X124236627Y-115463243D01*
X124694822Y-84601258D02*
X123828796Y-84101258D01*
X123828796Y-84101258D02*
X122778796Y-85919911D01*
X124694822Y-84601258D02*
X123644822Y-86419911D01*
X150019812Y-71753094D02*
X150019812Y-70753094D01*
X150019812Y-70753094D02*
X147919812Y-70753094D01*
X150019812Y-71753094D02*
X147919812Y-71753094D01*
X181740802Y-83042929D02*
X182606828Y-82542929D01*
X182606828Y-82542929D02*
X181556828Y-80724276D01*
X181740802Y-83042929D02*
X180690802Y-81224276D01*
X180948801Y-120388929D02*
X181814827Y-120888929D01*
X181814827Y-120888929D02*
X182864827Y-119070276D01*
X180948801Y-120388929D02*
X181998801Y-118570276D01*
X147457815Y-138571094D02*
X147457815Y-139571094D01*
X147457815Y-139571094D02*
X149557815Y-139571094D01*
X147457815Y-138571094D02*
X149557815Y-138571094D01*
X115266824Y-118391258D02*
X114400798Y-118891258D01*
X114400798Y-118891258D02*
X115450798Y-120709911D01*
X115266824Y-118391258D02*
X116316824Y-120209911D01*
X117328829Y-80283262D02*
X116462803Y-79783262D01*
X116462803Y-79783262D02*
X115412803Y-81601915D01*
X117328829Y-80283262D02*
X116278829Y-82101915D01*
X150057812Y-63371090D02*
X150057812Y-62371090D01*
X150057812Y-62371090D02*
X147957812Y-62371090D01*
X150057812Y-63371090D02*
X147957812Y-63371090D01*
D12*
M02*
