G04 #@! TF.FileFunction,Copper,L2,Bot,Signal*
%FSLAX46Y46*%
G04 Gerber Fmt 4.6, Leading zero omitted, Abs format (unit mm)*
G04 Created by KiCad (PCBNEW 4.0.5+dfsg1-4) date Tue Nov  6 22:38:28 2018*
%MOMM*%
%LPD*%
G01*
G04 APERTURE LIST*
%ADD10C,0.100000*%
%ADD11C,0.150000*%
%ADD12C,0.600000*%
%ADD13R,2.600000X3.000000*%
%ADD14R,3.600000X3.000000*%
%ADD15R,1.524000X1.524000*%
%ADD16R,0.500000X0.900000*%
%ADD17R,2.000000X3.000000*%
%ADD18C,0.203200*%
G04 APERTURE END LIST*
D10*
D11*
X146733108Y-103048082D02*
X146768822Y-103083796D01*
X146875965Y-103119511D01*
X146947394Y-103119511D01*
X147054537Y-103083796D01*
X147125965Y-103012368D01*
X147161680Y-102940939D01*
X147197394Y-102798082D01*
X147197394Y-102690939D01*
X147161680Y-102548082D01*
X147125965Y-102476654D01*
X147054537Y-102405225D01*
X146947394Y-102369511D01*
X146875965Y-102369511D01*
X146768822Y-102405225D01*
X146733108Y-102440939D01*
X146411680Y-103119511D02*
X146411680Y-102369511D01*
X146233108Y-102369511D01*
X146125965Y-102405225D01*
X146054537Y-102476654D01*
X146018822Y-102548082D01*
X145983108Y-102690939D01*
X145983108Y-102798082D01*
X146018822Y-102940939D01*
X146054537Y-103012368D01*
X146125965Y-103083796D01*
X146233108Y-103119511D01*
X146411680Y-103119511D01*
X145661680Y-103119511D02*
X145661680Y-102369511D01*
X145411680Y-102905225D01*
X145161680Y-102369511D01*
X145161680Y-103119511D01*
X143804536Y-103119511D02*
X144054536Y-102762368D01*
X144233108Y-103119511D02*
X144233108Y-102369511D01*
X143947393Y-102369511D01*
X143875965Y-102405225D01*
X143840250Y-102440939D01*
X143804536Y-102512368D01*
X143804536Y-102619511D01*
X143840250Y-102690939D01*
X143875965Y-102726654D01*
X143947393Y-102762368D01*
X144233108Y-102762368D01*
X143483108Y-103048082D02*
X143447393Y-103083796D01*
X143483108Y-103119511D01*
X143518822Y-103083796D01*
X143483108Y-103048082D01*
X143483108Y-103119511D01*
X143483108Y-102655225D02*
X143447393Y-102690939D01*
X143483108Y-102726654D01*
X143518822Y-102690939D01*
X143483108Y-102655225D01*
X143483108Y-102726654D01*
X142875965Y-102726654D02*
X142768822Y-102762368D01*
X142733107Y-102798082D01*
X142697393Y-102869511D01*
X142697393Y-102976654D01*
X142733107Y-103048082D01*
X142768822Y-103083796D01*
X142840250Y-103119511D01*
X143125965Y-103119511D01*
X143125965Y-102369511D01*
X142875965Y-102369511D01*
X142804536Y-102405225D01*
X142768822Y-102440939D01*
X142733107Y-102512368D01*
X142733107Y-102583796D01*
X142768822Y-102655225D01*
X142804536Y-102690939D01*
X142875965Y-102726654D01*
X143125965Y-102726654D01*
X147447394Y-104394511D02*
X147875966Y-104394511D01*
X147661680Y-104394511D02*
X147661680Y-103644511D01*
X147733109Y-103751654D01*
X147804537Y-103823082D01*
X147875966Y-103858796D01*
X146983108Y-103644511D02*
X146911680Y-103644511D01*
X146840251Y-103680225D01*
X146804537Y-103715939D01*
X146768823Y-103787368D01*
X146733108Y-103930225D01*
X146733108Y-104108796D01*
X146768823Y-104251654D01*
X146804537Y-104323082D01*
X146840251Y-104358796D01*
X146911680Y-104394511D01*
X146983108Y-104394511D01*
X147054537Y-104358796D01*
X147090251Y-104323082D01*
X147125966Y-104251654D01*
X147161680Y-104108796D01*
X147161680Y-103930225D01*
X147125966Y-103787368D01*
X147090251Y-103715939D01*
X147054537Y-103680225D01*
X146983108Y-103644511D01*
X146411680Y-104108796D02*
X145840251Y-104108796D01*
X145518823Y-103715939D02*
X145483109Y-103680225D01*
X145411680Y-103644511D01*
X145233109Y-103644511D01*
X145161680Y-103680225D01*
X145125966Y-103715939D01*
X145090251Y-103787368D01*
X145090251Y-103858796D01*
X145125966Y-103965939D01*
X145554537Y-104394511D01*
X145090251Y-104394511D01*
X144661680Y-103965939D02*
X144733108Y-103930225D01*
X144768823Y-103894511D01*
X144804537Y-103823082D01*
X144804537Y-103787368D01*
X144768823Y-103715939D01*
X144733108Y-103680225D01*
X144661680Y-103644511D01*
X144518823Y-103644511D01*
X144447394Y-103680225D01*
X144411680Y-103715939D01*
X144375965Y-103787368D01*
X144375965Y-103823082D01*
X144411680Y-103894511D01*
X144447394Y-103930225D01*
X144518823Y-103965939D01*
X144661680Y-103965939D01*
X144733108Y-104001654D01*
X144768823Y-104037368D01*
X144804537Y-104108796D01*
X144804537Y-104251654D01*
X144768823Y-104323082D01*
X144733108Y-104358796D01*
X144661680Y-104394511D01*
X144518823Y-104394511D01*
X144447394Y-104358796D01*
X144411680Y-104323082D01*
X144375965Y-104251654D01*
X144375965Y-104108796D01*
X144411680Y-104037368D01*
X144447394Y-104001654D01*
X144518823Y-103965939D01*
X144054537Y-104108796D02*
X143483108Y-104108796D01*
X142733108Y-104394511D02*
X143161680Y-104394511D01*
X142947394Y-104394511D02*
X142947394Y-103644511D01*
X143018823Y-103751654D01*
X143090251Y-103823082D01*
X143161680Y-103858796D01*
X142304537Y-103965939D02*
X142375965Y-103930225D01*
X142411680Y-103894511D01*
X142447394Y-103823082D01*
X142447394Y-103787368D01*
X142411680Y-103715939D01*
X142375965Y-103680225D01*
X142304537Y-103644511D01*
X142161680Y-103644511D01*
X142090251Y-103680225D01*
X142054537Y-103715939D01*
X142018822Y-103787368D01*
X142018822Y-103823082D01*
X142054537Y-103894511D01*
X142090251Y-103930225D01*
X142161680Y-103965939D01*
X142304537Y-103965939D01*
X142375965Y-104001654D01*
X142411680Y-104037368D01*
X142447394Y-104108796D01*
X142447394Y-104251654D01*
X142411680Y-104323082D01*
X142375965Y-104358796D01*
X142304537Y-104394511D01*
X142161680Y-104394511D01*
X142090251Y-104358796D01*
X142054537Y-104323082D01*
X142018822Y-104251654D01*
X142018822Y-104108796D01*
X142054537Y-104037368D01*
X142090251Y-104001654D01*
X142161680Y-103965939D01*
D12*
X153202393Y-75350724D03*
X153202393Y-76366724D03*
X153202393Y-77382726D03*
X153202393Y-78398725D03*
X151805393Y-83605725D03*
X148694966Y-83330607D03*
X148694966Y-81562841D03*
X144185393Y-75350724D03*
X147233394Y-90844724D03*
X148122393Y-91733724D03*
X144185393Y-76366724D03*
X144185393Y-77382726D03*
D13*
X149034532Y-89714086D03*
D14*
X149034532Y-111151686D03*
D10*
G36*
X145968046Y-85664706D02*
X146498376Y-85134376D01*
X147064062Y-85700062D01*
X146533732Y-86230392D01*
X145968046Y-85664706D01*
X145968046Y-85664706D01*
G37*
G36*
X144907386Y-84604046D02*
X145437716Y-84073716D01*
X146003402Y-84639402D01*
X145473072Y-85169732D01*
X144907386Y-84604046D01*
X144907386Y-84604046D01*
G37*
G36*
X154363491Y-67692440D02*
X153833161Y-68222770D01*
X153267475Y-67657084D01*
X153797805Y-67126754D01*
X154363491Y-67692440D01*
X154363491Y-67692440D01*
G37*
G36*
X155424151Y-68753100D02*
X154893821Y-69283430D01*
X154328135Y-68717744D01*
X154858465Y-68187414D01*
X155424151Y-68753100D01*
X155424151Y-68753100D01*
G37*
D15*
X146090393Y-77255726D03*
X148630393Y-77255726D03*
X148630393Y-74715726D03*
X146090393Y-74715726D03*
X151170393Y-77255726D03*
X151170393Y-74715726D03*
D16*
X139982394Y-97575724D03*
X138482394Y-97575724D03*
X139982394Y-99226724D03*
X138482394Y-99226724D03*
X139994394Y-100877724D03*
X138494394Y-100877724D03*
D17*
X146979813Y-67697093D03*
X150379813Y-67697093D03*
D16*
X151563811Y-70491095D03*
X153063811Y-70491095D03*
D10*
G36*
X139256353Y-66866064D02*
X138407825Y-66017536D01*
X139256353Y-65169008D01*
X140104881Y-66017536D01*
X139256353Y-66866064D01*
X139256353Y-66866064D01*
G37*
G36*
X141236252Y-64886165D02*
X140387724Y-64037637D01*
X141236252Y-63189109D01*
X142084780Y-64037637D01*
X141236252Y-64886165D01*
X141236252Y-64886165D01*
G37*
G36*
X142501973Y-68414628D02*
X141441312Y-67353967D01*
X142572683Y-66222596D01*
X143633344Y-67283257D01*
X142501973Y-68414628D01*
X142501973Y-68414628D01*
G37*
G36*
X156882836Y-63864949D02*
X157342455Y-64324568D01*
X156592922Y-65074101D01*
X156133303Y-64614482D01*
X156882836Y-63864949D01*
X156882836Y-63864949D01*
G37*
G36*
X157554587Y-64536701D02*
X158014206Y-64996320D01*
X157264673Y-65745853D01*
X156805054Y-65286234D01*
X157554587Y-64536701D01*
X157554587Y-64536701D01*
G37*
G36*
X158226339Y-65208452D02*
X158685958Y-65668071D01*
X157936425Y-66417604D01*
X157476806Y-65957985D01*
X158226339Y-65208452D01*
X158226339Y-65208452D01*
G37*
G36*
X156670704Y-66764087D02*
X157130323Y-67223706D01*
X156380790Y-67973239D01*
X155921171Y-67513620D01*
X156670704Y-66764087D01*
X156670704Y-66764087D01*
G37*
G36*
X155327201Y-65420584D02*
X155786820Y-65880203D01*
X155037287Y-66629736D01*
X154577668Y-66170117D01*
X155327201Y-65420584D01*
X155327201Y-65420584D01*
G37*
G36*
X151155697Y-83281110D02*
X150943565Y-83493242D01*
X150427377Y-82977054D01*
X150639509Y-82764922D01*
X151155697Y-83281110D01*
X151155697Y-83281110D01*
G37*
G36*
X150802143Y-83634663D02*
X150590011Y-83846795D01*
X150073823Y-83330607D01*
X150285955Y-83118475D01*
X150802143Y-83634663D01*
X150802143Y-83634663D01*
G37*
G36*
X150448590Y-83988217D02*
X150236458Y-84200349D01*
X149720270Y-83684161D01*
X149932402Y-83472029D01*
X150448590Y-83988217D01*
X150448590Y-83988217D01*
G37*
G36*
X150095036Y-84341770D02*
X149882904Y-84553902D01*
X149366716Y-84037714D01*
X149578848Y-83825582D01*
X150095036Y-84341770D01*
X150095036Y-84341770D01*
G37*
G36*
X149741483Y-84695324D02*
X149529351Y-84907456D01*
X149013163Y-84391268D01*
X149225295Y-84179136D01*
X149741483Y-84695324D01*
X149741483Y-84695324D01*
G37*
G36*
X147860579Y-84907456D02*
X147648447Y-84695324D01*
X148164635Y-84179136D01*
X148376767Y-84391268D01*
X147860579Y-84907456D01*
X147860579Y-84907456D01*
G37*
G36*
X147507026Y-84553902D02*
X147294894Y-84341770D01*
X147811082Y-83825582D01*
X148023214Y-84037714D01*
X147507026Y-84553902D01*
X147507026Y-84553902D01*
G37*
G36*
X147153472Y-84200349D02*
X146941340Y-83988217D01*
X147457528Y-83472029D01*
X147669660Y-83684161D01*
X147153472Y-84200349D01*
X147153472Y-84200349D01*
G37*
G36*
X146799919Y-83846795D02*
X146587787Y-83634663D01*
X147103975Y-83118475D01*
X147316107Y-83330607D01*
X146799919Y-83846795D01*
X146799919Y-83846795D01*
G37*
G36*
X146446365Y-83493242D02*
X146234233Y-83281110D01*
X146750421Y-82764922D01*
X146962553Y-82977054D01*
X146446365Y-83493242D01*
X146446365Y-83493242D01*
G37*
G36*
X146962553Y-81916394D02*
X146750421Y-82128526D01*
X146234233Y-81612338D01*
X146446365Y-81400206D01*
X146962553Y-81916394D01*
X146962553Y-81916394D01*
G37*
G36*
X147316107Y-81562841D02*
X147103975Y-81774973D01*
X146587787Y-81258785D01*
X146799919Y-81046653D01*
X147316107Y-81562841D01*
X147316107Y-81562841D01*
G37*
G36*
X147669660Y-81209287D02*
X147457528Y-81421419D01*
X146941340Y-80905231D01*
X147153472Y-80693099D01*
X147669660Y-81209287D01*
X147669660Y-81209287D01*
G37*
G36*
X148023214Y-80855734D02*
X147811082Y-81067866D01*
X147294894Y-80551678D01*
X147507026Y-80339546D01*
X148023214Y-80855734D01*
X148023214Y-80855734D01*
G37*
G36*
X148376767Y-80502180D02*
X148164635Y-80714312D01*
X147648447Y-80198124D01*
X147860579Y-79985992D01*
X148376767Y-80502180D01*
X148376767Y-80502180D01*
G37*
G36*
X149225295Y-80714312D02*
X149013163Y-80502180D01*
X149529351Y-79985992D01*
X149741483Y-80198124D01*
X149225295Y-80714312D01*
X149225295Y-80714312D01*
G37*
G36*
X149578848Y-81067866D02*
X149366716Y-80855734D01*
X149882904Y-80339546D01*
X150095036Y-80551678D01*
X149578848Y-81067866D01*
X149578848Y-81067866D01*
G37*
G36*
X149932402Y-81421419D02*
X149720270Y-81209287D01*
X150236458Y-80693099D01*
X150448590Y-80905231D01*
X149932402Y-81421419D01*
X149932402Y-81421419D01*
G37*
G36*
X150285955Y-81774973D02*
X150073823Y-81562841D01*
X150590011Y-81046653D01*
X150802143Y-81258785D01*
X150285955Y-81774973D01*
X150285955Y-81774973D01*
G37*
G36*
X150639509Y-82128526D02*
X150427377Y-81916394D01*
X150943565Y-81400206D01*
X151155697Y-81612338D01*
X150639509Y-82128526D01*
X150639509Y-82128526D01*
G37*
G36*
X148694965Y-82446724D02*
X147811082Y-83330607D01*
X146927199Y-82446724D01*
X147811082Y-81562841D01*
X148694965Y-82446724D01*
X148694965Y-82446724D01*
G37*
G36*
X149578848Y-81562841D02*
X148694965Y-82446724D01*
X147811082Y-81562841D01*
X148694965Y-80678958D01*
X149578848Y-81562841D01*
X149578848Y-81562841D01*
G37*
G36*
X149578848Y-83330607D02*
X148694965Y-84214490D01*
X147811082Y-83330607D01*
X148694965Y-82446724D01*
X149578848Y-83330607D01*
X149578848Y-83330607D01*
G37*
G36*
X150462731Y-82446724D02*
X149578848Y-83330607D01*
X148694965Y-82446724D01*
X149578848Y-81562841D01*
X150462731Y-82446724D01*
X150462731Y-82446724D01*
G37*
D12*
X144185393Y-78398724D03*
D10*
G36*
X133845483Y-89427686D02*
X132113433Y-88427686D01*
X132513433Y-87734866D01*
X134245483Y-88734866D01*
X133845483Y-89427686D01*
X133845483Y-89427686D01*
G37*
G36*
X132645483Y-91506147D02*
X130913433Y-90506147D01*
X131313433Y-89813327D01*
X133045483Y-90813327D01*
X132645483Y-91506147D01*
X132645483Y-91506147D01*
G37*
G36*
X131445483Y-93584608D02*
X129713433Y-92584608D01*
X130113433Y-91891788D01*
X131845483Y-92891788D01*
X131445483Y-93584608D01*
X131445483Y-93584608D01*
G37*
D12*
X137979471Y-95797724D03*
X135803393Y-94781724D03*
X138470392Y-65190725D03*
X155488394Y-69381726D03*
X158282393Y-64301724D03*
X149011394Y-91733725D03*
X147233394Y-89701724D03*
X151235823Y-78652724D03*
X154472394Y-66735010D03*
X144895707Y-67697092D03*
X146090393Y-75985725D03*
X151424393Y-82462724D03*
X151297394Y-80303724D03*
X144850593Y-79668725D03*
X146949193Y-79651884D03*
X152237195Y-80318709D03*
X146170735Y-97622384D03*
X152313394Y-72429724D03*
X149336809Y-72528608D03*
X148757394Y-75985725D03*
X146642993Y-98272081D03*
X146482367Y-78998273D03*
X147233394Y-98845724D03*
X158805758Y-93644070D03*
X154615593Y-94248871D03*
X154571895Y-93031223D03*
X159545998Y-105762246D03*
X154581183Y-95069779D03*
X155488395Y-93039271D03*
X151426116Y-111963736D03*
X138656670Y-106897753D03*
X156291597Y-93039270D03*
X153976383Y-96178724D03*
X149639331Y-109132724D03*
X148376393Y-109132725D03*
X146060194Y-82335724D03*
X146084021Y-80691098D03*
X147231329Y-88756069D03*
X138145002Y-93303700D03*
X137374671Y-106025134D03*
X148145531Y-113154892D03*
X159484562Y-107302212D03*
X160150800Y-94483849D03*
X149284933Y-87529038D03*
X136692394Y-99226724D03*
X137979471Y-99226724D03*
X149919931Y-86767037D03*
X137802593Y-92372770D03*
X136397259Y-105856210D03*
X147510533Y-113844089D03*
X159890474Y-108123150D03*
X161128209Y-94652775D03*
X136363462Y-100877724D03*
X137979471Y-100877724D03*
X137405229Y-91537026D03*
X135443552Y-105728339D03*
X146946602Y-114606086D03*
X160295082Y-108946352D03*
X162052672Y-94729996D03*
X150554934Y-86132039D03*
D18*
X130779459Y-92738198D02*
X132788837Y-93898313D01*
X132813592Y-93898313D02*
X134919983Y-93898313D01*
X137979471Y-95797724D02*
X145201393Y-95797724D01*
X145201393Y-95797724D02*
X149034531Y-99630862D01*
X149034531Y-99630862D02*
X149034532Y-111151685D01*
X134919983Y-93898313D02*
X135803393Y-94781724D01*
X132813592Y-93898313D02*
X132760983Y-93898313D01*
X132769811Y-93903411D02*
X132760983Y-93898313D01*
X132788837Y-93898313D02*
X132769811Y-93903411D01*
X147305501Y-83836189D02*
X147811083Y-83330608D01*
X147811083Y-83330608D02*
X147811083Y-82446724D01*
X139256353Y-66017535D02*
X139256353Y-65976683D01*
X139256353Y-65976683D02*
X138470392Y-65190725D01*
X154876143Y-68735422D02*
X154876143Y-68769474D01*
X154876143Y-68769474D02*
X155488394Y-69381726D01*
X157409631Y-65141277D02*
X157442842Y-65141276D01*
X157442842Y-65141276D02*
X158282393Y-64301724D01*
X149034532Y-89714085D02*
X149034531Y-91710587D01*
X149034531Y-91710587D02*
X149011394Y-91733725D01*
X149034532Y-89714085D02*
X147245753Y-89714086D01*
X147245753Y-89714086D02*
X147233394Y-89701724D01*
X151170394Y-77255725D02*
X151170393Y-78587295D01*
X151170393Y-78587295D02*
X151235823Y-78652724D01*
X131979459Y-90659737D02*
X134722365Y-92243355D01*
X134722365Y-92243355D02*
X135676393Y-91987724D01*
X137073394Y-90590725D02*
X135676393Y-91987724D01*
X145455394Y-84621724D02*
X145455394Y-77890724D01*
X145455394Y-77890724D02*
X146090394Y-77255724D01*
X145455394Y-84621724D02*
X145455394Y-85891724D01*
X145455394Y-85891724D02*
X137073394Y-90590725D01*
X155182244Y-66025159D02*
X154472394Y-66735010D01*
X154472394Y-66735010D02*
X153815484Y-67391920D01*
X146090394Y-77255724D02*
X146090393Y-75985725D01*
X146979811Y-67697092D02*
X144895707Y-67697092D01*
X144895707Y-67697092D02*
X141236251Y-64037636D01*
X146951948Y-83482635D02*
X145812858Y-84621724D01*
X145812858Y-84621724D02*
X145455394Y-84621724D01*
X153815484Y-67391920D02*
X153815483Y-67674763D01*
X149697195Y-74817327D02*
X149697195Y-78703527D01*
X149595594Y-74715724D02*
X149697195Y-74817327D01*
X148630393Y-74715723D02*
X149595594Y-74715724D01*
X151424393Y-82462724D02*
X151424393Y-82496226D01*
X151424393Y-82496226D02*
X150791538Y-83129082D01*
X149697195Y-78703527D02*
X151297394Y-80303724D01*
X146344393Y-80096152D02*
X146344392Y-79795725D01*
X145861804Y-79313134D02*
X145861803Y-78723731D01*
X146344392Y-79795725D02*
X145861804Y-79313134D01*
X147157195Y-78261565D02*
X147157195Y-74116282D01*
X145861803Y-78723731D02*
X146192061Y-78393472D01*
X146192061Y-78393472D02*
X147025288Y-78393473D01*
X147025288Y-78393473D02*
X147157195Y-78261565D01*
X146344393Y-80096152D02*
X147305501Y-81057259D01*
X151170394Y-74715724D02*
X151170393Y-73750525D01*
X151170393Y-73750525D02*
X151068792Y-73648923D01*
X151068792Y-73648923D02*
X147624553Y-73648923D01*
X147624553Y-73648923D02*
X147157195Y-74116282D01*
X150379811Y-67697093D02*
X150379812Y-69400292D01*
X150379812Y-69400292D02*
X151470614Y-70491095D01*
X151470614Y-70491095D02*
X151563811Y-70491095D01*
X158081382Y-65813027D02*
X157635906Y-66258504D01*
X151583011Y-67697092D02*
X150379811Y-67697093D01*
X157635906Y-66258504D02*
X156596189Y-66258504D01*
X156596189Y-66258504D02*
X155453458Y-65115775D01*
X155453458Y-65115775D02*
X154164330Y-65115774D01*
X154164330Y-65115774D02*
X151583011Y-67697092D01*
X142537327Y-67318611D02*
X140082914Y-64864198D01*
X140082914Y-64864198D02*
X140082913Y-63911378D01*
X156253603Y-64063114D02*
X156756579Y-63560138D01*
X140082913Y-63911378D02*
X141109994Y-62884299D01*
X141109994Y-62884299D02*
X141624967Y-62884298D01*
X141624967Y-62884298D02*
X143550393Y-64809724D01*
X143550393Y-64809724D02*
X148853391Y-64809725D01*
X157416433Y-67368662D02*
X157085367Y-67368663D01*
X148853391Y-64809725D02*
X149600000Y-64063115D01*
X149600000Y-64063115D02*
X156253603Y-64063114D01*
X156756579Y-63560138D02*
X158435914Y-63560139D01*
X157085367Y-67368663D02*
X156525747Y-67368662D01*
X158435914Y-63560139D02*
X158990769Y-64114994D01*
X158990769Y-64114994D02*
X158990768Y-65794328D01*
X158990768Y-65794328D02*
X157416433Y-67368662D01*
X144850593Y-79668725D02*
X144850593Y-73882882D01*
X144850593Y-73882882D02*
X148284612Y-70448864D01*
X148284612Y-70448864D02*
X148284613Y-65953252D01*
X149768339Y-64469524D02*
X156737879Y-64469524D01*
X148284613Y-65953252D02*
X149768339Y-64469524D01*
X147659054Y-80703707D02*
X146949194Y-79993845D01*
X146949194Y-79993845D02*
X146949193Y-79651884D01*
X139982394Y-97575724D02*
X146124075Y-97575724D01*
X146124075Y-97575724D02*
X146170735Y-97622384D01*
X146191994Y-73648923D02*
X147049803Y-73648923D01*
X147049803Y-73648923D02*
X147456212Y-73242513D01*
X147456212Y-73242513D02*
X151769824Y-73242514D01*
X151769824Y-73242514D02*
X152237194Y-73709883D01*
X146090394Y-74715724D02*
X146090393Y-73750525D01*
X146090393Y-73750525D02*
X146191994Y-73648923D01*
X152237195Y-80318709D02*
X151120343Y-81435563D01*
X152237194Y-73709883D02*
X152237195Y-80318709D01*
X151120343Y-81435563D02*
X150791537Y-81764367D01*
X150690510Y-72528607D02*
X150789394Y-72429724D01*
X150789394Y-72429724D02*
X152313394Y-72429724D01*
X149336809Y-72528608D02*
X150690510Y-72528607D01*
X148630393Y-77255724D02*
X148630393Y-76112724D01*
X148630393Y-76112724D02*
X148757394Y-75985725D01*
X141010394Y-99226724D02*
X141965038Y-98272080D01*
X141965038Y-98272080D02*
X146642993Y-98272081D01*
X140435593Y-99226724D02*
X141010394Y-99226724D01*
X139982394Y-99226724D02*
X140435593Y-99226724D01*
X149377324Y-80350152D02*
X148630393Y-79603222D01*
X148630393Y-79603222D02*
X148630393Y-77255724D01*
X148012608Y-80350152D02*
X148012607Y-79820191D01*
X148012607Y-79820191D02*
X147190690Y-78998274D01*
X147190690Y-78998274D02*
X146482367Y-78998273D01*
X146979393Y-98972724D02*
X147106394Y-98972725D01*
X147106394Y-98972725D02*
X147233394Y-98845724D01*
X142026394Y-98972725D02*
X146979393Y-98972724D01*
X140447594Y-100551525D02*
X142026394Y-98972725D01*
X140447594Y-100877724D02*
X140447594Y-100551525D01*
X139994395Y-100877724D02*
X140447594Y-100877724D01*
X150108280Y-85591611D02*
X150200255Y-85591611D01*
X150200255Y-85591611D02*
X150264630Y-85527237D01*
X150264630Y-85527237D02*
X150845240Y-85527237D01*
X150845240Y-85527237D02*
X151159735Y-85841733D01*
X149706127Y-84872100D02*
X149706127Y-85189458D01*
X149706127Y-85189458D02*
X150108280Y-85591611D01*
X151159736Y-90474383D02*
X154329423Y-93644070D01*
X154329423Y-93644070D02*
X158805758Y-93644070D01*
X149377324Y-84543296D02*
X149706127Y-84872100D01*
X151159735Y-85841733D02*
X151159736Y-90474383D01*
X151566145Y-90224477D02*
X154218393Y-92876724D01*
X154571895Y-93031223D02*
X154372893Y-93031223D01*
X154372893Y-93031223D02*
X154218393Y-92876724D01*
X154615593Y-94248871D02*
X159545997Y-99179275D01*
X159545997Y-99179275D02*
X159545998Y-105762246D01*
X154579330Y-93038659D02*
X154571895Y-93031223D01*
X151566146Y-85673393D02*
X151566145Y-90224477D01*
X150281394Y-84740259D02*
X150281392Y-84875725D01*
X150281392Y-84875725D02*
X150526495Y-85120828D01*
X150526495Y-85120828D02*
X151013581Y-85120828D01*
X151013581Y-85120828D02*
X151566146Y-85673393D01*
X149730877Y-84189742D02*
X150281394Y-84740259D01*
X154599393Y-108826879D02*
X154599393Y-110148725D01*
X154581183Y-95069779D02*
X154581183Y-108808669D01*
X154581183Y-108808669D02*
X154599393Y-108826879D01*
X155234394Y-92876725D02*
X155488395Y-93039271D01*
X155234394Y-92798616D02*
X155234394Y-92876725D01*
X154342841Y-92426422D02*
X154862200Y-92426422D01*
X154862200Y-92426422D02*
X155234394Y-92798616D01*
X153997769Y-92081349D02*
X154342841Y-92426422D01*
X151972555Y-90056136D02*
X153997769Y-92081349D01*
X151972556Y-85505053D02*
X151972555Y-90056136D01*
X150084431Y-83836189D02*
X150962660Y-84714419D01*
X150962660Y-84714419D02*
X151181922Y-84714419D01*
X151181922Y-84714419D02*
X151972556Y-85505053D01*
X154599393Y-110148725D02*
X151426116Y-111963736D01*
X142534393Y-109132724D02*
X138656670Y-106897753D01*
X150853691Y-83811439D02*
X152378965Y-85336713D01*
X150766787Y-83811439D02*
X150853691Y-83811439D01*
X150766787Y-83811439D02*
X150437984Y-83482635D01*
X152378965Y-85336713D02*
X152378966Y-89574725D01*
X152378966Y-89574725D02*
X152378966Y-89887796D01*
X152378966Y-89887796D02*
X154285143Y-91793974D01*
X155364242Y-92020012D02*
X156250393Y-92906164D01*
X154511182Y-92020012D02*
X155364242Y-92020012D01*
X154285143Y-91793974D02*
X154511182Y-92020012D01*
X156250393Y-92998067D02*
X156291597Y-93039270D01*
X156250393Y-92906164D02*
X156250393Y-92998067D01*
X153976383Y-96178724D02*
X153976383Y-107977734D01*
X152821393Y-109132725D02*
X149639331Y-109132724D01*
X153976383Y-107977734D02*
X152821393Y-109132725D01*
X148376393Y-109132725D02*
X142534393Y-109132724D01*
X146598394Y-81764367D02*
X146598394Y-81797524D01*
X146598394Y-81797524D02*
X146060194Y-82335724D01*
X146951947Y-81410814D02*
X146232232Y-80691097D01*
X146232232Y-80691097D02*
X146084021Y-80691098D01*
X137581394Y-97575724D02*
X137374671Y-97369001D01*
X137374671Y-97369001D02*
X137374670Y-94074030D01*
X137374670Y-94074030D02*
X137374673Y-94074029D01*
X137374671Y-106025134D02*
X137374673Y-94074029D01*
X137374673Y-94074029D02*
X138145002Y-93303700D01*
X138482394Y-97575724D02*
X137581394Y-97575724D01*
X138145002Y-93303700D02*
X148507717Y-87320784D01*
X148507717Y-87320784D02*
X149284933Y-87529038D01*
X147298162Y-113054632D02*
X137786806Y-107563248D01*
X137786806Y-107563248D02*
X137374671Y-106025134D01*
X147348511Y-113041141D02*
X147298162Y-113054632D01*
X148145531Y-113154892D02*
X147735726Y-113264697D01*
X147735726Y-113264697D02*
X147348511Y-113041141D01*
X148145531Y-113154892D02*
X149803235Y-113599070D01*
X149803235Y-113599070D02*
X159135600Y-108211029D01*
X159135600Y-108211029D02*
X159287428Y-107644401D01*
X159287428Y-107644401D02*
X159412170Y-107572379D01*
X159412170Y-107572379D02*
X159484562Y-107302212D01*
X160150800Y-94483849D02*
X160150799Y-106635974D01*
X160150799Y-106635974D02*
X159484562Y-107302212D01*
X136968264Y-99331855D02*
X136968262Y-93207103D01*
X136968262Y-93207103D02*
X137802593Y-92372770D01*
X136397259Y-105856210D02*
X136968262Y-105285206D01*
X136968262Y-105285206D02*
X136968264Y-99331855D01*
X136968264Y-99331855D02*
X136968264Y-99331855D01*
X136968264Y-99331855D02*
X136797525Y-99331856D01*
X136797525Y-99331856D02*
X136692394Y-99226724D01*
X138482394Y-99226724D02*
X137979471Y-99226724D01*
X138582596Y-92581773D02*
X149055290Y-86535359D01*
X149055290Y-86535359D02*
X149919931Y-86767037D01*
X137802593Y-92372770D02*
X138582596Y-92581773D01*
X147510533Y-113844089D02*
X147399557Y-113780016D01*
X147399557Y-113780016D02*
X147336932Y-113546296D01*
X147336932Y-113546296D02*
X136832820Y-107481746D01*
X136832820Y-107481746D02*
X136397259Y-105856210D01*
X159890474Y-108123150D02*
X159523051Y-108335283D01*
X159523051Y-108335283D02*
X159484590Y-108478818D01*
X159484590Y-108478818D02*
X149341785Y-114334773D01*
X149341785Y-114334773D02*
X147920337Y-113953895D01*
X147920337Y-113953895D02*
X147510533Y-113844089D01*
X161128209Y-94652775D02*
X160557211Y-95223777D01*
X160557211Y-95223777D02*
X160557211Y-107456417D01*
X160557211Y-107456417D02*
X160190474Y-107823151D01*
X160190474Y-107823151D02*
X159890474Y-108123150D01*
X136561852Y-98462160D02*
X136561851Y-92380405D01*
X136561851Y-92380405D02*
X136561850Y-92380402D01*
X136363462Y-100877724D02*
X136363462Y-99792898D01*
X136363462Y-99792898D02*
X136087592Y-99517029D01*
X136087592Y-99517029D02*
X136087592Y-98936419D01*
X136087592Y-98936419D02*
X136561852Y-98462160D01*
X135443552Y-105728339D02*
X136561852Y-104610042D01*
X136561852Y-104610042D02*
X136561853Y-101076115D01*
X136561853Y-101076115D02*
X136363462Y-100877724D01*
X138494394Y-100877724D02*
X137979471Y-100877724D01*
X138890166Y-91934914D02*
X149452623Y-85836676D01*
X149452623Y-85836676D02*
X150554934Y-86132039D01*
X137405229Y-91537026D02*
X138890166Y-91934914D01*
X136561850Y-92380402D02*
X137405229Y-91537026D01*
X146687983Y-113640907D02*
X135893862Y-107408919D01*
X135893862Y-107408919D02*
X135443552Y-105728339D01*
X146946602Y-114606086D02*
X146687983Y-113640907D01*
X160295082Y-108946352D02*
X159743576Y-108798575D01*
X159743576Y-108798575D02*
X148816740Y-115107187D01*
X148816740Y-115107187D02*
X147356408Y-114715895D01*
X147356408Y-114715895D02*
X146946602Y-114606086D01*
X162052672Y-94729996D02*
X160963620Y-95819047D01*
X160963620Y-95819047D02*
X160963621Y-108277814D01*
X160963621Y-108277814D02*
X160595082Y-108646351D01*
X160595082Y-108646351D02*
X160295082Y-108946352D01*
G36*
X163460696Y-63633093D02*
X153569254Y-73524533D01*
X153486924Y-73647749D01*
X153458013Y-73793092D01*
X153458012Y-86061294D01*
X153467867Y-86110839D01*
X153471395Y-86161226D01*
X153482200Y-86182892D01*
X153486923Y-86206637D01*
X153514985Y-86248635D01*
X153537529Y-86293841D01*
X153555803Y-86309723D01*
X153569253Y-86329853D01*
X153611252Y-86357916D01*
X153649379Y-86391053D01*
X158449982Y-89134251D01*
X158496315Y-89149749D01*
X158540135Y-89171356D01*
X158565971Y-89173048D01*
X158590519Y-89181259D01*
X158639252Y-89177847D01*
X158688009Y-89181040D01*
X158712523Y-89172717D01*
X158738347Y-89170909D01*
X158782070Y-89149105D01*
X158828332Y-89133398D01*
X169426746Y-83013652D01*
X169488815Y-82959213D01*
X169538143Y-82915953D01*
X169538147Y-82915945D01*
X169538156Y-82915937D01*
X169574754Y-82841714D01*
X169603687Y-82783045D01*
X173224205Y-69271080D01*
X179429895Y-70933890D01*
X177668787Y-77506443D01*
X177659096Y-77654316D01*
X177706730Y-77794642D01*
X177804439Y-77906057D01*
X177937347Y-77971601D01*
X178085220Y-77981292D01*
X178225546Y-77933658D01*
X184495743Y-74313557D01*
X189195939Y-82454547D01*
X182925745Y-86074647D01*
X182814330Y-86172356D01*
X182748786Y-86305264D01*
X182739095Y-86453137D01*
X182786729Y-86593463D01*
X182884438Y-86704878D01*
X183017346Y-86770422D01*
X189589898Y-88531528D01*
X187927087Y-94737221D01*
X174415124Y-91116703D01*
X174342551Y-91111947D01*
X174267300Y-91107005D01*
X174267275Y-91107014D01*
X174267251Y-91107012D01*
X174199832Y-91129898D01*
X174126968Y-91154621D01*
X163630156Y-97213150D01*
X163591523Y-97247022D01*
X163549068Y-97275941D01*
X163536276Y-97295460D01*
X163518729Y-97310845D01*
X163496001Y-97356917D01*
X163467841Y-97399887D01*
X163463493Y-97422815D01*
X163453168Y-97443744D01*
X163449801Y-97495008D01*
X163440229Y-97545482D01*
X163491030Y-103235086D01*
X163500813Y-103282069D01*
X163503946Y-103329954D01*
X163515782Y-103353962D01*
X163521238Y-103380165D01*
X163548253Y-103419824D01*
X163569474Y-103462869D01*
X163589597Y-103480521D01*
X163604665Y-103502641D01*
X163644799Y-103528943D01*
X163680879Y-103560591D01*
X174126135Y-109592685D01*
X174126157Y-109592692D01*
X174126171Y-109592705D01*
X174191514Y-109614886D01*
X174266456Y-109640334D01*
X174266478Y-109640333D01*
X174266497Y-109640339D01*
X174341907Y-109635397D01*
X174414330Y-109630658D01*
X174414347Y-109630649D01*
X174414370Y-109630648D01*
X187926334Y-106010130D01*
X189589142Y-112215822D01*
X183016590Y-113976927D01*
X182883682Y-114042471D01*
X182785973Y-114153886D01*
X182738339Y-114294212D01*
X182748030Y-114442085D01*
X182813262Y-114574360D01*
X182813574Y-114574993D01*
X182924989Y-114672702D01*
X189195188Y-118292804D01*
X184494989Y-126433792D01*
X178224792Y-122813689D01*
X178084466Y-122766055D01*
X177936593Y-122775746D01*
X177803685Y-122841290D01*
X177705976Y-122952705D01*
X177658342Y-123093031D01*
X177668033Y-123240904D01*
X179429139Y-129813456D01*
X173223451Y-131476265D01*
X169602934Y-117964309D01*
X169602899Y-117964238D01*
X169602894Y-117964160D01*
X169570027Y-117897582D01*
X169537390Y-117831401D01*
X169537331Y-117831350D01*
X169537296Y-117831278D01*
X169480926Y-117781883D01*
X169425975Y-117733692D01*
X169425901Y-117733667D01*
X169425842Y-117733615D01*
X159082178Y-111767296D01*
X159034462Y-111751121D01*
X158989183Y-111729025D01*
X158964884Y-111727534D01*
X158941833Y-111719720D01*
X158891566Y-111723035D01*
X158841271Y-111719949D01*
X158818251Y-111727870D01*
X158793964Y-111729472D01*
X158748791Y-111751772D01*
X158701144Y-111768167D01*
X153646544Y-114714571D01*
X153609897Y-114746981D01*
X153569223Y-114774165D01*
X153554880Y-114795637D01*
X153535537Y-114812743D01*
X153514080Y-114856713D01*
X153486907Y-114897391D01*
X153481873Y-114922714D01*
X153470547Y-114945923D01*
X153467551Y-114994757D01*
X153458012Y-115042737D01*
X153459363Y-126951885D01*
X153474271Y-127026788D01*
X153488274Y-127097185D01*
X153488285Y-127097202D01*
X153488290Y-127097225D01*
X153531000Y-127161128D01*
X153570604Y-127220401D01*
X163462047Y-137111838D01*
X158919168Y-141654725D01*
X154107722Y-136843280D01*
X153984506Y-136760950D01*
X153839163Y-136732039D01*
X153693820Y-136760950D01*
X153570604Y-136843280D01*
X153488274Y-136966496D01*
X153459363Y-137111839D01*
X153459363Y-144352039D01*
X144058962Y-144352034D01*
X144058960Y-137111839D01*
X144030049Y-136966496D01*
X144030047Y-136966493D01*
X143947719Y-136843279D01*
X143824503Y-136760950D01*
X143679160Y-136732039D01*
X143533817Y-136760950D01*
X143410601Y-136843280D01*
X138599162Y-141654722D01*
X134056280Y-137111836D01*
X143947721Y-127220399D01*
X143947734Y-127220379D01*
X143947751Y-127220368D01*
X143985947Y-127163190D01*
X144030051Y-127097183D01*
X144030056Y-127097160D01*
X144030067Y-127097143D01*
X144044071Y-127026703D01*
X144058962Y-126951840D01*
X144058958Y-126951819D01*
X144058962Y-126951797D01*
X144057612Y-115042651D01*
X144048071Y-114994712D01*
X144045077Y-114945923D01*
X144033734Y-114922677D01*
X144028685Y-114897311D01*
X144001525Y-114856673D01*
X143980088Y-114812743D01*
X143960712Y-114795608D01*
X143946341Y-114774105D01*
X143905699Y-114746956D01*
X143869080Y-114714571D01*
X138814483Y-111768170D01*
X138766842Y-111751777D01*
X138721664Y-111729474D01*
X138697372Y-111727872D01*
X138674356Y-111719952D01*
X138624070Y-111723038D01*
X138573795Y-111719722D01*
X138550742Y-111727537D01*
X138526444Y-111729028D01*
X138481166Y-111751123D01*
X138433449Y-111767299D01*
X128090884Y-117732974D01*
X128090823Y-117733027D01*
X128090750Y-117733052D01*
X128035886Y-117781167D01*
X127979429Y-117830638D01*
X127979394Y-117830710D01*
X127979335Y-117830761D01*
X127946448Y-117897448D01*
X127913832Y-117963519D01*
X127913827Y-117963596D01*
X127913791Y-117963669D01*
X124293275Y-131475626D01*
X118087578Y-129812821D01*
X119848688Y-123240268D01*
X119858380Y-123092395D01*
X119810746Y-122952069D01*
X119713037Y-122840654D01*
X119580129Y-122775110D01*
X119432255Y-122765418D01*
X119351912Y-122792691D01*
X119291929Y-122813052D01*
X113021734Y-126433153D01*
X108321535Y-118292167D01*
X114591728Y-114672069D01*
X114661692Y-114610712D01*
X114703143Y-114574361D01*
X114768686Y-114441453D01*
X114778378Y-114293579D01*
X114730744Y-114153253D01*
X114633035Y-114041838D01*
X114500128Y-113976294D01*
X107927583Y-112215181D01*
X109590392Y-106009490D01*
X123102349Y-109630010D01*
X123102373Y-109630012D01*
X123102390Y-109630020D01*
X123174170Y-109634717D01*
X123250222Y-109639701D01*
X123250241Y-109639695D01*
X123250264Y-109639696D01*
X123326507Y-109613806D01*
X123390549Y-109592067D01*
X123390563Y-109592054D01*
X123390585Y-109592047D01*
X133834748Y-103560590D01*
X133870826Y-103528943D01*
X133910962Y-103502640D01*
X133926031Y-103480518D01*
X133946152Y-103462868D01*
X133967372Y-103419827D01*
X133994389Y-103380164D01*
X133999845Y-103353960D01*
X134011681Y-103329953D01*
X134014814Y-103282068D01*
X134024597Y-103235085D01*
X134075398Y-97545481D01*
X134065829Y-97495025D01*
X134062471Y-97443790D01*
X134052139Y-97422840D01*
X134047786Y-97399885D01*
X134019637Y-97356932D01*
X133996928Y-97310883D01*
X133979366Y-97295481D01*
X133966559Y-97275939D01*
X133924119Y-97247030D01*
X133885513Y-97213173D01*
X123389956Y-91153569D01*
X123249630Y-91105936D01*
X123101756Y-91115627D01*
X109589798Y-94736147D01*
X107926989Y-88530456D01*
X108485714Y-88380746D01*
X131806227Y-88380746D01*
X131812169Y-88503965D01*
X131865581Y-88615164D01*
X131958047Y-88696822D01*
X133690097Y-89696822D01*
X133798543Y-89734892D01*
X133921762Y-89728950D01*
X134032961Y-89675538D01*
X134114619Y-89583072D01*
X134484711Y-88942055D01*
X134704493Y-89033316D01*
X135004771Y-89033578D01*
X135282292Y-88918909D01*
X135494806Y-88706766D01*
X135609959Y-88429446D01*
X135610221Y-88129168D01*
X135495552Y-87851647D01*
X135283409Y-87639133D01*
X135006089Y-87523980D01*
X134705811Y-87523718D01*
X134428290Y-87638387D01*
X134215776Y-87850530D01*
X134100623Y-88127850D01*
X134100480Y-88292300D01*
X132668819Y-87465730D01*
X132560373Y-87427660D01*
X132437154Y-87433602D01*
X132325955Y-87487014D01*
X132244297Y-87579480D01*
X131844297Y-88272300D01*
X131806227Y-88380746D01*
X108485714Y-88380746D01*
X114499538Y-86769347D01*
X114632445Y-86703803D01*
X114730154Y-86592388D01*
X114777788Y-86452062D01*
X114768097Y-86304188D01*
X114702553Y-86171281D01*
X114658258Y-86132435D01*
X114591138Y-86073571D01*
X108320947Y-82453476D01*
X113021143Y-74312487D01*
X119291340Y-77932585D01*
X119431666Y-77980219D01*
X119579540Y-77970527D01*
X119712447Y-77904984D01*
X119810156Y-77793569D01*
X119857790Y-77653243D01*
X119848099Y-77505369D01*
X118086989Y-70932821D01*
X124292677Y-69270010D01*
X127913197Y-82781967D01*
X127913336Y-82782249D01*
X127913357Y-82782561D01*
X127946130Y-82848748D01*
X127978741Y-82914875D01*
X127978975Y-82915080D01*
X127979115Y-82915363D01*
X128034828Y-82964063D01*
X128090156Y-83012584D01*
X128090453Y-83012685D01*
X128090689Y-83012891D01*
X138687842Y-89108316D01*
X138733835Y-89123846D01*
X138777278Y-89145510D01*
X138803419Y-89147340D01*
X138811898Y-89150203D01*
X136874662Y-90236230D01*
X136832328Y-90272419D01*
X136786026Y-90303357D01*
X135466025Y-91623356D01*
X134779782Y-91807234D01*
X133316776Y-90962567D01*
X133352689Y-90860267D01*
X133346747Y-90737048D01*
X133293335Y-90625849D01*
X133200869Y-90544191D01*
X131468819Y-89544191D01*
X131360373Y-89506121D01*
X131237154Y-89512063D01*
X131125955Y-89565475D01*
X131044297Y-89657941D01*
X130644297Y-90350761D01*
X130606227Y-90459207D01*
X130612169Y-90582426D01*
X130665581Y-90693625D01*
X130758047Y-90775283D01*
X132490097Y-91775283D01*
X132598543Y-91813353D01*
X132721762Y-91807411D01*
X132832961Y-91753999D01*
X132910297Y-91666427D01*
X134519165Y-92595308D01*
X134669319Y-92646279D01*
X134827549Y-92635907D01*
X135781577Y-92380276D01*
X135805620Y-92368419D01*
X135831915Y-92363189D01*
X135876115Y-92333656D01*
X135923794Y-92310143D01*
X135941472Y-92289985D01*
X135963761Y-92275092D01*
X136800515Y-91438340D01*
X136800402Y-91567115D01*
X136274482Y-92093033D01*
X136238290Y-92147198D01*
X136198355Y-92198655D01*
X136194499Y-92212736D01*
X136186385Y-92224879D01*
X136173677Y-92288769D01*
X136156472Y-92351592D01*
X136158298Y-92366081D01*
X136155450Y-92380401D01*
X136155451Y-92380405D01*
X136155451Y-94278333D01*
X136146432Y-94269298D01*
X135924223Y-94177029D01*
X135773303Y-94176897D01*
X135207351Y-93610945D01*
X135075506Y-93522848D01*
X134919983Y-93491913D01*
X132897732Y-93491913D01*
X132116777Y-93041028D01*
X132152689Y-92938728D01*
X132146747Y-92815509D01*
X132093335Y-92704310D01*
X132000869Y-92622652D01*
X130268819Y-91622652D01*
X130160373Y-91584582D01*
X130037154Y-91590524D01*
X129925955Y-91643936D01*
X129844297Y-91736402D01*
X129444297Y-92429222D01*
X129406227Y-92537668D01*
X129412169Y-92660887D01*
X129465581Y-92772086D01*
X129558047Y-92853744D01*
X130984532Y-93677326D01*
X130928290Y-93700565D01*
X130715776Y-93912708D01*
X130600623Y-94190028D01*
X130600361Y-94490306D01*
X130715030Y-94767827D01*
X130927173Y-94980341D01*
X131204493Y-95095494D01*
X131504771Y-95095756D01*
X131782292Y-94981087D01*
X131994806Y-94768944D01*
X132109959Y-94491624D01*
X132110221Y-94191346D01*
X131995552Y-93913825D01*
X131985550Y-93903806D01*
X132473516Y-94185533D01*
X132473615Y-94185681D01*
X132517799Y-94215204D01*
X132557749Y-94250246D01*
X132566576Y-94255344D01*
X132566598Y-94255351D01*
X132566611Y-94255363D01*
X132589559Y-94263153D01*
X132605460Y-94273778D01*
X132642648Y-94281175D01*
X132716726Y-94306329D01*
X132716744Y-94306328D01*
X132716765Y-94306335D01*
X132756156Y-94303753D01*
X132760983Y-94304713D01*
X134751647Y-94304713D01*
X135198619Y-94751685D01*
X135198488Y-94901498D01*
X135290369Y-95123868D01*
X135460354Y-95294150D01*
X135682563Y-95386419D01*
X135923167Y-95386629D01*
X136145537Y-95294748D01*
X136155451Y-95284851D01*
X136155452Y-98293824D01*
X135800224Y-98649051D01*
X135712127Y-98780896D01*
X135681192Y-98936419D01*
X135681192Y-99517030D01*
X135712127Y-99672552D01*
X135800224Y-99804398D01*
X135957062Y-99961235D01*
X135957062Y-100428844D01*
X135851036Y-100534685D01*
X135758767Y-100756894D01*
X135758557Y-100997498D01*
X135850438Y-101219868D01*
X136020423Y-101390150D01*
X136155453Y-101446219D01*
X136155452Y-104441705D01*
X135473590Y-105123565D01*
X135323778Y-105123434D01*
X135101408Y-105215315D01*
X134931126Y-105385300D01*
X134838857Y-105607509D01*
X134838647Y-105848113D01*
X134930528Y-106070483D01*
X135100513Y-106240765D01*
X135167582Y-106268615D01*
X135501310Y-107514103D01*
X135571443Y-107656320D01*
X135690662Y-107760872D01*
X146339000Y-113908692D01*
X146434038Y-114263379D01*
X146341907Y-114485256D01*
X146341697Y-114725860D01*
X146433578Y-114948230D01*
X146603563Y-115118512D01*
X146825772Y-115210781D01*
X147066376Y-115210991D01*
X147288746Y-115119110D01*
X147289227Y-115118630D01*
X148711556Y-115499739D01*
X148869786Y-115510111D01*
X148869787Y-115510111D01*
X148907840Y-115497193D01*
X149019940Y-115459140D01*
X159767757Y-109253884D01*
X159782058Y-109288496D01*
X159952043Y-109458778D01*
X160174252Y-109551047D01*
X160414856Y-109551257D01*
X160637226Y-109459376D01*
X160807508Y-109289391D01*
X160899777Y-109067182D01*
X160899909Y-108916260D01*
X161250988Y-108565183D01*
X161258594Y-108553800D01*
X161339086Y-108433337D01*
X161370021Y-108277814D01*
X161370020Y-95987383D01*
X162022634Y-95334770D01*
X162172446Y-95334901D01*
X162394816Y-95243020D01*
X162565098Y-95073035D01*
X162657367Y-94850826D01*
X162657577Y-94610222D01*
X162565696Y-94387852D01*
X162395711Y-94217570D01*
X162173502Y-94125301D01*
X161932898Y-94125091D01*
X161710528Y-94216972D01*
X161628991Y-94298367D01*
X161471248Y-94140349D01*
X161249039Y-94048080D01*
X161008435Y-94047870D01*
X160786065Y-94139751D01*
X160698949Y-94226715D01*
X160663824Y-94141705D01*
X160493839Y-93971423D01*
X160271630Y-93879154D01*
X160031026Y-93878944D01*
X159808656Y-93970825D01*
X159638374Y-94140810D01*
X159546105Y-94363019D01*
X159545895Y-94603623D01*
X159637776Y-94825993D01*
X159744400Y-94932803D01*
X159744400Y-98802942D01*
X155220367Y-94278909D01*
X155220498Y-94129097D01*
X155188010Y-94050470D01*
X158356878Y-94050470D01*
X158462719Y-94156496D01*
X158684928Y-94248765D01*
X158925532Y-94248975D01*
X159147902Y-94157094D01*
X159318184Y-93987109D01*
X159410453Y-93764900D01*
X159410663Y-93524296D01*
X159318782Y-93301926D01*
X159148797Y-93131644D01*
X158926588Y-93039375D01*
X158685984Y-93039165D01*
X158463614Y-93131046D01*
X158356804Y-93237670D01*
X156864082Y-93237670D01*
X156896292Y-93160100D01*
X156896502Y-92919496D01*
X156804621Y-92697126D01*
X156634636Y-92526844D01*
X156412427Y-92434575D01*
X156353489Y-92434524D01*
X155651610Y-91732644D01*
X155519765Y-91644547D01*
X155364242Y-91613612D01*
X154679518Y-91613612D01*
X154572511Y-91506605D01*
X154572508Y-91506603D01*
X152785366Y-89719460D01*
X152785366Y-89574725D01*
X152785365Y-85336713D01*
X152754430Y-85181190D01*
X152666333Y-85049345D01*
X151246646Y-83629658D01*
X151375445Y-83500858D01*
X151440286Y-83405961D01*
X151466438Y-83285403D01*
X151443627Y-83164169D01*
X151398791Y-83096565D01*
X151427829Y-83067527D01*
X151544167Y-83067629D01*
X151766537Y-82975748D01*
X151936819Y-82805763D01*
X152029088Y-82583554D01*
X152029298Y-82342950D01*
X151937417Y-82120580D01*
X151767432Y-81950298D01*
X151545223Y-81858029D01*
X151349673Y-81857858D01*
X151375445Y-81832086D01*
X151440286Y-81737189D01*
X151453260Y-81677382D01*
X152207158Y-80923483D01*
X152356969Y-80923614D01*
X152579339Y-80831733D01*
X152749621Y-80661748D01*
X152841890Y-80439539D01*
X152842100Y-80198935D01*
X152750219Y-79976565D01*
X152643595Y-79869755D01*
X152643594Y-73709883D01*
X152640708Y-73695371D01*
X152612659Y-73554360D01*
X152524562Y-73422514D01*
X152096632Y-72994584D01*
X152192564Y-73034419D01*
X152433168Y-73034629D01*
X152655538Y-72942748D01*
X152825820Y-72772763D01*
X152918089Y-72550554D01*
X152918299Y-72309950D01*
X152826418Y-72087580D01*
X152656433Y-71917298D01*
X152434224Y-71825029D01*
X152193620Y-71824819D01*
X151971250Y-71916700D01*
X151864440Y-72023324D01*
X150789394Y-72023324D01*
X150680699Y-72044944D01*
X150633873Y-72054258D01*
X150633872Y-72054259D01*
X150633871Y-72054259D01*
X150633870Y-72054260D01*
X150532180Y-72122207D01*
X149785689Y-72122208D01*
X149679848Y-72016182D01*
X149457639Y-71923913D01*
X149217035Y-71923703D01*
X148994665Y-72015584D01*
X148824383Y-72185569D01*
X148732114Y-72407778D01*
X148731904Y-72648382D01*
X148809473Y-72836113D01*
X147456212Y-72836113D01*
X147300689Y-72867048D01*
X147168844Y-72955145D01*
X146881466Y-73242523D01*
X146191993Y-73242523D01*
X146140387Y-73252788D01*
X146036471Y-73273458D01*
X146036469Y-73273459D01*
X146036470Y-73273459D01*
X146031293Y-73276918D01*
X148571980Y-70736232D01*
X148660078Y-70604386D01*
X148691012Y-70448864D01*
X148691013Y-66121588D01*
X149936675Y-64875924D01*
X153829443Y-64875924D01*
X151690584Y-67014783D01*
X151690584Y-66197093D01*
X151669331Y-66084141D01*
X151602576Y-65980401D01*
X151500720Y-65910806D01*
X151379813Y-65886322D01*
X149379813Y-65886322D01*
X149266861Y-65907575D01*
X149163121Y-65974330D01*
X149093526Y-66076186D01*
X149069042Y-66197093D01*
X149069042Y-69197093D01*
X149090295Y-69310045D01*
X149157050Y-69413785D01*
X149258906Y-69483380D01*
X149379813Y-69507864D01*
X149994809Y-69507864D01*
X150004347Y-69555815D01*
X150092444Y-69687660D01*
X151003040Y-70598257D01*
X151003040Y-70941095D01*
X151024293Y-71054047D01*
X151091048Y-71157787D01*
X151192904Y-71227382D01*
X151313811Y-71251866D01*
X151813811Y-71251866D01*
X151926763Y-71230613D01*
X152030503Y-71163858D01*
X152100098Y-71062002D01*
X152124582Y-70941095D01*
X152124582Y-70719695D01*
X152509011Y-70719695D01*
X152509011Y-71001724D01*
X152555414Y-71113751D01*
X152641156Y-71199492D01*
X152753183Y-71245895D01*
X152862611Y-71245895D01*
X152938811Y-71169695D01*
X152938811Y-70643495D01*
X153188811Y-70643495D01*
X153188811Y-71169695D01*
X153265011Y-71245895D01*
X153374439Y-71245895D01*
X153486466Y-71199492D01*
X153572208Y-71113751D01*
X153618611Y-71001724D01*
X153618611Y-70719695D01*
X153542411Y-70643495D01*
X153188811Y-70643495D01*
X152938811Y-70643495D01*
X152585211Y-70643495D01*
X152509011Y-70719695D01*
X152124582Y-70719695D01*
X152124582Y-70041095D01*
X152113175Y-69980466D01*
X152509011Y-69980466D01*
X152509011Y-70262495D01*
X152585211Y-70338695D01*
X152938811Y-70338695D01*
X152938811Y-69812495D01*
X153188811Y-69812495D01*
X153188811Y-70338695D01*
X153542411Y-70338695D01*
X153618611Y-70262495D01*
X153618611Y-69980466D01*
X153572208Y-69868439D01*
X153486466Y-69782698D01*
X153374439Y-69736295D01*
X153265011Y-69736295D01*
X153188811Y-69812495D01*
X152938811Y-69812495D01*
X152862611Y-69736295D01*
X152753183Y-69736295D01*
X152641156Y-69782698D01*
X152555414Y-69868439D01*
X152509011Y-69980466D01*
X152113175Y-69980466D01*
X152103329Y-69928143D01*
X152036574Y-69824403D01*
X151934718Y-69754808D01*
X151813811Y-69730324D01*
X151313811Y-69730324D01*
X151289209Y-69734953D01*
X151062120Y-69507864D01*
X151379813Y-69507864D01*
X151492765Y-69486611D01*
X151596505Y-69419856D01*
X151666100Y-69318000D01*
X151675821Y-69269995D01*
X154557096Y-69269995D01*
X154557096Y-69377758D01*
X154721165Y-69541826D01*
X154833192Y-69588230D01*
X154954449Y-69588230D01*
X155066476Y-69541827D01*
X155152217Y-69456085D01*
X155212867Y-69395435D01*
X155212867Y-69287672D01*
X154876143Y-68950948D01*
X154557096Y-69269995D01*
X151675821Y-69269995D01*
X151690584Y-69197093D01*
X151690584Y-68657116D01*
X154023335Y-68657116D01*
X154023335Y-68778373D01*
X154069739Y-68890400D01*
X154233807Y-69054469D01*
X154341570Y-69054469D01*
X154660617Y-68735422D01*
X155091669Y-68735422D01*
X155428393Y-69072146D01*
X155536156Y-69072146D01*
X155596806Y-69011496D01*
X155682548Y-68925755D01*
X155728951Y-68813728D01*
X155728951Y-68692471D01*
X155682547Y-68580444D01*
X155518479Y-68416375D01*
X155410716Y-68416375D01*
X155091669Y-68735422D01*
X154660617Y-68735422D01*
X154323893Y-68398698D01*
X154216130Y-68398698D01*
X154155480Y-68459348D01*
X154069738Y-68545089D01*
X154023335Y-68657116D01*
X151690584Y-68657116D01*
X151690584Y-68082095D01*
X151738534Y-68072557D01*
X151870379Y-67984460D01*
X154332666Y-65522174D01*
X154786115Y-65522174D01*
X154357920Y-65950369D01*
X154293079Y-66045266D01*
X154267001Y-66165482D01*
X154130250Y-66221986D01*
X153959968Y-66391971D01*
X153867699Y-66614180D01*
X153867567Y-66765101D01*
X153814060Y-66818608D01*
X153802098Y-66816013D01*
X153680864Y-66838824D01*
X153578057Y-66907006D01*
X153047727Y-67437336D01*
X152982886Y-67532233D01*
X152956734Y-67652791D01*
X152979545Y-67774025D01*
X153047727Y-67876832D01*
X153613413Y-68442518D01*
X153708310Y-68507359D01*
X153828868Y-68533511D01*
X153950102Y-68510700D01*
X154052909Y-68442518D01*
X154420018Y-68075409D01*
X154539419Y-68075409D01*
X154539419Y-68183172D01*
X154876143Y-68519896D01*
X155195190Y-68200849D01*
X155195190Y-68093086D01*
X155031121Y-67929018D01*
X154919094Y-67882614D01*
X154797837Y-67882614D01*
X154685810Y-67929017D01*
X154600069Y-68014759D01*
X154539419Y-68075409D01*
X154420018Y-68075409D01*
X154583239Y-67912188D01*
X154648080Y-67817291D01*
X154674232Y-67696733D01*
X154651421Y-67575499D01*
X154583239Y-67472692D01*
X154450338Y-67339791D01*
X154592168Y-67339915D01*
X154814538Y-67248034D01*
X154984820Y-67078049D01*
X155042703Y-66938650D01*
X155154228Y-66917666D01*
X155257035Y-66849484D01*
X155934734Y-66171785D01*
X156308821Y-66545872D01*
X156393105Y-66602190D01*
X155701423Y-67293872D01*
X155636582Y-67388769D01*
X155610430Y-67509327D01*
X155633241Y-67630561D01*
X155701423Y-67733368D01*
X156161042Y-68192987D01*
X156255939Y-68257828D01*
X156376497Y-68283980D01*
X156497731Y-68261169D01*
X156600538Y-68192987D01*
X157018462Y-67775063D01*
X157085368Y-67775063D01*
X157416434Y-67775062D01*
X157571957Y-67744127D01*
X157703802Y-67656029D01*
X159278136Y-66081696D01*
X159366233Y-65949851D01*
X159397168Y-65794328D01*
X159397169Y-64114994D01*
X159366234Y-63959471D01*
X159278137Y-63827625D01*
X158723282Y-63272771D01*
X158694131Y-63253293D01*
X158591437Y-63184674D01*
X158435914Y-63153739D01*
X156756579Y-63153738D01*
X156601056Y-63184673D01*
X156469210Y-63272770D01*
X156085267Y-63656714D01*
X154351312Y-63656714D01*
X158917812Y-59090212D01*
X163460696Y-63633093D01*
X163460696Y-63633093D01*
G37*
X163460696Y-63633093D02*
X153569254Y-73524533D01*
X153486924Y-73647749D01*
X153458013Y-73793092D01*
X153458012Y-86061294D01*
X153467867Y-86110839D01*
X153471395Y-86161226D01*
X153482200Y-86182892D01*
X153486923Y-86206637D01*
X153514985Y-86248635D01*
X153537529Y-86293841D01*
X153555803Y-86309723D01*
X153569253Y-86329853D01*
X153611252Y-86357916D01*
X153649379Y-86391053D01*
X158449982Y-89134251D01*
X158496315Y-89149749D01*
X158540135Y-89171356D01*
X158565971Y-89173048D01*
X158590519Y-89181259D01*
X158639252Y-89177847D01*
X158688009Y-89181040D01*
X158712523Y-89172717D01*
X158738347Y-89170909D01*
X158782070Y-89149105D01*
X158828332Y-89133398D01*
X169426746Y-83013652D01*
X169488815Y-82959213D01*
X169538143Y-82915953D01*
X169538147Y-82915945D01*
X169538156Y-82915937D01*
X169574754Y-82841714D01*
X169603687Y-82783045D01*
X173224205Y-69271080D01*
X179429895Y-70933890D01*
X177668787Y-77506443D01*
X177659096Y-77654316D01*
X177706730Y-77794642D01*
X177804439Y-77906057D01*
X177937347Y-77971601D01*
X178085220Y-77981292D01*
X178225546Y-77933658D01*
X184495743Y-74313557D01*
X189195939Y-82454547D01*
X182925745Y-86074647D01*
X182814330Y-86172356D01*
X182748786Y-86305264D01*
X182739095Y-86453137D01*
X182786729Y-86593463D01*
X182884438Y-86704878D01*
X183017346Y-86770422D01*
X189589898Y-88531528D01*
X187927087Y-94737221D01*
X174415124Y-91116703D01*
X174342551Y-91111947D01*
X174267300Y-91107005D01*
X174267275Y-91107014D01*
X174267251Y-91107012D01*
X174199832Y-91129898D01*
X174126968Y-91154621D01*
X163630156Y-97213150D01*
X163591523Y-97247022D01*
X163549068Y-97275941D01*
X163536276Y-97295460D01*
X163518729Y-97310845D01*
X163496001Y-97356917D01*
X163467841Y-97399887D01*
X163463493Y-97422815D01*
X163453168Y-97443744D01*
X163449801Y-97495008D01*
X163440229Y-97545482D01*
X163491030Y-103235086D01*
X163500813Y-103282069D01*
X163503946Y-103329954D01*
X163515782Y-103353962D01*
X163521238Y-103380165D01*
X163548253Y-103419824D01*
X163569474Y-103462869D01*
X163589597Y-103480521D01*
X163604665Y-103502641D01*
X163644799Y-103528943D01*
X163680879Y-103560591D01*
X174126135Y-109592685D01*
X174126157Y-109592692D01*
X174126171Y-109592705D01*
X174191514Y-109614886D01*
X174266456Y-109640334D01*
X174266478Y-109640333D01*
X174266497Y-109640339D01*
X174341907Y-109635397D01*
X174414330Y-109630658D01*
X174414347Y-109630649D01*
X174414370Y-109630648D01*
X187926334Y-106010130D01*
X189589142Y-112215822D01*
X183016590Y-113976927D01*
X182883682Y-114042471D01*
X182785973Y-114153886D01*
X182738339Y-114294212D01*
X182748030Y-114442085D01*
X182813262Y-114574360D01*
X182813574Y-114574993D01*
X182924989Y-114672702D01*
X189195188Y-118292804D01*
X184494989Y-126433792D01*
X178224792Y-122813689D01*
X178084466Y-122766055D01*
X177936593Y-122775746D01*
X177803685Y-122841290D01*
X177705976Y-122952705D01*
X177658342Y-123093031D01*
X177668033Y-123240904D01*
X179429139Y-129813456D01*
X173223451Y-131476265D01*
X169602934Y-117964309D01*
X169602899Y-117964238D01*
X169602894Y-117964160D01*
X169570027Y-117897582D01*
X169537390Y-117831401D01*
X169537331Y-117831350D01*
X169537296Y-117831278D01*
X169480926Y-117781883D01*
X169425975Y-117733692D01*
X169425901Y-117733667D01*
X169425842Y-117733615D01*
X159082178Y-111767296D01*
X159034462Y-111751121D01*
X158989183Y-111729025D01*
X158964884Y-111727534D01*
X158941833Y-111719720D01*
X158891566Y-111723035D01*
X158841271Y-111719949D01*
X158818251Y-111727870D01*
X158793964Y-111729472D01*
X158748791Y-111751772D01*
X158701144Y-111768167D01*
X153646544Y-114714571D01*
X153609897Y-114746981D01*
X153569223Y-114774165D01*
X153554880Y-114795637D01*
X153535537Y-114812743D01*
X153514080Y-114856713D01*
X153486907Y-114897391D01*
X153481873Y-114922714D01*
X153470547Y-114945923D01*
X153467551Y-114994757D01*
X153458012Y-115042737D01*
X153459363Y-126951885D01*
X153474271Y-127026788D01*
X153488274Y-127097185D01*
X153488285Y-127097202D01*
X153488290Y-127097225D01*
X153531000Y-127161128D01*
X153570604Y-127220401D01*
X163462047Y-137111838D01*
X158919168Y-141654725D01*
X154107722Y-136843280D01*
X153984506Y-136760950D01*
X153839163Y-136732039D01*
X153693820Y-136760950D01*
X153570604Y-136843280D01*
X153488274Y-136966496D01*
X153459363Y-137111839D01*
X153459363Y-144352039D01*
X144058962Y-144352034D01*
X144058960Y-137111839D01*
X144030049Y-136966496D01*
X144030047Y-136966493D01*
X143947719Y-136843279D01*
X143824503Y-136760950D01*
X143679160Y-136732039D01*
X143533817Y-136760950D01*
X143410601Y-136843280D01*
X138599162Y-141654722D01*
X134056280Y-137111836D01*
X143947721Y-127220399D01*
X143947734Y-127220379D01*
X143947751Y-127220368D01*
X143985947Y-127163190D01*
X144030051Y-127097183D01*
X144030056Y-127097160D01*
X144030067Y-127097143D01*
X144044071Y-127026703D01*
X144058962Y-126951840D01*
X144058958Y-126951819D01*
X144058962Y-126951797D01*
X144057612Y-115042651D01*
X144048071Y-114994712D01*
X144045077Y-114945923D01*
X144033734Y-114922677D01*
X144028685Y-114897311D01*
X144001525Y-114856673D01*
X143980088Y-114812743D01*
X143960712Y-114795608D01*
X143946341Y-114774105D01*
X143905699Y-114746956D01*
X143869080Y-114714571D01*
X138814483Y-111768170D01*
X138766842Y-111751777D01*
X138721664Y-111729474D01*
X138697372Y-111727872D01*
X138674356Y-111719952D01*
X138624070Y-111723038D01*
X138573795Y-111719722D01*
X138550742Y-111727537D01*
X138526444Y-111729028D01*
X138481166Y-111751123D01*
X138433449Y-111767299D01*
X128090884Y-117732974D01*
X128090823Y-117733027D01*
X128090750Y-117733052D01*
X128035886Y-117781167D01*
X127979429Y-117830638D01*
X127979394Y-117830710D01*
X127979335Y-117830761D01*
X127946448Y-117897448D01*
X127913832Y-117963519D01*
X127913827Y-117963596D01*
X127913791Y-117963669D01*
X124293275Y-131475626D01*
X118087578Y-129812821D01*
X119848688Y-123240268D01*
X119858380Y-123092395D01*
X119810746Y-122952069D01*
X119713037Y-122840654D01*
X119580129Y-122775110D01*
X119432255Y-122765418D01*
X119351912Y-122792691D01*
X119291929Y-122813052D01*
X113021734Y-126433153D01*
X108321535Y-118292167D01*
X114591728Y-114672069D01*
X114661692Y-114610712D01*
X114703143Y-114574361D01*
X114768686Y-114441453D01*
X114778378Y-114293579D01*
X114730744Y-114153253D01*
X114633035Y-114041838D01*
X114500128Y-113976294D01*
X107927583Y-112215181D01*
X109590392Y-106009490D01*
X123102349Y-109630010D01*
X123102373Y-109630012D01*
X123102390Y-109630020D01*
X123174170Y-109634717D01*
X123250222Y-109639701D01*
X123250241Y-109639695D01*
X123250264Y-109639696D01*
X123326507Y-109613806D01*
X123390549Y-109592067D01*
X123390563Y-109592054D01*
X123390585Y-109592047D01*
X133834748Y-103560590D01*
X133870826Y-103528943D01*
X133910962Y-103502640D01*
X133926031Y-103480518D01*
X133946152Y-103462868D01*
X133967372Y-103419827D01*
X133994389Y-103380164D01*
X133999845Y-103353960D01*
X134011681Y-103329953D01*
X134014814Y-103282068D01*
X134024597Y-103235085D01*
X134075398Y-97545481D01*
X134065829Y-97495025D01*
X134062471Y-97443790D01*
X134052139Y-97422840D01*
X134047786Y-97399885D01*
X134019637Y-97356932D01*
X133996928Y-97310883D01*
X133979366Y-97295481D01*
X133966559Y-97275939D01*
X133924119Y-97247030D01*
X133885513Y-97213173D01*
X123389956Y-91153569D01*
X123249630Y-91105936D01*
X123101756Y-91115627D01*
X109589798Y-94736147D01*
X107926989Y-88530456D01*
X108485714Y-88380746D01*
X131806227Y-88380746D01*
X131812169Y-88503965D01*
X131865581Y-88615164D01*
X131958047Y-88696822D01*
X133690097Y-89696822D01*
X133798543Y-89734892D01*
X133921762Y-89728950D01*
X134032961Y-89675538D01*
X134114619Y-89583072D01*
X134484711Y-88942055D01*
X134704493Y-89033316D01*
X135004771Y-89033578D01*
X135282292Y-88918909D01*
X135494806Y-88706766D01*
X135609959Y-88429446D01*
X135610221Y-88129168D01*
X135495552Y-87851647D01*
X135283409Y-87639133D01*
X135006089Y-87523980D01*
X134705811Y-87523718D01*
X134428290Y-87638387D01*
X134215776Y-87850530D01*
X134100623Y-88127850D01*
X134100480Y-88292300D01*
X132668819Y-87465730D01*
X132560373Y-87427660D01*
X132437154Y-87433602D01*
X132325955Y-87487014D01*
X132244297Y-87579480D01*
X131844297Y-88272300D01*
X131806227Y-88380746D01*
X108485714Y-88380746D01*
X114499538Y-86769347D01*
X114632445Y-86703803D01*
X114730154Y-86592388D01*
X114777788Y-86452062D01*
X114768097Y-86304188D01*
X114702553Y-86171281D01*
X114658258Y-86132435D01*
X114591138Y-86073571D01*
X108320947Y-82453476D01*
X113021143Y-74312487D01*
X119291340Y-77932585D01*
X119431666Y-77980219D01*
X119579540Y-77970527D01*
X119712447Y-77904984D01*
X119810156Y-77793569D01*
X119857790Y-77653243D01*
X119848099Y-77505369D01*
X118086989Y-70932821D01*
X124292677Y-69270010D01*
X127913197Y-82781967D01*
X127913336Y-82782249D01*
X127913357Y-82782561D01*
X127946130Y-82848748D01*
X127978741Y-82914875D01*
X127978975Y-82915080D01*
X127979115Y-82915363D01*
X128034828Y-82964063D01*
X128090156Y-83012584D01*
X128090453Y-83012685D01*
X128090689Y-83012891D01*
X138687842Y-89108316D01*
X138733835Y-89123846D01*
X138777278Y-89145510D01*
X138803419Y-89147340D01*
X138811898Y-89150203D01*
X136874662Y-90236230D01*
X136832328Y-90272419D01*
X136786026Y-90303357D01*
X135466025Y-91623356D01*
X134779782Y-91807234D01*
X133316776Y-90962567D01*
X133352689Y-90860267D01*
X133346747Y-90737048D01*
X133293335Y-90625849D01*
X133200869Y-90544191D01*
X131468819Y-89544191D01*
X131360373Y-89506121D01*
X131237154Y-89512063D01*
X131125955Y-89565475D01*
X131044297Y-89657941D01*
X130644297Y-90350761D01*
X130606227Y-90459207D01*
X130612169Y-90582426D01*
X130665581Y-90693625D01*
X130758047Y-90775283D01*
X132490097Y-91775283D01*
X132598543Y-91813353D01*
X132721762Y-91807411D01*
X132832961Y-91753999D01*
X132910297Y-91666427D01*
X134519165Y-92595308D01*
X134669319Y-92646279D01*
X134827549Y-92635907D01*
X135781577Y-92380276D01*
X135805620Y-92368419D01*
X135831915Y-92363189D01*
X135876115Y-92333656D01*
X135923794Y-92310143D01*
X135941472Y-92289985D01*
X135963761Y-92275092D01*
X136800515Y-91438340D01*
X136800402Y-91567115D01*
X136274482Y-92093033D01*
X136238290Y-92147198D01*
X136198355Y-92198655D01*
X136194499Y-92212736D01*
X136186385Y-92224879D01*
X136173677Y-92288769D01*
X136156472Y-92351592D01*
X136158298Y-92366081D01*
X136155450Y-92380401D01*
X136155451Y-92380405D01*
X136155451Y-94278333D01*
X136146432Y-94269298D01*
X135924223Y-94177029D01*
X135773303Y-94176897D01*
X135207351Y-93610945D01*
X135075506Y-93522848D01*
X134919983Y-93491913D01*
X132897732Y-93491913D01*
X132116777Y-93041028D01*
X132152689Y-92938728D01*
X132146747Y-92815509D01*
X132093335Y-92704310D01*
X132000869Y-92622652D01*
X130268819Y-91622652D01*
X130160373Y-91584582D01*
X130037154Y-91590524D01*
X129925955Y-91643936D01*
X129844297Y-91736402D01*
X129444297Y-92429222D01*
X129406227Y-92537668D01*
X129412169Y-92660887D01*
X129465581Y-92772086D01*
X129558047Y-92853744D01*
X130984532Y-93677326D01*
X130928290Y-93700565D01*
X130715776Y-93912708D01*
X130600623Y-94190028D01*
X130600361Y-94490306D01*
X130715030Y-94767827D01*
X130927173Y-94980341D01*
X131204493Y-95095494D01*
X131504771Y-95095756D01*
X131782292Y-94981087D01*
X131994806Y-94768944D01*
X132109959Y-94491624D01*
X132110221Y-94191346D01*
X131995552Y-93913825D01*
X131985550Y-93903806D01*
X132473516Y-94185533D01*
X132473615Y-94185681D01*
X132517799Y-94215204D01*
X132557749Y-94250246D01*
X132566576Y-94255344D01*
X132566598Y-94255351D01*
X132566611Y-94255363D01*
X132589559Y-94263153D01*
X132605460Y-94273778D01*
X132642648Y-94281175D01*
X132716726Y-94306329D01*
X132716744Y-94306328D01*
X132716765Y-94306335D01*
X132756156Y-94303753D01*
X132760983Y-94304713D01*
X134751647Y-94304713D01*
X135198619Y-94751685D01*
X135198488Y-94901498D01*
X135290369Y-95123868D01*
X135460354Y-95294150D01*
X135682563Y-95386419D01*
X135923167Y-95386629D01*
X136145537Y-95294748D01*
X136155451Y-95284851D01*
X136155452Y-98293824D01*
X135800224Y-98649051D01*
X135712127Y-98780896D01*
X135681192Y-98936419D01*
X135681192Y-99517030D01*
X135712127Y-99672552D01*
X135800224Y-99804398D01*
X135957062Y-99961235D01*
X135957062Y-100428844D01*
X135851036Y-100534685D01*
X135758767Y-100756894D01*
X135758557Y-100997498D01*
X135850438Y-101219868D01*
X136020423Y-101390150D01*
X136155453Y-101446219D01*
X136155452Y-104441705D01*
X135473590Y-105123565D01*
X135323778Y-105123434D01*
X135101408Y-105215315D01*
X134931126Y-105385300D01*
X134838857Y-105607509D01*
X134838647Y-105848113D01*
X134930528Y-106070483D01*
X135100513Y-106240765D01*
X135167582Y-106268615D01*
X135501310Y-107514103D01*
X135571443Y-107656320D01*
X135690662Y-107760872D01*
X146339000Y-113908692D01*
X146434038Y-114263379D01*
X146341907Y-114485256D01*
X146341697Y-114725860D01*
X146433578Y-114948230D01*
X146603563Y-115118512D01*
X146825772Y-115210781D01*
X147066376Y-115210991D01*
X147288746Y-115119110D01*
X147289227Y-115118630D01*
X148711556Y-115499739D01*
X148869786Y-115510111D01*
X148869787Y-115510111D01*
X148907840Y-115497193D01*
X149019940Y-115459140D01*
X159767757Y-109253884D01*
X159782058Y-109288496D01*
X159952043Y-109458778D01*
X160174252Y-109551047D01*
X160414856Y-109551257D01*
X160637226Y-109459376D01*
X160807508Y-109289391D01*
X160899777Y-109067182D01*
X160899909Y-108916260D01*
X161250988Y-108565183D01*
X161258594Y-108553800D01*
X161339086Y-108433337D01*
X161370021Y-108277814D01*
X161370020Y-95987383D01*
X162022634Y-95334770D01*
X162172446Y-95334901D01*
X162394816Y-95243020D01*
X162565098Y-95073035D01*
X162657367Y-94850826D01*
X162657577Y-94610222D01*
X162565696Y-94387852D01*
X162395711Y-94217570D01*
X162173502Y-94125301D01*
X161932898Y-94125091D01*
X161710528Y-94216972D01*
X161628991Y-94298367D01*
X161471248Y-94140349D01*
X161249039Y-94048080D01*
X161008435Y-94047870D01*
X160786065Y-94139751D01*
X160698949Y-94226715D01*
X160663824Y-94141705D01*
X160493839Y-93971423D01*
X160271630Y-93879154D01*
X160031026Y-93878944D01*
X159808656Y-93970825D01*
X159638374Y-94140810D01*
X159546105Y-94363019D01*
X159545895Y-94603623D01*
X159637776Y-94825993D01*
X159744400Y-94932803D01*
X159744400Y-98802942D01*
X155220367Y-94278909D01*
X155220498Y-94129097D01*
X155188010Y-94050470D01*
X158356878Y-94050470D01*
X158462719Y-94156496D01*
X158684928Y-94248765D01*
X158925532Y-94248975D01*
X159147902Y-94157094D01*
X159318184Y-93987109D01*
X159410453Y-93764900D01*
X159410663Y-93524296D01*
X159318782Y-93301926D01*
X159148797Y-93131644D01*
X158926588Y-93039375D01*
X158685984Y-93039165D01*
X158463614Y-93131046D01*
X158356804Y-93237670D01*
X156864082Y-93237670D01*
X156896292Y-93160100D01*
X156896502Y-92919496D01*
X156804621Y-92697126D01*
X156634636Y-92526844D01*
X156412427Y-92434575D01*
X156353489Y-92434524D01*
X155651610Y-91732644D01*
X155519765Y-91644547D01*
X155364242Y-91613612D01*
X154679518Y-91613612D01*
X154572511Y-91506605D01*
X154572508Y-91506603D01*
X152785366Y-89719460D01*
X152785366Y-89574725D01*
X152785365Y-85336713D01*
X152754430Y-85181190D01*
X152666333Y-85049345D01*
X151246646Y-83629658D01*
X151375445Y-83500858D01*
X151440286Y-83405961D01*
X151466438Y-83285403D01*
X151443627Y-83164169D01*
X151398791Y-83096565D01*
X151427829Y-83067527D01*
X151544167Y-83067629D01*
X151766537Y-82975748D01*
X151936819Y-82805763D01*
X152029088Y-82583554D01*
X152029298Y-82342950D01*
X151937417Y-82120580D01*
X151767432Y-81950298D01*
X151545223Y-81858029D01*
X151349673Y-81857858D01*
X151375445Y-81832086D01*
X151440286Y-81737189D01*
X151453260Y-81677382D01*
X152207158Y-80923483D01*
X152356969Y-80923614D01*
X152579339Y-80831733D01*
X152749621Y-80661748D01*
X152841890Y-80439539D01*
X152842100Y-80198935D01*
X152750219Y-79976565D01*
X152643595Y-79869755D01*
X152643594Y-73709883D01*
X152640708Y-73695371D01*
X152612659Y-73554360D01*
X152524562Y-73422514D01*
X152096632Y-72994584D01*
X152192564Y-73034419D01*
X152433168Y-73034629D01*
X152655538Y-72942748D01*
X152825820Y-72772763D01*
X152918089Y-72550554D01*
X152918299Y-72309950D01*
X152826418Y-72087580D01*
X152656433Y-71917298D01*
X152434224Y-71825029D01*
X152193620Y-71824819D01*
X151971250Y-71916700D01*
X151864440Y-72023324D01*
X150789394Y-72023324D01*
X150680699Y-72044944D01*
X150633873Y-72054258D01*
X150633872Y-72054259D01*
X150633871Y-72054259D01*
X150633870Y-72054260D01*
X150532180Y-72122207D01*
X149785689Y-72122208D01*
X149679848Y-72016182D01*
X149457639Y-71923913D01*
X149217035Y-71923703D01*
X148994665Y-72015584D01*
X148824383Y-72185569D01*
X148732114Y-72407778D01*
X148731904Y-72648382D01*
X148809473Y-72836113D01*
X147456212Y-72836113D01*
X147300689Y-72867048D01*
X147168844Y-72955145D01*
X146881466Y-73242523D01*
X146191993Y-73242523D01*
X146140387Y-73252788D01*
X146036471Y-73273458D01*
X146036469Y-73273459D01*
X146036470Y-73273459D01*
X146031293Y-73276918D01*
X148571980Y-70736232D01*
X148660078Y-70604386D01*
X148691012Y-70448864D01*
X148691013Y-66121588D01*
X149936675Y-64875924D01*
X153829443Y-64875924D01*
X151690584Y-67014783D01*
X151690584Y-66197093D01*
X151669331Y-66084141D01*
X151602576Y-65980401D01*
X151500720Y-65910806D01*
X151379813Y-65886322D01*
X149379813Y-65886322D01*
X149266861Y-65907575D01*
X149163121Y-65974330D01*
X149093526Y-66076186D01*
X149069042Y-66197093D01*
X149069042Y-69197093D01*
X149090295Y-69310045D01*
X149157050Y-69413785D01*
X149258906Y-69483380D01*
X149379813Y-69507864D01*
X149994809Y-69507864D01*
X150004347Y-69555815D01*
X150092444Y-69687660D01*
X151003040Y-70598257D01*
X151003040Y-70941095D01*
X151024293Y-71054047D01*
X151091048Y-71157787D01*
X151192904Y-71227382D01*
X151313811Y-71251866D01*
X151813811Y-71251866D01*
X151926763Y-71230613D01*
X152030503Y-71163858D01*
X152100098Y-71062002D01*
X152124582Y-70941095D01*
X152124582Y-70719695D01*
X152509011Y-70719695D01*
X152509011Y-71001724D01*
X152555414Y-71113751D01*
X152641156Y-71199492D01*
X152753183Y-71245895D01*
X152862611Y-71245895D01*
X152938811Y-71169695D01*
X152938811Y-70643495D01*
X153188811Y-70643495D01*
X153188811Y-71169695D01*
X153265011Y-71245895D01*
X153374439Y-71245895D01*
X153486466Y-71199492D01*
X153572208Y-71113751D01*
X153618611Y-71001724D01*
X153618611Y-70719695D01*
X153542411Y-70643495D01*
X153188811Y-70643495D01*
X152938811Y-70643495D01*
X152585211Y-70643495D01*
X152509011Y-70719695D01*
X152124582Y-70719695D01*
X152124582Y-70041095D01*
X152113175Y-69980466D01*
X152509011Y-69980466D01*
X152509011Y-70262495D01*
X152585211Y-70338695D01*
X152938811Y-70338695D01*
X152938811Y-69812495D01*
X153188811Y-69812495D01*
X153188811Y-70338695D01*
X153542411Y-70338695D01*
X153618611Y-70262495D01*
X153618611Y-69980466D01*
X153572208Y-69868439D01*
X153486466Y-69782698D01*
X153374439Y-69736295D01*
X153265011Y-69736295D01*
X153188811Y-69812495D01*
X152938811Y-69812495D01*
X152862611Y-69736295D01*
X152753183Y-69736295D01*
X152641156Y-69782698D01*
X152555414Y-69868439D01*
X152509011Y-69980466D01*
X152113175Y-69980466D01*
X152103329Y-69928143D01*
X152036574Y-69824403D01*
X151934718Y-69754808D01*
X151813811Y-69730324D01*
X151313811Y-69730324D01*
X151289209Y-69734953D01*
X151062120Y-69507864D01*
X151379813Y-69507864D01*
X151492765Y-69486611D01*
X151596505Y-69419856D01*
X151666100Y-69318000D01*
X151675821Y-69269995D01*
X154557096Y-69269995D01*
X154557096Y-69377758D01*
X154721165Y-69541826D01*
X154833192Y-69588230D01*
X154954449Y-69588230D01*
X155066476Y-69541827D01*
X155152217Y-69456085D01*
X155212867Y-69395435D01*
X155212867Y-69287672D01*
X154876143Y-68950948D01*
X154557096Y-69269995D01*
X151675821Y-69269995D01*
X151690584Y-69197093D01*
X151690584Y-68657116D01*
X154023335Y-68657116D01*
X154023335Y-68778373D01*
X154069739Y-68890400D01*
X154233807Y-69054469D01*
X154341570Y-69054469D01*
X154660617Y-68735422D01*
X155091669Y-68735422D01*
X155428393Y-69072146D01*
X155536156Y-69072146D01*
X155596806Y-69011496D01*
X155682548Y-68925755D01*
X155728951Y-68813728D01*
X155728951Y-68692471D01*
X155682547Y-68580444D01*
X155518479Y-68416375D01*
X155410716Y-68416375D01*
X155091669Y-68735422D01*
X154660617Y-68735422D01*
X154323893Y-68398698D01*
X154216130Y-68398698D01*
X154155480Y-68459348D01*
X154069738Y-68545089D01*
X154023335Y-68657116D01*
X151690584Y-68657116D01*
X151690584Y-68082095D01*
X151738534Y-68072557D01*
X151870379Y-67984460D01*
X154332666Y-65522174D01*
X154786115Y-65522174D01*
X154357920Y-65950369D01*
X154293079Y-66045266D01*
X154267001Y-66165482D01*
X154130250Y-66221986D01*
X153959968Y-66391971D01*
X153867699Y-66614180D01*
X153867567Y-66765101D01*
X153814060Y-66818608D01*
X153802098Y-66816013D01*
X153680864Y-66838824D01*
X153578057Y-66907006D01*
X153047727Y-67437336D01*
X152982886Y-67532233D01*
X152956734Y-67652791D01*
X152979545Y-67774025D01*
X153047727Y-67876832D01*
X153613413Y-68442518D01*
X153708310Y-68507359D01*
X153828868Y-68533511D01*
X153950102Y-68510700D01*
X154052909Y-68442518D01*
X154420018Y-68075409D01*
X154539419Y-68075409D01*
X154539419Y-68183172D01*
X154876143Y-68519896D01*
X155195190Y-68200849D01*
X155195190Y-68093086D01*
X155031121Y-67929018D01*
X154919094Y-67882614D01*
X154797837Y-67882614D01*
X154685810Y-67929017D01*
X154600069Y-68014759D01*
X154539419Y-68075409D01*
X154420018Y-68075409D01*
X154583239Y-67912188D01*
X154648080Y-67817291D01*
X154674232Y-67696733D01*
X154651421Y-67575499D01*
X154583239Y-67472692D01*
X154450338Y-67339791D01*
X154592168Y-67339915D01*
X154814538Y-67248034D01*
X154984820Y-67078049D01*
X155042703Y-66938650D01*
X155154228Y-66917666D01*
X155257035Y-66849484D01*
X155934734Y-66171785D01*
X156308821Y-66545872D01*
X156393105Y-66602190D01*
X155701423Y-67293872D01*
X155636582Y-67388769D01*
X155610430Y-67509327D01*
X155633241Y-67630561D01*
X155701423Y-67733368D01*
X156161042Y-68192987D01*
X156255939Y-68257828D01*
X156376497Y-68283980D01*
X156497731Y-68261169D01*
X156600538Y-68192987D01*
X157018462Y-67775063D01*
X157085368Y-67775063D01*
X157416434Y-67775062D01*
X157571957Y-67744127D01*
X157703802Y-67656029D01*
X159278136Y-66081696D01*
X159366233Y-65949851D01*
X159397168Y-65794328D01*
X159397169Y-64114994D01*
X159366234Y-63959471D01*
X159278137Y-63827625D01*
X158723282Y-63272771D01*
X158694131Y-63253293D01*
X158591437Y-63184674D01*
X158435914Y-63153739D01*
X156756579Y-63153738D01*
X156601056Y-63184673D01*
X156469210Y-63272770D01*
X156085267Y-63656714D01*
X154351312Y-63656714D01*
X158917812Y-59090212D01*
X163460696Y-63633093D01*
G36*
X150753336Y-90474383D02*
X150784271Y-90629906D01*
X150826847Y-90693625D01*
X150872368Y-90761751D01*
X154042055Y-93931438D01*
X154081571Y-93957842D01*
X154010898Y-94128041D01*
X154010688Y-94368645D01*
X154102569Y-94591015D01*
X154153555Y-94642090D01*
X154068757Y-94726740D01*
X153976488Y-94948949D01*
X153976278Y-95189553D01*
X154068159Y-95411923D01*
X154174783Y-95518733D01*
X154174783Y-95606239D01*
X154097213Y-95574029D01*
X153856609Y-95573819D01*
X153634239Y-95665700D01*
X153463957Y-95835685D01*
X153371688Y-96057894D01*
X153371478Y-96298498D01*
X153463359Y-96520868D01*
X153569983Y-96627678D01*
X153569983Y-107809398D01*
X152653057Y-108726325D01*
X150088211Y-108726324D01*
X149982370Y-108620298D01*
X149760161Y-108528029D01*
X149519557Y-108527819D01*
X149440932Y-108560306D01*
X149440931Y-99630862D01*
X149409996Y-99475339D01*
X149321899Y-99343494D01*
X145488761Y-95510356D01*
X145477185Y-95502621D01*
X145356916Y-95422259D01*
X145201393Y-95391324D01*
X138428351Y-95391324D01*
X138322510Y-95285298D01*
X138100301Y-95193029D01*
X137859697Y-95192819D01*
X137781073Y-95225306D01*
X137781073Y-94242365D01*
X138114964Y-93908474D01*
X138264776Y-93908605D01*
X138487146Y-93816724D01*
X138657428Y-93646739D01*
X138749697Y-93424530D01*
X138749698Y-93423849D01*
X144779250Y-89942686D01*
X147429732Y-89942686D01*
X147429732Y-91274715D01*
X147476135Y-91386742D01*
X147561877Y-91472483D01*
X147673904Y-91518886D01*
X148805932Y-91518886D01*
X148882132Y-91442686D01*
X148882132Y-89866486D01*
X149186932Y-89866486D01*
X149186932Y-91442686D01*
X149263132Y-91518886D01*
X150395160Y-91518886D01*
X150507187Y-91472483D01*
X150592929Y-91386742D01*
X150639332Y-91274715D01*
X150639332Y-89942686D01*
X150563132Y-89866486D01*
X149186932Y-89866486D01*
X148882132Y-89866486D01*
X147505932Y-89866486D01*
X147429732Y-89942686D01*
X144779250Y-89942686D01*
X146626550Y-88876147D01*
X146718305Y-89098213D01*
X146888290Y-89268495D01*
X147110499Y-89360764D01*
X147351103Y-89360974D01*
X147429732Y-89328485D01*
X147429732Y-89485486D01*
X147505932Y-89561686D01*
X148882132Y-89561686D01*
X148882132Y-89541686D01*
X149186932Y-89541686D01*
X149186932Y-89561686D01*
X150563132Y-89561686D01*
X150639332Y-89485486D01*
X150639332Y-88153457D01*
X150592929Y-88041430D01*
X150507187Y-87955689D01*
X150395160Y-87909286D01*
X149760085Y-87909286D01*
X149797359Y-87872077D01*
X149889628Y-87649868D01*
X149889838Y-87409264D01*
X149874357Y-87371798D01*
X150039705Y-87371942D01*
X150262075Y-87280061D01*
X150432357Y-87110076D01*
X150524626Y-86887867D01*
X150524758Y-86736813D01*
X150674708Y-86736944D01*
X150753335Y-86704456D01*
X150753336Y-90474383D01*
X150753336Y-90474383D01*
G37*
X150753336Y-90474383D02*
X150784271Y-90629906D01*
X150826847Y-90693625D01*
X150872368Y-90761751D01*
X154042055Y-93931438D01*
X154081571Y-93957842D01*
X154010898Y-94128041D01*
X154010688Y-94368645D01*
X154102569Y-94591015D01*
X154153555Y-94642090D01*
X154068757Y-94726740D01*
X153976488Y-94948949D01*
X153976278Y-95189553D01*
X154068159Y-95411923D01*
X154174783Y-95518733D01*
X154174783Y-95606239D01*
X154097213Y-95574029D01*
X153856609Y-95573819D01*
X153634239Y-95665700D01*
X153463957Y-95835685D01*
X153371688Y-96057894D01*
X153371478Y-96298498D01*
X153463359Y-96520868D01*
X153569983Y-96627678D01*
X153569983Y-107809398D01*
X152653057Y-108726325D01*
X150088211Y-108726324D01*
X149982370Y-108620298D01*
X149760161Y-108528029D01*
X149519557Y-108527819D01*
X149440932Y-108560306D01*
X149440931Y-99630862D01*
X149409996Y-99475339D01*
X149321899Y-99343494D01*
X145488761Y-95510356D01*
X145477185Y-95502621D01*
X145356916Y-95422259D01*
X145201393Y-95391324D01*
X138428351Y-95391324D01*
X138322510Y-95285298D01*
X138100301Y-95193029D01*
X137859697Y-95192819D01*
X137781073Y-95225306D01*
X137781073Y-94242365D01*
X138114964Y-93908474D01*
X138264776Y-93908605D01*
X138487146Y-93816724D01*
X138657428Y-93646739D01*
X138749697Y-93424530D01*
X138749698Y-93423849D01*
X144779250Y-89942686D01*
X147429732Y-89942686D01*
X147429732Y-91274715D01*
X147476135Y-91386742D01*
X147561877Y-91472483D01*
X147673904Y-91518886D01*
X148805932Y-91518886D01*
X148882132Y-91442686D01*
X148882132Y-89866486D01*
X149186932Y-89866486D01*
X149186932Y-91442686D01*
X149263132Y-91518886D01*
X150395160Y-91518886D01*
X150507187Y-91472483D01*
X150592929Y-91386742D01*
X150639332Y-91274715D01*
X150639332Y-89942686D01*
X150563132Y-89866486D01*
X149186932Y-89866486D01*
X148882132Y-89866486D01*
X147505932Y-89866486D01*
X147429732Y-89942686D01*
X144779250Y-89942686D01*
X146626550Y-88876147D01*
X146718305Y-89098213D01*
X146888290Y-89268495D01*
X147110499Y-89360764D01*
X147351103Y-89360974D01*
X147429732Y-89328485D01*
X147429732Y-89485486D01*
X147505932Y-89561686D01*
X148882132Y-89561686D01*
X148882132Y-89541686D01*
X149186932Y-89541686D01*
X149186932Y-89561686D01*
X150563132Y-89561686D01*
X150639332Y-89485486D01*
X150639332Y-88153457D01*
X150592929Y-88041430D01*
X150507187Y-87955689D01*
X150395160Y-87909286D01*
X149760085Y-87909286D01*
X149797359Y-87872077D01*
X149889628Y-87649868D01*
X149889838Y-87409264D01*
X149874357Y-87371798D01*
X150039705Y-87371942D01*
X150262075Y-87280061D01*
X150432357Y-87110076D01*
X150524626Y-86887867D01*
X150524758Y-86736813D01*
X150674708Y-86736944D01*
X150753335Y-86704456D01*
X150753336Y-90474383D01*
G36*
X147455145Y-83742023D02*
X147075146Y-84122022D01*
X147010305Y-84216919D01*
X147004618Y-84243137D01*
X146938794Y-84308961D01*
X146938794Y-84416723D01*
X146980817Y-84458746D01*
X147016899Y-84473692D01*
X147075146Y-84561518D01*
X147287278Y-84773650D01*
X147374376Y-84833162D01*
X147428699Y-84915072D01*
X147640831Y-85127204D01*
X147735728Y-85192045D01*
X147856286Y-85218197D01*
X147977520Y-85195386D01*
X148080327Y-85127204D01*
X148596515Y-84611016D01*
X148659189Y-84519290D01*
X148732582Y-84519291D01*
X148793415Y-84611016D01*
X149299727Y-85117328D01*
X149299727Y-85189458D01*
X149330662Y-85344981D01*
X149391752Y-85436408D01*
X149249423Y-85484723D01*
X138832749Y-91498793D01*
X137945607Y-91261084D01*
X137918253Y-91194882D01*
X137748268Y-91024600D01*
X137526059Y-90932331D01*
X137306716Y-90932140D01*
X137321080Y-90917776D01*
X145654126Y-86246219D01*
X145688356Y-86216957D01*
X146197007Y-86216957D01*
X146197007Y-86324720D01*
X146361076Y-86488788D01*
X146473103Y-86535192D01*
X146594360Y-86535192D01*
X146706387Y-86488789D01*
X146792128Y-86403047D01*
X146852778Y-86342397D01*
X146852778Y-86234634D01*
X146516054Y-85897910D01*
X146197007Y-86216957D01*
X145688356Y-86216957D01*
X145696458Y-86210031D01*
X145742762Y-86179092D01*
X145756230Y-86158936D01*
X145774658Y-86143183D01*
X145799918Y-86093553D01*
X145830859Y-86047247D01*
X145835589Y-86023468D01*
X145846584Y-86001865D01*
X145848585Y-85976298D01*
X145873718Y-86001431D01*
X145981481Y-86001431D01*
X146300528Y-85682384D01*
X146731580Y-85682384D01*
X147068304Y-86019108D01*
X147176067Y-86019108D01*
X147236717Y-85958458D01*
X147322459Y-85872717D01*
X147368862Y-85760690D01*
X147368862Y-85639433D01*
X147322458Y-85527406D01*
X147158390Y-85363337D01*
X147050627Y-85363337D01*
X146731580Y-85682384D01*
X146300528Y-85682384D01*
X145963804Y-85345660D01*
X145861794Y-85345660D01*
X145861794Y-85220506D01*
X146059929Y-85022371D01*
X146179330Y-85022371D01*
X146179330Y-85130134D01*
X146516054Y-85466858D01*
X146835101Y-85147811D01*
X146835101Y-85040048D01*
X146671032Y-84875980D01*
X146559005Y-84829576D01*
X146437748Y-84829576D01*
X146325721Y-84875979D01*
X146239980Y-84961721D01*
X146179330Y-85022371D01*
X146059929Y-85022371D01*
X146223150Y-84859150D01*
X146287991Y-84764253D01*
X146299882Y-84709436D01*
X146625020Y-84384298D01*
X146906368Y-84384298D01*
X146938794Y-84416724D01*
X146938794Y-84416723D01*
X146906368Y-84384298D01*
X146625020Y-84384298D01*
X146765694Y-84243624D01*
X146806424Y-84202895D01*
X146832728Y-84202895D01*
X146897199Y-84138424D01*
X146916860Y-84134725D01*
X147019667Y-84066543D01*
X147399666Y-83686544D01*
X147455145Y-83742023D01*
X147455145Y-83742023D01*
G37*
X147455145Y-83742023D02*
X147075146Y-84122022D01*
X147010305Y-84216919D01*
X147004618Y-84243137D01*
X146938794Y-84308961D01*
X146938794Y-84416723D01*
X146980817Y-84458746D01*
X147016899Y-84473692D01*
X147075146Y-84561518D01*
X147287278Y-84773650D01*
X147374376Y-84833162D01*
X147428699Y-84915072D01*
X147640831Y-85127204D01*
X147735728Y-85192045D01*
X147856286Y-85218197D01*
X147977520Y-85195386D01*
X148080327Y-85127204D01*
X148596515Y-84611016D01*
X148659189Y-84519290D01*
X148732582Y-84519291D01*
X148793415Y-84611016D01*
X149299727Y-85117328D01*
X149299727Y-85189458D01*
X149330662Y-85344981D01*
X149391752Y-85436408D01*
X149249423Y-85484723D01*
X138832749Y-91498793D01*
X137945607Y-91261084D01*
X137918253Y-91194882D01*
X137748268Y-91024600D01*
X137526059Y-90932331D01*
X137306716Y-90932140D01*
X137321080Y-90917776D01*
X145654126Y-86246219D01*
X145688356Y-86216957D01*
X146197007Y-86216957D01*
X146197007Y-86324720D01*
X146361076Y-86488788D01*
X146473103Y-86535192D01*
X146594360Y-86535192D01*
X146706387Y-86488789D01*
X146792128Y-86403047D01*
X146852778Y-86342397D01*
X146852778Y-86234634D01*
X146516054Y-85897910D01*
X146197007Y-86216957D01*
X145688356Y-86216957D01*
X145696458Y-86210031D01*
X145742762Y-86179092D01*
X145756230Y-86158936D01*
X145774658Y-86143183D01*
X145799918Y-86093553D01*
X145830859Y-86047247D01*
X145835589Y-86023468D01*
X145846584Y-86001865D01*
X145848585Y-85976298D01*
X145873718Y-86001431D01*
X145981481Y-86001431D01*
X146300528Y-85682384D01*
X146731580Y-85682384D01*
X147068304Y-86019108D01*
X147176067Y-86019108D01*
X147236717Y-85958458D01*
X147322459Y-85872717D01*
X147368862Y-85760690D01*
X147368862Y-85639433D01*
X147322458Y-85527406D01*
X147158390Y-85363337D01*
X147050627Y-85363337D01*
X146731580Y-85682384D01*
X146300528Y-85682384D01*
X145963804Y-85345660D01*
X145861794Y-85345660D01*
X145861794Y-85220506D01*
X146059929Y-85022371D01*
X146179330Y-85022371D01*
X146179330Y-85130134D01*
X146516054Y-85466858D01*
X146835101Y-85147811D01*
X146835101Y-85040048D01*
X146671032Y-84875980D01*
X146559005Y-84829576D01*
X146437748Y-84829576D01*
X146325721Y-84875979D01*
X146239980Y-84961721D01*
X146179330Y-85022371D01*
X146059929Y-85022371D01*
X146223150Y-84859150D01*
X146287991Y-84764253D01*
X146299882Y-84709436D01*
X146625020Y-84384298D01*
X146906368Y-84384298D01*
X146938794Y-84416724D01*
X146938794Y-84416723D01*
X146906368Y-84384298D01*
X146625020Y-84384298D01*
X146765694Y-84243624D01*
X146806424Y-84202895D01*
X146832728Y-84202895D01*
X146897199Y-84138424D01*
X146916860Y-84134725D01*
X147019667Y-84066543D01*
X147399666Y-83686544D01*
X147455145Y-83742023D01*
G36*
X153458011Y-63633097D02*
X153462709Y-63656714D01*
X149600000Y-63656715D01*
X149444477Y-63687650D01*
X149312631Y-63775747D01*
X148685055Y-64403325D01*
X143718730Y-64403324D01*
X141912335Y-62596930D01*
X141780489Y-62508833D01*
X141624967Y-62477898D01*
X141109993Y-62477899D01*
X140954470Y-62508834D01*
X140848850Y-62579408D01*
X140822626Y-62596931D01*
X139795545Y-63624010D01*
X139707448Y-63755855D01*
X139676513Y-63911378D01*
X139676514Y-64864198D01*
X139707449Y-65019721D01*
X139767667Y-65109843D01*
X139795546Y-65151566D01*
X141499882Y-66855902D01*
X141221564Y-67134219D01*
X141156723Y-67229116D01*
X141130571Y-67349674D01*
X141153382Y-67470908D01*
X141221564Y-67573715D01*
X142282225Y-68634376D01*
X142377122Y-68699217D01*
X142497680Y-68725369D01*
X142618914Y-68702558D01*
X142721721Y-68634376D01*
X143853092Y-67503005D01*
X143917933Y-67408108D01*
X143938264Y-67314385D01*
X144290933Y-67667054D01*
X144290802Y-67816866D01*
X144382683Y-68039236D01*
X144552668Y-68209518D01*
X144774877Y-68301787D01*
X145015481Y-68301997D01*
X145237851Y-68210116D01*
X145344661Y-68103492D01*
X145669042Y-68103492D01*
X145669042Y-69197093D01*
X145690295Y-69310045D01*
X145757050Y-69413785D01*
X145858906Y-69483380D01*
X145979813Y-69507864D01*
X147878212Y-69507864D01*
X147878212Y-70280527D01*
X144563225Y-73595514D01*
X144475128Y-73727359D01*
X144444193Y-73882882D01*
X144444193Y-79219845D01*
X144338167Y-79325686D01*
X144245898Y-79547895D01*
X144245688Y-79788499D01*
X144337569Y-80010869D01*
X144507554Y-80181151D01*
X144729763Y-80273420D01*
X144970367Y-80273630D01*
X145048994Y-80241142D01*
X145048994Y-84022942D01*
X144687638Y-84384298D01*
X144622797Y-84479195D01*
X144596645Y-84599753D01*
X144619456Y-84720987D01*
X144687638Y-84823794D01*
X145048994Y-85185150D01*
X145048994Y-85653649D01*
X143988085Y-86248401D01*
X144000636Y-86223233D01*
X144028700Y-86181233D01*
X144033423Y-86157488D01*
X144044228Y-86135822D01*
X144047756Y-86085432D01*
X144057611Y-86035890D01*
X144057617Y-73793095D01*
X144028706Y-73647752D01*
X143946376Y-73524536D01*
X137133048Y-66711208D01*
X138778207Y-66711208D01*
X138778207Y-66818971D01*
X138997956Y-67038720D01*
X139083698Y-67124461D01*
X139195725Y-67170865D01*
X139316982Y-67170864D01*
X139429009Y-67124461D01*
X139734499Y-66818971D01*
X139734499Y-66711208D01*
X139256353Y-66233062D01*
X138778207Y-66711208D01*
X137133048Y-66711208D01*
X136500003Y-66078164D01*
X138103024Y-66078164D01*
X138149428Y-66190191D01*
X138235169Y-66275933D01*
X138454918Y-66495682D01*
X138562681Y-66495682D01*
X139040827Y-66017536D01*
X139471879Y-66017536D01*
X139950025Y-66495682D01*
X140057788Y-66495682D01*
X140363278Y-66190192D01*
X140409681Y-66078165D01*
X140409682Y-65956908D01*
X140363278Y-65844881D01*
X140277537Y-65759139D01*
X140057788Y-65539390D01*
X139950025Y-65539390D01*
X139471879Y-66017536D01*
X139040827Y-66017536D01*
X138562681Y-65539390D01*
X138454918Y-65539390D01*
X138149428Y-65844880D01*
X138103025Y-65956907D01*
X138103024Y-66078164D01*
X136500003Y-66078164D01*
X135637940Y-65216101D01*
X138778207Y-65216101D01*
X138778207Y-65323864D01*
X139256353Y-65802010D01*
X139734499Y-65323864D01*
X139734499Y-65216101D01*
X139514750Y-64996352D01*
X139429008Y-64910611D01*
X139316981Y-64864207D01*
X139195724Y-64864208D01*
X139083697Y-64910611D01*
X138778207Y-65216101D01*
X135637940Y-65216101D01*
X134054933Y-63633095D01*
X138597811Y-59090210D01*
X143409256Y-63901656D01*
X143532472Y-63983986D01*
X143677815Y-64012897D01*
X143823158Y-63983986D01*
X143946374Y-63901656D01*
X144028704Y-63778440D01*
X144057615Y-63633097D01*
X144057615Y-58299095D01*
X147870017Y-58299095D01*
X147937597Y-58638841D01*
X148130047Y-58926864D01*
X148418070Y-59119314D01*
X148757816Y-59186894D01*
X149097562Y-59119314D01*
X149385585Y-58926864D01*
X149578035Y-58638841D01*
X149645615Y-58299095D01*
X149578035Y-57959349D01*
X149385585Y-57671326D01*
X149097562Y-57478876D01*
X148757816Y-57411296D01*
X148418070Y-57478876D01*
X148130047Y-57671326D01*
X147937597Y-57959349D01*
X147870017Y-58299095D01*
X144057615Y-58299095D01*
X144057615Y-56392895D01*
X153458017Y-56392894D01*
X153458011Y-63633097D01*
X153458011Y-63633097D01*
G37*
X153458011Y-63633097D02*
X153462709Y-63656714D01*
X149600000Y-63656715D01*
X149444477Y-63687650D01*
X149312631Y-63775747D01*
X148685055Y-64403325D01*
X143718730Y-64403324D01*
X141912335Y-62596930D01*
X141780489Y-62508833D01*
X141624967Y-62477898D01*
X141109993Y-62477899D01*
X140954470Y-62508834D01*
X140848850Y-62579408D01*
X140822626Y-62596931D01*
X139795545Y-63624010D01*
X139707448Y-63755855D01*
X139676513Y-63911378D01*
X139676514Y-64864198D01*
X139707449Y-65019721D01*
X139767667Y-65109843D01*
X139795546Y-65151566D01*
X141499882Y-66855902D01*
X141221564Y-67134219D01*
X141156723Y-67229116D01*
X141130571Y-67349674D01*
X141153382Y-67470908D01*
X141221564Y-67573715D01*
X142282225Y-68634376D01*
X142377122Y-68699217D01*
X142497680Y-68725369D01*
X142618914Y-68702558D01*
X142721721Y-68634376D01*
X143853092Y-67503005D01*
X143917933Y-67408108D01*
X143938264Y-67314385D01*
X144290933Y-67667054D01*
X144290802Y-67816866D01*
X144382683Y-68039236D01*
X144552668Y-68209518D01*
X144774877Y-68301787D01*
X145015481Y-68301997D01*
X145237851Y-68210116D01*
X145344661Y-68103492D01*
X145669042Y-68103492D01*
X145669042Y-69197093D01*
X145690295Y-69310045D01*
X145757050Y-69413785D01*
X145858906Y-69483380D01*
X145979813Y-69507864D01*
X147878212Y-69507864D01*
X147878212Y-70280527D01*
X144563225Y-73595514D01*
X144475128Y-73727359D01*
X144444193Y-73882882D01*
X144444193Y-79219845D01*
X144338167Y-79325686D01*
X144245898Y-79547895D01*
X144245688Y-79788499D01*
X144337569Y-80010869D01*
X144507554Y-80181151D01*
X144729763Y-80273420D01*
X144970367Y-80273630D01*
X145048994Y-80241142D01*
X145048994Y-84022942D01*
X144687638Y-84384298D01*
X144622797Y-84479195D01*
X144596645Y-84599753D01*
X144619456Y-84720987D01*
X144687638Y-84823794D01*
X145048994Y-85185150D01*
X145048994Y-85653649D01*
X143988085Y-86248401D01*
X144000636Y-86223233D01*
X144028700Y-86181233D01*
X144033423Y-86157488D01*
X144044228Y-86135822D01*
X144047756Y-86085432D01*
X144057611Y-86035890D01*
X144057617Y-73793095D01*
X144028706Y-73647752D01*
X143946376Y-73524536D01*
X137133048Y-66711208D01*
X138778207Y-66711208D01*
X138778207Y-66818971D01*
X138997956Y-67038720D01*
X139083698Y-67124461D01*
X139195725Y-67170865D01*
X139316982Y-67170864D01*
X139429009Y-67124461D01*
X139734499Y-66818971D01*
X139734499Y-66711208D01*
X139256353Y-66233062D01*
X138778207Y-66711208D01*
X137133048Y-66711208D01*
X136500003Y-66078164D01*
X138103024Y-66078164D01*
X138149428Y-66190191D01*
X138235169Y-66275933D01*
X138454918Y-66495682D01*
X138562681Y-66495682D01*
X139040827Y-66017536D01*
X139471879Y-66017536D01*
X139950025Y-66495682D01*
X140057788Y-66495682D01*
X140363278Y-66190192D01*
X140409681Y-66078165D01*
X140409682Y-65956908D01*
X140363278Y-65844881D01*
X140277537Y-65759139D01*
X140057788Y-65539390D01*
X139950025Y-65539390D01*
X139471879Y-66017536D01*
X139040827Y-66017536D01*
X138562681Y-65539390D01*
X138454918Y-65539390D01*
X138149428Y-65844880D01*
X138103025Y-65956907D01*
X138103024Y-66078164D01*
X136500003Y-66078164D01*
X135637940Y-65216101D01*
X138778207Y-65216101D01*
X138778207Y-65323864D01*
X139256353Y-65802010D01*
X139734499Y-65323864D01*
X139734499Y-65216101D01*
X139514750Y-64996352D01*
X139429008Y-64910611D01*
X139316981Y-64864207D01*
X139195724Y-64864208D01*
X139083697Y-64910611D01*
X138778207Y-65216101D01*
X135637940Y-65216101D01*
X134054933Y-63633095D01*
X138597811Y-59090210D01*
X143409256Y-63901656D01*
X143532472Y-63983986D01*
X143677815Y-64012897D01*
X143823158Y-63983986D01*
X143946374Y-63901656D01*
X144028704Y-63778440D01*
X144057615Y-63633097D01*
X144057615Y-58299095D01*
X147870017Y-58299095D01*
X147937597Y-58638841D01*
X148130047Y-58926864D01*
X148418070Y-59119314D01*
X148757816Y-59186894D01*
X149097562Y-59119314D01*
X149385585Y-58926864D01*
X149578035Y-58638841D01*
X149645615Y-58299095D01*
X149578035Y-57959349D01*
X149385585Y-57671326D01*
X149097562Y-57478876D01*
X148757816Y-57411296D01*
X148418070Y-57478876D01*
X148130047Y-57671326D01*
X147937597Y-57959349D01*
X147870017Y-58299095D01*
X144057615Y-58299095D01*
X144057615Y-56392895D01*
X153458017Y-56392894D01*
X153458011Y-63633097D01*
G36*
X148924634Y-81548699D02*
X148910491Y-81562841D01*
X149578848Y-82231198D01*
X149592991Y-82217056D01*
X149808517Y-82432582D01*
X149794374Y-82446724D01*
X149808517Y-82460867D01*
X149592991Y-82676393D01*
X149578848Y-82662250D01*
X148910491Y-83330607D01*
X148924634Y-83344750D01*
X148709108Y-83560276D01*
X148694965Y-83546133D01*
X148680823Y-83560276D01*
X148465297Y-83344750D01*
X148479439Y-83330607D01*
X147811082Y-82662250D01*
X147796940Y-82676393D01*
X147581414Y-82460867D01*
X147595556Y-82446724D01*
X148026608Y-82446724D01*
X148694965Y-83115081D01*
X149363322Y-82446724D01*
X148694965Y-81778367D01*
X148026608Y-82446724D01*
X147595556Y-82446724D01*
X147581414Y-82432582D01*
X147796940Y-82217056D01*
X147811082Y-82231198D01*
X148479439Y-81562841D01*
X148465297Y-81548699D01*
X148680823Y-81333173D01*
X148694965Y-81347315D01*
X148709108Y-81333173D01*
X148924634Y-81548699D01*
X148924634Y-81548699D01*
G37*
X148924634Y-81548699D02*
X148910491Y-81562841D01*
X149578848Y-82231198D01*
X149592991Y-82217056D01*
X149808517Y-82432582D01*
X149794374Y-82446724D01*
X149808517Y-82460867D01*
X149592991Y-82676393D01*
X149578848Y-82662250D01*
X148910491Y-83330607D01*
X148924634Y-83344750D01*
X148709108Y-83560276D01*
X148694965Y-83546133D01*
X148680823Y-83560276D01*
X148465297Y-83344750D01*
X148479439Y-83330607D01*
X147811082Y-82662250D01*
X147796940Y-82676393D01*
X147581414Y-82460867D01*
X147595556Y-82446724D01*
X148026608Y-82446724D01*
X148694965Y-83115081D01*
X149363322Y-82446724D01*
X148694965Y-81778367D01*
X148026608Y-82446724D01*
X147595556Y-82446724D01*
X147581414Y-82432582D01*
X147796940Y-82217056D01*
X147811082Y-82231198D01*
X148479439Y-81562841D01*
X148465297Y-81548699D01*
X148680823Y-81333173D01*
X148694965Y-81347315D01*
X148709108Y-81333173D01*
X148924634Y-81548699D01*
G36*
X150118875Y-75590678D02*
X150185630Y-75694418D01*
X150287486Y-75764013D01*
X150408393Y-75788497D01*
X151830794Y-75788497D01*
X151830794Y-76188926D01*
X151398993Y-76188926D01*
X151322793Y-76265126D01*
X151322793Y-77103326D01*
X151342793Y-77103326D01*
X151342793Y-77408126D01*
X151322793Y-77408126D01*
X151322793Y-78246326D01*
X151398993Y-78322526D01*
X151830795Y-78322526D01*
X151830795Y-79869829D01*
X151774713Y-79925813D01*
X151640433Y-79791298D01*
X151418224Y-79699029D01*
X151267303Y-79698897D01*
X150103595Y-78535191D01*
X150103595Y-78078360D01*
X150149996Y-78190382D01*
X150235738Y-78276123D01*
X150347765Y-78322526D01*
X150941793Y-78322526D01*
X151017993Y-78246326D01*
X151017993Y-77408126D01*
X150997993Y-77408126D01*
X150997993Y-77103326D01*
X151017993Y-77103326D01*
X151017993Y-76265126D01*
X150941793Y-76188926D01*
X150347765Y-76188926D01*
X150235738Y-76235329D01*
X150149996Y-76321070D01*
X150103595Y-76433092D01*
X150103595Y-75509470D01*
X150118875Y-75590678D01*
X150118875Y-75590678D01*
G37*
X150118875Y-75590678D02*
X150185630Y-75694418D01*
X150287486Y-75764013D01*
X150408393Y-75788497D01*
X151830794Y-75788497D01*
X151830794Y-76188926D01*
X151398993Y-76188926D01*
X151322793Y-76265126D01*
X151322793Y-77103326D01*
X151342793Y-77103326D01*
X151342793Y-77408126D01*
X151322793Y-77408126D01*
X151322793Y-78246326D01*
X151398993Y-78322526D01*
X151830795Y-78322526D01*
X151830795Y-79869829D01*
X151774713Y-79925813D01*
X151640433Y-79791298D01*
X151418224Y-79699029D01*
X151267303Y-79698897D01*
X150103595Y-78535191D01*
X150103595Y-78078360D01*
X150149996Y-78190382D01*
X150235738Y-78276123D01*
X150347765Y-78322526D01*
X150941793Y-78322526D01*
X151017993Y-78246326D01*
X151017993Y-77408126D01*
X150997993Y-77408126D01*
X150997993Y-77103326D01*
X151017993Y-77103326D01*
X151017993Y-76265126D01*
X150941793Y-76188926D01*
X150347765Y-76188926D01*
X150235738Y-76235329D01*
X150149996Y-76321070D01*
X150103595Y-76433092D01*
X150103595Y-75509470D01*
X150118875Y-75590678D01*
G36*
X158267578Y-63966539D02*
X158584369Y-64283331D01*
X158584368Y-65126985D01*
X158446087Y-64988704D01*
X158351190Y-64923863D01*
X158310446Y-64915025D01*
X158272604Y-64823665D01*
X158186862Y-64737923D01*
X158161567Y-64712629D01*
X158053804Y-64712629D01*
X157625156Y-65141277D01*
X157639299Y-65155420D01*
X157423773Y-65370946D01*
X157409630Y-65356803D01*
X156980982Y-65785451D01*
X156980982Y-65852104D01*
X156764526Y-65852104D01*
X155788343Y-64875924D01*
X155955249Y-64875924D01*
X156373174Y-65293849D01*
X156468071Y-65358690D01*
X156508813Y-65367528D01*
X156546656Y-65458889D01*
X156632398Y-65544631D01*
X156657693Y-65569925D01*
X156765456Y-65569925D01*
X157194104Y-65141277D01*
X157179962Y-65127135D01*
X157395488Y-64911609D01*
X157409630Y-64925751D01*
X157838278Y-64497103D01*
X157838278Y-64389340D01*
X157812984Y-64364045D01*
X157727242Y-64278303D01*
X157636620Y-64240766D01*
X157630385Y-64207627D01*
X157562203Y-64104820D01*
X157423921Y-63966538D01*
X158267578Y-63966539D01*
X158267578Y-63966539D01*
G37*
X158267578Y-63966539D02*
X158584369Y-64283331D01*
X158584368Y-65126985D01*
X158446087Y-64988704D01*
X158351190Y-64923863D01*
X158310446Y-64915025D01*
X158272604Y-64823665D01*
X158186862Y-64737923D01*
X158161567Y-64712629D01*
X158053804Y-64712629D01*
X157625156Y-65141277D01*
X157639299Y-65155420D01*
X157423773Y-65370946D01*
X157409630Y-65356803D01*
X156980982Y-65785451D01*
X156980982Y-65852104D01*
X156764526Y-65852104D01*
X155788343Y-64875924D01*
X155955249Y-64875924D01*
X156373174Y-65293849D01*
X156468071Y-65358690D01*
X156508813Y-65367528D01*
X156546656Y-65458889D01*
X156632398Y-65544631D01*
X156657693Y-65569925D01*
X156765456Y-65569925D01*
X157194104Y-65141277D01*
X157179962Y-65127135D01*
X157395488Y-64911609D01*
X157409630Y-64925751D01*
X157838278Y-64497103D01*
X157838278Y-64389340D01*
X157812984Y-64364045D01*
X157727242Y-64278303D01*
X157636620Y-64240766D01*
X157630385Y-64207627D01*
X157562203Y-64104820D01*
X157423921Y-63966538D01*
X158267578Y-63966539D01*
M02*
