G04 #@! TF.FileFunction,Legend,Bot*
%FSLAX46Y46*%
G04 Gerber Fmt 4.6, Leading zero omitted, Abs format (unit mm)*
G04 Created by KiCad (PCBNEW 4.0.5+dfsg1-4) date Tue Oct 16 22:11:46 2018*
%MOMM*%
%LPD*%
G01*
G04 APERTURE LIST*
%ADD10C,0.100000*%
%ADD11C,0.625000*%
%ADD12C,0.010000*%
G04 APERTURE END LIST*
D10*
D11*
X79867095Y-83376048D02*
X81295667Y-83376048D01*
X80581381Y-80876048D02*
X80581381Y-83376048D01*
X82129000Y-80876048D02*
X82129000Y-83376048D01*
X82129000Y-82185571D02*
X83557572Y-82185571D01*
X83557572Y-80876048D02*
X83557572Y-83376048D01*
X84748048Y-83376048D02*
X84748048Y-81352238D01*
X84867096Y-81114143D01*
X84986143Y-80995095D01*
X85224239Y-80876048D01*
X85700429Y-80876048D01*
X85938524Y-80995095D01*
X86057572Y-81114143D01*
X86176620Y-81352238D01*
X86176620Y-83376048D01*
X87367096Y-80876048D02*
X87367096Y-83376048D01*
X88795668Y-80876048D01*
X88795668Y-83376048D01*
X89986144Y-80876048D02*
X89986144Y-83376048D01*
X91414716Y-80876048D02*
X90343287Y-82304619D01*
X91414716Y-83376048D02*
X89986144Y-81947476D01*
X92486144Y-80876048D02*
X92486144Y-83376048D01*
X93319477Y-83376048D02*
X94748049Y-83376048D01*
X94033763Y-80876048D02*
X94033763Y-83376048D01*
X80224238Y-77810571D02*
X81057571Y-77810571D01*
X81414714Y-76501048D02*
X80224238Y-76501048D01*
X80224238Y-79001048D01*
X81414714Y-79001048D01*
X83676619Y-76501048D02*
X82486143Y-76501048D01*
X82486143Y-79001048D01*
X84509953Y-77810571D02*
X85343286Y-77810571D01*
X85700429Y-76501048D02*
X84509953Y-76501048D01*
X84509953Y-79001048D01*
X85700429Y-79001048D01*
X88200430Y-76739143D02*
X88081382Y-76620095D01*
X87724239Y-76501048D01*
X87486144Y-76501048D01*
X87129001Y-76620095D01*
X86890906Y-76858190D01*
X86771858Y-77096286D01*
X86652810Y-77572476D01*
X86652810Y-77929619D01*
X86771858Y-78405810D01*
X86890906Y-78643905D01*
X87129001Y-78882000D01*
X87486144Y-79001048D01*
X87724239Y-79001048D01*
X88081382Y-78882000D01*
X88200430Y-78762952D01*
X88914715Y-79001048D02*
X90343287Y-79001048D01*
X89629001Y-76501048D02*
X89629001Y-79001048D01*
X92605192Y-76501048D02*
X91771858Y-77691524D01*
X91176620Y-76501048D02*
X91176620Y-79001048D01*
X92129001Y-79001048D01*
X92367096Y-78882000D01*
X92486144Y-78762952D01*
X92605192Y-78524857D01*
X92605192Y-78167714D01*
X92486144Y-77929619D01*
X92367096Y-77810571D01*
X92129001Y-77691524D01*
X91176620Y-77691524D01*
X94152811Y-79001048D02*
X94629001Y-79001048D01*
X94867096Y-78882000D01*
X95105192Y-78643905D01*
X95224239Y-78167714D01*
X95224239Y-77334381D01*
X95105192Y-76858190D01*
X94867096Y-76620095D01*
X94629001Y-76501048D01*
X94152811Y-76501048D01*
X93914715Y-76620095D01*
X93676620Y-76858190D01*
X93557572Y-77334381D01*
X93557572Y-78167714D01*
X93676620Y-78643905D01*
X93914715Y-78882000D01*
X94152811Y-79001048D01*
X96295668Y-76501048D02*
X96295668Y-79001048D01*
X97724240Y-76501048D01*
X97724240Y-79001048D01*
X98914716Y-76501048D02*
X98914716Y-79001048D01*
X101533764Y-76739143D02*
X101414716Y-76620095D01*
X101057573Y-76501048D01*
X100819478Y-76501048D01*
X100462335Y-76620095D01*
X100224240Y-76858190D01*
X100105192Y-77096286D01*
X99986144Y-77572476D01*
X99986144Y-77929619D01*
X100105192Y-78405810D01*
X100224240Y-78643905D01*
X100462335Y-78882000D01*
X100819478Y-79001048D01*
X101057573Y-79001048D01*
X101414716Y-78882000D01*
X101533764Y-78762952D01*
X102486144Y-76620095D02*
X102843287Y-76501048D01*
X103438525Y-76501048D01*
X103676621Y-76620095D01*
X103795668Y-76739143D01*
X103914716Y-76977238D01*
X103914716Y-77215333D01*
X103795668Y-77453429D01*
X103676621Y-77572476D01*
X103438525Y-77691524D01*
X102962335Y-77810571D01*
X102724240Y-77929619D01*
X102605192Y-78048667D01*
X102486144Y-78286762D01*
X102486144Y-78524857D01*
X102605192Y-78762952D01*
X102724240Y-78882000D01*
X102962335Y-79001048D01*
X103557573Y-79001048D01*
X103914716Y-78882000D01*
X172100905Y-113473952D02*
X170672333Y-113473952D01*
X171386619Y-115973952D02*
X171386619Y-113473952D01*
X169839000Y-115973952D02*
X169839000Y-113473952D01*
X169839000Y-114664429D02*
X168410428Y-114664429D01*
X168410428Y-115973952D02*
X168410428Y-113473952D01*
X167219952Y-113473952D02*
X167219952Y-115497762D01*
X167100904Y-115735857D01*
X166981857Y-115854905D01*
X166743761Y-115973952D01*
X166267571Y-115973952D01*
X166029476Y-115854905D01*
X165910428Y-115735857D01*
X165791380Y-115497762D01*
X165791380Y-113473952D01*
X164600904Y-115973952D02*
X164600904Y-113473952D01*
X163172332Y-115973952D01*
X163172332Y-113473952D01*
X161981856Y-115973952D02*
X161981856Y-113473952D01*
X160553284Y-115973952D02*
X161624713Y-114545381D01*
X160553284Y-113473952D02*
X161981856Y-114902524D01*
X159481856Y-115973952D02*
X159481856Y-113473952D01*
X158648523Y-113473952D02*
X157219951Y-113473952D01*
X157934237Y-115973952D02*
X157934237Y-113473952D01*
X171743762Y-119039429D02*
X170910429Y-119039429D01*
X170553286Y-120348952D02*
X171743762Y-120348952D01*
X171743762Y-117848952D01*
X170553286Y-117848952D01*
X168291381Y-120348952D02*
X169481857Y-120348952D01*
X169481857Y-117848952D01*
X167458047Y-119039429D02*
X166624714Y-119039429D01*
X166267571Y-120348952D02*
X167458047Y-120348952D01*
X167458047Y-117848952D01*
X166267571Y-117848952D01*
X163767570Y-120110857D02*
X163886618Y-120229905D01*
X164243761Y-120348952D01*
X164481856Y-120348952D01*
X164838999Y-120229905D01*
X165077094Y-119991810D01*
X165196142Y-119753714D01*
X165315190Y-119277524D01*
X165315190Y-118920381D01*
X165196142Y-118444190D01*
X165077094Y-118206095D01*
X164838999Y-117968000D01*
X164481856Y-117848952D01*
X164243761Y-117848952D01*
X163886618Y-117968000D01*
X163767570Y-118087048D01*
X163053285Y-117848952D02*
X161624713Y-117848952D01*
X162338999Y-120348952D02*
X162338999Y-117848952D01*
X159362808Y-120348952D02*
X160196142Y-119158476D01*
X160791380Y-120348952D02*
X160791380Y-117848952D01*
X159838999Y-117848952D01*
X159600904Y-117968000D01*
X159481856Y-118087048D01*
X159362808Y-118325143D01*
X159362808Y-118682286D01*
X159481856Y-118920381D01*
X159600904Y-119039429D01*
X159838999Y-119158476D01*
X160791380Y-119158476D01*
X157815189Y-117848952D02*
X157338999Y-117848952D01*
X157100904Y-117968000D01*
X156862808Y-118206095D01*
X156743761Y-118682286D01*
X156743761Y-119515619D01*
X156862808Y-119991810D01*
X157100904Y-120229905D01*
X157338999Y-120348952D01*
X157815189Y-120348952D01*
X158053285Y-120229905D01*
X158291380Y-119991810D01*
X158410428Y-119515619D01*
X158410428Y-118682286D01*
X158291380Y-118206095D01*
X158053285Y-117968000D01*
X157815189Y-117848952D01*
X155672332Y-120348952D02*
X155672332Y-117848952D01*
X154243760Y-120348952D01*
X154243760Y-117848952D01*
X153053284Y-120348952D02*
X153053284Y-117848952D01*
X150434236Y-120110857D02*
X150553284Y-120229905D01*
X150910427Y-120348952D01*
X151148522Y-120348952D01*
X151505665Y-120229905D01*
X151743760Y-119991810D01*
X151862808Y-119753714D01*
X151981856Y-119277524D01*
X151981856Y-118920381D01*
X151862808Y-118444190D01*
X151743760Y-118206095D01*
X151505665Y-117968000D01*
X151148522Y-117848952D01*
X150910427Y-117848952D01*
X150553284Y-117968000D01*
X150434236Y-118087048D01*
X149481856Y-120229905D02*
X149124713Y-120348952D01*
X148529475Y-120348952D01*
X148291379Y-120229905D01*
X148172332Y-120110857D01*
X148053284Y-119872762D01*
X148053284Y-119634667D01*
X148172332Y-119396571D01*
X148291379Y-119277524D01*
X148529475Y-119158476D01*
X149005665Y-119039429D01*
X149243760Y-118920381D01*
X149362808Y-118801333D01*
X149481856Y-118563238D01*
X149481856Y-118325143D01*
X149362808Y-118087048D01*
X149243760Y-117968000D01*
X149005665Y-117848952D01*
X148410427Y-117848952D01*
X148053284Y-117968000D01*
D12*
G36*
X106211616Y-76595200D02*
X106236958Y-76665667D01*
X106278032Y-76774459D01*
X106340222Y-76941300D01*
X106419570Y-77155403D01*
X106512119Y-77405978D01*
X106613911Y-77682240D01*
X106720987Y-77973399D01*
X106829389Y-78268667D01*
X106935159Y-78557258D01*
X107034339Y-78828382D01*
X107122971Y-79071253D01*
X107197097Y-79275082D01*
X107252759Y-79429081D01*
X107285999Y-79522463D01*
X107293833Y-79546209D01*
X107253262Y-79551187D01*
X107138592Y-79556413D01*
X106960391Y-79561633D01*
X106729224Y-79566595D01*
X106455659Y-79571044D01*
X106150263Y-79574726D01*
X106076022Y-79575444D01*
X104858210Y-79586667D01*
X106261738Y-81442433D01*
X106525927Y-81791403D01*
X106775759Y-82120747D01*
X107006404Y-82424140D01*
X107213032Y-82695260D01*
X107390811Y-82927784D01*
X107534910Y-83115389D01*
X107640500Y-83251753D01*
X107702750Y-83330551D01*
X107717141Y-83347433D01*
X107752324Y-83369497D01*
X107747348Y-83322210D01*
X107744464Y-83312000D01*
X107718218Y-83218623D01*
X107675614Y-83063665D01*
X107619841Y-82859001D01*
X107554091Y-82616503D01*
X107481554Y-82348045D01*
X107405423Y-82065501D01*
X107328887Y-81780744D01*
X107255139Y-81505648D01*
X107187368Y-81252086D01*
X107128766Y-81031932D01*
X107082525Y-80857059D01*
X107051834Y-80739341D01*
X107039886Y-80690651D01*
X107039833Y-80690141D01*
X107080381Y-80683933D01*
X107194884Y-80678323D01*
X107372632Y-80673526D01*
X107602913Y-80669760D01*
X107875018Y-80667241D01*
X108178235Y-80666185D01*
X108225167Y-80666167D01*
X108532084Y-80665443D01*
X108809476Y-80663401D01*
X109046632Y-80660230D01*
X109232841Y-80656123D01*
X109357393Y-80651269D01*
X109409576Y-80645860D01*
X109410500Y-80645023D01*
X109385242Y-80609319D01*
X109313132Y-80514099D01*
X109199668Y-80366393D01*
X109050347Y-80173227D01*
X108870666Y-79941631D01*
X108666122Y-79678633D01*
X108442213Y-79391261D01*
X108204436Y-79086543D01*
X107958288Y-78771508D01*
X107709266Y-78453183D01*
X107462867Y-78138597D01*
X107224590Y-77834779D01*
X106999930Y-77548756D01*
X106794386Y-77287558D01*
X106613454Y-77058211D01*
X106462632Y-76867744D01*
X106347417Y-76723187D01*
X106273305Y-76631566D01*
X106248336Y-76602167D01*
X106211574Y-76569192D01*
X106211616Y-76595200D01*
X106211616Y-76595200D01*
G37*
X106211616Y-76595200D02*
X106236958Y-76665667D01*
X106278032Y-76774459D01*
X106340222Y-76941300D01*
X106419570Y-77155403D01*
X106512119Y-77405978D01*
X106613911Y-77682240D01*
X106720987Y-77973399D01*
X106829389Y-78268667D01*
X106935159Y-78557258D01*
X107034339Y-78828382D01*
X107122971Y-79071253D01*
X107197097Y-79275082D01*
X107252759Y-79429081D01*
X107285999Y-79522463D01*
X107293833Y-79546209D01*
X107253262Y-79551187D01*
X107138592Y-79556413D01*
X106960391Y-79561633D01*
X106729224Y-79566595D01*
X106455659Y-79571044D01*
X106150263Y-79574726D01*
X106076022Y-79575444D01*
X104858210Y-79586667D01*
X106261738Y-81442433D01*
X106525927Y-81791403D01*
X106775759Y-82120747D01*
X107006404Y-82424140D01*
X107213032Y-82695260D01*
X107390811Y-82927784D01*
X107534910Y-83115389D01*
X107640500Y-83251753D01*
X107702750Y-83330551D01*
X107717141Y-83347433D01*
X107752324Y-83369497D01*
X107747348Y-83322210D01*
X107744464Y-83312000D01*
X107718218Y-83218623D01*
X107675614Y-83063665D01*
X107619841Y-82859001D01*
X107554091Y-82616503D01*
X107481554Y-82348045D01*
X107405423Y-82065501D01*
X107328887Y-81780744D01*
X107255139Y-81505648D01*
X107187368Y-81252086D01*
X107128766Y-81031932D01*
X107082525Y-80857059D01*
X107051834Y-80739341D01*
X107039886Y-80690651D01*
X107039833Y-80690141D01*
X107080381Y-80683933D01*
X107194884Y-80678323D01*
X107372632Y-80673526D01*
X107602913Y-80669760D01*
X107875018Y-80667241D01*
X108178235Y-80666185D01*
X108225167Y-80666167D01*
X108532084Y-80665443D01*
X108809476Y-80663401D01*
X109046632Y-80660230D01*
X109232841Y-80656123D01*
X109357393Y-80651269D01*
X109409576Y-80645860D01*
X109410500Y-80645023D01*
X109385242Y-80609319D01*
X109313132Y-80514099D01*
X109199668Y-80366393D01*
X109050347Y-80173227D01*
X108870666Y-79941631D01*
X108666122Y-79678633D01*
X108442213Y-79391261D01*
X108204436Y-79086543D01*
X107958288Y-78771508D01*
X107709266Y-78453183D01*
X107462867Y-78138597D01*
X107224590Y-77834779D01*
X106999930Y-77548756D01*
X106794386Y-77287558D01*
X106613454Y-77058211D01*
X106462632Y-76867744D01*
X106347417Y-76723187D01*
X106273305Y-76631566D01*
X106248336Y-76602167D01*
X106211574Y-76569192D01*
X106211616Y-76595200D01*
G36*
X145756384Y-120254800D02*
X145731042Y-120184333D01*
X145689968Y-120075541D01*
X145627778Y-119908700D01*
X145548430Y-119694597D01*
X145455881Y-119444022D01*
X145354089Y-119167760D01*
X145247013Y-118876601D01*
X145138611Y-118581333D01*
X145032841Y-118292742D01*
X144933661Y-118021618D01*
X144845029Y-117778747D01*
X144770903Y-117574918D01*
X144715241Y-117420919D01*
X144682001Y-117327537D01*
X144674167Y-117303791D01*
X144714738Y-117298813D01*
X144829408Y-117293587D01*
X145007609Y-117288367D01*
X145238776Y-117283405D01*
X145512341Y-117278956D01*
X145817737Y-117275274D01*
X145891978Y-117274556D01*
X147109790Y-117263333D01*
X145706262Y-115407567D01*
X145442073Y-115058597D01*
X145192241Y-114729253D01*
X144961596Y-114425860D01*
X144754968Y-114154740D01*
X144577189Y-113922216D01*
X144433090Y-113734611D01*
X144327500Y-113598247D01*
X144265250Y-113519449D01*
X144250859Y-113502567D01*
X144215676Y-113480503D01*
X144220652Y-113527790D01*
X144223536Y-113538000D01*
X144249782Y-113631377D01*
X144292386Y-113786335D01*
X144348159Y-113990999D01*
X144413909Y-114233497D01*
X144486446Y-114501955D01*
X144562577Y-114784499D01*
X144639113Y-115069256D01*
X144712861Y-115344352D01*
X144780632Y-115597914D01*
X144839234Y-115818068D01*
X144885475Y-115992941D01*
X144916166Y-116110659D01*
X144928114Y-116159349D01*
X144928167Y-116159859D01*
X144887619Y-116166067D01*
X144773116Y-116171677D01*
X144595368Y-116176474D01*
X144365087Y-116180240D01*
X144092982Y-116182759D01*
X143789765Y-116183815D01*
X143742833Y-116183833D01*
X143435916Y-116184557D01*
X143158524Y-116186599D01*
X142921368Y-116189770D01*
X142735159Y-116193877D01*
X142610607Y-116198731D01*
X142558424Y-116204140D01*
X142557500Y-116204977D01*
X142582758Y-116240681D01*
X142654868Y-116335901D01*
X142768332Y-116483607D01*
X142917653Y-116676773D01*
X143097334Y-116908369D01*
X143301878Y-117171367D01*
X143525787Y-117458739D01*
X143763564Y-117763457D01*
X144009712Y-118078492D01*
X144258734Y-118396817D01*
X144505133Y-118711403D01*
X144743410Y-119015221D01*
X144968070Y-119301244D01*
X145173614Y-119562442D01*
X145354546Y-119791789D01*
X145505368Y-119982256D01*
X145620583Y-120126813D01*
X145694695Y-120218434D01*
X145719664Y-120247833D01*
X145756426Y-120280808D01*
X145756384Y-120254800D01*
X145756384Y-120254800D01*
G37*
X145756384Y-120254800D02*
X145731042Y-120184333D01*
X145689968Y-120075541D01*
X145627778Y-119908700D01*
X145548430Y-119694597D01*
X145455881Y-119444022D01*
X145354089Y-119167760D01*
X145247013Y-118876601D01*
X145138611Y-118581333D01*
X145032841Y-118292742D01*
X144933661Y-118021618D01*
X144845029Y-117778747D01*
X144770903Y-117574918D01*
X144715241Y-117420919D01*
X144682001Y-117327537D01*
X144674167Y-117303791D01*
X144714738Y-117298813D01*
X144829408Y-117293587D01*
X145007609Y-117288367D01*
X145238776Y-117283405D01*
X145512341Y-117278956D01*
X145817737Y-117275274D01*
X145891978Y-117274556D01*
X147109790Y-117263333D01*
X145706262Y-115407567D01*
X145442073Y-115058597D01*
X145192241Y-114729253D01*
X144961596Y-114425860D01*
X144754968Y-114154740D01*
X144577189Y-113922216D01*
X144433090Y-113734611D01*
X144327500Y-113598247D01*
X144265250Y-113519449D01*
X144250859Y-113502567D01*
X144215676Y-113480503D01*
X144220652Y-113527790D01*
X144223536Y-113538000D01*
X144249782Y-113631377D01*
X144292386Y-113786335D01*
X144348159Y-113990999D01*
X144413909Y-114233497D01*
X144486446Y-114501955D01*
X144562577Y-114784499D01*
X144639113Y-115069256D01*
X144712861Y-115344352D01*
X144780632Y-115597914D01*
X144839234Y-115818068D01*
X144885475Y-115992941D01*
X144916166Y-116110659D01*
X144928114Y-116159349D01*
X144928167Y-116159859D01*
X144887619Y-116166067D01*
X144773116Y-116171677D01*
X144595368Y-116176474D01*
X144365087Y-116180240D01*
X144092982Y-116182759D01*
X143789765Y-116183815D01*
X143742833Y-116183833D01*
X143435916Y-116184557D01*
X143158524Y-116186599D01*
X142921368Y-116189770D01*
X142735159Y-116193877D01*
X142610607Y-116198731D01*
X142558424Y-116204140D01*
X142557500Y-116204977D01*
X142582758Y-116240681D01*
X142654868Y-116335901D01*
X142768332Y-116483607D01*
X142917653Y-116676773D01*
X143097334Y-116908369D01*
X143301878Y-117171367D01*
X143525787Y-117458739D01*
X143763564Y-117763457D01*
X144009712Y-118078492D01*
X144258734Y-118396817D01*
X144505133Y-118711403D01*
X144743410Y-119015221D01*
X144968070Y-119301244D01*
X145173614Y-119562442D01*
X145354546Y-119791789D01*
X145505368Y-119982256D01*
X145620583Y-120126813D01*
X145694695Y-120218434D01*
X145719664Y-120247833D01*
X145756426Y-120280808D01*
X145756384Y-120254800D01*
M02*
