M48
;DRILL file {KiCad 4.0.5+dfsg1-4} date Tue Oct 16 22:11:48 2018
;FORMAT={-:-/ absolute / inch / decimal}
FMAT,2
INCH,TZ
T1C0.016
T2C0.039
T3C0.040
%
G90
G05
M72
T1
X3.17Y-3.79
X3.17Y-3.84
X3.17Y-3.89
X3.17Y-3.94
X3.17Y-3.99
X3.17Y-4.04
X3.17Y-4.09
X3.17Y-4.14
X3.38Y-3.62
X3.43Y-4.31
X3.48Y-3.45
X3.4805Y-3.62
X3.53Y-3.62
X6.39Y-4.13
X6.4395Y-4.13
X6.44Y-4.3
X6.49Y-3.44
X6.54Y-4.13
X6.75Y-3.61
X6.75Y-3.66
X6.75Y-3.71
X6.75Y-3.76
X6.75Y-3.81
X6.75Y-3.86
X6.75Y-3.91
X6.75Y-3.96
T2
X2.92Y-2.93
X2.92Y-4.82
X3.02Y-2.93
X3.02Y-4.82
X3.12Y-2.93
X3.12Y-4.82
X3.22Y-2.93
X3.22Y-4.82
X3.32Y-2.93
X3.32Y-4.82
X3.42Y-2.93
X3.42Y-4.82
X3.52Y-4.82
X3.62Y-2.93
X3.62Y-4.82
X3.72Y-2.93
X3.78Y-4.82
X3.82Y-2.93
X3.88Y-4.82
X3.92Y-2.93
X3.98Y-4.82
X4.02Y-2.93
X4.08Y-4.82
X4.12Y-2.93
X4.18Y-4.82
X4.22Y-2.93
X4.28Y-4.82
X4.32Y-2.93
X4.38Y-4.82
X4.48Y-4.82
X4.58Y-4.82
X4.68Y-4.82
X5.24Y-2.93
X5.34Y-2.93
X5.44Y-2.93
X5.54Y-2.93
X5.6Y-4.82
X5.64Y-2.93
X5.7Y-4.82
X5.74Y-2.93
X5.8Y-4.82
X5.84Y-2.93
X5.9Y-4.82
X5.94Y-2.93
X6.Y-4.82
X6.04Y-2.93
X6.1Y-4.82
X6.14Y-2.93
X6.2Y-4.82
X6.3Y-2.93
X6.3Y-4.82
X6.4Y-2.93
X6.5Y-2.93
X6.5Y-4.82
X6.6Y-2.93
X6.6Y-4.82
X6.7Y-2.93
X6.7Y-4.82
X6.8Y-2.93
X6.8Y-4.82
X6.9Y-2.93
X6.9Y-4.82
X7.Y-2.93
X7.Y-4.82
T3
X3.19Y-4.4
X3.19Y-4.5
X3.29Y-4.4
X3.29Y-4.5
X3.39Y-4.4
X3.39Y-4.5
X3.49Y-4.4
X3.49Y-4.5
X3.59Y-4.4
X3.59Y-4.5
X3.69Y-4.4
X3.69Y-4.5
X3.79Y-4.4
X3.79Y-4.5
X3.89Y-4.4
X3.89Y-4.5
X4.04Y-3.55
X4.04Y-3.65
X4.04Y-3.75
X4.04Y-3.85
X4.04Y-3.95
X4.04Y-4.05
X4.04Y-4.15
X4.04Y-4.25
X4.04Y-4.4
X4.04Y-4.5
X4.14Y-3.55
X4.14Y-3.65
X4.14Y-3.75
X4.14Y-3.85
X4.14Y-3.95
X4.14Y-4.05
X4.14Y-4.15
X4.14Y-4.25
X4.14Y-4.4
X4.14Y-4.5
X4.24Y-4.4
X4.24Y-4.5
X4.34Y-4.4
X4.34Y-4.5
X4.44Y-4.4
X4.44Y-4.5
X4.54Y-4.4
X4.54Y-4.5
X4.64Y-4.4
X4.64Y-4.5
X4.74Y-4.4
X4.74Y-4.5
X5.18Y-3.25
X5.18Y-3.35
X5.28Y-3.25
X5.28Y-3.35
X5.38Y-3.25
X5.38Y-3.35
X5.48Y-3.25
X5.48Y-3.35
X5.58Y-3.25
X5.58Y-3.35
X5.68Y-3.25
X5.68Y-3.35
X5.78Y-3.25
X5.78Y-3.35
X5.78Y-3.5
X5.78Y-3.6
X5.78Y-3.7
X5.78Y-3.8
X5.78Y-3.9
X5.78Y-4.
X5.78Y-4.1
X5.78Y-4.2
X5.88Y-3.25
X5.88Y-3.35
X5.88Y-3.5
X5.88Y-3.6
X5.88Y-3.7
X5.88Y-3.8
X5.88Y-3.9
X5.88Y-4.
X5.88Y-4.1
X5.88Y-4.2
X6.03Y-3.25
X6.03Y-3.35
X6.13Y-3.25
X6.13Y-3.35
X6.23Y-3.25
X6.23Y-3.35
X6.33Y-3.25
X6.33Y-3.35
X6.43Y-3.25
X6.43Y-3.35
X6.53Y-3.25
X6.53Y-3.35
X6.63Y-3.25
X6.63Y-3.35
X6.73Y-3.25
X6.73Y-3.35
T0
M30
