G04 #@! TF.FileFunction,Copper,L2,Bot,Signal*
%FSLAX46Y46*%
G04 Gerber Fmt 4.6, Leading zero omitted, Abs format (unit mm)*
G04 Created by KiCad (PCBNEW 4.0.5+dfsg1-4) date Tue Oct 16 22:11:46 2018*
%MOMM*%
%LPD*%
G01*
G04 APERTURE LIST*
%ADD10C,0.100000*%
%ADD11C,0.150000*%
%ADD12R,1.700000X1.700000*%
%ADD13O,1.700000X1.700000*%
%ADD14C,0.600000*%
%ADD15R,1.727200X1.727200*%
%ADD16O,1.727200X1.727200*%
%ADD17C,0.304800*%
%ADD18C,0.254000*%
G04 APERTURE END LIST*
D10*
D11*
X117108143Y-73521643D02*
X117072429Y-73485929D01*
X116965286Y-73450214D01*
X116893857Y-73450214D01*
X116786714Y-73485929D01*
X116715286Y-73557357D01*
X116679571Y-73628786D01*
X116643857Y-73771643D01*
X116643857Y-73878786D01*
X116679571Y-74021643D01*
X116715286Y-74093071D01*
X116786714Y-74164500D01*
X116893857Y-74200214D01*
X116965286Y-74200214D01*
X117072429Y-74164500D01*
X117108143Y-74128786D01*
X117429571Y-73450214D02*
X117429571Y-74200214D01*
X117608143Y-74200214D01*
X117715286Y-74164500D01*
X117786714Y-74093071D01*
X117822429Y-74021643D01*
X117858143Y-73878786D01*
X117858143Y-73771643D01*
X117822429Y-73628786D01*
X117786714Y-73557357D01*
X117715286Y-73485929D01*
X117608143Y-73450214D01*
X117429571Y-73450214D01*
X118179571Y-73450214D02*
X118179571Y-74200214D01*
X118429571Y-73664500D01*
X118679571Y-74200214D01*
X118679571Y-73450214D01*
X120036715Y-73450214D02*
X119786715Y-73807357D01*
X119608143Y-73450214D02*
X119608143Y-74200214D01*
X119893858Y-74200214D01*
X119965286Y-74164500D01*
X120001001Y-74128786D01*
X120036715Y-74057357D01*
X120036715Y-73950214D01*
X120001001Y-73878786D01*
X119965286Y-73843071D01*
X119893858Y-73807357D01*
X119608143Y-73807357D01*
X120358143Y-73521643D02*
X120393858Y-73485929D01*
X120358143Y-73450214D01*
X120322429Y-73485929D01*
X120358143Y-73521643D01*
X120358143Y-73450214D01*
X120358143Y-73914500D02*
X120393858Y-73878786D01*
X120358143Y-73843071D01*
X120322429Y-73878786D01*
X120358143Y-73914500D01*
X120358143Y-73843071D01*
X121251001Y-73664500D02*
X121608144Y-73664500D01*
X121179573Y-73450214D02*
X121429573Y-74200214D01*
X121679573Y-73450214D01*
X116697428Y-72603786D02*
X116626000Y-72639500D01*
X116590285Y-72675214D01*
X116554571Y-72746643D01*
X116554571Y-72782357D01*
X116590285Y-72853786D01*
X116626000Y-72889500D01*
X116697428Y-72925214D01*
X116840285Y-72925214D01*
X116911714Y-72889500D01*
X116947428Y-72853786D01*
X116983143Y-72782357D01*
X116983143Y-72746643D01*
X116947428Y-72675214D01*
X116911714Y-72639500D01*
X116840285Y-72603786D01*
X116697428Y-72603786D01*
X116626000Y-72568071D01*
X116590285Y-72532357D01*
X116554571Y-72460929D01*
X116554571Y-72318071D01*
X116590285Y-72246643D01*
X116626000Y-72210929D01*
X116697428Y-72175214D01*
X116840285Y-72175214D01*
X116911714Y-72210929D01*
X116947428Y-72246643D01*
X116983143Y-72318071D01*
X116983143Y-72460929D01*
X116947428Y-72532357D01*
X116911714Y-72568071D01*
X116840285Y-72603786D01*
X117304571Y-72460929D02*
X117876000Y-72460929D01*
X118626000Y-72175214D02*
X118197428Y-72175214D01*
X118411714Y-72175214D02*
X118411714Y-72925214D01*
X118340285Y-72818071D01*
X118268857Y-72746643D01*
X118197428Y-72710929D01*
X119268857Y-72925214D02*
X119126000Y-72925214D01*
X119054571Y-72889500D01*
X119018857Y-72853786D01*
X118947428Y-72746643D01*
X118911714Y-72603786D01*
X118911714Y-72318071D01*
X118947428Y-72246643D01*
X118983143Y-72210929D01*
X119054571Y-72175214D01*
X119197428Y-72175214D01*
X119268857Y-72210929D01*
X119304571Y-72246643D01*
X119340286Y-72318071D01*
X119340286Y-72496643D01*
X119304571Y-72568071D01*
X119268857Y-72603786D01*
X119197428Y-72639500D01*
X119054571Y-72639500D01*
X118983143Y-72603786D01*
X118947428Y-72568071D01*
X118911714Y-72496643D01*
X119661714Y-72460929D02*
X120233143Y-72460929D01*
X120983143Y-72175214D02*
X120554571Y-72175214D01*
X120768857Y-72175214D02*
X120768857Y-72925214D01*
X120697428Y-72818071D01*
X120626000Y-72746643D01*
X120554571Y-72710929D01*
X121411714Y-72603786D02*
X121340286Y-72639500D01*
X121304571Y-72675214D01*
X121268857Y-72746643D01*
X121268857Y-72782357D01*
X121304571Y-72853786D01*
X121340286Y-72889500D01*
X121411714Y-72925214D01*
X121554571Y-72925214D01*
X121626000Y-72889500D01*
X121661714Y-72853786D01*
X121697429Y-72782357D01*
X121697429Y-72746643D01*
X121661714Y-72675214D01*
X121626000Y-72639500D01*
X121554571Y-72603786D01*
X121411714Y-72603786D01*
X121340286Y-72568071D01*
X121304571Y-72532357D01*
X121268857Y-72460929D01*
X121268857Y-72318071D01*
X121304571Y-72246643D01*
X121340286Y-72210929D01*
X121411714Y-72175214D01*
X121554571Y-72175214D01*
X121626000Y-72210929D01*
X121661714Y-72246643D01*
X121697429Y-72318071D01*
X121697429Y-72460929D01*
X121661714Y-72532357D01*
X121626000Y-72568071D01*
X121554571Y-72603786D01*
X134859857Y-123328357D02*
X134895571Y-123364071D01*
X135002714Y-123399786D01*
X135074143Y-123399786D01*
X135181286Y-123364071D01*
X135252714Y-123292643D01*
X135288429Y-123221214D01*
X135324143Y-123078357D01*
X135324143Y-122971214D01*
X135288429Y-122828357D01*
X135252714Y-122756929D01*
X135181286Y-122685500D01*
X135074143Y-122649786D01*
X135002714Y-122649786D01*
X134895571Y-122685500D01*
X134859857Y-122721214D01*
X134538429Y-123399786D02*
X134538429Y-122649786D01*
X134359857Y-122649786D01*
X134252714Y-122685500D01*
X134181286Y-122756929D01*
X134145571Y-122828357D01*
X134109857Y-122971214D01*
X134109857Y-123078357D01*
X134145571Y-123221214D01*
X134181286Y-123292643D01*
X134252714Y-123364071D01*
X134359857Y-123399786D01*
X134538429Y-123399786D01*
X133788429Y-123399786D02*
X133788429Y-122649786D01*
X133538429Y-123185500D01*
X133288429Y-122649786D01*
X133288429Y-123399786D01*
X131931285Y-123399786D02*
X132181285Y-123042643D01*
X132359857Y-123399786D02*
X132359857Y-122649786D01*
X132074142Y-122649786D01*
X132002714Y-122685500D01*
X131966999Y-122721214D01*
X131931285Y-122792643D01*
X131931285Y-122899786D01*
X131966999Y-122971214D01*
X132002714Y-123006929D01*
X132074142Y-123042643D01*
X132359857Y-123042643D01*
X131609857Y-123328357D02*
X131574142Y-123364071D01*
X131609857Y-123399786D01*
X131645571Y-123364071D01*
X131609857Y-123328357D01*
X131609857Y-123399786D01*
X131609857Y-122935500D02*
X131574142Y-122971214D01*
X131609857Y-123006929D01*
X131645571Y-122971214D01*
X131609857Y-122935500D01*
X131609857Y-123006929D01*
X130716999Y-123185500D02*
X130359856Y-123185500D01*
X130788427Y-123399786D02*
X130538427Y-122649786D01*
X130288427Y-123399786D01*
X135270572Y-124246214D02*
X135342000Y-124210500D01*
X135377715Y-124174786D01*
X135413429Y-124103357D01*
X135413429Y-124067643D01*
X135377715Y-123996214D01*
X135342000Y-123960500D01*
X135270572Y-123924786D01*
X135127715Y-123924786D01*
X135056286Y-123960500D01*
X135020572Y-123996214D01*
X134984857Y-124067643D01*
X134984857Y-124103357D01*
X135020572Y-124174786D01*
X135056286Y-124210500D01*
X135127715Y-124246214D01*
X135270572Y-124246214D01*
X135342000Y-124281929D01*
X135377715Y-124317643D01*
X135413429Y-124389071D01*
X135413429Y-124531929D01*
X135377715Y-124603357D01*
X135342000Y-124639071D01*
X135270572Y-124674786D01*
X135127715Y-124674786D01*
X135056286Y-124639071D01*
X135020572Y-124603357D01*
X134984857Y-124531929D01*
X134984857Y-124389071D01*
X135020572Y-124317643D01*
X135056286Y-124281929D01*
X135127715Y-124246214D01*
X134663429Y-124389071D02*
X134092000Y-124389071D01*
X133342000Y-124674786D02*
X133770572Y-124674786D01*
X133556286Y-124674786D02*
X133556286Y-123924786D01*
X133627715Y-124031929D01*
X133699143Y-124103357D01*
X133770572Y-124139071D01*
X132699143Y-123924786D02*
X132842000Y-123924786D01*
X132913429Y-123960500D01*
X132949143Y-123996214D01*
X133020572Y-124103357D01*
X133056286Y-124246214D01*
X133056286Y-124531929D01*
X133020572Y-124603357D01*
X132984857Y-124639071D01*
X132913429Y-124674786D01*
X132770572Y-124674786D01*
X132699143Y-124639071D01*
X132663429Y-124603357D01*
X132627714Y-124531929D01*
X132627714Y-124353357D01*
X132663429Y-124281929D01*
X132699143Y-124246214D01*
X132770572Y-124210500D01*
X132913429Y-124210500D01*
X132984857Y-124246214D01*
X133020572Y-124281929D01*
X133056286Y-124353357D01*
X132306286Y-124389071D02*
X131734857Y-124389071D01*
X130984857Y-124674786D02*
X131413429Y-124674786D01*
X131199143Y-124674786D02*
X131199143Y-123924786D01*
X131270572Y-124031929D01*
X131342000Y-124103357D01*
X131413429Y-124139071D01*
X130556286Y-124246214D02*
X130627714Y-124210500D01*
X130663429Y-124174786D01*
X130699143Y-124103357D01*
X130699143Y-124067643D01*
X130663429Y-123996214D01*
X130627714Y-123960500D01*
X130556286Y-123924786D01*
X130413429Y-123924786D01*
X130342000Y-123960500D01*
X130306286Y-123996214D01*
X130270571Y-124067643D01*
X130270571Y-124103357D01*
X130306286Y-124174786D01*
X130342000Y-124210500D01*
X130413429Y-124246214D01*
X130556286Y-124246214D01*
X130627714Y-124281929D01*
X130663429Y-124317643D01*
X130699143Y-124389071D01*
X130699143Y-124531929D01*
X130663429Y-124603357D01*
X130627714Y-124639071D01*
X130556286Y-124674786D01*
X130413429Y-124674786D01*
X130342000Y-124639071D01*
X130306286Y-124603357D01*
X130270571Y-124531929D01*
X130270571Y-124389071D01*
X130306286Y-124317643D01*
X130342000Y-124281929D01*
X130413429Y-124246214D01*
D12*
X74168000Y-74422000D03*
D13*
X76708000Y-74422000D03*
X79248000Y-74422000D03*
X81788000Y-74422000D03*
X84328000Y-74422000D03*
X86868000Y-74422000D03*
D12*
X91948000Y-74422000D03*
D13*
X94488000Y-74422000D03*
X97028000Y-74422000D03*
X99568000Y-74422000D03*
X102108000Y-74422000D03*
X104648000Y-74422000D03*
X107188000Y-74422000D03*
X109728000Y-74422000D03*
D14*
X85852000Y-91948000D03*
X87122000Y-109474000D03*
D15*
X120396000Y-111760000D03*
D16*
X120396000Y-114300000D03*
X117856000Y-111760000D03*
X117856000Y-114300000D03*
X115316000Y-111760000D03*
X115316000Y-114300000D03*
X112776000Y-111760000D03*
X112776000Y-114300000D03*
X110236000Y-111760000D03*
X110236000Y-114300000D03*
X107696000Y-111760000D03*
X107696000Y-114300000D03*
X105156000Y-111760000D03*
X105156000Y-114300000D03*
X102616000Y-111760000D03*
X102616000Y-114300000D03*
D12*
X118872000Y-122428000D03*
D13*
X116332000Y-122428000D03*
X113792000Y-122428000D03*
X111252000Y-122428000D03*
X108712000Y-122428000D03*
X106172000Y-122428000D03*
X103632000Y-122428000D03*
X101092000Y-122428000D03*
X98552000Y-122428000D03*
X96012000Y-122428000D03*
D15*
X98806000Y-111760000D03*
D16*
X98806000Y-114300000D03*
X96266000Y-111760000D03*
X96266000Y-114300000D03*
X93726000Y-111760000D03*
X93726000Y-114300000D03*
X91186000Y-111760000D03*
X91186000Y-114300000D03*
X88646000Y-111760000D03*
X88646000Y-114300000D03*
X86106000Y-111760000D03*
X86106000Y-114300000D03*
X83566000Y-111760000D03*
X83566000Y-114300000D03*
X81026000Y-111760000D03*
X81026000Y-114300000D03*
D15*
X102616000Y-90170000D03*
D16*
X105156000Y-90170000D03*
X102616000Y-92710000D03*
X105156000Y-92710000D03*
X102616000Y-95250000D03*
X105156000Y-95250000D03*
X102616000Y-97790000D03*
X105156000Y-97790000D03*
X102616000Y-100330000D03*
X105156000Y-100330000D03*
X102616000Y-102870000D03*
X105156000Y-102870000D03*
X102616000Y-105410000D03*
X105156000Y-105410000D03*
X102616000Y-107950000D03*
X105156000Y-107950000D03*
D12*
X74168000Y-122428000D03*
D13*
X76708000Y-122428000D03*
X79248000Y-122428000D03*
X81788000Y-122428000D03*
X84328000Y-122428000D03*
X86868000Y-122428000D03*
X89408000Y-122428000D03*
X91948000Y-122428000D03*
D14*
X166116000Y-104902000D03*
D15*
X153162000Y-85090000D03*
D16*
X153162000Y-82550000D03*
X155702000Y-85090000D03*
X155702000Y-82550000D03*
X158242000Y-85090000D03*
X158242000Y-82550000D03*
X160782000Y-85090000D03*
X160782000Y-82550000D03*
X163322000Y-85090000D03*
X163322000Y-82550000D03*
X165862000Y-85090000D03*
X165862000Y-82550000D03*
X168402000Y-85090000D03*
X168402000Y-82550000D03*
X170942000Y-85090000D03*
X170942000Y-82550000D03*
D12*
X177800000Y-122428000D03*
D13*
X175260000Y-122428000D03*
X172720000Y-122428000D03*
X170180000Y-122428000D03*
X167640000Y-122428000D03*
X165100000Y-122428000D03*
D12*
X177800000Y-74422000D03*
D13*
X175260000Y-74422000D03*
X172720000Y-74422000D03*
X170180000Y-74422000D03*
X167640000Y-74422000D03*
X165100000Y-74422000D03*
X162560000Y-74422000D03*
X160020000Y-74422000D03*
D12*
X160020000Y-122428000D03*
D13*
X157480000Y-122428000D03*
X154940000Y-122428000D03*
X152400000Y-122428000D03*
X149860000Y-122428000D03*
X147320000Y-122428000D03*
X144780000Y-122428000D03*
X142240000Y-122428000D03*
D12*
X133096000Y-74422000D03*
D13*
X135636000Y-74422000D03*
X138176000Y-74422000D03*
X140716000Y-74422000D03*
X143256000Y-74422000D03*
X145796000Y-74422000D03*
X148336000Y-74422000D03*
X150876000Y-74422000D03*
X153416000Y-74422000D03*
X155956000Y-74422000D03*
D15*
X149352000Y-106680000D03*
D16*
X146812000Y-106680000D03*
X149352000Y-104140000D03*
X146812000Y-104140000D03*
X149352000Y-101600000D03*
X146812000Y-101600000D03*
X149352000Y-99060000D03*
X146812000Y-99060000D03*
X149352000Y-96520000D03*
X146812000Y-96520000D03*
X149352000Y-93980000D03*
X146812000Y-93980000D03*
X149352000Y-91440000D03*
X146812000Y-91440000D03*
X149352000Y-88900000D03*
X146812000Y-88900000D03*
D15*
X131572000Y-85090000D03*
D16*
X131572000Y-82550000D03*
X134112000Y-85090000D03*
X134112000Y-82550000D03*
X136652000Y-85090000D03*
X136652000Y-82550000D03*
X139192000Y-85090000D03*
X139192000Y-82550000D03*
X141732000Y-85090000D03*
X141732000Y-82550000D03*
X144272000Y-85090000D03*
X144272000Y-82550000D03*
X146812000Y-85090000D03*
X146812000Y-82550000D03*
X149352000Y-85090000D03*
X149352000Y-82550000D03*
D14*
X164846000Y-87376000D03*
X88403500Y-91948000D03*
X88392000Y-87630000D03*
X163576000Y-109220000D03*
X163564500Y-104902000D03*
X89662000Y-91948000D03*
X162306000Y-104902000D03*
X80518000Y-96266000D03*
X171450000Y-100584000D03*
X80518000Y-97536000D03*
X171450000Y-99314000D03*
X80518000Y-98806000D03*
X171450000Y-98044000D03*
X80518000Y-100076000D03*
X171450000Y-96774000D03*
X80518000Y-101346000D03*
X171450000Y-95504000D03*
X80518000Y-102616000D03*
X171450000Y-94234000D03*
X80518000Y-103886000D03*
X171450000Y-92964000D03*
X80518000Y-105156000D03*
X171450000Y-91694000D03*
D17*
X88392000Y-91936500D02*
X88403500Y-91948000D01*
X88392000Y-87630000D02*
X88392000Y-91936500D01*
X163576000Y-109220000D02*
X163576000Y-104913500D01*
X163576000Y-104913500D02*
X163564500Y-104902000D01*
X118872000Y-122428000D02*
X118872000Y-120650000D01*
X118872000Y-120650000D02*
X122682000Y-116840000D01*
X122682000Y-102108000D02*
X122682000Y-116840000D01*
X94704726Y-79756000D02*
X100330000Y-79756000D01*
X75946000Y-72644000D02*
X87592726Y-72644000D01*
X74168000Y-74422000D02*
X75946000Y-72644000D01*
X100330000Y-79756000D02*
X122682000Y-102108000D01*
X87592726Y-72644000D02*
X94704726Y-79756000D01*
X129286000Y-94742000D02*
X129286000Y-80010000D01*
X133096000Y-76200000D02*
X129286000Y-80010000D01*
X133096000Y-74422000D02*
X133096000Y-76200000D01*
X177800000Y-122428000D02*
X176022000Y-124206000D01*
X176022000Y-124206000D02*
X164375274Y-124206000D01*
X164375274Y-124206000D02*
X157263274Y-117094000D01*
X157263274Y-117094000D02*
X151638000Y-117094000D01*
X151638000Y-117094000D02*
X129286000Y-94742000D01*
X116332000Y-122428000D02*
X122174000Y-116586000D01*
X122174000Y-116586000D02*
X122174000Y-102362000D01*
X100076011Y-80264011D02*
X94494301Y-80264011D01*
X77913601Y-73216399D02*
X77557999Y-73572001D01*
X77557999Y-73572001D02*
X76708000Y-74422000D01*
X87446689Y-73216399D02*
X77913601Y-73216399D01*
X94494301Y-80264011D02*
X87446689Y-73216399D01*
X122174000Y-102362000D02*
X100076011Y-80264011D01*
X174410001Y-123277999D02*
X175260000Y-122428000D01*
X164521311Y-123633601D02*
X174054399Y-123633601D01*
X151891989Y-116585989D02*
X157473699Y-116585989D01*
X129794000Y-94488000D02*
X151891989Y-116585989D01*
X129794000Y-80264000D02*
X129794000Y-94488000D01*
X174054399Y-123633601D02*
X174410001Y-123277999D01*
X157473699Y-116585989D02*
X164521311Y-123633601D01*
X135636000Y-74422000D02*
X129794000Y-80264000D01*
X89662000Y-91948000D02*
X89662000Y-84836000D01*
X89662000Y-84836000D02*
X79248000Y-74422000D01*
X162306000Y-104902000D02*
X162306000Y-112014000D01*
X162306000Y-112014000D02*
X172720000Y-122428000D01*
X119380000Y-110744000D02*
X118364000Y-109728000D01*
X120396000Y-111760000D02*
X119380000Y-110744000D01*
X118364000Y-109728000D02*
X118364000Y-106680000D01*
X96266000Y-96266000D02*
X80518000Y-96266000D01*
X106375201Y-94691201D02*
X118364000Y-106680000D01*
X105741217Y-94030799D02*
X98501201Y-94030799D01*
X106375201Y-94664783D02*
X106375201Y-94691201D01*
X105741217Y-94030799D02*
X106375201Y-94664783D01*
X98501201Y-94030799D02*
X96266000Y-96266000D01*
X146226783Y-102819201D02*
X145592799Y-102185217D01*
X145592799Y-102185217D02*
X145592799Y-102158799D01*
X145592799Y-102158799D02*
X133604000Y-90170000D01*
X133604000Y-87122000D02*
X133604000Y-90170000D01*
X155702000Y-100584000D02*
X171450000Y-100584000D01*
X153466799Y-102819201D02*
X155702000Y-100584000D01*
X146226783Y-102819201D02*
X153466799Y-102819201D01*
X132588000Y-86106000D02*
X133604000Y-87122000D01*
X131572000Y-85090000D02*
X132588000Y-86106000D01*
X97282000Y-97536000D02*
X80518000Y-97536000D01*
X116992401Y-107821983D02*
X105741217Y-96570799D01*
X98247201Y-96570799D02*
X97282000Y-97536000D01*
X105741217Y-96570799D02*
X98247201Y-96570799D01*
X117856000Y-111760000D02*
X116992401Y-110896401D01*
X116992401Y-110896401D02*
X116992401Y-107821983D01*
X154686000Y-99314000D02*
X171450000Y-99314000D01*
X153720799Y-100279201D02*
X154686000Y-99314000D01*
X134112000Y-85090000D02*
X134975599Y-85953599D01*
X134975599Y-85953599D02*
X134975599Y-89028017D01*
X134975599Y-89028017D02*
X146226783Y-100279201D01*
X146226783Y-100279201D02*
X153720799Y-100279201D01*
X97282000Y-98806000D02*
X80518000Y-98806000D01*
X115316000Y-108685582D02*
X105639619Y-99009201D01*
X97485201Y-99009201D02*
X97282000Y-98806000D01*
X105639619Y-99009201D02*
X97485201Y-99009201D01*
X115316000Y-111760000D02*
X115316000Y-108685582D01*
X154686000Y-98044000D02*
X171450000Y-98044000D01*
X154482799Y-97840799D02*
X154686000Y-98044000D01*
X136652000Y-85090000D02*
X136652000Y-88164418D01*
X136652000Y-88164418D02*
X146328381Y-97840799D01*
X146328381Y-97840799D02*
X154482799Y-97840799D01*
X97028000Y-100076000D02*
X80518000Y-100076000D01*
X112776000Y-108583984D02*
X105741217Y-101549201D01*
X98501201Y-101549201D02*
X97028000Y-100076000D01*
X105741217Y-101549201D02*
X98501201Y-101549201D01*
X112776000Y-111760000D02*
X112776000Y-108583984D01*
X154940000Y-96774000D02*
X171450000Y-96774000D01*
X153466799Y-95300799D02*
X154940000Y-96774000D01*
X139192000Y-85090000D02*
X139192000Y-88266016D01*
X146226783Y-95300799D02*
X153466799Y-95300799D01*
X139192000Y-88266016D02*
X146226783Y-95300799D01*
X96774000Y-101346000D02*
X80518000Y-101346000D01*
X110236000Y-108685582D02*
X105639619Y-104089201D01*
X105639619Y-104089201D02*
X99517201Y-104089201D01*
X99517201Y-104089201D02*
X96774000Y-101346000D01*
X110236000Y-111760000D02*
X110236000Y-108685582D01*
X152450799Y-92760799D02*
X155194000Y-95504000D01*
X155194000Y-95504000D02*
X171450000Y-95504000D01*
X141732000Y-85090000D02*
X141732000Y-88164418D01*
X141732000Y-88164418D02*
X146328381Y-92760799D01*
X146328381Y-92760799D02*
X152450799Y-92760799D01*
X96520000Y-102616000D02*
X80518000Y-102616000D01*
X107696000Y-108583984D02*
X105741217Y-106629201D01*
X107696000Y-111760000D02*
X107696000Y-108583984D01*
X105741217Y-106629201D02*
X100533201Y-106629201D01*
X100533201Y-106629201D02*
X96520000Y-102616000D01*
X155448000Y-94234000D02*
X171450000Y-94234000D01*
X151434799Y-90220799D02*
X155448000Y-94234000D01*
X144272000Y-85090000D02*
X144272000Y-88266016D01*
X144272000Y-88266016D02*
X146226783Y-90220799D01*
X146226783Y-90220799D02*
X151434799Y-90220799D01*
X96520000Y-103886000D02*
X80518000Y-103886000D01*
X105156000Y-111760000D02*
X103936799Y-110540799D01*
X103174799Y-110540799D02*
X96520000Y-103886000D01*
X103936799Y-110540799D02*
X103174799Y-110540799D01*
X155448000Y-92964000D02*
X171450000Y-92964000D01*
X148793201Y-86309201D02*
X155448000Y-92964000D01*
X146812000Y-85090000D02*
X148031201Y-86309201D01*
X148031201Y-86309201D02*
X148793201Y-86309201D01*
X96012000Y-105156000D02*
X80518000Y-105156000D01*
X102616000Y-111760000D02*
X96012000Y-105156000D01*
X149352000Y-85090000D02*
X155956000Y-91694000D01*
X155956000Y-91694000D02*
X171450000Y-91694000D01*
D18*
G36*
X127706323Y-72842323D02*
X127222053Y-73567085D01*
X127052000Y-74422000D01*
X127222053Y-75276915D01*
X127706323Y-76001677D01*
X128431085Y-76485947D01*
X129286000Y-76656000D01*
X130140915Y-76485947D01*
X130865677Y-76001677D01*
X131349947Y-75276915D01*
X131520000Y-74422000D01*
X131349947Y-73567085D01*
X130865677Y-72842323D01*
X130491042Y-72592000D01*
X179630000Y-72592000D01*
X179630000Y-84836000D01*
X179650861Y-84940875D01*
X179662141Y-85047202D01*
X179677697Y-85075786D01*
X179684046Y-85107705D01*
X179743451Y-85196612D01*
X179794563Y-85290531D01*
X181333095Y-87136769D01*
X181292116Y-87109388D01*
X180340000Y-86920000D01*
X179387884Y-87109388D01*
X178580718Y-87648718D01*
X178041388Y-88455884D01*
X177852000Y-89408000D01*
X178041388Y-90360116D01*
X178580718Y-91167282D01*
X179387884Y-91706612D01*
X180340000Y-91896000D01*
X181292116Y-91706612D01*
X182099282Y-91167282D01*
X182170000Y-91061445D01*
X182170000Y-116142958D01*
X181919677Y-115768323D01*
X181194915Y-115284053D01*
X180340000Y-115114000D01*
X179485085Y-115284053D01*
X178760323Y-115768323D01*
X178276053Y-116493085D01*
X178106000Y-117348000D01*
X178276053Y-118202915D01*
X178760323Y-118927677D01*
X179485085Y-119411947D01*
X180340000Y-119582000D01*
X181194915Y-119411947D01*
X181919677Y-118927677D01*
X182170000Y-118553042D01*
X182170000Y-119630945D01*
X179794563Y-122481469D01*
X179743451Y-122575388D01*
X179684046Y-122664295D01*
X179677697Y-122696214D01*
X179662141Y-122724798D01*
X179650861Y-122831125D01*
X179630000Y-122936000D01*
X179630000Y-124258000D01*
X177083552Y-124258000D01*
X177416112Y-123925440D01*
X178650000Y-123925440D01*
X178885317Y-123881162D01*
X179101441Y-123742090D01*
X179246431Y-123529890D01*
X179297440Y-123278000D01*
X179297440Y-121578000D01*
X179253162Y-121342683D01*
X179114090Y-121126559D01*
X178901890Y-120981569D01*
X178650000Y-120930560D01*
X176950000Y-120930560D01*
X176714683Y-120974838D01*
X176498559Y-121113910D01*
X176353569Y-121326110D01*
X176339914Y-121393541D01*
X176310054Y-121348853D01*
X175828285Y-121026946D01*
X175260000Y-120913907D01*
X174691715Y-121026946D01*
X174209946Y-121348853D01*
X173990000Y-121678026D01*
X173770054Y-121348853D01*
X173288285Y-121026946D01*
X172720000Y-120913907D01*
X172385913Y-120980361D01*
X163093400Y-111687848D01*
X163093400Y-110032010D01*
X163389201Y-110154838D01*
X163761167Y-110155162D01*
X164104943Y-110013117D01*
X164368192Y-109750327D01*
X164510838Y-109406799D01*
X164511162Y-109034833D01*
X164369117Y-108691057D01*
X164363400Y-108685330D01*
X164363400Y-105416172D01*
X164499338Y-105088799D01*
X164499662Y-104716833D01*
X164357617Y-104373057D01*
X164094827Y-104109808D01*
X163751299Y-103967162D01*
X163379333Y-103966838D01*
X163035557Y-104108883D01*
X162935306Y-104208960D01*
X162836327Y-104109808D01*
X162492799Y-103967162D01*
X162120833Y-103966838D01*
X161777057Y-104108883D01*
X161513808Y-104371673D01*
X161371162Y-104715201D01*
X161370838Y-105087167D01*
X161512883Y-105430943D01*
X161518600Y-105436670D01*
X161518600Y-112014000D01*
X161578537Y-112315325D01*
X161749224Y-112570776D01*
X170106896Y-120928448D01*
X169611715Y-121026946D01*
X169129946Y-121348853D01*
X168910000Y-121678026D01*
X168690054Y-121348853D01*
X168208285Y-121026946D01*
X167640000Y-120913907D01*
X167071715Y-121026946D01*
X166589946Y-121348853D01*
X166370000Y-121678026D01*
X166150054Y-121348853D01*
X165668285Y-121026946D01*
X165100000Y-120913907D01*
X164531715Y-121026946D01*
X164049946Y-121348853D01*
X163769633Y-121768371D01*
X158030475Y-116029213D01*
X157775024Y-115858526D01*
X157473699Y-115798589D01*
X152218141Y-115798589D01*
X143458578Y-107039026D01*
X145357042Y-107039026D01*
X145529312Y-107454947D01*
X145923510Y-107886821D01*
X146452973Y-108134968D01*
X146685000Y-108014469D01*
X146685000Y-106807000D01*
X145478183Y-106807000D01*
X145357042Y-107039026D01*
X143458578Y-107039026D01*
X140918578Y-104499026D01*
X145357042Y-104499026D01*
X145529312Y-104914947D01*
X145923510Y-105346821D01*
X146058313Y-105410000D01*
X145923510Y-105473179D01*
X145529312Y-105905053D01*
X145357042Y-106320974D01*
X145478183Y-106553000D01*
X146685000Y-106553000D01*
X146685000Y-104267000D01*
X145478183Y-104267000D01*
X145357042Y-104499026D01*
X140918578Y-104499026D01*
X130581400Y-94161848D01*
X130581400Y-86575322D01*
X130708400Y-86601040D01*
X131969488Y-86601040D01*
X132816600Y-87448152D01*
X132816600Y-90170000D01*
X132876537Y-90471325D01*
X133047224Y-90726776D01*
X144982826Y-102662378D01*
X145036023Y-102741993D01*
X145591238Y-103297208D01*
X145529312Y-103365053D01*
X145357042Y-103780974D01*
X145478183Y-104013000D01*
X146685000Y-104013000D01*
X146685000Y-103993000D01*
X146939000Y-103993000D01*
X146939000Y-104013000D01*
X146959000Y-104013000D01*
X146959000Y-104267000D01*
X146939000Y-104267000D01*
X146939000Y-106553000D01*
X146959000Y-106553000D01*
X146959000Y-106807000D01*
X146939000Y-106807000D01*
X146939000Y-108014469D01*
X147171027Y-108134968D01*
X147700490Y-107886821D01*
X147870495Y-107700567D01*
X147885238Y-107778917D01*
X148024310Y-107995041D01*
X148236510Y-108140031D01*
X148488400Y-108191040D01*
X150215600Y-108191040D01*
X150450917Y-108146762D01*
X150667041Y-108007690D01*
X150812031Y-107795490D01*
X150863040Y-107543600D01*
X150863040Y-105816400D01*
X150818762Y-105581083D01*
X150679690Y-105364959D01*
X150467490Y-105219969D01*
X150423869Y-105211136D01*
X150441029Y-105199670D01*
X150765885Y-104713489D01*
X150879959Y-104140000D01*
X150773859Y-103606601D01*
X153466799Y-103606601D01*
X153768124Y-103546664D01*
X154023575Y-103375977D01*
X156028152Y-101371400D01*
X170914889Y-101371400D01*
X170919673Y-101376192D01*
X171263201Y-101518838D01*
X171635167Y-101519162D01*
X171978943Y-101377117D01*
X172242192Y-101114327D01*
X172384838Y-100770799D01*
X172385162Y-100398833D01*
X172243117Y-100055057D01*
X172137290Y-99949046D01*
X172242192Y-99844327D01*
X172384838Y-99500799D01*
X172385162Y-99128833D01*
X172243117Y-98785057D01*
X172137290Y-98679046D01*
X172242192Y-98574327D01*
X172384838Y-98230799D01*
X172385162Y-97858833D01*
X172243117Y-97515057D01*
X172137290Y-97409046D01*
X172242192Y-97304327D01*
X172384838Y-96960799D01*
X172385162Y-96588833D01*
X172243117Y-96245057D01*
X172137290Y-96139046D01*
X172242192Y-96034327D01*
X172384838Y-95690799D01*
X172385162Y-95318833D01*
X172243117Y-94975057D01*
X172137290Y-94869046D01*
X172242192Y-94764327D01*
X172384838Y-94420799D01*
X172385162Y-94048833D01*
X172243117Y-93705057D01*
X172137290Y-93599046D01*
X172242192Y-93494327D01*
X172384838Y-93150799D01*
X172385162Y-92778833D01*
X172243117Y-92435057D01*
X172137290Y-92329046D01*
X172242192Y-92224327D01*
X172384838Y-91880799D01*
X172385162Y-91508833D01*
X172243117Y-91165057D01*
X171980327Y-90901808D01*
X171636799Y-90759162D01*
X171264833Y-90758838D01*
X170921057Y-90900883D01*
X170915330Y-90906600D01*
X156282152Y-90906600D01*
X150791587Y-85416035D01*
X150850600Y-85119359D01*
X150850600Y-85060641D01*
X150736526Y-84487152D01*
X150562297Y-84226400D01*
X151650960Y-84226400D01*
X151650960Y-85953600D01*
X151695238Y-86188917D01*
X151834310Y-86405041D01*
X152046510Y-86550031D01*
X152298400Y-86601040D01*
X154025600Y-86601040D01*
X154260917Y-86556762D01*
X154477041Y-86417690D01*
X154622031Y-86205490D01*
X154630864Y-86161869D01*
X154642330Y-86179029D01*
X155128511Y-86503885D01*
X155702000Y-86617959D01*
X156275489Y-86503885D01*
X156761670Y-86179029D01*
X156972000Y-85864248D01*
X157182330Y-86179029D01*
X157668511Y-86503885D01*
X158242000Y-86617959D01*
X158815489Y-86503885D01*
X159301670Y-86179029D01*
X159512000Y-85864248D01*
X159722330Y-86179029D01*
X160208511Y-86503885D01*
X160782000Y-86617959D01*
X161355489Y-86503885D01*
X161841670Y-86179029D01*
X162052000Y-85864248D01*
X162262330Y-86179029D01*
X162748511Y-86503885D01*
X163322000Y-86617959D01*
X163895489Y-86503885D01*
X164381670Y-86179029D01*
X164592000Y-85864248D01*
X164802330Y-86179029D01*
X165288511Y-86503885D01*
X165862000Y-86617959D01*
X166435489Y-86503885D01*
X166921670Y-86179029D01*
X167132000Y-85864248D01*
X167342330Y-86179029D01*
X167828511Y-86503885D01*
X168402000Y-86617959D01*
X168975489Y-86503885D01*
X169461670Y-86179029D01*
X169672000Y-85864248D01*
X169882330Y-86179029D01*
X170368511Y-86503885D01*
X170942000Y-86617959D01*
X171515489Y-86503885D01*
X172001670Y-86179029D01*
X172326526Y-85692848D01*
X172440600Y-85119359D01*
X172440600Y-85060641D01*
X172326526Y-84487152D01*
X172001670Y-84000971D01*
X171730828Y-83820000D01*
X172001670Y-83639029D01*
X172326526Y-83152848D01*
X172440600Y-82579359D01*
X172440600Y-82520641D01*
X172326526Y-81947152D01*
X172001670Y-81460971D01*
X171515489Y-81136115D01*
X170942000Y-81022041D01*
X170368511Y-81136115D01*
X169882330Y-81460971D01*
X169672000Y-81775752D01*
X169461670Y-81460971D01*
X168975489Y-81136115D01*
X168402000Y-81022041D01*
X167828511Y-81136115D01*
X167342330Y-81460971D01*
X167132000Y-81775752D01*
X166921670Y-81460971D01*
X166435489Y-81136115D01*
X165862000Y-81022041D01*
X165288511Y-81136115D01*
X164802330Y-81460971D01*
X164592000Y-81775752D01*
X164381670Y-81460971D01*
X163895489Y-81136115D01*
X163322000Y-81022041D01*
X162748511Y-81136115D01*
X162262330Y-81460971D01*
X162052000Y-81775752D01*
X161841670Y-81460971D01*
X161355489Y-81136115D01*
X160782000Y-81022041D01*
X160208511Y-81136115D01*
X159722330Y-81460971D01*
X159512000Y-81775752D01*
X159301670Y-81460971D01*
X158815489Y-81136115D01*
X158242000Y-81022041D01*
X157668511Y-81136115D01*
X157182330Y-81460971D01*
X156972000Y-81775752D01*
X156761670Y-81460971D01*
X156275489Y-81136115D01*
X155702000Y-81022041D01*
X155128511Y-81136115D01*
X154642330Y-81460971D01*
X154432000Y-81775752D01*
X154221670Y-81460971D01*
X153735489Y-81136115D01*
X153162000Y-81022041D01*
X152588511Y-81136115D01*
X152102330Y-81460971D01*
X151777474Y-81947152D01*
X151663400Y-82520641D01*
X151663400Y-82579359D01*
X151777474Y-83152848D01*
X152088574Y-83618442D01*
X152063083Y-83623238D01*
X151846959Y-83762310D01*
X151701969Y-83974510D01*
X151650960Y-84226400D01*
X150562297Y-84226400D01*
X150411670Y-84000971D01*
X150140828Y-83820000D01*
X150411670Y-83639029D01*
X150736526Y-83152848D01*
X150850600Y-82579359D01*
X150850600Y-82520641D01*
X150736526Y-81947152D01*
X150411670Y-81460971D01*
X149925489Y-81136115D01*
X149352000Y-81022041D01*
X148778511Y-81136115D01*
X148292330Y-81460971D01*
X148082000Y-81775752D01*
X147871670Y-81460971D01*
X147385489Y-81136115D01*
X146812000Y-81022041D01*
X146238511Y-81136115D01*
X145752330Y-81460971D01*
X145542000Y-81775752D01*
X145331670Y-81460971D01*
X144845489Y-81136115D01*
X144272000Y-81022041D01*
X143698511Y-81136115D01*
X143212330Y-81460971D01*
X143002000Y-81775752D01*
X142791670Y-81460971D01*
X142305489Y-81136115D01*
X141732000Y-81022041D01*
X141158511Y-81136115D01*
X140672330Y-81460971D01*
X140462000Y-81775752D01*
X140251670Y-81460971D01*
X139765489Y-81136115D01*
X139192000Y-81022041D01*
X138618511Y-81136115D01*
X138132330Y-81460971D01*
X137922000Y-81775752D01*
X137711670Y-81460971D01*
X137225489Y-81136115D01*
X136652000Y-81022041D01*
X136078511Y-81136115D01*
X135592330Y-81460971D01*
X135382000Y-81775752D01*
X135171670Y-81460971D01*
X134685489Y-81136115D01*
X134112000Y-81022041D01*
X133538511Y-81136115D01*
X133052330Y-81460971D01*
X132842000Y-81775752D01*
X132631670Y-81460971D01*
X132145489Y-81136115D01*
X131572000Y-81022041D01*
X130998511Y-81136115D01*
X130581400Y-81414820D01*
X130581400Y-80590152D01*
X135301913Y-75869639D01*
X135636000Y-75936093D01*
X136204285Y-75823054D01*
X136686054Y-75501147D01*
X136906000Y-75171974D01*
X137125946Y-75501147D01*
X137607715Y-75823054D01*
X138176000Y-75936093D01*
X138744285Y-75823054D01*
X139226054Y-75501147D01*
X139453702Y-75160447D01*
X139520817Y-75303358D01*
X139949076Y-75693645D01*
X140359110Y-75863476D01*
X140589000Y-75742155D01*
X140589000Y-74549000D01*
X140569000Y-74549000D01*
X140569000Y-74295000D01*
X140589000Y-74295000D01*
X140589000Y-73101845D01*
X140843000Y-73101845D01*
X140843000Y-74295000D01*
X140863000Y-74295000D01*
X140863000Y-74549000D01*
X140843000Y-74549000D01*
X140843000Y-75742155D01*
X141072890Y-75863476D01*
X141482924Y-75693645D01*
X141911183Y-75303358D01*
X141978298Y-75160447D01*
X142205946Y-75501147D01*
X142687715Y-75823054D01*
X143256000Y-75936093D01*
X143824285Y-75823054D01*
X144306054Y-75501147D01*
X144526000Y-75171974D01*
X144745946Y-75501147D01*
X145227715Y-75823054D01*
X145796000Y-75936093D01*
X146364285Y-75823054D01*
X146846054Y-75501147D01*
X147066000Y-75171974D01*
X147285946Y-75501147D01*
X147767715Y-75823054D01*
X148336000Y-75936093D01*
X148904285Y-75823054D01*
X149386054Y-75501147D01*
X149606000Y-75171974D01*
X149825946Y-75501147D01*
X150307715Y-75823054D01*
X150876000Y-75936093D01*
X151444285Y-75823054D01*
X151926054Y-75501147D01*
X152146000Y-75171974D01*
X152365946Y-75501147D01*
X152847715Y-75823054D01*
X153416000Y-75936093D01*
X153984285Y-75823054D01*
X154466054Y-75501147D01*
X154686000Y-75171974D01*
X154905946Y-75501147D01*
X155387715Y-75823054D01*
X155956000Y-75936093D01*
X156524285Y-75823054D01*
X157006054Y-75501147D01*
X157327961Y-75019378D01*
X157441000Y-74451093D01*
X157441000Y-74392907D01*
X158535000Y-74392907D01*
X158535000Y-74451093D01*
X158648039Y-75019378D01*
X158969946Y-75501147D01*
X159451715Y-75823054D01*
X160020000Y-75936093D01*
X160588285Y-75823054D01*
X161070054Y-75501147D01*
X161290000Y-75171974D01*
X161509946Y-75501147D01*
X161991715Y-75823054D01*
X162560000Y-75936093D01*
X163128285Y-75823054D01*
X163610054Y-75501147D01*
X163830000Y-75171974D01*
X164049946Y-75501147D01*
X164531715Y-75823054D01*
X165100000Y-75936093D01*
X165668285Y-75823054D01*
X166150054Y-75501147D01*
X166370000Y-75171974D01*
X166589946Y-75501147D01*
X167071715Y-75823054D01*
X167640000Y-75936093D01*
X168208285Y-75823054D01*
X168690054Y-75501147D01*
X168910000Y-75171974D01*
X169129946Y-75501147D01*
X169611715Y-75823054D01*
X170180000Y-75936093D01*
X170748285Y-75823054D01*
X171230054Y-75501147D01*
X171450000Y-75171974D01*
X171669946Y-75501147D01*
X172151715Y-75823054D01*
X172720000Y-75936093D01*
X173288285Y-75823054D01*
X173770054Y-75501147D01*
X173990000Y-75171974D01*
X174209946Y-75501147D01*
X174691715Y-75823054D01*
X175260000Y-75936093D01*
X175828285Y-75823054D01*
X176310054Y-75501147D01*
X176337850Y-75459548D01*
X176346838Y-75507317D01*
X176485910Y-75723441D01*
X176698110Y-75868431D01*
X176950000Y-75919440D01*
X178650000Y-75919440D01*
X178885317Y-75875162D01*
X179101441Y-75736090D01*
X179246431Y-75523890D01*
X179297440Y-75272000D01*
X179297440Y-73572000D01*
X179253162Y-73336683D01*
X179114090Y-73120559D01*
X178901890Y-72975569D01*
X178650000Y-72924560D01*
X176950000Y-72924560D01*
X176714683Y-72968838D01*
X176498559Y-73107910D01*
X176353569Y-73320110D01*
X176339914Y-73387541D01*
X176310054Y-73342853D01*
X175828285Y-73020946D01*
X175260000Y-72907907D01*
X174691715Y-73020946D01*
X174209946Y-73342853D01*
X173990000Y-73672026D01*
X173770054Y-73342853D01*
X173288285Y-73020946D01*
X172720000Y-72907907D01*
X172151715Y-73020946D01*
X171669946Y-73342853D01*
X171450000Y-73672026D01*
X171230054Y-73342853D01*
X170748285Y-73020946D01*
X170180000Y-72907907D01*
X169611715Y-73020946D01*
X169129946Y-73342853D01*
X168910000Y-73672026D01*
X168690054Y-73342853D01*
X168208285Y-73020946D01*
X167640000Y-72907907D01*
X167071715Y-73020946D01*
X166589946Y-73342853D01*
X166370000Y-73672026D01*
X166150054Y-73342853D01*
X165668285Y-73020946D01*
X165100000Y-72907907D01*
X164531715Y-73020946D01*
X164049946Y-73342853D01*
X163830000Y-73672026D01*
X163610054Y-73342853D01*
X163128285Y-73020946D01*
X162560000Y-72907907D01*
X161991715Y-73020946D01*
X161509946Y-73342853D01*
X161290000Y-73672026D01*
X161070054Y-73342853D01*
X160588285Y-73020946D01*
X160020000Y-72907907D01*
X159451715Y-73020946D01*
X158969946Y-73342853D01*
X158648039Y-73824622D01*
X158535000Y-74392907D01*
X157441000Y-74392907D01*
X157327961Y-73824622D01*
X157006054Y-73342853D01*
X156524285Y-73020946D01*
X155956000Y-72907907D01*
X155387715Y-73020946D01*
X154905946Y-73342853D01*
X154686000Y-73672026D01*
X154466054Y-73342853D01*
X153984285Y-73020946D01*
X153416000Y-72907907D01*
X152847715Y-73020946D01*
X152365946Y-73342853D01*
X152146000Y-73672026D01*
X151926054Y-73342853D01*
X151444285Y-73020946D01*
X150876000Y-72907907D01*
X150307715Y-73020946D01*
X149825946Y-73342853D01*
X149606000Y-73672026D01*
X149386054Y-73342853D01*
X148904285Y-73020946D01*
X148336000Y-72907907D01*
X147767715Y-73020946D01*
X147285946Y-73342853D01*
X147066000Y-73672026D01*
X146846054Y-73342853D01*
X146364285Y-73020946D01*
X145796000Y-72907907D01*
X145227715Y-73020946D01*
X144745946Y-73342853D01*
X144526000Y-73672026D01*
X144306054Y-73342853D01*
X143824285Y-73020946D01*
X143256000Y-72907907D01*
X142687715Y-73020946D01*
X142205946Y-73342853D01*
X141978298Y-73683553D01*
X141911183Y-73540642D01*
X141482924Y-73150355D01*
X141072890Y-72980524D01*
X140843000Y-73101845D01*
X140589000Y-73101845D01*
X140359110Y-72980524D01*
X139949076Y-73150355D01*
X139520817Y-73540642D01*
X139453702Y-73683553D01*
X139226054Y-73342853D01*
X138744285Y-73020946D01*
X138176000Y-72907907D01*
X137607715Y-73020946D01*
X137125946Y-73342853D01*
X136906000Y-73672026D01*
X136686054Y-73342853D01*
X136204285Y-73020946D01*
X135636000Y-72907907D01*
X135067715Y-73020946D01*
X134585946Y-73342853D01*
X134558150Y-73384452D01*
X134549162Y-73336683D01*
X134410090Y-73120559D01*
X134197890Y-72975569D01*
X133946000Y-72924560D01*
X132246000Y-72924560D01*
X132010683Y-72968838D01*
X131794559Y-73107910D01*
X131649569Y-73320110D01*
X131598560Y-73572000D01*
X131598560Y-75272000D01*
X131642838Y-75507317D01*
X131781910Y-75723441D01*
X131994110Y-75868431D01*
X132246000Y-75919440D01*
X132263008Y-75919440D01*
X128729224Y-79453224D01*
X128558537Y-79708675D01*
X128498600Y-80010000D01*
X128498600Y-94742000D01*
X128558537Y-95043325D01*
X128729224Y-95298776D01*
X151081224Y-117650776D01*
X151336675Y-117821463D01*
X151638000Y-117881400D01*
X156937122Y-117881400D01*
X159986282Y-120930560D01*
X159170000Y-120930560D01*
X158934683Y-120974838D01*
X158718559Y-121113910D01*
X158573569Y-121326110D01*
X158551699Y-121434107D01*
X158246924Y-121156355D01*
X157836890Y-120986524D01*
X157607000Y-121107845D01*
X157607000Y-122301000D01*
X157627000Y-122301000D01*
X157627000Y-122555000D01*
X157607000Y-122555000D01*
X157607000Y-123748155D01*
X157836890Y-123869476D01*
X158246924Y-123699645D01*
X158549937Y-123423499D01*
X158566838Y-123513317D01*
X158705910Y-123729441D01*
X158918110Y-123874431D01*
X159170000Y-123925440D01*
X160870000Y-123925440D01*
X161105317Y-123881162D01*
X161321441Y-123742090D01*
X161466431Y-123529890D01*
X161517440Y-123278000D01*
X161517440Y-122461718D01*
X163313722Y-124258000D01*
X136191286Y-124258000D01*
X136191286Y-122398907D01*
X140755000Y-122398907D01*
X140755000Y-122457093D01*
X140868039Y-123025378D01*
X141189946Y-123507147D01*
X141671715Y-123829054D01*
X142240000Y-123942093D01*
X142808285Y-123829054D01*
X143290054Y-123507147D01*
X143510000Y-123177974D01*
X143729946Y-123507147D01*
X144211715Y-123829054D01*
X144780000Y-123942093D01*
X145348285Y-123829054D01*
X145830054Y-123507147D01*
X146050000Y-123177974D01*
X146269946Y-123507147D01*
X146751715Y-123829054D01*
X147320000Y-123942093D01*
X147888285Y-123829054D01*
X148370054Y-123507147D01*
X148590000Y-123177974D01*
X148809946Y-123507147D01*
X149291715Y-123829054D01*
X149860000Y-123942093D01*
X150428285Y-123829054D01*
X150910054Y-123507147D01*
X151130000Y-123177974D01*
X151349946Y-123507147D01*
X151831715Y-123829054D01*
X152400000Y-123942093D01*
X152968285Y-123829054D01*
X153450054Y-123507147D01*
X153677702Y-123166447D01*
X153744817Y-123309358D01*
X154173076Y-123699645D01*
X154583110Y-123869476D01*
X154813000Y-123748155D01*
X154813000Y-122555000D01*
X155067000Y-122555000D01*
X155067000Y-123748155D01*
X155296890Y-123869476D01*
X155706924Y-123699645D01*
X156135183Y-123309358D01*
X156210000Y-123150046D01*
X156284817Y-123309358D01*
X156713076Y-123699645D01*
X157123110Y-123869476D01*
X157353000Y-123748155D01*
X157353000Y-122555000D01*
X155067000Y-122555000D01*
X154813000Y-122555000D01*
X154793000Y-122555000D01*
X154793000Y-122301000D01*
X154813000Y-122301000D01*
X154813000Y-121107845D01*
X155067000Y-121107845D01*
X155067000Y-122301000D01*
X157353000Y-122301000D01*
X157353000Y-121107845D01*
X157123110Y-120986524D01*
X156713076Y-121156355D01*
X156284817Y-121546642D01*
X156210000Y-121705954D01*
X156135183Y-121546642D01*
X155706924Y-121156355D01*
X155296890Y-120986524D01*
X155067000Y-121107845D01*
X154813000Y-121107845D01*
X154583110Y-120986524D01*
X154173076Y-121156355D01*
X153744817Y-121546642D01*
X153677702Y-121689553D01*
X153450054Y-121348853D01*
X152968285Y-121026946D01*
X152400000Y-120913907D01*
X151831715Y-121026946D01*
X151349946Y-121348853D01*
X151130000Y-121678026D01*
X150910054Y-121348853D01*
X150428285Y-121026946D01*
X149860000Y-120913907D01*
X149291715Y-121026946D01*
X148809946Y-121348853D01*
X148590000Y-121678026D01*
X148370054Y-121348853D01*
X147888285Y-121026946D01*
X147320000Y-120913907D01*
X146751715Y-121026946D01*
X146269946Y-121348853D01*
X146050000Y-121678026D01*
X145830054Y-121348853D01*
X145348285Y-121026946D01*
X144780000Y-120913907D01*
X144211715Y-121026946D01*
X143729946Y-121348853D01*
X143510000Y-121678026D01*
X143290054Y-121348853D01*
X142808285Y-121026946D01*
X142240000Y-120913907D01*
X141671715Y-121026946D01*
X141189946Y-121348853D01*
X140868039Y-121830622D01*
X140755000Y-122398907D01*
X136191286Y-122398907D01*
X136191286Y-121825500D01*
X130384155Y-121825500D01*
X130333947Y-121573085D01*
X129849677Y-120848323D01*
X129124915Y-120364053D01*
X128270000Y-120194000D01*
X127415085Y-120364053D01*
X126694000Y-120845866D01*
X126694000Y-72684092D01*
X126786091Y-72592000D01*
X128080958Y-72592000D01*
X127706323Y-72842323D01*
X127706323Y-72842323D01*
G37*
X127706323Y-72842323D02*
X127222053Y-73567085D01*
X127052000Y-74422000D01*
X127222053Y-75276915D01*
X127706323Y-76001677D01*
X128431085Y-76485947D01*
X129286000Y-76656000D01*
X130140915Y-76485947D01*
X130865677Y-76001677D01*
X131349947Y-75276915D01*
X131520000Y-74422000D01*
X131349947Y-73567085D01*
X130865677Y-72842323D01*
X130491042Y-72592000D01*
X179630000Y-72592000D01*
X179630000Y-84836000D01*
X179650861Y-84940875D01*
X179662141Y-85047202D01*
X179677697Y-85075786D01*
X179684046Y-85107705D01*
X179743451Y-85196612D01*
X179794563Y-85290531D01*
X181333095Y-87136769D01*
X181292116Y-87109388D01*
X180340000Y-86920000D01*
X179387884Y-87109388D01*
X178580718Y-87648718D01*
X178041388Y-88455884D01*
X177852000Y-89408000D01*
X178041388Y-90360116D01*
X178580718Y-91167282D01*
X179387884Y-91706612D01*
X180340000Y-91896000D01*
X181292116Y-91706612D01*
X182099282Y-91167282D01*
X182170000Y-91061445D01*
X182170000Y-116142958D01*
X181919677Y-115768323D01*
X181194915Y-115284053D01*
X180340000Y-115114000D01*
X179485085Y-115284053D01*
X178760323Y-115768323D01*
X178276053Y-116493085D01*
X178106000Y-117348000D01*
X178276053Y-118202915D01*
X178760323Y-118927677D01*
X179485085Y-119411947D01*
X180340000Y-119582000D01*
X181194915Y-119411947D01*
X181919677Y-118927677D01*
X182170000Y-118553042D01*
X182170000Y-119630945D01*
X179794563Y-122481469D01*
X179743451Y-122575388D01*
X179684046Y-122664295D01*
X179677697Y-122696214D01*
X179662141Y-122724798D01*
X179650861Y-122831125D01*
X179630000Y-122936000D01*
X179630000Y-124258000D01*
X177083552Y-124258000D01*
X177416112Y-123925440D01*
X178650000Y-123925440D01*
X178885317Y-123881162D01*
X179101441Y-123742090D01*
X179246431Y-123529890D01*
X179297440Y-123278000D01*
X179297440Y-121578000D01*
X179253162Y-121342683D01*
X179114090Y-121126559D01*
X178901890Y-120981569D01*
X178650000Y-120930560D01*
X176950000Y-120930560D01*
X176714683Y-120974838D01*
X176498559Y-121113910D01*
X176353569Y-121326110D01*
X176339914Y-121393541D01*
X176310054Y-121348853D01*
X175828285Y-121026946D01*
X175260000Y-120913907D01*
X174691715Y-121026946D01*
X174209946Y-121348853D01*
X173990000Y-121678026D01*
X173770054Y-121348853D01*
X173288285Y-121026946D01*
X172720000Y-120913907D01*
X172385913Y-120980361D01*
X163093400Y-111687848D01*
X163093400Y-110032010D01*
X163389201Y-110154838D01*
X163761167Y-110155162D01*
X164104943Y-110013117D01*
X164368192Y-109750327D01*
X164510838Y-109406799D01*
X164511162Y-109034833D01*
X164369117Y-108691057D01*
X164363400Y-108685330D01*
X164363400Y-105416172D01*
X164499338Y-105088799D01*
X164499662Y-104716833D01*
X164357617Y-104373057D01*
X164094827Y-104109808D01*
X163751299Y-103967162D01*
X163379333Y-103966838D01*
X163035557Y-104108883D01*
X162935306Y-104208960D01*
X162836327Y-104109808D01*
X162492799Y-103967162D01*
X162120833Y-103966838D01*
X161777057Y-104108883D01*
X161513808Y-104371673D01*
X161371162Y-104715201D01*
X161370838Y-105087167D01*
X161512883Y-105430943D01*
X161518600Y-105436670D01*
X161518600Y-112014000D01*
X161578537Y-112315325D01*
X161749224Y-112570776D01*
X170106896Y-120928448D01*
X169611715Y-121026946D01*
X169129946Y-121348853D01*
X168910000Y-121678026D01*
X168690054Y-121348853D01*
X168208285Y-121026946D01*
X167640000Y-120913907D01*
X167071715Y-121026946D01*
X166589946Y-121348853D01*
X166370000Y-121678026D01*
X166150054Y-121348853D01*
X165668285Y-121026946D01*
X165100000Y-120913907D01*
X164531715Y-121026946D01*
X164049946Y-121348853D01*
X163769633Y-121768371D01*
X158030475Y-116029213D01*
X157775024Y-115858526D01*
X157473699Y-115798589D01*
X152218141Y-115798589D01*
X143458578Y-107039026D01*
X145357042Y-107039026D01*
X145529312Y-107454947D01*
X145923510Y-107886821D01*
X146452973Y-108134968D01*
X146685000Y-108014469D01*
X146685000Y-106807000D01*
X145478183Y-106807000D01*
X145357042Y-107039026D01*
X143458578Y-107039026D01*
X140918578Y-104499026D01*
X145357042Y-104499026D01*
X145529312Y-104914947D01*
X145923510Y-105346821D01*
X146058313Y-105410000D01*
X145923510Y-105473179D01*
X145529312Y-105905053D01*
X145357042Y-106320974D01*
X145478183Y-106553000D01*
X146685000Y-106553000D01*
X146685000Y-104267000D01*
X145478183Y-104267000D01*
X145357042Y-104499026D01*
X140918578Y-104499026D01*
X130581400Y-94161848D01*
X130581400Y-86575322D01*
X130708400Y-86601040D01*
X131969488Y-86601040D01*
X132816600Y-87448152D01*
X132816600Y-90170000D01*
X132876537Y-90471325D01*
X133047224Y-90726776D01*
X144982826Y-102662378D01*
X145036023Y-102741993D01*
X145591238Y-103297208D01*
X145529312Y-103365053D01*
X145357042Y-103780974D01*
X145478183Y-104013000D01*
X146685000Y-104013000D01*
X146685000Y-103993000D01*
X146939000Y-103993000D01*
X146939000Y-104013000D01*
X146959000Y-104013000D01*
X146959000Y-104267000D01*
X146939000Y-104267000D01*
X146939000Y-106553000D01*
X146959000Y-106553000D01*
X146959000Y-106807000D01*
X146939000Y-106807000D01*
X146939000Y-108014469D01*
X147171027Y-108134968D01*
X147700490Y-107886821D01*
X147870495Y-107700567D01*
X147885238Y-107778917D01*
X148024310Y-107995041D01*
X148236510Y-108140031D01*
X148488400Y-108191040D01*
X150215600Y-108191040D01*
X150450917Y-108146762D01*
X150667041Y-108007690D01*
X150812031Y-107795490D01*
X150863040Y-107543600D01*
X150863040Y-105816400D01*
X150818762Y-105581083D01*
X150679690Y-105364959D01*
X150467490Y-105219969D01*
X150423869Y-105211136D01*
X150441029Y-105199670D01*
X150765885Y-104713489D01*
X150879959Y-104140000D01*
X150773859Y-103606601D01*
X153466799Y-103606601D01*
X153768124Y-103546664D01*
X154023575Y-103375977D01*
X156028152Y-101371400D01*
X170914889Y-101371400D01*
X170919673Y-101376192D01*
X171263201Y-101518838D01*
X171635167Y-101519162D01*
X171978943Y-101377117D01*
X172242192Y-101114327D01*
X172384838Y-100770799D01*
X172385162Y-100398833D01*
X172243117Y-100055057D01*
X172137290Y-99949046D01*
X172242192Y-99844327D01*
X172384838Y-99500799D01*
X172385162Y-99128833D01*
X172243117Y-98785057D01*
X172137290Y-98679046D01*
X172242192Y-98574327D01*
X172384838Y-98230799D01*
X172385162Y-97858833D01*
X172243117Y-97515057D01*
X172137290Y-97409046D01*
X172242192Y-97304327D01*
X172384838Y-96960799D01*
X172385162Y-96588833D01*
X172243117Y-96245057D01*
X172137290Y-96139046D01*
X172242192Y-96034327D01*
X172384838Y-95690799D01*
X172385162Y-95318833D01*
X172243117Y-94975057D01*
X172137290Y-94869046D01*
X172242192Y-94764327D01*
X172384838Y-94420799D01*
X172385162Y-94048833D01*
X172243117Y-93705057D01*
X172137290Y-93599046D01*
X172242192Y-93494327D01*
X172384838Y-93150799D01*
X172385162Y-92778833D01*
X172243117Y-92435057D01*
X172137290Y-92329046D01*
X172242192Y-92224327D01*
X172384838Y-91880799D01*
X172385162Y-91508833D01*
X172243117Y-91165057D01*
X171980327Y-90901808D01*
X171636799Y-90759162D01*
X171264833Y-90758838D01*
X170921057Y-90900883D01*
X170915330Y-90906600D01*
X156282152Y-90906600D01*
X150791587Y-85416035D01*
X150850600Y-85119359D01*
X150850600Y-85060641D01*
X150736526Y-84487152D01*
X150562297Y-84226400D01*
X151650960Y-84226400D01*
X151650960Y-85953600D01*
X151695238Y-86188917D01*
X151834310Y-86405041D01*
X152046510Y-86550031D01*
X152298400Y-86601040D01*
X154025600Y-86601040D01*
X154260917Y-86556762D01*
X154477041Y-86417690D01*
X154622031Y-86205490D01*
X154630864Y-86161869D01*
X154642330Y-86179029D01*
X155128511Y-86503885D01*
X155702000Y-86617959D01*
X156275489Y-86503885D01*
X156761670Y-86179029D01*
X156972000Y-85864248D01*
X157182330Y-86179029D01*
X157668511Y-86503885D01*
X158242000Y-86617959D01*
X158815489Y-86503885D01*
X159301670Y-86179029D01*
X159512000Y-85864248D01*
X159722330Y-86179029D01*
X160208511Y-86503885D01*
X160782000Y-86617959D01*
X161355489Y-86503885D01*
X161841670Y-86179029D01*
X162052000Y-85864248D01*
X162262330Y-86179029D01*
X162748511Y-86503885D01*
X163322000Y-86617959D01*
X163895489Y-86503885D01*
X164381670Y-86179029D01*
X164592000Y-85864248D01*
X164802330Y-86179029D01*
X165288511Y-86503885D01*
X165862000Y-86617959D01*
X166435489Y-86503885D01*
X166921670Y-86179029D01*
X167132000Y-85864248D01*
X167342330Y-86179029D01*
X167828511Y-86503885D01*
X168402000Y-86617959D01*
X168975489Y-86503885D01*
X169461670Y-86179029D01*
X169672000Y-85864248D01*
X169882330Y-86179029D01*
X170368511Y-86503885D01*
X170942000Y-86617959D01*
X171515489Y-86503885D01*
X172001670Y-86179029D01*
X172326526Y-85692848D01*
X172440600Y-85119359D01*
X172440600Y-85060641D01*
X172326526Y-84487152D01*
X172001670Y-84000971D01*
X171730828Y-83820000D01*
X172001670Y-83639029D01*
X172326526Y-83152848D01*
X172440600Y-82579359D01*
X172440600Y-82520641D01*
X172326526Y-81947152D01*
X172001670Y-81460971D01*
X171515489Y-81136115D01*
X170942000Y-81022041D01*
X170368511Y-81136115D01*
X169882330Y-81460971D01*
X169672000Y-81775752D01*
X169461670Y-81460971D01*
X168975489Y-81136115D01*
X168402000Y-81022041D01*
X167828511Y-81136115D01*
X167342330Y-81460971D01*
X167132000Y-81775752D01*
X166921670Y-81460971D01*
X166435489Y-81136115D01*
X165862000Y-81022041D01*
X165288511Y-81136115D01*
X164802330Y-81460971D01*
X164592000Y-81775752D01*
X164381670Y-81460971D01*
X163895489Y-81136115D01*
X163322000Y-81022041D01*
X162748511Y-81136115D01*
X162262330Y-81460971D01*
X162052000Y-81775752D01*
X161841670Y-81460971D01*
X161355489Y-81136115D01*
X160782000Y-81022041D01*
X160208511Y-81136115D01*
X159722330Y-81460971D01*
X159512000Y-81775752D01*
X159301670Y-81460971D01*
X158815489Y-81136115D01*
X158242000Y-81022041D01*
X157668511Y-81136115D01*
X157182330Y-81460971D01*
X156972000Y-81775752D01*
X156761670Y-81460971D01*
X156275489Y-81136115D01*
X155702000Y-81022041D01*
X155128511Y-81136115D01*
X154642330Y-81460971D01*
X154432000Y-81775752D01*
X154221670Y-81460971D01*
X153735489Y-81136115D01*
X153162000Y-81022041D01*
X152588511Y-81136115D01*
X152102330Y-81460971D01*
X151777474Y-81947152D01*
X151663400Y-82520641D01*
X151663400Y-82579359D01*
X151777474Y-83152848D01*
X152088574Y-83618442D01*
X152063083Y-83623238D01*
X151846959Y-83762310D01*
X151701969Y-83974510D01*
X151650960Y-84226400D01*
X150562297Y-84226400D01*
X150411670Y-84000971D01*
X150140828Y-83820000D01*
X150411670Y-83639029D01*
X150736526Y-83152848D01*
X150850600Y-82579359D01*
X150850600Y-82520641D01*
X150736526Y-81947152D01*
X150411670Y-81460971D01*
X149925489Y-81136115D01*
X149352000Y-81022041D01*
X148778511Y-81136115D01*
X148292330Y-81460971D01*
X148082000Y-81775752D01*
X147871670Y-81460971D01*
X147385489Y-81136115D01*
X146812000Y-81022041D01*
X146238511Y-81136115D01*
X145752330Y-81460971D01*
X145542000Y-81775752D01*
X145331670Y-81460971D01*
X144845489Y-81136115D01*
X144272000Y-81022041D01*
X143698511Y-81136115D01*
X143212330Y-81460971D01*
X143002000Y-81775752D01*
X142791670Y-81460971D01*
X142305489Y-81136115D01*
X141732000Y-81022041D01*
X141158511Y-81136115D01*
X140672330Y-81460971D01*
X140462000Y-81775752D01*
X140251670Y-81460971D01*
X139765489Y-81136115D01*
X139192000Y-81022041D01*
X138618511Y-81136115D01*
X138132330Y-81460971D01*
X137922000Y-81775752D01*
X137711670Y-81460971D01*
X137225489Y-81136115D01*
X136652000Y-81022041D01*
X136078511Y-81136115D01*
X135592330Y-81460971D01*
X135382000Y-81775752D01*
X135171670Y-81460971D01*
X134685489Y-81136115D01*
X134112000Y-81022041D01*
X133538511Y-81136115D01*
X133052330Y-81460971D01*
X132842000Y-81775752D01*
X132631670Y-81460971D01*
X132145489Y-81136115D01*
X131572000Y-81022041D01*
X130998511Y-81136115D01*
X130581400Y-81414820D01*
X130581400Y-80590152D01*
X135301913Y-75869639D01*
X135636000Y-75936093D01*
X136204285Y-75823054D01*
X136686054Y-75501147D01*
X136906000Y-75171974D01*
X137125946Y-75501147D01*
X137607715Y-75823054D01*
X138176000Y-75936093D01*
X138744285Y-75823054D01*
X139226054Y-75501147D01*
X139453702Y-75160447D01*
X139520817Y-75303358D01*
X139949076Y-75693645D01*
X140359110Y-75863476D01*
X140589000Y-75742155D01*
X140589000Y-74549000D01*
X140569000Y-74549000D01*
X140569000Y-74295000D01*
X140589000Y-74295000D01*
X140589000Y-73101845D01*
X140843000Y-73101845D01*
X140843000Y-74295000D01*
X140863000Y-74295000D01*
X140863000Y-74549000D01*
X140843000Y-74549000D01*
X140843000Y-75742155D01*
X141072890Y-75863476D01*
X141482924Y-75693645D01*
X141911183Y-75303358D01*
X141978298Y-75160447D01*
X142205946Y-75501147D01*
X142687715Y-75823054D01*
X143256000Y-75936093D01*
X143824285Y-75823054D01*
X144306054Y-75501147D01*
X144526000Y-75171974D01*
X144745946Y-75501147D01*
X145227715Y-75823054D01*
X145796000Y-75936093D01*
X146364285Y-75823054D01*
X146846054Y-75501147D01*
X147066000Y-75171974D01*
X147285946Y-75501147D01*
X147767715Y-75823054D01*
X148336000Y-75936093D01*
X148904285Y-75823054D01*
X149386054Y-75501147D01*
X149606000Y-75171974D01*
X149825946Y-75501147D01*
X150307715Y-75823054D01*
X150876000Y-75936093D01*
X151444285Y-75823054D01*
X151926054Y-75501147D01*
X152146000Y-75171974D01*
X152365946Y-75501147D01*
X152847715Y-75823054D01*
X153416000Y-75936093D01*
X153984285Y-75823054D01*
X154466054Y-75501147D01*
X154686000Y-75171974D01*
X154905946Y-75501147D01*
X155387715Y-75823054D01*
X155956000Y-75936093D01*
X156524285Y-75823054D01*
X157006054Y-75501147D01*
X157327961Y-75019378D01*
X157441000Y-74451093D01*
X157441000Y-74392907D01*
X158535000Y-74392907D01*
X158535000Y-74451093D01*
X158648039Y-75019378D01*
X158969946Y-75501147D01*
X159451715Y-75823054D01*
X160020000Y-75936093D01*
X160588285Y-75823054D01*
X161070054Y-75501147D01*
X161290000Y-75171974D01*
X161509946Y-75501147D01*
X161991715Y-75823054D01*
X162560000Y-75936093D01*
X163128285Y-75823054D01*
X163610054Y-75501147D01*
X163830000Y-75171974D01*
X164049946Y-75501147D01*
X164531715Y-75823054D01*
X165100000Y-75936093D01*
X165668285Y-75823054D01*
X166150054Y-75501147D01*
X166370000Y-75171974D01*
X166589946Y-75501147D01*
X167071715Y-75823054D01*
X167640000Y-75936093D01*
X168208285Y-75823054D01*
X168690054Y-75501147D01*
X168910000Y-75171974D01*
X169129946Y-75501147D01*
X169611715Y-75823054D01*
X170180000Y-75936093D01*
X170748285Y-75823054D01*
X171230054Y-75501147D01*
X171450000Y-75171974D01*
X171669946Y-75501147D01*
X172151715Y-75823054D01*
X172720000Y-75936093D01*
X173288285Y-75823054D01*
X173770054Y-75501147D01*
X173990000Y-75171974D01*
X174209946Y-75501147D01*
X174691715Y-75823054D01*
X175260000Y-75936093D01*
X175828285Y-75823054D01*
X176310054Y-75501147D01*
X176337850Y-75459548D01*
X176346838Y-75507317D01*
X176485910Y-75723441D01*
X176698110Y-75868431D01*
X176950000Y-75919440D01*
X178650000Y-75919440D01*
X178885317Y-75875162D01*
X179101441Y-75736090D01*
X179246431Y-75523890D01*
X179297440Y-75272000D01*
X179297440Y-73572000D01*
X179253162Y-73336683D01*
X179114090Y-73120559D01*
X178901890Y-72975569D01*
X178650000Y-72924560D01*
X176950000Y-72924560D01*
X176714683Y-72968838D01*
X176498559Y-73107910D01*
X176353569Y-73320110D01*
X176339914Y-73387541D01*
X176310054Y-73342853D01*
X175828285Y-73020946D01*
X175260000Y-72907907D01*
X174691715Y-73020946D01*
X174209946Y-73342853D01*
X173990000Y-73672026D01*
X173770054Y-73342853D01*
X173288285Y-73020946D01*
X172720000Y-72907907D01*
X172151715Y-73020946D01*
X171669946Y-73342853D01*
X171450000Y-73672026D01*
X171230054Y-73342853D01*
X170748285Y-73020946D01*
X170180000Y-72907907D01*
X169611715Y-73020946D01*
X169129946Y-73342853D01*
X168910000Y-73672026D01*
X168690054Y-73342853D01*
X168208285Y-73020946D01*
X167640000Y-72907907D01*
X167071715Y-73020946D01*
X166589946Y-73342853D01*
X166370000Y-73672026D01*
X166150054Y-73342853D01*
X165668285Y-73020946D01*
X165100000Y-72907907D01*
X164531715Y-73020946D01*
X164049946Y-73342853D01*
X163830000Y-73672026D01*
X163610054Y-73342853D01*
X163128285Y-73020946D01*
X162560000Y-72907907D01*
X161991715Y-73020946D01*
X161509946Y-73342853D01*
X161290000Y-73672026D01*
X161070054Y-73342853D01*
X160588285Y-73020946D01*
X160020000Y-72907907D01*
X159451715Y-73020946D01*
X158969946Y-73342853D01*
X158648039Y-73824622D01*
X158535000Y-74392907D01*
X157441000Y-74392907D01*
X157327961Y-73824622D01*
X157006054Y-73342853D01*
X156524285Y-73020946D01*
X155956000Y-72907907D01*
X155387715Y-73020946D01*
X154905946Y-73342853D01*
X154686000Y-73672026D01*
X154466054Y-73342853D01*
X153984285Y-73020946D01*
X153416000Y-72907907D01*
X152847715Y-73020946D01*
X152365946Y-73342853D01*
X152146000Y-73672026D01*
X151926054Y-73342853D01*
X151444285Y-73020946D01*
X150876000Y-72907907D01*
X150307715Y-73020946D01*
X149825946Y-73342853D01*
X149606000Y-73672026D01*
X149386054Y-73342853D01*
X148904285Y-73020946D01*
X148336000Y-72907907D01*
X147767715Y-73020946D01*
X147285946Y-73342853D01*
X147066000Y-73672026D01*
X146846054Y-73342853D01*
X146364285Y-73020946D01*
X145796000Y-72907907D01*
X145227715Y-73020946D01*
X144745946Y-73342853D01*
X144526000Y-73672026D01*
X144306054Y-73342853D01*
X143824285Y-73020946D01*
X143256000Y-72907907D01*
X142687715Y-73020946D01*
X142205946Y-73342853D01*
X141978298Y-73683553D01*
X141911183Y-73540642D01*
X141482924Y-73150355D01*
X141072890Y-72980524D01*
X140843000Y-73101845D01*
X140589000Y-73101845D01*
X140359110Y-72980524D01*
X139949076Y-73150355D01*
X139520817Y-73540642D01*
X139453702Y-73683553D01*
X139226054Y-73342853D01*
X138744285Y-73020946D01*
X138176000Y-72907907D01*
X137607715Y-73020946D01*
X137125946Y-73342853D01*
X136906000Y-73672026D01*
X136686054Y-73342853D01*
X136204285Y-73020946D01*
X135636000Y-72907907D01*
X135067715Y-73020946D01*
X134585946Y-73342853D01*
X134558150Y-73384452D01*
X134549162Y-73336683D01*
X134410090Y-73120559D01*
X134197890Y-72975569D01*
X133946000Y-72924560D01*
X132246000Y-72924560D01*
X132010683Y-72968838D01*
X131794559Y-73107910D01*
X131649569Y-73320110D01*
X131598560Y-73572000D01*
X131598560Y-75272000D01*
X131642838Y-75507317D01*
X131781910Y-75723441D01*
X131994110Y-75868431D01*
X132246000Y-75919440D01*
X132263008Y-75919440D01*
X128729224Y-79453224D01*
X128558537Y-79708675D01*
X128498600Y-80010000D01*
X128498600Y-94742000D01*
X128558537Y-95043325D01*
X128729224Y-95298776D01*
X151081224Y-117650776D01*
X151336675Y-117821463D01*
X151638000Y-117881400D01*
X156937122Y-117881400D01*
X159986282Y-120930560D01*
X159170000Y-120930560D01*
X158934683Y-120974838D01*
X158718559Y-121113910D01*
X158573569Y-121326110D01*
X158551699Y-121434107D01*
X158246924Y-121156355D01*
X157836890Y-120986524D01*
X157607000Y-121107845D01*
X157607000Y-122301000D01*
X157627000Y-122301000D01*
X157627000Y-122555000D01*
X157607000Y-122555000D01*
X157607000Y-123748155D01*
X157836890Y-123869476D01*
X158246924Y-123699645D01*
X158549937Y-123423499D01*
X158566838Y-123513317D01*
X158705910Y-123729441D01*
X158918110Y-123874431D01*
X159170000Y-123925440D01*
X160870000Y-123925440D01*
X161105317Y-123881162D01*
X161321441Y-123742090D01*
X161466431Y-123529890D01*
X161517440Y-123278000D01*
X161517440Y-122461718D01*
X163313722Y-124258000D01*
X136191286Y-124258000D01*
X136191286Y-122398907D01*
X140755000Y-122398907D01*
X140755000Y-122457093D01*
X140868039Y-123025378D01*
X141189946Y-123507147D01*
X141671715Y-123829054D01*
X142240000Y-123942093D01*
X142808285Y-123829054D01*
X143290054Y-123507147D01*
X143510000Y-123177974D01*
X143729946Y-123507147D01*
X144211715Y-123829054D01*
X144780000Y-123942093D01*
X145348285Y-123829054D01*
X145830054Y-123507147D01*
X146050000Y-123177974D01*
X146269946Y-123507147D01*
X146751715Y-123829054D01*
X147320000Y-123942093D01*
X147888285Y-123829054D01*
X148370054Y-123507147D01*
X148590000Y-123177974D01*
X148809946Y-123507147D01*
X149291715Y-123829054D01*
X149860000Y-123942093D01*
X150428285Y-123829054D01*
X150910054Y-123507147D01*
X151130000Y-123177974D01*
X151349946Y-123507147D01*
X151831715Y-123829054D01*
X152400000Y-123942093D01*
X152968285Y-123829054D01*
X153450054Y-123507147D01*
X153677702Y-123166447D01*
X153744817Y-123309358D01*
X154173076Y-123699645D01*
X154583110Y-123869476D01*
X154813000Y-123748155D01*
X154813000Y-122555000D01*
X155067000Y-122555000D01*
X155067000Y-123748155D01*
X155296890Y-123869476D01*
X155706924Y-123699645D01*
X156135183Y-123309358D01*
X156210000Y-123150046D01*
X156284817Y-123309358D01*
X156713076Y-123699645D01*
X157123110Y-123869476D01*
X157353000Y-123748155D01*
X157353000Y-122555000D01*
X155067000Y-122555000D01*
X154813000Y-122555000D01*
X154793000Y-122555000D01*
X154793000Y-122301000D01*
X154813000Y-122301000D01*
X154813000Y-121107845D01*
X155067000Y-121107845D01*
X155067000Y-122301000D01*
X157353000Y-122301000D01*
X157353000Y-121107845D01*
X157123110Y-120986524D01*
X156713076Y-121156355D01*
X156284817Y-121546642D01*
X156210000Y-121705954D01*
X156135183Y-121546642D01*
X155706924Y-121156355D01*
X155296890Y-120986524D01*
X155067000Y-121107845D01*
X154813000Y-121107845D01*
X154583110Y-120986524D01*
X154173076Y-121156355D01*
X153744817Y-121546642D01*
X153677702Y-121689553D01*
X153450054Y-121348853D01*
X152968285Y-121026946D01*
X152400000Y-120913907D01*
X151831715Y-121026946D01*
X151349946Y-121348853D01*
X151130000Y-121678026D01*
X150910054Y-121348853D01*
X150428285Y-121026946D01*
X149860000Y-120913907D01*
X149291715Y-121026946D01*
X148809946Y-121348853D01*
X148590000Y-121678026D01*
X148370054Y-121348853D01*
X147888285Y-121026946D01*
X147320000Y-120913907D01*
X146751715Y-121026946D01*
X146269946Y-121348853D01*
X146050000Y-121678026D01*
X145830054Y-121348853D01*
X145348285Y-121026946D01*
X144780000Y-120913907D01*
X144211715Y-121026946D01*
X143729946Y-121348853D01*
X143510000Y-121678026D01*
X143290054Y-121348853D01*
X142808285Y-121026946D01*
X142240000Y-120913907D01*
X141671715Y-121026946D01*
X141189946Y-121348853D01*
X140868039Y-121830622D01*
X140755000Y-122398907D01*
X136191286Y-122398907D01*
X136191286Y-121825500D01*
X130384155Y-121825500D01*
X130333947Y-121573085D01*
X129849677Y-120848323D01*
X129124915Y-120364053D01*
X128270000Y-120194000D01*
X127415085Y-120364053D01*
X126694000Y-120845866D01*
X126694000Y-72684092D01*
X126786091Y-72592000D01*
X128080958Y-72592000D01*
X127706323Y-72842323D01*
G36*
X146939000Y-101473000D02*
X146959000Y-101473000D01*
X146959000Y-101727000D01*
X146939000Y-101727000D01*
X146939000Y-101747000D01*
X146685000Y-101747000D01*
X146685000Y-101727000D01*
X146665000Y-101727000D01*
X146665000Y-101473000D01*
X146685000Y-101473000D01*
X146685000Y-101453000D01*
X146939000Y-101453000D01*
X146939000Y-101473000D01*
X146939000Y-101473000D01*
G37*
X146939000Y-101473000D02*
X146959000Y-101473000D01*
X146959000Y-101727000D01*
X146939000Y-101727000D01*
X146939000Y-101747000D01*
X146685000Y-101747000D01*
X146685000Y-101727000D01*
X146665000Y-101727000D01*
X146665000Y-101473000D01*
X146685000Y-101473000D01*
X146685000Y-101453000D01*
X146939000Y-101453000D01*
X146939000Y-101473000D01*
G36*
X146939000Y-98933000D02*
X146959000Y-98933000D01*
X146959000Y-99187000D01*
X146939000Y-99187000D01*
X146939000Y-99207000D01*
X146685000Y-99207000D01*
X146685000Y-99187000D01*
X146665000Y-99187000D01*
X146665000Y-98933000D01*
X146685000Y-98933000D01*
X146685000Y-98913000D01*
X146939000Y-98913000D01*
X146939000Y-98933000D01*
X146939000Y-98933000D01*
G37*
X146939000Y-98933000D02*
X146959000Y-98933000D01*
X146959000Y-99187000D01*
X146939000Y-99187000D01*
X146939000Y-99207000D01*
X146685000Y-99207000D01*
X146685000Y-99187000D01*
X146665000Y-99187000D01*
X146665000Y-98933000D01*
X146685000Y-98933000D01*
X146685000Y-98913000D01*
X146939000Y-98913000D01*
X146939000Y-98933000D01*
G36*
X146939000Y-96393000D02*
X146959000Y-96393000D01*
X146959000Y-96647000D01*
X146939000Y-96647000D01*
X146939000Y-96667000D01*
X146685000Y-96667000D01*
X146685000Y-96647000D01*
X146665000Y-96647000D01*
X146665000Y-96393000D01*
X146685000Y-96393000D01*
X146685000Y-96373000D01*
X146939000Y-96373000D01*
X146939000Y-96393000D01*
X146939000Y-96393000D01*
G37*
X146939000Y-96393000D02*
X146959000Y-96393000D01*
X146959000Y-96647000D01*
X146939000Y-96647000D01*
X146939000Y-96667000D01*
X146685000Y-96667000D01*
X146685000Y-96647000D01*
X146665000Y-96647000D01*
X146665000Y-96393000D01*
X146685000Y-96393000D01*
X146685000Y-96373000D01*
X146939000Y-96373000D01*
X146939000Y-96393000D01*
G36*
X146939000Y-93853000D02*
X146959000Y-93853000D01*
X146959000Y-94107000D01*
X146939000Y-94107000D01*
X146939000Y-94127000D01*
X146685000Y-94127000D01*
X146685000Y-94107000D01*
X146665000Y-94107000D01*
X146665000Y-93853000D01*
X146685000Y-93853000D01*
X146685000Y-93833000D01*
X146939000Y-93833000D01*
X146939000Y-93853000D01*
X146939000Y-93853000D01*
G37*
X146939000Y-93853000D02*
X146959000Y-93853000D01*
X146959000Y-94107000D01*
X146939000Y-94107000D01*
X146939000Y-94127000D01*
X146685000Y-94127000D01*
X146685000Y-94107000D01*
X146665000Y-94107000D01*
X146665000Y-93853000D01*
X146685000Y-93853000D01*
X146685000Y-93833000D01*
X146939000Y-93833000D01*
X146939000Y-93853000D01*
G36*
X146939000Y-91313000D02*
X146959000Y-91313000D01*
X146959000Y-91567000D01*
X146939000Y-91567000D01*
X146939000Y-91587000D01*
X146685000Y-91587000D01*
X146685000Y-91567000D01*
X146665000Y-91567000D01*
X146665000Y-91313000D01*
X146685000Y-91313000D01*
X146685000Y-91293000D01*
X146939000Y-91293000D01*
X146939000Y-91313000D01*
X146939000Y-91313000D01*
G37*
X146939000Y-91313000D02*
X146959000Y-91313000D01*
X146959000Y-91567000D01*
X146939000Y-91567000D01*
X146939000Y-91587000D01*
X146685000Y-91587000D01*
X146685000Y-91567000D01*
X146665000Y-91567000D01*
X146665000Y-91313000D01*
X146685000Y-91313000D01*
X146685000Y-91293000D01*
X146939000Y-91293000D01*
X146939000Y-91313000D01*
G36*
X145752330Y-86179029D02*
X146238511Y-86503885D01*
X146812000Y-86617959D01*
X147157652Y-86549204D01*
X147474425Y-86865977D01*
X147729876Y-87036664D01*
X148031201Y-87096601D01*
X148467049Y-87096601D01*
X148863230Y-87492782D01*
X148749152Y-87515474D01*
X148262971Y-87840330D01*
X148082008Y-88111161D01*
X147700490Y-87693179D01*
X147171027Y-87445032D01*
X146939000Y-87565531D01*
X146939000Y-88773000D01*
X146959000Y-88773000D01*
X146959000Y-89027000D01*
X146939000Y-89027000D01*
X146939000Y-89047000D01*
X146685000Y-89047000D01*
X146685000Y-89027000D01*
X146665000Y-89027000D01*
X146665000Y-88773000D01*
X146685000Y-88773000D01*
X146685000Y-87565531D01*
X146452973Y-87445032D01*
X145923510Y-87693179D01*
X145529312Y-88125053D01*
X145445922Y-88326386D01*
X145059400Y-87939864D01*
X145059400Y-86360954D01*
X145331670Y-86179029D01*
X145542000Y-85864248D01*
X145752330Y-86179029D01*
X145752330Y-86179029D01*
G37*
X145752330Y-86179029D02*
X146238511Y-86503885D01*
X146812000Y-86617959D01*
X147157652Y-86549204D01*
X147474425Y-86865977D01*
X147729876Y-87036664D01*
X148031201Y-87096601D01*
X148467049Y-87096601D01*
X148863230Y-87492782D01*
X148749152Y-87515474D01*
X148262971Y-87840330D01*
X148082008Y-88111161D01*
X147700490Y-87693179D01*
X147171027Y-87445032D01*
X146939000Y-87565531D01*
X146939000Y-88773000D01*
X146959000Y-88773000D01*
X146959000Y-89027000D01*
X146939000Y-89027000D01*
X146939000Y-89047000D01*
X146685000Y-89047000D01*
X146685000Y-89027000D01*
X146665000Y-89027000D01*
X146665000Y-88773000D01*
X146685000Y-88773000D01*
X146685000Y-87565531D01*
X146452973Y-87445032D01*
X145923510Y-87693179D01*
X145529312Y-88125053D01*
X145445922Y-88326386D01*
X145059400Y-87939864D01*
X145059400Y-86360954D01*
X145331670Y-86179029D01*
X145542000Y-85864248D01*
X145752330Y-86179029D01*
G36*
X124261677Y-124007677D02*
X124745947Y-123282915D01*
X124916000Y-122428000D01*
X124745947Y-121573085D01*
X124261677Y-120848323D01*
X123536915Y-120364053D01*
X122682000Y-120194000D01*
X121827085Y-120364053D01*
X121102323Y-120848323D01*
X120618053Y-121573085D01*
X120448000Y-122428000D01*
X120618053Y-123282915D01*
X121102323Y-124007677D01*
X121476958Y-124258000D01*
X72338000Y-124258000D01*
X72338000Y-112014000D01*
X72317139Y-111909125D01*
X72305859Y-111802798D01*
X72290303Y-111774214D01*
X72283954Y-111742295D01*
X72224549Y-111653388D01*
X72173437Y-111559469D01*
X70634905Y-109713231D01*
X70675884Y-109740612D01*
X71628000Y-109930000D01*
X72580116Y-109740612D01*
X73387282Y-109201282D01*
X73926612Y-108394116D01*
X74116000Y-107442000D01*
X73926612Y-106489884D01*
X73387282Y-105682718D01*
X72580116Y-105143388D01*
X71628000Y-104954000D01*
X70675884Y-105143388D01*
X69868718Y-105682718D01*
X69798000Y-105788555D01*
X69798000Y-80707042D01*
X70048323Y-81081677D01*
X70773085Y-81565947D01*
X71628000Y-81736000D01*
X72482915Y-81565947D01*
X73207677Y-81081677D01*
X73691947Y-80356915D01*
X73862000Y-79502000D01*
X73691947Y-78647085D01*
X73207677Y-77922323D01*
X72482915Y-77438053D01*
X71628000Y-77268000D01*
X70773085Y-77438053D01*
X70048323Y-77922323D01*
X69798000Y-78296958D01*
X69798000Y-77219055D01*
X72173437Y-74368531D01*
X72224549Y-74274612D01*
X72283954Y-74185705D01*
X72290303Y-74153786D01*
X72305859Y-74125202D01*
X72317139Y-74018875D01*
X72338000Y-73914000D01*
X72338000Y-72592000D01*
X74884448Y-72592000D01*
X74551888Y-72924560D01*
X73318000Y-72924560D01*
X73082683Y-72968838D01*
X72866559Y-73107910D01*
X72721569Y-73320110D01*
X72670560Y-73572000D01*
X72670560Y-75272000D01*
X72714838Y-75507317D01*
X72853910Y-75723441D01*
X73066110Y-75868431D01*
X73318000Y-75919440D01*
X75018000Y-75919440D01*
X75253317Y-75875162D01*
X75469441Y-75736090D01*
X75614431Y-75523890D01*
X75628086Y-75456459D01*
X75657946Y-75501147D01*
X76139715Y-75823054D01*
X76708000Y-75936093D01*
X77276285Y-75823054D01*
X77758054Y-75501147D01*
X77978000Y-75171974D01*
X78197946Y-75501147D01*
X78679715Y-75823054D01*
X79248000Y-75936093D01*
X79582087Y-75869639D01*
X88874600Y-85162152D01*
X88874600Y-86817990D01*
X88578799Y-86695162D01*
X88206833Y-86694838D01*
X87863057Y-86836883D01*
X87599808Y-87099673D01*
X87457162Y-87443201D01*
X87456838Y-87815167D01*
X87598883Y-88158943D01*
X87604600Y-88164670D01*
X87604600Y-91433828D01*
X87468662Y-91761201D01*
X87468338Y-92133167D01*
X87610383Y-92476943D01*
X87873173Y-92740192D01*
X88216701Y-92882838D01*
X88588667Y-92883162D01*
X88932443Y-92741117D01*
X89032694Y-92641040D01*
X89131673Y-92740192D01*
X89475201Y-92882838D01*
X89847167Y-92883162D01*
X90190943Y-92741117D01*
X90454192Y-92478327D01*
X90596838Y-92134799D01*
X90597162Y-91762833D01*
X90455117Y-91419057D01*
X90449400Y-91413330D01*
X90449400Y-84836000D01*
X90389463Y-84534675D01*
X90218776Y-84279224D01*
X81861104Y-75921552D01*
X82356285Y-75823054D01*
X82838054Y-75501147D01*
X83058000Y-75171974D01*
X83277946Y-75501147D01*
X83759715Y-75823054D01*
X84328000Y-75936093D01*
X84896285Y-75823054D01*
X85378054Y-75501147D01*
X85598000Y-75171974D01*
X85817946Y-75501147D01*
X86299715Y-75823054D01*
X86868000Y-75936093D01*
X87436285Y-75823054D01*
X87918054Y-75501147D01*
X88198367Y-75081629D01*
X93937525Y-80820787D01*
X94192976Y-80991474D01*
X94494301Y-81051411D01*
X99749859Y-81051411D01*
X108509422Y-89810974D01*
X106610958Y-89810974D01*
X106438688Y-89395053D01*
X106044490Y-88963179D01*
X105515027Y-88715032D01*
X105283000Y-88835531D01*
X105283000Y-90043000D01*
X106489817Y-90043000D01*
X106610958Y-89810974D01*
X108509422Y-89810974D01*
X111049422Y-92350974D01*
X106610958Y-92350974D01*
X106438688Y-91935053D01*
X106044490Y-91503179D01*
X105909687Y-91440000D01*
X106044490Y-91376821D01*
X106438688Y-90944947D01*
X106610958Y-90529026D01*
X106489817Y-90297000D01*
X105283000Y-90297000D01*
X105283000Y-92583000D01*
X106489817Y-92583000D01*
X106610958Y-92350974D01*
X111049422Y-92350974D01*
X121386600Y-102688152D01*
X121386600Y-110274678D01*
X121259600Y-110248960D01*
X119998512Y-110248960D01*
X119151400Y-109401848D01*
X119151400Y-106680000D01*
X119091463Y-106378675D01*
X118920776Y-106123224D01*
X106985174Y-94187622D01*
X106931977Y-94108007D01*
X106376762Y-93552792D01*
X106438688Y-93484947D01*
X106610958Y-93069026D01*
X106489817Y-92837000D01*
X105283000Y-92837000D01*
X105283000Y-92857000D01*
X105029000Y-92857000D01*
X105029000Y-92837000D01*
X105009000Y-92837000D01*
X105009000Y-92583000D01*
X105029000Y-92583000D01*
X105029000Y-90297000D01*
X105009000Y-90297000D01*
X105009000Y-90043000D01*
X105029000Y-90043000D01*
X105029000Y-88835531D01*
X104796973Y-88715032D01*
X104267510Y-88963179D01*
X104097505Y-89149433D01*
X104082762Y-89071083D01*
X103943690Y-88854959D01*
X103731490Y-88709969D01*
X103479600Y-88658960D01*
X101752400Y-88658960D01*
X101517083Y-88703238D01*
X101300959Y-88842310D01*
X101155969Y-89054510D01*
X101104960Y-89306400D01*
X101104960Y-91033600D01*
X101149238Y-91268917D01*
X101288310Y-91485041D01*
X101500510Y-91630031D01*
X101544131Y-91638864D01*
X101526971Y-91650330D01*
X101202115Y-92136511D01*
X101088041Y-92710000D01*
X101194141Y-93243399D01*
X98501201Y-93243399D01*
X98199876Y-93303336D01*
X97944425Y-93474023D01*
X95939848Y-95478600D01*
X81053111Y-95478600D01*
X81048327Y-95473808D01*
X80704799Y-95331162D01*
X80332833Y-95330838D01*
X79989057Y-95472883D01*
X79725808Y-95735673D01*
X79583162Y-96079201D01*
X79582838Y-96451167D01*
X79724883Y-96794943D01*
X79830710Y-96900954D01*
X79725808Y-97005673D01*
X79583162Y-97349201D01*
X79582838Y-97721167D01*
X79724883Y-98064943D01*
X79830710Y-98170954D01*
X79725808Y-98275673D01*
X79583162Y-98619201D01*
X79582838Y-98991167D01*
X79724883Y-99334943D01*
X79830710Y-99440954D01*
X79725808Y-99545673D01*
X79583162Y-99889201D01*
X79582838Y-100261167D01*
X79724883Y-100604943D01*
X79830710Y-100710954D01*
X79725808Y-100815673D01*
X79583162Y-101159201D01*
X79582838Y-101531167D01*
X79724883Y-101874943D01*
X79830710Y-101980954D01*
X79725808Y-102085673D01*
X79583162Y-102429201D01*
X79582838Y-102801167D01*
X79724883Y-103144943D01*
X79830710Y-103250954D01*
X79725808Y-103355673D01*
X79583162Y-103699201D01*
X79582838Y-104071167D01*
X79724883Y-104414943D01*
X79830710Y-104520954D01*
X79725808Y-104625673D01*
X79583162Y-104969201D01*
X79582838Y-105341167D01*
X79724883Y-105684943D01*
X79987673Y-105948192D01*
X80331201Y-106090838D01*
X80703167Y-106091162D01*
X81046943Y-105949117D01*
X81052670Y-105943400D01*
X95685848Y-105943400D01*
X101176413Y-111433965D01*
X101117400Y-111730641D01*
X101117400Y-111789359D01*
X101231474Y-112362848D01*
X101405703Y-112623600D01*
X100317040Y-112623600D01*
X100317040Y-110896400D01*
X100272762Y-110661083D01*
X100133690Y-110444959D01*
X99921490Y-110299969D01*
X99669600Y-110248960D01*
X97942400Y-110248960D01*
X97707083Y-110293238D01*
X97490959Y-110432310D01*
X97345969Y-110644510D01*
X97337136Y-110688131D01*
X97325670Y-110670971D01*
X96839489Y-110346115D01*
X96266000Y-110232041D01*
X95692511Y-110346115D01*
X95206330Y-110670971D01*
X94996000Y-110985752D01*
X94785670Y-110670971D01*
X94299489Y-110346115D01*
X93726000Y-110232041D01*
X93152511Y-110346115D01*
X92666330Y-110670971D01*
X92456000Y-110985752D01*
X92245670Y-110670971D01*
X91759489Y-110346115D01*
X91186000Y-110232041D01*
X90612511Y-110346115D01*
X90126330Y-110670971D01*
X89916000Y-110985752D01*
X89705670Y-110670971D01*
X89219489Y-110346115D01*
X88646000Y-110232041D01*
X88072511Y-110346115D01*
X87586330Y-110670971D01*
X87376000Y-110985752D01*
X87165670Y-110670971D01*
X86679489Y-110346115D01*
X86106000Y-110232041D01*
X85532511Y-110346115D01*
X85046330Y-110670971D01*
X84836000Y-110985752D01*
X84625670Y-110670971D01*
X84139489Y-110346115D01*
X83566000Y-110232041D01*
X82992511Y-110346115D01*
X82506330Y-110670971D01*
X82296000Y-110985752D01*
X82085670Y-110670971D01*
X81599489Y-110346115D01*
X81026000Y-110232041D01*
X80452511Y-110346115D01*
X79966330Y-110670971D01*
X79641474Y-111157152D01*
X79527400Y-111730641D01*
X79527400Y-111789359D01*
X79641474Y-112362848D01*
X79966330Y-112849029D01*
X80237172Y-113030000D01*
X79966330Y-113210971D01*
X79641474Y-113697152D01*
X79527400Y-114270641D01*
X79527400Y-114329359D01*
X79641474Y-114902848D01*
X79966330Y-115389029D01*
X80452511Y-115713885D01*
X81026000Y-115827959D01*
X81599489Y-115713885D01*
X82085670Y-115389029D01*
X82296000Y-115074248D01*
X82506330Y-115389029D01*
X82992511Y-115713885D01*
X83566000Y-115827959D01*
X84139489Y-115713885D01*
X84625670Y-115389029D01*
X84836000Y-115074248D01*
X85046330Y-115389029D01*
X85532511Y-115713885D01*
X86106000Y-115827959D01*
X86679489Y-115713885D01*
X87165670Y-115389029D01*
X87376000Y-115074248D01*
X87586330Y-115389029D01*
X88072511Y-115713885D01*
X88646000Y-115827959D01*
X89219489Y-115713885D01*
X89705670Y-115389029D01*
X89916000Y-115074248D01*
X90126330Y-115389029D01*
X90612511Y-115713885D01*
X91186000Y-115827959D01*
X91759489Y-115713885D01*
X92245670Y-115389029D01*
X92456000Y-115074248D01*
X92666330Y-115389029D01*
X93152511Y-115713885D01*
X93726000Y-115827959D01*
X94299489Y-115713885D01*
X94785670Y-115389029D01*
X94996000Y-115074248D01*
X95206330Y-115389029D01*
X95692511Y-115713885D01*
X96266000Y-115827959D01*
X96839489Y-115713885D01*
X97325670Y-115389029D01*
X97536000Y-115074248D01*
X97746330Y-115389029D01*
X98232511Y-115713885D01*
X98806000Y-115827959D01*
X99379489Y-115713885D01*
X99865670Y-115389029D01*
X100190526Y-114902848D01*
X100304600Y-114329359D01*
X100304600Y-114270641D01*
X100190526Y-113697152D01*
X99879426Y-113231558D01*
X99904917Y-113226762D01*
X100121041Y-113087690D01*
X100266031Y-112875490D01*
X100317040Y-112623600D01*
X101405703Y-112623600D01*
X101556330Y-112849029D01*
X101827172Y-113030000D01*
X101556330Y-113210971D01*
X101231474Y-113697152D01*
X101117400Y-114270641D01*
X101117400Y-114329359D01*
X101231474Y-114902848D01*
X101556330Y-115389029D01*
X102042511Y-115713885D01*
X102616000Y-115827959D01*
X103189489Y-115713885D01*
X103675670Y-115389029D01*
X103886000Y-115074248D01*
X104096330Y-115389029D01*
X104582511Y-115713885D01*
X105156000Y-115827959D01*
X105729489Y-115713885D01*
X106215670Y-115389029D01*
X106426000Y-115074248D01*
X106636330Y-115389029D01*
X107122511Y-115713885D01*
X107696000Y-115827959D01*
X108269489Y-115713885D01*
X108755670Y-115389029D01*
X108966000Y-115074248D01*
X109176330Y-115389029D01*
X109662511Y-115713885D01*
X110236000Y-115827959D01*
X110809489Y-115713885D01*
X111295670Y-115389029D01*
X111506000Y-115074248D01*
X111716330Y-115389029D01*
X112202511Y-115713885D01*
X112776000Y-115827959D01*
X113349489Y-115713885D01*
X113835670Y-115389029D01*
X114046000Y-115074248D01*
X114256330Y-115389029D01*
X114742511Y-115713885D01*
X115316000Y-115827959D01*
X115889489Y-115713885D01*
X116375670Y-115389029D01*
X116586000Y-115074248D01*
X116796330Y-115389029D01*
X117282511Y-115713885D01*
X117856000Y-115827959D01*
X118429489Y-115713885D01*
X118915670Y-115389029D01*
X119126000Y-115074248D01*
X119336330Y-115389029D01*
X119822511Y-115713885D01*
X120396000Y-115827959D01*
X120969489Y-115713885D01*
X121386600Y-115435180D01*
X121386600Y-116259848D01*
X116666087Y-120980361D01*
X116332000Y-120913907D01*
X115763715Y-121026946D01*
X115281946Y-121348853D01*
X115062000Y-121678026D01*
X114842054Y-121348853D01*
X114360285Y-121026946D01*
X113792000Y-120913907D01*
X113223715Y-121026946D01*
X112741946Y-121348853D01*
X112514298Y-121689553D01*
X112447183Y-121546642D01*
X112018924Y-121156355D01*
X111608890Y-120986524D01*
X111379000Y-121107845D01*
X111379000Y-122301000D01*
X111399000Y-122301000D01*
X111399000Y-122555000D01*
X111379000Y-122555000D01*
X111379000Y-123748155D01*
X111125000Y-123748155D01*
X111125000Y-122555000D01*
X111105000Y-122555000D01*
X111105000Y-122301000D01*
X111125000Y-122301000D01*
X111125000Y-121107845D01*
X110895110Y-120986524D01*
X110485076Y-121156355D01*
X110056817Y-121546642D01*
X109989702Y-121689553D01*
X109762054Y-121348853D01*
X109280285Y-121026946D01*
X108712000Y-120913907D01*
X108143715Y-121026946D01*
X107661946Y-121348853D01*
X107442000Y-121678026D01*
X107222054Y-121348853D01*
X106740285Y-121026946D01*
X106172000Y-120913907D01*
X105603715Y-121026946D01*
X105121946Y-121348853D01*
X104902000Y-121678026D01*
X104682054Y-121348853D01*
X104200285Y-121026946D01*
X103632000Y-120913907D01*
X103063715Y-121026946D01*
X102581946Y-121348853D01*
X102362000Y-121678026D01*
X102142054Y-121348853D01*
X101660285Y-121026946D01*
X101092000Y-120913907D01*
X100523715Y-121026946D01*
X100041946Y-121348853D01*
X99822000Y-121678026D01*
X99602054Y-121348853D01*
X99120285Y-121026946D01*
X98552000Y-120913907D01*
X97983715Y-121026946D01*
X97501946Y-121348853D01*
X97282000Y-121678026D01*
X97062054Y-121348853D01*
X96580285Y-121026946D01*
X96012000Y-120913907D01*
X95443715Y-121026946D01*
X94961946Y-121348853D01*
X94640039Y-121830622D01*
X94527000Y-122398907D01*
X94527000Y-122457093D01*
X93433000Y-122457093D01*
X93433000Y-122398907D01*
X93319961Y-121830622D01*
X92998054Y-121348853D01*
X92516285Y-121026946D01*
X91948000Y-120913907D01*
X91379715Y-121026946D01*
X90897946Y-121348853D01*
X90678000Y-121678026D01*
X90458054Y-121348853D01*
X89976285Y-121026946D01*
X89408000Y-120913907D01*
X88839715Y-121026946D01*
X88357946Y-121348853D01*
X88138000Y-121678026D01*
X87918054Y-121348853D01*
X87436285Y-121026946D01*
X86868000Y-120913907D01*
X86299715Y-121026946D01*
X85817946Y-121348853D01*
X85598000Y-121678026D01*
X85378054Y-121348853D01*
X84896285Y-121026946D01*
X84328000Y-120913907D01*
X83759715Y-121026946D01*
X83277946Y-121348853D01*
X83058000Y-121678026D01*
X82838054Y-121348853D01*
X82356285Y-121026946D01*
X81788000Y-120913907D01*
X81219715Y-121026946D01*
X80737946Y-121348853D01*
X80518000Y-121678026D01*
X80298054Y-121348853D01*
X79816285Y-121026946D01*
X79248000Y-120913907D01*
X78679715Y-121026946D01*
X78197946Y-121348853D01*
X77978000Y-121678026D01*
X77758054Y-121348853D01*
X77276285Y-121026946D01*
X76708000Y-120913907D01*
X76139715Y-121026946D01*
X75657946Y-121348853D01*
X75630150Y-121390452D01*
X75621162Y-121342683D01*
X75482090Y-121126559D01*
X75269890Y-120981569D01*
X75018000Y-120930560D01*
X73318000Y-120930560D01*
X73082683Y-120974838D01*
X72866559Y-121113910D01*
X72721569Y-121326110D01*
X72670560Y-121578000D01*
X72670560Y-123278000D01*
X72714838Y-123513317D01*
X72853910Y-123729441D01*
X73066110Y-123874431D01*
X73318000Y-123925440D01*
X75018000Y-123925440D01*
X75253317Y-123881162D01*
X75469441Y-123742090D01*
X75614431Y-123529890D01*
X75628086Y-123462459D01*
X75657946Y-123507147D01*
X76139715Y-123829054D01*
X76708000Y-123942093D01*
X77276285Y-123829054D01*
X77758054Y-123507147D01*
X77978000Y-123177974D01*
X78197946Y-123507147D01*
X78679715Y-123829054D01*
X79248000Y-123942093D01*
X79816285Y-123829054D01*
X80298054Y-123507147D01*
X80518000Y-123177974D01*
X80737946Y-123507147D01*
X81219715Y-123829054D01*
X81788000Y-123942093D01*
X82356285Y-123829054D01*
X82838054Y-123507147D01*
X83058000Y-123177974D01*
X83277946Y-123507147D01*
X83759715Y-123829054D01*
X84328000Y-123942093D01*
X84896285Y-123829054D01*
X85378054Y-123507147D01*
X85598000Y-123177974D01*
X85817946Y-123507147D01*
X86299715Y-123829054D01*
X86868000Y-123942093D01*
X87436285Y-123829054D01*
X87918054Y-123507147D01*
X88138000Y-123177974D01*
X88357946Y-123507147D01*
X88839715Y-123829054D01*
X89408000Y-123942093D01*
X89976285Y-123829054D01*
X90458054Y-123507147D01*
X90678000Y-123177974D01*
X90897946Y-123507147D01*
X91379715Y-123829054D01*
X91948000Y-123942093D01*
X92516285Y-123829054D01*
X92998054Y-123507147D01*
X93319961Y-123025378D01*
X93433000Y-122457093D01*
X94527000Y-122457093D01*
X94640039Y-123025378D01*
X94961946Y-123507147D01*
X95443715Y-123829054D01*
X96012000Y-123942093D01*
X96580285Y-123829054D01*
X97062054Y-123507147D01*
X97282000Y-123177974D01*
X97501946Y-123507147D01*
X97983715Y-123829054D01*
X98552000Y-123942093D01*
X99120285Y-123829054D01*
X99602054Y-123507147D01*
X99822000Y-123177974D01*
X100041946Y-123507147D01*
X100523715Y-123829054D01*
X101092000Y-123942093D01*
X101660285Y-123829054D01*
X102142054Y-123507147D01*
X102362000Y-123177974D01*
X102581946Y-123507147D01*
X103063715Y-123829054D01*
X103632000Y-123942093D01*
X104200285Y-123829054D01*
X104682054Y-123507147D01*
X104902000Y-123177974D01*
X105121946Y-123507147D01*
X105603715Y-123829054D01*
X106172000Y-123942093D01*
X106740285Y-123829054D01*
X107222054Y-123507147D01*
X107442000Y-123177974D01*
X107661946Y-123507147D01*
X108143715Y-123829054D01*
X108712000Y-123942093D01*
X109280285Y-123829054D01*
X109762054Y-123507147D01*
X109989702Y-123166447D01*
X110056817Y-123309358D01*
X110485076Y-123699645D01*
X110895110Y-123869476D01*
X111125000Y-123748155D01*
X111379000Y-123748155D01*
X111608890Y-123869476D01*
X112018924Y-123699645D01*
X112447183Y-123309358D01*
X112514298Y-123166447D01*
X112741946Y-123507147D01*
X113223715Y-123829054D01*
X113792000Y-123942093D01*
X114360285Y-123829054D01*
X114842054Y-123507147D01*
X115062000Y-123177974D01*
X115281946Y-123507147D01*
X115763715Y-123829054D01*
X116332000Y-123942093D01*
X116900285Y-123829054D01*
X117382054Y-123507147D01*
X117409850Y-123465548D01*
X117418838Y-123513317D01*
X117557910Y-123729441D01*
X117770110Y-123874431D01*
X118022000Y-123925440D01*
X119722000Y-123925440D01*
X119957317Y-123881162D01*
X120173441Y-123742090D01*
X120318431Y-123529890D01*
X120369440Y-123278000D01*
X120369440Y-121578000D01*
X120325162Y-121342683D01*
X120186090Y-121126559D01*
X119973890Y-120981569D01*
X119722000Y-120930560D01*
X119704992Y-120930560D01*
X123238776Y-117396776D01*
X123409463Y-117141325D01*
X123469400Y-116840000D01*
X123469400Y-102108000D01*
X123409463Y-101806675D01*
X123238776Y-101551224D01*
X100886776Y-79199224D01*
X100631325Y-79028537D01*
X100330000Y-78968600D01*
X95030878Y-78968600D01*
X91981718Y-75919440D01*
X92798000Y-75919440D01*
X93033317Y-75875162D01*
X93249441Y-75736090D01*
X93394431Y-75523890D01*
X93416301Y-75415893D01*
X93721076Y-75693645D01*
X94131110Y-75863476D01*
X94361000Y-75742155D01*
X94361000Y-74549000D01*
X94341000Y-74549000D01*
X94341000Y-74295000D01*
X94361000Y-74295000D01*
X94361000Y-73101845D01*
X94131110Y-72980524D01*
X93721076Y-73150355D01*
X93418063Y-73426501D01*
X93401162Y-73336683D01*
X93262090Y-73120559D01*
X93049890Y-72975569D01*
X92798000Y-72924560D01*
X91098000Y-72924560D01*
X90862683Y-72968838D01*
X90646559Y-73107910D01*
X90501569Y-73320110D01*
X90450560Y-73572000D01*
X90450560Y-74388282D01*
X88654278Y-72592000D01*
X115776714Y-72592000D01*
X115776714Y-74451093D01*
X111213000Y-74451093D01*
X111213000Y-74392907D01*
X111099961Y-73824622D01*
X110778054Y-73342853D01*
X110296285Y-73020946D01*
X109728000Y-72907907D01*
X109159715Y-73020946D01*
X108677946Y-73342853D01*
X108458000Y-73672026D01*
X108238054Y-73342853D01*
X107756285Y-73020946D01*
X107188000Y-72907907D01*
X106619715Y-73020946D01*
X106137946Y-73342853D01*
X105918000Y-73672026D01*
X105698054Y-73342853D01*
X105216285Y-73020946D01*
X104648000Y-72907907D01*
X104079715Y-73020946D01*
X103597946Y-73342853D01*
X103378000Y-73672026D01*
X103158054Y-73342853D01*
X102676285Y-73020946D01*
X102108000Y-72907907D01*
X101539715Y-73020946D01*
X101057946Y-73342853D01*
X100838000Y-73672026D01*
X100618054Y-73342853D01*
X100136285Y-73020946D01*
X99568000Y-72907907D01*
X98999715Y-73020946D01*
X98517946Y-73342853D01*
X98290298Y-73683553D01*
X98223183Y-73540642D01*
X97794924Y-73150355D01*
X97384890Y-72980524D01*
X97155000Y-73101845D01*
X97155000Y-74295000D01*
X96901000Y-74295000D01*
X96901000Y-73101845D01*
X96671110Y-72980524D01*
X96261076Y-73150355D01*
X95832817Y-73540642D01*
X95758000Y-73699954D01*
X95683183Y-73540642D01*
X95254924Y-73150355D01*
X94844890Y-72980524D01*
X94615000Y-73101845D01*
X94615000Y-74295000D01*
X96901000Y-74295000D01*
X97155000Y-74295000D01*
X97175000Y-74295000D01*
X97175000Y-74549000D01*
X97155000Y-74549000D01*
X97155000Y-75742155D01*
X96901000Y-75742155D01*
X96901000Y-74549000D01*
X94615000Y-74549000D01*
X94615000Y-75742155D01*
X94844890Y-75863476D01*
X95254924Y-75693645D01*
X95683183Y-75303358D01*
X95758000Y-75144046D01*
X95832817Y-75303358D01*
X96261076Y-75693645D01*
X96671110Y-75863476D01*
X96901000Y-75742155D01*
X97155000Y-75742155D01*
X97384890Y-75863476D01*
X97794924Y-75693645D01*
X98223183Y-75303358D01*
X98290298Y-75160447D01*
X98517946Y-75501147D01*
X98999715Y-75823054D01*
X99568000Y-75936093D01*
X100136285Y-75823054D01*
X100618054Y-75501147D01*
X100838000Y-75171974D01*
X101057946Y-75501147D01*
X101539715Y-75823054D01*
X102108000Y-75936093D01*
X102676285Y-75823054D01*
X103158054Y-75501147D01*
X103378000Y-75171974D01*
X103597946Y-75501147D01*
X104079715Y-75823054D01*
X104648000Y-75936093D01*
X105216285Y-75823054D01*
X105698054Y-75501147D01*
X105918000Y-75171974D01*
X106137946Y-75501147D01*
X106619715Y-75823054D01*
X107188000Y-75936093D01*
X107756285Y-75823054D01*
X108238054Y-75501147D01*
X108458000Y-75171974D01*
X108677946Y-75501147D01*
X109159715Y-75823054D01*
X109728000Y-75936093D01*
X110296285Y-75823054D01*
X110778054Y-75501147D01*
X111099961Y-75019378D01*
X111213000Y-74451093D01*
X115776714Y-74451093D01*
X115776714Y-75024500D01*
X121583845Y-75024500D01*
X121634053Y-75276915D01*
X122118323Y-76001677D01*
X122843085Y-76485947D01*
X123698000Y-76656000D01*
X124552915Y-76485947D01*
X125274000Y-76004134D01*
X125274000Y-124165908D01*
X125181909Y-124258000D01*
X123887042Y-124258000D01*
X124261677Y-124007677D01*
X124261677Y-124007677D01*
G37*
X124261677Y-124007677D02*
X124745947Y-123282915D01*
X124916000Y-122428000D01*
X124745947Y-121573085D01*
X124261677Y-120848323D01*
X123536915Y-120364053D01*
X122682000Y-120194000D01*
X121827085Y-120364053D01*
X121102323Y-120848323D01*
X120618053Y-121573085D01*
X120448000Y-122428000D01*
X120618053Y-123282915D01*
X121102323Y-124007677D01*
X121476958Y-124258000D01*
X72338000Y-124258000D01*
X72338000Y-112014000D01*
X72317139Y-111909125D01*
X72305859Y-111802798D01*
X72290303Y-111774214D01*
X72283954Y-111742295D01*
X72224549Y-111653388D01*
X72173437Y-111559469D01*
X70634905Y-109713231D01*
X70675884Y-109740612D01*
X71628000Y-109930000D01*
X72580116Y-109740612D01*
X73387282Y-109201282D01*
X73926612Y-108394116D01*
X74116000Y-107442000D01*
X73926612Y-106489884D01*
X73387282Y-105682718D01*
X72580116Y-105143388D01*
X71628000Y-104954000D01*
X70675884Y-105143388D01*
X69868718Y-105682718D01*
X69798000Y-105788555D01*
X69798000Y-80707042D01*
X70048323Y-81081677D01*
X70773085Y-81565947D01*
X71628000Y-81736000D01*
X72482915Y-81565947D01*
X73207677Y-81081677D01*
X73691947Y-80356915D01*
X73862000Y-79502000D01*
X73691947Y-78647085D01*
X73207677Y-77922323D01*
X72482915Y-77438053D01*
X71628000Y-77268000D01*
X70773085Y-77438053D01*
X70048323Y-77922323D01*
X69798000Y-78296958D01*
X69798000Y-77219055D01*
X72173437Y-74368531D01*
X72224549Y-74274612D01*
X72283954Y-74185705D01*
X72290303Y-74153786D01*
X72305859Y-74125202D01*
X72317139Y-74018875D01*
X72338000Y-73914000D01*
X72338000Y-72592000D01*
X74884448Y-72592000D01*
X74551888Y-72924560D01*
X73318000Y-72924560D01*
X73082683Y-72968838D01*
X72866559Y-73107910D01*
X72721569Y-73320110D01*
X72670560Y-73572000D01*
X72670560Y-75272000D01*
X72714838Y-75507317D01*
X72853910Y-75723441D01*
X73066110Y-75868431D01*
X73318000Y-75919440D01*
X75018000Y-75919440D01*
X75253317Y-75875162D01*
X75469441Y-75736090D01*
X75614431Y-75523890D01*
X75628086Y-75456459D01*
X75657946Y-75501147D01*
X76139715Y-75823054D01*
X76708000Y-75936093D01*
X77276285Y-75823054D01*
X77758054Y-75501147D01*
X77978000Y-75171974D01*
X78197946Y-75501147D01*
X78679715Y-75823054D01*
X79248000Y-75936093D01*
X79582087Y-75869639D01*
X88874600Y-85162152D01*
X88874600Y-86817990D01*
X88578799Y-86695162D01*
X88206833Y-86694838D01*
X87863057Y-86836883D01*
X87599808Y-87099673D01*
X87457162Y-87443201D01*
X87456838Y-87815167D01*
X87598883Y-88158943D01*
X87604600Y-88164670D01*
X87604600Y-91433828D01*
X87468662Y-91761201D01*
X87468338Y-92133167D01*
X87610383Y-92476943D01*
X87873173Y-92740192D01*
X88216701Y-92882838D01*
X88588667Y-92883162D01*
X88932443Y-92741117D01*
X89032694Y-92641040D01*
X89131673Y-92740192D01*
X89475201Y-92882838D01*
X89847167Y-92883162D01*
X90190943Y-92741117D01*
X90454192Y-92478327D01*
X90596838Y-92134799D01*
X90597162Y-91762833D01*
X90455117Y-91419057D01*
X90449400Y-91413330D01*
X90449400Y-84836000D01*
X90389463Y-84534675D01*
X90218776Y-84279224D01*
X81861104Y-75921552D01*
X82356285Y-75823054D01*
X82838054Y-75501147D01*
X83058000Y-75171974D01*
X83277946Y-75501147D01*
X83759715Y-75823054D01*
X84328000Y-75936093D01*
X84896285Y-75823054D01*
X85378054Y-75501147D01*
X85598000Y-75171974D01*
X85817946Y-75501147D01*
X86299715Y-75823054D01*
X86868000Y-75936093D01*
X87436285Y-75823054D01*
X87918054Y-75501147D01*
X88198367Y-75081629D01*
X93937525Y-80820787D01*
X94192976Y-80991474D01*
X94494301Y-81051411D01*
X99749859Y-81051411D01*
X108509422Y-89810974D01*
X106610958Y-89810974D01*
X106438688Y-89395053D01*
X106044490Y-88963179D01*
X105515027Y-88715032D01*
X105283000Y-88835531D01*
X105283000Y-90043000D01*
X106489817Y-90043000D01*
X106610958Y-89810974D01*
X108509422Y-89810974D01*
X111049422Y-92350974D01*
X106610958Y-92350974D01*
X106438688Y-91935053D01*
X106044490Y-91503179D01*
X105909687Y-91440000D01*
X106044490Y-91376821D01*
X106438688Y-90944947D01*
X106610958Y-90529026D01*
X106489817Y-90297000D01*
X105283000Y-90297000D01*
X105283000Y-92583000D01*
X106489817Y-92583000D01*
X106610958Y-92350974D01*
X111049422Y-92350974D01*
X121386600Y-102688152D01*
X121386600Y-110274678D01*
X121259600Y-110248960D01*
X119998512Y-110248960D01*
X119151400Y-109401848D01*
X119151400Y-106680000D01*
X119091463Y-106378675D01*
X118920776Y-106123224D01*
X106985174Y-94187622D01*
X106931977Y-94108007D01*
X106376762Y-93552792D01*
X106438688Y-93484947D01*
X106610958Y-93069026D01*
X106489817Y-92837000D01*
X105283000Y-92837000D01*
X105283000Y-92857000D01*
X105029000Y-92857000D01*
X105029000Y-92837000D01*
X105009000Y-92837000D01*
X105009000Y-92583000D01*
X105029000Y-92583000D01*
X105029000Y-90297000D01*
X105009000Y-90297000D01*
X105009000Y-90043000D01*
X105029000Y-90043000D01*
X105029000Y-88835531D01*
X104796973Y-88715032D01*
X104267510Y-88963179D01*
X104097505Y-89149433D01*
X104082762Y-89071083D01*
X103943690Y-88854959D01*
X103731490Y-88709969D01*
X103479600Y-88658960D01*
X101752400Y-88658960D01*
X101517083Y-88703238D01*
X101300959Y-88842310D01*
X101155969Y-89054510D01*
X101104960Y-89306400D01*
X101104960Y-91033600D01*
X101149238Y-91268917D01*
X101288310Y-91485041D01*
X101500510Y-91630031D01*
X101544131Y-91638864D01*
X101526971Y-91650330D01*
X101202115Y-92136511D01*
X101088041Y-92710000D01*
X101194141Y-93243399D01*
X98501201Y-93243399D01*
X98199876Y-93303336D01*
X97944425Y-93474023D01*
X95939848Y-95478600D01*
X81053111Y-95478600D01*
X81048327Y-95473808D01*
X80704799Y-95331162D01*
X80332833Y-95330838D01*
X79989057Y-95472883D01*
X79725808Y-95735673D01*
X79583162Y-96079201D01*
X79582838Y-96451167D01*
X79724883Y-96794943D01*
X79830710Y-96900954D01*
X79725808Y-97005673D01*
X79583162Y-97349201D01*
X79582838Y-97721167D01*
X79724883Y-98064943D01*
X79830710Y-98170954D01*
X79725808Y-98275673D01*
X79583162Y-98619201D01*
X79582838Y-98991167D01*
X79724883Y-99334943D01*
X79830710Y-99440954D01*
X79725808Y-99545673D01*
X79583162Y-99889201D01*
X79582838Y-100261167D01*
X79724883Y-100604943D01*
X79830710Y-100710954D01*
X79725808Y-100815673D01*
X79583162Y-101159201D01*
X79582838Y-101531167D01*
X79724883Y-101874943D01*
X79830710Y-101980954D01*
X79725808Y-102085673D01*
X79583162Y-102429201D01*
X79582838Y-102801167D01*
X79724883Y-103144943D01*
X79830710Y-103250954D01*
X79725808Y-103355673D01*
X79583162Y-103699201D01*
X79582838Y-104071167D01*
X79724883Y-104414943D01*
X79830710Y-104520954D01*
X79725808Y-104625673D01*
X79583162Y-104969201D01*
X79582838Y-105341167D01*
X79724883Y-105684943D01*
X79987673Y-105948192D01*
X80331201Y-106090838D01*
X80703167Y-106091162D01*
X81046943Y-105949117D01*
X81052670Y-105943400D01*
X95685848Y-105943400D01*
X101176413Y-111433965D01*
X101117400Y-111730641D01*
X101117400Y-111789359D01*
X101231474Y-112362848D01*
X101405703Y-112623600D01*
X100317040Y-112623600D01*
X100317040Y-110896400D01*
X100272762Y-110661083D01*
X100133690Y-110444959D01*
X99921490Y-110299969D01*
X99669600Y-110248960D01*
X97942400Y-110248960D01*
X97707083Y-110293238D01*
X97490959Y-110432310D01*
X97345969Y-110644510D01*
X97337136Y-110688131D01*
X97325670Y-110670971D01*
X96839489Y-110346115D01*
X96266000Y-110232041D01*
X95692511Y-110346115D01*
X95206330Y-110670971D01*
X94996000Y-110985752D01*
X94785670Y-110670971D01*
X94299489Y-110346115D01*
X93726000Y-110232041D01*
X93152511Y-110346115D01*
X92666330Y-110670971D01*
X92456000Y-110985752D01*
X92245670Y-110670971D01*
X91759489Y-110346115D01*
X91186000Y-110232041D01*
X90612511Y-110346115D01*
X90126330Y-110670971D01*
X89916000Y-110985752D01*
X89705670Y-110670971D01*
X89219489Y-110346115D01*
X88646000Y-110232041D01*
X88072511Y-110346115D01*
X87586330Y-110670971D01*
X87376000Y-110985752D01*
X87165670Y-110670971D01*
X86679489Y-110346115D01*
X86106000Y-110232041D01*
X85532511Y-110346115D01*
X85046330Y-110670971D01*
X84836000Y-110985752D01*
X84625670Y-110670971D01*
X84139489Y-110346115D01*
X83566000Y-110232041D01*
X82992511Y-110346115D01*
X82506330Y-110670971D01*
X82296000Y-110985752D01*
X82085670Y-110670971D01*
X81599489Y-110346115D01*
X81026000Y-110232041D01*
X80452511Y-110346115D01*
X79966330Y-110670971D01*
X79641474Y-111157152D01*
X79527400Y-111730641D01*
X79527400Y-111789359D01*
X79641474Y-112362848D01*
X79966330Y-112849029D01*
X80237172Y-113030000D01*
X79966330Y-113210971D01*
X79641474Y-113697152D01*
X79527400Y-114270641D01*
X79527400Y-114329359D01*
X79641474Y-114902848D01*
X79966330Y-115389029D01*
X80452511Y-115713885D01*
X81026000Y-115827959D01*
X81599489Y-115713885D01*
X82085670Y-115389029D01*
X82296000Y-115074248D01*
X82506330Y-115389029D01*
X82992511Y-115713885D01*
X83566000Y-115827959D01*
X84139489Y-115713885D01*
X84625670Y-115389029D01*
X84836000Y-115074248D01*
X85046330Y-115389029D01*
X85532511Y-115713885D01*
X86106000Y-115827959D01*
X86679489Y-115713885D01*
X87165670Y-115389029D01*
X87376000Y-115074248D01*
X87586330Y-115389029D01*
X88072511Y-115713885D01*
X88646000Y-115827959D01*
X89219489Y-115713885D01*
X89705670Y-115389029D01*
X89916000Y-115074248D01*
X90126330Y-115389029D01*
X90612511Y-115713885D01*
X91186000Y-115827959D01*
X91759489Y-115713885D01*
X92245670Y-115389029D01*
X92456000Y-115074248D01*
X92666330Y-115389029D01*
X93152511Y-115713885D01*
X93726000Y-115827959D01*
X94299489Y-115713885D01*
X94785670Y-115389029D01*
X94996000Y-115074248D01*
X95206330Y-115389029D01*
X95692511Y-115713885D01*
X96266000Y-115827959D01*
X96839489Y-115713885D01*
X97325670Y-115389029D01*
X97536000Y-115074248D01*
X97746330Y-115389029D01*
X98232511Y-115713885D01*
X98806000Y-115827959D01*
X99379489Y-115713885D01*
X99865670Y-115389029D01*
X100190526Y-114902848D01*
X100304600Y-114329359D01*
X100304600Y-114270641D01*
X100190526Y-113697152D01*
X99879426Y-113231558D01*
X99904917Y-113226762D01*
X100121041Y-113087690D01*
X100266031Y-112875490D01*
X100317040Y-112623600D01*
X101405703Y-112623600D01*
X101556330Y-112849029D01*
X101827172Y-113030000D01*
X101556330Y-113210971D01*
X101231474Y-113697152D01*
X101117400Y-114270641D01*
X101117400Y-114329359D01*
X101231474Y-114902848D01*
X101556330Y-115389029D01*
X102042511Y-115713885D01*
X102616000Y-115827959D01*
X103189489Y-115713885D01*
X103675670Y-115389029D01*
X103886000Y-115074248D01*
X104096330Y-115389029D01*
X104582511Y-115713885D01*
X105156000Y-115827959D01*
X105729489Y-115713885D01*
X106215670Y-115389029D01*
X106426000Y-115074248D01*
X106636330Y-115389029D01*
X107122511Y-115713885D01*
X107696000Y-115827959D01*
X108269489Y-115713885D01*
X108755670Y-115389029D01*
X108966000Y-115074248D01*
X109176330Y-115389029D01*
X109662511Y-115713885D01*
X110236000Y-115827959D01*
X110809489Y-115713885D01*
X111295670Y-115389029D01*
X111506000Y-115074248D01*
X111716330Y-115389029D01*
X112202511Y-115713885D01*
X112776000Y-115827959D01*
X113349489Y-115713885D01*
X113835670Y-115389029D01*
X114046000Y-115074248D01*
X114256330Y-115389029D01*
X114742511Y-115713885D01*
X115316000Y-115827959D01*
X115889489Y-115713885D01*
X116375670Y-115389029D01*
X116586000Y-115074248D01*
X116796330Y-115389029D01*
X117282511Y-115713885D01*
X117856000Y-115827959D01*
X118429489Y-115713885D01*
X118915670Y-115389029D01*
X119126000Y-115074248D01*
X119336330Y-115389029D01*
X119822511Y-115713885D01*
X120396000Y-115827959D01*
X120969489Y-115713885D01*
X121386600Y-115435180D01*
X121386600Y-116259848D01*
X116666087Y-120980361D01*
X116332000Y-120913907D01*
X115763715Y-121026946D01*
X115281946Y-121348853D01*
X115062000Y-121678026D01*
X114842054Y-121348853D01*
X114360285Y-121026946D01*
X113792000Y-120913907D01*
X113223715Y-121026946D01*
X112741946Y-121348853D01*
X112514298Y-121689553D01*
X112447183Y-121546642D01*
X112018924Y-121156355D01*
X111608890Y-120986524D01*
X111379000Y-121107845D01*
X111379000Y-122301000D01*
X111399000Y-122301000D01*
X111399000Y-122555000D01*
X111379000Y-122555000D01*
X111379000Y-123748155D01*
X111125000Y-123748155D01*
X111125000Y-122555000D01*
X111105000Y-122555000D01*
X111105000Y-122301000D01*
X111125000Y-122301000D01*
X111125000Y-121107845D01*
X110895110Y-120986524D01*
X110485076Y-121156355D01*
X110056817Y-121546642D01*
X109989702Y-121689553D01*
X109762054Y-121348853D01*
X109280285Y-121026946D01*
X108712000Y-120913907D01*
X108143715Y-121026946D01*
X107661946Y-121348853D01*
X107442000Y-121678026D01*
X107222054Y-121348853D01*
X106740285Y-121026946D01*
X106172000Y-120913907D01*
X105603715Y-121026946D01*
X105121946Y-121348853D01*
X104902000Y-121678026D01*
X104682054Y-121348853D01*
X104200285Y-121026946D01*
X103632000Y-120913907D01*
X103063715Y-121026946D01*
X102581946Y-121348853D01*
X102362000Y-121678026D01*
X102142054Y-121348853D01*
X101660285Y-121026946D01*
X101092000Y-120913907D01*
X100523715Y-121026946D01*
X100041946Y-121348853D01*
X99822000Y-121678026D01*
X99602054Y-121348853D01*
X99120285Y-121026946D01*
X98552000Y-120913907D01*
X97983715Y-121026946D01*
X97501946Y-121348853D01*
X97282000Y-121678026D01*
X97062054Y-121348853D01*
X96580285Y-121026946D01*
X96012000Y-120913907D01*
X95443715Y-121026946D01*
X94961946Y-121348853D01*
X94640039Y-121830622D01*
X94527000Y-122398907D01*
X94527000Y-122457093D01*
X93433000Y-122457093D01*
X93433000Y-122398907D01*
X93319961Y-121830622D01*
X92998054Y-121348853D01*
X92516285Y-121026946D01*
X91948000Y-120913907D01*
X91379715Y-121026946D01*
X90897946Y-121348853D01*
X90678000Y-121678026D01*
X90458054Y-121348853D01*
X89976285Y-121026946D01*
X89408000Y-120913907D01*
X88839715Y-121026946D01*
X88357946Y-121348853D01*
X88138000Y-121678026D01*
X87918054Y-121348853D01*
X87436285Y-121026946D01*
X86868000Y-120913907D01*
X86299715Y-121026946D01*
X85817946Y-121348853D01*
X85598000Y-121678026D01*
X85378054Y-121348853D01*
X84896285Y-121026946D01*
X84328000Y-120913907D01*
X83759715Y-121026946D01*
X83277946Y-121348853D01*
X83058000Y-121678026D01*
X82838054Y-121348853D01*
X82356285Y-121026946D01*
X81788000Y-120913907D01*
X81219715Y-121026946D01*
X80737946Y-121348853D01*
X80518000Y-121678026D01*
X80298054Y-121348853D01*
X79816285Y-121026946D01*
X79248000Y-120913907D01*
X78679715Y-121026946D01*
X78197946Y-121348853D01*
X77978000Y-121678026D01*
X77758054Y-121348853D01*
X77276285Y-121026946D01*
X76708000Y-120913907D01*
X76139715Y-121026946D01*
X75657946Y-121348853D01*
X75630150Y-121390452D01*
X75621162Y-121342683D01*
X75482090Y-121126559D01*
X75269890Y-120981569D01*
X75018000Y-120930560D01*
X73318000Y-120930560D01*
X73082683Y-120974838D01*
X72866559Y-121113910D01*
X72721569Y-121326110D01*
X72670560Y-121578000D01*
X72670560Y-123278000D01*
X72714838Y-123513317D01*
X72853910Y-123729441D01*
X73066110Y-123874431D01*
X73318000Y-123925440D01*
X75018000Y-123925440D01*
X75253317Y-123881162D01*
X75469441Y-123742090D01*
X75614431Y-123529890D01*
X75628086Y-123462459D01*
X75657946Y-123507147D01*
X76139715Y-123829054D01*
X76708000Y-123942093D01*
X77276285Y-123829054D01*
X77758054Y-123507147D01*
X77978000Y-123177974D01*
X78197946Y-123507147D01*
X78679715Y-123829054D01*
X79248000Y-123942093D01*
X79816285Y-123829054D01*
X80298054Y-123507147D01*
X80518000Y-123177974D01*
X80737946Y-123507147D01*
X81219715Y-123829054D01*
X81788000Y-123942093D01*
X82356285Y-123829054D01*
X82838054Y-123507147D01*
X83058000Y-123177974D01*
X83277946Y-123507147D01*
X83759715Y-123829054D01*
X84328000Y-123942093D01*
X84896285Y-123829054D01*
X85378054Y-123507147D01*
X85598000Y-123177974D01*
X85817946Y-123507147D01*
X86299715Y-123829054D01*
X86868000Y-123942093D01*
X87436285Y-123829054D01*
X87918054Y-123507147D01*
X88138000Y-123177974D01*
X88357946Y-123507147D01*
X88839715Y-123829054D01*
X89408000Y-123942093D01*
X89976285Y-123829054D01*
X90458054Y-123507147D01*
X90678000Y-123177974D01*
X90897946Y-123507147D01*
X91379715Y-123829054D01*
X91948000Y-123942093D01*
X92516285Y-123829054D01*
X92998054Y-123507147D01*
X93319961Y-123025378D01*
X93433000Y-122457093D01*
X94527000Y-122457093D01*
X94640039Y-123025378D01*
X94961946Y-123507147D01*
X95443715Y-123829054D01*
X96012000Y-123942093D01*
X96580285Y-123829054D01*
X97062054Y-123507147D01*
X97282000Y-123177974D01*
X97501946Y-123507147D01*
X97983715Y-123829054D01*
X98552000Y-123942093D01*
X99120285Y-123829054D01*
X99602054Y-123507147D01*
X99822000Y-123177974D01*
X100041946Y-123507147D01*
X100523715Y-123829054D01*
X101092000Y-123942093D01*
X101660285Y-123829054D01*
X102142054Y-123507147D01*
X102362000Y-123177974D01*
X102581946Y-123507147D01*
X103063715Y-123829054D01*
X103632000Y-123942093D01*
X104200285Y-123829054D01*
X104682054Y-123507147D01*
X104902000Y-123177974D01*
X105121946Y-123507147D01*
X105603715Y-123829054D01*
X106172000Y-123942093D01*
X106740285Y-123829054D01*
X107222054Y-123507147D01*
X107442000Y-123177974D01*
X107661946Y-123507147D01*
X108143715Y-123829054D01*
X108712000Y-123942093D01*
X109280285Y-123829054D01*
X109762054Y-123507147D01*
X109989702Y-123166447D01*
X110056817Y-123309358D01*
X110485076Y-123699645D01*
X110895110Y-123869476D01*
X111125000Y-123748155D01*
X111379000Y-123748155D01*
X111608890Y-123869476D01*
X112018924Y-123699645D01*
X112447183Y-123309358D01*
X112514298Y-123166447D01*
X112741946Y-123507147D01*
X113223715Y-123829054D01*
X113792000Y-123942093D01*
X114360285Y-123829054D01*
X114842054Y-123507147D01*
X115062000Y-123177974D01*
X115281946Y-123507147D01*
X115763715Y-123829054D01*
X116332000Y-123942093D01*
X116900285Y-123829054D01*
X117382054Y-123507147D01*
X117409850Y-123465548D01*
X117418838Y-123513317D01*
X117557910Y-123729441D01*
X117770110Y-123874431D01*
X118022000Y-123925440D01*
X119722000Y-123925440D01*
X119957317Y-123881162D01*
X120173441Y-123742090D01*
X120318431Y-123529890D01*
X120369440Y-123278000D01*
X120369440Y-121578000D01*
X120325162Y-121342683D01*
X120186090Y-121126559D01*
X119973890Y-120981569D01*
X119722000Y-120930560D01*
X119704992Y-120930560D01*
X123238776Y-117396776D01*
X123409463Y-117141325D01*
X123469400Y-116840000D01*
X123469400Y-102108000D01*
X123409463Y-101806675D01*
X123238776Y-101551224D01*
X100886776Y-79199224D01*
X100631325Y-79028537D01*
X100330000Y-78968600D01*
X95030878Y-78968600D01*
X91981718Y-75919440D01*
X92798000Y-75919440D01*
X93033317Y-75875162D01*
X93249441Y-75736090D01*
X93394431Y-75523890D01*
X93416301Y-75415893D01*
X93721076Y-75693645D01*
X94131110Y-75863476D01*
X94361000Y-75742155D01*
X94361000Y-74549000D01*
X94341000Y-74549000D01*
X94341000Y-74295000D01*
X94361000Y-74295000D01*
X94361000Y-73101845D01*
X94131110Y-72980524D01*
X93721076Y-73150355D01*
X93418063Y-73426501D01*
X93401162Y-73336683D01*
X93262090Y-73120559D01*
X93049890Y-72975569D01*
X92798000Y-72924560D01*
X91098000Y-72924560D01*
X90862683Y-72968838D01*
X90646559Y-73107910D01*
X90501569Y-73320110D01*
X90450560Y-73572000D01*
X90450560Y-74388282D01*
X88654278Y-72592000D01*
X115776714Y-72592000D01*
X115776714Y-74451093D01*
X111213000Y-74451093D01*
X111213000Y-74392907D01*
X111099961Y-73824622D01*
X110778054Y-73342853D01*
X110296285Y-73020946D01*
X109728000Y-72907907D01*
X109159715Y-73020946D01*
X108677946Y-73342853D01*
X108458000Y-73672026D01*
X108238054Y-73342853D01*
X107756285Y-73020946D01*
X107188000Y-72907907D01*
X106619715Y-73020946D01*
X106137946Y-73342853D01*
X105918000Y-73672026D01*
X105698054Y-73342853D01*
X105216285Y-73020946D01*
X104648000Y-72907907D01*
X104079715Y-73020946D01*
X103597946Y-73342853D01*
X103378000Y-73672026D01*
X103158054Y-73342853D01*
X102676285Y-73020946D01*
X102108000Y-72907907D01*
X101539715Y-73020946D01*
X101057946Y-73342853D01*
X100838000Y-73672026D01*
X100618054Y-73342853D01*
X100136285Y-73020946D01*
X99568000Y-72907907D01*
X98999715Y-73020946D01*
X98517946Y-73342853D01*
X98290298Y-73683553D01*
X98223183Y-73540642D01*
X97794924Y-73150355D01*
X97384890Y-72980524D01*
X97155000Y-73101845D01*
X97155000Y-74295000D01*
X96901000Y-74295000D01*
X96901000Y-73101845D01*
X96671110Y-72980524D01*
X96261076Y-73150355D01*
X95832817Y-73540642D01*
X95758000Y-73699954D01*
X95683183Y-73540642D01*
X95254924Y-73150355D01*
X94844890Y-72980524D01*
X94615000Y-73101845D01*
X94615000Y-74295000D01*
X96901000Y-74295000D01*
X97155000Y-74295000D01*
X97175000Y-74295000D01*
X97175000Y-74549000D01*
X97155000Y-74549000D01*
X97155000Y-75742155D01*
X96901000Y-75742155D01*
X96901000Y-74549000D01*
X94615000Y-74549000D01*
X94615000Y-75742155D01*
X94844890Y-75863476D01*
X95254924Y-75693645D01*
X95683183Y-75303358D01*
X95758000Y-75144046D01*
X95832817Y-75303358D01*
X96261076Y-75693645D01*
X96671110Y-75863476D01*
X96901000Y-75742155D01*
X97155000Y-75742155D01*
X97384890Y-75863476D01*
X97794924Y-75693645D01*
X98223183Y-75303358D01*
X98290298Y-75160447D01*
X98517946Y-75501147D01*
X98999715Y-75823054D01*
X99568000Y-75936093D01*
X100136285Y-75823054D01*
X100618054Y-75501147D01*
X100838000Y-75171974D01*
X101057946Y-75501147D01*
X101539715Y-75823054D01*
X102108000Y-75936093D01*
X102676285Y-75823054D01*
X103158054Y-75501147D01*
X103378000Y-75171974D01*
X103597946Y-75501147D01*
X104079715Y-75823054D01*
X104648000Y-75936093D01*
X105216285Y-75823054D01*
X105698054Y-75501147D01*
X105918000Y-75171974D01*
X106137946Y-75501147D01*
X106619715Y-75823054D01*
X107188000Y-75936093D01*
X107756285Y-75823054D01*
X108238054Y-75501147D01*
X108458000Y-75171974D01*
X108677946Y-75501147D01*
X109159715Y-75823054D01*
X109728000Y-75936093D01*
X110296285Y-75823054D01*
X110778054Y-75501147D01*
X111099961Y-75019378D01*
X111213000Y-74451093D01*
X115776714Y-74451093D01*
X115776714Y-75024500D01*
X121583845Y-75024500D01*
X121634053Y-75276915D01*
X122118323Y-76001677D01*
X122843085Y-76485947D01*
X123698000Y-76656000D01*
X124552915Y-76485947D01*
X125274000Y-76004134D01*
X125274000Y-124165908D01*
X125181909Y-124258000D01*
X123887042Y-124258000D01*
X124261677Y-124007677D01*
G36*
X105029000Y-95377000D02*
X105009000Y-95377000D01*
X105009000Y-95123000D01*
X105029000Y-95123000D01*
X105029000Y-95103000D01*
X105283000Y-95103000D01*
X105283000Y-95123000D01*
X105303000Y-95123000D01*
X105303000Y-95377000D01*
X105283000Y-95377000D01*
X105283000Y-95397000D01*
X105029000Y-95397000D01*
X105029000Y-95377000D01*
X105029000Y-95377000D01*
G37*
X105029000Y-95377000D02*
X105009000Y-95377000D01*
X105009000Y-95123000D01*
X105029000Y-95123000D01*
X105029000Y-95103000D01*
X105283000Y-95103000D01*
X105283000Y-95123000D01*
X105303000Y-95123000D01*
X105303000Y-95377000D01*
X105283000Y-95377000D01*
X105283000Y-95397000D01*
X105029000Y-95397000D01*
X105029000Y-95377000D01*
G36*
X105029000Y-97917000D02*
X105009000Y-97917000D01*
X105009000Y-97663000D01*
X105029000Y-97663000D01*
X105029000Y-97643000D01*
X105283000Y-97643000D01*
X105283000Y-97663000D01*
X105303000Y-97663000D01*
X105303000Y-97917000D01*
X105283000Y-97917000D01*
X105283000Y-97937000D01*
X105029000Y-97937000D01*
X105029000Y-97917000D01*
X105029000Y-97917000D01*
G37*
X105029000Y-97917000D02*
X105009000Y-97917000D01*
X105009000Y-97663000D01*
X105029000Y-97663000D01*
X105029000Y-97643000D01*
X105283000Y-97643000D01*
X105283000Y-97663000D01*
X105303000Y-97663000D01*
X105303000Y-97917000D01*
X105283000Y-97917000D01*
X105283000Y-97937000D01*
X105029000Y-97937000D01*
X105029000Y-97917000D01*
G36*
X105029000Y-100457000D02*
X105009000Y-100457000D01*
X105009000Y-100203000D01*
X105029000Y-100203000D01*
X105029000Y-100183000D01*
X105283000Y-100183000D01*
X105283000Y-100203000D01*
X105303000Y-100203000D01*
X105303000Y-100457000D01*
X105283000Y-100457000D01*
X105283000Y-100477000D01*
X105029000Y-100477000D01*
X105029000Y-100457000D01*
X105029000Y-100457000D01*
G37*
X105029000Y-100457000D02*
X105009000Y-100457000D01*
X105009000Y-100203000D01*
X105029000Y-100203000D01*
X105029000Y-100183000D01*
X105283000Y-100183000D01*
X105283000Y-100203000D01*
X105303000Y-100203000D01*
X105303000Y-100457000D01*
X105283000Y-100457000D01*
X105283000Y-100477000D01*
X105029000Y-100477000D01*
X105029000Y-100457000D01*
G36*
X105029000Y-102997000D02*
X105009000Y-102997000D01*
X105009000Y-102743000D01*
X105029000Y-102743000D01*
X105029000Y-102723000D01*
X105283000Y-102723000D01*
X105283000Y-102743000D01*
X105303000Y-102743000D01*
X105303000Y-102997000D01*
X105283000Y-102997000D01*
X105283000Y-103017000D01*
X105029000Y-103017000D01*
X105029000Y-102997000D01*
X105029000Y-102997000D01*
G37*
X105029000Y-102997000D02*
X105009000Y-102997000D01*
X105009000Y-102743000D01*
X105029000Y-102743000D01*
X105029000Y-102723000D01*
X105283000Y-102723000D01*
X105283000Y-102743000D01*
X105303000Y-102743000D01*
X105303000Y-102997000D01*
X105283000Y-102997000D01*
X105283000Y-103017000D01*
X105029000Y-103017000D01*
X105029000Y-102997000D01*
G36*
X105029000Y-105537000D02*
X105009000Y-105537000D01*
X105009000Y-105283000D01*
X105029000Y-105283000D01*
X105029000Y-105263000D01*
X105283000Y-105263000D01*
X105283000Y-105283000D01*
X105303000Y-105283000D01*
X105303000Y-105537000D01*
X105283000Y-105537000D01*
X105283000Y-105557000D01*
X105029000Y-105557000D01*
X105029000Y-105537000D01*
X105029000Y-105537000D01*
G37*
X105029000Y-105537000D02*
X105009000Y-105537000D01*
X105009000Y-105283000D01*
X105029000Y-105283000D01*
X105029000Y-105263000D01*
X105283000Y-105263000D01*
X105283000Y-105283000D01*
X105303000Y-105283000D01*
X105303000Y-105537000D01*
X105283000Y-105537000D01*
X105283000Y-105557000D01*
X105029000Y-105557000D01*
X105029000Y-105537000D01*
G36*
X106215670Y-110670971D02*
X105729489Y-110346115D01*
X105156000Y-110232041D01*
X104810348Y-110300796D01*
X104493575Y-109984023D01*
X104238124Y-109813336D01*
X103936799Y-109753399D01*
X103500951Y-109753399D01*
X103104770Y-109357218D01*
X103218848Y-109334526D01*
X103705029Y-109009670D01*
X103885992Y-108738839D01*
X104267510Y-109156821D01*
X104796973Y-109404968D01*
X105029000Y-109284469D01*
X105029000Y-108077000D01*
X105009000Y-108077000D01*
X105009000Y-107823000D01*
X105029000Y-107823000D01*
X105029000Y-107803000D01*
X105283000Y-107803000D01*
X105283000Y-107823000D01*
X105303000Y-107823000D01*
X105303000Y-108077000D01*
X105283000Y-108077000D01*
X105283000Y-109284469D01*
X105515027Y-109404968D01*
X106044490Y-109156821D01*
X106438688Y-108724947D01*
X106522078Y-108523614D01*
X106908600Y-108910136D01*
X106908600Y-110489046D01*
X106636330Y-110670971D01*
X106426000Y-110985752D01*
X106215670Y-110670971D01*
X106215670Y-110670971D01*
G37*
X106215670Y-110670971D02*
X105729489Y-110346115D01*
X105156000Y-110232041D01*
X104810348Y-110300796D01*
X104493575Y-109984023D01*
X104238124Y-109813336D01*
X103936799Y-109753399D01*
X103500951Y-109753399D01*
X103104770Y-109357218D01*
X103218848Y-109334526D01*
X103705029Y-109009670D01*
X103885992Y-108738839D01*
X104267510Y-109156821D01*
X104796973Y-109404968D01*
X105029000Y-109284469D01*
X105029000Y-108077000D01*
X105009000Y-108077000D01*
X105009000Y-107823000D01*
X105029000Y-107823000D01*
X105029000Y-107803000D01*
X105283000Y-107803000D01*
X105283000Y-107823000D01*
X105303000Y-107823000D01*
X105303000Y-108077000D01*
X105283000Y-108077000D01*
X105283000Y-109284469D01*
X105515027Y-109404968D01*
X106044490Y-109156821D01*
X106438688Y-108724947D01*
X106522078Y-108523614D01*
X106908600Y-108910136D01*
X106908600Y-110489046D01*
X106636330Y-110670971D01*
X106426000Y-110985752D01*
X106215670Y-110670971D01*
M02*
