G04 #@! TF.FileFunction,Profile,NP*
%FSLAX46Y46*%
G04 Gerber Fmt 4.6, Leading zero omitted, Abs format (unit mm)*
G04 Created by KiCad (PCBNEW 4.0.5+dfsg1-4) date Tue Oct 16 22:11:46 2018*
%MOMM*%
%LPD*%
G01*
G04 APERTURE LIST*
%ADD10C,0.100000*%
%ADD11C,0.150000*%
G04 APERTURE END LIST*
D10*
D11*
X73152000Y-79502000D02*
G75*
G03X73152000Y-79502000I-1524000J0D01*
G01*
X69088000Y-108966000D02*
X69088000Y-76962000D01*
X69088000Y-76962000D02*
X71628000Y-73914000D01*
X71628000Y-73914000D02*
X71628000Y-71882000D01*
X71628000Y-71882000D02*
X125476000Y-71882000D01*
X73406000Y-107442000D02*
G75*
G03X73406000Y-107442000I-1778000J0D01*
G01*
X71628000Y-112014000D02*
X69088000Y-108966000D01*
X71628000Y-124968000D02*
X71628000Y-112014000D01*
X125476000Y-124968000D02*
X71628000Y-124968000D01*
X124206000Y-122428000D02*
G75*
G03X124206000Y-122428000I-1524000J0D01*
G01*
X125222000Y-74422000D02*
G75*
G03X125222000Y-74422000I-1524000J0D01*
G01*
X125476000Y-124968000D02*
X125984000Y-124460000D01*
X125476000Y-71882000D02*
X125984000Y-72390000D01*
X126492000Y-124968000D02*
X125984000Y-124460000D01*
X126492000Y-71882000D02*
X125984000Y-72390000D01*
X129794000Y-122428000D02*
G75*
G03X129794000Y-122428000I-1524000J0D01*
G01*
X181864000Y-117348000D02*
G75*
G03X181864000Y-117348000I-1524000J0D01*
G01*
X182118000Y-89408000D02*
G75*
G03X182118000Y-89408000I-1778000J0D01*
G01*
X130810000Y-74422000D02*
G75*
G03X130810000Y-74422000I-1524000J0D01*
G01*
X180340000Y-122936000D02*
X180340000Y-124968000D01*
X182880000Y-119888000D02*
X180340000Y-122936000D01*
X182880000Y-87884000D02*
X182880000Y-119888000D01*
X180340000Y-84836000D02*
X182880000Y-87884000D01*
X180340000Y-71882000D02*
X180340000Y-84836000D01*
X126492000Y-71882000D02*
X180340000Y-71882000D01*
X180340000Y-124968000D02*
X126492000Y-124968000D01*
M02*
