G04 #@! TF.FileFunction,Soldermask,Top*
%FSLAX46Y46*%
G04 Gerber Fmt 4.6, Leading zero omitted, Abs format (unit mm)*
G04 Created by KiCad (PCBNEW 4.0.5+dfsg1-4) date Tue Oct 16 22:11:46 2018*
%MOMM*%
%LPD*%
G01*
G04 APERTURE LIST*
%ADD10C,0.100000*%
%ADD11R,0.901600X0.851600*%
%ADD12R,1.801600X1.801600*%
%ADD13O,1.801600X1.801600*%
%ADD14R,1.828800X1.828800*%
%ADD15O,1.828800X1.828800*%
%ADD16R,0.801600X2.026600*%
%ADD17R,2.026600X0.801600*%
%ADD18C,0.254000*%
G04 APERTURE END LIST*
D10*
D11*
X86880000Y-90170000D03*
X88380000Y-90170000D03*
D12*
X74168000Y-74422000D03*
D13*
X76708000Y-74422000D03*
X79248000Y-74422000D03*
X81788000Y-74422000D03*
X84328000Y-74422000D03*
X86868000Y-74422000D03*
D12*
X91948000Y-74422000D03*
D13*
X94488000Y-74422000D03*
X97028000Y-74422000D03*
X99568000Y-74422000D03*
X102108000Y-74422000D03*
X104648000Y-74422000D03*
X107188000Y-74422000D03*
X109728000Y-74422000D03*
D14*
X120396000Y-111760000D03*
D15*
X120396000Y-114300000D03*
X117856000Y-111760000D03*
X117856000Y-114300000D03*
X115316000Y-111760000D03*
X115316000Y-114300000D03*
X112776000Y-111760000D03*
X112776000Y-114300000D03*
X110236000Y-111760000D03*
X110236000Y-114300000D03*
X107696000Y-111760000D03*
X107696000Y-114300000D03*
X105156000Y-111760000D03*
X105156000Y-114300000D03*
X102616000Y-111760000D03*
X102616000Y-114300000D03*
D12*
X118872000Y-122428000D03*
D13*
X116332000Y-122428000D03*
X113792000Y-122428000D03*
X111252000Y-122428000D03*
X108712000Y-122428000D03*
X106172000Y-122428000D03*
X103632000Y-122428000D03*
X101092000Y-122428000D03*
X98552000Y-122428000D03*
X96012000Y-122428000D03*
D14*
X98806000Y-111760000D03*
D15*
X98806000Y-114300000D03*
X96266000Y-111760000D03*
X96266000Y-114300000D03*
X93726000Y-111760000D03*
X93726000Y-114300000D03*
X91186000Y-111760000D03*
X91186000Y-114300000D03*
X88646000Y-111760000D03*
X88646000Y-114300000D03*
X86106000Y-111760000D03*
X86106000Y-114300000D03*
X83566000Y-111760000D03*
X83566000Y-114300000D03*
X81026000Y-111760000D03*
X81026000Y-114300000D03*
D14*
X102616000Y-90170000D03*
D15*
X105156000Y-90170000D03*
X102616000Y-92710000D03*
X105156000Y-92710000D03*
X102616000Y-95250000D03*
X105156000Y-95250000D03*
X102616000Y-97790000D03*
X105156000Y-97790000D03*
X102616000Y-100330000D03*
X105156000Y-100330000D03*
X102616000Y-102870000D03*
X105156000Y-102870000D03*
X102616000Y-105410000D03*
X105156000Y-105410000D03*
X102616000Y-107950000D03*
X105156000Y-107950000D03*
D16*
X87133500Y-94118500D03*
X85863500Y-94118500D03*
X84593500Y-94118500D03*
X83323500Y-94118500D03*
X88403500Y-94118500D03*
X89673500Y-94118500D03*
X90943500Y-94118500D03*
X92213500Y-94118500D03*
D17*
X82446000Y-96266000D03*
X82446000Y-97536000D03*
X82446000Y-98806000D03*
X82446000Y-100076000D03*
X82446000Y-101346000D03*
X82446000Y-102616000D03*
X82446000Y-103886000D03*
X82446000Y-105156000D03*
D16*
X83323500Y-107303500D03*
X84593500Y-107303500D03*
X85863500Y-107303500D03*
X87133500Y-107303500D03*
X88403500Y-107303500D03*
X89673500Y-107303500D03*
X90943500Y-107303500D03*
X92213500Y-107303500D03*
D17*
X93091000Y-105156000D03*
X93091000Y-103886000D03*
X93091000Y-102616000D03*
X93091000Y-101346000D03*
X93091000Y-100076000D03*
X93091000Y-98806000D03*
X93091000Y-97536000D03*
X93091000Y-96266000D03*
D12*
X74168000Y-122428000D03*
D13*
X76708000Y-122428000D03*
X79248000Y-122428000D03*
X81788000Y-122428000D03*
X84328000Y-122428000D03*
X86868000Y-122428000D03*
X89408000Y-122428000D03*
X91948000Y-122428000D03*
D14*
X153162000Y-85090000D03*
D15*
X153162000Y-82550000D03*
X155702000Y-85090000D03*
X155702000Y-82550000D03*
X158242000Y-85090000D03*
X158242000Y-82550000D03*
X160782000Y-85090000D03*
X160782000Y-82550000D03*
X163322000Y-85090000D03*
X163322000Y-82550000D03*
X165862000Y-85090000D03*
X165862000Y-82550000D03*
X168402000Y-85090000D03*
X168402000Y-82550000D03*
X170942000Y-85090000D03*
X170942000Y-82550000D03*
D12*
X177800000Y-122428000D03*
D13*
X175260000Y-122428000D03*
X172720000Y-122428000D03*
X170180000Y-122428000D03*
X167640000Y-122428000D03*
X165100000Y-122428000D03*
D12*
X177800000Y-74422000D03*
D13*
X175260000Y-74422000D03*
X172720000Y-74422000D03*
X170180000Y-74422000D03*
X167640000Y-74422000D03*
X165100000Y-74422000D03*
X162560000Y-74422000D03*
X160020000Y-74422000D03*
D12*
X160020000Y-122428000D03*
D13*
X157480000Y-122428000D03*
X154940000Y-122428000D03*
X152400000Y-122428000D03*
X149860000Y-122428000D03*
X147320000Y-122428000D03*
X144780000Y-122428000D03*
X142240000Y-122428000D03*
D12*
X133096000Y-74422000D03*
D13*
X135636000Y-74422000D03*
X138176000Y-74422000D03*
X140716000Y-74422000D03*
X143256000Y-74422000D03*
X145796000Y-74422000D03*
X148336000Y-74422000D03*
X150876000Y-74422000D03*
X153416000Y-74422000D03*
X155956000Y-74422000D03*
D16*
X164834500Y-102731500D03*
X166104500Y-102731500D03*
X167374500Y-102731500D03*
X168644500Y-102731500D03*
X163564500Y-102731500D03*
X162294500Y-102731500D03*
X161024500Y-102731500D03*
X159754500Y-102731500D03*
D17*
X169522000Y-100584000D03*
X169522000Y-99314000D03*
X169522000Y-98044000D03*
X169522000Y-96774000D03*
X169522000Y-95504000D03*
X169522000Y-94234000D03*
X169522000Y-92964000D03*
X169522000Y-91694000D03*
D16*
X168644500Y-89546500D03*
X167374500Y-89546500D03*
X166104500Y-89546500D03*
X164834500Y-89546500D03*
X163564500Y-89546500D03*
X162294500Y-89546500D03*
X161024500Y-89546500D03*
X159754500Y-89546500D03*
D17*
X158877000Y-91694000D03*
X158877000Y-92964000D03*
X158877000Y-94234000D03*
X158877000Y-95504000D03*
X158877000Y-96774000D03*
X158877000Y-98044000D03*
X158877000Y-99314000D03*
X158877000Y-100584000D03*
D11*
X165088000Y-106680000D03*
X163588000Y-106680000D03*
D14*
X149352000Y-106680000D03*
D15*
X146812000Y-106680000D03*
X149352000Y-104140000D03*
X146812000Y-104140000D03*
X149352000Y-101600000D03*
X146812000Y-101600000D03*
X149352000Y-99060000D03*
X146812000Y-99060000D03*
X149352000Y-96520000D03*
X146812000Y-96520000D03*
X149352000Y-93980000D03*
X146812000Y-93980000D03*
X149352000Y-91440000D03*
X146812000Y-91440000D03*
X149352000Y-88900000D03*
X146812000Y-88900000D03*
D14*
X131572000Y-85090000D03*
D15*
X131572000Y-82550000D03*
X134112000Y-85090000D03*
X134112000Y-82550000D03*
X136652000Y-85090000D03*
X136652000Y-82550000D03*
X139192000Y-85090000D03*
X139192000Y-82550000D03*
X141732000Y-85090000D03*
X141732000Y-82550000D03*
X144272000Y-85090000D03*
X144272000Y-82550000D03*
X146812000Y-85090000D03*
X146812000Y-82550000D03*
X149352000Y-85090000D03*
X149352000Y-82550000D03*
D18*
G36*
X148463000Y-108077000D02*
X147701000Y-108077000D01*
X147701000Y-87757000D01*
X148463000Y-87757000D01*
X148463000Y-108077000D01*
X148463000Y-108077000D01*
G37*
X148463000Y-108077000D02*
X147701000Y-108077000D01*
X147701000Y-87757000D01*
X148463000Y-87757000D01*
X148463000Y-108077000D01*
G36*
X103505000Y-88773000D02*
X104267000Y-88773000D01*
X104267000Y-109093000D01*
X103505000Y-109093000D01*
X103505000Y-88773000D01*
X103505000Y-88773000D01*
G37*
X103505000Y-88773000D02*
X104267000Y-88773000D01*
X104267000Y-109093000D01*
X103505000Y-109093000D01*
X103505000Y-88773000D01*
M02*
