G04 #@! TF.FileFunction,Legend,Bot*
%FSLAX46Y46*%
G04 Gerber Fmt 4.6, Leading zero omitted, Abs format (unit mm)*
G04 Created by KiCad (PCBNEW 4.0.5+dfsg1-4) date Wed Oct 11 12:15:40 2017*
%MOMM*%
%LPD*%
G01*
G04 APERTURE LIST*
%ADD10C,0.100000*%
%ADD11C,0.150000*%
G04 APERTURE END LIST*
D10*
D11*
X153797000Y-81788000D02*
X153797000Y-86868000D01*
X153797000Y-86868000D02*
X151257000Y-86868000D01*
X151257000Y-86868000D02*
X151257000Y-81788000D01*
X150977000Y-78968000D02*
X150977000Y-80518000D01*
X151257000Y-81788000D02*
X153797000Y-81788000D01*
X154077000Y-80518000D02*
X154077000Y-78968000D01*
X154077000Y-78968000D02*
X150977000Y-78968000D01*
X153797000Y-92964000D02*
X153797000Y-98044000D01*
X153797000Y-98044000D02*
X151257000Y-98044000D01*
X151257000Y-98044000D02*
X151257000Y-92964000D01*
X150977000Y-90144000D02*
X150977000Y-91694000D01*
X151257000Y-92964000D02*
X153797000Y-92964000D01*
X154077000Y-91694000D02*
X154077000Y-90144000D01*
X154077000Y-90144000D02*
X150977000Y-90144000D01*
X157353000Y-95504000D02*
X157353000Y-90424000D01*
X157353000Y-90424000D02*
X159893000Y-90424000D01*
X159893000Y-90424000D02*
X159893000Y-95504000D01*
X160173000Y-98324000D02*
X160173000Y-96774000D01*
X159893000Y-95504000D02*
X157353000Y-95504000D01*
X157073000Y-96774000D02*
X157073000Y-98324000D01*
X157073000Y-98324000D02*
X160173000Y-98324000D01*
X157353000Y-84328000D02*
X157353000Y-79248000D01*
X157353000Y-79248000D02*
X159893000Y-79248000D01*
X159893000Y-79248000D02*
X159893000Y-84328000D01*
X160173000Y-87148000D02*
X160173000Y-85598000D01*
X159893000Y-84328000D02*
X157353000Y-84328000D01*
X157073000Y-85598000D02*
X157073000Y-87148000D01*
X157073000Y-87148000D02*
X160173000Y-87148000D01*
X136017000Y-95504000D02*
X136017000Y-90424000D01*
X136017000Y-90424000D02*
X138557000Y-90424000D01*
X138557000Y-90424000D02*
X138557000Y-95504000D01*
X138837000Y-98324000D02*
X138837000Y-96774000D01*
X138557000Y-95504000D02*
X136017000Y-95504000D01*
X135737000Y-96774000D02*
X135737000Y-98324000D01*
X135737000Y-98324000D02*
X138837000Y-98324000D01*
X136017000Y-84328000D02*
X136017000Y-79248000D01*
X136017000Y-79248000D02*
X138557000Y-79248000D01*
X138557000Y-79248000D02*
X138557000Y-84328000D01*
X138837000Y-87148000D02*
X138837000Y-85598000D01*
X138557000Y-84328000D02*
X136017000Y-84328000D01*
X135737000Y-85598000D02*
X135737000Y-87148000D01*
X135737000Y-87148000D02*
X138837000Y-87148000D01*
X114681000Y-95504000D02*
X114681000Y-90424000D01*
X114681000Y-90424000D02*
X117221000Y-90424000D01*
X117221000Y-90424000D02*
X117221000Y-95504000D01*
X117501000Y-98324000D02*
X117501000Y-96774000D01*
X117221000Y-95504000D02*
X114681000Y-95504000D01*
X114401000Y-96774000D02*
X114401000Y-98324000D01*
X114401000Y-98324000D02*
X117501000Y-98324000D01*
X132461000Y-92964000D02*
X132461000Y-98044000D01*
X132461000Y-98044000D02*
X129921000Y-98044000D01*
X129921000Y-98044000D02*
X129921000Y-92964000D01*
X129641000Y-90144000D02*
X129641000Y-91694000D01*
X129921000Y-92964000D02*
X132461000Y-92964000D01*
X132741000Y-91694000D02*
X132741000Y-90144000D01*
X132741000Y-90144000D02*
X129641000Y-90144000D01*
X114681000Y-84328000D02*
X114681000Y-79248000D01*
X114681000Y-79248000D02*
X117221000Y-79248000D01*
X117221000Y-79248000D02*
X117221000Y-84328000D01*
X117501000Y-87148000D02*
X117501000Y-85598000D01*
X117221000Y-84328000D02*
X114681000Y-84328000D01*
X114401000Y-85598000D02*
X114401000Y-87148000D01*
X114401000Y-87148000D02*
X117501000Y-87148000D01*
X132461000Y-81788000D02*
X132461000Y-86868000D01*
X132461000Y-86868000D02*
X129921000Y-86868000D01*
X129921000Y-86868000D02*
X129921000Y-81788000D01*
X129641000Y-78968000D02*
X129641000Y-80518000D01*
X129921000Y-81788000D02*
X132461000Y-81788000D01*
X132741000Y-80518000D02*
X132741000Y-78968000D01*
X132741000Y-78968000D02*
X129641000Y-78968000D01*
X175133000Y-81788000D02*
X175133000Y-86868000D01*
X175133000Y-86868000D02*
X172593000Y-86868000D01*
X172593000Y-86868000D02*
X172593000Y-81788000D01*
X172313000Y-78968000D02*
X172313000Y-80518000D01*
X172593000Y-81788000D02*
X175133000Y-81788000D01*
X175413000Y-80518000D02*
X175413000Y-78968000D01*
X175413000Y-78968000D02*
X172313000Y-78968000D01*
X178689000Y-84328000D02*
X178689000Y-79248000D01*
X178689000Y-79248000D02*
X181229000Y-79248000D01*
X181229000Y-79248000D02*
X181229000Y-84328000D01*
X181509000Y-87148000D02*
X181509000Y-85598000D01*
X181229000Y-84328000D02*
X178689000Y-84328000D01*
X178409000Y-85598000D02*
X178409000Y-87148000D01*
X178409000Y-87148000D02*
X181509000Y-87148000D01*
X196469000Y-81788000D02*
X196469000Y-86868000D01*
X196469000Y-86868000D02*
X193929000Y-86868000D01*
X193929000Y-86868000D02*
X193929000Y-81788000D01*
X193649000Y-78968000D02*
X193649000Y-80518000D01*
X193929000Y-81788000D02*
X196469000Y-81788000D01*
X196749000Y-80518000D02*
X196749000Y-78968000D01*
X196749000Y-78968000D02*
X193649000Y-78968000D01*
X178689000Y-95504000D02*
X178689000Y-90424000D01*
X178689000Y-90424000D02*
X181229000Y-90424000D01*
X181229000Y-90424000D02*
X181229000Y-95504000D01*
X181509000Y-98324000D02*
X181509000Y-96774000D01*
X181229000Y-95504000D02*
X178689000Y-95504000D01*
X178409000Y-96774000D02*
X178409000Y-98324000D01*
X178409000Y-98324000D02*
X181509000Y-98324000D01*
X196469000Y-92964000D02*
X196469000Y-98044000D01*
X196469000Y-98044000D02*
X193929000Y-98044000D01*
X193929000Y-98044000D02*
X193929000Y-92964000D01*
X193649000Y-90144000D02*
X193649000Y-91694000D01*
X193929000Y-92964000D02*
X196469000Y-92964000D01*
X196749000Y-91694000D02*
X196749000Y-90144000D01*
X196749000Y-90144000D02*
X193649000Y-90144000D01*
X175133000Y-92964000D02*
X175133000Y-98044000D01*
X175133000Y-98044000D02*
X172593000Y-98044000D01*
X172593000Y-98044000D02*
X172593000Y-92964000D01*
X172313000Y-90144000D02*
X172313000Y-91694000D01*
X172593000Y-92964000D02*
X175133000Y-92964000D01*
X175413000Y-91694000D02*
X175413000Y-90144000D01*
X175413000Y-90144000D02*
X172313000Y-90144000D01*
X136017000Y-106680000D02*
X136017000Y-101600000D01*
X136017000Y-101600000D02*
X138557000Y-101600000D01*
X138557000Y-101600000D02*
X138557000Y-106680000D01*
X138837000Y-109500000D02*
X138837000Y-107950000D01*
X138557000Y-106680000D02*
X136017000Y-106680000D01*
X135737000Y-107950000D02*
X135737000Y-109500000D01*
X135737000Y-109500000D02*
X138837000Y-109500000D01*
X114681000Y-106680000D02*
X114681000Y-101600000D01*
X114681000Y-101600000D02*
X117221000Y-101600000D01*
X117221000Y-101600000D02*
X117221000Y-106680000D01*
X117501000Y-109500000D02*
X117501000Y-107950000D01*
X117221000Y-106680000D02*
X114681000Y-106680000D01*
X114401000Y-107950000D02*
X114401000Y-109500000D01*
X114401000Y-109500000D02*
X117501000Y-109500000D01*
X132461000Y-104140000D02*
X132461000Y-109220000D01*
X132461000Y-109220000D02*
X129921000Y-109220000D01*
X129921000Y-109220000D02*
X129921000Y-104140000D01*
X129641000Y-101320000D02*
X129641000Y-102870000D01*
X129921000Y-104140000D02*
X132461000Y-104140000D01*
X132741000Y-102870000D02*
X132741000Y-101320000D01*
X132741000Y-101320000D02*
X129641000Y-101320000D01*
X175133000Y-104140000D02*
X175133000Y-109220000D01*
X175133000Y-109220000D02*
X172593000Y-109220000D01*
X172593000Y-109220000D02*
X172593000Y-104140000D01*
X172313000Y-101320000D02*
X172313000Y-102870000D01*
X172593000Y-104140000D02*
X175133000Y-104140000D01*
X175413000Y-102870000D02*
X175413000Y-101320000D01*
X175413000Y-101320000D02*
X172313000Y-101320000D01*
X153797000Y-104140000D02*
X153797000Y-109220000D01*
X153797000Y-109220000D02*
X151257000Y-109220000D01*
X151257000Y-109220000D02*
X151257000Y-104140000D01*
X150977000Y-101320000D02*
X150977000Y-102870000D01*
X151257000Y-104140000D02*
X153797000Y-104140000D01*
X154077000Y-102870000D02*
X154077000Y-101320000D01*
X154077000Y-101320000D02*
X150977000Y-101320000D01*
X196469000Y-104140000D02*
X196469000Y-109220000D01*
X196469000Y-109220000D02*
X193929000Y-109220000D01*
X193929000Y-109220000D02*
X193929000Y-104140000D01*
X193649000Y-101320000D02*
X193649000Y-102870000D01*
X193929000Y-104140000D02*
X196469000Y-104140000D01*
X196749000Y-102870000D02*
X196749000Y-101320000D01*
X196749000Y-101320000D02*
X193649000Y-101320000D01*
X178689000Y-106680000D02*
X178689000Y-101600000D01*
X178689000Y-101600000D02*
X181229000Y-101600000D01*
X181229000Y-101600000D02*
X181229000Y-106680000D01*
X181509000Y-109500000D02*
X181509000Y-107950000D01*
X181229000Y-106680000D02*
X178689000Y-106680000D01*
X178409000Y-107950000D02*
X178409000Y-109500000D01*
X178409000Y-109500000D02*
X181509000Y-109500000D01*
X157353000Y-106680000D02*
X157353000Y-101600000D01*
X157353000Y-101600000D02*
X159893000Y-101600000D01*
X159893000Y-101600000D02*
X159893000Y-106680000D01*
X160173000Y-109500000D02*
X160173000Y-107950000D01*
X159893000Y-106680000D02*
X157353000Y-106680000D01*
X157073000Y-107950000D02*
X157073000Y-109500000D01*
X157073000Y-109500000D02*
X160173000Y-109500000D01*
X157353000Y-117856000D02*
X157353000Y-112776000D01*
X157353000Y-112776000D02*
X159893000Y-112776000D01*
X159893000Y-112776000D02*
X159893000Y-117856000D01*
X160173000Y-120676000D02*
X160173000Y-119126000D01*
X159893000Y-117856000D02*
X157353000Y-117856000D01*
X157073000Y-119126000D02*
X157073000Y-120676000D01*
X157073000Y-120676000D02*
X160173000Y-120676000D01*
X114681000Y-117856000D02*
X114681000Y-112776000D01*
X114681000Y-112776000D02*
X117221000Y-112776000D01*
X117221000Y-112776000D02*
X117221000Y-117856000D01*
X117501000Y-120676000D02*
X117501000Y-119126000D01*
X117221000Y-117856000D02*
X114681000Y-117856000D01*
X114401000Y-119126000D02*
X114401000Y-120676000D01*
X114401000Y-120676000D02*
X117501000Y-120676000D01*
X153797000Y-115316000D02*
X153797000Y-120396000D01*
X153797000Y-120396000D02*
X151257000Y-120396000D01*
X151257000Y-120396000D02*
X151257000Y-115316000D01*
X150977000Y-112496000D02*
X150977000Y-114046000D01*
X151257000Y-115316000D02*
X153797000Y-115316000D01*
X154077000Y-114046000D02*
X154077000Y-112496000D01*
X154077000Y-112496000D02*
X150977000Y-112496000D01*
X132461000Y-115316000D02*
X132461000Y-120396000D01*
X132461000Y-120396000D02*
X129921000Y-120396000D01*
X129921000Y-120396000D02*
X129921000Y-115316000D01*
X129641000Y-112496000D02*
X129641000Y-114046000D01*
X129921000Y-115316000D02*
X132461000Y-115316000D01*
X132741000Y-114046000D02*
X132741000Y-112496000D01*
X132741000Y-112496000D02*
X129641000Y-112496000D01*
X175133000Y-115316000D02*
X175133000Y-120396000D01*
X175133000Y-120396000D02*
X172593000Y-120396000D01*
X172593000Y-120396000D02*
X172593000Y-115316000D01*
X172313000Y-112496000D02*
X172313000Y-114046000D01*
X172593000Y-115316000D02*
X175133000Y-115316000D01*
X175413000Y-114046000D02*
X175413000Y-112496000D01*
X175413000Y-112496000D02*
X172313000Y-112496000D01*
X196469000Y-115316000D02*
X196469000Y-120396000D01*
X196469000Y-120396000D02*
X193929000Y-120396000D01*
X193929000Y-120396000D02*
X193929000Y-115316000D01*
X193649000Y-112496000D02*
X193649000Y-114046000D01*
X193929000Y-115316000D02*
X196469000Y-115316000D01*
X196749000Y-114046000D02*
X196749000Y-112496000D01*
X196749000Y-112496000D02*
X193649000Y-112496000D01*
X178689000Y-117856000D02*
X178689000Y-112776000D01*
X178689000Y-112776000D02*
X181229000Y-112776000D01*
X181229000Y-112776000D02*
X181229000Y-117856000D01*
X181509000Y-120676000D02*
X181509000Y-119126000D01*
X181229000Y-117856000D02*
X178689000Y-117856000D01*
X178409000Y-119126000D02*
X178409000Y-120676000D01*
X178409000Y-120676000D02*
X181509000Y-120676000D01*
X136017000Y-117856000D02*
X136017000Y-112776000D01*
X136017000Y-112776000D02*
X138557000Y-112776000D01*
X138557000Y-112776000D02*
X138557000Y-117856000D01*
X138837000Y-120676000D02*
X138837000Y-119126000D01*
X138557000Y-117856000D02*
X136017000Y-117856000D01*
X135737000Y-119126000D02*
X135737000Y-120676000D01*
X135737000Y-120676000D02*
X138837000Y-120676000D01*
M02*
