G04 #@! TF.FileFunction,Legend,Top*
%FSLAX46Y46*%
G04 Gerber Fmt 4.6, Leading zero omitted, Abs format (unit mm)*
G04 Created by KiCad (PCBNEW 4.0.5+dfsg1-4) date Wed Oct 11 12:15:40 2017*
%MOMM*%
%LPD*%
G01*
G04 APERTURE LIST*
%ADD10C,0.100000*%
%ADD11C,0.150000*%
G04 APERTURE END LIST*
D10*
D11*
X181435572Y-80970381D02*
X181435572Y-79970381D01*
X181768906Y-80684667D01*
X182102239Y-79970381D01*
X182102239Y-80970381D01*
X182578429Y-80970381D02*
X182578429Y-79970381D01*
X183007000Y-80922762D02*
X183149857Y-80970381D01*
X183387953Y-80970381D01*
X183483191Y-80922762D01*
X183530810Y-80875143D01*
X183578429Y-80779905D01*
X183578429Y-80684667D01*
X183530810Y-80589429D01*
X183483191Y-80541810D01*
X183387953Y-80494190D01*
X183197476Y-80446571D01*
X183102238Y-80398952D01*
X183054619Y-80351333D01*
X183007000Y-80256095D01*
X183007000Y-80160857D01*
X183054619Y-80065619D01*
X183102238Y-80018000D01*
X183197476Y-79970381D01*
X183435572Y-79970381D01*
X183578429Y-80018000D01*
X184197476Y-79970381D02*
X184387953Y-79970381D01*
X184483191Y-80018000D01*
X184578429Y-80113238D01*
X184626048Y-80303714D01*
X184626048Y-80637048D01*
X184578429Y-80827524D01*
X184483191Y-80922762D01*
X184387953Y-80970381D01*
X184197476Y-80970381D01*
X184102238Y-80922762D01*
X184007000Y-80827524D01*
X183959381Y-80637048D01*
X183959381Y-80303714D01*
X184007000Y-80113238D01*
X184102238Y-80018000D01*
X184197476Y-79970381D01*
X181975286Y-83462762D02*
X182118143Y-83510381D01*
X182356239Y-83510381D01*
X182451477Y-83462762D01*
X182499096Y-83415143D01*
X182546715Y-83319905D01*
X182546715Y-83224667D01*
X182499096Y-83129429D01*
X182451477Y-83081810D01*
X182356239Y-83034190D01*
X182165762Y-82986571D01*
X182070524Y-82938952D01*
X182022905Y-82891333D01*
X181975286Y-82796095D01*
X181975286Y-82700857D01*
X182022905Y-82605619D01*
X182070524Y-82558000D01*
X182165762Y-82510381D01*
X182403858Y-82510381D01*
X182546715Y-82558000D01*
X183546715Y-83415143D02*
X183499096Y-83462762D01*
X183356239Y-83510381D01*
X183261001Y-83510381D01*
X183118143Y-83462762D01*
X183022905Y-83367524D01*
X182975286Y-83272286D01*
X182927667Y-83081810D01*
X182927667Y-82938952D01*
X182975286Y-82748476D01*
X183022905Y-82653238D01*
X183118143Y-82558000D01*
X183261001Y-82510381D01*
X183356239Y-82510381D01*
X183499096Y-82558000D01*
X183546715Y-82605619D01*
X183975286Y-83510381D02*
X183975286Y-82510381D01*
X184546715Y-83510381D02*
X184118143Y-82938952D01*
X184546715Y-82510381D02*
X183975286Y-83081810D01*
X182713381Y-86050381D02*
X182380047Y-85574190D01*
X182141952Y-86050381D02*
X182141952Y-85050381D01*
X182522905Y-85050381D01*
X182618143Y-85098000D01*
X182665762Y-85145619D01*
X182713381Y-85240857D01*
X182713381Y-85383714D01*
X182665762Y-85478952D01*
X182618143Y-85526571D01*
X182522905Y-85574190D01*
X182141952Y-85574190D01*
X183094333Y-86002762D02*
X183237190Y-86050381D01*
X183475286Y-86050381D01*
X183570524Y-86002762D01*
X183618143Y-85955143D01*
X183665762Y-85859905D01*
X183665762Y-85764667D01*
X183618143Y-85669429D01*
X183570524Y-85621810D01*
X183475286Y-85574190D01*
X183284809Y-85526571D01*
X183189571Y-85478952D01*
X183141952Y-85431333D01*
X183094333Y-85336095D01*
X183094333Y-85240857D01*
X183141952Y-85145619D01*
X183189571Y-85098000D01*
X183284809Y-85050381D01*
X183522905Y-85050381D01*
X183665762Y-85098000D01*
X183951476Y-85050381D02*
X184522905Y-85050381D01*
X184237190Y-86050381D02*
X184237190Y-85050381D01*
X190563667Y-79970381D02*
X190897000Y-80970381D01*
X191230334Y-79970381D01*
X192135096Y-80875143D02*
X192087477Y-80922762D01*
X191944620Y-80970381D01*
X191849382Y-80970381D01*
X191706524Y-80922762D01*
X191611286Y-80827524D01*
X191563667Y-80732286D01*
X191516048Y-80541810D01*
X191516048Y-80398952D01*
X191563667Y-80208476D01*
X191611286Y-80113238D01*
X191706524Y-80018000D01*
X191849382Y-79970381D01*
X191944620Y-79970381D01*
X192087477Y-80018000D01*
X192135096Y-80065619D01*
X193135096Y-80875143D02*
X193087477Y-80922762D01*
X192944620Y-80970381D01*
X192849382Y-80970381D01*
X192706524Y-80922762D01*
X192611286Y-80827524D01*
X192563667Y-80732286D01*
X192516048Y-80541810D01*
X192516048Y-80398952D01*
X192563667Y-80208476D01*
X192611286Y-80113238D01*
X192706524Y-80018000D01*
X192849382Y-79970381D01*
X192944620Y-79970381D01*
X193087477Y-80018000D01*
X193135096Y-80065619D01*
X190579572Y-83510381D02*
X190579572Y-82510381D01*
X190912906Y-83224667D01*
X191246239Y-82510381D01*
X191246239Y-83510381D01*
X191912905Y-82510381D02*
X192103382Y-82510381D01*
X192198620Y-82558000D01*
X192293858Y-82653238D01*
X192341477Y-82843714D01*
X192341477Y-83177048D01*
X192293858Y-83367524D01*
X192198620Y-83462762D01*
X192103382Y-83510381D01*
X191912905Y-83510381D01*
X191817667Y-83462762D01*
X191722429Y-83367524D01*
X191674810Y-83177048D01*
X191674810Y-82843714D01*
X191722429Y-82653238D01*
X191817667Y-82558000D01*
X191912905Y-82510381D01*
X192722429Y-83462762D02*
X192865286Y-83510381D01*
X193103382Y-83510381D01*
X193198620Y-83462762D01*
X193246239Y-83415143D01*
X193293858Y-83319905D01*
X193293858Y-83224667D01*
X193246239Y-83129429D01*
X193198620Y-83081810D01*
X193103382Y-83034190D01*
X192912905Y-82986571D01*
X192817667Y-82938952D01*
X192770048Y-82891333D01*
X192722429Y-82796095D01*
X192722429Y-82700857D01*
X192770048Y-82605619D01*
X192817667Y-82558000D01*
X192912905Y-82510381D01*
X193151001Y-82510381D01*
X193293858Y-82558000D01*
X193722429Y-83510381D02*
X193722429Y-82510381D01*
X190563667Y-91146381D02*
X190897000Y-92146381D01*
X191230334Y-91146381D01*
X192135096Y-92051143D02*
X192087477Y-92098762D01*
X191944620Y-92146381D01*
X191849382Y-92146381D01*
X191706524Y-92098762D01*
X191611286Y-92003524D01*
X191563667Y-91908286D01*
X191516048Y-91717810D01*
X191516048Y-91574952D01*
X191563667Y-91384476D01*
X191611286Y-91289238D01*
X191706524Y-91194000D01*
X191849382Y-91146381D01*
X191944620Y-91146381D01*
X192087477Y-91194000D01*
X192135096Y-91241619D01*
X193135096Y-92051143D02*
X193087477Y-92098762D01*
X192944620Y-92146381D01*
X192849382Y-92146381D01*
X192706524Y-92098762D01*
X192611286Y-92003524D01*
X192563667Y-91908286D01*
X192516048Y-91717810D01*
X192516048Y-91574952D01*
X192563667Y-91384476D01*
X192611286Y-91289238D01*
X192706524Y-91194000D01*
X192849382Y-91146381D01*
X192944620Y-91146381D01*
X193087477Y-91194000D01*
X193135096Y-91241619D01*
X191135096Y-96274000D02*
X191039858Y-96226381D01*
X190897001Y-96226381D01*
X190754143Y-96274000D01*
X190658905Y-96369238D01*
X190611286Y-96464476D01*
X190563667Y-96654952D01*
X190563667Y-96797810D01*
X190611286Y-96988286D01*
X190658905Y-97083524D01*
X190754143Y-97178762D01*
X190897001Y-97226381D01*
X190992239Y-97226381D01*
X191135096Y-97178762D01*
X191182715Y-97131143D01*
X191182715Y-96797810D01*
X190992239Y-96797810D01*
X191611286Y-97226381D02*
X191611286Y-96226381D01*
X192182715Y-97226381D01*
X192182715Y-96226381D01*
X192658905Y-97226381D02*
X192658905Y-96226381D01*
X192897000Y-96226381D01*
X193039858Y-96274000D01*
X193135096Y-96369238D01*
X193182715Y-96464476D01*
X193230334Y-96654952D01*
X193230334Y-96797810D01*
X193182715Y-96988286D01*
X193135096Y-97083524D01*
X193039858Y-97178762D01*
X192897000Y-97226381D01*
X192658905Y-97226381D01*
X191135096Y-85098000D02*
X191039858Y-85050381D01*
X190897001Y-85050381D01*
X190754143Y-85098000D01*
X190658905Y-85193238D01*
X190611286Y-85288476D01*
X190563667Y-85478952D01*
X190563667Y-85621810D01*
X190611286Y-85812286D01*
X190658905Y-85907524D01*
X190754143Y-86002762D01*
X190897001Y-86050381D01*
X190992239Y-86050381D01*
X191135096Y-86002762D01*
X191182715Y-85955143D01*
X191182715Y-85621810D01*
X190992239Y-85621810D01*
X191611286Y-86050381D02*
X191611286Y-85050381D01*
X192182715Y-86050381D01*
X192182715Y-85050381D01*
X192658905Y-86050381D02*
X192658905Y-85050381D01*
X192897000Y-85050381D01*
X193039858Y-85098000D01*
X193135096Y-85193238D01*
X193182715Y-85288476D01*
X193230334Y-85478952D01*
X193230334Y-85621810D01*
X193182715Y-85812286D01*
X193135096Y-85907524D01*
X193039858Y-86002762D01*
X192897000Y-86050381D01*
X192658905Y-86050381D01*
X190579572Y-94686381D02*
X190579572Y-93686381D01*
X190912906Y-94400667D01*
X191246239Y-93686381D01*
X191246239Y-94686381D01*
X191912905Y-93686381D02*
X192103382Y-93686381D01*
X192198620Y-93734000D01*
X192293858Y-93829238D01*
X192341477Y-94019714D01*
X192341477Y-94353048D01*
X192293858Y-94543524D01*
X192198620Y-94638762D01*
X192103382Y-94686381D01*
X191912905Y-94686381D01*
X191817667Y-94638762D01*
X191722429Y-94543524D01*
X191674810Y-94353048D01*
X191674810Y-94019714D01*
X191722429Y-93829238D01*
X191817667Y-93734000D01*
X191912905Y-93686381D01*
X192722429Y-94638762D02*
X192865286Y-94686381D01*
X193103382Y-94686381D01*
X193198620Y-94638762D01*
X193246239Y-94591143D01*
X193293858Y-94495905D01*
X193293858Y-94400667D01*
X193246239Y-94305429D01*
X193198620Y-94257810D01*
X193103382Y-94210190D01*
X192912905Y-94162571D01*
X192817667Y-94114952D01*
X192770048Y-94067333D01*
X192722429Y-93972095D01*
X192722429Y-93876857D01*
X192770048Y-93781619D01*
X192817667Y-93734000D01*
X192912905Y-93686381D01*
X193151001Y-93686381D01*
X193293858Y-93734000D01*
X193722429Y-94686381D02*
X193722429Y-93686381D01*
X181975286Y-94638762D02*
X182118143Y-94686381D01*
X182356239Y-94686381D01*
X182451477Y-94638762D01*
X182499096Y-94591143D01*
X182546715Y-94495905D01*
X182546715Y-94400667D01*
X182499096Y-94305429D01*
X182451477Y-94257810D01*
X182356239Y-94210190D01*
X182165762Y-94162571D01*
X182070524Y-94114952D01*
X182022905Y-94067333D01*
X181975286Y-93972095D01*
X181975286Y-93876857D01*
X182022905Y-93781619D01*
X182070524Y-93734000D01*
X182165762Y-93686381D01*
X182403858Y-93686381D01*
X182546715Y-93734000D01*
X183546715Y-94591143D02*
X183499096Y-94638762D01*
X183356239Y-94686381D01*
X183261001Y-94686381D01*
X183118143Y-94638762D01*
X183022905Y-94543524D01*
X182975286Y-94448286D01*
X182927667Y-94257810D01*
X182927667Y-94114952D01*
X182975286Y-93924476D01*
X183022905Y-93829238D01*
X183118143Y-93734000D01*
X183261001Y-93686381D01*
X183356239Y-93686381D01*
X183499096Y-93734000D01*
X183546715Y-93781619D01*
X183975286Y-94686381D02*
X183975286Y-93686381D01*
X184546715Y-94686381D02*
X184118143Y-94114952D01*
X184546715Y-93686381D02*
X183975286Y-94257810D01*
X182713381Y-97226381D02*
X182380047Y-96750190D01*
X182141952Y-97226381D02*
X182141952Y-96226381D01*
X182522905Y-96226381D01*
X182618143Y-96274000D01*
X182665762Y-96321619D01*
X182713381Y-96416857D01*
X182713381Y-96559714D01*
X182665762Y-96654952D01*
X182618143Y-96702571D01*
X182522905Y-96750190D01*
X182141952Y-96750190D01*
X183094333Y-97178762D02*
X183237190Y-97226381D01*
X183475286Y-97226381D01*
X183570524Y-97178762D01*
X183618143Y-97131143D01*
X183665762Y-97035905D01*
X183665762Y-96940667D01*
X183618143Y-96845429D01*
X183570524Y-96797810D01*
X183475286Y-96750190D01*
X183284809Y-96702571D01*
X183189571Y-96654952D01*
X183141952Y-96607333D01*
X183094333Y-96512095D01*
X183094333Y-96416857D01*
X183141952Y-96321619D01*
X183189571Y-96274000D01*
X183284809Y-96226381D01*
X183522905Y-96226381D01*
X183665762Y-96274000D01*
X183951476Y-96226381D02*
X184522905Y-96226381D01*
X184237190Y-97226381D02*
X184237190Y-96226381D01*
X181435572Y-92146381D02*
X181435572Y-91146381D01*
X181768906Y-91860667D01*
X182102239Y-91146381D01*
X182102239Y-92146381D01*
X182578429Y-92146381D02*
X182578429Y-91146381D01*
X183007000Y-92098762D02*
X183149857Y-92146381D01*
X183387953Y-92146381D01*
X183483191Y-92098762D01*
X183530810Y-92051143D01*
X183578429Y-91955905D01*
X183578429Y-91860667D01*
X183530810Y-91765429D01*
X183483191Y-91717810D01*
X183387953Y-91670190D01*
X183197476Y-91622571D01*
X183102238Y-91574952D01*
X183054619Y-91527333D01*
X183007000Y-91432095D01*
X183007000Y-91336857D01*
X183054619Y-91241619D01*
X183102238Y-91194000D01*
X183197476Y-91146381D01*
X183435572Y-91146381D01*
X183578429Y-91194000D01*
X184197476Y-91146381D02*
X184387953Y-91146381D01*
X184483191Y-91194000D01*
X184578429Y-91289238D01*
X184626048Y-91479714D01*
X184626048Y-91813048D01*
X184578429Y-92003524D01*
X184483191Y-92098762D01*
X184387953Y-92146381D01*
X184197476Y-92146381D01*
X184102238Y-92098762D01*
X184007000Y-92003524D01*
X183959381Y-91813048D01*
X183959381Y-91479714D01*
X184007000Y-91289238D01*
X184102238Y-91194000D01*
X184197476Y-91146381D01*
X118705381Y-97226381D02*
X118372047Y-96750190D01*
X118133952Y-97226381D02*
X118133952Y-96226381D01*
X118514905Y-96226381D01*
X118610143Y-96274000D01*
X118657762Y-96321619D01*
X118705381Y-96416857D01*
X118705381Y-96559714D01*
X118657762Y-96654952D01*
X118610143Y-96702571D01*
X118514905Y-96750190D01*
X118133952Y-96750190D01*
X119086333Y-97178762D02*
X119229190Y-97226381D01*
X119467286Y-97226381D01*
X119562524Y-97178762D01*
X119610143Y-97131143D01*
X119657762Y-97035905D01*
X119657762Y-96940667D01*
X119610143Y-96845429D01*
X119562524Y-96797810D01*
X119467286Y-96750190D01*
X119276809Y-96702571D01*
X119181571Y-96654952D01*
X119133952Y-96607333D01*
X119086333Y-96512095D01*
X119086333Y-96416857D01*
X119133952Y-96321619D01*
X119181571Y-96274000D01*
X119276809Y-96226381D01*
X119514905Y-96226381D01*
X119657762Y-96274000D01*
X119943476Y-96226381D02*
X120514905Y-96226381D01*
X120229190Y-97226381D02*
X120229190Y-96226381D01*
X117967286Y-94638762D02*
X118110143Y-94686381D01*
X118348239Y-94686381D01*
X118443477Y-94638762D01*
X118491096Y-94591143D01*
X118538715Y-94495905D01*
X118538715Y-94400667D01*
X118491096Y-94305429D01*
X118443477Y-94257810D01*
X118348239Y-94210190D01*
X118157762Y-94162571D01*
X118062524Y-94114952D01*
X118014905Y-94067333D01*
X117967286Y-93972095D01*
X117967286Y-93876857D01*
X118014905Y-93781619D01*
X118062524Y-93734000D01*
X118157762Y-93686381D01*
X118395858Y-93686381D01*
X118538715Y-93734000D01*
X119538715Y-94591143D02*
X119491096Y-94638762D01*
X119348239Y-94686381D01*
X119253001Y-94686381D01*
X119110143Y-94638762D01*
X119014905Y-94543524D01*
X118967286Y-94448286D01*
X118919667Y-94257810D01*
X118919667Y-94114952D01*
X118967286Y-93924476D01*
X119014905Y-93829238D01*
X119110143Y-93734000D01*
X119253001Y-93686381D01*
X119348239Y-93686381D01*
X119491096Y-93734000D01*
X119538715Y-93781619D01*
X119967286Y-94686381D02*
X119967286Y-93686381D01*
X120538715Y-94686381D02*
X120110143Y-94114952D01*
X120538715Y-93686381D02*
X119967286Y-94257810D01*
X117967286Y-83462762D02*
X118110143Y-83510381D01*
X118348239Y-83510381D01*
X118443477Y-83462762D01*
X118491096Y-83415143D01*
X118538715Y-83319905D01*
X118538715Y-83224667D01*
X118491096Y-83129429D01*
X118443477Y-83081810D01*
X118348239Y-83034190D01*
X118157762Y-82986571D01*
X118062524Y-82938952D01*
X118014905Y-82891333D01*
X117967286Y-82796095D01*
X117967286Y-82700857D01*
X118014905Y-82605619D01*
X118062524Y-82558000D01*
X118157762Y-82510381D01*
X118395858Y-82510381D01*
X118538715Y-82558000D01*
X119538715Y-83415143D02*
X119491096Y-83462762D01*
X119348239Y-83510381D01*
X119253001Y-83510381D01*
X119110143Y-83462762D01*
X119014905Y-83367524D01*
X118967286Y-83272286D01*
X118919667Y-83081810D01*
X118919667Y-82938952D01*
X118967286Y-82748476D01*
X119014905Y-82653238D01*
X119110143Y-82558000D01*
X119253001Y-82510381D01*
X119348239Y-82510381D01*
X119491096Y-82558000D01*
X119538715Y-82605619D01*
X119967286Y-83510381D02*
X119967286Y-82510381D01*
X120538715Y-83510381D02*
X120110143Y-82938952D01*
X120538715Y-82510381D02*
X119967286Y-83081810D01*
X117427572Y-80970381D02*
X117427572Y-79970381D01*
X117760906Y-80684667D01*
X118094239Y-79970381D01*
X118094239Y-80970381D01*
X118570429Y-80970381D02*
X118570429Y-79970381D01*
X118999000Y-80922762D02*
X119141857Y-80970381D01*
X119379953Y-80970381D01*
X119475191Y-80922762D01*
X119522810Y-80875143D01*
X119570429Y-80779905D01*
X119570429Y-80684667D01*
X119522810Y-80589429D01*
X119475191Y-80541810D01*
X119379953Y-80494190D01*
X119189476Y-80446571D01*
X119094238Y-80398952D01*
X119046619Y-80351333D01*
X118999000Y-80256095D01*
X118999000Y-80160857D01*
X119046619Y-80065619D01*
X119094238Y-80018000D01*
X119189476Y-79970381D01*
X119427572Y-79970381D01*
X119570429Y-80018000D01*
X120189476Y-79970381D02*
X120379953Y-79970381D01*
X120475191Y-80018000D01*
X120570429Y-80113238D01*
X120618048Y-80303714D01*
X120618048Y-80637048D01*
X120570429Y-80827524D01*
X120475191Y-80922762D01*
X120379953Y-80970381D01*
X120189476Y-80970381D01*
X120094238Y-80922762D01*
X119999000Y-80827524D01*
X119951381Y-80637048D01*
X119951381Y-80303714D01*
X119999000Y-80113238D01*
X120094238Y-80018000D01*
X120189476Y-79970381D01*
X118705381Y-86050381D02*
X118372047Y-85574190D01*
X118133952Y-86050381D02*
X118133952Y-85050381D01*
X118514905Y-85050381D01*
X118610143Y-85098000D01*
X118657762Y-85145619D01*
X118705381Y-85240857D01*
X118705381Y-85383714D01*
X118657762Y-85478952D01*
X118610143Y-85526571D01*
X118514905Y-85574190D01*
X118133952Y-85574190D01*
X119086333Y-86002762D02*
X119229190Y-86050381D01*
X119467286Y-86050381D01*
X119562524Y-86002762D01*
X119610143Y-85955143D01*
X119657762Y-85859905D01*
X119657762Y-85764667D01*
X119610143Y-85669429D01*
X119562524Y-85621810D01*
X119467286Y-85574190D01*
X119276809Y-85526571D01*
X119181571Y-85478952D01*
X119133952Y-85431333D01*
X119086333Y-85336095D01*
X119086333Y-85240857D01*
X119133952Y-85145619D01*
X119181571Y-85098000D01*
X119276809Y-85050381D01*
X119514905Y-85050381D01*
X119657762Y-85098000D01*
X119943476Y-85050381D02*
X120514905Y-85050381D01*
X120229190Y-86050381D02*
X120229190Y-85050381D01*
X127127096Y-96274000D02*
X127031858Y-96226381D01*
X126889001Y-96226381D01*
X126746143Y-96274000D01*
X126650905Y-96369238D01*
X126603286Y-96464476D01*
X126555667Y-96654952D01*
X126555667Y-96797810D01*
X126603286Y-96988286D01*
X126650905Y-97083524D01*
X126746143Y-97178762D01*
X126889001Y-97226381D01*
X126984239Y-97226381D01*
X127127096Y-97178762D01*
X127174715Y-97131143D01*
X127174715Y-96797810D01*
X126984239Y-96797810D01*
X127603286Y-97226381D02*
X127603286Y-96226381D01*
X128174715Y-97226381D01*
X128174715Y-96226381D01*
X128650905Y-97226381D02*
X128650905Y-96226381D01*
X128889000Y-96226381D01*
X129031858Y-96274000D01*
X129127096Y-96369238D01*
X129174715Y-96464476D01*
X129222334Y-96654952D01*
X129222334Y-96797810D01*
X129174715Y-96988286D01*
X129127096Y-97083524D01*
X129031858Y-97178762D01*
X128889000Y-97226381D01*
X128650905Y-97226381D01*
X126555667Y-91146381D02*
X126889000Y-92146381D01*
X127222334Y-91146381D01*
X128127096Y-92051143D02*
X128079477Y-92098762D01*
X127936620Y-92146381D01*
X127841382Y-92146381D01*
X127698524Y-92098762D01*
X127603286Y-92003524D01*
X127555667Y-91908286D01*
X127508048Y-91717810D01*
X127508048Y-91574952D01*
X127555667Y-91384476D01*
X127603286Y-91289238D01*
X127698524Y-91194000D01*
X127841382Y-91146381D01*
X127936620Y-91146381D01*
X128079477Y-91194000D01*
X128127096Y-91241619D01*
X129127096Y-92051143D02*
X129079477Y-92098762D01*
X128936620Y-92146381D01*
X128841382Y-92146381D01*
X128698524Y-92098762D01*
X128603286Y-92003524D01*
X128555667Y-91908286D01*
X128508048Y-91717810D01*
X128508048Y-91574952D01*
X128555667Y-91384476D01*
X128603286Y-91289238D01*
X128698524Y-91194000D01*
X128841382Y-91146381D01*
X128936620Y-91146381D01*
X129079477Y-91194000D01*
X129127096Y-91241619D01*
X126571572Y-94686381D02*
X126571572Y-93686381D01*
X126904906Y-94400667D01*
X127238239Y-93686381D01*
X127238239Y-94686381D01*
X127904905Y-93686381D02*
X128095382Y-93686381D01*
X128190620Y-93734000D01*
X128285858Y-93829238D01*
X128333477Y-94019714D01*
X128333477Y-94353048D01*
X128285858Y-94543524D01*
X128190620Y-94638762D01*
X128095382Y-94686381D01*
X127904905Y-94686381D01*
X127809667Y-94638762D01*
X127714429Y-94543524D01*
X127666810Y-94353048D01*
X127666810Y-94019714D01*
X127714429Y-93829238D01*
X127809667Y-93734000D01*
X127904905Y-93686381D01*
X128714429Y-94638762D02*
X128857286Y-94686381D01*
X129095382Y-94686381D01*
X129190620Y-94638762D01*
X129238239Y-94591143D01*
X129285858Y-94495905D01*
X129285858Y-94400667D01*
X129238239Y-94305429D01*
X129190620Y-94257810D01*
X129095382Y-94210190D01*
X128904905Y-94162571D01*
X128809667Y-94114952D01*
X128762048Y-94067333D01*
X128714429Y-93972095D01*
X128714429Y-93876857D01*
X128762048Y-93781619D01*
X128809667Y-93734000D01*
X128904905Y-93686381D01*
X129143001Y-93686381D01*
X129285858Y-93734000D01*
X129714429Y-94686381D02*
X129714429Y-93686381D01*
X117427572Y-92146381D02*
X117427572Y-91146381D01*
X117760906Y-91860667D01*
X118094239Y-91146381D01*
X118094239Y-92146381D01*
X118570429Y-92146381D02*
X118570429Y-91146381D01*
X118999000Y-92098762D02*
X119141857Y-92146381D01*
X119379953Y-92146381D01*
X119475191Y-92098762D01*
X119522810Y-92051143D01*
X119570429Y-91955905D01*
X119570429Y-91860667D01*
X119522810Y-91765429D01*
X119475191Y-91717810D01*
X119379953Y-91670190D01*
X119189476Y-91622571D01*
X119094238Y-91574952D01*
X119046619Y-91527333D01*
X118999000Y-91432095D01*
X118999000Y-91336857D01*
X119046619Y-91241619D01*
X119094238Y-91194000D01*
X119189476Y-91146381D01*
X119427572Y-91146381D01*
X119570429Y-91194000D01*
X120189476Y-91146381D02*
X120379953Y-91146381D01*
X120475191Y-91194000D01*
X120570429Y-91289238D01*
X120618048Y-91479714D01*
X120618048Y-91813048D01*
X120570429Y-92003524D01*
X120475191Y-92098762D01*
X120379953Y-92146381D01*
X120189476Y-92146381D01*
X120094238Y-92098762D01*
X119999000Y-92003524D01*
X119951381Y-91813048D01*
X119951381Y-91479714D01*
X119999000Y-91289238D01*
X120094238Y-91194000D01*
X120189476Y-91146381D01*
X127127096Y-85098000D02*
X127031858Y-85050381D01*
X126889001Y-85050381D01*
X126746143Y-85098000D01*
X126650905Y-85193238D01*
X126603286Y-85288476D01*
X126555667Y-85478952D01*
X126555667Y-85621810D01*
X126603286Y-85812286D01*
X126650905Y-85907524D01*
X126746143Y-86002762D01*
X126889001Y-86050381D01*
X126984239Y-86050381D01*
X127127096Y-86002762D01*
X127174715Y-85955143D01*
X127174715Y-85621810D01*
X126984239Y-85621810D01*
X127603286Y-86050381D02*
X127603286Y-85050381D01*
X128174715Y-86050381D01*
X128174715Y-85050381D01*
X128650905Y-86050381D02*
X128650905Y-85050381D01*
X128889000Y-85050381D01*
X129031858Y-85098000D01*
X129127096Y-85193238D01*
X129174715Y-85288476D01*
X129222334Y-85478952D01*
X129222334Y-85621810D01*
X129174715Y-85812286D01*
X129127096Y-85907524D01*
X129031858Y-86002762D01*
X128889000Y-86050381D01*
X128650905Y-86050381D01*
X126571572Y-83510381D02*
X126571572Y-82510381D01*
X126904906Y-83224667D01*
X127238239Y-82510381D01*
X127238239Y-83510381D01*
X127904905Y-82510381D02*
X128095382Y-82510381D01*
X128190620Y-82558000D01*
X128285858Y-82653238D01*
X128333477Y-82843714D01*
X128333477Y-83177048D01*
X128285858Y-83367524D01*
X128190620Y-83462762D01*
X128095382Y-83510381D01*
X127904905Y-83510381D01*
X127809667Y-83462762D01*
X127714429Y-83367524D01*
X127666810Y-83177048D01*
X127666810Y-82843714D01*
X127714429Y-82653238D01*
X127809667Y-82558000D01*
X127904905Y-82510381D01*
X128714429Y-83462762D02*
X128857286Y-83510381D01*
X129095382Y-83510381D01*
X129190620Y-83462762D01*
X129238239Y-83415143D01*
X129285858Y-83319905D01*
X129285858Y-83224667D01*
X129238239Y-83129429D01*
X129190620Y-83081810D01*
X129095382Y-83034190D01*
X128904905Y-82986571D01*
X128809667Y-82938952D01*
X128762048Y-82891333D01*
X128714429Y-82796095D01*
X128714429Y-82700857D01*
X128762048Y-82605619D01*
X128809667Y-82558000D01*
X128904905Y-82510381D01*
X129143001Y-82510381D01*
X129285858Y-82558000D01*
X129714429Y-83510381D02*
X129714429Y-82510381D01*
X126555667Y-79970381D02*
X126889000Y-80970381D01*
X127222334Y-79970381D01*
X128127096Y-80875143D02*
X128079477Y-80922762D01*
X127936620Y-80970381D01*
X127841382Y-80970381D01*
X127698524Y-80922762D01*
X127603286Y-80827524D01*
X127555667Y-80732286D01*
X127508048Y-80541810D01*
X127508048Y-80398952D01*
X127555667Y-80208476D01*
X127603286Y-80113238D01*
X127698524Y-80018000D01*
X127841382Y-79970381D01*
X127936620Y-79970381D01*
X128079477Y-80018000D01*
X128127096Y-80065619D01*
X129127096Y-80875143D02*
X129079477Y-80922762D01*
X128936620Y-80970381D01*
X128841382Y-80970381D01*
X128698524Y-80922762D01*
X128603286Y-80827524D01*
X128555667Y-80732286D01*
X128508048Y-80541810D01*
X128508048Y-80398952D01*
X128555667Y-80208476D01*
X128603286Y-80113238D01*
X128698524Y-80018000D01*
X128841382Y-79970381D01*
X128936620Y-79970381D01*
X129079477Y-80018000D01*
X129127096Y-80065619D01*
X140041381Y-86050381D02*
X139708047Y-85574190D01*
X139469952Y-86050381D02*
X139469952Y-85050381D01*
X139850905Y-85050381D01*
X139946143Y-85098000D01*
X139993762Y-85145619D01*
X140041381Y-85240857D01*
X140041381Y-85383714D01*
X139993762Y-85478952D01*
X139946143Y-85526571D01*
X139850905Y-85574190D01*
X139469952Y-85574190D01*
X140422333Y-86002762D02*
X140565190Y-86050381D01*
X140803286Y-86050381D01*
X140898524Y-86002762D01*
X140946143Y-85955143D01*
X140993762Y-85859905D01*
X140993762Y-85764667D01*
X140946143Y-85669429D01*
X140898524Y-85621810D01*
X140803286Y-85574190D01*
X140612809Y-85526571D01*
X140517571Y-85478952D01*
X140469952Y-85431333D01*
X140422333Y-85336095D01*
X140422333Y-85240857D01*
X140469952Y-85145619D01*
X140517571Y-85098000D01*
X140612809Y-85050381D01*
X140850905Y-85050381D01*
X140993762Y-85098000D01*
X141279476Y-85050381D02*
X141850905Y-85050381D01*
X141565190Y-86050381D02*
X141565190Y-85050381D01*
X139303286Y-83462762D02*
X139446143Y-83510381D01*
X139684239Y-83510381D01*
X139779477Y-83462762D01*
X139827096Y-83415143D01*
X139874715Y-83319905D01*
X139874715Y-83224667D01*
X139827096Y-83129429D01*
X139779477Y-83081810D01*
X139684239Y-83034190D01*
X139493762Y-82986571D01*
X139398524Y-82938952D01*
X139350905Y-82891333D01*
X139303286Y-82796095D01*
X139303286Y-82700857D01*
X139350905Y-82605619D01*
X139398524Y-82558000D01*
X139493762Y-82510381D01*
X139731858Y-82510381D01*
X139874715Y-82558000D01*
X140874715Y-83415143D02*
X140827096Y-83462762D01*
X140684239Y-83510381D01*
X140589001Y-83510381D01*
X140446143Y-83462762D01*
X140350905Y-83367524D01*
X140303286Y-83272286D01*
X140255667Y-83081810D01*
X140255667Y-82938952D01*
X140303286Y-82748476D01*
X140350905Y-82653238D01*
X140446143Y-82558000D01*
X140589001Y-82510381D01*
X140684239Y-82510381D01*
X140827096Y-82558000D01*
X140874715Y-82605619D01*
X141303286Y-83510381D02*
X141303286Y-82510381D01*
X141874715Y-83510381D02*
X141446143Y-82938952D01*
X141874715Y-82510381D02*
X141303286Y-83081810D01*
X138763572Y-80970381D02*
X138763572Y-79970381D01*
X139096906Y-80684667D01*
X139430239Y-79970381D01*
X139430239Y-80970381D01*
X139906429Y-80970381D02*
X139906429Y-79970381D01*
X140335000Y-80922762D02*
X140477857Y-80970381D01*
X140715953Y-80970381D01*
X140811191Y-80922762D01*
X140858810Y-80875143D01*
X140906429Y-80779905D01*
X140906429Y-80684667D01*
X140858810Y-80589429D01*
X140811191Y-80541810D01*
X140715953Y-80494190D01*
X140525476Y-80446571D01*
X140430238Y-80398952D01*
X140382619Y-80351333D01*
X140335000Y-80256095D01*
X140335000Y-80160857D01*
X140382619Y-80065619D01*
X140430238Y-80018000D01*
X140525476Y-79970381D01*
X140763572Y-79970381D01*
X140906429Y-80018000D01*
X141525476Y-79970381D02*
X141715953Y-79970381D01*
X141811191Y-80018000D01*
X141906429Y-80113238D01*
X141954048Y-80303714D01*
X141954048Y-80637048D01*
X141906429Y-80827524D01*
X141811191Y-80922762D01*
X141715953Y-80970381D01*
X141525476Y-80970381D01*
X141430238Y-80922762D01*
X141335000Y-80827524D01*
X141287381Y-80637048D01*
X141287381Y-80303714D01*
X141335000Y-80113238D01*
X141430238Y-80018000D01*
X141525476Y-79970381D01*
X138763572Y-92146381D02*
X138763572Y-91146381D01*
X139096906Y-91860667D01*
X139430239Y-91146381D01*
X139430239Y-92146381D01*
X139906429Y-92146381D02*
X139906429Y-91146381D01*
X140335000Y-92098762D02*
X140477857Y-92146381D01*
X140715953Y-92146381D01*
X140811191Y-92098762D01*
X140858810Y-92051143D01*
X140906429Y-91955905D01*
X140906429Y-91860667D01*
X140858810Y-91765429D01*
X140811191Y-91717810D01*
X140715953Y-91670190D01*
X140525476Y-91622571D01*
X140430238Y-91574952D01*
X140382619Y-91527333D01*
X140335000Y-91432095D01*
X140335000Y-91336857D01*
X140382619Y-91241619D01*
X140430238Y-91194000D01*
X140525476Y-91146381D01*
X140763572Y-91146381D01*
X140906429Y-91194000D01*
X141525476Y-91146381D02*
X141715953Y-91146381D01*
X141811191Y-91194000D01*
X141906429Y-91289238D01*
X141954048Y-91479714D01*
X141954048Y-91813048D01*
X141906429Y-92003524D01*
X141811191Y-92098762D01*
X141715953Y-92146381D01*
X141525476Y-92146381D01*
X141430238Y-92098762D01*
X141335000Y-92003524D01*
X141287381Y-91813048D01*
X141287381Y-91479714D01*
X141335000Y-91289238D01*
X141430238Y-91194000D01*
X141525476Y-91146381D01*
X139303286Y-94638762D02*
X139446143Y-94686381D01*
X139684239Y-94686381D01*
X139779477Y-94638762D01*
X139827096Y-94591143D01*
X139874715Y-94495905D01*
X139874715Y-94400667D01*
X139827096Y-94305429D01*
X139779477Y-94257810D01*
X139684239Y-94210190D01*
X139493762Y-94162571D01*
X139398524Y-94114952D01*
X139350905Y-94067333D01*
X139303286Y-93972095D01*
X139303286Y-93876857D01*
X139350905Y-93781619D01*
X139398524Y-93734000D01*
X139493762Y-93686381D01*
X139731858Y-93686381D01*
X139874715Y-93734000D01*
X140874715Y-94591143D02*
X140827096Y-94638762D01*
X140684239Y-94686381D01*
X140589001Y-94686381D01*
X140446143Y-94638762D01*
X140350905Y-94543524D01*
X140303286Y-94448286D01*
X140255667Y-94257810D01*
X140255667Y-94114952D01*
X140303286Y-93924476D01*
X140350905Y-93829238D01*
X140446143Y-93734000D01*
X140589001Y-93686381D01*
X140684239Y-93686381D01*
X140827096Y-93734000D01*
X140874715Y-93781619D01*
X141303286Y-94686381D02*
X141303286Y-93686381D01*
X141874715Y-94686381D02*
X141446143Y-94114952D01*
X141874715Y-93686381D02*
X141303286Y-94257810D01*
X140041381Y-97226381D02*
X139708047Y-96750190D01*
X139469952Y-97226381D02*
X139469952Y-96226381D01*
X139850905Y-96226381D01*
X139946143Y-96274000D01*
X139993762Y-96321619D01*
X140041381Y-96416857D01*
X140041381Y-96559714D01*
X139993762Y-96654952D01*
X139946143Y-96702571D01*
X139850905Y-96750190D01*
X139469952Y-96750190D01*
X140422333Y-97178762D02*
X140565190Y-97226381D01*
X140803286Y-97226381D01*
X140898524Y-97178762D01*
X140946143Y-97131143D01*
X140993762Y-97035905D01*
X140993762Y-96940667D01*
X140946143Y-96845429D01*
X140898524Y-96797810D01*
X140803286Y-96750190D01*
X140612809Y-96702571D01*
X140517571Y-96654952D01*
X140469952Y-96607333D01*
X140422333Y-96512095D01*
X140422333Y-96416857D01*
X140469952Y-96321619D01*
X140517571Y-96274000D01*
X140612809Y-96226381D01*
X140850905Y-96226381D01*
X140993762Y-96274000D01*
X141279476Y-96226381D02*
X141850905Y-96226381D01*
X141565190Y-97226381D02*
X141565190Y-96226381D01*
X147907572Y-94686381D02*
X147907572Y-93686381D01*
X148240906Y-94400667D01*
X148574239Y-93686381D01*
X148574239Y-94686381D01*
X149240905Y-93686381D02*
X149431382Y-93686381D01*
X149526620Y-93734000D01*
X149621858Y-93829238D01*
X149669477Y-94019714D01*
X149669477Y-94353048D01*
X149621858Y-94543524D01*
X149526620Y-94638762D01*
X149431382Y-94686381D01*
X149240905Y-94686381D01*
X149145667Y-94638762D01*
X149050429Y-94543524D01*
X149002810Y-94353048D01*
X149002810Y-94019714D01*
X149050429Y-93829238D01*
X149145667Y-93734000D01*
X149240905Y-93686381D01*
X150050429Y-94638762D02*
X150193286Y-94686381D01*
X150431382Y-94686381D01*
X150526620Y-94638762D01*
X150574239Y-94591143D01*
X150621858Y-94495905D01*
X150621858Y-94400667D01*
X150574239Y-94305429D01*
X150526620Y-94257810D01*
X150431382Y-94210190D01*
X150240905Y-94162571D01*
X150145667Y-94114952D01*
X150098048Y-94067333D01*
X150050429Y-93972095D01*
X150050429Y-93876857D01*
X150098048Y-93781619D01*
X150145667Y-93734000D01*
X150240905Y-93686381D01*
X150479001Y-93686381D01*
X150621858Y-93734000D01*
X151050429Y-94686381D02*
X151050429Y-93686381D01*
X148463096Y-96274000D02*
X148367858Y-96226381D01*
X148225001Y-96226381D01*
X148082143Y-96274000D01*
X147986905Y-96369238D01*
X147939286Y-96464476D01*
X147891667Y-96654952D01*
X147891667Y-96797810D01*
X147939286Y-96988286D01*
X147986905Y-97083524D01*
X148082143Y-97178762D01*
X148225001Y-97226381D01*
X148320239Y-97226381D01*
X148463096Y-97178762D01*
X148510715Y-97131143D01*
X148510715Y-96797810D01*
X148320239Y-96797810D01*
X148939286Y-97226381D02*
X148939286Y-96226381D01*
X149510715Y-97226381D01*
X149510715Y-96226381D01*
X149986905Y-97226381D02*
X149986905Y-96226381D01*
X150225000Y-96226381D01*
X150367858Y-96274000D01*
X150463096Y-96369238D01*
X150510715Y-96464476D01*
X150558334Y-96654952D01*
X150558334Y-96797810D01*
X150510715Y-96988286D01*
X150463096Y-97083524D01*
X150367858Y-97178762D01*
X150225000Y-97226381D01*
X149986905Y-97226381D01*
X147891667Y-91146381D02*
X148225000Y-92146381D01*
X148558334Y-91146381D01*
X149463096Y-92051143D02*
X149415477Y-92098762D01*
X149272620Y-92146381D01*
X149177382Y-92146381D01*
X149034524Y-92098762D01*
X148939286Y-92003524D01*
X148891667Y-91908286D01*
X148844048Y-91717810D01*
X148844048Y-91574952D01*
X148891667Y-91384476D01*
X148939286Y-91289238D01*
X149034524Y-91194000D01*
X149177382Y-91146381D01*
X149272620Y-91146381D01*
X149415477Y-91194000D01*
X149463096Y-91241619D01*
X150463096Y-92051143D02*
X150415477Y-92098762D01*
X150272620Y-92146381D01*
X150177382Y-92146381D01*
X150034524Y-92098762D01*
X149939286Y-92003524D01*
X149891667Y-91908286D01*
X149844048Y-91717810D01*
X149844048Y-91574952D01*
X149891667Y-91384476D01*
X149939286Y-91289238D01*
X150034524Y-91194000D01*
X150177382Y-91146381D01*
X150272620Y-91146381D01*
X150415477Y-91194000D01*
X150463096Y-91241619D01*
X148463096Y-85098000D02*
X148367858Y-85050381D01*
X148225001Y-85050381D01*
X148082143Y-85098000D01*
X147986905Y-85193238D01*
X147939286Y-85288476D01*
X147891667Y-85478952D01*
X147891667Y-85621810D01*
X147939286Y-85812286D01*
X147986905Y-85907524D01*
X148082143Y-86002762D01*
X148225001Y-86050381D01*
X148320239Y-86050381D01*
X148463096Y-86002762D01*
X148510715Y-85955143D01*
X148510715Y-85621810D01*
X148320239Y-85621810D01*
X148939286Y-86050381D02*
X148939286Y-85050381D01*
X149510715Y-86050381D01*
X149510715Y-85050381D01*
X149986905Y-86050381D02*
X149986905Y-85050381D01*
X150225000Y-85050381D01*
X150367858Y-85098000D01*
X150463096Y-85193238D01*
X150510715Y-85288476D01*
X150558334Y-85478952D01*
X150558334Y-85621810D01*
X150510715Y-85812286D01*
X150463096Y-85907524D01*
X150367858Y-86002762D01*
X150225000Y-86050381D01*
X149986905Y-86050381D01*
X147907572Y-83510381D02*
X147907572Y-82510381D01*
X148240906Y-83224667D01*
X148574239Y-82510381D01*
X148574239Y-83510381D01*
X149240905Y-82510381D02*
X149431382Y-82510381D01*
X149526620Y-82558000D01*
X149621858Y-82653238D01*
X149669477Y-82843714D01*
X149669477Y-83177048D01*
X149621858Y-83367524D01*
X149526620Y-83462762D01*
X149431382Y-83510381D01*
X149240905Y-83510381D01*
X149145667Y-83462762D01*
X149050429Y-83367524D01*
X149002810Y-83177048D01*
X149002810Y-82843714D01*
X149050429Y-82653238D01*
X149145667Y-82558000D01*
X149240905Y-82510381D01*
X150050429Y-83462762D02*
X150193286Y-83510381D01*
X150431382Y-83510381D01*
X150526620Y-83462762D01*
X150574239Y-83415143D01*
X150621858Y-83319905D01*
X150621858Y-83224667D01*
X150574239Y-83129429D01*
X150526620Y-83081810D01*
X150431382Y-83034190D01*
X150240905Y-82986571D01*
X150145667Y-82938952D01*
X150098048Y-82891333D01*
X150050429Y-82796095D01*
X150050429Y-82700857D01*
X150098048Y-82605619D01*
X150145667Y-82558000D01*
X150240905Y-82510381D01*
X150479001Y-82510381D01*
X150621858Y-82558000D01*
X151050429Y-83510381D02*
X151050429Y-82510381D01*
X147891667Y-79970381D02*
X148225000Y-80970381D01*
X148558334Y-79970381D01*
X149463096Y-80875143D02*
X149415477Y-80922762D01*
X149272620Y-80970381D01*
X149177382Y-80970381D01*
X149034524Y-80922762D01*
X148939286Y-80827524D01*
X148891667Y-80732286D01*
X148844048Y-80541810D01*
X148844048Y-80398952D01*
X148891667Y-80208476D01*
X148939286Y-80113238D01*
X149034524Y-80018000D01*
X149177382Y-79970381D01*
X149272620Y-79970381D01*
X149415477Y-80018000D01*
X149463096Y-80065619D01*
X150463096Y-80875143D02*
X150415477Y-80922762D01*
X150272620Y-80970381D01*
X150177382Y-80970381D01*
X150034524Y-80922762D01*
X149939286Y-80827524D01*
X149891667Y-80732286D01*
X149844048Y-80541810D01*
X149844048Y-80398952D01*
X149891667Y-80208476D01*
X149939286Y-80113238D01*
X150034524Y-80018000D01*
X150177382Y-79970381D01*
X150272620Y-79970381D01*
X150415477Y-80018000D01*
X150463096Y-80065619D01*
X160099572Y-92146381D02*
X160099572Y-91146381D01*
X160432906Y-91860667D01*
X160766239Y-91146381D01*
X160766239Y-92146381D01*
X161242429Y-92146381D02*
X161242429Y-91146381D01*
X161671000Y-92098762D02*
X161813857Y-92146381D01*
X162051953Y-92146381D01*
X162147191Y-92098762D01*
X162194810Y-92051143D01*
X162242429Y-91955905D01*
X162242429Y-91860667D01*
X162194810Y-91765429D01*
X162147191Y-91717810D01*
X162051953Y-91670190D01*
X161861476Y-91622571D01*
X161766238Y-91574952D01*
X161718619Y-91527333D01*
X161671000Y-91432095D01*
X161671000Y-91336857D01*
X161718619Y-91241619D01*
X161766238Y-91194000D01*
X161861476Y-91146381D01*
X162099572Y-91146381D01*
X162242429Y-91194000D01*
X162861476Y-91146381D02*
X163051953Y-91146381D01*
X163147191Y-91194000D01*
X163242429Y-91289238D01*
X163290048Y-91479714D01*
X163290048Y-91813048D01*
X163242429Y-92003524D01*
X163147191Y-92098762D01*
X163051953Y-92146381D01*
X162861476Y-92146381D01*
X162766238Y-92098762D01*
X162671000Y-92003524D01*
X162623381Y-91813048D01*
X162623381Y-91479714D01*
X162671000Y-91289238D01*
X162766238Y-91194000D01*
X162861476Y-91146381D01*
X161377381Y-97226381D02*
X161044047Y-96750190D01*
X160805952Y-97226381D02*
X160805952Y-96226381D01*
X161186905Y-96226381D01*
X161282143Y-96274000D01*
X161329762Y-96321619D01*
X161377381Y-96416857D01*
X161377381Y-96559714D01*
X161329762Y-96654952D01*
X161282143Y-96702571D01*
X161186905Y-96750190D01*
X160805952Y-96750190D01*
X161758333Y-97178762D02*
X161901190Y-97226381D01*
X162139286Y-97226381D01*
X162234524Y-97178762D01*
X162282143Y-97131143D01*
X162329762Y-97035905D01*
X162329762Y-96940667D01*
X162282143Y-96845429D01*
X162234524Y-96797810D01*
X162139286Y-96750190D01*
X161948809Y-96702571D01*
X161853571Y-96654952D01*
X161805952Y-96607333D01*
X161758333Y-96512095D01*
X161758333Y-96416857D01*
X161805952Y-96321619D01*
X161853571Y-96274000D01*
X161948809Y-96226381D01*
X162186905Y-96226381D01*
X162329762Y-96274000D01*
X162615476Y-96226381D02*
X163186905Y-96226381D01*
X162901190Y-97226381D02*
X162901190Y-96226381D01*
X160639286Y-94638762D02*
X160782143Y-94686381D01*
X161020239Y-94686381D01*
X161115477Y-94638762D01*
X161163096Y-94591143D01*
X161210715Y-94495905D01*
X161210715Y-94400667D01*
X161163096Y-94305429D01*
X161115477Y-94257810D01*
X161020239Y-94210190D01*
X160829762Y-94162571D01*
X160734524Y-94114952D01*
X160686905Y-94067333D01*
X160639286Y-93972095D01*
X160639286Y-93876857D01*
X160686905Y-93781619D01*
X160734524Y-93734000D01*
X160829762Y-93686381D01*
X161067858Y-93686381D01*
X161210715Y-93734000D01*
X162210715Y-94591143D02*
X162163096Y-94638762D01*
X162020239Y-94686381D01*
X161925001Y-94686381D01*
X161782143Y-94638762D01*
X161686905Y-94543524D01*
X161639286Y-94448286D01*
X161591667Y-94257810D01*
X161591667Y-94114952D01*
X161639286Y-93924476D01*
X161686905Y-93829238D01*
X161782143Y-93734000D01*
X161925001Y-93686381D01*
X162020239Y-93686381D01*
X162163096Y-93734000D01*
X162210715Y-93781619D01*
X162639286Y-94686381D02*
X162639286Y-93686381D01*
X163210715Y-94686381D02*
X162782143Y-94114952D01*
X163210715Y-93686381D02*
X162639286Y-94257810D01*
X169799096Y-85098000D02*
X169703858Y-85050381D01*
X169561001Y-85050381D01*
X169418143Y-85098000D01*
X169322905Y-85193238D01*
X169275286Y-85288476D01*
X169227667Y-85478952D01*
X169227667Y-85621810D01*
X169275286Y-85812286D01*
X169322905Y-85907524D01*
X169418143Y-86002762D01*
X169561001Y-86050381D01*
X169656239Y-86050381D01*
X169799096Y-86002762D01*
X169846715Y-85955143D01*
X169846715Y-85621810D01*
X169656239Y-85621810D01*
X170275286Y-86050381D02*
X170275286Y-85050381D01*
X170846715Y-86050381D01*
X170846715Y-85050381D01*
X171322905Y-86050381D02*
X171322905Y-85050381D01*
X171561000Y-85050381D01*
X171703858Y-85098000D01*
X171799096Y-85193238D01*
X171846715Y-85288476D01*
X171894334Y-85478952D01*
X171894334Y-85621810D01*
X171846715Y-85812286D01*
X171799096Y-85907524D01*
X171703858Y-86002762D01*
X171561000Y-86050381D01*
X171322905Y-86050381D01*
X169227667Y-79970381D02*
X169561000Y-80970381D01*
X169894334Y-79970381D01*
X170799096Y-80875143D02*
X170751477Y-80922762D01*
X170608620Y-80970381D01*
X170513382Y-80970381D01*
X170370524Y-80922762D01*
X170275286Y-80827524D01*
X170227667Y-80732286D01*
X170180048Y-80541810D01*
X170180048Y-80398952D01*
X170227667Y-80208476D01*
X170275286Y-80113238D01*
X170370524Y-80018000D01*
X170513382Y-79970381D01*
X170608620Y-79970381D01*
X170751477Y-80018000D01*
X170799096Y-80065619D01*
X171799096Y-80875143D02*
X171751477Y-80922762D01*
X171608620Y-80970381D01*
X171513382Y-80970381D01*
X171370524Y-80922762D01*
X171275286Y-80827524D01*
X171227667Y-80732286D01*
X171180048Y-80541810D01*
X171180048Y-80398952D01*
X171227667Y-80208476D01*
X171275286Y-80113238D01*
X171370524Y-80018000D01*
X171513382Y-79970381D01*
X171608620Y-79970381D01*
X171751477Y-80018000D01*
X171799096Y-80065619D01*
X169243572Y-83510381D02*
X169243572Y-82510381D01*
X169576906Y-83224667D01*
X169910239Y-82510381D01*
X169910239Y-83510381D01*
X170576905Y-82510381D02*
X170767382Y-82510381D01*
X170862620Y-82558000D01*
X170957858Y-82653238D01*
X171005477Y-82843714D01*
X171005477Y-83177048D01*
X170957858Y-83367524D01*
X170862620Y-83462762D01*
X170767382Y-83510381D01*
X170576905Y-83510381D01*
X170481667Y-83462762D01*
X170386429Y-83367524D01*
X170338810Y-83177048D01*
X170338810Y-82843714D01*
X170386429Y-82653238D01*
X170481667Y-82558000D01*
X170576905Y-82510381D01*
X171386429Y-83462762D02*
X171529286Y-83510381D01*
X171767382Y-83510381D01*
X171862620Y-83462762D01*
X171910239Y-83415143D01*
X171957858Y-83319905D01*
X171957858Y-83224667D01*
X171910239Y-83129429D01*
X171862620Y-83081810D01*
X171767382Y-83034190D01*
X171576905Y-82986571D01*
X171481667Y-82938952D01*
X171434048Y-82891333D01*
X171386429Y-82796095D01*
X171386429Y-82700857D01*
X171434048Y-82605619D01*
X171481667Y-82558000D01*
X171576905Y-82510381D01*
X171815001Y-82510381D01*
X171957858Y-82558000D01*
X172386429Y-83510381D02*
X172386429Y-82510381D01*
X169227667Y-91146381D02*
X169561000Y-92146381D01*
X169894334Y-91146381D01*
X170799096Y-92051143D02*
X170751477Y-92098762D01*
X170608620Y-92146381D01*
X170513382Y-92146381D01*
X170370524Y-92098762D01*
X170275286Y-92003524D01*
X170227667Y-91908286D01*
X170180048Y-91717810D01*
X170180048Y-91574952D01*
X170227667Y-91384476D01*
X170275286Y-91289238D01*
X170370524Y-91194000D01*
X170513382Y-91146381D01*
X170608620Y-91146381D01*
X170751477Y-91194000D01*
X170799096Y-91241619D01*
X171799096Y-92051143D02*
X171751477Y-92098762D01*
X171608620Y-92146381D01*
X171513382Y-92146381D01*
X171370524Y-92098762D01*
X171275286Y-92003524D01*
X171227667Y-91908286D01*
X171180048Y-91717810D01*
X171180048Y-91574952D01*
X171227667Y-91384476D01*
X171275286Y-91289238D01*
X171370524Y-91194000D01*
X171513382Y-91146381D01*
X171608620Y-91146381D01*
X171751477Y-91194000D01*
X171799096Y-91241619D01*
X169243572Y-94686381D02*
X169243572Y-93686381D01*
X169576906Y-94400667D01*
X169910239Y-93686381D01*
X169910239Y-94686381D01*
X170576905Y-93686381D02*
X170767382Y-93686381D01*
X170862620Y-93734000D01*
X170957858Y-93829238D01*
X171005477Y-94019714D01*
X171005477Y-94353048D01*
X170957858Y-94543524D01*
X170862620Y-94638762D01*
X170767382Y-94686381D01*
X170576905Y-94686381D01*
X170481667Y-94638762D01*
X170386429Y-94543524D01*
X170338810Y-94353048D01*
X170338810Y-94019714D01*
X170386429Y-93829238D01*
X170481667Y-93734000D01*
X170576905Y-93686381D01*
X171386429Y-94638762D02*
X171529286Y-94686381D01*
X171767382Y-94686381D01*
X171862620Y-94638762D01*
X171910239Y-94591143D01*
X171957858Y-94495905D01*
X171957858Y-94400667D01*
X171910239Y-94305429D01*
X171862620Y-94257810D01*
X171767382Y-94210190D01*
X171576905Y-94162571D01*
X171481667Y-94114952D01*
X171434048Y-94067333D01*
X171386429Y-93972095D01*
X171386429Y-93876857D01*
X171434048Y-93781619D01*
X171481667Y-93734000D01*
X171576905Y-93686381D01*
X171815001Y-93686381D01*
X171957858Y-93734000D01*
X172386429Y-94686381D02*
X172386429Y-93686381D01*
X169799096Y-96274000D02*
X169703858Y-96226381D01*
X169561001Y-96226381D01*
X169418143Y-96274000D01*
X169322905Y-96369238D01*
X169275286Y-96464476D01*
X169227667Y-96654952D01*
X169227667Y-96797810D01*
X169275286Y-96988286D01*
X169322905Y-97083524D01*
X169418143Y-97178762D01*
X169561001Y-97226381D01*
X169656239Y-97226381D01*
X169799096Y-97178762D01*
X169846715Y-97131143D01*
X169846715Y-96797810D01*
X169656239Y-96797810D01*
X170275286Y-97226381D02*
X170275286Y-96226381D01*
X170846715Y-97226381D01*
X170846715Y-96226381D01*
X171322905Y-97226381D02*
X171322905Y-96226381D01*
X171561000Y-96226381D01*
X171703858Y-96274000D01*
X171799096Y-96369238D01*
X171846715Y-96464476D01*
X171894334Y-96654952D01*
X171894334Y-96797810D01*
X171846715Y-96988286D01*
X171799096Y-97083524D01*
X171703858Y-97178762D01*
X171561000Y-97226381D01*
X171322905Y-97226381D01*
X160639286Y-83462762D02*
X160782143Y-83510381D01*
X161020239Y-83510381D01*
X161115477Y-83462762D01*
X161163096Y-83415143D01*
X161210715Y-83319905D01*
X161210715Y-83224667D01*
X161163096Y-83129429D01*
X161115477Y-83081810D01*
X161020239Y-83034190D01*
X160829762Y-82986571D01*
X160734524Y-82938952D01*
X160686905Y-82891333D01*
X160639286Y-82796095D01*
X160639286Y-82700857D01*
X160686905Y-82605619D01*
X160734524Y-82558000D01*
X160829762Y-82510381D01*
X161067858Y-82510381D01*
X161210715Y-82558000D01*
X162210715Y-83415143D02*
X162163096Y-83462762D01*
X162020239Y-83510381D01*
X161925001Y-83510381D01*
X161782143Y-83462762D01*
X161686905Y-83367524D01*
X161639286Y-83272286D01*
X161591667Y-83081810D01*
X161591667Y-82938952D01*
X161639286Y-82748476D01*
X161686905Y-82653238D01*
X161782143Y-82558000D01*
X161925001Y-82510381D01*
X162020239Y-82510381D01*
X162163096Y-82558000D01*
X162210715Y-82605619D01*
X162639286Y-83510381D02*
X162639286Y-82510381D01*
X163210715Y-83510381D02*
X162782143Y-82938952D01*
X163210715Y-82510381D02*
X162639286Y-83081810D01*
X161377381Y-86050381D02*
X161044047Y-85574190D01*
X160805952Y-86050381D02*
X160805952Y-85050381D01*
X161186905Y-85050381D01*
X161282143Y-85098000D01*
X161329762Y-85145619D01*
X161377381Y-85240857D01*
X161377381Y-85383714D01*
X161329762Y-85478952D01*
X161282143Y-85526571D01*
X161186905Y-85574190D01*
X160805952Y-85574190D01*
X161758333Y-86002762D02*
X161901190Y-86050381D01*
X162139286Y-86050381D01*
X162234524Y-86002762D01*
X162282143Y-85955143D01*
X162329762Y-85859905D01*
X162329762Y-85764667D01*
X162282143Y-85669429D01*
X162234524Y-85621810D01*
X162139286Y-85574190D01*
X161948809Y-85526571D01*
X161853571Y-85478952D01*
X161805952Y-85431333D01*
X161758333Y-85336095D01*
X161758333Y-85240857D01*
X161805952Y-85145619D01*
X161853571Y-85098000D01*
X161948809Y-85050381D01*
X162186905Y-85050381D01*
X162329762Y-85098000D01*
X162615476Y-85050381D02*
X163186905Y-85050381D01*
X162901190Y-86050381D02*
X162901190Y-85050381D01*
X160099572Y-80970381D02*
X160099572Y-79970381D01*
X160432906Y-80684667D01*
X160766239Y-79970381D01*
X160766239Y-80970381D01*
X161242429Y-80970381D02*
X161242429Y-79970381D01*
X161671000Y-80922762D02*
X161813857Y-80970381D01*
X162051953Y-80970381D01*
X162147191Y-80922762D01*
X162194810Y-80875143D01*
X162242429Y-80779905D01*
X162242429Y-80684667D01*
X162194810Y-80589429D01*
X162147191Y-80541810D01*
X162051953Y-80494190D01*
X161861476Y-80446571D01*
X161766238Y-80398952D01*
X161718619Y-80351333D01*
X161671000Y-80256095D01*
X161671000Y-80160857D01*
X161718619Y-80065619D01*
X161766238Y-80018000D01*
X161861476Y-79970381D01*
X162099572Y-79970381D01*
X162242429Y-80018000D01*
X162861476Y-79970381D02*
X163051953Y-79970381D01*
X163147191Y-80018000D01*
X163242429Y-80113238D01*
X163290048Y-80303714D01*
X163290048Y-80637048D01*
X163242429Y-80827524D01*
X163147191Y-80922762D01*
X163051953Y-80970381D01*
X162861476Y-80970381D01*
X162766238Y-80922762D01*
X162671000Y-80827524D01*
X162623381Y-80637048D01*
X162623381Y-80303714D01*
X162671000Y-80113238D01*
X162766238Y-80018000D01*
X162861476Y-79970381D01*
X118705381Y-108402381D02*
X118372047Y-107926190D01*
X118133952Y-108402381D02*
X118133952Y-107402381D01*
X118514905Y-107402381D01*
X118610143Y-107450000D01*
X118657762Y-107497619D01*
X118705381Y-107592857D01*
X118705381Y-107735714D01*
X118657762Y-107830952D01*
X118610143Y-107878571D01*
X118514905Y-107926190D01*
X118133952Y-107926190D01*
X119086333Y-108354762D02*
X119229190Y-108402381D01*
X119467286Y-108402381D01*
X119562524Y-108354762D01*
X119610143Y-108307143D01*
X119657762Y-108211905D01*
X119657762Y-108116667D01*
X119610143Y-108021429D01*
X119562524Y-107973810D01*
X119467286Y-107926190D01*
X119276809Y-107878571D01*
X119181571Y-107830952D01*
X119133952Y-107783333D01*
X119086333Y-107688095D01*
X119086333Y-107592857D01*
X119133952Y-107497619D01*
X119181571Y-107450000D01*
X119276809Y-107402381D01*
X119514905Y-107402381D01*
X119657762Y-107450000D01*
X119943476Y-107402381D02*
X120514905Y-107402381D01*
X120229190Y-108402381D02*
X120229190Y-107402381D01*
X117427572Y-103322381D02*
X117427572Y-102322381D01*
X117760906Y-103036667D01*
X118094239Y-102322381D01*
X118094239Y-103322381D01*
X118570429Y-103322381D02*
X118570429Y-102322381D01*
X118999000Y-103274762D02*
X119141857Y-103322381D01*
X119379953Y-103322381D01*
X119475191Y-103274762D01*
X119522810Y-103227143D01*
X119570429Y-103131905D01*
X119570429Y-103036667D01*
X119522810Y-102941429D01*
X119475191Y-102893810D01*
X119379953Y-102846190D01*
X119189476Y-102798571D01*
X119094238Y-102750952D01*
X119046619Y-102703333D01*
X118999000Y-102608095D01*
X118999000Y-102512857D01*
X119046619Y-102417619D01*
X119094238Y-102370000D01*
X119189476Y-102322381D01*
X119427572Y-102322381D01*
X119570429Y-102370000D01*
X120189476Y-102322381D02*
X120379953Y-102322381D01*
X120475191Y-102370000D01*
X120570429Y-102465238D01*
X120618048Y-102655714D01*
X120618048Y-102989048D01*
X120570429Y-103179524D01*
X120475191Y-103274762D01*
X120379953Y-103322381D01*
X120189476Y-103322381D01*
X120094238Y-103274762D01*
X119999000Y-103179524D01*
X119951381Y-102989048D01*
X119951381Y-102655714D01*
X119999000Y-102465238D01*
X120094238Y-102370000D01*
X120189476Y-102322381D01*
X117967286Y-105814762D02*
X118110143Y-105862381D01*
X118348239Y-105862381D01*
X118443477Y-105814762D01*
X118491096Y-105767143D01*
X118538715Y-105671905D01*
X118538715Y-105576667D01*
X118491096Y-105481429D01*
X118443477Y-105433810D01*
X118348239Y-105386190D01*
X118157762Y-105338571D01*
X118062524Y-105290952D01*
X118014905Y-105243333D01*
X117967286Y-105148095D01*
X117967286Y-105052857D01*
X118014905Y-104957619D01*
X118062524Y-104910000D01*
X118157762Y-104862381D01*
X118395858Y-104862381D01*
X118538715Y-104910000D01*
X119538715Y-105767143D02*
X119491096Y-105814762D01*
X119348239Y-105862381D01*
X119253001Y-105862381D01*
X119110143Y-105814762D01*
X119014905Y-105719524D01*
X118967286Y-105624286D01*
X118919667Y-105433810D01*
X118919667Y-105290952D01*
X118967286Y-105100476D01*
X119014905Y-105005238D01*
X119110143Y-104910000D01*
X119253001Y-104862381D01*
X119348239Y-104862381D01*
X119491096Y-104910000D01*
X119538715Y-104957619D01*
X119967286Y-105862381D02*
X119967286Y-104862381D01*
X120538715Y-105862381D02*
X120110143Y-105290952D01*
X120538715Y-104862381D02*
X119967286Y-105433810D01*
X140041381Y-108402381D02*
X139708047Y-107926190D01*
X139469952Y-108402381D02*
X139469952Y-107402381D01*
X139850905Y-107402381D01*
X139946143Y-107450000D01*
X139993762Y-107497619D01*
X140041381Y-107592857D01*
X140041381Y-107735714D01*
X139993762Y-107830952D01*
X139946143Y-107878571D01*
X139850905Y-107926190D01*
X139469952Y-107926190D01*
X140422333Y-108354762D02*
X140565190Y-108402381D01*
X140803286Y-108402381D01*
X140898524Y-108354762D01*
X140946143Y-108307143D01*
X140993762Y-108211905D01*
X140993762Y-108116667D01*
X140946143Y-108021429D01*
X140898524Y-107973810D01*
X140803286Y-107926190D01*
X140612809Y-107878571D01*
X140517571Y-107830952D01*
X140469952Y-107783333D01*
X140422333Y-107688095D01*
X140422333Y-107592857D01*
X140469952Y-107497619D01*
X140517571Y-107450000D01*
X140612809Y-107402381D01*
X140850905Y-107402381D01*
X140993762Y-107450000D01*
X141279476Y-107402381D02*
X141850905Y-107402381D01*
X141565190Y-108402381D02*
X141565190Y-107402381D01*
X138763572Y-103322381D02*
X138763572Y-102322381D01*
X139096906Y-103036667D01*
X139430239Y-102322381D01*
X139430239Y-103322381D01*
X139906429Y-103322381D02*
X139906429Y-102322381D01*
X140335000Y-103274762D02*
X140477857Y-103322381D01*
X140715953Y-103322381D01*
X140811191Y-103274762D01*
X140858810Y-103227143D01*
X140906429Y-103131905D01*
X140906429Y-103036667D01*
X140858810Y-102941429D01*
X140811191Y-102893810D01*
X140715953Y-102846190D01*
X140525476Y-102798571D01*
X140430238Y-102750952D01*
X140382619Y-102703333D01*
X140335000Y-102608095D01*
X140335000Y-102512857D01*
X140382619Y-102417619D01*
X140430238Y-102370000D01*
X140525476Y-102322381D01*
X140763572Y-102322381D01*
X140906429Y-102370000D01*
X141525476Y-102322381D02*
X141715953Y-102322381D01*
X141811191Y-102370000D01*
X141906429Y-102465238D01*
X141954048Y-102655714D01*
X141954048Y-102989048D01*
X141906429Y-103179524D01*
X141811191Y-103274762D01*
X141715953Y-103322381D01*
X141525476Y-103322381D01*
X141430238Y-103274762D01*
X141335000Y-103179524D01*
X141287381Y-102989048D01*
X141287381Y-102655714D01*
X141335000Y-102465238D01*
X141430238Y-102370000D01*
X141525476Y-102322381D01*
X139303286Y-105814762D02*
X139446143Y-105862381D01*
X139684239Y-105862381D01*
X139779477Y-105814762D01*
X139827096Y-105767143D01*
X139874715Y-105671905D01*
X139874715Y-105576667D01*
X139827096Y-105481429D01*
X139779477Y-105433810D01*
X139684239Y-105386190D01*
X139493762Y-105338571D01*
X139398524Y-105290952D01*
X139350905Y-105243333D01*
X139303286Y-105148095D01*
X139303286Y-105052857D01*
X139350905Y-104957619D01*
X139398524Y-104910000D01*
X139493762Y-104862381D01*
X139731858Y-104862381D01*
X139874715Y-104910000D01*
X140874715Y-105767143D02*
X140827096Y-105814762D01*
X140684239Y-105862381D01*
X140589001Y-105862381D01*
X140446143Y-105814762D01*
X140350905Y-105719524D01*
X140303286Y-105624286D01*
X140255667Y-105433810D01*
X140255667Y-105290952D01*
X140303286Y-105100476D01*
X140350905Y-105005238D01*
X140446143Y-104910000D01*
X140589001Y-104862381D01*
X140684239Y-104862381D01*
X140827096Y-104910000D01*
X140874715Y-104957619D01*
X141303286Y-105862381D02*
X141303286Y-104862381D01*
X141874715Y-105862381D02*
X141446143Y-105290952D01*
X141874715Y-104862381D02*
X141303286Y-105433810D01*
X147891667Y-102322381D02*
X148225000Y-103322381D01*
X148558334Y-102322381D01*
X149463096Y-103227143D02*
X149415477Y-103274762D01*
X149272620Y-103322381D01*
X149177382Y-103322381D01*
X149034524Y-103274762D01*
X148939286Y-103179524D01*
X148891667Y-103084286D01*
X148844048Y-102893810D01*
X148844048Y-102750952D01*
X148891667Y-102560476D01*
X148939286Y-102465238D01*
X149034524Y-102370000D01*
X149177382Y-102322381D01*
X149272620Y-102322381D01*
X149415477Y-102370000D01*
X149463096Y-102417619D01*
X150463096Y-103227143D02*
X150415477Y-103274762D01*
X150272620Y-103322381D01*
X150177382Y-103322381D01*
X150034524Y-103274762D01*
X149939286Y-103179524D01*
X149891667Y-103084286D01*
X149844048Y-102893810D01*
X149844048Y-102750952D01*
X149891667Y-102560476D01*
X149939286Y-102465238D01*
X150034524Y-102370000D01*
X150177382Y-102322381D01*
X150272620Y-102322381D01*
X150415477Y-102370000D01*
X150463096Y-102417619D01*
X147907572Y-105862381D02*
X147907572Y-104862381D01*
X148240906Y-105576667D01*
X148574239Y-104862381D01*
X148574239Y-105862381D01*
X149240905Y-104862381D02*
X149431382Y-104862381D01*
X149526620Y-104910000D01*
X149621858Y-105005238D01*
X149669477Y-105195714D01*
X149669477Y-105529048D01*
X149621858Y-105719524D01*
X149526620Y-105814762D01*
X149431382Y-105862381D01*
X149240905Y-105862381D01*
X149145667Y-105814762D01*
X149050429Y-105719524D01*
X149002810Y-105529048D01*
X149002810Y-105195714D01*
X149050429Y-105005238D01*
X149145667Y-104910000D01*
X149240905Y-104862381D01*
X150050429Y-105814762D02*
X150193286Y-105862381D01*
X150431382Y-105862381D01*
X150526620Y-105814762D01*
X150574239Y-105767143D01*
X150621858Y-105671905D01*
X150621858Y-105576667D01*
X150574239Y-105481429D01*
X150526620Y-105433810D01*
X150431382Y-105386190D01*
X150240905Y-105338571D01*
X150145667Y-105290952D01*
X150098048Y-105243333D01*
X150050429Y-105148095D01*
X150050429Y-105052857D01*
X150098048Y-104957619D01*
X150145667Y-104910000D01*
X150240905Y-104862381D01*
X150479001Y-104862381D01*
X150621858Y-104910000D01*
X151050429Y-105862381D02*
X151050429Y-104862381D01*
X148463096Y-107450000D02*
X148367858Y-107402381D01*
X148225001Y-107402381D01*
X148082143Y-107450000D01*
X147986905Y-107545238D01*
X147939286Y-107640476D01*
X147891667Y-107830952D01*
X147891667Y-107973810D01*
X147939286Y-108164286D01*
X147986905Y-108259524D01*
X148082143Y-108354762D01*
X148225001Y-108402381D01*
X148320239Y-108402381D01*
X148463096Y-108354762D01*
X148510715Y-108307143D01*
X148510715Y-107973810D01*
X148320239Y-107973810D01*
X148939286Y-108402381D02*
X148939286Y-107402381D01*
X149510715Y-108402381D01*
X149510715Y-107402381D01*
X149986905Y-108402381D02*
X149986905Y-107402381D01*
X150225000Y-107402381D01*
X150367858Y-107450000D01*
X150463096Y-107545238D01*
X150510715Y-107640476D01*
X150558334Y-107830952D01*
X150558334Y-107973810D01*
X150510715Y-108164286D01*
X150463096Y-108259524D01*
X150367858Y-108354762D01*
X150225000Y-108402381D01*
X149986905Y-108402381D01*
X126555667Y-102322381D02*
X126889000Y-103322381D01*
X127222334Y-102322381D01*
X128127096Y-103227143D02*
X128079477Y-103274762D01*
X127936620Y-103322381D01*
X127841382Y-103322381D01*
X127698524Y-103274762D01*
X127603286Y-103179524D01*
X127555667Y-103084286D01*
X127508048Y-102893810D01*
X127508048Y-102750952D01*
X127555667Y-102560476D01*
X127603286Y-102465238D01*
X127698524Y-102370000D01*
X127841382Y-102322381D01*
X127936620Y-102322381D01*
X128079477Y-102370000D01*
X128127096Y-102417619D01*
X129127096Y-103227143D02*
X129079477Y-103274762D01*
X128936620Y-103322381D01*
X128841382Y-103322381D01*
X128698524Y-103274762D01*
X128603286Y-103179524D01*
X128555667Y-103084286D01*
X128508048Y-102893810D01*
X128508048Y-102750952D01*
X128555667Y-102560476D01*
X128603286Y-102465238D01*
X128698524Y-102370000D01*
X128841382Y-102322381D01*
X128936620Y-102322381D01*
X129079477Y-102370000D01*
X129127096Y-102417619D01*
X126571572Y-105862381D02*
X126571572Y-104862381D01*
X126904906Y-105576667D01*
X127238239Y-104862381D01*
X127238239Y-105862381D01*
X127904905Y-104862381D02*
X128095382Y-104862381D01*
X128190620Y-104910000D01*
X128285858Y-105005238D01*
X128333477Y-105195714D01*
X128333477Y-105529048D01*
X128285858Y-105719524D01*
X128190620Y-105814762D01*
X128095382Y-105862381D01*
X127904905Y-105862381D01*
X127809667Y-105814762D01*
X127714429Y-105719524D01*
X127666810Y-105529048D01*
X127666810Y-105195714D01*
X127714429Y-105005238D01*
X127809667Y-104910000D01*
X127904905Y-104862381D01*
X128714429Y-105814762D02*
X128857286Y-105862381D01*
X129095382Y-105862381D01*
X129190620Y-105814762D01*
X129238239Y-105767143D01*
X129285858Y-105671905D01*
X129285858Y-105576667D01*
X129238239Y-105481429D01*
X129190620Y-105433810D01*
X129095382Y-105386190D01*
X128904905Y-105338571D01*
X128809667Y-105290952D01*
X128762048Y-105243333D01*
X128714429Y-105148095D01*
X128714429Y-105052857D01*
X128762048Y-104957619D01*
X128809667Y-104910000D01*
X128904905Y-104862381D01*
X129143001Y-104862381D01*
X129285858Y-104910000D01*
X129714429Y-105862381D02*
X129714429Y-104862381D01*
X127127096Y-107450000D02*
X127031858Y-107402381D01*
X126889001Y-107402381D01*
X126746143Y-107450000D01*
X126650905Y-107545238D01*
X126603286Y-107640476D01*
X126555667Y-107830952D01*
X126555667Y-107973810D01*
X126603286Y-108164286D01*
X126650905Y-108259524D01*
X126746143Y-108354762D01*
X126889001Y-108402381D01*
X126984239Y-108402381D01*
X127127096Y-108354762D01*
X127174715Y-108307143D01*
X127174715Y-107973810D01*
X126984239Y-107973810D01*
X127603286Y-108402381D02*
X127603286Y-107402381D01*
X128174715Y-108402381D01*
X128174715Y-107402381D01*
X128650905Y-108402381D02*
X128650905Y-107402381D01*
X128889000Y-107402381D01*
X129031858Y-107450000D01*
X129127096Y-107545238D01*
X129174715Y-107640476D01*
X129222334Y-107830952D01*
X129222334Y-107973810D01*
X129174715Y-108164286D01*
X129127096Y-108259524D01*
X129031858Y-108354762D01*
X128889000Y-108402381D01*
X128650905Y-108402381D01*
X169227667Y-102322381D02*
X169561000Y-103322381D01*
X169894334Y-102322381D01*
X170799096Y-103227143D02*
X170751477Y-103274762D01*
X170608620Y-103322381D01*
X170513382Y-103322381D01*
X170370524Y-103274762D01*
X170275286Y-103179524D01*
X170227667Y-103084286D01*
X170180048Y-102893810D01*
X170180048Y-102750952D01*
X170227667Y-102560476D01*
X170275286Y-102465238D01*
X170370524Y-102370000D01*
X170513382Y-102322381D01*
X170608620Y-102322381D01*
X170751477Y-102370000D01*
X170799096Y-102417619D01*
X171799096Y-103227143D02*
X171751477Y-103274762D01*
X171608620Y-103322381D01*
X171513382Y-103322381D01*
X171370524Y-103274762D01*
X171275286Y-103179524D01*
X171227667Y-103084286D01*
X171180048Y-102893810D01*
X171180048Y-102750952D01*
X171227667Y-102560476D01*
X171275286Y-102465238D01*
X171370524Y-102370000D01*
X171513382Y-102322381D01*
X171608620Y-102322381D01*
X171751477Y-102370000D01*
X171799096Y-102417619D01*
X169243572Y-105862381D02*
X169243572Y-104862381D01*
X169576906Y-105576667D01*
X169910239Y-104862381D01*
X169910239Y-105862381D01*
X170576905Y-104862381D02*
X170767382Y-104862381D01*
X170862620Y-104910000D01*
X170957858Y-105005238D01*
X171005477Y-105195714D01*
X171005477Y-105529048D01*
X170957858Y-105719524D01*
X170862620Y-105814762D01*
X170767382Y-105862381D01*
X170576905Y-105862381D01*
X170481667Y-105814762D01*
X170386429Y-105719524D01*
X170338810Y-105529048D01*
X170338810Y-105195714D01*
X170386429Y-105005238D01*
X170481667Y-104910000D01*
X170576905Y-104862381D01*
X171386429Y-105814762D02*
X171529286Y-105862381D01*
X171767382Y-105862381D01*
X171862620Y-105814762D01*
X171910239Y-105767143D01*
X171957858Y-105671905D01*
X171957858Y-105576667D01*
X171910239Y-105481429D01*
X171862620Y-105433810D01*
X171767382Y-105386190D01*
X171576905Y-105338571D01*
X171481667Y-105290952D01*
X171434048Y-105243333D01*
X171386429Y-105148095D01*
X171386429Y-105052857D01*
X171434048Y-104957619D01*
X171481667Y-104910000D01*
X171576905Y-104862381D01*
X171815001Y-104862381D01*
X171957858Y-104910000D01*
X172386429Y-105862381D02*
X172386429Y-104862381D01*
X169799096Y-107450000D02*
X169703858Y-107402381D01*
X169561001Y-107402381D01*
X169418143Y-107450000D01*
X169322905Y-107545238D01*
X169275286Y-107640476D01*
X169227667Y-107830952D01*
X169227667Y-107973810D01*
X169275286Y-108164286D01*
X169322905Y-108259524D01*
X169418143Y-108354762D01*
X169561001Y-108402381D01*
X169656239Y-108402381D01*
X169799096Y-108354762D01*
X169846715Y-108307143D01*
X169846715Y-107973810D01*
X169656239Y-107973810D01*
X170275286Y-108402381D02*
X170275286Y-107402381D01*
X170846715Y-108402381D01*
X170846715Y-107402381D01*
X171322905Y-108402381D02*
X171322905Y-107402381D01*
X171561000Y-107402381D01*
X171703858Y-107450000D01*
X171799096Y-107545238D01*
X171846715Y-107640476D01*
X171894334Y-107830952D01*
X171894334Y-107973810D01*
X171846715Y-108164286D01*
X171799096Y-108259524D01*
X171703858Y-108354762D01*
X171561000Y-108402381D01*
X171322905Y-108402381D01*
X181975286Y-105814762D02*
X182118143Y-105862381D01*
X182356239Y-105862381D01*
X182451477Y-105814762D01*
X182499096Y-105767143D01*
X182546715Y-105671905D01*
X182546715Y-105576667D01*
X182499096Y-105481429D01*
X182451477Y-105433810D01*
X182356239Y-105386190D01*
X182165762Y-105338571D01*
X182070524Y-105290952D01*
X182022905Y-105243333D01*
X181975286Y-105148095D01*
X181975286Y-105052857D01*
X182022905Y-104957619D01*
X182070524Y-104910000D01*
X182165762Y-104862381D01*
X182403858Y-104862381D01*
X182546715Y-104910000D01*
X183546715Y-105767143D02*
X183499096Y-105814762D01*
X183356239Y-105862381D01*
X183261001Y-105862381D01*
X183118143Y-105814762D01*
X183022905Y-105719524D01*
X182975286Y-105624286D01*
X182927667Y-105433810D01*
X182927667Y-105290952D01*
X182975286Y-105100476D01*
X183022905Y-105005238D01*
X183118143Y-104910000D01*
X183261001Y-104862381D01*
X183356239Y-104862381D01*
X183499096Y-104910000D01*
X183546715Y-104957619D01*
X183975286Y-105862381D02*
X183975286Y-104862381D01*
X184546715Y-105862381D02*
X184118143Y-105290952D01*
X184546715Y-104862381D02*
X183975286Y-105433810D01*
X181435572Y-103322381D02*
X181435572Y-102322381D01*
X181768906Y-103036667D01*
X182102239Y-102322381D01*
X182102239Y-103322381D01*
X182578429Y-103322381D02*
X182578429Y-102322381D01*
X183007000Y-103274762D02*
X183149857Y-103322381D01*
X183387953Y-103322381D01*
X183483191Y-103274762D01*
X183530810Y-103227143D01*
X183578429Y-103131905D01*
X183578429Y-103036667D01*
X183530810Y-102941429D01*
X183483191Y-102893810D01*
X183387953Y-102846190D01*
X183197476Y-102798571D01*
X183102238Y-102750952D01*
X183054619Y-102703333D01*
X183007000Y-102608095D01*
X183007000Y-102512857D01*
X183054619Y-102417619D01*
X183102238Y-102370000D01*
X183197476Y-102322381D01*
X183435572Y-102322381D01*
X183578429Y-102370000D01*
X184197476Y-102322381D02*
X184387953Y-102322381D01*
X184483191Y-102370000D01*
X184578429Y-102465238D01*
X184626048Y-102655714D01*
X184626048Y-102989048D01*
X184578429Y-103179524D01*
X184483191Y-103274762D01*
X184387953Y-103322381D01*
X184197476Y-103322381D01*
X184102238Y-103274762D01*
X184007000Y-103179524D01*
X183959381Y-102989048D01*
X183959381Y-102655714D01*
X184007000Y-102465238D01*
X184102238Y-102370000D01*
X184197476Y-102322381D01*
X182713381Y-108402381D02*
X182380047Y-107926190D01*
X182141952Y-108402381D02*
X182141952Y-107402381D01*
X182522905Y-107402381D01*
X182618143Y-107450000D01*
X182665762Y-107497619D01*
X182713381Y-107592857D01*
X182713381Y-107735714D01*
X182665762Y-107830952D01*
X182618143Y-107878571D01*
X182522905Y-107926190D01*
X182141952Y-107926190D01*
X183094333Y-108354762D02*
X183237190Y-108402381D01*
X183475286Y-108402381D01*
X183570524Y-108354762D01*
X183618143Y-108307143D01*
X183665762Y-108211905D01*
X183665762Y-108116667D01*
X183618143Y-108021429D01*
X183570524Y-107973810D01*
X183475286Y-107926190D01*
X183284809Y-107878571D01*
X183189571Y-107830952D01*
X183141952Y-107783333D01*
X183094333Y-107688095D01*
X183094333Y-107592857D01*
X183141952Y-107497619D01*
X183189571Y-107450000D01*
X183284809Y-107402381D01*
X183522905Y-107402381D01*
X183665762Y-107450000D01*
X183951476Y-107402381D02*
X184522905Y-107402381D01*
X184237190Y-108402381D02*
X184237190Y-107402381D01*
X190579572Y-105862381D02*
X190579572Y-104862381D01*
X190912906Y-105576667D01*
X191246239Y-104862381D01*
X191246239Y-105862381D01*
X191912905Y-104862381D02*
X192103382Y-104862381D01*
X192198620Y-104910000D01*
X192293858Y-105005238D01*
X192341477Y-105195714D01*
X192341477Y-105529048D01*
X192293858Y-105719524D01*
X192198620Y-105814762D01*
X192103382Y-105862381D01*
X191912905Y-105862381D01*
X191817667Y-105814762D01*
X191722429Y-105719524D01*
X191674810Y-105529048D01*
X191674810Y-105195714D01*
X191722429Y-105005238D01*
X191817667Y-104910000D01*
X191912905Y-104862381D01*
X192722429Y-105814762D02*
X192865286Y-105862381D01*
X193103382Y-105862381D01*
X193198620Y-105814762D01*
X193246239Y-105767143D01*
X193293858Y-105671905D01*
X193293858Y-105576667D01*
X193246239Y-105481429D01*
X193198620Y-105433810D01*
X193103382Y-105386190D01*
X192912905Y-105338571D01*
X192817667Y-105290952D01*
X192770048Y-105243333D01*
X192722429Y-105148095D01*
X192722429Y-105052857D01*
X192770048Y-104957619D01*
X192817667Y-104910000D01*
X192912905Y-104862381D01*
X193151001Y-104862381D01*
X193293858Y-104910000D01*
X193722429Y-105862381D02*
X193722429Y-104862381D01*
X191135096Y-107450000D02*
X191039858Y-107402381D01*
X190897001Y-107402381D01*
X190754143Y-107450000D01*
X190658905Y-107545238D01*
X190611286Y-107640476D01*
X190563667Y-107830952D01*
X190563667Y-107973810D01*
X190611286Y-108164286D01*
X190658905Y-108259524D01*
X190754143Y-108354762D01*
X190897001Y-108402381D01*
X190992239Y-108402381D01*
X191135096Y-108354762D01*
X191182715Y-108307143D01*
X191182715Y-107973810D01*
X190992239Y-107973810D01*
X191611286Y-108402381D02*
X191611286Y-107402381D01*
X192182715Y-108402381D01*
X192182715Y-107402381D01*
X192658905Y-108402381D02*
X192658905Y-107402381D01*
X192897000Y-107402381D01*
X193039858Y-107450000D01*
X193135096Y-107545238D01*
X193182715Y-107640476D01*
X193230334Y-107830952D01*
X193230334Y-107973810D01*
X193182715Y-108164286D01*
X193135096Y-108259524D01*
X193039858Y-108354762D01*
X192897000Y-108402381D01*
X192658905Y-108402381D01*
X190563667Y-102322381D02*
X190897000Y-103322381D01*
X191230334Y-102322381D01*
X192135096Y-103227143D02*
X192087477Y-103274762D01*
X191944620Y-103322381D01*
X191849382Y-103322381D01*
X191706524Y-103274762D01*
X191611286Y-103179524D01*
X191563667Y-103084286D01*
X191516048Y-102893810D01*
X191516048Y-102750952D01*
X191563667Y-102560476D01*
X191611286Y-102465238D01*
X191706524Y-102370000D01*
X191849382Y-102322381D01*
X191944620Y-102322381D01*
X192087477Y-102370000D01*
X192135096Y-102417619D01*
X193135096Y-103227143D02*
X193087477Y-103274762D01*
X192944620Y-103322381D01*
X192849382Y-103322381D01*
X192706524Y-103274762D01*
X192611286Y-103179524D01*
X192563667Y-103084286D01*
X192516048Y-102893810D01*
X192516048Y-102750952D01*
X192563667Y-102560476D01*
X192611286Y-102465238D01*
X192706524Y-102370000D01*
X192849382Y-102322381D01*
X192944620Y-102322381D01*
X193087477Y-102370000D01*
X193135096Y-102417619D01*
X160639286Y-105814762D02*
X160782143Y-105862381D01*
X161020239Y-105862381D01*
X161115477Y-105814762D01*
X161163096Y-105767143D01*
X161210715Y-105671905D01*
X161210715Y-105576667D01*
X161163096Y-105481429D01*
X161115477Y-105433810D01*
X161020239Y-105386190D01*
X160829762Y-105338571D01*
X160734524Y-105290952D01*
X160686905Y-105243333D01*
X160639286Y-105148095D01*
X160639286Y-105052857D01*
X160686905Y-104957619D01*
X160734524Y-104910000D01*
X160829762Y-104862381D01*
X161067858Y-104862381D01*
X161210715Y-104910000D01*
X162210715Y-105767143D02*
X162163096Y-105814762D01*
X162020239Y-105862381D01*
X161925001Y-105862381D01*
X161782143Y-105814762D01*
X161686905Y-105719524D01*
X161639286Y-105624286D01*
X161591667Y-105433810D01*
X161591667Y-105290952D01*
X161639286Y-105100476D01*
X161686905Y-105005238D01*
X161782143Y-104910000D01*
X161925001Y-104862381D01*
X162020239Y-104862381D01*
X162163096Y-104910000D01*
X162210715Y-104957619D01*
X162639286Y-105862381D02*
X162639286Y-104862381D01*
X163210715Y-105862381D02*
X162782143Y-105290952D01*
X163210715Y-104862381D02*
X162639286Y-105433810D01*
X161377381Y-108402381D02*
X161044047Y-107926190D01*
X160805952Y-108402381D02*
X160805952Y-107402381D01*
X161186905Y-107402381D01*
X161282143Y-107450000D01*
X161329762Y-107497619D01*
X161377381Y-107592857D01*
X161377381Y-107735714D01*
X161329762Y-107830952D01*
X161282143Y-107878571D01*
X161186905Y-107926190D01*
X160805952Y-107926190D01*
X161758333Y-108354762D02*
X161901190Y-108402381D01*
X162139286Y-108402381D01*
X162234524Y-108354762D01*
X162282143Y-108307143D01*
X162329762Y-108211905D01*
X162329762Y-108116667D01*
X162282143Y-108021429D01*
X162234524Y-107973810D01*
X162139286Y-107926190D01*
X161948809Y-107878571D01*
X161853571Y-107830952D01*
X161805952Y-107783333D01*
X161758333Y-107688095D01*
X161758333Y-107592857D01*
X161805952Y-107497619D01*
X161853571Y-107450000D01*
X161948809Y-107402381D01*
X162186905Y-107402381D01*
X162329762Y-107450000D01*
X162615476Y-107402381D02*
X163186905Y-107402381D01*
X162901190Y-108402381D02*
X162901190Y-107402381D01*
X160099572Y-103322381D02*
X160099572Y-102322381D01*
X160432906Y-103036667D01*
X160766239Y-102322381D01*
X160766239Y-103322381D01*
X161242429Y-103322381D02*
X161242429Y-102322381D01*
X161671000Y-103274762D02*
X161813857Y-103322381D01*
X162051953Y-103322381D01*
X162147191Y-103274762D01*
X162194810Y-103227143D01*
X162242429Y-103131905D01*
X162242429Y-103036667D01*
X162194810Y-102941429D01*
X162147191Y-102893810D01*
X162051953Y-102846190D01*
X161861476Y-102798571D01*
X161766238Y-102750952D01*
X161718619Y-102703333D01*
X161671000Y-102608095D01*
X161671000Y-102512857D01*
X161718619Y-102417619D01*
X161766238Y-102370000D01*
X161861476Y-102322381D01*
X162099572Y-102322381D01*
X162242429Y-102370000D01*
X162861476Y-102322381D02*
X163051953Y-102322381D01*
X163147191Y-102370000D01*
X163242429Y-102465238D01*
X163290048Y-102655714D01*
X163290048Y-102989048D01*
X163242429Y-103179524D01*
X163147191Y-103274762D01*
X163051953Y-103322381D01*
X162861476Y-103322381D01*
X162766238Y-103274762D01*
X162671000Y-103179524D01*
X162623381Y-102989048D01*
X162623381Y-102655714D01*
X162671000Y-102465238D01*
X162766238Y-102370000D01*
X162861476Y-102322381D01*
X161377381Y-119578381D02*
X161044047Y-119102190D01*
X160805952Y-119578381D02*
X160805952Y-118578381D01*
X161186905Y-118578381D01*
X161282143Y-118626000D01*
X161329762Y-118673619D01*
X161377381Y-118768857D01*
X161377381Y-118911714D01*
X161329762Y-119006952D01*
X161282143Y-119054571D01*
X161186905Y-119102190D01*
X160805952Y-119102190D01*
X161758333Y-119530762D02*
X161901190Y-119578381D01*
X162139286Y-119578381D01*
X162234524Y-119530762D01*
X162282143Y-119483143D01*
X162329762Y-119387905D01*
X162329762Y-119292667D01*
X162282143Y-119197429D01*
X162234524Y-119149810D01*
X162139286Y-119102190D01*
X161948809Y-119054571D01*
X161853571Y-119006952D01*
X161805952Y-118959333D01*
X161758333Y-118864095D01*
X161758333Y-118768857D01*
X161805952Y-118673619D01*
X161853571Y-118626000D01*
X161948809Y-118578381D01*
X162186905Y-118578381D01*
X162329762Y-118626000D01*
X162615476Y-118578381D02*
X163186905Y-118578381D01*
X162901190Y-119578381D02*
X162901190Y-118578381D01*
X160099572Y-114498381D02*
X160099572Y-113498381D01*
X160432906Y-114212667D01*
X160766239Y-113498381D01*
X160766239Y-114498381D01*
X161242429Y-114498381D02*
X161242429Y-113498381D01*
X161671000Y-114450762D02*
X161813857Y-114498381D01*
X162051953Y-114498381D01*
X162147191Y-114450762D01*
X162194810Y-114403143D01*
X162242429Y-114307905D01*
X162242429Y-114212667D01*
X162194810Y-114117429D01*
X162147191Y-114069810D01*
X162051953Y-114022190D01*
X161861476Y-113974571D01*
X161766238Y-113926952D01*
X161718619Y-113879333D01*
X161671000Y-113784095D01*
X161671000Y-113688857D01*
X161718619Y-113593619D01*
X161766238Y-113546000D01*
X161861476Y-113498381D01*
X162099572Y-113498381D01*
X162242429Y-113546000D01*
X162861476Y-113498381D02*
X163051953Y-113498381D01*
X163147191Y-113546000D01*
X163242429Y-113641238D01*
X163290048Y-113831714D01*
X163290048Y-114165048D01*
X163242429Y-114355524D01*
X163147191Y-114450762D01*
X163051953Y-114498381D01*
X162861476Y-114498381D01*
X162766238Y-114450762D01*
X162671000Y-114355524D01*
X162623381Y-114165048D01*
X162623381Y-113831714D01*
X162671000Y-113641238D01*
X162766238Y-113546000D01*
X162861476Y-113498381D01*
X160639286Y-116990762D02*
X160782143Y-117038381D01*
X161020239Y-117038381D01*
X161115477Y-116990762D01*
X161163096Y-116943143D01*
X161210715Y-116847905D01*
X161210715Y-116752667D01*
X161163096Y-116657429D01*
X161115477Y-116609810D01*
X161020239Y-116562190D01*
X160829762Y-116514571D01*
X160734524Y-116466952D01*
X160686905Y-116419333D01*
X160639286Y-116324095D01*
X160639286Y-116228857D01*
X160686905Y-116133619D01*
X160734524Y-116086000D01*
X160829762Y-116038381D01*
X161067858Y-116038381D01*
X161210715Y-116086000D01*
X162210715Y-116943143D02*
X162163096Y-116990762D01*
X162020239Y-117038381D01*
X161925001Y-117038381D01*
X161782143Y-116990762D01*
X161686905Y-116895524D01*
X161639286Y-116800286D01*
X161591667Y-116609810D01*
X161591667Y-116466952D01*
X161639286Y-116276476D01*
X161686905Y-116181238D01*
X161782143Y-116086000D01*
X161925001Y-116038381D01*
X162020239Y-116038381D01*
X162163096Y-116086000D01*
X162210715Y-116133619D01*
X162639286Y-117038381D02*
X162639286Y-116038381D01*
X163210715Y-117038381D02*
X162782143Y-116466952D01*
X163210715Y-116038381D02*
X162639286Y-116609810D01*
X181975286Y-116990762D02*
X182118143Y-117038381D01*
X182356239Y-117038381D01*
X182451477Y-116990762D01*
X182499096Y-116943143D01*
X182546715Y-116847905D01*
X182546715Y-116752667D01*
X182499096Y-116657429D01*
X182451477Y-116609810D01*
X182356239Y-116562190D01*
X182165762Y-116514571D01*
X182070524Y-116466952D01*
X182022905Y-116419333D01*
X181975286Y-116324095D01*
X181975286Y-116228857D01*
X182022905Y-116133619D01*
X182070524Y-116086000D01*
X182165762Y-116038381D01*
X182403858Y-116038381D01*
X182546715Y-116086000D01*
X183546715Y-116943143D02*
X183499096Y-116990762D01*
X183356239Y-117038381D01*
X183261001Y-117038381D01*
X183118143Y-116990762D01*
X183022905Y-116895524D01*
X182975286Y-116800286D01*
X182927667Y-116609810D01*
X182927667Y-116466952D01*
X182975286Y-116276476D01*
X183022905Y-116181238D01*
X183118143Y-116086000D01*
X183261001Y-116038381D01*
X183356239Y-116038381D01*
X183499096Y-116086000D01*
X183546715Y-116133619D01*
X183975286Y-117038381D02*
X183975286Y-116038381D01*
X184546715Y-117038381D02*
X184118143Y-116466952D01*
X184546715Y-116038381D02*
X183975286Y-116609810D01*
X181435572Y-114498381D02*
X181435572Y-113498381D01*
X181768906Y-114212667D01*
X182102239Y-113498381D01*
X182102239Y-114498381D01*
X182578429Y-114498381D02*
X182578429Y-113498381D01*
X183007000Y-114450762D02*
X183149857Y-114498381D01*
X183387953Y-114498381D01*
X183483191Y-114450762D01*
X183530810Y-114403143D01*
X183578429Y-114307905D01*
X183578429Y-114212667D01*
X183530810Y-114117429D01*
X183483191Y-114069810D01*
X183387953Y-114022190D01*
X183197476Y-113974571D01*
X183102238Y-113926952D01*
X183054619Y-113879333D01*
X183007000Y-113784095D01*
X183007000Y-113688857D01*
X183054619Y-113593619D01*
X183102238Y-113546000D01*
X183197476Y-113498381D01*
X183435572Y-113498381D01*
X183578429Y-113546000D01*
X184197476Y-113498381D02*
X184387953Y-113498381D01*
X184483191Y-113546000D01*
X184578429Y-113641238D01*
X184626048Y-113831714D01*
X184626048Y-114165048D01*
X184578429Y-114355524D01*
X184483191Y-114450762D01*
X184387953Y-114498381D01*
X184197476Y-114498381D01*
X184102238Y-114450762D01*
X184007000Y-114355524D01*
X183959381Y-114165048D01*
X183959381Y-113831714D01*
X184007000Y-113641238D01*
X184102238Y-113546000D01*
X184197476Y-113498381D01*
X182713381Y-119578381D02*
X182380047Y-119102190D01*
X182141952Y-119578381D02*
X182141952Y-118578381D01*
X182522905Y-118578381D01*
X182618143Y-118626000D01*
X182665762Y-118673619D01*
X182713381Y-118768857D01*
X182713381Y-118911714D01*
X182665762Y-119006952D01*
X182618143Y-119054571D01*
X182522905Y-119102190D01*
X182141952Y-119102190D01*
X183094333Y-119530762D02*
X183237190Y-119578381D01*
X183475286Y-119578381D01*
X183570524Y-119530762D01*
X183618143Y-119483143D01*
X183665762Y-119387905D01*
X183665762Y-119292667D01*
X183618143Y-119197429D01*
X183570524Y-119149810D01*
X183475286Y-119102190D01*
X183284809Y-119054571D01*
X183189571Y-119006952D01*
X183141952Y-118959333D01*
X183094333Y-118864095D01*
X183094333Y-118768857D01*
X183141952Y-118673619D01*
X183189571Y-118626000D01*
X183284809Y-118578381D01*
X183522905Y-118578381D01*
X183665762Y-118626000D01*
X183951476Y-118578381D02*
X184522905Y-118578381D01*
X184237190Y-119578381D02*
X184237190Y-118578381D01*
X191135096Y-118626000D02*
X191039858Y-118578381D01*
X190897001Y-118578381D01*
X190754143Y-118626000D01*
X190658905Y-118721238D01*
X190611286Y-118816476D01*
X190563667Y-119006952D01*
X190563667Y-119149810D01*
X190611286Y-119340286D01*
X190658905Y-119435524D01*
X190754143Y-119530762D01*
X190897001Y-119578381D01*
X190992239Y-119578381D01*
X191135096Y-119530762D01*
X191182715Y-119483143D01*
X191182715Y-119149810D01*
X190992239Y-119149810D01*
X191611286Y-119578381D02*
X191611286Y-118578381D01*
X192182715Y-119578381D01*
X192182715Y-118578381D01*
X192658905Y-119578381D02*
X192658905Y-118578381D01*
X192897000Y-118578381D01*
X193039858Y-118626000D01*
X193135096Y-118721238D01*
X193182715Y-118816476D01*
X193230334Y-119006952D01*
X193230334Y-119149810D01*
X193182715Y-119340286D01*
X193135096Y-119435524D01*
X193039858Y-119530762D01*
X192897000Y-119578381D01*
X192658905Y-119578381D01*
X190563667Y-113498381D02*
X190897000Y-114498381D01*
X191230334Y-113498381D01*
X192135096Y-114403143D02*
X192087477Y-114450762D01*
X191944620Y-114498381D01*
X191849382Y-114498381D01*
X191706524Y-114450762D01*
X191611286Y-114355524D01*
X191563667Y-114260286D01*
X191516048Y-114069810D01*
X191516048Y-113926952D01*
X191563667Y-113736476D01*
X191611286Y-113641238D01*
X191706524Y-113546000D01*
X191849382Y-113498381D01*
X191944620Y-113498381D01*
X192087477Y-113546000D01*
X192135096Y-113593619D01*
X193135096Y-114403143D02*
X193087477Y-114450762D01*
X192944620Y-114498381D01*
X192849382Y-114498381D01*
X192706524Y-114450762D01*
X192611286Y-114355524D01*
X192563667Y-114260286D01*
X192516048Y-114069810D01*
X192516048Y-113926952D01*
X192563667Y-113736476D01*
X192611286Y-113641238D01*
X192706524Y-113546000D01*
X192849382Y-113498381D01*
X192944620Y-113498381D01*
X193087477Y-113546000D01*
X193135096Y-113593619D01*
X190579572Y-117038381D02*
X190579572Y-116038381D01*
X190912906Y-116752667D01*
X191246239Y-116038381D01*
X191246239Y-117038381D01*
X191912905Y-116038381D02*
X192103382Y-116038381D01*
X192198620Y-116086000D01*
X192293858Y-116181238D01*
X192341477Y-116371714D01*
X192341477Y-116705048D01*
X192293858Y-116895524D01*
X192198620Y-116990762D01*
X192103382Y-117038381D01*
X191912905Y-117038381D01*
X191817667Y-116990762D01*
X191722429Y-116895524D01*
X191674810Y-116705048D01*
X191674810Y-116371714D01*
X191722429Y-116181238D01*
X191817667Y-116086000D01*
X191912905Y-116038381D01*
X192722429Y-116990762D02*
X192865286Y-117038381D01*
X193103382Y-117038381D01*
X193198620Y-116990762D01*
X193246239Y-116943143D01*
X193293858Y-116847905D01*
X193293858Y-116752667D01*
X193246239Y-116657429D01*
X193198620Y-116609810D01*
X193103382Y-116562190D01*
X192912905Y-116514571D01*
X192817667Y-116466952D01*
X192770048Y-116419333D01*
X192722429Y-116324095D01*
X192722429Y-116228857D01*
X192770048Y-116133619D01*
X192817667Y-116086000D01*
X192912905Y-116038381D01*
X193151001Y-116038381D01*
X193293858Y-116086000D01*
X193722429Y-117038381D02*
X193722429Y-116038381D01*
X169243572Y-117038381D02*
X169243572Y-116038381D01*
X169576906Y-116752667D01*
X169910239Y-116038381D01*
X169910239Y-117038381D01*
X170576905Y-116038381D02*
X170767382Y-116038381D01*
X170862620Y-116086000D01*
X170957858Y-116181238D01*
X171005477Y-116371714D01*
X171005477Y-116705048D01*
X170957858Y-116895524D01*
X170862620Y-116990762D01*
X170767382Y-117038381D01*
X170576905Y-117038381D01*
X170481667Y-116990762D01*
X170386429Y-116895524D01*
X170338810Y-116705048D01*
X170338810Y-116371714D01*
X170386429Y-116181238D01*
X170481667Y-116086000D01*
X170576905Y-116038381D01*
X171386429Y-116990762D02*
X171529286Y-117038381D01*
X171767382Y-117038381D01*
X171862620Y-116990762D01*
X171910239Y-116943143D01*
X171957858Y-116847905D01*
X171957858Y-116752667D01*
X171910239Y-116657429D01*
X171862620Y-116609810D01*
X171767382Y-116562190D01*
X171576905Y-116514571D01*
X171481667Y-116466952D01*
X171434048Y-116419333D01*
X171386429Y-116324095D01*
X171386429Y-116228857D01*
X171434048Y-116133619D01*
X171481667Y-116086000D01*
X171576905Y-116038381D01*
X171815001Y-116038381D01*
X171957858Y-116086000D01*
X172386429Y-117038381D02*
X172386429Y-116038381D01*
X169799096Y-118626000D02*
X169703858Y-118578381D01*
X169561001Y-118578381D01*
X169418143Y-118626000D01*
X169322905Y-118721238D01*
X169275286Y-118816476D01*
X169227667Y-119006952D01*
X169227667Y-119149810D01*
X169275286Y-119340286D01*
X169322905Y-119435524D01*
X169418143Y-119530762D01*
X169561001Y-119578381D01*
X169656239Y-119578381D01*
X169799096Y-119530762D01*
X169846715Y-119483143D01*
X169846715Y-119149810D01*
X169656239Y-119149810D01*
X170275286Y-119578381D02*
X170275286Y-118578381D01*
X170846715Y-119578381D01*
X170846715Y-118578381D01*
X171322905Y-119578381D02*
X171322905Y-118578381D01*
X171561000Y-118578381D01*
X171703858Y-118626000D01*
X171799096Y-118721238D01*
X171846715Y-118816476D01*
X171894334Y-119006952D01*
X171894334Y-119149810D01*
X171846715Y-119340286D01*
X171799096Y-119435524D01*
X171703858Y-119530762D01*
X171561000Y-119578381D01*
X171322905Y-119578381D01*
X169227667Y-113498381D02*
X169561000Y-114498381D01*
X169894334Y-113498381D01*
X170799096Y-114403143D02*
X170751477Y-114450762D01*
X170608620Y-114498381D01*
X170513382Y-114498381D01*
X170370524Y-114450762D01*
X170275286Y-114355524D01*
X170227667Y-114260286D01*
X170180048Y-114069810D01*
X170180048Y-113926952D01*
X170227667Y-113736476D01*
X170275286Y-113641238D01*
X170370524Y-113546000D01*
X170513382Y-113498381D01*
X170608620Y-113498381D01*
X170751477Y-113546000D01*
X170799096Y-113593619D01*
X171799096Y-114403143D02*
X171751477Y-114450762D01*
X171608620Y-114498381D01*
X171513382Y-114498381D01*
X171370524Y-114450762D01*
X171275286Y-114355524D01*
X171227667Y-114260286D01*
X171180048Y-114069810D01*
X171180048Y-113926952D01*
X171227667Y-113736476D01*
X171275286Y-113641238D01*
X171370524Y-113546000D01*
X171513382Y-113498381D01*
X171608620Y-113498381D01*
X171751477Y-113546000D01*
X171799096Y-113593619D01*
X147891667Y-113498381D02*
X148225000Y-114498381D01*
X148558334Y-113498381D01*
X149463096Y-114403143D02*
X149415477Y-114450762D01*
X149272620Y-114498381D01*
X149177382Y-114498381D01*
X149034524Y-114450762D01*
X148939286Y-114355524D01*
X148891667Y-114260286D01*
X148844048Y-114069810D01*
X148844048Y-113926952D01*
X148891667Y-113736476D01*
X148939286Y-113641238D01*
X149034524Y-113546000D01*
X149177382Y-113498381D01*
X149272620Y-113498381D01*
X149415477Y-113546000D01*
X149463096Y-113593619D01*
X150463096Y-114403143D02*
X150415477Y-114450762D01*
X150272620Y-114498381D01*
X150177382Y-114498381D01*
X150034524Y-114450762D01*
X149939286Y-114355524D01*
X149891667Y-114260286D01*
X149844048Y-114069810D01*
X149844048Y-113926952D01*
X149891667Y-113736476D01*
X149939286Y-113641238D01*
X150034524Y-113546000D01*
X150177382Y-113498381D01*
X150272620Y-113498381D01*
X150415477Y-113546000D01*
X150463096Y-113593619D01*
X147907572Y-117038381D02*
X147907572Y-116038381D01*
X148240906Y-116752667D01*
X148574239Y-116038381D01*
X148574239Y-117038381D01*
X149240905Y-116038381D02*
X149431382Y-116038381D01*
X149526620Y-116086000D01*
X149621858Y-116181238D01*
X149669477Y-116371714D01*
X149669477Y-116705048D01*
X149621858Y-116895524D01*
X149526620Y-116990762D01*
X149431382Y-117038381D01*
X149240905Y-117038381D01*
X149145667Y-116990762D01*
X149050429Y-116895524D01*
X149002810Y-116705048D01*
X149002810Y-116371714D01*
X149050429Y-116181238D01*
X149145667Y-116086000D01*
X149240905Y-116038381D01*
X150050429Y-116990762D02*
X150193286Y-117038381D01*
X150431382Y-117038381D01*
X150526620Y-116990762D01*
X150574239Y-116943143D01*
X150621858Y-116847905D01*
X150621858Y-116752667D01*
X150574239Y-116657429D01*
X150526620Y-116609810D01*
X150431382Y-116562190D01*
X150240905Y-116514571D01*
X150145667Y-116466952D01*
X150098048Y-116419333D01*
X150050429Y-116324095D01*
X150050429Y-116228857D01*
X150098048Y-116133619D01*
X150145667Y-116086000D01*
X150240905Y-116038381D01*
X150479001Y-116038381D01*
X150621858Y-116086000D01*
X151050429Y-117038381D02*
X151050429Y-116038381D01*
X148463096Y-118626000D02*
X148367858Y-118578381D01*
X148225001Y-118578381D01*
X148082143Y-118626000D01*
X147986905Y-118721238D01*
X147939286Y-118816476D01*
X147891667Y-119006952D01*
X147891667Y-119149810D01*
X147939286Y-119340286D01*
X147986905Y-119435524D01*
X148082143Y-119530762D01*
X148225001Y-119578381D01*
X148320239Y-119578381D01*
X148463096Y-119530762D01*
X148510715Y-119483143D01*
X148510715Y-119149810D01*
X148320239Y-119149810D01*
X148939286Y-119578381D02*
X148939286Y-118578381D01*
X149510715Y-119578381D01*
X149510715Y-118578381D01*
X149986905Y-119578381D02*
X149986905Y-118578381D01*
X150225000Y-118578381D01*
X150367858Y-118626000D01*
X150463096Y-118721238D01*
X150510715Y-118816476D01*
X150558334Y-119006952D01*
X150558334Y-119149810D01*
X150510715Y-119340286D01*
X150463096Y-119435524D01*
X150367858Y-119530762D01*
X150225000Y-119578381D01*
X149986905Y-119578381D01*
X118705381Y-119578381D02*
X118372047Y-119102190D01*
X118133952Y-119578381D02*
X118133952Y-118578381D01*
X118514905Y-118578381D01*
X118610143Y-118626000D01*
X118657762Y-118673619D01*
X118705381Y-118768857D01*
X118705381Y-118911714D01*
X118657762Y-119006952D01*
X118610143Y-119054571D01*
X118514905Y-119102190D01*
X118133952Y-119102190D01*
X119086333Y-119530762D02*
X119229190Y-119578381D01*
X119467286Y-119578381D01*
X119562524Y-119530762D01*
X119610143Y-119483143D01*
X119657762Y-119387905D01*
X119657762Y-119292667D01*
X119610143Y-119197429D01*
X119562524Y-119149810D01*
X119467286Y-119102190D01*
X119276809Y-119054571D01*
X119181571Y-119006952D01*
X119133952Y-118959333D01*
X119086333Y-118864095D01*
X119086333Y-118768857D01*
X119133952Y-118673619D01*
X119181571Y-118626000D01*
X119276809Y-118578381D01*
X119514905Y-118578381D01*
X119657762Y-118626000D01*
X119943476Y-118578381D02*
X120514905Y-118578381D01*
X120229190Y-119578381D02*
X120229190Y-118578381D01*
X117967286Y-116990762D02*
X118110143Y-117038381D01*
X118348239Y-117038381D01*
X118443477Y-116990762D01*
X118491096Y-116943143D01*
X118538715Y-116847905D01*
X118538715Y-116752667D01*
X118491096Y-116657429D01*
X118443477Y-116609810D01*
X118348239Y-116562190D01*
X118157762Y-116514571D01*
X118062524Y-116466952D01*
X118014905Y-116419333D01*
X117967286Y-116324095D01*
X117967286Y-116228857D01*
X118014905Y-116133619D01*
X118062524Y-116086000D01*
X118157762Y-116038381D01*
X118395858Y-116038381D01*
X118538715Y-116086000D01*
X119538715Y-116943143D02*
X119491096Y-116990762D01*
X119348239Y-117038381D01*
X119253001Y-117038381D01*
X119110143Y-116990762D01*
X119014905Y-116895524D01*
X118967286Y-116800286D01*
X118919667Y-116609810D01*
X118919667Y-116466952D01*
X118967286Y-116276476D01*
X119014905Y-116181238D01*
X119110143Y-116086000D01*
X119253001Y-116038381D01*
X119348239Y-116038381D01*
X119491096Y-116086000D01*
X119538715Y-116133619D01*
X119967286Y-117038381D02*
X119967286Y-116038381D01*
X120538715Y-117038381D02*
X120110143Y-116466952D01*
X120538715Y-116038381D02*
X119967286Y-116609810D01*
X117427572Y-114498381D02*
X117427572Y-113498381D01*
X117760906Y-114212667D01*
X118094239Y-113498381D01*
X118094239Y-114498381D01*
X118570429Y-114498381D02*
X118570429Y-113498381D01*
X118999000Y-114450762D02*
X119141857Y-114498381D01*
X119379953Y-114498381D01*
X119475191Y-114450762D01*
X119522810Y-114403143D01*
X119570429Y-114307905D01*
X119570429Y-114212667D01*
X119522810Y-114117429D01*
X119475191Y-114069810D01*
X119379953Y-114022190D01*
X119189476Y-113974571D01*
X119094238Y-113926952D01*
X119046619Y-113879333D01*
X118999000Y-113784095D01*
X118999000Y-113688857D01*
X119046619Y-113593619D01*
X119094238Y-113546000D01*
X119189476Y-113498381D01*
X119427572Y-113498381D01*
X119570429Y-113546000D01*
X120189476Y-113498381D02*
X120379953Y-113498381D01*
X120475191Y-113546000D01*
X120570429Y-113641238D01*
X120618048Y-113831714D01*
X120618048Y-114165048D01*
X120570429Y-114355524D01*
X120475191Y-114450762D01*
X120379953Y-114498381D01*
X120189476Y-114498381D01*
X120094238Y-114450762D01*
X119999000Y-114355524D01*
X119951381Y-114165048D01*
X119951381Y-113831714D01*
X119999000Y-113641238D01*
X120094238Y-113546000D01*
X120189476Y-113498381D01*
X127127096Y-118626000D02*
X127031858Y-118578381D01*
X126889001Y-118578381D01*
X126746143Y-118626000D01*
X126650905Y-118721238D01*
X126603286Y-118816476D01*
X126555667Y-119006952D01*
X126555667Y-119149810D01*
X126603286Y-119340286D01*
X126650905Y-119435524D01*
X126746143Y-119530762D01*
X126889001Y-119578381D01*
X126984239Y-119578381D01*
X127127096Y-119530762D01*
X127174715Y-119483143D01*
X127174715Y-119149810D01*
X126984239Y-119149810D01*
X127603286Y-119578381D02*
X127603286Y-118578381D01*
X128174715Y-119578381D01*
X128174715Y-118578381D01*
X128650905Y-119578381D02*
X128650905Y-118578381D01*
X128889000Y-118578381D01*
X129031858Y-118626000D01*
X129127096Y-118721238D01*
X129174715Y-118816476D01*
X129222334Y-119006952D01*
X129222334Y-119149810D01*
X129174715Y-119340286D01*
X129127096Y-119435524D01*
X129031858Y-119530762D01*
X128889000Y-119578381D01*
X128650905Y-119578381D01*
X126571572Y-117038381D02*
X126571572Y-116038381D01*
X126904906Y-116752667D01*
X127238239Y-116038381D01*
X127238239Y-117038381D01*
X127904905Y-116038381D02*
X128095382Y-116038381D01*
X128190620Y-116086000D01*
X128285858Y-116181238D01*
X128333477Y-116371714D01*
X128333477Y-116705048D01*
X128285858Y-116895524D01*
X128190620Y-116990762D01*
X128095382Y-117038381D01*
X127904905Y-117038381D01*
X127809667Y-116990762D01*
X127714429Y-116895524D01*
X127666810Y-116705048D01*
X127666810Y-116371714D01*
X127714429Y-116181238D01*
X127809667Y-116086000D01*
X127904905Y-116038381D01*
X128714429Y-116990762D02*
X128857286Y-117038381D01*
X129095382Y-117038381D01*
X129190620Y-116990762D01*
X129238239Y-116943143D01*
X129285858Y-116847905D01*
X129285858Y-116752667D01*
X129238239Y-116657429D01*
X129190620Y-116609810D01*
X129095382Y-116562190D01*
X128904905Y-116514571D01*
X128809667Y-116466952D01*
X128762048Y-116419333D01*
X128714429Y-116324095D01*
X128714429Y-116228857D01*
X128762048Y-116133619D01*
X128809667Y-116086000D01*
X128904905Y-116038381D01*
X129143001Y-116038381D01*
X129285858Y-116086000D01*
X129714429Y-117038381D02*
X129714429Y-116038381D01*
X126555667Y-113498381D02*
X126889000Y-114498381D01*
X127222334Y-113498381D01*
X128127096Y-114403143D02*
X128079477Y-114450762D01*
X127936620Y-114498381D01*
X127841382Y-114498381D01*
X127698524Y-114450762D01*
X127603286Y-114355524D01*
X127555667Y-114260286D01*
X127508048Y-114069810D01*
X127508048Y-113926952D01*
X127555667Y-113736476D01*
X127603286Y-113641238D01*
X127698524Y-113546000D01*
X127841382Y-113498381D01*
X127936620Y-113498381D01*
X128079477Y-113546000D01*
X128127096Y-113593619D01*
X129127096Y-114403143D02*
X129079477Y-114450762D01*
X128936620Y-114498381D01*
X128841382Y-114498381D01*
X128698524Y-114450762D01*
X128603286Y-114355524D01*
X128555667Y-114260286D01*
X128508048Y-114069810D01*
X128508048Y-113926952D01*
X128555667Y-113736476D01*
X128603286Y-113641238D01*
X128698524Y-113546000D01*
X128841382Y-113498381D01*
X128936620Y-113498381D01*
X129079477Y-113546000D01*
X129127096Y-113593619D01*
X139303286Y-116990762D02*
X139446143Y-117038381D01*
X139684239Y-117038381D01*
X139779477Y-116990762D01*
X139827096Y-116943143D01*
X139874715Y-116847905D01*
X139874715Y-116752667D01*
X139827096Y-116657429D01*
X139779477Y-116609810D01*
X139684239Y-116562190D01*
X139493762Y-116514571D01*
X139398524Y-116466952D01*
X139350905Y-116419333D01*
X139303286Y-116324095D01*
X139303286Y-116228857D01*
X139350905Y-116133619D01*
X139398524Y-116086000D01*
X139493762Y-116038381D01*
X139731858Y-116038381D01*
X139874715Y-116086000D01*
X140874715Y-116943143D02*
X140827096Y-116990762D01*
X140684239Y-117038381D01*
X140589001Y-117038381D01*
X140446143Y-116990762D01*
X140350905Y-116895524D01*
X140303286Y-116800286D01*
X140255667Y-116609810D01*
X140255667Y-116466952D01*
X140303286Y-116276476D01*
X140350905Y-116181238D01*
X140446143Y-116086000D01*
X140589001Y-116038381D01*
X140684239Y-116038381D01*
X140827096Y-116086000D01*
X140874715Y-116133619D01*
X141303286Y-117038381D02*
X141303286Y-116038381D01*
X141874715Y-117038381D02*
X141446143Y-116466952D01*
X141874715Y-116038381D02*
X141303286Y-116609810D01*
X138763572Y-114498381D02*
X138763572Y-113498381D01*
X139096906Y-114212667D01*
X139430239Y-113498381D01*
X139430239Y-114498381D01*
X139906429Y-114498381D02*
X139906429Y-113498381D01*
X140335000Y-114450762D02*
X140477857Y-114498381D01*
X140715953Y-114498381D01*
X140811191Y-114450762D01*
X140858810Y-114403143D01*
X140906429Y-114307905D01*
X140906429Y-114212667D01*
X140858810Y-114117429D01*
X140811191Y-114069810D01*
X140715953Y-114022190D01*
X140525476Y-113974571D01*
X140430238Y-113926952D01*
X140382619Y-113879333D01*
X140335000Y-113784095D01*
X140335000Y-113688857D01*
X140382619Y-113593619D01*
X140430238Y-113546000D01*
X140525476Y-113498381D01*
X140763572Y-113498381D01*
X140906429Y-113546000D01*
X141525476Y-113498381D02*
X141715953Y-113498381D01*
X141811191Y-113546000D01*
X141906429Y-113641238D01*
X141954048Y-113831714D01*
X141954048Y-114165048D01*
X141906429Y-114355524D01*
X141811191Y-114450762D01*
X141715953Y-114498381D01*
X141525476Y-114498381D01*
X141430238Y-114450762D01*
X141335000Y-114355524D01*
X141287381Y-114165048D01*
X141287381Y-113831714D01*
X141335000Y-113641238D01*
X141430238Y-113546000D01*
X141525476Y-113498381D01*
X140041381Y-119578381D02*
X139708047Y-119102190D01*
X139469952Y-119578381D02*
X139469952Y-118578381D01*
X139850905Y-118578381D01*
X139946143Y-118626000D01*
X139993762Y-118673619D01*
X140041381Y-118768857D01*
X140041381Y-118911714D01*
X139993762Y-119006952D01*
X139946143Y-119054571D01*
X139850905Y-119102190D01*
X139469952Y-119102190D01*
X140422333Y-119530762D02*
X140565190Y-119578381D01*
X140803286Y-119578381D01*
X140898524Y-119530762D01*
X140946143Y-119483143D01*
X140993762Y-119387905D01*
X140993762Y-119292667D01*
X140946143Y-119197429D01*
X140898524Y-119149810D01*
X140803286Y-119102190D01*
X140612809Y-119054571D01*
X140517571Y-119006952D01*
X140469952Y-118959333D01*
X140422333Y-118864095D01*
X140422333Y-118768857D01*
X140469952Y-118673619D01*
X140517571Y-118626000D01*
X140612809Y-118578381D01*
X140850905Y-118578381D01*
X140993762Y-118626000D01*
X141279476Y-118578381D02*
X141850905Y-118578381D01*
X141565190Y-119578381D02*
X141565190Y-118578381D01*
X121031000Y-81788000D02*
X121031000Y-86868000D01*
X120751000Y-78968000D02*
X122301000Y-78968000D01*
X123571000Y-79248000D02*
X123571000Y-81788000D01*
X123571000Y-81788000D02*
X121031000Y-81788000D01*
X121031000Y-86868000D02*
X126111000Y-86868000D01*
X126111000Y-86868000D02*
X126111000Y-81788000D01*
X120751000Y-78968000D02*
X120751000Y-80518000D01*
X126111000Y-79248000D02*
X123571000Y-79248000D01*
X126111000Y-81788000D02*
X126111000Y-79248000D01*
X163703000Y-92964000D02*
X163703000Y-98044000D01*
X163423000Y-90144000D02*
X164973000Y-90144000D01*
X166243000Y-90424000D02*
X166243000Y-92964000D01*
X166243000Y-92964000D02*
X163703000Y-92964000D01*
X163703000Y-98044000D02*
X168783000Y-98044000D01*
X168783000Y-98044000D02*
X168783000Y-92964000D01*
X163423000Y-90144000D02*
X163423000Y-91694000D01*
X168783000Y-90424000D02*
X166243000Y-90424000D01*
X168783000Y-92964000D02*
X168783000Y-90424000D01*
X121031000Y-92964000D02*
X121031000Y-98044000D01*
X120751000Y-90144000D02*
X122301000Y-90144000D01*
X123571000Y-90424000D02*
X123571000Y-92964000D01*
X123571000Y-92964000D02*
X121031000Y-92964000D01*
X121031000Y-98044000D02*
X126111000Y-98044000D01*
X126111000Y-98044000D02*
X126111000Y-92964000D01*
X120751000Y-90144000D02*
X120751000Y-91694000D01*
X126111000Y-90424000D02*
X123571000Y-90424000D01*
X126111000Y-92964000D02*
X126111000Y-90424000D01*
X185039000Y-92964000D02*
X185039000Y-98044000D01*
X184759000Y-90144000D02*
X186309000Y-90144000D01*
X187579000Y-90424000D02*
X187579000Y-92964000D01*
X187579000Y-92964000D02*
X185039000Y-92964000D01*
X185039000Y-98044000D02*
X190119000Y-98044000D01*
X190119000Y-98044000D02*
X190119000Y-92964000D01*
X184759000Y-90144000D02*
X184759000Y-91694000D01*
X190119000Y-90424000D02*
X187579000Y-90424000D01*
X190119000Y-92964000D02*
X190119000Y-90424000D01*
X185039000Y-81788000D02*
X185039000Y-86868000D01*
X184759000Y-78968000D02*
X186309000Y-78968000D01*
X187579000Y-79248000D02*
X187579000Y-81788000D01*
X187579000Y-81788000D02*
X185039000Y-81788000D01*
X185039000Y-86868000D02*
X190119000Y-86868000D01*
X190119000Y-86868000D02*
X190119000Y-81788000D01*
X184759000Y-78968000D02*
X184759000Y-80518000D01*
X190119000Y-79248000D02*
X187579000Y-79248000D01*
X190119000Y-81788000D02*
X190119000Y-79248000D01*
X142367000Y-81788000D02*
X142367000Y-86868000D01*
X142087000Y-78968000D02*
X143637000Y-78968000D01*
X144907000Y-79248000D02*
X144907000Y-81788000D01*
X144907000Y-81788000D02*
X142367000Y-81788000D01*
X142367000Y-86868000D02*
X147447000Y-86868000D01*
X147447000Y-86868000D02*
X147447000Y-81788000D01*
X142087000Y-78968000D02*
X142087000Y-80518000D01*
X147447000Y-79248000D02*
X144907000Y-79248000D01*
X147447000Y-81788000D02*
X147447000Y-79248000D01*
X163703000Y-81788000D02*
X163703000Y-86868000D01*
X163423000Y-78968000D02*
X164973000Y-78968000D01*
X166243000Y-79248000D02*
X166243000Y-81788000D01*
X166243000Y-81788000D02*
X163703000Y-81788000D01*
X163703000Y-86868000D02*
X168783000Y-86868000D01*
X168783000Y-86868000D02*
X168783000Y-81788000D01*
X163423000Y-78968000D02*
X163423000Y-80518000D01*
X168783000Y-79248000D02*
X166243000Y-79248000D01*
X168783000Y-81788000D02*
X168783000Y-79248000D01*
X142367000Y-92964000D02*
X142367000Y-98044000D01*
X142087000Y-90144000D02*
X143637000Y-90144000D01*
X144907000Y-90424000D02*
X144907000Y-92964000D01*
X144907000Y-92964000D02*
X142367000Y-92964000D01*
X142367000Y-98044000D02*
X147447000Y-98044000D01*
X147447000Y-98044000D02*
X147447000Y-92964000D01*
X142087000Y-90144000D02*
X142087000Y-91694000D01*
X147447000Y-90424000D02*
X144907000Y-90424000D01*
X147447000Y-92964000D02*
X147447000Y-90424000D01*
X142367000Y-104140000D02*
X142367000Y-109220000D01*
X142087000Y-101320000D02*
X143637000Y-101320000D01*
X144907000Y-101600000D02*
X144907000Y-104140000D01*
X144907000Y-104140000D02*
X142367000Y-104140000D01*
X142367000Y-109220000D02*
X147447000Y-109220000D01*
X147447000Y-109220000D02*
X147447000Y-104140000D01*
X142087000Y-101320000D02*
X142087000Y-102870000D01*
X147447000Y-101600000D02*
X144907000Y-101600000D01*
X147447000Y-104140000D02*
X147447000Y-101600000D01*
X163703000Y-104140000D02*
X163703000Y-109220000D01*
X163423000Y-101320000D02*
X164973000Y-101320000D01*
X166243000Y-101600000D02*
X166243000Y-104140000D01*
X166243000Y-104140000D02*
X163703000Y-104140000D01*
X163703000Y-109220000D02*
X168783000Y-109220000D01*
X168783000Y-109220000D02*
X168783000Y-104140000D01*
X163423000Y-101320000D02*
X163423000Y-102870000D01*
X168783000Y-101600000D02*
X166243000Y-101600000D01*
X168783000Y-104140000D02*
X168783000Y-101600000D01*
X121031000Y-104140000D02*
X121031000Y-109220000D01*
X120751000Y-101320000D02*
X122301000Y-101320000D01*
X123571000Y-101600000D02*
X123571000Y-104140000D01*
X123571000Y-104140000D02*
X121031000Y-104140000D01*
X121031000Y-109220000D02*
X126111000Y-109220000D01*
X126111000Y-109220000D02*
X126111000Y-104140000D01*
X120751000Y-101320000D02*
X120751000Y-102870000D01*
X126111000Y-101600000D02*
X123571000Y-101600000D01*
X126111000Y-104140000D02*
X126111000Y-101600000D01*
X185039000Y-104140000D02*
X185039000Y-109220000D01*
X184759000Y-101320000D02*
X186309000Y-101320000D01*
X187579000Y-101600000D02*
X187579000Y-104140000D01*
X187579000Y-104140000D02*
X185039000Y-104140000D01*
X185039000Y-109220000D02*
X190119000Y-109220000D01*
X190119000Y-109220000D02*
X190119000Y-104140000D01*
X184759000Y-101320000D02*
X184759000Y-102870000D01*
X190119000Y-101600000D02*
X187579000Y-101600000D01*
X190119000Y-104140000D02*
X190119000Y-101600000D01*
X163703000Y-115316000D02*
X163703000Y-120396000D01*
X163423000Y-112496000D02*
X164973000Y-112496000D01*
X166243000Y-112776000D02*
X166243000Y-115316000D01*
X166243000Y-115316000D02*
X163703000Y-115316000D01*
X163703000Y-120396000D02*
X168783000Y-120396000D01*
X168783000Y-120396000D02*
X168783000Y-115316000D01*
X163423000Y-112496000D02*
X163423000Y-114046000D01*
X168783000Y-112776000D02*
X166243000Y-112776000D01*
X168783000Y-115316000D02*
X168783000Y-112776000D01*
X121031000Y-115316000D02*
X121031000Y-120396000D01*
X120751000Y-112496000D02*
X122301000Y-112496000D01*
X123571000Y-112776000D02*
X123571000Y-115316000D01*
X123571000Y-115316000D02*
X121031000Y-115316000D01*
X121031000Y-120396000D02*
X126111000Y-120396000D01*
X126111000Y-120396000D02*
X126111000Y-115316000D01*
X120751000Y-112496000D02*
X120751000Y-114046000D01*
X126111000Y-112776000D02*
X123571000Y-112776000D01*
X126111000Y-115316000D02*
X126111000Y-112776000D01*
X185039000Y-115316000D02*
X185039000Y-120396000D01*
X184759000Y-112496000D02*
X186309000Y-112496000D01*
X187579000Y-112776000D02*
X187579000Y-115316000D01*
X187579000Y-115316000D02*
X185039000Y-115316000D01*
X185039000Y-120396000D02*
X190119000Y-120396000D01*
X190119000Y-120396000D02*
X190119000Y-115316000D01*
X184759000Y-112496000D02*
X184759000Y-114046000D01*
X190119000Y-112776000D02*
X187579000Y-112776000D01*
X190119000Y-115316000D02*
X190119000Y-112776000D01*
X142367000Y-115316000D02*
X142367000Y-120396000D01*
X142087000Y-112496000D02*
X143637000Y-112496000D01*
X144907000Y-112776000D02*
X144907000Y-115316000D01*
X144907000Y-115316000D02*
X142367000Y-115316000D01*
X142367000Y-120396000D02*
X147447000Y-120396000D01*
X147447000Y-120396000D02*
X147447000Y-115316000D01*
X142087000Y-112496000D02*
X142087000Y-114046000D01*
X147447000Y-112776000D02*
X144907000Y-112776000D01*
X147447000Y-115316000D02*
X147447000Y-112776000D01*
M02*
