M48
;DRILL file {KiCad 4.0.5+dfsg1-4} date Wed Oct 11 12:15:42 2017
;FORMAT={-:-/ absolute / inch / decimal}
FMAT,2
INCH,TZ
T1C0.040
%
G90
G05
M72
T1
X4.565Y-3.17
X4.565Y-3.27
X4.565Y-3.37
X4.565Y-3.61
X4.565Y-3.71
X4.565Y-3.81
X4.565Y-4.05
X4.565Y-4.15
X4.565Y-4.25
X4.565Y-4.49
X4.565Y-4.59
X4.565Y-4.69
X4.815Y-3.17
X4.815Y-3.27
X4.815Y-3.37
X4.815Y-3.61
X4.815Y-3.71
X4.815Y-3.81
X4.815Y-4.05
X4.815Y-4.15
X4.815Y-4.25
X4.815Y-4.49
X4.815Y-4.59
X4.815Y-4.69
X4.915Y-3.17
X4.915Y-3.27
X4.915Y-3.37
X4.915Y-3.61
X4.915Y-3.71
X4.915Y-3.81
X4.915Y-4.05
X4.915Y-4.15
X4.915Y-4.25
X4.915Y-4.49
X4.915Y-4.59
X4.915Y-4.69
X5.165Y-3.17
X5.165Y-3.27
X5.165Y-3.37
X5.165Y-3.61
X5.165Y-3.71
X5.165Y-3.81
X5.165Y-4.05
X5.165Y-4.15
X5.165Y-4.25
X5.165Y-4.49
X5.165Y-4.59
X5.165Y-4.69
X5.405Y-3.17
X5.405Y-3.27
X5.405Y-3.37
X5.405Y-3.61
X5.405Y-3.71
X5.405Y-3.81
X5.405Y-4.05
X5.405Y-4.15
X5.405Y-4.25
X5.405Y-4.49
X5.405Y-4.59
X5.405Y-4.69
X5.655Y-3.17
X5.655Y-3.27
X5.655Y-3.37
X5.655Y-3.61
X5.655Y-3.71
X5.655Y-3.81
X5.655Y-4.05
X5.655Y-4.15
X5.655Y-4.25
X5.655Y-4.49
X5.655Y-4.59
X5.655Y-4.69
X5.755Y-3.17
X5.755Y-3.27
X5.755Y-3.37
X5.755Y-3.61
X5.755Y-3.71
X5.755Y-3.81
X5.755Y-4.05
X5.755Y-4.15
X5.755Y-4.25
X5.755Y-4.49
X5.755Y-4.59
X5.755Y-4.69
X6.005Y-3.17
X6.005Y-3.27
X6.005Y-3.37
X6.005Y-3.61
X6.005Y-3.71
X6.005Y-3.81
X6.005Y-4.05
X6.005Y-4.15
X6.005Y-4.25
X6.005Y-4.49
X6.005Y-4.59
X6.005Y-4.69
X6.245Y-3.17
X6.245Y-3.27
X6.245Y-3.37
X6.245Y-3.61
X6.245Y-3.71
X6.245Y-3.81
X6.245Y-4.05
X6.245Y-4.15
X6.245Y-4.25
X6.245Y-4.49
X6.245Y-4.59
X6.245Y-4.69
X6.495Y-3.17
X6.495Y-3.27
X6.495Y-3.37
X6.495Y-3.61
X6.495Y-3.71
X6.495Y-3.81
X6.495Y-4.05
X6.495Y-4.15
X6.495Y-4.25
X6.495Y-4.49
X6.495Y-4.59
X6.495Y-4.69
X6.595Y-3.17
X6.595Y-3.27
X6.595Y-3.37
X6.595Y-3.61
X6.595Y-3.71
X6.595Y-3.81
X6.595Y-4.05
X6.595Y-4.15
X6.595Y-4.25
X6.595Y-4.49
X6.595Y-4.59
X6.595Y-4.69
X6.845Y-3.17
X6.845Y-3.27
X6.845Y-3.37
X6.845Y-3.61
X6.845Y-3.71
X6.845Y-3.81
X6.845Y-4.05
X6.845Y-4.15
X6.845Y-4.25
X6.845Y-4.49
X6.845Y-4.59
X6.845Y-4.69
X7.085Y-3.17
X7.085Y-3.27
X7.085Y-3.37
X7.085Y-3.61
X7.085Y-3.71
X7.085Y-3.81
X7.085Y-4.05
X7.085Y-4.15
X7.085Y-4.25
X7.085Y-4.49
X7.085Y-4.59
X7.085Y-4.69
X7.335Y-3.17
X7.335Y-3.27
X7.335Y-3.37
X7.335Y-3.61
X7.335Y-3.71
X7.335Y-3.81
X7.335Y-4.05
X7.335Y-4.15
X7.335Y-4.25
X7.335Y-4.49
X7.335Y-4.59
X7.335Y-4.69
X7.435Y-3.17
X7.435Y-3.27
X7.435Y-3.37
X7.435Y-3.61
X7.435Y-3.71
X7.435Y-3.81
X7.435Y-4.05
X7.435Y-4.15
X7.435Y-4.25
X7.435Y-4.49
X7.435Y-4.59
X7.435Y-4.69
X7.685Y-3.17
X7.685Y-3.27
X7.685Y-3.37
X7.685Y-3.61
X7.685Y-3.71
X7.685Y-3.81
X7.685Y-4.05
X7.685Y-4.15
X7.685Y-4.25
X7.685Y-4.49
X7.685Y-4.59
X7.685Y-4.69
T0
M30
