G04 #@! TF.FileFunction,Copper,L1,Top,Signal*
%FSLAX46Y46*%
G04 Gerber Fmt 4.6, Leading zero omitted, Abs format (unit mm)*
G04 Created by KiCad (PCBNEW 4.0.5+dfsg1-4) date Wed Oct 11 12:16:19 2017*
%MOMM*%
%LPD*%
G01*
G04 APERTURE LIST*
%ADD10C,0.100000*%
%ADD11R,1.727200X1.727200*%
%ADD12O,1.727200X1.727200*%
%ADD13C,0.250000*%
G04 APERTURE END LIST*
D10*
D11*
X237401100Y-88747600D03*
D12*
X239941100Y-88747600D03*
X237401100Y-91287600D03*
X239941100Y-91287600D03*
X237401100Y-93827600D03*
X239941100Y-93827600D03*
D11*
X237401100Y-77825600D03*
D12*
X239941100Y-77825600D03*
X237401100Y-80365600D03*
X239941100Y-80365600D03*
X237401100Y-82905600D03*
X239941100Y-82905600D03*
D11*
X249682000Y-88747600D03*
D12*
X252222000Y-88747600D03*
X249682000Y-91287600D03*
X252222000Y-91287600D03*
X249682000Y-93827600D03*
X252222000Y-93827600D03*
D11*
X237401100Y-99669600D03*
D12*
X239941100Y-99669600D03*
X237401100Y-102209600D03*
X239941100Y-102209600D03*
X237401100Y-104749600D03*
X239941100Y-104749600D03*
D11*
X249682000Y-110591600D03*
D12*
X252222000Y-110591600D03*
X249682000Y-113131600D03*
X252222000Y-113131600D03*
X249682000Y-115671600D03*
X252222000Y-115671600D03*
D11*
X249682000Y-77825600D03*
D12*
X252222000Y-77825600D03*
X249682000Y-80365600D03*
X252222000Y-80365600D03*
X249682000Y-82905600D03*
X252222000Y-82905600D03*
D11*
X249682000Y-99669600D03*
D12*
X252222000Y-99669600D03*
X249682000Y-102209600D03*
X252222000Y-102209600D03*
X249682000Y-104749600D03*
X252222000Y-104749600D03*
D11*
X237401100Y-110591600D03*
D12*
X239941100Y-110591600D03*
X237401100Y-113131600D03*
X239941100Y-113131600D03*
X237401100Y-115671600D03*
X239941100Y-115671600D03*
D11*
X228854000Y-77825600D03*
D12*
X231394000Y-77825600D03*
X228854000Y-80365600D03*
X231394000Y-80365600D03*
X228854000Y-82905600D03*
X231394000Y-82905600D03*
D11*
X195745100Y-77825600D03*
D12*
X198285100Y-77825600D03*
X195745100Y-80365600D03*
X198285100Y-80365600D03*
X195745100Y-82905600D03*
X198285100Y-82905600D03*
D11*
X208026000Y-77825600D03*
D12*
X210566000Y-77825600D03*
X208026000Y-80365600D03*
X210566000Y-80365600D03*
X208026000Y-82905600D03*
X210566000Y-82905600D03*
D11*
X195745100Y-88747600D03*
D12*
X198285100Y-88747600D03*
X195745100Y-91287600D03*
X198285100Y-91287600D03*
X195745100Y-93827600D03*
X198285100Y-93827600D03*
D11*
X216573100Y-77825600D03*
D12*
X219113100Y-77825600D03*
X216573100Y-80365600D03*
X219113100Y-80365600D03*
X216573100Y-82905600D03*
X219113100Y-82905600D03*
D11*
X208026000Y-88747600D03*
D12*
X210566000Y-88747600D03*
X208026000Y-91287600D03*
X210566000Y-91287600D03*
X208026000Y-93827600D03*
X210566000Y-93827600D03*
D11*
X228854000Y-88747600D03*
D12*
X231394000Y-88747600D03*
X228854000Y-91287600D03*
X231394000Y-91287600D03*
X228854000Y-93827600D03*
X231394000Y-93827600D03*
D11*
X216573100Y-88747600D03*
D12*
X219113100Y-88747600D03*
X216573100Y-91287600D03*
X219113100Y-91287600D03*
X216573100Y-93827600D03*
X219113100Y-93827600D03*
D11*
X228854000Y-99669600D03*
D12*
X231394000Y-99669600D03*
X228854000Y-102209600D03*
X231394000Y-102209600D03*
X228854000Y-104749600D03*
X231394000Y-104749600D03*
D11*
X195745100Y-110591600D03*
D12*
X198285100Y-110591600D03*
X195745100Y-113131600D03*
X198285100Y-113131600D03*
X195745100Y-115671600D03*
X198285100Y-115671600D03*
D11*
X208026000Y-110591600D03*
D12*
X210566000Y-110591600D03*
X208026000Y-113131600D03*
X210566000Y-113131600D03*
X208026000Y-115671600D03*
X210566000Y-115671600D03*
D11*
X195745100Y-99669600D03*
D12*
X198285100Y-99669600D03*
X195745100Y-102209600D03*
X198285100Y-102209600D03*
X195745100Y-104749600D03*
X198285100Y-104749600D03*
D11*
X228854000Y-110591600D03*
D12*
X231394000Y-110591600D03*
X228854000Y-113131600D03*
X231394000Y-113131600D03*
X228854000Y-115671600D03*
X231394000Y-115671600D03*
D11*
X216573100Y-99669600D03*
D12*
X219113100Y-99669600D03*
X216573100Y-102209600D03*
X219113100Y-102209600D03*
X216573100Y-104749600D03*
X219113100Y-104749600D03*
D11*
X216573100Y-110591600D03*
D12*
X219113100Y-110591600D03*
X216573100Y-113131600D03*
X219113100Y-113131600D03*
X216573100Y-115671600D03*
X219113100Y-115671600D03*
D11*
X208026000Y-99669600D03*
D12*
X210566000Y-99669600D03*
X208026000Y-102209600D03*
X210566000Y-102209600D03*
X208026000Y-104749600D03*
X210566000Y-104749600D03*
D11*
X187198000Y-99669600D03*
D12*
X189738000Y-99669600D03*
X187198000Y-102209600D03*
X189738000Y-102209600D03*
X187198000Y-104749600D03*
X189738000Y-104749600D03*
D11*
X187198000Y-88747600D03*
D12*
X189738000Y-88747600D03*
X187198000Y-91287600D03*
X189738000Y-91287600D03*
X187198000Y-93827600D03*
X189738000Y-93827600D03*
D11*
X174917100Y-77825600D03*
D12*
X177457100Y-77825600D03*
X174917100Y-80365600D03*
X177457100Y-80365600D03*
X174917100Y-82905600D03*
X177457100Y-82905600D03*
D11*
X187198000Y-77825600D03*
D12*
X189738000Y-77825600D03*
X187198000Y-80365600D03*
X189738000Y-80365600D03*
X187198000Y-82905600D03*
X189738000Y-82905600D03*
D11*
X174917100Y-110591600D03*
D12*
X177457100Y-110591600D03*
X174917100Y-113131600D03*
X177457100Y-113131600D03*
X174917100Y-115671600D03*
X177457100Y-115671600D03*
D11*
X187198000Y-110591600D03*
D12*
X189738000Y-110591600D03*
X187198000Y-113131600D03*
X189738000Y-113131600D03*
X187198000Y-115671600D03*
X189738000Y-115671600D03*
D11*
X174917100Y-99669600D03*
D12*
X177457100Y-99669600D03*
X174917100Y-102209600D03*
X177457100Y-102209600D03*
X174917100Y-104749600D03*
X177457100Y-104749600D03*
D11*
X174917100Y-88747600D03*
D12*
X177457100Y-88747600D03*
X174917100Y-91287600D03*
X177457100Y-91287600D03*
X174917100Y-93827600D03*
X177457100Y-93827600D03*
D11*
X154089100Y-110591600D03*
D12*
X156629100Y-110591600D03*
X154089100Y-113131600D03*
X156629100Y-113131600D03*
X154089100Y-115671600D03*
X156629100Y-115671600D03*
D11*
X166370000Y-110591600D03*
D12*
X168910000Y-110591600D03*
X166370000Y-113131600D03*
X168910000Y-113131600D03*
X166370000Y-115671600D03*
X168910000Y-115671600D03*
D11*
X154089100Y-99669600D03*
D12*
X156629100Y-99669600D03*
X154089100Y-102209600D03*
X156629100Y-102209600D03*
X154089100Y-104749600D03*
X156629100Y-104749600D03*
D11*
X166370000Y-99669600D03*
D12*
X168910000Y-99669600D03*
X166370000Y-102209600D03*
X168910000Y-102209600D03*
X166370000Y-104749600D03*
X168910000Y-104749600D03*
D11*
X154089100Y-77825600D03*
D12*
X156629100Y-77825600D03*
X154089100Y-80365600D03*
X156629100Y-80365600D03*
X154089100Y-82905600D03*
X156629100Y-82905600D03*
D11*
X166370000Y-77825600D03*
D12*
X168910000Y-77825600D03*
X166370000Y-80365600D03*
X168910000Y-80365600D03*
X166370000Y-82905600D03*
X168910000Y-82905600D03*
D11*
X166370000Y-88747600D03*
D12*
X168910000Y-88747600D03*
X166370000Y-91287600D03*
X168910000Y-91287600D03*
X166370000Y-93827600D03*
X168910000Y-93827600D03*
D11*
X154089100Y-88747600D03*
D12*
X156629100Y-88747600D03*
X154089100Y-91287600D03*
X156629100Y-91287600D03*
X154089100Y-93827600D03*
X156629100Y-93827600D03*
D13*
X251358401Y-111455199D02*
X252222000Y-110591600D01*
X250870601Y-111942999D02*
X251358401Y-111455199D01*
X241292499Y-90098999D02*
X250870601Y-90098999D01*
X239941100Y-88747600D02*
X241292499Y-90098999D01*
X251358401Y-89611199D02*
X252222000Y-88747600D01*
X250870601Y-90098999D02*
X251358401Y-89611199D01*
X239941100Y-110591600D02*
X241292499Y-111942999D01*
X241292499Y-111942999D02*
X250870601Y-111942999D01*
X198285100Y-110591600D02*
X199636499Y-111942999D01*
X199636499Y-111942999D02*
X209214601Y-111942999D01*
X198285100Y-88747600D02*
X199636499Y-90098999D01*
X199636499Y-90098999D02*
X209214601Y-90098999D01*
X209214601Y-111942999D02*
X209702401Y-111455199D01*
X209702401Y-111455199D02*
X210566000Y-110591600D01*
X230042601Y-90098999D02*
X230530401Y-89611199D01*
X230530401Y-89611199D02*
X231394000Y-88747600D01*
X219113100Y-88747600D02*
X220464499Y-90098999D01*
X209214601Y-90098999D02*
X209702401Y-89611199D01*
X209702401Y-89611199D02*
X210566000Y-88747600D01*
X219113100Y-110591600D02*
X220464499Y-111942999D01*
X220464499Y-111942999D02*
X230042601Y-111942999D01*
X230530401Y-111455199D02*
X231394000Y-110591600D01*
X230042601Y-111942999D02*
X230530401Y-111455199D01*
X220464499Y-90098999D02*
X230042601Y-90098999D01*
X188386601Y-111942999D02*
X188874401Y-111455199D01*
X188874401Y-111455199D02*
X189738000Y-110591600D01*
X177457100Y-110591600D02*
X178808499Y-111942999D01*
X178808499Y-111942999D02*
X188386601Y-111942999D01*
X188874401Y-89611199D02*
X189738000Y-88747600D01*
X188386601Y-90098999D02*
X188874401Y-89611199D01*
X178808499Y-90098999D02*
X188386601Y-90098999D01*
X177457100Y-88747600D02*
X178808499Y-90098999D01*
X168046401Y-111455199D02*
X168910000Y-110591600D01*
X157980499Y-111942999D02*
X167558601Y-111942999D01*
X167558601Y-111942999D02*
X168046401Y-111455199D01*
X156629100Y-110591600D02*
X157980499Y-111942999D01*
X156629100Y-88747600D02*
X157980499Y-90098999D01*
X157980499Y-90098999D02*
X167558601Y-90098999D01*
X167558601Y-90098999D02*
X168046401Y-89611199D01*
X168046401Y-89611199D02*
X168910000Y-88747600D01*
X251033399Y-114320201D02*
X251358401Y-113995199D01*
X251358401Y-113995199D02*
X252222000Y-113131600D01*
X241129701Y-92476201D02*
X251033399Y-92476201D01*
X239941100Y-91287600D02*
X241129701Y-92476201D01*
X251033399Y-92476201D02*
X251358401Y-92151199D01*
X251358401Y-92151199D02*
X252222000Y-91287600D01*
X239941100Y-113131600D02*
X241129701Y-114320201D01*
X241129701Y-114320201D02*
X251033399Y-114320201D01*
X199473701Y-114320201D02*
X209377399Y-114320201D01*
X198285100Y-113131600D02*
X199473701Y-114320201D01*
X198285100Y-91287600D02*
X199473701Y-92476201D01*
X199473701Y-92476201D02*
X209377399Y-92476201D01*
X209377399Y-114320201D02*
X209702401Y-113995199D01*
X209702401Y-113995199D02*
X210566000Y-113131600D01*
X230205399Y-92476201D02*
X230530401Y-92151199D01*
X230530401Y-92151199D02*
X231394000Y-91287600D01*
X219113100Y-91287600D02*
X220301701Y-92476201D01*
X220301701Y-114320201D02*
X230205399Y-114320201D01*
X219113100Y-113131600D02*
X220301701Y-114320201D01*
X209377399Y-92476201D02*
X209702401Y-92151199D01*
X209702401Y-92151199D02*
X210566000Y-91287600D01*
X230205399Y-114320201D02*
X230530401Y-113995199D01*
X230530401Y-113995199D02*
X231394000Y-113131600D01*
X220301701Y-92476201D02*
X230205399Y-92476201D01*
X188549399Y-114320201D02*
X188874401Y-113995199D01*
X188874401Y-113995199D02*
X189738000Y-113131600D01*
X177457100Y-113131600D02*
X178645701Y-114320201D01*
X178645701Y-114320201D02*
X188549399Y-114320201D01*
X188874401Y-92151199D02*
X189738000Y-91287600D01*
X188549399Y-92476201D02*
X188874401Y-92151199D01*
X178645701Y-92476201D02*
X188549399Y-92476201D01*
X177457100Y-91287600D02*
X178645701Y-92476201D01*
X167721399Y-114320201D02*
X168046401Y-113995199D01*
X168046401Y-113995199D02*
X168910000Y-113131600D01*
X156629100Y-113131600D02*
X157817701Y-114320201D01*
X157817701Y-114320201D02*
X167721399Y-114320201D01*
X156629100Y-91287600D02*
X157817701Y-92476201D01*
X167721399Y-92476201D02*
X168046401Y-92151199D01*
X157817701Y-92476201D02*
X167721399Y-92476201D01*
X168046401Y-92151199D02*
X168910000Y-91287600D01*
X251033399Y-116860201D02*
X251358401Y-116535199D01*
X251358401Y-116535199D02*
X252222000Y-115671600D01*
X239941100Y-93827600D02*
X241129701Y-95016201D01*
X241129701Y-95016201D02*
X251033399Y-95016201D01*
X251033399Y-95016201D02*
X251358401Y-94691199D01*
X251358401Y-94691199D02*
X252222000Y-93827600D01*
X239941100Y-115671600D02*
X241129701Y-116860201D01*
X241129701Y-116860201D02*
X251033399Y-116860201D01*
X209702401Y-116535199D02*
X210566000Y-115671600D01*
X209377399Y-116860201D02*
X209702401Y-116535199D01*
X199473701Y-116860201D02*
X209377399Y-116860201D01*
X198285100Y-115671600D02*
X199473701Y-116860201D01*
X198285100Y-93827600D02*
X199473701Y-95016201D01*
X199473701Y-95016201D02*
X209377399Y-95016201D01*
X219113100Y-93827600D02*
X220301701Y-95016201D01*
X219113100Y-115671600D02*
X220301701Y-116860201D01*
X220301701Y-116860201D02*
X230205399Y-116860201D01*
X209702401Y-94691199D02*
X210566000Y-93827600D01*
X209377399Y-95016201D02*
X209702401Y-94691199D01*
X230205399Y-116860201D02*
X230530401Y-116535199D01*
X230530401Y-116535199D02*
X231394000Y-115671600D01*
X230205399Y-95016201D02*
X230530401Y-94691199D01*
X230530401Y-94691199D02*
X231394000Y-93827600D01*
X220301701Y-95016201D02*
X230205399Y-95016201D01*
X188549399Y-116860201D02*
X188874401Y-116535199D01*
X188874401Y-116535199D02*
X189738000Y-115671600D01*
X178645701Y-116860201D02*
X188549399Y-116860201D01*
X177457100Y-115671600D02*
X178645701Y-116860201D01*
X188549399Y-95016201D02*
X188874401Y-94691199D01*
X188874401Y-94691199D02*
X189738000Y-93827600D01*
X178645701Y-95016201D02*
X188549399Y-95016201D01*
X177457100Y-93827600D02*
X178645701Y-95016201D01*
X168046401Y-116535199D02*
X168910000Y-115671600D01*
X167721399Y-116860201D02*
X168046401Y-116535199D01*
X156629100Y-115671600D02*
X157817701Y-116860201D01*
X157817701Y-116860201D02*
X167721399Y-116860201D01*
X156629100Y-93827600D02*
X157817701Y-95016201D01*
X157817701Y-95016201D02*
X167721399Y-95016201D01*
X167721399Y-95016201D02*
X168046401Y-94691199D01*
X168046401Y-94691199D02*
X168910000Y-93827600D01*
M02*
