G04 #@! TF.FileFunction,Profile,NP*
%FSLAX46Y46*%
G04 Gerber Fmt 4.6, Leading zero omitted, Abs format (unit mm)*
G04 Created by KiCad (PCBNEW 4.0.5+dfsg1-4) date Wed Oct 11 12:16:19 2017*
%MOMM*%
%LPD*%
G01*
G04 APERTURE LIST*
%ADD10C,0.100000*%
%ADD11C,0.150000*%
G04 APERTURE END LIST*
D10*
D11*
X254000000Y-76200000D02*
X235712000Y-76200000D01*
X233172000Y-76200000D02*
X214884000Y-76200000D01*
X212344000Y-76200000D02*
X194056000Y-76200000D01*
X191516000Y-76200000D02*
X173228000Y-76200000D01*
X170688000Y-76200000D02*
X152400000Y-76200000D01*
X152400000Y-76200000D02*
X152400000Y-84582000D01*
X152400000Y-87122000D02*
X152400000Y-95504000D01*
X152400000Y-98044000D02*
X152400000Y-106426000D01*
X152400000Y-108966000D02*
X152400000Y-117348000D01*
X170688000Y-117348000D02*
X152400000Y-117348000D01*
X191516000Y-117348000D02*
X173228000Y-117348000D01*
X212344000Y-117348000D02*
X194056000Y-117348000D01*
X233172000Y-117348000D02*
X214884000Y-117348000D01*
X254000000Y-117348000D02*
X235712000Y-117348000D01*
X254000000Y-84582000D02*
X254000000Y-76200000D01*
X254000000Y-95504000D02*
X254000000Y-87122000D01*
X254000000Y-106426000D02*
X254000000Y-98044000D01*
X254000000Y-117348000D02*
X254000000Y-108966000D01*
X245110000Y-86614000D02*
G75*
G03X245110000Y-86614000I-254000J0D01*
G01*
X246126000Y-87122000D02*
X254000000Y-87122000D01*
X254000000Y-84582000D02*
X246126000Y-84582000D01*
X245872000Y-85090000D02*
G75*
G03X245872000Y-85090000I-254000J0D01*
G01*
X246126000Y-87122000D02*
X246126000Y-84582000D01*
X245872000Y-86614000D02*
G75*
G03X245872000Y-86614000I-254000J0D01*
G01*
X246126000Y-98044000D02*
X246126000Y-95504000D01*
X254000000Y-95504000D02*
X246126000Y-95504000D01*
X235712000Y-106426000D02*
X235712000Y-103505000D01*
X235458000Y-102997000D02*
G75*
G03X235458000Y-102997000I-254000J0D01*
G01*
X233172000Y-103505000D02*
X235712000Y-103505000D01*
X233934000Y-102235000D02*
G75*
G03X233934000Y-102235000I-254000J0D01*
G01*
X235458000Y-102235000D02*
G75*
G03X235458000Y-102235000I-254000J0D01*
G01*
X235458000Y-101473000D02*
G75*
G03X235458000Y-101473000I-254000J0D01*
G01*
X233934000Y-102997000D02*
G75*
G03X233934000Y-102997000I-254000J0D01*
G01*
X233934000Y-101473000D02*
G75*
G03X233934000Y-101473000I-254000J0D01*
G01*
X233934000Y-113919000D02*
G75*
G03X233934000Y-113919000I-254000J0D01*
G01*
X233934000Y-113157000D02*
G75*
G03X233934000Y-113157000I-254000J0D01*
G01*
X235458000Y-113919000D02*
G75*
G03X235458000Y-113919000I-254000J0D01*
G01*
X233172000Y-114427000D02*
X235712000Y-114427000D01*
X233934000Y-112395000D02*
G75*
G03X233934000Y-112395000I-254000J0D01*
G01*
X235458000Y-112395000D02*
G75*
G03X235458000Y-112395000I-254000J0D01*
G01*
X235458000Y-113157000D02*
G75*
G03X235458000Y-113157000I-254000J0D01*
G01*
X235712000Y-117348000D02*
X235712000Y-114427000D01*
X235712000Y-111887000D02*
X235712000Y-108966000D01*
X233172000Y-111887000D02*
X235712000Y-111887000D01*
X245872000Y-108458000D02*
G75*
G03X245872000Y-108458000I-254000J0D01*
G01*
X243586000Y-108966000D02*
X235712000Y-108966000D01*
X245110000Y-108458000D02*
G75*
G03X245110000Y-108458000I-254000J0D01*
G01*
X245872000Y-106934000D02*
G75*
G03X245872000Y-106934000I-254000J0D01*
G01*
X243586000Y-106426000D02*
X243586000Y-108966000D01*
X243586000Y-106426000D02*
X235712000Y-106426000D01*
X244348000Y-106934000D02*
G75*
G03X244348000Y-106934000I-254000J0D01*
G01*
X244348000Y-108458000D02*
G75*
G03X244348000Y-108458000I-254000J0D01*
G01*
X246126000Y-108966000D02*
X254000000Y-108966000D01*
X246126000Y-108966000D02*
X246126000Y-106426000D01*
X245110000Y-106934000D02*
G75*
G03X245110000Y-106934000I-254000J0D01*
G01*
X254000000Y-106426000D02*
X246126000Y-106426000D01*
X254000000Y-98044000D02*
X246126000Y-98044000D01*
X245110000Y-85090000D02*
G75*
G03X245110000Y-85090000I-254000J0D01*
G01*
X235712000Y-95504000D02*
X235712000Y-92583000D01*
X235458000Y-91313000D02*
G75*
G03X235458000Y-91313000I-254000J0D01*
G01*
X235458000Y-92075000D02*
G75*
G03X235458000Y-92075000I-254000J0D01*
G01*
X233934000Y-92075000D02*
G75*
G03X233934000Y-92075000I-254000J0D01*
G01*
X233172000Y-92583000D02*
X235712000Y-92583000D01*
X233934000Y-91313000D02*
G75*
G03X233934000Y-91313000I-254000J0D01*
G01*
X233934000Y-81153000D02*
G75*
G03X233934000Y-81153000I-254000J0D01*
G01*
X233172000Y-81661000D02*
X235712000Y-81661000D01*
X235712000Y-84582000D02*
X235712000Y-81661000D01*
X235458000Y-81153000D02*
G75*
G03X235458000Y-81153000I-254000J0D01*
G01*
X233172000Y-79121000D02*
X235712000Y-79121000D01*
X235712000Y-79121000D02*
X235712000Y-76200000D01*
X233934000Y-80391000D02*
G75*
G03X233934000Y-80391000I-254000J0D01*
G01*
X233934000Y-79629000D02*
G75*
G03X233934000Y-79629000I-254000J0D01*
G01*
X235458000Y-79629000D02*
G75*
G03X235458000Y-79629000I-254000J0D01*
G01*
X235458000Y-80391000D02*
G75*
G03X235458000Y-80391000I-254000J0D01*
G01*
X233172000Y-90043000D02*
X235712000Y-90043000D01*
X233934000Y-90551000D02*
G75*
G03X233934000Y-90551000I-254000J0D01*
G01*
X235458000Y-90551000D02*
G75*
G03X235458000Y-90551000I-254000J0D01*
G01*
X235712000Y-90043000D02*
X235712000Y-87122000D01*
X244348000Y-85090000D02*
G75*
G03X244348000Y-85090000I-254000J0D01*
G01*
X243586000Y-84582000D02*
X235712000Y-84582000D01*
X243586000Y-84582000D02*
X243586000Y-87122000D01*
X243586000Y-87122000D02*
X235712000Y-87122000D01*
X244348000Y-86614000D02*
G75*
G03X244348000Y-86614000I-254000J0D01*
G01*
X245110000Y-96012000D02*
G75*
G03X245110000Y-96012000I-254000J0D01*
G01*
X245872000Y-97536000D02*
G75*
G03X245872000Y-97536000I-254000J0D01*
G01*
X245872000Y-96012000D02*
G75*
G03X245872000Y-96012000I-254000J0D01*
G01*
X245110000Y-97536000D02*
G75*
G03X245110000Y-97536000I-254000J0D01*
G01*
X244348000Y-96012000D02*
G75*
G03X244348000Y-96012000I-254000J0D01*
G01*
X233172000Y-100965000D02*
X235712000Y-100965000D01*
X243586000Y-98044000D02*
X235712000Y-98044000D01*
X243586000Y-95504000D02*
X243586000Y-98044000D01*
X244348000Y-97536000D02*
G75*
G03X244348000Y-97536000I-254000J0D01*
G01*
X243586000Y-95504000D02*
X235712000Y-95504000D01*
X235712000Y-100965000D02*
X235712000Y-98044000D01*
X213106000Y-113919000D02*
G75*
G03X213106000Y-113919000I-254000J0D01*
G01*
X212344000Y-114427000D02*
X214884000Y-114427000D01*
X214884000Y-117348000D02*
X214884000Y-114427000D01*
X212344000Y-117348000D02*
X212344000Y-114427000D01*
X214630000Y-113919000D02*
G75*
G03X214630000Y-113919000I-254000J0D01*
G01*
X213106000Y-113157000D02*
G75*
G03X213106000Y-113157000I-254000J0D01*
G01*
X214884000Y-111887000D02*
X214884000Y-108966000D01*
X212344000Y-111887000D02*
X214884000Y-111887000D01*
X213106000Y-112395000D02*
G75*
G03X213106000Y-112395000I-254000J0D01*
G01*
X214630000Y-113157000D02*
G75*
G03X214630000Y-113157000I-254000J0D01*
G01*
X214630000Y-112395000D02*
G75*
G03X214630000Y-112395000I-254000J0D01*
G01*
X212344000Y-111887000D02*
X212344000Y-108966000D01*
X214630000Y-102997000D02*
G75*
G03X214630000Y-102997000I-254000J0D01*
G01*
X213106000Y-102997000D02*
G75*
G03X213106000Y-102997000I-254000J0D01*
G01*
X214884000Y-106426000D02*
X214884000Y-103505000D01*
X212344000Y-103505000D02*
X214884000Y-103505000D01*
X212344000Y-106426000D02*
X212344000Y-103505000D01*
X214630000Y-102235000D02*
G75*
G03X214630000Y-102235000I-254000J0D01*
G01*
X214630000Y-101473000D02*
G75*
G03X214630000Y-101473000I-254000J0D01*
G01*
X212344000Y-100965000D02*
X214884000Y-100965000D01*
X214884000Y-100965000D02*
X214884000Y-98044000D01*
X212344000Y-100965000D02*
X212344000Y-98044000D01*
X204216000Y-106934000D02*
G75*
G03X204216000Y-106934000I-254000J0D01*
G01*
X203454000Y-106934000D02*
G75*
G03X203454000Y-106934000I-254000J0D01*
G01*
X204470000Y-108966000D02*
X212344000Y-108966000D01*
X204470000Y-108966000D02*
X204470000Y-106426000D01*
X202692000Y-106934000D02*
G75*
G03X202692000Y-106934000I-254000J0D01*
G01*
X212344000Y-90043000D02*
X214884000Y-90043000D01*
X213106000Y-90551000D02*
G75*
G03X213106000Y-90551000I-254000J0D01*
G01*
X214884000Y-90043000D02*
X214884000Y-87122000D01*
X214630000Y-90551000D02*
G75*
G03X214630000Y-90551000I-254000J0D01*
G01*
X223520000Y-96012000D02*
G75*
G03X223520000Y-96012000I-254000J0D01*
G01*
X222758000Y-98044000D02*
X214884000Y-98044000D01*
X223520000Y-97536000D02*
G75*
G03X223520000Y-97536000I-254000J0D01*
G01*
X222758000Y-95504000D02*
X222758000Y-98044000D01*
X222758000Y-95504000D02*
X214884000Y-95504000D01*
X214884000Y-95504000D02*
X214884000Y-92583000D01*
X213106000Y-91313000D02*
G75*
G03X213106000Y-91313000I-254000J0D01*
G01*
X214630000Y-91313000D02*
G75*
G03X214630000Y-91313000I-254000J0D01*
G01*
X214630000Y-92075000D02*
G75*
G03X214630000Y-92075000I-254000J0D01*
G01*
X212344000Y-92583000D02*
X214884000Y-92583000D01*
X213106000Y-92075000D02*
G75*
G03X213106000Y-92075000I-254000J0D01*
G01*
X214630000Y-79629000D02*
G75*
G03X214630000Y-79629000I-254000J0D01*
G01*
X213106000Y-81153000D02*
G75*
G03X213106000Y-81153000I-254000J0D01*
G01*
X213106000Y-80391000D02*
G75*
G03X213106000Y-80391000I-254000J0D01*
G01*
X214630000Y-80391000D02*
G75*
G03X214630000Y-80391000I-254000J0D01*
G01*
X214630000Y-81153000D02*
G75*
G03X214630000Y-81153000I-254000J0D01*
G01*
X212344000Y-81661000D02*
X214884000Y-81661000D01*
X212344000Y-79121000D02*
X214884000Y-79121000D01*
X213106000Y-79629000D02*
G75*
G03X213106000Y-79629000I-254000J0D01*
G01*
X223520000Y-85090000D02*
G75*
G03X223520000Y-85090000I-254000J0D01*
G01*
X222758000Y-84582000D02*
X214884000Y-84582000D01*
X222758000Y-84582000D02*
X222758000Y-87122000D01*
X222758000Y-87122000D02*
X214884000Y-87122000D01*
X214884000Y-84582000D02*
X214884000Y-81661000D01*
X214884000Y-79121000D02*
X214884000Y-76200000D01*
X223520000Y-86614000D02*
G75*
G03X223520000Y-86614000I-254000J0D01*
G01*
X225298000Y-98044000D02*
X225298000Y-95504000D01*
X233172000Y-95504000D02*
X225298000Y-95504000D01*
X233172000Y-95504000D02*
X233172000Y-92583000D01*
X233172000Y-100965000D02*
X233172000Y-98044000D01*
X233172000Y-98044000D02*
X225298000Y-98044000D01*
X225044000Y-85090000D02*
G75*
G03X225044000Y-85090000I-254000J0D01*
G01*
X225298000Y-87122000D02*
X225298000Y-84582000D01*
X224282000Y-86614000D02*
G75*
G03X224282000Y-86614000I-254000J0D01*
G01*
X225044000Y-86614000D02*
G75*
G03X225044000Y-86614000I-254000J0D01*
G01*
X224282000Y-85090000D02*
G75*
G03X224282000Y-85090000I-254000J0D01*
G01*
X233172000Y-79121000D02*
X233172000Y-76200000D01*
X225298000Y-87122000D02*
X233172000Y-87122000D01*
X233172000Y-84582000D02*
X225298000Y-84582000D01*
X233172000Y-84582000D02*
X233172000Y-81661000D01*
X233172000Y-90043000D02*
X233172000Y-87122000D01*
X202692000Y-85090000D02*
G75*
G03X202692000Y-85090000I-254000J0D01*
G01*
X201930000Y-87122000D02*
X194056000Y-87122000D01*
X201930000Y-84582000D02*
X194056000Y-84582000D01*
X201930000Y-84582000D02*
X201930000Y-87122000D01*
X202692000Y-86614000D02*
G75*
G03X202692000Y-86614000I-254000J0D01*
G01*
X203454000Y-86614000D02*
G75*
G03X203454000Y-86614000I-254000J0D01*
G01*
X204216000Y-86614000D02*
G75*
G03X204216000Y-86614000I-254000J0D01*
G01*
X203454000Y-85090000D02*
G75*
G03X203454000Y-85090000I-254000J0D01*
G01*
X204470000Y-87122000D02*
X204470000Y-84582000D01*
X204216000Y-85090000D02*
G75*
G03X204216000Y-85090000I-254000J0D01*
G01*
X194056000Y-95504000D02*
X194056000Y-92583000D01*
X201930000Y-95504000D02*
X194056000Y-95504000D01*
X193802000Y-92075000D02*
G75*
G03X193802000Y-92075000I-254000J0D01*
G01*
X193802000Y-91313000D02*
G75*
G03X193802000Y-91313000I-254000J0D01*
G01*
X191516000Y-90043000D02*
X194056000Y-90043000D01*
X194056000Y-90043000D02*
X194056000Y-87122000D01*
X192278000Y-91313000D02*
G75*
G03X192278000Y-91313000I-254000J0D01*
G01*
X192278000Y-92075000D02*
G75*
G03X192278000Y-92075000I-254000J0D01*
G01*
X192278000Y-90551000D02*
G75*
G03X192278000Y-90551000I-254000J0D01*
G01*
X191516000Y-92583000D02*
X194056000Y-92583000D01*
X193802000Y-90551000D02*
G75*
G03X193802000Y-90551000I-254000J0D01*
G01*
X213106000Y-102235000D02*
G75*
G03X213106000Y-102235000I-254000J0D01*
G01*
X213106000Y-101473000D02*
G75*
G03X213106000Y-101473000I-254000J0D01*
G01*
X212344000Y-98044000D02*
X204470000Y-98044000D01*
X212344000Y-106426000D02*
X204470000Y-106426000D01*
X193802000Y-102235000D02*
G75*
G03X193802000Y-102235000I-254000J0D01*
G01*
X193802000Y-102997000D02*
G75*
G03X193802000Y-102997000I-254000J0D01*
G01*
X194056000Y-100965000D02*
X194056000Y-98044000D01*
X201930000Y-98044000D02*
X194056000Y-98044000D01*
X204216000Y-108458000D02*
G75*
G03X204216000Y-108458000I-254000J0D01*
G01*
X202692000Y-108458000D02*
G75*
G03X202692000Y-108458000I-254000J0D01*
G01*
X201930000Y-106426000D02*
X201930000Y-108966000D01*
X203454000Y-108458000D02*
G75*
G03X203454000Y-108458000I-254000J0D01*
G01*
X204470000Y-98044000D02*
X204470000Y-95504000D01*
X202692000Y-96012000D02*
G75*
G03X202692000Y-96012000I-254000J0D01*
G01*
X202692000Y-97536000D02*
G75*
G03X202692000Y-97536000I-254000J0D01*
G01*
X203454000Y-97536000D02*
G75*
G03X203454000Y-97536000I-254000J0D01*
G01*
X204216000Y-96012000D02*
G75*
G03X204216000Y-96012000I-254000J0D01*
G01*
X204216000Y-97536000D02*
G75*
G03X204216000Y-97536000I-254000J0D01*
G01*
X203454000Y-96012000D02*
G75*
G03X203454000Y-96012000I-254000J0D01*
G01*
X201930000Y-95504000D02*
X201930000Y-98044000D01*
X192278000Y-79629000D02*
G75*
G03X192278000Y-79629000I-254000J0D01*
G01*
X192278000Y-80391000D02*
G75*
G03X192278000Y-80391000I-254000J0D01*
G01*
X194056000Y-79121000D02*
X194056000Y-76200000D01*
X192278000Y-81153000D02*
G75*
G03X192278000Y-81153000I-254000J0D01*
G01*
X212344000Y-79121000D02*
X212344000Y-76200000D01*
X212344000Y-84582000D02*
X204470000Y-84582000D01*
X212344000Y-84582000D02*
X212344000Y-81661000D01*
X212344000Y-90043000D02*
X212344000Y-87122000D01*
X212344000Y-95504000D02*
X204470000Y-95504000D01*
X204470000Y-87122000D02*
X212344000Y-87122000D01*
X212344000Y-95504000D02*
X212344000Y-92583000D01*
X191516000Y-81661000D02*
X194056000Y-81661000D01*
X193802000Y-81153000D02*
G75*
G03X193802000Y-81153000I-254000J0D01*
G01*
X193802000Y-80391000D02*
G75*
G03X193802000Y-80391000I-254000J0D01*
G01*
X193802000Y-79629000D02*
G75*
G03X193802000Y-79629000I-254000J0D01*
G01*
X191516000Y-79121000D02*
X194056000Y-79121000D01*
X194056000Y-84582000D02*
X194056000Y-81661000D01*
X193802000Y-101473000D02*
G75*
G03X193802000Y-101473000I-254000J0D01*
G01*
X191516000Y-100965000D02*
X194056000Y-100965000D01*
X192278000Y-101473000D02*
G75*
G03X192278000Y-101473000I-254000J0D01*
G01*
X194056000Y-106426000D02*
X194056000Y-103505000D01*
X192278000Y-102997000D02*
G75*
G03X192278000Y-102997000I-254000J0D01*
G01*
X191516000Y-103505000D02*
X194056000Y-103505000D01*
X192278000Y-102235000D02*
G75*
G03X192278000Y-102235000I-254000J0D01*
G01*
X194056000Y-111887000D02*
X194056000Y-108966000D01*
X194056000Y-117348000D02*
X194056000Y-114427000D01*
X201930000Y-108966000D02*
X194056000Y-108966000D01*
X193802000Y-112395000D02*
G75*
G03X193802000Y-112395000I-254000J0D01*
G01*
X201930000Y-106426000D02*
X194056000Y-106426000D01*
X191516000Y-111887000D02*
X194056000Y-111887000D01*
X192278000Y-113157000D02*
G75*
G03X192278000Y-113157000I-254000J0D01*
G01*
X193802000Y-113919000D02*
G75*
G03X193802000Y-113919000I-254000J0D01*
G01*
X193802000Y-113157000D02*
G75*
G03X193802000Y-113157000I-254000J0D01*
G01*
X191516000Y-114427000D02*
X194056000Y-114427000D01*
X192278000Y-113919000D02*
G75*
G03X192278000Y-113919000I-254000J0D01*
G01*
X192278000Y-112395000D02*
G75*
G03X192278000Y-112395000I-254000J0D01*
G01*
X222758000Y-106426000D02*
X222758000Y-108966000D01*
X222758000Y-106426000D02*
X214884000Y-106426000D01*
X222758000Y-108966000D02*
X214884000Y-108966000D01*
X223520000Y-108458000D02*
G75*
G03X223520000Y-108458000I-254000J0D01*
G01*
X233172000Y-117348000D02*
X233172000Y-114427000D01*
X233172000Y-106426000D02*
X233172000Y-103505000D01*
X233172000Y-111887000D02*
X233172000Y-108966000D01*
X225298000Y-108966000D02*
X233172000Y-108966000D01*
X225298000Y-108966000D02*
X225298000Y-106426000D01*
X233172000Y-106426000D02*
X225298000Y-106426000D01*
X225044000Y-108458000D02*
G75*
G03X225044000Y-108458000I-254000J0D01*
G01*
X224282000Y-106934000D02*
G75*
G03X224282000Y-106934000I-254000J0D01*
G01*
X225044000Y-106934000D02*
G75*
G03X225044000Y-106934000I-254000J0D01*
G01*
X224282000Y-108458000D02*
G75*
G03X224282000Y-108458000I-254000J0D01*
G01*
X223520000Y-106934000D02*
G75*
G03X223520000Y-106934000I-254000J0D01*
G01*
X224282000Y-96012000D02*
G75*
G03X224282000Y-96012000I-254000J0D01*
G01*
X224282000Y-97536000D02*
G75*
G03X224282000Y-97536000I-254000J0D01*
G01*
X225044000Y-97536000D02*
G75*
G03X225044000Y-97536000I-254000J0D01*
G01*
X225044000Y-96012000D02*
G75*
G03X225044000Y-96012000I-254000J0D01*
G01*
X181102000Y-95504000D02*
X173228000Y-95504000D01*
X181864000Y-86614000D02*
G75*
G03X181864000Y-86614000I-254000J0D01*
G01*
X173228000Y-90043000D02*
X173228000Y-87122000D01*
X181864000Y-85090000D02*
G75*
G03X181864000Y-85090000I-254000J0D01*
G01*
X181102000Y-84582000D02*
X173228000Y-84582000D01*
X181102000Y-84582000D02*
X181102000Y-87122000D01*
X181102000Y-87122000D02*
X173228000Y-87122000D01*
X171450000Y-81153000D02*
G75*
G03X171450000Y-81153000I-254000J0D01*
G01*
X173228000Y-84582000D02*
X173228000Y-81661000D01*
X172974000Y-81153000D02*
G75*
G03X172974000Y-81153000I-254000J0D01*
G01*
X170688000Y-81661000D02*
X173228000Y-81661000D01*
X173228000Y-79121000D02*
X173228000Y-76200000D01*
X170688000Y-79121000D02*
X173228000Y-79121000D01*
X172974000Y-80391000D02*
G75*
G03X172974000Y-80391000I-254000J0D01*
G01*
X171450000Y-79629000D02*
G75*
G03X171450000Y-79629000I-254000J0D01*
G01*
X171450000Y-80391000D02*
G75*
G03X171450000Y-80391000I-254000J0D01*
G01*
X172974000Y-79629000D02*
G75*
G03X172974000Y-79629000I-254000J0D01*
G01*
X170688000Y-90043000D02*
X173228000Y-90043000D01*
X172974000Y-90551000D02*
G75*
G03X172974000Y-90551000I-254000J0D01*
G01*
X171450000Y-91313000D02*
G75*
G03X171450000Y-91313000I-254000J0D01*
G01*
X171450000Y-90551000D02*
G75*
G03X171450000Y-90551000I-254000J0D01*
G01*
X172974000Y-91313000D02*
G75*
G03X172974000Y-91313000I-254000J0D01*
G01*
X172974000Y-92075000D02*
G75*
G03X172974000Y-92075000I-254000J0D01*
G01*
X170688000Y-92583000D02*
X173228000Y-92583000D01*
X171450000Y-92075000D02*
G75*
G03X171450000Y-92075000I-254000J0D01*
G01*
X173228000Y-95504000D02*
X173228000Y-92583000D01*
X183642000Y-108966000D02*
X191516000Y-108966000D01*
X191516000Y-117348000D02*
X191516000Y-114427000D01*
X191516000Y-111887000D02*
X191516000Y-108966000D01*
X183642000Y-87122000D02*
X191516000Y-87122000D01*
X191516000Y-95504000D02*
X191516000Y-92583000D01*
X191516000Y-90043000D02*
X191516000Y-87122000D01*
X191516000Y-95504000D02*
X183642000Y-95504000D01*
X191516000Y-84582000D02*
X183642000Y-84582000D01*
X191516000Y-84582000D02*
X191516000Y-81661000D01*
X191516000Y-79121000D02*
X191516000Y-76200000D01*
X183388000Y-85090000D02*
G75*
G03X183388000Y-85090000I-254000J0D01*
G01*
X182626000Y-86614000D02*
G75*
G03X182626000Y-86614000I-254000J0D01*
G01*
X183388000Y-86614000D02*
G75*
G03X183388000Y-86614000I-254000J0D01*
G01*
X182626000Y-85090000D02*
G75*
G03X182626000Y-85090000I-254000J0D01*
G01*
X183642000Y-87122000D02*
X183642000Y-84582000D01*
X191516000Y-98044000D02*
X183642000Y-98044000D01*
X191516000Y-106426000D02*
X191516000Y-103505000D01*
X191516000Y-100965000D02*
X191516000Y-98044000D01*
X191516000Y-106426000D02*
X183642000Y-106426000D01*
X183388000Y-97536000D02*
G75*
G03X183388000Y-97536000I-254000J0D01*
G01*
X173228000Y-106426000D02*
X173228000Y-103505000D01*
X170688000Y-103505000D02*
X173228000Y-103505000D01*
X171450000Y-102997000D02*
G75*
G03X171450000Y-102997000I-254000J0D01*
G01*
X172974000Y-102997000D02*
G75*
G03X172974000Y-102997000I-254000J0D01*
G01*
X171450000Y-102235000D02*
G75*
G03X171450000Y-102235000I-254000J0D01*
G01*
X172974000Y-102235000D02*
G75*
G03X172974000Y-102235000I-254000J0D01*
G01*
X171450000Y-113919000D02*
G75*
G03X171450000Y-113919000I-254000J0D01*
G01*
X171450000Y-113157000D02*
G75*
G03X171450000Y-113157000I-254000J0D01*
G01*
X171450000Y-112395000D02*
G75*
G03X171450000Y-112395000I-254000J0D01*
G01*
X172974000Y-113919000D02*
G75*
G03X172974000Y-113919000I-254000J0D01*
G01*
X170688000Y-114427000D02*
X173228000Y-114427000D01*
X172974000Y-112395000D02*
G75*
G03X172974000Y-112395000I-254000J0D01*
G01*
X172974000Y-113157000D02*
G75*
G03X172974000Y-113157000I-254000J0D01*
G01*
X170688000Y-111887000D02*
X173228000Y-111887000D01*
X182626000Y-108458000D02*
G75*
G03X182626000Y-108458000I-254000J0D01*
G01*
X181864000Y-108458000D02*
G75*
G03X181864000Y-108458000I-254000J0D01*
G01*
X183642000Y-108966000D02*
X183642000Y-106426000D01*
X183388000Y-108458000D02*
G75*
G03X183388000Y-108458000I-254000J0D01*
G01*
X182626000Y-106934000D02*
G75*
G03X182626000Y-106934000I-254000J0D01*
G01*
X181864000Y-106934000D02*
G75*
G03X181864000Y-106934000I-254000J0D01*
G01*
X183388000Y-106934000D02*
G75*
G03X183388000Y-106934000I-254000J0D01*
G01*
X173228000Y-117348000D02*
X173228000Y-114427000D01*
X181102000Y-106426000D02*
X173228000Y-106426000D01*
X181102000Y-108966000D02*
X173228000Y-108966000D01*
X173228000Y-111887000D02*
X173228000Y-108966000D01*
X181102000Y-106426000D02*
X181102000Y-108966000D01*
X172974000Y-101473000D02*
G75*
G03X172974000Y-101473000I-254000J0D01*
G01*
X170688000Y-100965000D02*
X173228000Y-100965000D01*
X171450000Y-101473000D02*
G75*
G03X171450000Y-101473000I-254000J0D01*
G01*
X173228000Y-100965000D02*
X173228000Y-98044000D01*
X181102000Y-98044000D02*
X173228000Y-98044000D01*
X181102000Y-95504000D02*
X181102000Y-98044000D01*
X181864000Y-97536000D02*
G75*
G03X181864000Y-97536000I-254000J0D01*
G01*
X181864000Y-96012000D02*
G75*
G03X181864000Y-96012000I-254000J0D01*
G01*
X182626000Y-97536000D02*
G75*
G03X182626000Y-97536000I-254000J0D01*
G01*
X183642000Y-98044000D02*
X183642000Y-95504000D01*
X183388000Y-96012000D02*
G75*
G03X183388000Y-96012000I-254000J0D01*
G01*
X182626000Y-96012000D02*
G75*
G03X182626000Y-96012000I-254000J0D01*
G01*
X162814000Y-108966000D02*
X170688000Y-108966000D01*
X170688000Y-117348000D02*
X170688000Y-114427000D01*
X170688000Y-111887000D02*
X170688000Y-108966000D01*
X170688000Y-100965000D02*
X170688000Y-98044000D01*
X170688000Y-106426000D02*
X170688000Y-103505000D01*
X170688000Y-106426000D02*
X162814000Y-106426000D01*
X170688000Y-98044000D02*
X162814000Y-98044000D01*
X162814000Y-108966000D02*
X162814000Y-106426000D01*
X162560000Y-106934000D02*
G75*
G03X162560000Y-106934000I-254000J0D01*
G01*
X161798000Y-108458000D02*
G75*
G03X161798000Y-108458000I-254000J0D01*
G01*
X162560000Y-108458000D02*
G75*
G03X162560000Y-108458000I-254000J0D01*
G01*
X161798000Y-106934000D02*
G75*
G03X161798000Y-106934000I-254000J0D01*
G01*
X160274000Y-98044000D02*
X152400000Y-98044000D01*
X160274000Y-106426000D02*
X160274000Y-108966000D01*
X160274000Y-106426000D02*
X152400000Y-106426000D01*
X161036000Y-106934000D02*
G75*
G03X161036000Y-106934000I-254000J0D01*
G01*
X160274000Y-108966000D02*
X152400000Y-108966000D01*
X161036000Y-108458000D02*
G75*
G03X161036000Y-108458000I-254000J0D01*
G01*
X170688000Y-95504000D02*
X170688000Y-92583000D01*
X170688000Y-90043000D02*
X170688000Y-87122000D01*
X170688000Y-84582000D02*
X170688000Y-81661000D01*
X170688000Y-79121000D02*
X170688000Y-76200000D01*
X160274000Y-95504000D02*
X152400000Y-95504000D01*
X162560000Y-97536000D02*
G75*
G03X162560000Y-97536000I-254000J0D01*
G01*
X161036000Y-96012000D02*
G75*
G03X161036000Y-96012000I-254000J0D01*
G01*
X162560000Y-96012000D02*
G75*
G03X162560000Y-96012000I-254000J0D01*
G01*
X161036000Y-97536000D02*
G75*
G03X161036000Y-97536000I-254000J0D01*
G01*
X161798000Y-97536000D02*
G75*
G03X161798000Y-97536000I-254000J0D01*
G01*
X162814000Y-98044000D02*
X162814000Y-95504000D01*
X161798000Y-96012000D02*
G75*
G03X161798000Y-96012000I-254000J0D01*
G01*
X160274000Y-95504000D02*
X160274000Y-98044000D01*
X160274000Y-84582000D02*
X152400000Y-84582000D01*
X160274000Y-87122000D02*
X152400000Y-87122000D01*
X162560000Y-85090000D02*
G75*
G03X162560000Y-85090000I-254000J0D01*
G01*
X161798000Y-85090000D02*
G75*
G03X161798000Y-85090000I-254000J0D01*
G01*
X161036000Y-85090000D02*
G75*
G03X161036000Y-85090000I-254000J0D01*
G01*
X162560000Y-86614000D02*
G75*
G03X162560000Y-86614000I-254000J0D01*
G01*
X161798000Y-86614000D02*
G75*
G03X161798000Y-86614000I-254000J0D01*
G01*
X161036000Y-86614000D02*
G75*
G03X161036000Y-86614000I-254000J0D01*
G01*
X162814000Y-87122000D02*
X162814000Y-84582000D01*
X160274000Y-84582000D02*
X160274000Y-87122000D01*
X170688000Y-84582000D02*
X162814000Y-84582000D01*
X162814000Y-87122000D02*
X170688000Y-87122000D01*
X170688000Y-95504000D02*
X162814000Y-95504000D01*
M02*
