G04 #@! TF.FileFunction,Soldermask,Bot*
%FSLAX46Y46*%
G04 Gerber Fmt 4.6, Leading zero omitted, Abs format (unit mm)*
G04 Created by KiCad (PCBNEW 4.0.5+dfsg1-4) date Wed Oct 11 12:16:19 2017*
%MOMM*%
%LPD*%
G01*
G04 APERTURE LIST*
%ADD10C,0.100000*%
%ADD11R,2.127200X2.127200*%
%ADD12O,2.127200X2.127200*%
G04 APERTURE END LIST*
D10*
D11*
X237401100Y-88747600D03*
D12*
X239941100Y-88747600D03*
X237401100Y-91287600D03*
X239941100Y-91287600D03*
X237401100Y-93827600D03*
X239941100Y-93827600D03*
D11*
X237401100Y-77825600D03*
D12*
X239941100Y-77825600D03*
X237401100Y-80365600D03*
X239941100Y-80365600D03*
X237401100Y-82905600D03*
X239941100Y-82905600D03*
D11*
X249682000Y-88747600D03*
D12*
X252222000Y-88747600D03*
X249682000Y-91287600D03*
X252222000Y-91287600D03*
X249682000Y-93827600D03*
X252222000Y-93827600D03*
D11*
X237401100Y-99669600D03*
D12*
X239941100Y-99669600D03*
X237401100Y-102209600D03*
X239941100Y-102209600D03*
X237401100Y-104749600D03*
X239941100Y-104749600D03*
D11*
X249682000Y-110591600D03*
D12*
X252222000Y-110591600D03*
X249682000Y-113131600D03*
X252222000Y-113131600D03*
X249682000Y-115671600D03*
X252222000Y-115671600D03*
D11*
X249682000Y-77825600D03*
D12*
X252222000Y-77825600D03*
X249682000Y-80365600D03*
X252222000Y-80365600D03*
X249682000Y-82905600D03*
X252222000Y-82905600D03*
D11*
X249682000Y-99669600D03*
D12*
X252222000Y-99669600D03*
X249682000Y-102209600D03*
X252222000Y-102209600D03*
X249682000Y-104749600D03*
X252222000Y-104749600D03*
D11*
X237401100Y-110591600D03*
D12*
X239941100Y-110591600D03*
X237401100Y-113131600D03*
X239941100Y-113131600D03*
X237401100Y-115671600D03*
X239941100Y-115671600D03*
D11*
X228854000Y-77825600D03*
D12*
X231394000Y-77825600D03*
X228854000Y-80365600D03*
X231394000Y-80365600D03*
X228854000Y-82905600D03*
X231394000Y-82905600D03*
D11*
X195745100Y-77825600D03*
D12*
X198285100Y-77825600D03*
X195745100Y-80365600D03*
X198285100Y-80365600D03*
X195745100Y-82905600D03*
X198285100Y-82905600D03*
D11*
X208026000Y-77825600D03*
D12*
X210566000Y-77825600D03*
X208026000Y-80365600D03*
X210566000Y-80365600D03*
X208026000Y-82905600D03*
X210566000Y-82905600D03*
D11*
X195745100Y-88747600D03*
D12*
X198285100Y-88747600D03*
X195745100Y-91287600D03*
X198285100Y-91287600D03*
X195745100Y-93827600D03*
X198285100Y-93827600D03*
D11*
X216573100Y-77825600D03*
D12*
X219113100Y-77825600D03*
X216573100Y-80365600D03*
X219113100Y-80365600D03*
X216573100Y-82905600D03*
X219113100Y-82905600D03*
D11*
X208026000Y-88747600D03*
D12*
X210566000Y-88747600D03*
X208026000Y-91287600D03*
X210566000Y-91287600D03*
X208026000Y-93827600D03*
X210566000Y-93827600D03*
D11*
X228854000Y-88747600D03*
D12*
X231394000Y-88747600D03*
X228854000Y-91287600D03*
X231394000Y-91287600D03*
X228854000Y-93827600D03*
X231394000Y-93827600D03*
D11*
X216573100Y-88747600D03*
D12*
X219113100Y-88747600D03*
X216573100Y-91287600D03*
X219113100Y-91287600D03*
X216573100Y-93827600D03*
X219113100Y-93827600D03*
D11*
X228854000Y-99669600D03*
D12*
X231394000Y-99669600D03*
X228854000Y-102209600D03*
X231394000Y-102209600D03*
X228854000Y-104749600D03*
X231394000Y-104749600D03*
D11*
X195745100Y-110591600D03*
D12*
X198285100Y-110591600D03*
X195745100Y-113131600D03*
X198285100Y-113131600D03*
X195745100Y-115671600D03*
X198285100Y-115671600D03*
D11*
X208026000Y-110591600D03*
D12*
X210566000Y-110591600D03*
X208026000Y-113131600D03*
X210566000Y-113131600D03*
X208026000Y-115671600D03*
X210566000Y-115671600D03*
D11*
X195745100Y-99669600D03*
D12*
X198285100Y-99669600D03*
X195745100Y-102209600D03*
X198285100Y-102209600D03*
X195745100Y-104749600D03*
X198285100Y-104749600D03*
D11*
X228854000Y-110591600D03*
D12*
X231394000Y-110591600D03*
X228854000Y-113131600D03*
X231394000Y-113131600D03*
X228854000Y-115671600D03*
X231394000Y-115671600D03*
D11*
X216573100Y-99669600D03*
D12*
X219113100Y-99669600D03*
X216573100Y-102209600D03*
X219113100Y-102209600D03*
X216573100Y-104749600D03*
X219113100Y-104749600D03*
D11*
X216573100Y-110591600D03*
D12*
X219113100Y-110591600D03*
X216573100Y-113131600D03*
X219113100Y-113131600D03*
X216573100Y-115671600D03*
X219113100Y-115671600D03*
D11*
X208026000Y-99669600D03*
D12*
X210566000Y-99669600D03*
X208026000Y-102209600D03*
X210566000Y-102209600D03*
X208026000Y-104749600D03*
X210566000Y-104749600D03*
D11*
X187198000Y-99669600D03*
D12*
X189738000Y-99669600D03*
X187198000Y-102209600D03*
X189738000Y-102209600D03*
X187198000Y-104749600D03*
X189738000Y-104749600D03*
D11*
X187198000Y-88747600D03*
D12*
X189738000Y-88747600D03*
X187198000Y-91287600D03*
X189738000Y-91287600D03*
X187198000Y-93827600D03*
X189738000Y-93827600D03*
D11*
X174917100Y-77825600D03*
D12*
X177457100Y-77825600D03*
X174917100Y-80365600D03*
X177457100Y-80365600D03*
X174917100Y-82905600D03*
X177457100Y-82905600D03*
D11*
X187198000Y-77825600D03*
D12*
X189738000Y-77825600D03*
X187198000Y-80365600D03*
X189738000Y-80365600D03*
X187198000Y-82905600D03*
X189738000Y-82905600D03*
D11*
X174917100Y-110591600D03*
D12*
X177457100Y-110591600D03*
X174917100Y-113131600D03*
X177457100Y-113131600D03*
X174917100Y-115671600D03*
X177457100Y-115671600D03*
D11*
X187198000Y-110591600D03*
D12*
X189738000Y-110591600D03*
X187198000Y-113131600D03*
X189738000Y-113131600D03*
X187198000Y-115671600D03*
X189738000Y-115671600D03*
D11*
X174917100Y-99669600D03*
D12*
X177457100Y-99669600D03*
X174917100Y-102209600D03*
X177457100Y-102209600D03*
X174917100Y-104749600D03*
X177457100Y-104749600D03*
D11*
X174917100Y-88747600D03*
D12*
X177457100Y-88747600D03*
X174917100Y-91287600D03*
X177457100Y-91287600D03*
X174917100Y-93827600D03*
X177457100Y-93827600D03*
D11*
X154089100Y-110591600D03*
D12*
X156629100Y-110591600D03*
X154089100Y-113131600D03*
X156629100Y-113131600D03*
X154089100Y-115671600D03*
X156629100Y-115671600D03*
D11*
X166370000Y-110591600D03*
D12*
X168910000Y-110591600D03*
X166370000Y-113131600D03*
X168910000Y-113131600D03*
X166370000Y-115671600D03*
X168910000Y-115671600D03*
D11*
X154089100Y-99669600D03*
D12*
X156629100Y-99669600D03*
X154089100Y-102209600D03*
X156629100Y-102209600D03*
X154089100Y-104749600D03*
X156629100Y-104749600D03*
D11*
X166370000Y-99669600D03*
D12*
X168910000Y-99669600D03*
X166370000Y-102209600D03*
X168910000Y-102209600D03*
X166370000Y-104749600D03*
X168910000Y-104749600D03*
D11*
X154089100Y-77825600D03*
D12*
X156629100Y-77825600D03*
X154089100Y-80365600D03*
X156629100Y-80365600D03*
X154089100Y-82905600D03*
X156629100Y-82905600D03*
D11*
X166370000Y-77825600D03*
D12*
X168910000Y-77825600D03*
X166370000Y-80365600D03*
X168910000Y-80365600D03*
X166370000Y-82905600D03*
X168910000Y-82905600D03*
D11*
X166370000Y-88747600D03*
D12*
X168910000Y-88747600D03*
X166370000Y-91287600D03*
X168910000Y-91287600D03*
X166370000Y-93827600D03*
X168910000Y-93827600D03*
D11*
X154089100Y-88747600D03*
D12*
X156629100Y-88747600D03*
X154089100Y-91287600D03*
X156629100Y-91287600D03*
X154089100Y-93827600D03*
X156629100Y-93827600D03*
M02*
