G04 #@! TF.FileFunction,Copper,L2,Bot,Signal*
%FSLAX46Y46*%
G04 Gerber Fmt 4.6, Leading zero omitted, Abs format (unit mm)*
G04 Created by KiCad (PCBNEW 4.0.5+dfsg1-4) date Wed Oct 11 12:16:19 2017*
%MOMM*%
%LPD*%
G01*
G04 APERTURE LIST*
%ADD10C,0.100000*%
%ADD11C,0.150000*%
%ADD12R,1.727200X1.727200*%
%ADD13O,1.727200X1.727200*%
%ADD14C,0.250000*%
G04 APERTURE END LIST*
D10*
D11*
X245479643Y-82817571D02*
X245443929Y-82853285D01*
X245408214Y-82960428D01*
X245408214Y-83031857D01*
X245443929Y-83139000D01*
X245515357Y-83210428D01*
X245586786Y-83246143D01*
X245729643Y-83281857D01*
X245836786Y-83281857D01*
X245979643Y-83246143D01*
X246051071Y-83210428D01*
X246122500Y-83139000D01*
X246158214Y-83031857D01*
X246158214Y-82960428D01*
X246122500Y-82853285D01*
X246086786Y-82817571D01*
X245408214Y-82496143D02*
X246158214Y-82496143D01*
X246158214Y-82317571D01*
X246122500Y-82210428D01*
X246051071Y-82139000D01*
X245979643Y-82103285D01*
X245836786Y-82067571D01*
X245729643Y-82067571D01*
X245586786Y-82103285D01*
X245515357Y-82139000D01*
X245443929Y-82210428D01*
X245408214Y-82317571D01*
X245408214Y-82496143D01*
X245408214Y-81746143D02*
X246158214Y-81746143D01*
X245622500Y-81496143D01*
X246158214Y-81246143D01*
X245408214Y-81246143D01*
X245408214Y-79888999D02*
X245765357Y-80138999D01*
X245408214Y-80317571D02*
X246158214Y-80317571D01*
X246158214Y-80031856D01*
X246122500Y-79960428D01*
X246086786Y-79924713D01*
X246015357Y-79888999D01*
X245908214Y-79888999D01*
X245836786Y-79924713D01*
X245801071Y-79960428D01*
X245765357Y-80031856D01*
X245765357Y-80317571D01*
X245801071Y-79567571D02*
X245801071Y-79317571D01*
X245408214Y-79210428D02*
X245408214Y-79567571D01*
X246158214Y-79567571D01*
X246158214Y-79210428D01*
X246158214Y-78996142D02*
X245408214Y-78746142D01*
X246158214Y-78496142D01*
X245801071Y-77424714D02*
X245765357Y-77317571D01*
X245729643Y-77281856D01*
X245658214Y-77246142D01*
X245551071Y-77246142D01*
X245479643Y-77281856D01*
X245443929Y-77317571D01*
X245408214Y-77388999D01*
X245408214Y-77674714D01*
X246158214Y-77674714D01*
X246158214Y-77424714D01*
X246122500Y-77353285D01*
X246086786Y-77317571D01*
X246015357Y-77281856D01*
X245943929Y-77281856D01*
X245872500Y-77317571D01*
X245836786Y-77353285D01*
X245801071Y-77424714D01*
X245801071Y-77674714D01*
X244561786Y-83406858D02*
X244597500Y-83478286D01*
X244633214Y-83514001D01*
X244704643Y-83549715D01*
X244740357Y-83549715D01*
X244811786Y-83514001D01*
X244847500Y-83478286D01*
X244883214Y-83406858D01*
X244883214Y-83264001D01*
X244847500Y-83192572D01*
X244811786Y-83156858D01*
X244740357Y-83121143D01*
X244704643Y-83121143D01*
X244633214Y-83156858D01*
X244597500Y-83192572D01*
X244561786Y-83264001D01*
X244561786Y-83406858D01*
X244526071Y-83478286D01*
X244490357Y-83514001D01*
X244418929Y-83549715D01*
X244276071Y-83549715D01*
X244204643Y-83514001D01*
X244168929Y-83478286D01*
X244133214Y-83406858D01*
X244133214Y-83264001D01*
X244168929Y-83192572D01*
X244204643Y-83156858D01*
X244276071Y-83121143D01*
X244418929Y-83121143D01*
X244490357Y-83156858D01*
X244526071Y-83192572D01*
X244561786Y-83264001D01*
X244418929Y-82799715D02*
X244418929Y-82228286D01*
X244811786Y-81906858D02*
X244847500Y-81871144D01*
X244883214Y-81799715D01*
X244883214Y-81621144D01*
X244847500Y-81549715D01*
X244811786Y-81514001D01*
X244740357Y-81478286D01*
X244668929Y-81478286D01*
X244561786Y-81514001D01*
X244133214Y-81942572D01*
X244133214Y-81478286D01*
X244633214Y-80835429D02*
X244133214Y-80835429D01*
X244918929Y-81014000D02*
X244383214Y-81192572D01*
X244383214Y-80728286D01*
X244418929Y-80442572D02*
X244418929Y-79871143D01*
X244811786Y-79549715D02*
X244847500Y-79514001D01*
X244883214Y-79442572D01*
X244883214Y-79264001D01*
X244847500Y-79192572D01*
X244811786Y-79156858D01*
X244740357Y-79121143D01*
X244668929Y-79121143D01*
X244561786Y-79156858D01*
X244133214Y-79585429D01*
X244133214Y-79121143D01*
X244883214Y-78656857D02*
X244883214Y-78585429D01*
X244847500Y-78514000D01*
X244811786Y-78478286D01*
X244740357Y-78442572D01*
X244597500Y-78406857D01*
X244418929Y-78406857D01*
X244276071Y-78442572D01*
X244204643Y-78478286D01*
X244168929Y-78514000D01*
X244133214Y-78585429D01*
X244133214Y-78656857D01*
X244168929Y-78728286D01*
X244204643Y-78764000D01*
X244276071Y-78799715D01*
X244418929Y-78835429D01*
X244597500Y-78835429D01*
X244740357Y-78799715D01*
X244811786Y-78764000D01*
X244847500Y-78728286D01*
X244883214Y-78656857D01*
X244133214Y-77692571D02*
X244133214Y-78121143D01*
X244133214Y-77906857D02*
X244883214Y-77906857D01*
X244776071Y-77978286D01*
X244704643Y-78049714D01*
X244668929Y-78121143D01*
X244883214Y-77442571D02*
X244883214Y-76942571D01*
X244133214Y-77264000D01*
X245479643Y-104661571D02*
X245443929Y-104697285D01*
X245408214Y-104804428D01*
X245408214Y-104875857D01*
X245443929Y-104983000D01*
X245515357Y-105054428D01*
X245586786Y-105090143D01*
X245729643Y-105125857D01*
X245836786Y-105125857D01*
X245979643Y-105090143D01*
X246051071Y-105054428D01*
X246122500Y-104983000D01*
X246158214Y-104875857D01*
X246158214Y-104804428D01*
X246122500Y-104697285D01*
X246086786Y-104661571D01*
X245408214Y-104340143D02*
X246158214Y-104340143D01*
X246158214Y-104161571D01*
X246122500Y-104054428D01*
X246051071Y-103983000D01*
X245979643Y-103947285D01*
X245836786Y-103911571D01*
X245729643Y-103911571D01*
X245586786Y-103947285D01*
X245515357Y-103983000D01*
X245443929Y-104054428D01*
X245408214Y-104161571D01*
X245408214Y-104340143D01*
X245408214Y-103590143D02*
X246158214Y-103590143D01*
X245622500Y-103340143D01*
X246158214Y-103090143D01*
X245408214Y-103090143D01*
X245408214Y-101732999D02*
X245765357Y-101982999D01*
X245408214Y-102161571D02*
X246158214Y-102161571D01*
X246158214Y-101875856D01*
X246122500Y-101804428D01*
X246086786Y-101768713D01*
X246015357Y-101732999D01*
X245908214Y-101732999D01*
X245836786Y-101768713D01*
X245801071Y-101804428D01*
X245765357Y-101875856D01*
X245765357Y-102161571D01*
X245801071Y-101411571D02*
X245801071Y-101161571D01*
X245408214Y-101054428D02*
X245408214Y-101411571D01*
X246158214Y-101411571D01*
X246158214Y-101054428D01*
X246158214Y-100840142D02*
X245408214Y-100590142D01*
X246158214Y-100340142D01*
X245801071Y-99268714D02*
X245765357Y-99161571D01*
X245729643Y-99125856D01*
X245658214Y-99090142D01*
X245551071Y-99090142D01*
X245479643Y-99125856D01*
X245443929Y-99161571D01*
X245408214Y-99232999D01*
X245408214Y-99518714D01*
X246158214Y-99518714D01*
X246158214Y-99268714D01*
X246122500Y-99197285D01*
X246086786Y-99161571D01*
X246015357Y-99125856D01*
X245943929Y-99125856D01*
X245872500Y-99161571D01*
X245836786Y-99197285D01*
X245801071Y-99268714D01*
X245801071Y-99518714D01*
X244561786Y-105250858D02*
X244597500Y-105322286D01*
X244633214Y-105358001D01*
X244704643Y-105393715D01*
X244740357Y-105393715D01*
X244811786Y-105358001D01*
X244847500Y-105322286D01*
X244883214Y-105250858D01*
X244883214Y-105108001D01*
X244847500Y-105036572D01*
X244811786Y-105000858D01*
X244740357Y-104965143D01*
X244704643Y-104965143D01*
X244633214Y-105000858D01*
X244597500Y-105036572D01*
X244561786Y-105108001D01*
X244561786Y-105250858D01*
X244526071Y-105322286D01*
X244490357Y-105358001D01*
X244418929Y-105393715D01*
X244276071Y-105393715D01*
X244204643Y-105358001D01*
X244168929Y-105322286D01*
X244133214Y-105250858D01*
X244133214Y-105108001D01*
X244168929Y-105036572D01*
X244204643Y-105000858D01*
X244276071Y-104965143D01*
X244418929Y-104965143D01*
X244490357Y-105000858D01*
X244526071Y-105036572D01*
X244561786Y-105108001D01*
X244418929Y-104643715D02*
X244418929Y-104072286D01*
X244811786Y-103750858D02*
X244847500Y-103715144D01*
X244883214Y-103643715D01*
X244883214Y-103465144D01*
X244847500Y-103393715D01*
X244811786Y-103358001D01*
X244740357Y-103322286D01*
X244668929Y-103322286D01*
X244561786Y-103358001D01*
X244133214Y-103786572D01*
X244133214Y-103322286D01*
X244633214Y-102679429D02*
X244133214Y-102679429D01*
X244918929Y-102858000D02*
X244383214Y-103036572D01*
X244383214Y-102572286D01*
X244418929Y-102286572D02*
X244418929Y-101715143D01*
X244811786Y-101393715D02*
X244847500Y-101358001D01*
X244883214Y-101286572D01*
X244883214Y-101108001D01*
X244847500Y-101036572D01*
X244811786Y-101000858D01*
X244740357Y-100965143D01*
X244668929Y-100965143D01*
X244561786Y-101000858D01*
X244133214Y-101429429D01*
X244133214Y-100965143D01*
X244883214Y-100500857D02*
X244883214Y-100429429D01*
X244847500Y-100358000D01*
X244811786Y-100322286D01*
X244740357Y-100286572D01*
X244597500Y-100250857D01*
X244418929Y-100250857D01*
X244276071Y-100286572D01*
X244204643Y-100322286D01*
X244168929Y-100358000D01*
X244133214Y-100429429D01*
X244133214Y-100500857D01*
X244168929Y-100572286D01*
X244204643Y-100608000D01*
X244276071Y-100643715D01*
X244418929Y-100679429D01*
X244597500Y-100679429D01*
X244740357Y-100643715D01*
X244811786Y-100608000D01*
X244847500Y-100572286D01*
X244883214Y-100500857D01*
X244133214Y-99536571D02*
X244133214Y-99965143D01*
X244133214Y-99750857D02*
X244883214Y-99750857D01*
X244776071Y-99822286D01*
X244704643Y-99893714D01*
X244668929Y-99965143D01*
X244883214Y-99286571D02*
X244883214Y-98786571D01*
X244133214Y-99108000D01*
X203823643Y-82817571D02*
X203787929Y-82853285D01*
X203752214Y-82960428D01*
X203752214Y-83031857D01*
X203787929Y-83139000D01*
X203859357Y-83210428D01*
X203930786Y-83246143D01*
X204073643Y-83281857D01*
X204180786Y-83281857D01*
X204323643Y-83246143D01*
X204395071Y-83210428D01*
X204466500Y-83139000D01*
X204502214Y-83031857D01*
X204502214Y-82960428D01*
X204466500Y-82853285D01*
X204430786Y-82817571D01*
X203752214Y-82496143D02*
X204502214Y-82496143D01*
X204502214Y-82317571D01*
X204466500Y-82210428D01*
X204395071Y-82139000D01*
X204323643Y-82103285D01*
X204180786Y-82067571D01*
X204073643Y-82067571D01*
X203930786Y-82103285D01*
X203859357Y-82139000D01*
X203787929Y-82210428D01*
X203752214Y-82317571D01*
X203752214Y-82496143D01*
X203752214Y-81746143D02*
X204502214Y-81746143D01*
X203966500Y-81496143D01*
X204502214Y-81246143D01*
X203752214Y-81246143D01*
X203752214Y-79888999D02*
X204109357Y-80138999D01*
X203752214Y-80317571D02*
X204502214Y-80317571D01*
X204502214Y-80031856D01*
X204466500Y-79960428D01*
X204430786Y-79924713D01*
X204359357Y-79888999D01*
X204252214Y-79888999D01*
X204180786Y-79924713D01*
X204145071Y-79960428D01*
X204109357Y-80031856D01*
X204109357Y-80317571D01*
X204145071Y-79567571D02*
X204145071Y-79317571D01*
X203752214Y-79210428D02*
X203752214Y-79567571D01*
X204502214Y-79567571D01*
X204502214Y-79210428D01*
X204502214Y-78996142D02*
X203752214Y-78746142D01*
X204502214Y-78496142D01*
X204145071Y-77424714D02*
X204109357Y-77317571D01*
X204073643Y-77281856D01*
X204002214Y-77246142D01*
X203895071Y-77246142D01*
X203823643Y-77281856D01*
X203787929Y-77317571D01*
X203752214Y-77388999D01*
X203752214Y-77674714D01*
X204502214Y-77674714D01*
X204502214Y-77424714D01*
X204466500Y-77353285D01*
X204430786Y-77317571D01*
X204359357Y-77281856D01*
X204287929Y-77281856D01*
X204216500Y-77317571D01*
X204180786Y-77353285D01*
X204145071Y-77424714D01*
X204145071Y-77674714D01*
X202905786Y-83406858D02*
X202941500Y-83478286D01*
X202977214Y-83514001D01*
X203048643Y-83549715D01*
X203084357Y-83549715D01*
X203155786Y-83514001D01*
X203191500Y-83478286D01*
X203227214Y-83406858D01*
X203227214Y-83264001D01*
X203191500Y-83192572D01*
X203155786Y-83156858D01*
X203084357Y-83121143D01*
X203048643Y-83121143D01*
X202977214Y-83156858D01*
X202941500Y-83192572D01*
X202905786Y-83264001D01*
X202905786Y-83406858D01*
X202870071Y-83478286D01*
X202834357Y-83514001D01*
X202762929Y-83549715D01*
X202620071Y-83549715D01*
X202548643Y-83514001D01*
X202512929Y-83478286D01*
X202477214Y-83406858D01*
X202477214Y-83264001D01*
X202512929Y-83192572D01*
X202548643Y-83156858D01*
X202620071Y-83121143D01*
X202762929Y-83121143D01*
X202834357Y-83156858D01*
X202870071Y-83192572D01*
X202905786Y-83264001D01*
X202762929Y-82799715D02*
X202762929Y-82228286D01*
X203155786Y-81906858D02*
X203191500Y-81871144D01*
X203227214Y-81799715D01*
X203227214Y-81621144D01*
X203191500Y-81549715D01*
X203155786Y-81514001D01*
X203084357Y-81478286D01*
X203012929Y-81478286D01*
X202905786Y-81514001D01*
X202477214Y-81942572D01*
X202477214Y-81478286D01*
X202977214Y-80835429D02*
X202477214Y-80835429D01*
X203262929Y-81014000D02*
X202727214Y-81192572D01*
X202727214Y-80728286D01*
X202762929Y-80442572D02*
X202762929Y-79871143D01*
X203155786Y-79549715D02*
X203191500Y-79514001D01*
X203227214Y-79442572D01*
X203227214Y-79264001D01*
X203191500Y-79192572D01*
X203155786Y-79156858D01*
X203084357Y-79121143D01*
X203012929Y-79121143D01*
X202905786Y-79156858D01*
X202477214Y-79585429D01*
X202477214Y-79121143D01*
X203227214Y-78656857D02*
X203227214Y-78585429D01*
X203191500Y-78514000D01*
X203155786Y-78478286D01*
X203084357Y-78442572D01*
X202941500Y-78406857D01*
X202762929Y-78406857D01*
X202620071Y-78442572D01*
X202548643Y-78478286D01*
X202512929Y-78514000D01*
X202477214Y-78585429D01*
X202477214Y-78656857D01*
X202512929Y-78728286D01*
X202548643Y-78764000D01*
X202620071Y-78799715D01*
X202762929Y-78835429D01*
X202941500Y-78835429D01*
X203084357Y-78799715D01*
X203155786Y-78764000D01*
X203191500Y-78728286D01*
X203227214Y-78656857D01*
X202477214Y-77692571D02*
X202477214Y-78121143D01*
X202477214Y-77906857D02*
X203227214Y-77906857D01*
X203120071Y-77978286D01*
X203048643Y-78049714D01*
X203012929Y-78121143D01*
X203227214Y-77442571D02*
X203227214Y-76942571D01*
X202477214Y-77264000D01*
X224651643Y-82817571D02*
X224615929Y-82853285D01*
X224580214Y-82960428D01*
X224580214Y-83031857D01*
X224615929Y-83139000D01*
X224687357Y-83210428D01*
X224758786Y-83246143D01*
X224901643Y-83281857D01*
X225008786Y-83281857D01*
X225151643Y-83246143D01*
X225223071Y-83210428D01*
X225294500Y-83139000D01*
X225330214Y-83031857D01*
X225330214Y-82960428D01*
X225294500Y-82853285D01*
X225258786Y-82817571D01*
X224580214Y-82496143D02*
X225330214Y-82496143D01*
X225330214Y-82317571D01*
X225294500Y-82210428D01*
X225223071Y-82139000D01*
X225151643Y-82103285D01*
X225008786Y-82067571D01*
X224901643Y-82067571D01*
X224758786Y-82103285D01*
X224687357Y-82139000D01*
X224615929Y-82210428D01*
X224580214Y-82317571D01*
X224580214Y-82496143D01*
X224580214Y-81746143D02*
X225330214Y-81746143D01*
X224794500Y-81496143D01*
X225330214Y-81246143D01*
X224580214Y-81246143D01*
X224580214Y-79888999D02*
X224937357Y-80138999D01*
X224580214Y-80317571D02*
X225330214Y-80317571D01*
X225330214Y-80031856D01*
X225294500Y-79960428D01*
X225258786Y-79924713D01*
X225187357Y-79888999D01*
X225080214Y-79888999D01*
X225008786Y-79924713D01*
X224973071Y-79960428D01*
X224937357Y-80031856D01*
X224937357Y-80317571D01*
X224973071Y-79567571D02*
X224973071Y-79317571D01*
X224580214Y-79210428D02*
X224580214Y-79567571D01*
X225330214Y-79567571D01*
X225330214Y-79210428D01*
X225330214Y-78996142D02*
X224580214Y-78746142D01*
X225330214Y-78496142D01*
X224973071Y-77424714D02*
X224937357Y-77317571D01*
X224901643Y-77281856D01*
X224830214Y-77246142D01*
X224723071Y-77246142D01*
X224651643Y-77281856D01*
X224615929Y-77317571D01*
X224580214Y-77388999D01*
X224580214Y-77674714D01*
X225330214Y-77674714D01*
X225330214Y-77424714D01*
X225294500Y-77353285D01*
X225258786Y-77317571D01*
X225187357Y-77281856D01*
X225115929Y-77281856D01*
X225044500Y-77317571D01*
X225008786Y-77353285D01*
X224973071Y-77424714D01*
X224973071Y-77674714D01*
X223733786Y-83406858D02*
X223769500Y-83478286D01*
X223805214Y-83514001D01*
X223876643Y-83549715D01*
X223912357Y-83549715D01*
X223983786Y-83514001D01*
X224019500Y-83478286D01*
X224055214Y-83406858D01*
X224055214Y-83264001D01*
X224019500Y-83192572D01*
X223983786Y-83156858D01*
X223912357Y-83121143D01*
X223876643Y-83121143D01*
X223805214Y-83156858D01*
X223769500Y-83192572D01*
X223733786Y-83264001D01*
X223733786Y-83406858D01*
X223698071Y-83478286D01*
X223662357Y-83514001D01*
X223590929Y-83549715D01*
X223448071Y-83549715D01*
X223376643Y-83514001D01*
X223340929Y-83478286D01*
X223305214Y-83406858D01*
X223305214Y-83264001D01*
X223340929Y-83192572D01*
X223376643Y-83156858D01*
X223448071Y-83121143D01*
X223590929Y-83121143D01*
X223662357Y-83156858D01*
X223698071Y-83192572D01*
X223733786Y-83264001D01*
X223590929Y-82799715D02*
X223590929Y-82228286D01*
X223983786Y-81906858D02*
X224019500Y-81871144D01*
X224055214Y-81799715D01*
X224055214Y-81621144D01*
X224019500Y-81549715D01*
X223983786Y-81514001D01*
X223912357Y-81478286D01*
X223840929Y-81478286D01*
X223733786Y-81514001D01*
X223305214Y-81942572D01*
X223305214Y-81478286D01*
X223805214Y-80835429D02*
X223305214Y-80835429D01*
X224090929Y-81014000D02*
X223555214Y-81192572D01*
X223555214Y-80728286D01*
X223590929Y-80442572D02*
X223590929Y-79871143D01*
X223983786Y-79549715D02*
X224019500Y-79514001D01*
X224055214Y-79442572D01*
X224055214Y-79264001D01*
X224019500Y-79192572D01*
X223983786Y-79156858D01*
X223912357Y-79121143D01*
X223840929Y-79121143D01*
X223733786Y-79156858D01*
X223305214Y-79585429D01*
X223305214Y-79121143D01*
X224055214Y-78656857D02*
X224055214Y-78585429D01*
X224019500Y-78514000D01*
X223983786Y-78478286D01*
X223912357Y-78442572D01*
X223769500Y-78406857D01*
X223590929Y-78406857D01*
X223448071Y-78442572D01*
X223376643Y-78478286D01*
X223340929Y-78514000D01*
X223305214Y-78585429D01*
X223305214Y-78656857D01*
X223340929Y-78728286D01*
X223376643Y-78764000D01*
X223448071Y-78799715D01*
X223590929Y-78835429D01*
X223769500Y-78835429D01*
X223912357Y-78799715D01*
X223983786Y-78764000D01*
X224019500Y-78728286D01*
X224055214Y-78656857D01*
X223305214Y-77692571D02*
X223305214Y-78121143D01*
X223305214Y-77906857D02*
X224055214Y-77906857D01*
X223948071Y-77978286D01*
X223876643Y-78049714D01*
X223840929Y-78121143D01*
X224055214Y-77442571D02*
X224055214Y-76942571D01*
X223305214Y-77264000D01*
X203823643Y-104661571D02*
X203787929Y-104697285D01*
X203752214Y-104804428D01*
X203752214Y-104875857D01*
X203787929Y-104983000D01*
X203859357Y-105054428D01*
X203930786Y-105090143D01*
X204073643Y-105125857D01*
X204180786Y-105125857D01*
X204323643Y-105090143D01*
X204395071Y-105054428D01*
X204466500Y-104983000D01*
X204502214Y-104875857D01*
X204502214Y-104804428D01*
X204466500Y-104697285D01*
X204430786Y-104661571D01*
X203752214Y-104340143D02*
X204502214Y-104340143D01*
X204502214Y-104161571D01*
X204466500Y-104054428D01*
X204395071Y-103983000D01*
X204323643Y-103947285D01*
X204180786Y-103911571D01*
X204073643Y-103911571D01*
X203930786Y-103947285D01*
X203859357Y-103983000D01*
X203787929Y-104054428D01*
X203752214Y-104161571D01*
X203752214Y-104340143D01*
X203752214Y-103590143D02*
X204502214Y-103590143D01*
X203966500Y-103340143D01*
X204502214Y-103090143D01*
X203752214Y-103090143D01*
X203752214Y-101732999D02*
X204109357Y-101982999D01*
X203752214Y-102161571D02*
X204502214Y-102161571D01*
X204502214Y-101875856D01*
X204466500Y-101804428D01*
X204430786Y-101768713D01*
X204359357Y-101732999D01*
X204252214Y-101732999D01*
X204180786Y-101768713D01*
X204145071Y-101804428D01*
X204109357Y-101875856D01*
X204109357Y-102161571D01*
X204145071Y-101411571D02*
X204145071Y-101161571D01*
X203752214Y-101054428D02*
X203752214Y-101411571D01*
X204502214Y-101411571D01*
X204502214Y-101054428D01*
X204502214Y-100840142D02*
X203752214Y-100590142D01*
X204502214Y-100340142D01*
X204145071Y-99268714D02*
X204109357Y-99161571D01*
X204073643Y-99125856D01*
X204002214Y-99090142D01*
X203895071Y-99090142D01*
X203823643Y-99125856D01*
X203787929Y-99161571D01*
X203752214Y-99232999D01*
X203752214Y-99518714D01*
X204502214Y-99518714D01*
X204502214Y-99268714D01*
X204466500Y-99197285D01*
X204430786Y-99161571D01*
X204359357Y-99125856D01*
X204287929Y-99125856D01*
X204216500Y-99161571D01*
X204180786Y-99197285D01*
X204145071Y-99268714D01*
X204145071Y-99518714D01*
X202905786Y-105250858D02*
X202941500Y-105322286D01*
X202977214Y-105358001D01*
X203048643Y-105393715D01*
X203084357Y-105393715D01*
X203155786Y-105358001D01*
X203191500Y-105322286D01*
X203227214Y-105250858D01*
X203227214Y-105108001D01*
X203191500Y-105036572D01*
X203155786Y-105000858D01*
X203084357Y-104965143D01*
X203048643Y-104965143D01*
X202977214Y-105000858D01*
X202941500Y-105036572D01*
X202905786Y-105108001D01*
X202905786Y-105250858D01*
X202870071Y-105322286D01*
X202834357Y-105358001D01*
X202762929Y-105393715D01*
X202620071Y-105393715D01*
X202548643Y-105358001D01*
X202512929Y-105322286D01*
X202477214Y-105250858D01*
X202477214Y-105108001D01*
X202512929Y-105036572D01*
X202548643Y-105000858D01*
X202620071Y-104965143D01*
X202762929Y-104965143D01*
X202834357Y-105000858D01*
X202870071Y-105036572D01*
X202905786Y-105108001D01*
X202762929Y-104643715D02*
X202762929Y-104072286D01*
X203155786Y-103750858D02*
X203191500Y-103715144D01*
X203227214Y-103643715D01*
X203227214Y-103465144D01*
X203191500Y-103393715D01*
X203155786Y-103358001D01*
X203084357Y-103322286D01*
X203012929Y-103322286D01*
X202905786Y-103358001D01*
X202477214Y-103786572D01*
X202477214Y-103322286D01*
X202977214Y-102679429D02*
X202477214Y-102679429D01*
X203262929Y-102858000D02*
X202727214Y-103036572D01*
X202727214Y-102572286D01*
X202762929Y-102286572D02*
X202762929Y-101715143D01*
X203155786Y-101393715D02*
X203191500Y-101358001D01*
X203227214Y-101286572D01*
X203227214Y-101108001D01*
X203191500Y-101036572D01*
X203155786Y-101000858D01*
X203084357Y-100965143D01*
X203012929Y-100965143D01*
X202905786Y-101000858D01*
X202477214Y-101429429D01*
X202477214Y-100965143D01*
X203227214Y-100500857D02*
X203227214Y-100429429D01*
X203191500Y-100358000D01*
X203155786Y-100322286D01*
X203084357Y-100286572D01*
X202941500Y-100250857D01*
X202762929Y-100250857D01*
X202620071Y-100286572D01*
X202548643Y-100322286D01*
X202512929Y-100358000D01*
X202477214Y-100429429D01*
X202477214Y-100500857D01*
X202512929Y-100572286D01*
X202548643Y-100608000D01*
X202620071Y-100643715D01*
X202762929Y-100679429D01*
X202941500Y-100679429D01*
X203084357Y-100643715D01*
X203155786Y-100608000D01*
X203191500Y-100572286D01*
X203227214Y-100500857D01*
X202477214Y-99536571D02*
X202477214Y-99965143D01*
X202477214Y-99750857D02*
X203227214Y-99750857D01*
X203120071Y-99822286D01*
X203048643Y-99893714D01*
X203012929Y-99965143D01*
X203227214Y-99286571D02*
X203227214Y-98786571D01*
X202477214Y-99108000D01*
X224651643Y-104661571D02*
X224615929Y-104697285D01*
X224580214Y-104804428D01*
X224580214Y-104875857D01*
X224615929Y-104983000D01*
X224687357Y-105054428D01*
X224758786Y-105090143D01*
X224901643Y-105125857D01*
X225008786Y-105125857D01*
X225151643Y-105090143D01*
X225223071Y-105054428D01*
X225294500Y-104983000D01*
X225330214Y-104875857D01*
X225330214Y-104804428D01*
X225294500Y-104697285D01*
X225258786Y-104661571D01*
X224580214Y-104340143D02*
X225330214Y-104340143D01*
X225330214Y-104161571D01*
X225294500Y-104054428D01*
X225223071Y-103983000D01*
X225151643Y-103947285D01*
X225008786Y-103911571D01*
X224901643Y-103911571D01*
X224758786Y-103947285D01*
X224687357Y-103983000D01*
X224615929Y-104054428D01*
X224580214Y-104161571D01*
X224580214Y-104340143D01*
X224580214Y-103590143D02*
X225330214Y-103590143D01*
X224794500Y-103340143D01*
X225330214Y-103090143D01*
X224580214Y-103090143D01*
X224580214Y-101732999D02*
X224937357Y-101982999D01*
X224580214Y-102161571D02*
X225330214Y-102161571D01*
X225330214Y-101875856D01*
X225294500Y-101804428D01*
X225258786Y-101768713D01*
X225187357Y-101732999D01*
X225080214Y-101732999D01*
X225008786Y-101768713D01*
X224973071Y-101804428D01*
X224937357Y-101875856D01*
X224937357Y-102161571D01*
X224973071Y-101411571D02*
X224973071Y-101161571D01*
X224580214Y-101054428D02*
X224580214Y-101411571D01*
X225330214Y-101411571D01*
X225330214Y-101054428D01*
X225330214Y-100840142D02*
X224580214Y-100590142D01*
X225330214Y-100340142D01*
X224973071Y-99268714D02*
X224937357Y-99161571D01*
X224901643Y-99125856D01*
X224830214Y-99090142D01*
X224723071Y-99090142D01*
X224651643Y-99125856D01*
X224615929Y-99161571D01*
X224580214Y-99232999D01*
X224580214Y-99518714D01*
X225330214Y-99518714D01*
X225330214Y-99268714D01*
X225294500Y-99197285D01*
X225258786Y-99161571D01*
X225187357Y-99125856D01*
X225115929Y-99125856D01*
X225044500Y-99161571D01*
X225008786Y-99197285D01*
X224973071Y-99268714D01*
X224973071Y-99518714D01*
X223733786Y-105250858D02*
X223769500Y-105322286D01*
X223805214Y-105358001D01*
X223876643Y-105393715D01*
X223912357Y-105393715D01*
X223983786Y-105358001D01*
X224019500Y-105322286D01*
X224055214Y-105250858D01*
X224055214Y-105108001D01*
X224019500Y-105036572D01*
X223983786Y-105000858D01*
X223912357Y-104965143D01*
X223876643Y-104965143D01*
X223805214Y-105000858D01*
X223769500Y-105036572D01*
X223733786Y-105108001D01*
X223733786Y-105250858D01*
X223698071Y-105322286D01*
X223662357Y-105358001D01*
X223590929Y-105393715D01*
X223448071Y-105393715D01*
X223376643Y-105358001D01*
X223340929Y-105322286D01*
X223305214Y-105250858D01*
X223305214Y-105108001D01*
X223340929Y-105036572D01*
X223376643Y-105000858D01*
X223448071Y-104965143D01*
X223590929Y-104965143D01*
X223662357Y-105000858D01*
X223698071Y-105036572D01*
X223733786Y-105108001D01*
X223590929Y-104643715D02*
X223590929Y-104072286D01*
X223983786Y-103750858D02*
X224019500Y-103715144D01*
X224055214Y-103643715D01*
X224055214Y-103465144D01*
X224019500Y-103393715D01*
X223983786Y-103358001D01*
X223912357Y-103322286D01*
X223840929Y-103322286D01*
X223733786Y-103358001D01*
X223305214Y-103786572D01*
X223305214Y-103322286D01*
X223805214Y-102679429D02*
X223305214Y-102679429D01*
X224090929Y-102858000D02*
X223555214Y-103036572D01*
X223555214Y-102572286D01*
X223590929Y-102286572D02*
X223590929Y-101715143D01*
X223983786Y-101393715D02*
X224019500Y-101358001D01*
X224055214Y-101286572D01*
X224055214Y-101108001D01*
X224019500Y-101036572D01*
X223983786Y-101000858D01*
X223912357Y-100965143D01*
X223840929Y-100965143D01*
X223733786Y-101000858D01*
X223305214Y-101429429D01*
X223305214Y-100965143D01*
X224055214Y-100500857D02*
X224055214Y-100429429D01*
X224019500Y-100358000D01*
X223983786Y-100322286D01*
X223912357Y-100286572D01*
X223769500Y-100250857D01*
X223590929Y-100250857D01*
X223448071Y-100286572D01*
X223376643Y-100322286D01*
X223340929Y-100358000D01*
X223305214Y-100429429D01*
X223305214Y-100500857D01*
X223340929Y-100572286D01*
X223376643Y-100608000D01*
X223448071Y-100643715D01*
X223590929Y-100679429D01*
X223769500Y-100679429D01*
X223912357Y-100643715D01*
X223983786Y-100608000D01*
X224019500Y-100572286D01*
X224055214Y-100500857D01*
X223305214Y-99536571D02*
X223305214Y-99965143D01*
X223305214Y-99750857D02*
X224055214Y-99750857D01*
X223948071Y-99822286D01*
X223876643Y-99893714D01*
X223840929Y-99965143D01*
X224055214Y-99286571D02*
X224055214Y-98786571D01*
X223305214Y-99108000D01*
X182995643Y-104661571D02*
X182959929Y-104697285D01*
X182924214Y-104804428D01*
X182924214Y-104875857D01*
X182959929Y-104983000D01*
X183031357Y-105054428D01*
X183102786Y-105090143D01*
X183245643Y-105125857D01*
X183352786Y-105125857D01*
X183495643Y-105090143D01*
X183567071Y-105054428D01*
X183638500Y-104983000D01*
X183674214Y-104875857D01*
X183674214Y-104804428D01*
X183638500Y-104697285D01*
X183602786Y-104661571D01*
X182924214Y-104340143D02*
X183674214Y-104340143D01*
X183674214Y-104161571D01*
X183638500Y-104054428D01*
X183567071Y-103983000D01*
X183495643Y-103947285D01*
X183352786Y-103911571D01*
X183245643Y-103911571D01*
X183102786Y-103947285D01*
X183031357Y-103983000D01*
X182959929Y-104054428D01*
X182924214Y-104161571D01*
X182924214Y-104340143D01*
X182924214Y-103590143D02*
X183674214Y-103590143D01*
X183138500Y-103340143D01*
X183674214Y-103090143D01*
X182924214Y-103090143D01*
X182924214Y-101732999D02*
X183281357Y-101982999D01*
X182924214Y-102161571D02*
X183674214Y-102161571D01*
X183674214Y-101875856D01*
X183638500Y-101804428D01*
X183602786Y-101768713D01*
X183531357Y-101732999D01*
X183424214Y-101732999D01*
X183352786Y-101768713D01*
X183317071Y-101804428D01*
X183281357Y-101875856D01*
X183281357Y-102161571D01*
X183317071Y-101411571D02*
X183317071Y-101161571D01*
X182924214Y-101054428D02*
X182924214Y-101411571D01*
X183674214Y-101411571D01*
X183674214Y-101054428D01*
X183674214Y-100840142D02*
X182924214Y-100590142D01*
X183674214Y-100340142D01*
X183317071Y-99268714D02*
X183281357Y-99161571D01*
X183245643Y-99125856D01*
X183174214Y-99090142D01*
X183067071Y-99090142D01*
X182995643Y-99125856D01*
X182959929Y-99161571D01*
X182924214Y-99232999D01*
X182924214Y-99518714D01*
X183674214Y-99518714D01*
X183674214Y-99268714D01*
X183638500Y-99197285D01*
X183602786Y-99161571D01*
X183531357Y-99125856D01*
X183459929Y-99125856D01*
X183388500Y-99161571D01*
X183352786Y-99197285D01*
X183317071Y-99268714D01*
X183317071Y-99518714D01*
X182077786Y-105250858D02*
X182113500Y-105322286D01*
X182149214Y-105358001D01*
X182220643Y-105393715D01*
X182256357Y-105393715D01*
X182327786Y-105358001D01*
X182363500Y-105322286D01*
X182399214Y-105250858D01*
X182399214Y-105108001D01*
X182363500Y-105036572D01*
X182327786Y-105000858D01*
X182256357Y-104965143D01*
X182220643Y-104965143D01*
X182149214Y-105000858D01*
X182113500Y-105036572D01*
X182077786Y-105108001D01*
X182077786Y-105250858D01*
X182042071Y-105322286D01*
X182006357Y-105358001D01*
X181934929Y-105393715D01*
X181792071Y-105393715D01*
X181720643Y-105358001D01*
X181684929Y-105322286D01*
X181649214Y-105250858D01*
X181649214Y-105108001D01*
X181684929Y-105036572D01*
X181720643Y-105000858D01*
X181792071Y-104965143D01*
X181934929Y-104965143D01*
X182006357Y-105000858D01*
X182042071Y-105036572D01*
X182077786Y-105108001D01*
X181934929Y-104643715D02*
X181934929Y-104072286D01*
X182327786Y-103750858D02*
X182363500Y-103715144D01*
X182399214Y-103643715D01*
X182399214Y-103465144D01*
X182363500Y-103393715D01*
X182327786Y-103358001D01*
X182256357Y-103322286D01*
X182184929Y-103322286D01*
X182077786Y-103358001D01*
X181649214Y-103786572D01*
X181649214Y-103322286D01*
X182149214Y-102679429D02*
X181649214Y-102679429D01*
X182434929Y-102858000D02*
X181899214Y-103036572D01*
X181899214Y-102572286D01*
X181934929Y-102286572D02*
X181934929Y-101715143D01*
X182327786Y-101393715D02*
X182363500Y-101358001D01*
X182399214Y-101286572D01*
X182399214Y-101108001D01*
X182363500Y-101036572D01*
X182327786Y-101000858D01*
X182256357Y-100965143D01*
X182184929Y-100965143D01*
X182077786Y-101000858D01*
X181649214Y-101429429D01*
X181649214Y-100965143D01*
X182399214Y-100500857D02*
X182399214Y-100429429D01*
X182363500Y-100358000D01*
X182327786Y-100322286D01*
X182256357Y-100286572D01*
X182113500Y-100250857D01*
X181934929Y-100250857D01*
X181792071Y-100286572D01*
X181720643Y-100322286D01*
X181684929Y-100358000D01*
X181649214Y-100429429D01*
X181649214Y-100500857D01*
X181684929Y-100572286D01*
X181720643Y-100608000D01*
X181792071Y-100643715D01*
X181934929Y-100679429D01*
X182113500Y-100679429D01*
X182256357Y-100643715D01*
X182327786Y-100608000D01*
X182363500Y-100572286D01*
X182399214Y-100500857D01*
X181649214Y-99536571D02*
X181649214Y-99965143D01*
X181649214Y-99750857D02*
X182399214Y-99750857D01*
X182292071Y-99822286D01*
X182220643Y-99893714D01*
X182184929Y-99965143D01*
X182399214Y-99286571D02*
X182399214Y-98786571D01*
X181649214Y-99108000D01*
X182995643Y-82817571D02*
X182959929Y-82853285D01*
X182924214Y-82960428D01*
X182924214Y-83031857D01*
X182959929Y-83139000D01*
X183031357Y-83210428D01*
X183102786Y-83246143D01*
X183245643Y-83281857D01*
X183352786Y-83281857D01*
X183495643Y-83246143D01*
X183567071Y-83210428D01*
X183638500Y-83139000D01*
X183674214Y-83031857D01*
X183674214Y-82960428D01*
X183638500Y-82853285D01*
X183602786Y-82817571D01*
X182924214Y-82496143D02*
X183674214Y-82496143D01*
X183674214Y-82317571D01*
X183638500Y-82210428D01*
X183567071Y-82139000D01*
X183495643Y-82103285D01*
X183352786Y-82067571D01*
X183245643Y-82067571D01*
X183102786Y-82103285D01*
X183031357Y-82139000D01*
X182959929Y-82210428D01*
X182924214Y-82317571D01*
X182924214Y-82496143D01*
X182924214Y-81746143D02*
X183674214Y-81746143D01*
X183138500Y-81496143D01*
X183674214Y-81246143D01*
X182924214Y-81246143D01*
X182924214Y-79888999D02*
X183281357Y-80138999D01*
X182924214Y-80317571D02*
X183674214Y-80317571D01*
X183674214Y-80031856D01*
X183638500Y-79960428D01*
X183602786Y-79924713D01*
X183531357Y-79888999D01*
X183424214Y-79888999D01*
X183352786Y-79924713D01*
X183317071Y-79960428D01*
X183281357Y-80031856D01*
X183281357Y-80317571D01*
X183317071Y-79567571D02*
X183317071Y-79317571D01*
X182924214Y-79210428D02*
X182924214Y-79567571D01*
X183674214Y-79567571D01*
X183674214Y-79210428D01*
X183674214Y-78996142D02*
X182924214Y-78746142D01*
X183674214Y-78496142D01*
X183317071Y-77424714D02*
X183281357Y-77317571D01*
X183245643Y-77281856D01*
X183174214Y-77246142D01*
X183067071Y-77246142D01*
X182995643Y-77281856D01*
X182959929Y-77317571D01*
X182924214Y-77388999D01*
X182924214Y-77674714D01*
X183674214Y-77674714D01*
X183674214Y-77424714D01*
X183638500Y-77353285D01*
X183602786Y-77317571D01*
X183531357Y-77281856D01*
X183459929Y-77281856D01*
X183388500Y-77317571D01*
X183352786Y-77353285D01*
X183317071Y-77424714D01*
X183317071Y-77674714D01*
X182077786Y-83406858D02*
X182113500Y-83478286D01*
X182149214Y-83514001D01*
X182220643Y-83549715D01*
X182256357Y-83549715D01*
X182327786Y-83514001D01*
X182363500Y-83478286D01*
X182399214Y-83406858D01*
X182399214Y-83264001D01*
X182363500Y-83192572D01*
X182327786Y-83156858D01*
X182256357Y-83121143D01*
X182220643Y-83121143D01*
X182149214Y-83156858D01*
X182113500Y-83192572D01*
X182077786Y-83264001D01*
X182077786Y-83406858D01*
X182042071Y-83478286D01*
X182006357Y-83514001D01*
X181934929Y-83549715D01*
X181792071Y-83549715D01*
X181720643Y-83514001D01*
X181684929Y-83478286D01*
X181649214Y-83406858D01*
X181649214Y-83264001D01*
X181684929Y-83192572D01*
X181720643Y-83156858D01*
X181792071Y-83121143D01*
X181934929Y-83121143D01*
X182006357Y-83156858D01*
X182042071Y-83192572D01*
X182077786Y-83264001D01*
X181934929Y-82799715D02*
X181934929Y-82228286D01*
X182327786Y-81906858D02*
X182363500Y-81871144D01*
X182399214Y-81799715D01*
X182399214Y-81621144D01*
X182363500Y-81549715D01*
X182327786Y-81514001D01*
X182256357Y-81478286D01*
X182184929Y-81478286D01*
X182077786Y-81514001D01*
X181649214Y-81942572D01*
X181649214Y-81478286D01*
X182149214Y-80835429D02*
X181649214Y-80835429D01*
X182434929Y-81014000D02*
X181899214Y-81192572D01*
X181899214Y-80728286D01*
X181934929Y-80442572D02*
X181934929Y-79871143D01*
X182327786Y-79549715D02*
X182363500Y-79514001D01*
X182399214Y-79442572D01*
X182399214Y-79264001D01*
X182363500Y-79192572D01*
X182327786Y-79156858D01*
X182256357Y-79121143D01*
X182184929Y-79121143D01*
X182077786Y-79156858D01*
X181649214Y-79585429D01*
X181649214Y-79121143D01*
X182399214Y-78656857D02*
X182399214Y-78585429D01*
X182363500Y-78514000D01*
X182327786Y-78478286D01*
X182256357Y-78442572D01*
X182113500Y-78406857D01*
X181934929Y-78406857D01*
X181792071Y-78442572D01*
X181720643Y-78478286D01*
X181684929Y-78514000D01*
X181649214Y-78585429D01*
X181649214Y-78656857D01*
X181684929Y-78728286D01*
X181720643Y-78764000D01*
X181792071Y-78799715D01*
X181934929Y-78835429D01*
X182113500Y-78835429D01*
X182256357Y-78799715D01*
X182327786Y-78764000D01*
X182363500Y-78728286D01*
X182399214Y-78656857D01*
X181649214Y-77692571D02*
X181649214Y-78121143D01*
X181649214Y-77906857D02*
X182399214Y-77906857D01*
X182292071Y-77978286D01*
X182220643Y-78049714D01*
X182184929Y-78121143D01*
X182399214Y-77442571D02*
X182399214Y-76942571D01*
X181649214Y-77264000D01*
X162167643Y-104661571D02*
X162131929Y-104697285D01*
X162096214Y-104804428D01*
X162096214Y-104875857D01*
X162131929Y-104983000D01*
X162203357Y-105054428D01*
X162274786Y-105090143D01*
X162417643Y-105125857D01*
X162524786Y-105125857D01*
X162667643Y-105090143D01*
X162739071Y-105054428D01*
X162810500Y-104983000D01*
X162846214Y-104875857D01*
X162846214Y-104804428D01*
X162810500Y-104697285D01*
X162774786Y-104661571D01*
X162096214Y-104340143D02*
X162846214Y-104340143D01*
X162846214Y-104161571D01*
X162810500Y-104054428D01*
X162739071Y-103983000D01*
X162667643Y-103947285D01*
X162524786Y-103911571D01*
X162417643Y-103911571D01*
X162274786Y-103947285D01*
X162203357Y-103983000D01*
X162131929Y-104054428D01*
X162096214Y-104161571D01*
X162096214Y-104340143D01*
X162096214Y-103590143D02*
X162846214Y-103590143D01*
X162310500Y-103340143D01*
X162846214Y-103090143D01*
X162096214Y-103090143D01*
X162096214Y-101732999D02*
X162453357Y-101982999D01*
X162096214Y-102161571D02*
X162846214Y-102161571D01*
X162846214Y-101875856D01*
X162810500Y-101804428D01*
X162774786Y-101768713D01*
X162703357Y-101732999D01*
X162596214Y-101732999D01*
X162524786Y-101768713D01*
X162489071Y-101804428D01*
X162453357Y-101875856D01*
X162453357Y-102161571D01*
X162489071Y-101411571D02*
X162489071Y-101161571D01*
X162096214Y-101054428D02*
X162096214Y-101411571D01*
X162846214Y-101411571D01*
X162846214Y-101054428D01*
X162846214Y-100840142D02*
X162096214Y-100590142D01*
X162846214Y-100340142D01*
X162489071Y-99268714D02*
X162453357Y-99161571D01*
X162417643Y-99125856D01*
X162346214Y-99090142D01*
X162239071Y-99090142D01*
X162167643Y-99125856D01*
X162131929Y-99161571D01*
X162096214Y-99232999D01*
X162096214Y-99518714D01*
X162846214Y-99518714D01*
X162846214Y-99268714D01*
X162810500Y-99197285D01*
X162774786Y-99161571D01*
X162703357Y-99125856D01*
X162631929Y-99125856D01*
X162560500Y-99161571D01*
X162524786Y-99197285D01*
X162489071Y-99268714D01*
X162489071Y-99518714D01*
X161249786Y-105250858D02*
X161285500Y-105322286D01*
X161321214Y-105358001D01*
X161392643Y-105393715D01*
X161428357Y-105393715D01*
X161499786Y-105358001D01*
X161535500Y-105322286D01*
X161571214Y-105250858D01*
X161571214Y-105108001D01*
X161535500Y-105036572D01*
X161499786Y-105000858D01*
X161428357Y-104965143D01*
X161392643Y-104965143D01*
X161321214Y-105000858D01*
X161285500Y-105036572D01*
X161249786Y-105108001D01*
X161249786Y-105250858D01*
X161214071Y-105322286D01*
X161178357Y-105358001D01*
X161106929Y-105393715D01*
X160964071Y-105393715D01*
X160892643Y-105358001D01*
X160856929Y-105322286D01*
X160821214Y-105250858D01*
X160821214Y-105108001D01*
X160856929Y-105036572D01*
X160892643Y-105000858D01*
X160964071Y-104965143D01*
X161106929Y-104965143D01*
X161178357Y-105000858D01*
X161214071Y-105036572D01*
X161249786Y-105108001D01*
X161106929Y-104643715D02*
X161106929Y-104072286D01*
X161499786Y-103750858D02*
X161535500Y-103715144D01*
X161571214Y-103643715D01*
X161571214Y-103465144D01*
X161535500Y-103393715D01*
X161499786Y-103358001D01*
X161428357Y-103322286D01*
X161356929Y-103322286D01*
X161249786Y-103358001D01*
X160821214Y-103786572D01*
X160821214Y-103322286D01*
X161321214Y-102679429D02*
X160821214Y-102679429D01*
X161606929Y-102858000D02*
X161071214Y-103036572D01*
X161071214Y-102572286D01*
X161106929Y-102286572D02*
X161106929Y-101715143D01*
X161499786Y-101393715D02*
X161535500Y-101358001D01*
X161571214Y-101286572D01*
X161571214Y-101108001D01*
X161535500Y-101036572D01*
X161499786Y-101000858D01*
X161428357Y-100965143D01*
X161356929Y-100965143D01*
X161249786Y-101000858D01*
X160821214Y-101429429D01*
X160821214Y-100965143D01*
X161571214Y-100500857D02*
X161571214Y-100429429D01*
X161535500Y-100358000D01*
X161499786Y-100322286D01*
X161428357Y-100286572D01*
X161285500Y-100250857D01*
X161106929Y-100250857D01*
X160964071Y-100286572D01*
X160892643Y-100322286D01*
X160856929Y-100358000D01*
X160821214Y-100429429D01*
X160821214Y-100500857D01*
X160856929Y-100572286D01*
X160892643Y-100608000D01*
X160964071Y-100643715D01*
X161106929Y-100679429D01*
X161285500Y-100679429D01*
X161428357Y-100643715D01*
X161499786Y-100608000D01*
X161535500Y-100572286D01*
X161571214Y-100500857D01*
X160821214Y-99536571D02*
X160821214Y-99965143D01*
X160821214Y-99750857D02*
X161571214Y-99750857D01*
X161464071Y-99822286D01*
X161392643Y-99893714D01*
X161356929Y-99965143D01*
X161571214Y-99286571D02*
X161571214Y-98786571D01*
X160821214Y-99108000D01*
X162167643Y-82817571D02*
X162131929Y-82853285D01*
X162096214Y-82960428D01*
X162096214Y-83031857D01*
X162131929Y-83139000D01*
X162203357Y-83210428D01*
X162274786Y-83246143D01*
X162417643Y-83281857D01*
X162524786Y-83281857D01*
X162667643Y-83246143D01*
X162739071Y-83210428D01*
X162810500Y-83139000D01*
X162846214Y-83031857D01*
X162846214Y-82960428D01*
X162810500Y-82853285D01*
X162774786Y-82817571D01*
X162096214Y-82496143D02*
X162846214Y-82496143D01*
X162846214Y-82317571D01*
X162810500Y-82210428D01*
X162739071Y-82139000D01*
X162667643Y-82103285D01*
X162524786Y-82067571D01*
X162417643Y-82067571D01*
X162274786Y-82103285D01*
X162203357Y-82139000D01*
X162131929Y-82210428D01*
X162096214Y-82317571D01*
X162096214Y-82496143D01*
X162096214Y-81746143D02*
X162846214Y-81746143D01*
X162310500Y-81496143D01*
X162846214Y-81246143D01*
X162096214Y-81246143D01*
X162096214Y-79888999D02*
X162453357Y-80138999D01*
X162096214Y-80317571D02*
X162846214Y-80317571D01*
X162846214Y-80031856D01*
X162810500Y-79960428D01*
X162774786Y-79924713D01*
X162703357Y-79888999D01*
X162596214Y-79888999D01*
X162524786Y-79924713D01*
X162489071Y-79960428D01*
X162453357Y-80031856D01*
X162453357Y-80317571D01*
X162489071Y-79567571D02*
X162489071Y-79317571D01*
X162096214Y-79210428D02*
X162096214Y-79567571D01*
X162846214Y-79567571D01*
X162846214Y-79210428D01*
X162846214Y-78996142D02*
X162096214Y-78746142D01*
X162846214Y-78496142D01*
X162489071Y-77424714D02*
X162453357Y-77317571D01*
X162417643Y-77281856D01*
X162346214Y-77246142D01*
X162239071Y-77246142D01*
X162167643Y-77281856D01*
X162131929Y-77317571D01*
X162096214Y-77388999D01*
X162096214Y-77674714D01*
X162846214Y-77674714D01*
X162846214Y-77424714D01*
X162810500Y-77353285D01*
X162774786Y-77317571D01*
X162703357Y-77281856D01*
X162631929Y-77281856D01*
X162560500Y-77317571D01*
X162524786Y-77353285D01*
X162489071Y-77424714D01*
X162489071Y-77674714D01*
X161249786Y-83406858D02*
X161285500Y-83478286D01*
X161321214Y-83514001D01*
X161392643Y-83549715D01*
X161428357Y-83549715D01*
X161499786Y-83514001D01*
X161535500Y-83478286D01*
X161571214Y-83406858D01*
X161571214Y-83264001D01*
X161535500Y-83192572D01*
X161499786Y-83156858D01*
X161428357Y-83121143D01*
X161392643Y-83121143D01*
X161321214Y-83156858D01*
X161285500Y-83192572D01*
X161249786Y-83264001D01*
X161249786Y-83406858D01*
X161214071Y-83478286D01*
X161178357Y-83514001D01*
X161106929Y-83549715D01*
X160964071Y-83549715D01*
X160892643Y-83514001D01*
X160856929Y-83478286D01*
X160821214Y-83406858D01*
X160821214Y-83264001D01*
X160856929Y-83192572D01*
X160892643Y-83156858D01*
X160964071Y-83121143D01*
X161106929Y-83121143D01*
X161178357Y-83156858D01*
X161214071Y-83192572D01*
X161249786Y-83264001D01*
X161106929Y-82799715D02*
X161106929Y-82228286D01*
X161499786Y-81906858D02*
X161535500Y-81871144D01*
X161571214Y-81799715D01*
X161571214Y-81621144D01*
X161535500Y-81549715D01*
X161499786Y-81514001D01*
X161428357Y-81478286D01*
X161356929Y-81478286D01*
X161249786Y-81514001D01*
X160821214Y-81942572D01*
X160821214Y-81478286D01*
X161321214Y-80835429D02*
X160821214Y-80835429D01*
X161606929Y-81014000D02*
X161071214Y-81192572D01*
X161071214Y-80728286D01*
X161106929Y-80442572D02*
X161106929Y-79871143D01*
X161499786Y-79549715D02*
X161535500Y-79514001D01*
X161571214Y-79442572D01*
X161571214Y-79264001D01*
X161535500Y-79192572D01*
X161499786Y-79156858D01*
X161428357Y-79121143D01*
X161356929Y-79121143D01*
X161249786Y-79156858D01*
X160821214Y-79585429D01*
X160821214Y-79121143D01*
X161571214Y-78656857D02*
X161571214Y-78585429D01*
X161535500Y-78514000D01*
X161499786Y-78478286D01*
X161428357Y-78442572D01*
X161285500Y-78406857D01*
X161106929Y-78406857D01*
X160964071Y-78442572D01*
X160892643Y-78478286D01*
X160856929Y-78514000D01*
X160821214Y-78585429D01*
X160821214Y-78656857D01*
X160856929Y-78728286D01*
X160892643Y-78764000D01*
X160964071Y-78799715D01*
X161106929Y-78835429D01*
X161285500Y-78835429D01*
X161428357Y-78799715D01*
X161499786Y-78764000D01*
X161535500Y-78728286D01*
X161571214Y-78656857D01*
X160821214Y-77692571D02*
X160821214Y-78121143D01*
X160821214Y-77906857D02*
X161571214Y-77906857D01*
X161464071Y-77978286D01*
X161392643Y-78049714D01*
X161356929Y-78121143D01*
X161571214Y-77442571D02*
X161571214Y-76942571D01*
X160821214Y-77264000D01*
D12*
X237401100Y-88747600D03*
D13*
X239941100Y-88747600D03*
X237401100Y-91287600D03*
X239941100Y-91287600D03*
X237401100Y-93827600D03*
X239941100Y-93827600D03*
D12*
X237401100Y-77825600D03*
D13*
X239941100Y-77825600D03*
X237401100Y-80365600D03*
X239941100Y-80365600D03*
X237401100Y-82905600D03*
X239941100Y-82905600D03*
D12*
X249682000Y-88747600D03*
D13*
X252222000Y-88747600D03*
X249682000Y-91287600D03*
X252222000Y-91287600D03*
X249682000Y-93827600D03*
X252222000Y-93827600D03*
D12*
X237401100Y-99669600D03*
D13*
X239941100Y-99669600D03*
X237401100Y-102209600D03*
X239941100Y-102209600D03*
X237401100Y-104749600D03*
X239941100Y-104749600D03*
D12*
X249682000Y-110591600D03*
D13*
X252222000Y-110591600D03*
X249682000Y-113131600D03*
X252222000Y-113131600D03*
X249682000Y-115671600D03*
X252222000Y-115671600D03*
D12*
X249682000Y-77825600D03*
D13*
X252222000Y-77825600D03*
X249682000Y-80365600D03*
X252222000Y-80365600D03*
X249682000Y-82905600D03*
X252222000Y-82905600D03*
D12*
X249682000Y-99669600D03*
D13*
X252222000Y-99669600D03*
X249682000Y-102209600D03*
X252222000Y-102209600D03*
X249682000Y-104749600D03*
X252222000Y-104749600D03*
D12*
X237401100Y-110591600D03*
D13*
X239941100Y-110591600D03*
X237401100Y-113131600D03*
X239941100Y-113131600D03*
X237401100Y-115671600D03*
X239941100Y-115671600D03*
D12*
X228854000Y-77825600D03*
D13*
X231394000Y-77825600D03*
X228854000Y-80365600D03*
X231394000Y-80365600D03*
X228854000Y-82905600D03*
X231394000Y-82905600D03*
D12*
X195745100Y-77825600D03*
D13*
X198285100Y-77825600D03*
X195745100Y-80365600D03*
X198285100Y-80365600D03*
X195745100Y-82905600D03*
X198285100Y-82905600D03*
D12*
X208026000Y-77825600D03*
D13*
X210566000Y-77825600D03*
X208026000Y-80365600D03*
X210566000Y-80365600D03*
X208026000Y-82905600D03*
X210566000Y-82905600D03*
D12*
X195745100Y-88747600D03*
D13*
X198285100Y-88747600D03*
X195745100Y-91287600D03*
X198285100Y-91287600D03*
X195745100Y-93827600D03*
X198285100Y-93827600D03*
D12*
X216573100Y-77825600D03*
D13*
X219113100Y-77825600D03*
X216573100Y-80365600D03*
X219113100Y-80365600D03*
X216573100Y-82905600D03*
X219113100Y-82905600D03*
D12*
X208026000Y-88747600D03*
D13*
X210566000Y-88747600D03*
X208026000Y-91287600D03*
X210566000Y-91287600D03*
X208026000Y-93827600D03*
X210566000Y-93827600D03*
D12*
X228854000Y-88747600D03*
D13*
X231394000Y-88747600D03*
X228854000Y-91287600D03*
X231394000Y-91287600D03*
X228854000Y-93827600D03*
X231394000Y-93827600D03*
D12*
X216573100Y-88747600D03*
D13*
X219113100Y-88747600D03*
X216573100Y-91287600D03*
X219113100Y-91287600D03*
X216573100Y-93827600D03*
X219113100Y-93827600D03*
D12*
X228854000Y-99669600D03*
D13*
X231394000Y-99669600D03*
X228854000Y-102209600D03*
X231394000Y-102209600D03*
X228854000Y-104749600D03*
X231394000Y-104749600D03*
D12*
X195745100Y-110591600D03*
D13*
X198285100Y-110591600D03*
X195745100Y-113131600D03*
X198285100Y-113131600D03*
X195745100Y-115671600D03*
X198285100Y-115671600D03*
D12*
X208026000Y-110591600D03*
D13*
X210566000Y-110591600D03*
X208026000Y-113131600D03*
X210566000Y-113131600D03*
X208026000Y-115671600D03*
X210566000Y-115671600D03*
D12*
X195745100Y-99669600D03*
D13*
X198285100Y-99669600D03*
X195745100Y-102209600D03*
X198285100Y-102209600D03*
X195745100Y-104749600D03*
X198285100Y-104749600D03*
D12*
X228854000Y-110591600D03*
D13*
X231394000Y-110591600D03*
X228854000Y-113131600D03*
X231394000Y-113131600D03*
X228854000Y-115671600D03*
X231394000Y-115671600D03*
D12*
X216573100Y-99669600D03*
D13*
X219113100Y-99669600D03*
X216573100Y-102209600D03*
X219113100Y-102209600D03*
X216573100Y-104749600D03*
X219113100Y-104749600D03*
D12*
X216573100Y-110591600D03*
D13*
X219113100Y-110591600D03*
X216573100Y-113131600D03*
X219113100Y-113131600D03*
X216573100Y-115671600D03*
X219113100Y-115671600D03*
D12*
X208026000Y-99669600D03*
D13*
X210566000Y-99669600D03*
X208026000Y-102209600D03*
X210566000Y-102209600D03*
X208026000Y-104749600D03*
X210566000Y-104749600D03*
D12*
X187198000Y-99669600D03*
D13*
X189738000Y-99669600D03*
X187198000Y-102209600D03*
X189738000Y-102209600D03*
X187198000Y-104749600D03*
X189738000Y-104749600D03*
D12*
X187198000Y-88747600D03*
D13*
X189738000Y-88747600D03*
X187198000Y-91287600D03*
X189738000Y-91287600D03*
X187198000Y-93827600D03*
X189738000Y-93827600D03*
D12*
X174917100Y-77825600D03*
D13*
X177457100Y-77825600D03*
X174917100Y-80365600D03*
X177457100Y-80365600D03*
X174917100Y-82905600D03*
X177457100Y-82905600D03*
D12*
X187198000Y-77825600D03*
D13*
X189738000Y-77825600D03*
X187198000Y-80365600D03*
X189738000Y-80365600D03*
X187198000Y-82905600D03*
X189738000Y-82905600D03*
D12*
X174917100Y-110591600D03*
D13*
X177457100Y-110591600D03*
X174917100Y-113131600D03*
X177457100Y-113131600D03*
X174917100Y-115671600D03*
X177457100Y-115671600D03*
D12*
X187198000Y-110591600D03*
D13*
X189738000Y-110591600D03*
X187198000Y-113131600D03*
X189738000Y-113131600D03*
X187198000Y-115671600D03*
X189738000Y-115671600D03*
D12*
X174917100Y-99669600D03*
D13*
X177457100Y-99669600D03*
X174917100Y-102209600D03*
X177457100Y-102209600D03*
X174917100Y-104749600D03*
X177457100Y-104749600D03*
D12*
X174917100Y-88747600D03*
D13*
X177457100Y-88747600D03*
X174917100Y-91287600D03*
X177457100Y-91287600D03*
X174917100Y-93827600D03*
X177457100Y-93827600D03*
D12*
X154089100Y-110591600D03*
D13*
X156629100Y-110591600D03*
X154089100Y-113131600D03*
X156629100Y-113131600D03*
X154089100Y-115671600D03*
X156629100Y-115671600D03*
D12*
X166370000Y-110591600D03*
D13*
X168910000Y-110591600D03*
X166370000Y-113131600D03*
X168910000Y-113131600D03*
X166370000Y-115671600D03*
X168910000Y-115671600D03*
D12*
X154089100Y-99669600D03*
D13*
X156629100Y-99669600D03*
X154089100Y-102209600D03*
X156629100Y-102209600D03*
X154089100Y-104749600D03*
X156629100Y-104749600D03*
D12*
X166370000Y-99669600D03*
D13*
X168910000Y-99669600D03*
X166370000Y-102209600D03*
X168910000Y-102209600D03*
X166370000Y-104749600D03*
X168910000Y-104749600D03*
D12*
X154089100Y-77825600D03*
D13*
X156629100Y-77825600D03*
X154089100Y-80365600D03*
X156629100Y-80365600D03*
X154089100Y-82905600D03*
X156629100Y-82905600D03*
D12*
X166370000Y-77825600D03*
D13*
X168910000Y-77825600D03*
X166370000Y-80365600D03*
X168910000Y-80365600D03*
X166370000Y-82905600D03*
X168910000Y-82905600D03*
D12*
X166370000Y-88747600D03*
D13*
X168910000Y-88747600D03*
X166370000Y-91287600D03*
X168910000Y-91287600D03*
X166370000Y-93827600D03*
X168910000Y-93827600D03*
D12*
X154089100Y-88747600D03*
D13*
X156629100Y-88747600D03*
X154089100Y-91287600D03*
X156629100Y-91287600D03*
X154089100Y-93827600D03*
X156629100Y-93827600D03*
D14*
X248568400Y-88747600D02*
X249682000Y-88747600D01*
X238181970Y-88747600D02*
X239370571Y-87558999D01*
X237401100Y-88747600D02*
X238181970Y-88747600D01*
X239370571Y-87558999D02*
X247379799Y-87558999D01*
X247379799Y-87558999D02*
X248568400Y-88747600D01*
X248568400Y-110591600D02*
X249682000Y-110591600D01*
X247379799Y-109402999D02*
X248568400Y-110591600D01*
X239370571Y-109402999D02*
X247379799Y-109402999D01*
X237401100Y-110591600D02*
X238181970Y-110591600D01*
X238181970Y-110591600D02*
X239370571Y-109402999D01*
X205723799Y-87558999D02*
X206912400Y-88747600D01*
X197714571Y-87558999D02*
X205723799Y-87558999D01*
X196525970Y-88747600D02*
X197714571Y-87558999D01*
X227740400Y-88747600D02*
X228854000Y-88747600D01*
X206912400Y-88747600D02*
X208026000Y-88747600D01*
X195745100Y-88747600D02*
X196525970Y-88747600D01*
X226551799Y-87558999D02*
X227740400Y-88747600D01*
X218542571Y-87558999D02*
X226551799Y-87558999D01*
X217353970Y-88747600D02*
X218542571Y-87558999D01*
X216573100Y-88747600D02*
X217353970Y-88747600D01*
X197714571Y-109402999D02*
X205723799Y-109402999D01*
X205723799Y-109402999D02*
X206912400Y-110591600D01*
X196525970Y-110591600D02*
X197714571Y-109402999D01*
X217353970Y-110591600D02*
X218542571Y-109402999D01*
X216573100Y-110591600D02*
X217353970Y-110591600D01*
X218542571Y-109402999D02*
X226551799Y-109402999D01*
X206912400Y-110591600D02*
X208026000Y-110591600D01*
X195745100Y-110591600D02*
X196525970Y-110591600D01*
X227740400Y-110591600D02*
X228854000Y-110591600D01*
X226551799Y-109402999D02*
X227740400Y-110591600D01*
X174917100Y-88747600D02*
X175697970Y-88747600D01*
X176886571Y-109402999D02*
X184895799Y-109402999D01*
X174917100Y-110591600D02*
X175697970Y-110591600D01*
X184895799Y-109402999D02*
X186084400Y-110591600D01*
X175697970Y-110591600D02*
X176886571Y-109402999D01*
X186084400Y-110591600D02*
X187198000Y-110591600D01*
X184895799Y-87558999D02*
X186084400Y-88747600D01*
X176886571Y-87558999D02*
X184895799Y-87558999D01*
X175697970Y-88747600D02*
X176886571Y-87558999D01*
X186084400Y-88747600D02*
X187198000Y-88747600D01*
X154089100Y-110591600D02*
X154869970Y-110591600D01*
X164067799Y-109402999D02*
X165256400Y-110591600D01*
X154869970Y-110591600D02*
X156058571Y-109402999D01*
X156058571Y-109402999D02*
X164067799Y-109402999D01*
X165256400Y-110591600D02*
X166370000Y-110591600D01*
X154089100Y-88747600D02*
X154869970Y-88747600D01*
X154869970Y-88747600D02*
X156058571Y-87558999D01*
X156058571Y-87558999D02*
X164067799Y-87558999D01*
X164067799Y-87558999D02*
X165256400Y-88747600D01*
X165256400Y-88747600D02*
X166370000Y-88747600D01*
X248818401Y-90424001D02*
X249682000Y-91287600D01*
X248330601Y-89936201D02*
X248818401Y-90424001D01*
X237401100Y-91287600D02*
X238752499Y-89936201D01*
X238752499Y-89936201D02*
X248330601Y-89936201D01*
X248330601Y-111780201D02*
X248818401Y-112268001D01*
X248818401Y-112268001D02*
X249682000Y-113131600D01*
X238752499Y-111780201D02*
X248330601Y-111780201D01*
X237401100Y-113131600D02*
X238752499Y-111780201D01*
X227502601Y-89936201D02*
X227990401Y-90424001D01*
X227990401Y-90424001D02*
X228854000Y-91287600D01*
X206674601Y-89936201D02*
X207162401Y-90424001D01*
X207162401Y-90424001D02*
X208026000Y-91287600D01*
X197096499Y-89936201D02*
X206674601Y-89936201D01*
X195745100Y-91287600D02*
X197096499Y-89936201D01*
X217924499Y-89936201D02*
X227502601Y-89936201D01*
X216573100Y-91287600D02*
X217924499Y-89936201D01*
X217924499Y-111780201D02*
X227502601Y-111780201D01*
X216573100Y-113131600D02*
X217924499Y-111780201D01*
X206674601Y-111780201D02*
X207162401Y-112268001D01*
X207162401Y-112268001D02*
X208026000Y-113131600D01*
X195745100Y-113131600D02*
X197096499Y-111780201D01*
X197096499Y-111780201D02*
X206674601Y-111780201D01*
X227502601Y-111780201D02*
X227990401Y-112268001D01*
X227990401Y-112268001D02*
X228854000Y-113131600D01*
X176268499Y-89936201D02*
X185846601Y-89936201D01*
X174917100Y-91287600D02*
X176268499Y-89936201D01*
X174917100Y-113131600D02*
X176268499Y-111780201D01*
X176268499Y-111780201D02*
X185846601Y-111780201D01*
X185846601Y-111780201D02*
X186334401Y-112268001D01*
X186334401Y-112268001D02*
X187198000Y-113131600D01*
X185846601Y-89936201D02*
X186334401Y-90424001D01*
X186334401Y-90424001D02*
X187198000Y-91287600D01*
X155440499Y-111780201D02*
X165018601Y-111780201D01*
X154089100Y-113131600D02*
X155440499Y-111780201D01*
X165018601Y-111780201D02*
X165506401Y-112268001D01*
X165506401Y-112268001D02*
X166370000Y-113131600D01*
X154089100Y-91287600D02*
X155440499Y-89936201D01*
X165506401Y-90424001D02*
X166370000Y-91287600D01*
X155440499Y-89936201D02*
X165018601Y-89936201D01*
X165018601Y-89936201D02*
X165506401Y-90424001D01*
X248493399Y-92638999D02*
X248818401Y-92964001D01*
X248818401Y-92964001D02*
X249682000Y-93827600D01*
X237401100Y-93827600D02*
X238589701Y-92638999D01*
X238589701Y-92638999D02*
X248493399Y-92638999D01*
X238589701Y-114482999D02*
X248493399Y-114482999D01*
X248493399Y-114482999D02*
X248818401Y-114808001D01*
X248818401Y-114808001D02*
X249682000Y-115671600D01*
X237401100Y-115671600D02*
X238589701Y-114482999D01*
X227665399Y-92638999D02*
X227990401Y-92964001D01*
X227990401Y-92964001D02*
X228854000Y-93827600D01*
X217761701Y-92638999D02*
X227665399Y-92638999D01*
X207162401Y-92964001D02*
X208026000Y-93827600D01*
X206837399Y-92638999D02*
X207162401Y-92964001D01*
X196933701Y-92638999D02*
X206837399Y-92638999D01*
X195745100Y-93827600D02*
X196933701Y-92638999D01*
X216573100Y-93827600D02*
X217761701Y-92638999D01*
X216573100Y-115671600D02*
X217761701Y-114482999D01*
X217761701Y-114482999D02*
X227665399Y-114482999D01*
X207162401Y-114808001D02*
X208026000Y-115671600D01*
X206837399Y-114482999D02*
X207162401Y-114808001D01*
X195745100Y-115671600D02*
X196933701Y-114482999D01*
X196933701Y-114482999D02*
X206837399Y-114482999D01*
X227990401Y-114808001D02*
X228854000Y-115671600D01*
X227665399Y-114482999D02*
X227990401Y-114808001D01*
X174917100Y-93827600D02*
X176105701Y-92638999D01*
X176105701Y-92638999D02*
X186009399Y-92638999D01*
X174917100Y-115671600D02*
X176105701Y-114482999D01*
X186334401Y-114808001D02*
X187198000Y-115671600D01*
X186009399Y-114482999D02*
X186334401Y-114808001D01*
X176105701Y-114482999D02*
X186009399Y-114482999D01*
X186009399Y-92638999D02*
X186334401Y-92964001D01*
X186334401Y-92964001D02*
X187198000Y-93827600D01*
X154089100Y-115671600D02*
X155277701Y-114482999D01*
X155277701Y-114482999D02*
X165181399Y-114482999D01*
X165506401Y-114808001D02*
X166370000Y-115671600D01*
X165181399Y-114482999D02*
X165506401Y-114808001D01*
X154089100Y-93827600D02*
X155277701Y-92638999D01*
X155277701Y-92638999D02*
X165181399Y-92638999D01*
X165181399Y-92638999D02*
X165506401Y-92964001D01*
X165506401Y-92964001D02*
X166370000Y-93827600D01*
M02*
