M48
;DRILL file {KiCad 4.0.5+dfsg1-4} date Wed Oct 11 12:16:21 2017
;FORMAT={-:-/ absolute / inch / decimal}
FMAT,2
INCH,TZ
T1C0.040
%
G90
G05
M72
T1
X6.0665Y-3.064
X6.0665Y-3.164
X6.0665Y-3.264
X6.0665Y-3.494
X6.0665Y-3.594
X6.0665Y-3.694
X6.0665Y-3.924
X6.0665Y-4.024
X6.0665Y-4.124
X6.0665Y-4.354
X6.0665Y-4.454
X6.0665Y-4.554
X6.1665Y-3.064
X6.1665Y-3.164
X6.1665Y-3.264
X6.1665Y-3.494
X6.1665Y-3.594
X6.1665Y-3.694
X6.1665Y-3.924
X6.1665Y-4.024
X6.1665Y-4.124
X6.1665Y-4.354
X6.1665Y-4.454
X6.1665Y-4.554
X6.55Y-3.064
X6.55Y-3.164
X6.55Y-3.264
X6.55Y-3.494
X6.55Y-3.594
X6.55Y-3.694
X6.55Y-3.924
X6.55Y-4.024
X6.55Y-4.124
X6.55Y-4.354
X6.55Y-4.454
X6.55Y-4.554
X6.65Y-3.064
X6.65Y-3.164
X6.65Y-3.264
X6.65Y-3.494
X6.65Y-3.594
X6.65Y-3.694
X6.65Y-3.924
X6.65Y-4.024
X6.65Y-4.124
X6.65Y-4.354
X6.65Y-4.454
X6.65Y-4.554
X6.8865Y-3.064
X6.8865Y-3.164
X6.8865Y-3.264
X6.8865Y-3.494
X6.8865Y-3.594
X6.8865Y-3.694
X6.8865Y-3.924
X6.8865Y-4.024
X6.8865Y-4.124
X6.8865Y-4.354
X6.8865Y-4.454
X6.8865Y-4.554
X6.9865Y-3.064
X6.9865Y-3.164
X6.9865Y-3.264
X6.9865Y-3.494
X6.9865Y-3.594
X6.9865Y-3.694
X6.9865Y-3.924
X6.9865Y-4.024
X6.9865Y-4.124
X6.9865Y-4.354
X6.9865Y-4.454
X6.9865Y-4.554
X7.37Y-3.064
X7.37Y-3.164
X7.37Y-3.264
X7.37Y-3.494
X7.37Y-3.594
X7.37Y-3.694
X7.37Y-3.924
X7.37Y-4.024
X7.37Y-4.124
X7.37Y-4.354
X7.37Y-4.454
X7.37Y-4.554
X7.47Y-3.064
X7.47Y-3.164
X7.47Y-3.264
X7.47Y-3.494
X7.47Y-3.594
X7.47Y-3.694
X7.47Y-3.924
X7.47Y-4.024
X7.47Y-4.124
X7.47Y-4.354
X7.47Y-4.454
X7.47Y-4.554
X7.7065Y-3.064
X7.7065Y-3.164
X7.7065Y-3.264
X7.7065Y-3.494
X7.7065Y-3.594
X7.7065Y-3.694
X7.7065Y-3.924
X7.7065Y-4.024
X7.7065Y-4.124
X7.7065Y-4.354
X7.7065Y-4.454
X7.7065Y-4.554
X7.8065Y-3.064
X7.8065Y-3.164
X7.8065Y-3.264
X7.8065Y-3.494
X7.8065Y-3.594
X7.8065Y-3.694
X7.8065Y-3.924
X7.8065Y-4.024
X7.8065Y-4.124
X7.8065Y-4.354
X7.8065Y-4.454
X7.8065Y-4.554
X8.19Y-3.064
X8.19Y-3.164
X8.19Y-3.264
X8.19Y-3.494
X8.19Y-3.594
X8.19Y-3.694
X8.19Y-3.924
X8.19Y-4.024
X8.19Y-4.124
X8.19Y-4.354
X8.19Y-4.454
X8.19Y-4.554
X8.29Y-3.064
X8.29Y-3.164
X8.29Y-3.264
X8.29Y-3.494
X8.29Y-3.594
X8.29Y-3.694
X8.29Y-3.924
X8.29Y-4.024
X8.29Y-4.124
X8.29Y-4.354
X8.29Y-4.454
X8.29Y-4.554
X8.5265Y-3.064
X8.5265Y-3.164
X8.5265Y-3.264
X8.5265Y-3.494
X8.5265Y-3.594
X8.5265Y-3.694
X8.5265Y-3.924
X8.5265Y-4.024
X8.5265Y-4.124
X8.5265Y-4.354
X8.5265Y-4.454
X8.5265Y-4.554
X8.6265Y-3.064
X8.6265Y-3.164
X8.6265Y-3.264
X8.6265Y-3.494
X8.6265Y-3.594
X8.6265Y-3.694
X8.6265Y-3.924
X8.6265Y-4.024
X8.6265Y-4.124
X8.6265Y-4.354
X8.6265Y-4.454
X8.6265Y-4.554
X9.01Y-3.064
X9.01Y-3.164
X9.01Y-3.264
X9.01Y-3.494
X9.01Y-3.594
X9.01Y-3.694
X9.01Y-3.924
X9.01Y-4.024
X9.01Y-4.124
X9.01Y-4.354
X9.01Y-4.454
X9.01Y-4.554
X9.11Y-3.064
X9.11Y-3.164
X9.11Y-3.264
X9.11Y-3.494
X9.11Y-3.594
X9.11Y-3.694
X9.11Y-3.924
X9.11Y-4.024
X9.11Y-4.124
X9.11Y-4.354
X9.11Y-4.454
X9.11Y-4.554
X9.3465Y-3.064
X9.3465Y-3.164
X9.3465Y-3.264
X9.3465Y-3.494
X9.3465Y-3.594
X9.3465Y-3.694
X9.3465Y-3.924
X9.3465Y-4.024
X9.3465Y-4.124
X9.3465Y-4.354
X9.3465Y-4.454
X9.3465Y-4.554
X9.4465Y-3.064
X9.4465Y-3.164
X9.4465Y-3.264
X9.4465Y-3.494
X9.4465Y-3.594
X9.4465Y-3.694
X9.4465Y-3.924
X9.4465Y-4.024
X9.4465Y-4.124
X9.4465Y-4.354
X9.4465Y-4.454
X9.4465Y-4.554
X9.83Y-3.064
X9.83Y-3.164
X9.83Y-3.264
X9.83Y-3.494
X9.83Y-3.594
X9.83Y-3.694
X9.83Y-3.924
X9.83Y-4.024
X9.83Y-4.124
X9.83Y-4.354
X9.83Y-4.454
X9.83Y-4.554
X9.93Y-3.064
X9.93Y-3.164
X9.93Y-3.264
X9.93Y-3.494
X9.93Y-3.594
X9.93Y-3.694
X9.93Y-3.924
X9.93Y-4.024
X9.93Y-4.124
X9.93Y-4.354
X9.93Y-4.454
X9.93Y-4.554
T0
M30
