G04 #@! TF.FileFunction,Legend,Bot*
%FSLAX46Y46*%
G04 Gerber Fmt 4.6, Leading zero omitted, Abs format (unit mm)*
G04 Created by KiCad (PCBNEW 4.0.5+dfsg1-4) date Sun Oct 21 08:43:36 2018*
%MOMM*%
%LPD*%
G01*
G04 APERTURE LIST*
%ADD10C,0.100000*%
%ADD11C,0.625000*%
%ADD12C,0.010000*%
G04 APERTURE END LIST*
D10*
D11*
X172100905Y-113473952D02*
X170672333Y-113473952D01*
X171386619Y-115973952D02*
X171386619Y-113473952D01*
X169839000Y-115973952D02*
X169839000Y-113473952D01*
X169839000Y-114664429D02*
X168410428Y-114664429D01*
X168410428Y-115973952D02*
X168410428Y-113473952D01*
X167219952Y-113473952D02*
X167219952Y-115497762D01*
X167100904Y-115735857D01*
X166981857Y-115854905D01*
X166743761Y-115973952D01*
X166267571Y-115973952D01*
X166029476Y-115854905D01*
X165910428Y-115735857D01*
X165791380Y-115497762D01*
X165791380Y-113473952D01*
X164600904Y-115973952D02*
X164600904Y-113473952D01*
X163172332Y-115973952D01*
X163172332Y-113473952D01*
X161981856Y-115973952D02*
X161981856Y-113473952D01*
X160553284Y-115973952D02*
X161624713Y-114545381D01*
X160553284Y-113473952D02*
X161981856Y-114902524D01*
X159481856Y-115973952D02*
X159481856Y-113473952D01*
X158648523Y-113473952D02*
X157219951Y-113473952D01*
X157934237Y-115973952D02*
X157934237Y-113473952D01*
X171743762Y-119039429D02*
X170910429Y-119039429D01*
X170553286Y-120348952D02*
X171743762Y-120348952D01*
X171743762Y-117848952D01*
X170553286Y-117848952D01*
X168291381Y-120348952D02*
X169481857Y-120348952D01*
X169481857Y-117848952D01*
X167458047Y-119039429D02*
X166624714Y-119039429D01*
X166267571Y-120348952D02*
X167458047Y-120348952D01*
X167458047Y-117848952D01*
X166267571Y-117848952D01*
X163767570Y-120110857D02*
X163886618Y-120229905D01*
X164243761Y-120348952D01*
X164481856Y-120348952D01*
X164838999Y-120229905D01*
X165077094Y-119991810D01*
X165196142Y-119753714D01*
X165315190Y-119277524D01*
X165315190Y-118920381D01*
X165196142Y-118444190D01*
X165077094Y-118206095D01*
X164838999Y-117968000D01*
X164481856Y-117848952D01*
X164243761Y-117848952D01*
X163886618Y-117968000D01*
X163767570Y-118087048D01*
X163053285Y-117848952D02*
X161624713Y-117848952D01*
X162338999Y-120348952D02*
X162338999Y-117848952D01*
X159362808Y-120348952D02*
X160196142Y-119158476D01*
X160791380Y-120348952D02*
X160791380Y-117848952D01*
X159838999Y-117848952D01*
X159600904Y-117968000D01*
X159481856Y-118087048D01*
X159362808Y-118325143D01*
X159362808Y-118682286D01*
X159481856Y-118920381D01*
X159600904Y-119039429D01*
X159838999Y-119158476D01*
X160791380Y-119158476D01*
X157815189Y-117848952D02*
X157338999Y-117848952D01*
X157100904Y-117968000D01*
X156862808Y-118206095D01*
X156743761Y-118682286D01*
X156743761Y-119515619D01*
X156862808Y-119991810D01*
X157100904Y-120229905D01*
X157338999Y-120348952D01*
X157815189Y-120348952D01*
X158053285Y-120229905D01*
X158291380Y-119991810D01*
X158410428Y-119515619D01*
X158410428Y-118682286D01*
X158291380Y-118206095D01*
X158053285Y-117968000D01*
X157815189Y-117848952D01*
X155672332Y-120348952D02*
X155672332Y-117848952D01*
X154243760Y-120348952D01*
X154243760Y-117848952D01*
X153053284Y-120348952D02*
X153053284Y-117848952D01*
X150434236Y-120110857D02*
X150553284Y-120229905D01*
X150910427Y-120348952D01*
X151148522Y-120348952D01*
X151505665Y-120229905D01*
X151743760Y-119991810D01*
X151862808Y-119753714D01*
X151981856Y-119277524D01*
X151981856Y-118920381D01*
X151862808Y-118444190D01*
X151743760Y-118206095D01*
X151505665Y-117968000D01*
X151148522Y-117848952D01*
X150910427Y-117848952D01*
X150553284Y-117968000D01*
X150434236Y-118087048D01*
X149481856Y-120229905D02*
X149124713Y-120348952D01*
X148529475Y-120348952D01*
X148291379Y-120229905D01*
X148172332Y-120110857D01*
X148053284Y-119872762D01*
X148053284Y-119634667D01*
X148172332Y-119396571D01*
X148291379Y-119277524D01*
X148529475Y-119158476D01*
X149005665Y-119039429D01*
X149243760Y-118920381D01*
X149362808Y-118801333D01*
X149481856Y-118563238D01*
X149481856Y-118325143D01*
X149362808Y-118087048D01*
X149243760Y-117968000D01*
X149005665Y-117848952D01*
X148410427Y-117848952D01*
X148053284Y-117968000D01*
D12*
G36*
X145756384Y-120254800D02*
X145731042Y-120184333D01*
X145689968Y-120075541D01*
X145627778Y-119908700D01*
X145548430Y-119694597D01*
X145455881Y-119444022D01*
X145354089Y-119167760D01*
X145247013Y-118876601D01*
X145138611Y-118581333D01*
X145032841Y-118292742D01*
X144933661Y-118021618D01*
X144845029Y-117778747D01*
X144770903Y-117574918D01*
X144715241Y-117420919D01*
X144682001Y-117327537D01*
X144674167Y-117303791D01*
X144714738Y-117298813D01*
X144829408Y-117293587D01*
X145007609Y-117288367D01*
X145238776Y-117283405D01*
X145512341Y-117278956D01*
X145817737Y-117275274D01*
X145891978Y-117274556D01*
X147109790Y-117263333D01*
X145706262Y-115407567D01*
X145442073Y-115058597D01*
X145192241Y-114729253D01*
X144961596Y-114425860D01*
X144754968Y-114154740D01*
X144577189Y-113922216D01*
X144433090Y-113734611D01*
X144327500Y-113598247D01*
X144265250Y-113519449D01*
X144250859Y-113502567D01*
X144215676Y-113480503D01*
X144220652Y-113527790D01*
X144223536Y-113538000D01*
X144249782Y-113631377D01*
X144292386Y-113786335D01*
X144348159Y-113990999D01*
X144413909Y-114233497D01*
X144486446Y-114501955D01*
X144562577Y-114784499D01*
X144639113Y-115069256D01*
X144712861Y-115344352D01*
X144780632Y-115597914D01*
X144839234Y-115818068D01*
X144885475Y-115992941D01*
X144916166Y-116110659D01*
X144928114Y-116159349D01*
X144928167Y-116159859D01*
X144887619Y-116166067D01*
X144773116Y-116171677D01*
X144595368Y-116176474D01*
X144365087Y-116180240D01*
X144092982Y-116182759D01*
X143789765Y-116183815D01*
X143742833Y-116183833D01*
X143435916Y-116184557D01*
X143158524Y-116186599D01*
X142921368Y-116189770D01*
X142735159Y-116193877D01*
X142610607Y-116198731D01*
X142558424Y-116204140D01*
X142557500Y-116204977D01*
X142582758Y-116240681D01*
X142654868Y-116335901D01*
X142768332Y-116483607D01*
X142917653Y-116676773D01*
X143097334Y-116908369D01*
X143301878Y-117171367D01*
X143525787Y-117458739D01*
X143763564Y-117763457D01*
X144009712Y-118078492D01*
X144258734Y-118396817D01*
X144505133Y-118711403D01*
X144743410Y-119015221D01*
X144968070Y-119301244D01*
X145173614Y-119562442D01*
X145354546Y-119791789D01*
X145505368Y-119982256D01*
X145620583Y-120126813D01*
X145694695Y-120218434D01*
X145719664Y-120247833D01*
X145756426Y-120280808D01*
X145756384Y-120254800D01*
X145756384Y-120254800D01*
G37*
X145756384Y-120254800D02*
X145731042Y-120184333D01*
X145689968Y-120075541D01*
X145627778Y-119908700D01*
X145548430Y-119694597D01*
X145455881Y-119444022D01*
X145354089Y-119167760D01*
X145247013Y-118876601D01*
X145138611Y-118581333D01*
X145032841Y-118292742D01*
X144933661Y-118021618D01*
X144845029Y-117778747D01*
X144770903Y-117574918D01*
X144715241Y-117420919D01*
X144682001Y-117327537D01*
X144674167Y-117303791D01*
X144714738Y-117298813D01*
X144829408Y-117293587D01*
X145007609Y-117288367D01*
X145238776Y-117283405D01*
X145512341Y-117278956D01*
X145817737Y-117275274D01*
X145891978Y-117274556D01*
X147109790Y-117263333D01*
X145706262Y-115407567D01*
X145442073Y-115058597D01*
X145192241Y-114729253D01*
X144961596Y-114425860D01*
X144754968Y-114154740D01*
X144577189Y-113922216D01*
X144433090Y-113734611D01*
X144327500Y-113598247D01*
X144265250Y-113519449D01*
X144250859Y-113502567D01*
X144215676Y-113480503D01*
X144220652Y-113527790D01*
X144223536Y-113538000D01*
X144249782Y-113631377D01*
X144292386Y-113786335D01*
X144348159Y-113990999D01*
X144413909Y-114233497D01*
X144486446Y-114501955D01*
X144562577Y-114784499D01*
X144639113Y-115069256D01*
X144712861Y-115344352D01*
X144780632Y-115597914D01*
X144839234Y-115818068D01*
X144885475Y-115992941D01*
X144916166Y-116110659D01*
X144928114Y-116159349D01*
X144928167Y-116159859D01*
X144887619Y-116166067D01*
X144773116Y-116171677D01*
X144595368Y-116176474D01*
X144365087Y-116180240D01*
X144092982Y-116182759D01*
X143789765Y-116183815D01*
X143742833Y-116183833D01*
X143435916Y-116184557D01*
X143158524Y-116186599D01*
X142921368Y-116189770D01*
X142735159Y-116193877D01*
X142610607Y-116198731D01*
X142558424Y-116204140D01*
X142557500Y-116204977D01*
X142582758Y-116240681D01*
X142654868Y-116335901D01*
X142768332Y-116483607D01*
X142917653Y-116676773D01*
X143097334Y-116908369D01*
X143301878Y-117171367D01*
X143525787Y-117458739D01*
X143763564Y-117763457D01*
X144009712Y-118078492D01*
X144258734Y-118396817D01*
X144505133Y-118711403D01*
X144743410Y-119015221D01*
X144968070Y-119301244D01*
X145173614Y-119562442D01*
X145354546Y-119791789D01*
X145505368Y-119982256D01*
X145620583Y-120126813D01*
X145694695Y-120218434D01*
X145719664Y-120247833D01*
X145756426Y-120280808D01*
X145756384Y-120254800D01*
M02*
