M48
;DRILL file {KiCad 4.0.5+dfsg1-4} date Sun Oct 21 08:43:40 2018
;FORMAT={-:-/ absolute / inch / decimal}
FMAT,2
INCH,TZ
T1C0.016
T2C0.039
T3C0.040
%
G90
G05
M72
T1
X6.39Y-4.13
X6.4395Y-4.13
X6.44Y-4.3
X6.49Y-3.44
X6.54Y-4.13
X6.75Y-3.61
X6.75Y-3.66
X6.75Y-3.71
X6.75Y-3.76
X6.75Y-3.81
X6.75Y-3.86
X6.75Y-3.91
X6.75Y-3.96
T2
X5.24Y-2.93
X5.34Y-2.93
X5.44Y-2.93
X5.54Y-2.93
X5.6Y-4.82
X5.64Y-2.93
X5.7Y-4.82
X5.74Y-2.93
X5.8Y-4.82
X5.84Y-2.93
X5.9Y-4.82
X5.94Y-2.93
X6.Y-4.82
X6.04Y-2.93
X6.1Y-4.82
X6.14Y-2.93
X6.2Y-4.82
X6.3Y-2.93
X6.3Y-4.82
X6.4Y-2.93
X6.5Y-2.93
X6.5Y-4.82
X6.6Y-2.93
X6.6Y-4.82
X6.7Y-2.93
X6.7Y-4.82
X6.8Y-2.93
X6.8Y-4.82
X6.9Y-2.93
X6.9Y-4.82
X7.Y-2.93
X7.Y-4.82
T3
X5.18Y-3.25
X5.18Y-3.35
X5.28Y-3.25
X5.28Y-3.35
X5.38Y-3.25
X5.38Y-3.35
X5.48Y-3.25
X5.48Y-3.35
X5.58Y-3.25
X5.58Y-3.35
X5.68Y-3.25
X5.68Y-3.35
X5.78Y-3.25
X5.78Y-3.35
X5.78Y-3.5
X5.78Y-3.6
X5.78Y-3.7
X5.78Y-3.8
X5.78Y-3.9
X5.78Y-4.
X5.78Y-4.1
X5.78Y-4.2
X5.88Y-3.25
X5.88Y-3.35
X5.88Y-3.5
X5.88Y-3.6
X5.88Y-3.7
X5.88Y-3.8
X5.88Y-3.9
X5.88Y-4.
X5.88Y-4.1
X5.88Y-4.2
X6.03Y-3.25
X6.03Y-3.35
X6.13Y-3.25
X6.13Y-3.35
X6.23Y-3.25
X6.23Y-3.35
X6.33Y-3.25
X6.33Y-3.35
X6.43Y-3.25
X6.43Y-3.35
X6.53Y-3.25
X6.53Y-3.35
X6.63Y-3.25
X6.63Y-3.35
X6.73Y-3.25
X6.73Y-3.35
T0
M30
