G04 #@! TF.FileFunction,Soldermask,Bot*
%FSLAX46Y46*%
G04 Gerber Fmt 4.6, Leading zero omitted, Abs format (unit mm)*
G04 Created by KiCad (PCBNEW 4.0.5+dfsg1-4) date Tue Oct 16 22:11:46 2018*
%MOMM*%
%LPD*%
G01*
G04 APERTURE LIST*
%ADD10C,0.100000*%
%ADD11R,1.801600X1.801600*%
%ADD12O,1.801600X1.801600*%
%ADD13R,1.828800X1.828800*%
%ADD14O,1.828800X1.828800*%
G04 APERTURE END LIST*
D10*
D11*
X74168000Y-74422000D03*
D12*
X76708000Y-74422000D03*
X79248000Y-74422000D03*
X81788000Y-74422000D03*
X84328000Y-74422000D03*
X86868000Y-74422000D03*
D11*
X91948000Y-74422000D03*
D12*
X94488000Y-74422000D03*
X97028000Y-74422000D03*
X99568000Y-74422000D03*
X102108000Y-74422000D03*
X104648000Y-74422000D03*
X107188000Y-74422000D03*
X109728000Y-74422000D03*
D13*
X120396000Y-111760000D03*
D14*
X120396000Y-114300000D03*
X117856000Y-111760000D03*
X117856000Y-114300000D03*
X115316000Y-111760000D03*
X115316000Y-114300000D03*
X112776000Y-111760000D03*
X112776000Y-114300000D03*
X110236000Y-111760000D03*
X110236000Y-114300000D03*
X107696000Y-111760000D03*
X107696000Y-114300000D03*
X105156000Y-111760000D03*
X105156000Y-114300000D03*
X102616000Y-111760000D03*
X102616000Y-114300000D03*
D11*
X118872000Y-122428000D03*
D12*
X116332000Y-122428000D03*
X113792000Y-122428000D03*
X111252000Y-122428000D03*
X108712000Y-122428000D03*
X106172000Y-122428000D03*
X103632000Y-122428000D03*
X101092000Y-122428000D03*
X98552000Y-122428000D03*
X96012000Y-122428000D03*
D13*
X98806000Y-111760000D03*
D14*
X98806000Y-114300000D03*
X96266000Y-111760000D03*
X96266000Y-114300000D03*
X93726000Y-111760000D03*
X93726000Y-114300000D03*
X91186000Y-111760000D03*
X91186000Y-114300000D03*
X88646000Y-111760000D03*
X88646000Y-114300000D03*
X86106000Y-111760000D03*
X86106000Y-114300000D03*
X83566000Y-111760000D03*
X83566000Y-114300000D03*
X81026000Y-111760000D03*
X81026000Y-114300000D03*
D13*
X102616000Y-90170000D03*
D14*
X105156000Y-90170000D03*
X102616000Y-92710000D03*
X105156000Y-92710000D03*
X102616000Y-95250000D03*
X105156000Y-95250000D03*
X102616000Y-97790000D03*
X105156000Y-97790000D03*
X102616000Y-100330000D03*
X105156000Y-100330000D03*
X102616000Y-102870000D03*
X105156000Y-102870000D03*
X102616000Y-105410000D03*
X105156000Y-105410000D03*
X102616000Y-107950000D03*
X105156000Y-107950000D03*
D11*
X74168000Y-122428000D03*
D12*
X76708000Y-122428000D03*
X79248000Y-122428000D03*
X81788000Y-122428000D03*
X84328000Y-122428000D03*
X86868000Y-122428000D03*
X89408000Y-122428000D03*
X91948000Y-122428000D03*
D13*
X153162000Y-85090000D03*
D14*
X153162000Y-82550000D03*
X155702000Y-85090000D03*
X155702000Y-82550000D03*
X158242000Y-85090000D03*
X158242000Y-82550000D03*
X160782000Y-85090000D03*
X160782000Y-82550000D03*
X163322000Y-85090000D03*
X163322000Y-82550000D03*
X165862000Y-85090000D03*
X165862000Y-82550000D03*
X168402000Y-85090000D03*
X168402000Y-82550000D03*
X170942000Y-85090000D03*
X170942000Y-82550000D03*
D11*
X177800000Y-122428000D03*
D12*
X175260000Y-122428000D03*
X172720000Y-122428000D03*
X170180000Y-122428000D03*
X167640000Y-122428000D03*
X165100000Y-122428000D03*
D11*
X177800000Y-74422000D03*
D12*
X175260000Y-74422000D03*
X172720000Y-74422000D03*
X170180000Y-74422000D03*
X167640000Y-74422000D03*
X165100000Y-74422000D03*
X162560000Y-74422000D03*
X160020000Y-74422000D03*
D11*
X160020000Y-122428000D03*
D12*
X157480000Y-122428000D03*
X154940000Y-122428000D03*
X152400000Y-122428000D03*
X149860000Y-122428000D03*
X147320000Y-122428000D03*
X144780000Y-122428000D03*
X142240000Y-122428000D03*
D11*
X133096000Y-74422000D03*
D12*
X135636000Y-74422000D03*
X138176000Y-74422000D03*
X140716000Y-74422000D03*
X143256000Y-74422000D03*
X145796000Y-74422000D03*
X148336000Y-74422000D03*
X150876000Y-74422000D03*
X153416000Y-74422000D03*
X155956000Y-74422000D03*
D13*
X149352000Y-106680000D03*
D14*
X146812000Y-106680000D03*
X149352000Y-104140000D03*
X146812000Y-104140000D03*
X149352000Y-101600000D03*
X146812000Y-101600000D03*
X149352000Y-99060000D03*
X146812000Y-99060000D03*
X149352000Y-96520000D03*
X146812000Y-96520000D03*
X149352000Y-93980000D03*
X146812000Y-93980000D03*
X149352000Y-91440000D03*
X146812000Y-91440000D03*
X149352000Y-88900000D03*
X146812000Y-88900000D03*
D13*
X131572000Y-85090000D03*
D14*
X131572000Y-82550000D03*
X134112000Y-85090000D03*
X134112000Y-82550000D03*
X136652000Y-85090000D03*
X136652000Y-82550000D03*
X139192000Y-85090000D03*
X139192000Y-82550000D03*
X141732000Y-85090000D03*
X141732000Y-82550000D03*
X144272000Y-85090000D03*
X144272000Y-82550000D03*
X146812000Y-85090000D03*
X146812000Y-82550000D03*
X149352000Y-85090000D03*
X149352000Y-82550000D03*
M02*
