G04 #@! TF.FileFunction,Legend,Top*
%FSLAX46Y46*%
G04 Gerber Fmt 4.6, Leading zero omitted, Abs format (unit mm)*
G04 Created by KiCad (PCBNEW 4.0.5+dfsg1-4) date Tue Oct 16 22:11:46 2018*
%MOMM*%
%LPD*%
G01*
G04 APERTURE LIST*
%ADD10C,0.100000*%
%ADD11C,0.150000*%
%ADD12C,0.500000*%
%ADD13C,0.200000*%
%ADD14C,0.120000*%
%ADD15C,0.010000*%
G04 APERTURE END LIST*
D10*
D11*
X100115619Y-76898524D02*
X100115619Y-76422333D01*
X99639429Y-76374714D01*
X99687048Y-76422333D01*
X99734667Y-76517571D01*
X99734667Y-76755667D01*
X99687048Y-76850905D01*
X99639429Y-76898524D01*
X99544190Y-76946143D01*
X99306095Y-76946143D01*
X99210857Y-76898524D01*
X99163238Y-76850905D01*
X99115619Y-76755667D01*
X99115619Y-76517571D01*
X99163238Y-76422333D01*
X99210857Y-76374714D01*
X100115619Y-77231857D02*
X99115619Y-77565190D01*
X100115619Y-77898524D01*
X74001333Y-76374714D02*
X74001333Y-76850905D01*
X73715619Y-76279476D02*
X74715619Y-76612809D01*
X73715619Y-76946143D01*
X74715619Y-77755667D02*
X74715619Y-77279476D01*
X74239429Y-77231857D01*
X74287048Y-77279476D01*
X74334667Y-77374714D01*
X74334667Y-77612810D01*
X74287048Y-77708048D01*
X74239429Y-77755667D01*
X74144190Y-77803286D01*
X73906095Y-77803286D01*
X73810857Y-77755667D01*
X73763238Y-77708048D01*
X73715619Y-77612810D01*
X73715619Y-77374714D01*
X73763238Y-77279476D01*
X73810857Y-77231857D01*
X86701333Y-76374714D02*
X86701333Y-76850905D01*
X86415619Y-76279476D02*
X87415619Y-76612809D01*
X86415619Y-76946143D01*
X87415619Y-77469952D02*
X87415619Y-77565191D01*
X87368000Y-77660429D01*
X87320381Y-77708048D01*
X87225143Y-77755667D01*
X87034667Y-77803286D01*
X86796571Y-77803286D01*
X86606095Y-77755667D01*
X86510857Y-77708048D01*
X86463238Y-77660429D01*
X86415619Y-77565191D01*
X86415619Y-77469952D01*
X86463238Y-77374714D01*
X86510857Y-77327095D01*
X86606095Y-77279476D01*
X86796571Y-77231857D01*
X87034667Y-77231857D01*
X87225143Y-77279476D01*
X87320381Y-77327095D01*
X87368000Y-77374714D01*
X87415619Y-77469952D01*
X84161333Y-76374714D02*
X84161333Y-76850905D01*
X83875619Y-76279476D02*
X84875619Y-76612809D01*
X83875619Y-76946143D01*
X83875619Y-77803286D02*
X83875619Y-77231857D01*
X83875619Y-77517571D02*
X84875619Y-77517571D01*
X84732762Y-77422333D01*
X84637524Y-77327095D01*
X84589905Y-77231857D01*
X76541333Y-76374714D02*
X76541333Y-76850905D01*
X76255619Y-76279476D02*
X77255619Y-76612809D01*
X76255619Y-76946143D01*
X76922286Y-77708048D02*
X76255619Y-77708048D01*
X77303238Y-77469952D02*
X76588952Y-77231857D01*
X76588952Y-77850905D01*
X81621333Y-76374714D02*
X81621333Y-76850905D01*
X81335619Y-76279476D02*
X82335619Y-76612809D01*
X81335619Y-76946143D01*
X82240381Y-77231857D02*
X82288000Y-77279476D01*
X82335619Y-77374714D01*
X82335619Y-77612810D01*
X82288000Y-77708048D01*
X82240381Y-77755667D01*
X82145143Y-77803286D01*
X82049905Y-77803286D01*
X81907048Y-77755667D01*
X81335619Y-77184238D01*
X81335619Y-77803286D01*
X79081333Y-76374714D02*
X79081333Y-76850905D01*
X78795619Y-76279476D02*
X79795619Y-76612809D01*
X78795619Y-76946143D01*
X79795619Y-77184238D02*
X79795619Y-77803286D01*
X79414667Y-77469952D01*
X79414667Y-77612810D01*
X79367048Y-77708048D01*
X79319429Y-77755667D01*
X79224190Y-77803286D01*
X78986095Y-77803286D01*
X78890857Y-77755667D01*
X78843238Y-77708048D01*
X78795619Y-77612810D01*
X78795619Y-77327095D01*
X78843238Y-77231857D01*
X78890857Y-77184238D01*
X102655619Y-76374810D02*
X102655619Y-76993858D01*
X102274667Y-76660524D01*
X102274667Y-76803382D01*
X102227048Y-76898620D01*
X102179429Y-76946239D01*
X102084190Y-76993858D01*
X101846095Y-76993858D01*
X101750857Y-76946239D01*
X101703238Y-76898620D01*
X101655619Y-76803382D01*
X101655619Y-76517667D01*
X101703238Y-76422429D01*
X101750857Y-76374810D01*
X101750857Y-77422429D02*
X101703238Y-77470048D01*
X101655619Y-77422429D01*
X101703238Y-77374810D01*
X101750857Y-77422429D01*
X101655619Y-77422429D01*
X102655619Y-77803381D02*
X102655619Y-78422429D01*
X102274667Y-78089095D01*
X102274667Y-78231953D01*
X102227048Y-78327191D01*
X102179429Y-78374810D01*
X102084190Y-78422429D01*
X101846095Y-78422429D01*
X101750857Y-78374810D01*
X101703238Y-78327191D01*
X101655619Y-78231953D01*
X101655619Y-77946238D01*
X101703238Y-77851000D01*
X101750857Y-77803381D01*
X102655619Y-78708143D02*
X101655619Y-79041476D01*
X102655619Y-79374810D01*
D12*
X110503999Y-82716857D02*
X111932570Y-82716857D01*
X111932570Y-85716857D01*
X108932571Y-85716857D02*
X108361142Y-85716857D01*
X108075428Y-85574000D01*
X107789714Y-85288286D01*
X107646856Y-84716857D01*
X107646856Y-83716857D01*
X107789714Y-83145429D01*
X108075428Y-82859714D01*
X108361142Y-82716857D01*
X108932571Y-82716857D01*
X109218285Y-82859714D01*
X109503999Y-83145429D01*
X109646856Y-83716857D01*
X109646856Y-84716857D01*
X109503999Y-85288286D01*
X109218285Y-85574000D01*
X108932571Y-85716857D01*
X104789714Y-85574000D02*
X105075428Y-85716857D01*
X105503999Y-85716857D01*
X105932571Y-85574000D01*
X106218285Y-85288286D01*
X106361142Y-85002571D01*
X106503999Y-84431143D01*
X106503999Y-84002571D01*
X106361142Y-83431143D01*
X106218285Y-83145429D01*
X105932571Y-82859714D01*
X105503999Y-82716857D01*
X105218285Y-82716857D01*
X104789714Y-82859714D01*
X104646857Y-83002571D01*
X104646857Y-84002571D01*
X105218285Y-84002571D01*
X103361142Y-82716857D02*
X103361142Y-85716857D01*
X100218286Y-83002571D02*
X100361143Y-82859714D01*
X100789714Y-82716857D01*
X101075428Y-82716857D01*
X101504000Y-82859714D01*
X101789714Y-83145429D01*
X101932571Y-83431143D01*
X102075428Y-84002571D01*
X102075428Y-84431143D01*
X101932571Y-85002571D01*
X101789714Y-85288286D01*
X101504000Y-85574000D01*
X101075428Y-85716857D01*
X100789714Y-85716857D01*
X100361143Y-85574000D01*
X100218286Y-85431143D01*
X98218286Y-81716857D02*
X98218286Y-86002571D01*
X95361143Y-81716857D02*
X95361143Y-86002571D01*
X93361142Y-82859714D02*
X92932571Y-82716857D01*
X92218285Y-82716857D01*
X91932571Y-82859714D01*
X91789714Y-83002571D01*
X91646857Y-83288286D01*
X91646857Y-83574000D01*
X91789714Y-83859714D01*
X91932571Y-84002571D01*
X92218285Y-84145429D01*
X92789714Y-84288286D01*
X93075428Y-84431143D01*
X93218285Y-84574000D01*
X93361142Y-84859714D01*
X93361142Y-85145429D01*
X93218285Y-85431143D01*
X93075428Y-85574000D01*
X92789714Y-85716857D01*
X92075428Y-85716857D01*
X91646857Y-85574000D01*
X90361142Y-82716857D02*
X90361142Y-85716857D01*
X90361142Y-84288286D02*
X88646857Y-84288286D01*
X88646857Y-82716857D02*
X88646857Y-85716857D01*
X87218285Y-82716857D02*
X87218285Y-85716857D01*
X85789714Y-84288286D02*
X84789714Y-84288286D01*
X84361143Y-82716857D02*
X85789714Y-82716857D01*
X85789714Y-85716857D01*
X84361143Y-85716857D01*
X81646857Y-82716857D02*
X83075428Y-82716857D01*
X83075428Y-85716857D01*
X80646857Y-82716857D02*
X80646857Y-85716857D01*
X79932572Y-85716857D01*
X79504000Y-85574000D01*
X79218286Y-85288286D01*
X79075429Y-85002571D01*
X78932572Y-84431143D01*
X78932572Y-84002571D01*
X79075429Y-83431143D01*
X79218286Y-83145429D01*
X79504000Y-82859714D01*
X79932572Y-82716857D01*
X80646857Y-82716857D01*
D11*
X106735619Y-76327238D02*
X107735619Y-76327238D01*
X107735619Y-76993904D02*
X107735619Y-77184381D01*
X107688000Y-77279619D01*
X107592762Y-77374857D01*
X107402286Y-77422476D01*
X107068952Y-77422476D01*
X106878476Y-77374857D01*
X106783238Y-77279619D01*
X106735619Y-77184381D01*
X106735619Y-76993904D01*
X106783238Y-76898666D01*
X106878476Y-76803428D01*
X107068952Y-76755809D01*
X107402286Y-76755809D01*
X107592762Y-76803428D01*
X107688000Y-76898666D01*
X107735619Y-76993904D01*
X106735619Y-78422476D02*
X107211810Y-78089142D01*
X106735619Y-77851047D02*
X107735619Y-77851047D01*
X107735619Y-78232000D01*
X107688000Y-78327238D01*
X107640381Y-78374857D01*
X107545143Y-78422476D01*
X107402286Y-78422476D01*
X107307048Y-78374857D01*
X107259429Y-78327238D01*
X107211810Y-78232000D01*
X107211810Y-77851047D01*
X107259429Y-78851047D02*
X107259429Y-79184381D01*
X106735619Y-79327238D02*
X106735619Y-78851047D01*
X107735619Y-78851047D01*
X107735619Y-79327238D01*
X107259429Y-80089143D02*
X107259429Y-79755809D01*
X106735619Y-79755809D02*
X107735619Y-79755809D01*
X107735619Y-80232000D01*
X104195619Y-76922381D02*
X104671810Y-76589047D01*
X104195619Y-76350952D02*
X105195619Y-76350952D01*
X105195619Y-76731905D01*
X105148000Y-76827143D01*
X105100381Y-76874762D01*
X105005143Y-76922381D01*
X104862286Y-76922381D01*
X104767048Y-76874762D01*
X104719429Y-76827143D01*
X104671810Y-76731905D01*
X104671810Y-76350952D01*
X104243238Y-77303333D02*
X104195619Y-77446190D01*
X104195619Y-77684286D01*
X104243238Y-77779524D01*
X104290857Y-77827143D01*
X104386095Y-77874762D01*
X104481333Y-77874762D01*
X104576571Y-77827143D01*
X104624190Y-77779524D01*
X104671810Y-77684286D01*
X104719429Y-77493809D01*
X104767048Y-77398571D01*
X104814667Y-77350952D01*
X104909905Y-77303333D01*
X105005143Y-77303333D01*
X105100381Y-77350952D01*
X105148000Y-77398571D01*
X105195619Y-77493809D01*
X105195619Y-77731905D01*
X105148000Y-77874762D01*
X105195619Y-78160476D02*
X105195619Y-78731905D01*
X104195619Y-78446190D02*
X105195619Y-78446190D01*
X109275619Y-76303286D02*
X110275619Y-76303286D01*
X109275619Y-76874715D01*
X110275619Y-76874715D01*
X109370857Y-77922334D02*
X109323238Y-77874715D01*
X109275619Y-77731858D01*
X109275619Y-77636620D01*
X109323238Y-77493762D01*
X109418476Y-77398524D01*
X109513714Y-77350905D01*
X109704190Y-77303286D01*
X109847048Y-77303286D01*
X110037524Y-77350905D01*
X110132762Y-77398524D01*
X110228000Y-77493762D01*
X110275619Y-77636620D01*
X110275619Y-77731858D01*
X110228000Y-77874715D01*
X110180381Y-77922334D01*
X97528000Y-76835096D02*
X97575619Y-76739858D01*
X97575619Y-76597001D01*
X97528000Y-76454143D01*
X97432762Y-76358905D01*
X97337524Y-76311286D01*
X97147048Y-76263667D01*
X97004190Y-76263667D01*
X96813714Y-76311286D01*
X96718476Y-76358905D01*
X96623238Y-76454143D01*
X96575619Y-76597001D01*
X96575619Y-76692239D01*
X96623238Y-76835096D01*
X96670857Y-76882715D01*
X97004190Y-76882715D01*
X97004190Y-76692239D01*
X96575619Y-77311286D02*
X97575619Y-77311286D01*
X96575619Y-77882715D01*
X97575619Y-77882715D01*
X96575619Y-78358905D02*
X97575619Y-78358905D01*
X97575619Y-78597000D01*
X97528000Y-78739858D01*
X97432762Y-78835096D01*
X97337524Y-78882715D01*
X97147048Y-78930334D01*
X97004190Y-78930334D01*
X96813714Y-78882715D01*
X96718476Y-78835096D01*
X96623238Y-78739858D01*
X96575619Y-78597000D01*
X96575619Y-78358905D01*
X94988000Y-76835096D02*
X95035619Y-76739858D01*
X95035619Y-76597001D01*
X94988000Y-76454143D01*
X94892762Y-76358905D01*
X94797524Y-76311286D01*
X94607048Y-76263667D01*
X94464190Y-76263667D01*
X94273714Y-76311286D01*
X94178476Y-76358905D01*
X94083238Y-76454143D01*
X94035619Y-76597001D01*
X94035619Y-76692239D01*
X94083238Y-76835096D01*
X94130857Y-76882715D01*
X94464190Y-76882715D01*
X94464190Y-76692239D01*
X94035619Y-77311286D02*
X95035619Y-77311286D01*
X94035619Y-77882715D01*
X95035619Y-77882715D01*
X94035619Y-78358905D02*
X95035619Y-78358905D01*
X95035619Y-78597000D01*
X94988000Y-78739858D01*
X94892762Y-78835096D01*
X94797524Y-78882715D01*
X94607048Y-78930334D01*
X94464190Y-78930334D01*
X94273714Y-78882715D01*
X94178476Y-78835096D01*
X94083238Y-78739858D01*
X94035619Y-78597000D01*
X94035619Y-78358905D01*
X92495619Y-76247762D02*
X91495619Y-76581095D01*
X92495619Y-76914429D01*
X91495619Y-77247762D02*
X92495619Y-77247762D01*
X91495619Y-77723952D02*
X92495619Y-77723952D01*
X91495619Y-78295381D01*
X92495619Y-78295381D01*
X74715619Y-120221381D02*
X74715619Y-120316620D01*
X74668000Y-120411858D01*
X74620381Y-120459477D01*
X74525143Y-120507096D01*
X74334667Y-120554715D01*
X74096571Y-120554715D01*
X73906095Y-120507096D01*
X73810857Y-120459477D01*
X73763238Y-120411858D01*
X73715619Y-120316620D01*
X73715619Y-120221381D01*
X73763238Y-120126143D01*
X73810857Y-120078524D01*
X73906095Y-120030905D01*
X74096571Y-119983286D01*
X74334667Y-119983286D01*
X74525143Y-120030905D01*
X74620381Y-120078524D01*
X74668000Y-120126143D01*
X74715619Y-120221381D01*
X77128619Y-116332095D02*
X77128619Y-116903524D01*
X76128619Y-116617809D02*
X77128619Y-116617809D01*
X77128619Y-117141619D02*
X76128619Y-117808286D01*
X77128619Y-117808286D02*
X76128619Y-117141619D01*
X73715619Y-116800334D02*
X74191810Y-116467000D01*
X73715619Y-116228905D02*
X74715619Y-116228905D01*
X74715619Y-116609858D01*
X74668000Y-116705096D01*
X74620381Y-116752715D01*
X74525143Y-116800334D01*
X74382286Y-116800334D01*
X74287048Y-116752715D01*
X74239429Y-116705096D01*
X74191810Y-116609858D01*
X74191810Y-116228905D01*
X74715619Y-117133667D02*
X73715619Y-117800334D01*
X74715619Y-117800334D02*
X73715619Y-117133667D01*
D13*
X74168000Y-119506999D02*
X74168000Y-118364000D01*
X74168000Y-118364000D02*
X73787000Y-118745000D01*
X74168000Y-118364000D02*
X74549001Y-118745000D01*
D11*
X79700381Y-119983286D02*
X79748000Y-120030905D01*
X79795619Y-120126143D01*
X79795619Y-120364239D01*
X79748000Y-120459477D01*
X79700381Y-120507096D01*
X79605143Y-120554715D01*
X79509905Y-120554715D01*
X79367048Y-120507096D01*
X78795619Y-119935667D01*
X78795619Y-120554715D01*
D13*
X76581000Y-118364000D02*
X76581000Y-119507000D01*
X76581000Y-119507000D02*
X76962000Y-119126000D01*
X76581000Y-119507000D02*
X76200000Y-119126000D01*
D11*
X76128619Y-120554715D02*
X76128619Y-119983286D01*
X76128619Y-120269000D02*
X77128619Y-120269000D01*
X76985762Y-120173762D01*
X76890524Y-120078524D01*
X76842905Y-119983286D01*
X113540000Y-118134000D02*
X113540000Y-118491143D01*
X113325714Y-118062572D02*
X114075714Y-118312572D01*
X113325714Y-118562572D01*
X113325714Y-119241143D02*
X113682857Y-118991143D01*
X113325714Y-118812571D02*
X114075714Y-118812571D01*
X114075714Y-119098286D01*
X114040000Y-119169714D01*
X114004286Y-119205429D01*
X113932857Y-119241143D01*
X113825714Y-119241143D01*
X113754286Y-119205429D01*
X113718571Y-119169714D01*
X113682857Y-119098286D01*
X113682857Y-118812571D01*
X113718571Y-119562571D02*
X113718571Y-119812571D01*
X113325714Y-119919714D02*
X113325714Y-119562571D01*
X114075714Y-119562571D01*
X114075714Y-119919714D01*
X113718571Y-120491142D02*
X113718571Y-120241142D01*
X113325714Y-120241142D02*
X114075714Y-120241142D01*
X114075714Y-120598285D01*
X96131048Y-120173762D02*
X96178667Y-120078524D01*
X96226286Y-120030905D01*
X96321524Y-119983286D01*
X96369143Y-119983286D01*
X96464381Y-120030905D01*
X96512000Y-120078524D01*
X96559619Y-120173762D01*
X96559619Y-120364239D01*
X96512000Y-120459477D01*
X96464381Y-120507096D01*
X96369143Y-120554715D01*
X96321524Y-120554715D01*
X96226286Y-120507096D01*
X96178667Y-120459477D01*
X96131048Y-120364239D01*
X96131048Y-120173762D01*
X96083429Y-120078524D01*
X96035810Y-120030905D01*
X95940571Y-119983286D01*
X95750095Y-119983286D01*
X95654857Y-120030905D01*
X95607238Y-120078524D01*
X95559619Y-120173762D01*
X95559619Y-120364239D01*
X95607238Y-120459477D01*
X95654857Y-120507096D01*
X95750095Y-120554715D01*
X95940571Y-120554715D01*
X96035810Y-120507096D01*
X96083429Y-120459477D01*
X96131048Y-120364239D01*
X98480571Y-119276905D02*
X98528190Y-119324524D01*
X98575810Y-119419762D01*
X98480571Y-119610238D01*
X98528190Y-119705477D01*
X98575810Y-119753096D01*
X98099619Y-120181667D02*
X98099619Y-120372143D01*
X98147238Y-120467382D01*
X98194857Y-120515001D01*
X98337714Y-120610239D01*
X98528190Y-120657858D01*
X98909143Y-120657858D01*
X99004381Y-120610239D01*
X99052000Y-120562620D01*
X99099619Y-120467382D01*
X99099619Y-120276905D01*
X99052000Y-120181667D01*
X99004381Y-120134048D01*
X98909143Y-120086429D01*
X98671048Y-120086429D01*
X98575810Y-120134048D01*
X98528190Y-120181667D01*
X98480571Y-120276905D01*
X98480571Y-120467382D01*
X98528190Y-120562620D01*
X98575810Y-120610239D01*
X98671048Y-120657858D01*
X101020571Y-118789571D02*
X101068190Y-118827667D01*
X101115810Y-118903857D01*
X101020571Y-119056238D01*
X101068190Y-119132429D01*
X101115810Y-119170524D01*
X100639619Y-119894334D02*
X100639619Y-119437191D01*
X100639619Y-119665762D02*
X101639619Y-119665762D01*
X101496762Y-119589572D01*
X101401524Y-119513381D01*
X101353905Y-119437191D01*
X101639619Y-120389572D02*
X101639619Y-120465763D01*
X101592000Y-120541953D01*
X101544381Y-120580048D01*
X101449143Y-120618144D01*
X101258667Y-120656239D01*
X101020571Y-120656239D01*
X100830095Y-120618144D01*
X100734857Y-120580048D01*
X100687238Y-120541953D01*
X100639619Y-120465763D01*
X100639619Y-120389572D01*
X100687238Y-120313382D01*
X100734857Y-120275286D01*
X100830095Y-120237191D01*
X101020571Y-120199096D01*
X101258667Y-120199096D01*
X101449143Y-120237191D01*
X101544381Y-120275286D01*
X101592000Y-120313382D01*
X101639619Y-120389572D01*
X92495619Y-119935667D02*
X92495619Y-120602334D01*
X91495619Y-120173762D01*
X89336571Y-119149905D02*
X89384190Y-119197524D01*
X89431810Y-119292762D01*
X89336571Y-119483238D01*
X89384190Y-119578477D01*
X89431810Y-119626096D01*
X89955619Y-120435620D02*
X89955619Y-120245143D01*
X89908000Y-120149905D01*
X89860381Y-120102286D01*
X89717524Y-120007048D01*
X89527048Y-119959429D01*
X89146095Y-119959429D01*
X89050857Y-120007048D01*
X89003238Y-120054667D01*
X88955619Y-120149905D01*
X88955619Y-120340382D01*
X89003238Y-120435620D01*
X89050857Y-120483239D01*
X89146095Y-120530858D01*
X89384190Y-120530858D01*
X89479429Y-120483239D01*
X89527048Y-120435620D01*
X89574667Y-120340382D01*
X89574667Y-120149905D01*
X89527048Y-120054667D01*
X89479429Y-120007048D01*
X89384190Y-119959429D01*
X86796571Y-119276905D02*
X86844190Y-119324524D01*
X86891810Y-119419762D01*
X86796571Y-119610238D01*
X86844190Y-119705477D01*
X86891810Y-119753096D01*
X87415619Y-120610239D02*
X87415619Y-120134048D01*
X86939429Y-120086429D01*
X86987048Y-120134048D01*
X87034667Y-120229286D01*
X87034667Y-120467382D01*
X86987048Y-120562620D01*
X86939429Y-120610239D01*
X86844190Y-120657858D01*
X86606095Y-120657858D01*
X86510857Y-120610239D01*
X86463238Y-120562620D01*
X86415619Y-120467382D01*
X86415619Y-120229286D01*
X86463238Y-120134048D01*
X86510857Y-120086429D01*
X108259619Y-119697524D02*
X108259619Y-119126095D01*
X108259619Y-119411809D02*
X109259619Y-119411809D01*
X109116762Y-119316571D01*
X109021524Y-119221333D01*
X108973905Y-119126095D01*
X109259619Y-120030857D02*
X109259619Y-120649905D01*
X108878667Y-120316571D01*
X108878667Y-120459429D01*
X108831048Y-120554667D01*
X108783429Y-120602286D01*
X108688190Y-120649905D01*
X108450095Y-120649905D01*
X108354857Y-120602286D01*
X108307238Y-120554667D01*
X108259619Y-120459429D01*
X108259619Y-120173714D01*
X108307238Y-120078476D01*
X108354857Y-120030857D01*
X105719619Y-119697524D02*
X105719619Y-119126095D01*
X105719619Y-119411809D02*
X106719619Y-119411809D01*
X106576762Y-119316571D01*
X106481524Y-119221333D01*
X106433905Y-119126095D01*
X106624381Y-120078476D02*
X106672000Y-120126095D01*
X106719619Y-120221333D01*
X106719619Y-120459429D01*
X106672000Y-120554667D01*
X106624381Y-120602286D01*
X106529143Y-120649905D01*
X106433905Y-120649905D01*
X106291048Y-120602286D01*
X105719619Y-120030857D01*
X105719619Y-120649905D01*
X103560571Y-118419714D02*
X103608190Y-118467333D01*
X103655810Y-118562571D01*
X103560571Y-118753047D01*
X103608190Y-118848286D01*
X103655810Y-118895905D01*
X103179619Y-119800667D02*
X103179619Y-119229238D01*
X103179619Y-119514952D02*
X104179619Y-119514952D01*
X104036762Y-119419714D01*
X103941524Y-119324476D01*
X103893905Y-119229238D01*
X103179619Y-120753048D02*
X103179619Y-120181619D01*
X103179619Y-120467333D02*
X104179619Y-120467333D01*
X104036762Y-120372095D01*
X103941524Y-120276857D01*
X103893905Y-120181619D01*
X111627000Y-119062572D02*
X111662714Y-118991143D01*
X111662714Y-118884000D01*
X111627000Y-118776857D01*
X111555571Y-118705429D01*
X111484143Y-118669714D01*
X111341286Y-118634000D01*
X111234143Y-118634000D01*
X111091286Y-118669714D01*
X111019857Y-118705429D01*
X110948429Y-118776857D01*
X110912714Y-118884000D01*
X110912714Y-118955429D01*
X110948429Y-119062572D01*
X110984143Y-119098286D01*
X111234143Y-119098286D01*
X111234143Y-118955429D01*
X110912714Y-119419714D02*
X111662714Y-119419714D01*
X110912714Y-119848286D01*
X111662714Y-119848286D01*
X110912714Y-120205428D02*
X111662714Y-120205428D01*
X111662714Y-120384000D01*
X111627000Y-120491143D01*
X111555571Y-120562571D01*
X111484143Y-120598286D01*
X111341286Y-120634000D01*
X111234143Y-120634000D01*
X111091286Y-120598286D01*
X111019857Y-120562571D01*
X110948429Y-120491143D01*
X110912714Y-120384000D01*
X110912714Y-120205428D01*
X118467238Y-118189524D02*
X118419619Y-118332381D01*
X118419619Y-118570477D01*
X118467238Y-118665715D01*
X118514857Y-118713334D01*
X118610095Y-118760953D01*
X118705333Y-118760953D01*
X118800571Y-118713334D01*
X118848190Y-118665715D01*
X118895810Y-118570477D01*
X118943429Y-118380000D01*
X118991048Y-118284762D01*
X119038667Y-118237143D01*
X119133905Y-118189524D01*
X119229143Y-118189524D01*
X119324381Y-118237143D01*
X119372000Y-118284762D01*
X119419619Y-118380000D01*
X119419619Y-118618096D01*
X119372000Y-118760953D01*
X118514857Y-119760953D02*
X118467238Y-119713334D01*
X118419619Y-119570477D01*
X118419619Y-119475239D01*
X118467238Y-119332381D01*
X118562476Y-119237143D01*
X118657714Y-119189524D01*
X118848190Y-119141905D01*
X118991048Y-119141905D01*
X119181524Y-119189524D01*
X119276762Y-119237143D01*
X119372000Y-119332381D01*
X119419619Y-119475239D01*
X119419619Y-119570477D01*
X119372000Y-119713334D01*
X119324381Y-119760953D01*
X118419619Y-120665715D02*
X118419619Y-120189524D01*
X119419619Y-120189524D01*
X115927238Y-118165714D02*
X115879619Y-118308571D01*
X115879619Y-118546667D01*
X115927238Y-118641905D01*
X115974857Y-118689524D01*
X116070095Y-118737143D01*
X116165333Y-118737143D01*
X116260571Y-118689524D01*
X116308190Y-118641905D01*
X116355810Y-118546667D01*
X116403429Y-118356190D01*
X116451048Y-118260952D01*
X116498667Y-118213333D01*
X116593905Y-118165714D01*
X116689143Y-118165714D01*
X116784381Y-118213333D01*
X116832000Y-118260952D01*
X116879619Y-118356190D01*
X116879619Y-118594286D01*
X116832000Y-118737143D01*
X115879619Y-119165714D02*
X116879619Y-119165714D01*
X116879619Y-119403809D01*
X116832000Y-119546667D01*
X116736762Y-119641905D01*
X116641524Y-119689524D01*
X116451048Y-119737143D01*
X116308190Y-119737143D01*
X116117714Y-119689524D01*
X116022476Y-119641905D01*
X115927238Y-119546667D01*
X115879619Y-119403809D01*
X115879619Y-119165714D01*
X116165333Y-120118095D02*
X116165333Y-120594286D01*
X115879619Y-120022857D02*
X116879619Y-120356190D01*
X115879619Y-120689524D01*
X84542286Y-120459477D02*
X83875619Y-120459477D01*
X84923238Y-120221381D02*
X84208952Y-119983286D01*
X84208952Y-120602334D01*
X81716571Y-119149905D02*
X81764190Y-119197524D01*
X81811810Y-119292762D01*
X81716571Y-119483238D01*
X81764190Y-119578477D01*
X81811810Y-119626096D01*
X82335619Y-119911810D02*
X82335619Y-120530858D01*
X81954667Y-120197524D01*
X81954667Y-120340382D01*
X81907048Y-120435620D01*
X81859429Y-120483239D01*
X81764190Y-120530858D01*
X81526095Y-120530858D01*
X81430857Y-120483239D01*
X81383238Y-120435620D01*
X81335619Y-120340382D01*
X81335619Y-120054667D01*
X81383238Y-119959429D01*
X81430857Y-119911810D01*
X175839381Y-76295285D02*
X175839381Y-76866714D01*
X175839381Y-76581000D02*
X174839381Y-76581000D01*
X174982238Y-76676238D01*
X175077476Y-76771476D01*
X175125095Y-76866714D01*
X177252381Y-76628619D02*
X177252381Y-76533380D01*
X177300000Y-76438142D01*
X177347619Y-76390523D01*
X177442857Y-76342904D01*
X177633333Y-76295285D01*
X177871429Y-76295285D01*
X178061905Y-76342904D01*
X178157143Y-76390523D01*
X178204762Y-76438142D01*
X178252381Y-76533380D01*
X178252381Y-76628619D01*
X178204762Y-76723857D01*
X178157143Y-76771476D01*
X178061905Y-76819095D01*
X177871429Y-76866714D01*
X177633333Y-76866714D01*
X177442857Y-76819095D01*
X177347619Y-76771476D01*
X177300000Y-76723857D01*
X177252381Y-76628619D01*
D13*
X177800000Y-78486000D02*
X177418999Y-78105000D01*
X177800000Y-78486000D02*
X178181000Y-78105000D01*
X177800000Y-77343001D02*
X177800000Y-78486000D01*
X175387000Y-77343000D02*
X175768000Y-77724000D01*
X175387000Y-77343000D02*
X175006000Y-77724000D01*
X175387000Y-78486000D02*
X175387000Y-77343000D01*
D11*
X178252381Y-80049666D02*
X177776190Y-80383000D01*
X178252381Y-80621095D02*
X177252381Y-80621095D01*
X177252381Y-80240142D01*
X177300000Y-80144904D01*
X177347619Y-80097285D01*
X177442857Y-80049666D01*
X177585714Y-80049666D01*
X177680952Y-80097285D01*
X177728571Y-80144904D01*
X177776190Y-80240142D01*
X177776190Y-80621095D01*
X177252381Y-79716333D02*
X178252381Y-79049666D01*
X177252381Y-79049666D02*
X178252381Y-79716333D01*
X174839381Y-80517905D02*
X174839381Y-79946476D01*
X175839381Y-80232191D02*
X174839381Y-80232191D01*
X174839381Y-79708381D02*
X175839381Y-79041714D01*
X174839381Y-79041714D02*
X175839381Y-79708381D01*
X172267619Y-76866714D02*
X172220000Y-76819095D01*
X172172381Y-76723857D01*
X172172381Y-76485761D01*
X172220000Y-76390523D01*
X172267619Y-76342904D01*
X172362857Y-76295285D01*
X172458095Y-76295285D01*
X172600952Y-76342904D01*
X173172381Y-76914333D01*
X173172381Y-76295285D01*
X170251429Y-77700095D02*
X170203810Y-77652476D01*
X170156190Y-77557238D01*
X170251429Y-77366762D01*
X170203810Y-77271523D01*
X170156190Y-77223904D01*
X169632381Y-76938190D02*
X169632381Y-76319142D01*
X170013333Y-76652476D01*
X170013333Y-76509618D01*
X170060952Y-76414380D01*
X170108571Y-76366761D01*
X170203810Y-76319142D01*
X170441905Y-76319142D01*
X170537143Y-76366761D01*
X170584762Y-76414380D01*
X170632381Y-76509618D01*
X170632381Y-76795333D01*
X170584762Y-76890571D01*
X170537143Y-76938190D01*
X167425714Y-76390523D02*
X168092381Y-76390523D01*
X167044762Y-76628619D02*
X167759048Y-76866714D01*
X167759048Y-76247666D01*
X165171429Y-77573095D02*
X165123810Y-77525476D01*
X165076190Y-77430238D01*
X165171429Y-77239762D01*
X165123810Y-77144523D01*
X165076190Y-77096904D01*
X164552381Y-76239761D02*
X164552381Y-76715952D01*
X165028571Y-76763571D01*
X164980952Y-76715952D01*
X164933333Y-76620714D01*
X164933333Y-76382618D01*
X164980952Y-76287380D01*
X165028571Y-76239761D01*
X165123810Y-76192142D01*
X165361905Y-76192142D01*
X165457143Y-76239761D01*
X165504762Y-76287380D01*
X165552381Y-76382618D01*
X165552381Y-76620714D01*
X165504762Y-76715952D01*
X165457143Y-76763571D01*
X162631429Y-77700095D02*
X162583810Y-77652476D01*
X162536190Y-77557238D01*
X162631429Y-77366762D01*
X162583810Y-77271523D01*
X162536190Y-77223904D01*
X162012381Y-76414380D02*
X162012381Y-76604857D01*
X162060000Y-76700095D01*
X162107619Y-76747714D01*
X162250476Y-76842952D01*
X162440952Y-76890571D01*
X162821905Y-76890571D01*
X162917143Y-76842952D01*
X162964762Y-76795333D01*
X163012381Y-76700095D01*
X163012381Y-76509618D01*
X162964762Y-76414380D01*
X162917143Y-76366761D01*
X162821905Y-76319142D01*
X162583810Y-76319142D01*
X162488571Y-76366761D01*
X162440952Y-76414380D01*
X162393333Y-76509618D01*
X162393333Y-76700095D01*
X162440952Y-76795333D01*
X162488571Y-76842952D01*
X162583810Y-76890571D01*
X159472381Y-76914333D02*
X159472381Y-76247666D01*
X160472381Y-76676238D01*
X155836952Y-76676238D02*
X155789333Y-76771476D01*
X155741714Y-76819095D01*
X155646476Y-76866714D01*
X155598857Y-76866714D01*
X155503619Y-76819095D01*
X155456000Y-76771476D01*
X155408381Y-76676238D01*
X155408381Y-76485761D01*
X155456000Y-76390523D01*
X155503619Y-76342904D01*
X155598857Y-76295285D01*
X155646476Y-76295285D01*
X155741714Y-76342904D01*
X155789333Y-76390523D01*
X155836952Y-76485761D01*
X155836952Y-76676238D01*
X155884571Y-76771476D01*
X155932190Y-76819095D01*
X156027429Y-76866714D01*
X156217905Y-76866714D01*
X156313143Y-76819095D01*
X156360762Y-76771476D01*
X156408381Y-76676238D01*
X156408381Y-76485761D01*
X156360762Y-76390523D01*
X156313143Y-76342904D01*
X156217905Y-76295285D01*
X156027429Y-76295285D01*
X155932190Y-76342904D01*
X155884571Y-76390523D01*
X155836952Y-76485761D01*
X153487429Y-77573095D02*
X153439810Y-77525476D01*
X153392190Y-77430238D01*
X153487429Y-77239762D01*
X153439810Y-77144523D01*
X153392190Y-77096904D01*
X153868381Y-76668333D02*
X153868381Y-76477857D01*
X153820762Y-76382618D01*
X153773143Y-76334999D01*
X153630286Y-76239761D01*
X153439810Y-76192142D01*
X153058857Y-76192142D01*
X152963619Y-76239761D01*
X152916000Y-76287380D01*
X152868381Y-76382618D01*
X152868381Y-76573095D01*
X152916000Y-76668333D01*
X152963619Y-76715952D01*
X153058857Y-76763571D01*
X153296952Y-76763571D01*
X153392190Y-76715952D01*
X153439810Y-76668333D01*
X153487429Y-76573095D01*
X153487429Y-76382618D01*
X153439810Y-76287380D01*
X153392190Y-76239761D01*
X153296952Y-76192142D01*
X150947429Y-78060429D02*
X150899810Y-78022333D01*
X150852190Y-77946143D01*
X150947429Y-77793762D01*
X150899810Y-77717571D01*
X150852190Y-77679476D01*
X151328381Y-76955666D02*
X151328381Y-77412809D01*
X151328381Y-77184238D02*
X150328381Y-77184238D01*
X150471238Y-77260428D01*
X150566476Y-77336619D01*
X150614095Y-77412809D01*
X150328381Y-76460428D02*
X150328381Y-76384237D01*
X150376000Y-76308047D01*
X150423619Y-76269952D01*
X150518857Y-76231856D01*
X150709333Y-76193761D01*
X150947429Y-76193761D01*
X151137905Y-76231856D01*
X151233143Y-76269952D01*
X151280762Y-76308047D01*
X151328381Y-76384237D01*
X151328381Y-76460428D01*
X151280762Y-76536618D01*
X151233143Y-76574714D01*
X151137905Y-76612809D01*
X150947429Y-76650904D01*
X150709333Y-76650904D01*
X150518857Y-76612809D01*
X150423619Y-76574714D01*
X150376000Y-76536618D01*
X150328381Y-76460428D01*
X148407429Y-78430286D02*
X148359810Y-78382667D01*
X148312190Y-78287429D01*
X148407429Y-78096953D01*
X148359810Y-78001714D01*
X148312190Y-77954095D01*
X148788381Y-77049333D02*
X148788381Y-77620762D01*
X148788381Y-77335048D02*
X147788381Y-77335048D01*
X147931238Y-77430286D01*
X148026476Y-77525524D01*
X148074095Y-77620762D01*
X148788381Y-76096952D02*
X148788381Y-76668381D01*
X148788381Y-76382667D02*
X147788381Y-76382667D01*
X147931238Y-76477905D01*
X148026476Y-76573143D01*
X148074095Y-76668381D01*
X146248381Y-77152476D02*
X146248381Y-77723905D01*
X146248381Y-77438191D02*
X145248381Y-77438191D01*
X145391238Y-77533429D01*
X145486476Y-77628667D01*
X145534095Y-77723905D01*
X145343619Y-76771524D02*
X145296000Y-76723905D01*
X145248381Y-76628667D01*
X145248381Y-76390571D01*
X145296000Y-76295333D01*
X145343619Y-76247714D01*
X145438857Y-76200095D01*
X145534095Y-76200095D01*
X145676952Y-76247714D01*
X146248381Y-76819143D01*
X146248381Y-76200095D01*
X143708381Y-77152476D02*
X143708381Y-77723905D01*
X143708381Y-77438191D02*
X142708381Y-77438191D01*
X142851238Y-77533429D01*
X142946476Y-77628667D01*
X142994095Y-77723905D01*
X142708381Y-76819143D02*
X142708381Y-76200095D01*
X143089333Y-76533429D01*
X143089333Y-76390571D01*
X143136952Y-76295333D01*
X143184571Y-76247714D01*
X143279810Y-76200095D01*
X143517905Y-76200095D01*
X143613143Y-76247714D01*
X143660762Y-76295333D01*
X143708381Y-76390571D01*
X143708381Y-76676286D01*
X143660762Y-76771524D01*
X143613143Y-76819143D01*
X140341000Y-77787428D02*
X140305286Y-77858857D01*
X140305286Y-77966000D01*
X140341000Y-78073143D01*
X140412429Y-78144571D01*
X140483857Y-78180286D01*
X140626714Y-78216000D01*
X140733857Y-78216000D01*
X140876714Y-78180286D01*
X140948143Y-78144571D01*
X141019571Y-78073143D01*
X141055286Y-77966000D01*
X141055286Y-77894571D01*
X141019571Y-77787428D01*
X140983857Y-77751714D01*
X140733857Y-77751714D01*
X140733857Y-77894571D01*
X141055286Y-77430286D02*
X140305286Y-77430286D01*
X141055286Y-77001714D01*
X140305286Y-77001714D01*
X141055286Y-76644572D02*
X140305286Y-76644572D01*
X140305286Y-76466000D01*
X140341000Y-76358857D01*
X140412429Y-76287429D01*
X140483857Y-76251714D01*
X140626714Y-76216000D01*
X140733857Y-76216000D01*
X140876714Y-76251714D01*
X140948143Y-76287429D01*
X141019571Y-76358857D01*
X141055286Y-76466000D01*
X141055286Y-76644572D01*
X138428000Y-78716000D02*
X138428000Y-78358857D01*
X138642286Y-78787428D02*
X137892286Y-78537428D01*
X138642286Y-78287428D01*
X138642286Y-77608857D02*
X138285143Y-77858857D01*
X138642286Y-78037429D02*
X137892286Y-78037429D01*
X137892286Y-77751714D01*
X137928000Y-77680286D01*
X137963714Y-77644571D01*
X138035143Y-77608857D01*
X138142286Y-77608857D01*
X138213714Y-77644571D01*
X138249429Y-77680286D01*
X138285143Y-77751714D01*
X138285143Y-78037429D01*
X138249429Y-77287429D02*
X138249429Y-77037429D01*
X138642286Y-76930286D02*
X138642286Y-77287429D01*
X137892286Y-77287429D01*
X137892286Y-76930286D01*
X138249429Y-76358858D02*
X138249429Y-76608858D01*
X138642286Y-76608858D02*
X137892286Y-76608858D01*
X137892286Y-76251715D01*
X133500762Y-78660476D02*
X133548381Y-78517619D01*
X133548381Y-78279523D01*
X133500762Y-78184285D01*
X133453143Y-78136666D01*
X133357905Y-78089047D01*
X133262667Y-78089047D01*
X133167429Y-78136666D01*
X133119810Y-78184285D01*
X133072190Y-78279523D01*
X133024571Y-78470000D01*
X132976952Y-78565238D01*
X132929333Y-78612857D01*
X132834095Y-78660476D01*
X132738857Y-78660476D01*
X132643619Y-78612857D01*
X132596000Y-78565238D01*
X132548381Y-78470000D01*
X132548381Y-78231904D01*
X132596000Y-78089047D01*
X133453143Y-77089047D02*
X133500762Y-77136666D01*
X133548381Y-77279523D01*
X133548381Y-77374761D01*
X133500762Y-77517619D01*
X133405524Y-77612857D01*
X133310286Y-77660476D01*
X133119810Y-77708095D01*
X132976952Y-77708095D01*
X132786476Y-77660476D01*
X132691238Y-77612857D01*
X132596000Y-77517619D01*
X132548381Y-77374761D01*
X132548381Y-77279523D01*
X132596000Y-77136666D01*
X132643619Y-77089047D01*
X133548381Y-76184285D02*
X133548381Y-76660476D01*
X132548381Y-76660476D01*
X136040762Y-78684286D02*
X136088381Y-78541429D01*
X136088381Y-78303333D01*
X136040762Y-78208095D01*
X135993143Y-78160476D01*
X135897905Y-78112857D01*
X135802667Y-78112857D01*
X135707429Y-78160476D01*
X135659810Y-78208095D01*
X135612190Y-78303333D01*
X135564571Y-78493810D01*
X135516952Y-78589048D01*
X135469333Y-78636667D01*
X135374095Y-78684286D01*
X135278857Y-78684286D01*
X135183619Y-78636667D01*
X135136000Y-78589048D01*
X135088381Y-78493810D01*
X135088381Y-78255714D01*
X135136000Y-78112857D01*
X136088381Y-77684286D02*
X135088381Y-77684286D01*
X135088381Y-77446191D01*
X135136000Y-77303333D01*
X135231238Y-77208095D01*
X135326476Y-77160476D01*
X135516952Y-77112857D01*
X135659810Y-77112857D01*
X135850286Y-77160476D01*
X135945524Y-77208095D01*
X136040762Y-77303333D01*
X136088381Y-77446191D01*
X136088381Y-77684286D01*
X135802667Y-76731905D02*
X135802667Y-76255714D01*
X136088381Y-76827143D02*
X135088381Y-76493810D01*
X136088381Y-76160476D01*
X177966667Y-120475286D02*
X177966667Y-119999095D01*
X178252381Y-120570524D02*
X177252381Y-120237191D01*
X178252381Y-119903857D01*
X177252381Y-119094333D02*
X177252381Y-119570524D01*
X177728571Y-119618143D01*
X177680952Y-119570524D01*
X177633333Y-119475286D01*
X177633333Y-119237190D01*
X177680952Y-119141952D01*
X177728571Y-119094333D01*
X177823810Y-119046714D01*
X178061905Y-119046714D01*
X178157143Y-119094333D01*
X178204762Y-119141952D01*
X178252381Y-119237190D01*
X178252381Y-119475286D01*
X178204762Y-119570524D01*
X178157143Y-119618143D01*
X175426667Y-120475286D02*
X175426667Y-119999095D01*
X175712381Y-120570524D02*
X174712381Y-120237191D01*
X175712381Y-119903857D01*
X175045714Y-119141952D02*
X175712381Y-119141952D01*
X174664762Y-119380048D02*
X175379048Y-119618143D01*
X175379048Y-118999095D01*
X172886667Y-120475286D02*
X172886667Y-119999095D01*
X173172381Y-120570524D02*
X172172381Y-120237191D01*
X173172381Y-119903857D01*
X172172381Y-119665762D02*
X172172381Y-119046714D01*
X172553333Y-119380048D01*
X172553333Y-119237190D01*
X172600952Y-119141952D01*
X172648571Y-119094333D01*
X172743810Y-119046714D01*
X172981905Y-119046714D01*
X173077143Y-119094333D01*
X173124762Y-119141952D01*
X173172381Y-119237190D01*
X173172381Y-119522905D01*
X173124762Y-119618143D01*
X173077143Y-119665762D01*
X170346667Y-120475286D02*
X170346667Y-119999095D01*
X170632381Y-120570524D02*
X169632381Y-120237191D01*
X170632381Y-119903857D01*
X169727619Y-119618143D02*
X169680000Y-119570524D01*
X169632381Y-119475286D01*
X169632381Y-119237190D01*
X169680000Y-119141952D01*
X169727619Y-119094333D01*
X169822857Y-119046714D01*
X169918095Y-119046714D01*
X170060952Y-119094333D01*
X170632381Y-119665762D01*
X170632381Y-119046714D01*
X167806667Y-120475286D02*
X167806667Y-119999095D01*
X168092381Y-120570524D02*
X167092381Y-120237191D01*
X168092381Y-119903857D01*
X168092381Y-119046714D02*
X168092381Y-119618143D01*
X168092381Y-119332429D02*
X167092381Y-119332429D01*
X167235238Y-119427667D01*
X167330476Y-119522905D01*
X167378095Y-119618143D01*
X165266667Y-120475286D02*
X165266667Y-119999095D01*
X165552381Y-120570524D02*
X164552381Y-120237191D01*
X165552381Y-119903857D01*
X164552381Y-119380048D02*
X164552381Y-119284809D01*
X164600000Y-119189571D01*
X164647619Y-119141952D01*
X164742857Y-119094333D01*
X164933333Y-119046714D01*
X165171429Y-119046714D01*
X165361905Y-119094333D01*
X165457143Y-119141952D01*
X165504762Y-119189571D01*
X165552381Y-119284809D01*
X165552381Y-119380048D01*
X165504762Y-119475286D01*
X165457143Y-119522905D01*
X165361905Y-119570524D01*
X165171429Y-119618143D01*
X164933333Y-119618143D01*
X164742857Y-119570524D01*
X164647619Y-119522905D01*
X164600000Y-119475286D01*
X164552381Y-119380048D01*
X159472381Y-120602238D02*
X160472381Y-120268905D01*
X159472381Y-119935571D01*
X160472381Y-119602238D02*
X159472381Y-119602238D01*
X160472381Y-119126048D02*
X159472381Y-119126048D01*
X160472381Y-118554619D01*
X159472381Y-118554619D01*
X156980000Y-120014904D02*
X156932381Y-120110142D01*
X156932381Y-120252999D01*
X156980000Y-120395857D01*
X157075238Y-120491095D01*
X157170476Y-120538714D01*
X157360952Y-120586333D01*
X157503810Y-120586333D01*
X157694286Y-120538714D01*
X157789524Y-120491095D01*
X157884762Y-120395857D01*
X157932381Y-120252999D01*
X157932381Y-120157761D01*
X157884762Y-120014904D01*
X157837143Y-119967285D01*
X157503810Y-119967285D01*
X157503810Y-120157761D01*
X157932381Y-119538714D02*
X156932381Y-119538714D01*
X157932381Y-118967285D01*
X156932381Y-118967285D01*
X157932381Y-118491095D02*
X156932381Y-118491095D01*
X156932381Y-118253000D01*
X156980000Y-118110142D01*
X157075238Y-118014904D01*
X157170476Y-117967285D01*
X157360952Y-117919666D01*
X157503810Y-117919666D01*
X157694286Y-117967285D01*
X157789524Y-118014904D01*
X157884762Y-118110142D01*
X157932381Y-118253000D01*
X157932381Y-118491095D01*
X154440000Y-120014904D02*
X154392381Y-120110142D01*
X154392381Y-120252999D01*
X154440000Y-120395857D01*
X154535238Y-120491095D01*
X154630476Y-120538714D01*
X154820952Y-120586333D01*
X154963810Y-120586333D01*
X155154286Y-120538714D01*
X155249524Y-120491095D01*
X155344762Y-120395857D01*
X155392381Y-120252999D01*
X155392381Y-120157761D01*
X155344762Y-120014904D01*
X155297143Y-119967285D01*
X154963810Y-119967285D01*
X154963810Y-120157761D01*
X155392381Y-119538714D02*
X154392381Y-119538714D01*
X155392381Y-118967285D01*
X154392381Y-118967285D01*
X155392381Y-118491095D02*
X154392381Y-118491095D01*
X154392381Y-118253000D01*
X154440000Y-118110142D01*
X154535238Y-118014904D01*
X154630476Y-117967285D01*
X154820952Y-117919666D01*
X154963810Y-117919666D01*
X155154286Y-117967285D01*
X155249524Y-118014904D01*
X155344762Y-118110142D01*
X155392381Y-118253000D01*
X155392381Y-118491095D01*
X151852381Y-119951476D02*
X151852381Y-120427667D01*
X152328571Y-120475286D01*
X152280952Y-120427667D01*
X152233333Y-120332429D01*
X152233333Y-120094333D01*
X152280952Y-119999095D01*
X152328571Y-119951476D01*
X152423810Y-119903857D01*
X152661905Y-119903857D01*
X152757143Y-119951476D01*
X152804762Y-119999095D01*
X152852381Y-120094333D01*
X152852381Y-120332429D01*
X152804762Y-120427667D01*
X152757143Y-120475286D01*
X151852381Y-119618143D02*
X152852381Y-119284810D01*
X151852381Y-118951476D01*
X149312381Y-120475190D02*
X149312381Y-119856142D01*
X149693333Y-120189476D01*
X149693333Y-120046618D01*
X149740952Y-119951380D01*
X149788571Y-119903761D01*
X149883810Y-119856142D01*
X150121905Y-119856142D01*
X150217143Y-119903761D01*
X150264762Y-119951380D01*
X150312381Y-120046618D01*
X150312381Y-120332333D01*
X150264762Y-120427571D01*
X150217143Y-120475190D01*
X150217143Y-119427571D02*
X150264762Y-119379952D01*
X150312381Y-119427571D01*
X150264762Y-119475190D01*
X150217143Y-119427571D01*
X150312381Y-119427571D01*
X149312381Y-119046619D02*
X149312381Y-118427571D01*
X149693333Y-118760905D01*
X149693333Y-118618047D01*
X149740952Y-118522809D01*
X149788571Y-118475190D01*
X149883810Y-118427571D01*
X150121905Y-118427571D01*
X150217143Y-118475190D01*
X150264762Y-118522809D01*
X150312381Y-118618047D01*
X150312381Y-118903762D01*
X150264762Y-118999000D01*
X150217143Y-119046619D01*
X149312381Y-118141857D02*
X150312381Y-117808524D01*
X149312381Y-117475190D01*
X147772381Y-119927619D02*
X147296190Y-120260953D01*
X147772381Y-120499048D02*
X146772381Y-120499048D01*
X146772381Y-120118095D01*
X146820000Y-120022857D01*
X146867619Y-119975238D01*
X146962857Y-119927619D01*
X147105714Y-119927619D01*
X147200952Y-119975238D01*
X147248571Y-120022857D01*
X147296190Y-120118095D01*
X147296190Y-120499048D01*
X147724762Y-119546667D02*
X147772381Y-119403810D01*
X147772381Y-119165714D01*
X147724762Y-119070476D01*
X147677143Y-119022857D01*
X147581905Y-118975238D01*
X147486667Y-118975238D01*
X147391429Y-119022857D01*
X147343810Y-119070476D01*
X147296190Y-119165714D01*
X147248571Y-119356191D01*
X147200952Y-119451429D01*
X147153333Y-119499048D01*
X147058095Y-119546667D01*
X146962857Y-119546667D01*
X146867619Y-119499048D01*
X146820000Y-119451429D01*
X146772381Y-119356191D01*
X146772381Y-119118095D01*
X146820000Y-118975238D01*
X146772381Y-118689524D02*
X146772381Y-118118095D01*
X147772381Y-118403810D02*
X146772381Y-118403810D01*
X145232381Y-120522762D02*
X144232381Y-120522762D01*
X144232381Y-119856096D02*
X144232381Y-119665619D01*
X144280000Y-119570381D01*
X144375238Y-119475143D01*
X144565714Y-119427524D01*
X144899048Y-119427524D01*
X145089524Y-119475143D01*
X145184762Y-119570381D01*
X145232381Y-119665619D01*
X145232381Y-119856096D01*
X145184762Y-119951334D01*
X145089524Y-120046572D01*
X144899048Y-120094191D01*
X144565714Y-120094191D01*
X144375238Y-120046572D01*
X144280000Y-119951334D01*
X144232381Y-119856096D01*
X145232381Y-118427524D02*
X144756190Y-118760858D01*
X145232381Y-118998953D02*
X144232381Y-118998953D01*
X144232381Y-118618000D01*
X144280000Y-118522762D01*
X144327619Y-118475143D01*
X144422857Y-118427524D01*
X144565714Y-118427524D01*
X144660952Y-118475143D01*
X144708571Y-118522762D01*
X144756190Y-118618000D01*
X144756190Y-118998953D01*
X144708571Y-117998953D02*
X144708571Y-117665619D01*
X145232381Y-117522762D02*
X145232381Y-117998953D01*
X144232381Y-117998953D01*
X144232381Y-117522762D01*
X144708571Y-116760857D02*
X144708571Y-117094191D01*
X145232381Y-117094191D02*
X144232381Y-117094191D01*
X144232381Y-116618000D01*
X142692381Y-120546714D02*
X141692381Y-120546714D01*
X142692381Y-119975285D01*
X141692381Y-119975285D01*
X142597143Y-118927666D02*
X142644762Y-118975285D01*
X142692381Y-119118142D01*
X142692381Y-119213380D01*
X142644762Y-119356238D01*
X142549524Y-119451476D01*
X142454286Y-119499095D01*
X142263810Y-119546714D01*
X142120952Y-119546714D01*
X141930476Y-119499095D01*
X141835238Y-119451476D01*
X141740000Y-119356238D01*
X141692381Y-119213380D01*
X141692381Y-119118142D01*
X141740000Y-118975285D01*
X141787619Y-118927666D01*
D12*
X141464001Y-114133143D02*
X140035430Y-114133143D01*
X140035430Y-111133143D01*
X143035429Y-111133143D02*
X143606858Y-111133143D01*
X143892572Y-111276000D01*
X144178286Y-111561714D01*
X144321144Y-112133143D01*
X144321144Y-113133143D01*
X144178286Y-113704571D01*
X143892572Y-113990286D01*
X143606858Y-114133143D01*
X143035429Y-114133143D01*
X142749715Y-113990286D01*
X142464001Y-113704571D01*
X142321144Y-113133143D01*
X142321144Y-112133143D01*
X142464001Y-111561714D01*
X142749715Y-111276000D01*
X143035429Y-111133143D01*
X147178286Y-111276000D02*
X146892572Y-111133143D01*
X146464001Y-111133143D01*
X146035429Y-111276000D01*
X145749715Y-111561714D01*
X145606858Y-111847429D01*
X145464001Y-112418857D01*
X145464001Y-112847429D01*
X145606858Y-113418857D01*
X145749715Y-113704571D01*
X146035429Y-113990286D01*
X146464001Y-114133143D01*
X146749715Y-114133143D01*
X147178286Y-113990286D01*
X147321143Y-113847429D01*
X147321143Y-112847429D01*
X146749715Y-112847429D01*
X148606858Y-114133143D02*
X148606858Y-111133143D01*
X151749714Y-113847429D02*
X151606857Y-113990286D01*
X151178286Y-114133143D01*
X150892572Y-114133143D01*
X150464000Y-113990286D01*
X150178286Y-113704571D01*
X150035429Y-113418857D01*
X149892572Y-112847429D01*
X149892572Y-112418857D01*
X150035429Y-111847429D01*
X150178286Y-111561714D01*
X150464000Y-111276000D01*
X150892572Y-111133143D01*
X151178286Y-111133143D01*
X151606857Y-111276000D01*
X151749714Y-111418857D01*
X153749714Y-115133143D02*
X153749714Y-110847429D01*
X156606857Y-115133143D02*
X156606857Y-110847429D01*
X158606858Y-113990286D02*
X159035429Y-114133143D01*
X159749715Y-114133143D01*
X160035429Y-113990286D01*
X160178286Y-113847429D01*
X160321143Y-113561714D01*
X160321143Y-113276000D01*
X160178286Y-112990286D01*
X160035429Y-112847429D01*
X159749715Y-112704571D01*
X159178286Y-112561714D01*
X158892572Y-112418857D01*
X158749715Y-112276000D01*
X158606858Y-111990286D01*
X158606858Y-111704571D01*
X158749715Y-111418857D01*
X158892572Y-111276000D01*
X159178286Y-111133143D01*
X159892572Y-111133143D01*
X160321143Y-111276000D01*
X161606858Y-114133143D02*
X161606858Y-111133143D01*
X161606858Y-112561714D02*
X163321143Y-112561714D01*
X163321143Y-114133143D02*
X163321143Y-111133143D01*
X164749715Y-114133143D02*
X164749715Y-111133143D01*
X166178286Y-112561714D02*
X167178286Y-112561714D01*
X167606857Y-114133143D02*
X166178286Y-114133143D01*
X166178286Y-111133143D01*
X167606857Y-111133143D01*
X170321143Y-114133143D02*
X168892572Y-114133143D01*
X168892572Y-111133143D01*
X171321143Y-114133143D02*
X171321143Y-111133143D01*
X172035428Y-111133143D01*
X172464000Y-111276000D01*
X172749714Y-111561714D01*
X172892571Y-111847429D01*
X173035428Y-112418857D01*
X173035428Y-112847429D01*
X172892571Y-113418857D01*
X172749714Y-113704571D01*
X172464000Y-113990286D01*
X172035428Y-114133143D01*
X171321143Y-114133143D01*
D11*
X87280000Y-89570000D02*
X87980000Y-89570000D01*
X87980000Y-90770000D02*
X87280000Y-90770000D01*
D14*
X88198000Y-75752000D02*
X88198000Y-73092000D01*
X75438000Y-75752000D02*
X88198000Y-75752000D01*
X75438000Y-73092000D02*
X88198000Y-73092000D01*
X75438000Y-75752000D02*
X75438000Y-73092000D01*
X74168000Y-75752000D02*
X72838000Y-75752000D01*
X72838000Y-75752000D02*
X72838000Y-74422000D01*
X111058000Y-75752000D02*
X111058000Y-73092000D01*
X93218000Y-75752000D02*
X111058000Y-75752000D01*
X93218000Y-73092000D02*
X111058000Y-73092000D01*
X93218000Y-75752000D02*
X93218000Y-73092000D01*
X91948000Y-75752000D02*
X90618000Y-75752000D01*
X90618000Y-75752000D02*
X90618000Y-74422000D01*
D15*
G36*
X113731646Y-85363720D02*
X113741783Y-85335534D01*
X113758213Y-85292017D01*
X113783089Y-85225280D01*
X113814828Y-85139639D01*
X113851848Y-85039409D01*
X113892564Y-84928904D01*
X113935395Y-84812441D01*
X113978756Y-84694333D01*
X114021064Y-84578897D01*
X114060736Y-84470447D01*
X114096189Y-84373299D01*
X114125839Y-84291767D01*
X114148104Y-84230168D01*
X114161400Y-84192815D01*
X114164533Y-84183316D01*
X114148305Y-84181325D01*
X114102437Y-84179235D01*
X114031156Y-84177147D01*
X113938690Y-84175162D01*
X113829264Y-84173383D01*
X113707105Y-84171910D01*
X113677409Y-84171623D01*
X113190284Y-84167133D01*
X113751695Y-83424827D01*
X113857371Y-83285239D01*
X113957304Y-83153501D01*
X114049562Y-83032144D01*
X114132213Y-82923696D01*
X114203324Y-82830686D01*
X114260964Y-82755644D01*
X114303200Y-82701099D01*
X114328100Y-82669580D01*
X114333856Y-82662827D01*
X114347930Y-82654001D01*
X114345939Y-82672916D01*
X114344786Y-82677000D01*
X114334287Y-82714351D01*
X114317246Y-82776334D01*
X114294936Y-82858200D01*
X114268636Y-82955199D01*
X114239622Y-83062582D01*
X114209169Y-83175600D01*
X114178555Y-83289502D01*
X114149056Y-83399541D01*
X114121947Y-83500966D01*
X114098507Y-83589027D01*
X114080010Y-83658977D01*
X114067734Y-83706064D01*
X114062954Y-83725540D01*
X114062934Y-83725744D01*
X114079153Y-83728227D01*
X114124954Y-83730471D01*
X114196053Y-83732390D01*
X114288165Y-83733896D01*
X114397007Y-83734904D01*
X114518294Y-83735326D01*
X114537067Y-83735334D01*
X114659834Y-83735623D01*
X114770790Y-83736440D01*
X114865653Y-83737708D01*
X114940136Y-83739351D01*
X114989957Y-83741293D01*
X115010831Y-83743456D01*
X115011200Y-83743791D01*
X115001097Y-83758073D01*
X114972253Y-83796160D01*
X114926867Y-83855243D01*
X114867139Y-83932509D01*
X114795266Y-84025148D01*
X114713449Y-84130347D01*
X114623885Y-84245296D01*
X114528774Y-84367183D01*
X114430315Y-84493197D01*
X114330706Y-84620527D01*
X114232147Y-84746361D01*
X114136836Y-84867888D01*
X114046972Y-84982298D01*
X113964754Y-85086777D01*
X113892382Y-85178516D01*
X113832053Y-85254702D01*
X113785967Y-85312525D01*
X113756322Y-85349174D01*
X113746334Y-85360933D01*
X113731630Y-85374123D01*
X113731646Y-85363720D01*
X113731646Y-85363720D01*
G37*
X113731646Y-85363720D02*
X113741783Y-85335534D01*
X113758213Y-85292017D01*
X113783089Y-85225280D01*
X113814828Y-85139639D01*
X113851848Y-85039409D01*
X113892564Y-84928904D01*
X113935395Y-84812441D01*
X113978756Y-84694333D01*
X114021064Y-84578897D01*
X114060736Y-84470447D01*
X114096189Y-84373299D01*
X114125839Y-84291767D01*
X114148104Y-84230168D01*
X114161400Y-84192815D01*
X114164533Y-84183316D01*
X114148305Y-84181325D01*
X114102437Y-84179235D01*
X114031156Y-84177147D01*
X113938690Y-84175162D01*
X113829264Y-84173383D01*
X113707105Y-84171910D01*
X113677409Y-84171623D01*
X113190284Y-84167133D01*
X113751695Y-83424827D01*
X113857371Y-83285239D01*
X113957304Y-83153501D01*
X114049562Y-83032144D01*
X114132213Y-82923696D01*
X114203324Y-82830686D01*
X114260964Y-82755644D01*
X114303200Y-82701099D01*
X114328100Y-82669580D01*
X114333856Y-82662827D01*
X114347930Y-82654001D01*
X114345939Y-82672916D01*
X114344786Y-82677000D01*
X114334287Y-82714351D01*
X114317246Y-82776334D01*
X114294936Y-82858200D01*
X114268636Y-82955199D01*
X114239622Y-83062582D01*
X114209169Y-83175600D01*
X114178555Y-83289502D01*
X114149056Y-83399541D01*
X114121947Y-83500966D01*
X114098507Y-83589027D01*
X114080010Y-83658977D01*
X114067734Y-83706064D01*
X114062954Y-83725540D01*
X114062934Y-83725744D01*
X114079153Y-83728227D01*
X114124954Y-83730471D01*
X114196053Y-83732390D01*
X114288165Y-83733896D01*
X114397007Y-83734904D01*
X114518294Y-83735326D01*
X114537067Y-83735334D01*
X114659834Y-83735623D01*
X114770790Y-83736440D01*
X114865653Y-83737708D01*
X114940136Y-83739351D01*
X114989957Y-83741293D01*
X115010831Y-83743456D01*
X115011200Y-83743791D01*
X115001097Y-83758073D01*
X114972253Y-83796160D01*
X114926867Y-83855243D01*
X114867139Y-83932509D01*
X114795266Y-84025148D01*
X114713449Y-84130347D01*
X114623885Y-84245296D01*
X114528774Y-84367183D01*
X114430315Y-84493197D01*
X114330706Y-84620527D01*
X114232147Y-84746361D01*
X114136836Y-84867888D01*
X114046972Y-84982298D01*
X113964754Y-85086777D01*
X113892382Y-85178516D01*
X113832053Y-85254702D01*
X113785967Y-85312525D01*
X113756322Y-85349174D01*
X113746334Y-85360933D01*
X113731630Y-85374123D01*
X113731646Y-85363720D01*
D11*
X101346000Y-115570000D02*
X121666000Y-115570000D01*
X119126000Y-110490000D02*
X101346000Y-110490000D01*
X101346000Y-115570000D02*
X101346000Y-110490000D01*
X121666000Y-115570000D02*
X121666000Y-113030000D01*
X121946000Y-111760000D02*
X121946000Y-110210000D01*
X121666000Y-113030000D02*
X119126000Y-113030000D01*
X119126000Y-113030000D02*
X119126000Y-110490000D01*
X121946000Y-110210000D02*
X120396000Y-110210000D01*
D14*
X94682000Y-121098000D02*
X94682000Y-123758000D01*
X117602000Y-121098000D02*
X94682000Y-121098000D01*
X117602000Y-123758000D02*
X94682000Y-123758000D01*
X117602000Y-121098000D02*
X117602000Y-123758000D01*
X118872000Y-121098000D02*
X120202000Y-121098000D01*
X120202000Y-121098000D02*
X120202000Y-122428000D01*
D11*
X79756000Y-115570000D02*
X100076000Y-115570000D01*
X97536000Y-110490000D02*
X79756000Y-110490000D01*
X79756000Y-115570000D02*
X79756000Y-110490000D01*
X100076000Y-115570000D02*
X100076000Y-113030000D01*
X100356000Y-111760000D02*
X100356000Y-110210000D01*
X100076000Y-113030000D02*
X97536000Y-113030000D01*
X97536000Y-113030000D02*
X97536000Y-110490000D01*
X100356000Y-110210000D02*
X98806000Y-110210000D01*
X106426000Y-109220000D02*
X106426000Y-88900000D01*
X101346000Y-91440000D02*
X101346000Y-109220000D01*
X106426000Y-109220000D02*
X101346000Y-109220000D01*
X106426000Y-88900000D02*
X103886000Y-88900000D01*
X102616000Y-88620000D02*
X101066000Y-88620000D01*
X103886000Y-88900000D02*
X103886000Y-91440000D01*
X103886000Y-91440000D02*
X101346000Y-91440000D01*
X101066000Y-88620000D02*
X101066000Y-90170000D01*
D10*
X82983500Y-93006000D02*
X82483500Y-93006000D01*
X82483500Y-93006000D02*
X81333500Y-94156000D01*
X81333500Y-94156000D02*
X81333500Y-94656000D01*
X92553500Y-93006000D02*
X94203500Y-93006000D01*
X94203500Y-93006000D02*
X94203500Y-94656000D01*
X82983500Y-108416000D02*
X81333500Y-108416000D01*
X81333500Y-108416000D02*
X81333500Y-106766000D01*
X92553500Y-108416000D02*
X94203500Y-108416000D01*
X94203500Y-108416000D02*
X94203500Y-106766000D01*
D14*
X93278000Y-123758000D02*
X93278000Y-121098000D01*
X75438000Y-123758000D02*
X93278000Y-123758000D01*
X75438000Y-121098000D02*
X93278000Y-121098000D01*
X75438000Y-123758000D02*
X75438000Y-121098000D01*
X74168000Y-123758000D02*
X72838000Y-123758000D01*
X72838000Y-123758000D02*
X72838000Y-122428000D01*
D11*
X172212000Y-81280000D02*
X151892000Y-81280000D01*
X154432000Y-86360000D02*
X172212000Y-86360000D01*
X172212000Y-81280000D02*
X172212000Y-86360000D01*
X151892000Y-81280000D02*
X151892000Y-83820000D01*
X151612000Y-85090000D02*
X151612000Y-86640000D01*
X151892000Y-83820000D02*
X154432000Y-83820000D01*
X154432000Y-83820000D02*
X154432000Y-86360000D01*
X151612000Y-86640000D02*
X153162000Y-86640000D01*
D14*
X163770000Y-121098000D02*
X163770000Y-123758000D01*
X176530000Y-121098000D02*
X163770000Y-121098000D01*
X176530000Y-123758000D02*
X163770000Y-123758000D01*
X176530000Y-121098000D02*
X176530000Y-123758000D01*
X177800000Y-121098000D02*
X179130000Y-121098000D01*
X179130000Y-121098000D02*
X179130000Y-122428000D01*
X158690000Y-73092000D02*
X158690000Y-75752000D01*
X176530000Y-73092000D02*
X158690000Y-73092000D01*
X176530000Y-75752000D02*
X158690000Y-75752000D01*
X176530000Y-73092000D02*
X176530000Y-75752000D01*
X177800000Y-73092000D02*
X179130000Y-73092000D01*
X179130000Y-73092000D02*
X179130000Y-74422000D01*
X140910000Y-121098000D02*
X140910000Y-123758000D01*
X158750000Y-121098000D02*
X140910000Y-121098000D01*
X158750000Y-123758000D02*
X140910000Y-123758000D01*
X158750000Y-121098000D02*
X158750000Y-123758000D01*
X160020000Y-121098000D02*
X161350000Y-121098000D01*
X161350000Y-121098000D02*
X161350000Y-122428000D01*
D15*
G36*
X138236354Y-111486280D02*
X138226217Y-111514466D01*
X138209787Y-111557983D01*
X138184911Y-111624720D01*
X138153172Y-111710361D01*
X138116152Y-111810591D01*
X138075436Y-111921096D01*
X138032605Y-112037559D01*
X137989244Y-112155667D01*
X137946936Y-112271103D01*
X137907264Y-112379553D01*
X137871811Y-112476701D01*
X137842161Y-112558233D01*
X137819896Y-112619832D01*
X137806600Y-112657185D01*
X137803467Y-112666684D01*
X137819695Y-112668675D01*
X137865563Y-112670765D01*
X137936844Y-112672853D01*
X138029310Y-112674838D01*
X138138736Y-112676617D01*
X138260895Y-112678090D01*
X138290591Y-112678377D01*
X138777716Y-112682867D01*
X138216305Y-113425173D01*
X138110629Y-113564761D01*
X138010696Y-113696499D01*
X137918438Y-113817856D01*
X137835787Y-113926304D01*
X137764676Y-114019314D01*
X137707036Y-114094356D01*
X137664800Y-114148901D01*
X137639900Y-114180420D01*
X137634144Y-114187173D01*
X137620070Y-114195999D01*
X137622061Y-114177084D01*
X137623214Y-114173000D01*
X137633713Y-114135649D01*
X137650754Y-114073666D01*
X137673064Y-113991800D01*
X137699364Y-113894801D01*
X137728378Y-113787418D01*
X137758831Y-113674400D01*
X137789445Y-113560498D01*
X137818944Y-113450459D01*
X137846053Y-113349034D01*
X137869493Y-113260973D01*
X137887990Y-113191023D01*
X137900266Y-113143936D01*
X137905046Y-113124460D01*
X137905066Y-113124256D01*
X137888847Y-113121773D01*
X137843046Y-113119529D01*
X137771947Y-113117610D01*
X137679835Y-113116104D01*
X137570993Y-113115096D01*
X137449706Y-113114674D01*
X137430933Y-113114666D01*
X137308166Y-113114377D01*
X137197210Y-113113560D01*
X137102347Y-113112292D01*
X137027864Y-113110649D01*
X136978043Y-113108707D01*
X136957169Y-113106544D01*
X136956800Y-113106209D01*
X136966903Y-113091927D01*
X136995747Y-113053840D01*
X137041133Y-112994757D01*
X137100861Y-112917491D01*
X137172734Y-112824852D01*
X137254551Y-112719653D01*
X137344115Y-112604704D01*
X137439226Y-112482817D01*
X137537685Y-112356803D01*
X137637294Y-112229473D01*
X137735853Y-112103639D01*
X137831164Y-111982112D01*
X137921028Y-111867702D01*
X138003246Y-111763223D01*
X138075618Y-111671484D01*
X138135947Y-111595298D01*
X138182033Y-111537475D01*
X138211678Y-111500826D01*
X138221666Y-111489067D01*
X138236370Y-111475877D01*
X138236354Y-111486280D01*
X138236354Y-111486280D01*
G37*
X138236354Y-111486280D02*
X138226217Y-111514466D01*
X138209787Y-111557983D01*
X138184911Y-111624720D01*
X138153172Y-111710361D01*
X138116152Y-111810591D01*
X138075436Y-111921096D01*
X138032605Y-112037559D01*
X137989244Y-112155667D01*
X137946936Y-112271103D01*
X137907264Y-112379553D01*
X137871811Y-112476701D01*
X137842161Y-112558233D01*
X137819896Y-112619832D01*
X137806600Y-112657185D01*
X137803467Y-112666684D01*
X137819695Y-112668675D01*
X137865563Y-112670765D01*
X137936844Y-112672853D01*
X138029310Y-112674838D01*
X138138736Y-112676617D01*
X138260895Y-112678090D01*
X138290591Y-112678377D01*
X138777716Y-112682867D01*
X138216305Y-113425173D01*
X138110629Y-113564761D01*
X138010696Y-113696499D01*
X137918438Y-113817856D01*
X137835787Y-113926304D01*
X137764676Y-114019314D01*
X137707036Y-114094356D01*
X137664800Y-114148901D01*
X137639900Y-114180420D01*
X137634144Y-114187173D01*
X137620070Y-114195999D01*
X137622061Y-114177084D01*
X137623214Y-114173000D01*
X137633713Y-114135649D01*
X137650754Y-114073666D01*
X137673064Y-113991800D01*
X137699364Y-113894801D01*
X137728378Y-113787418D01*
X137758831Y-113674400D01*
X137789445Y-113560498D01*
X137818944Y-113450459D01*
X137846053Y-113349034D01*
X137869493Y-113260973D01*
X137887990Y-113191023D01*
X137900266Y-113143936D01*
X137905046Y-113124460D01*
X137905066Y-113124256D01*
X137888847Y-113121773D01*
X137843046Y-113119529D01*
X137771947Y-113117610D01*
X137679835Y-113116104D01*
X137570993Y-113115096D01*
X137449706Y-113114674D01*
X137430933Y-113114666D01*
X137308166Y-113114377D01*
X137197210Y-113113560D01*
X137102347Y-113112292D01*
X137027864Y-113110649D01*
X136978043Y-113108707D01*
X136957169Y-113106544D01*
X136956800Y-113106209D01*
X136966903Y-113091927D01*
X136995747Y-113053840D01*
X137041133Y-112994757D01*
X137100861Y-112917491D01*
X137172734Y-112824852D01*
X137254551Y-112719653D01*
X137344115Y-112604704D01*
X137439226Y-112482817D01*
X137537685Y-112356803D01*
X137637294Y-112229473D01*
X137735853Y-112103639D01*
X137831164Y-111982112D01*
X137921028Y-111867702D01*
X138003246Y-111763223D01*
X138075618Y-111671484D01*
X138135947Y-111595298D01*
X138182033Y-111537475D01*
X138211678Y-111500826D01*
X138221666Y-111489067D01*
X138236370Y-111475877D01*
X138236354Y-111486280D01*
D14*
X157286000Y-75752000D02*
X157286000Y-73092000D01*
X134366000Y-75752000D02*
X157286000Y-75752000D01*
X134366000Y-73092000D02*
X157286000Y-73092000D01*
X134366000Y-75752000D02*
X134366000Y-73092000D01*
X133096000Y-75752000D02*
X131766000Y-75752000D01*
X131766000Y-75752000D02*
X131766000Y-74422000D01*
D10*
X168984500Y-103844000D02*
X169484500Y-103844000D01*
X169484500Y-103844000D02*
X170634500Y-102694000D01*
X170634500Y-102694000D02*
X170634500Y-102194000D01*
X159414500Y-103844000D02*
X157764500Y-103844000D01*
X157764500Y-103844000D02*
X157764500Y-102194000D01*
X168984500Y-88434000D02*
X170634500Y-88434000D01*
X170634500Y-88434000D02*
X170634500Y-90084000D01*
X159414500Y-88434000D02*
X157764500Y-88434000D01*
X157764500Y-88434000D02*
X157764500Y-90084000D01*
D11*
X164688000Y-107280000D02*
X163988000Y-107280000D01*
X163988000Y-106080000D02*
X164688000Y-106080000D01*
X145542000Y-87630000D02*
X145542000Y-107950000D01*
X150622000Y-105410000D02*
X150622000Y-87630000D01*
X145542000Y-87630000D02*
X150622000Y-87630000D01*
X145542000Y-107950000D02*
X148082000Y-107950000D01*
X149352000Y-108230000D02*
X150902000Y-108230000D01*
X148082000Y-107950000D02*
X148082000Y-105410000D01*
X148082000Y-105410000D02*
X150622000Y-105410000D01*
X150902000Y-108230000D02*
X150902000Y-106680000D01*
X150622000Y-81280000D02*
X130302000Y-81280000D01*
X132842000Y-86360000D02*
X150622000Y-86360000D01*
X150622000Y-81280000D02*
X150622000Y-86360000D01*
X130302000Y-81280000D02*
X130302000Y-83820000D01*
X130022000Y-85090000D02*
X130022000Y-86640000D01*
X130302000Y-83820000D02*
X132842000Y-83820000D01*
X132842000Y-83820000D02*
X132842000Y-86360000D01*
X130022000Y-86640000D02*
X131572000Y-86640000D01*
M02*
