G04 #@! TF.FileFunction,Copper,L1,Top,Signal*
%FSLAX46Y46*%
G04 Gerber Fmt 4.6, Leading zero omitted, Abs format (unit mm)*
G04 Created by KiCad (PCBNEW 4.0.5+dfsg1-4) date Tue Nov  6 22:38:28 2018*
%MOMM*%
%LPD*%
G01*
G04 APERTURE LIST*
%ADD10C,0.100000*%
%ADD11C,0.600000*%
%ADD12R,0.800000X0.800000*%
%ADD13C,0.203200*%
G04 APERTURE END LIST*
D10*
D11*
X153202393Y-75350724D03*
X153202393Y-76366724D03*
X153202393Y-77382726D03*
X153202393Y-78398725D03*
X151805393Y-83605725D03*
X148694966Y-83330607D03*
X148694966Y-81562841D03*
X144185393Y-75350724D03*
X147233394Y-90844724D03*
X148122393Y-91733724D03*
X144185393Y-76366724D03*
X144185393Y-77382726D03*
D10*
G36*
X165591399Y-89209862D02*
X166284219Y-88809862D01*
X166684219Y-89502682D01*
X165991399Y-89902682D01*
X165591399Y-89209862D01*
X165591399Y-89209862D01*
G37*
G36*
X166391399Y-90595502D02*
X167084219Y-90195502D01*
X167484219Y-90888322D01*
X166791399Y-91288322D01*
X166391399Y-90595502D01*
X166391399Y-90595502D01*
G37*
G36*
X167045404Y-109383863D02*
X167738224Y-109783863D01*
X167338224Y-110476683D01*
X166645404Y-110076683D01*
X167045404Y-109383863D01*
X167045404Y-109383863D01*
G37*
G36*
X166245404Y-110769503D02*
X166938224Y-111169503D01*
X166538224Y-111862323D01*
X165845404Y-111462323D01*
X166245404Y-110769503D01*
X166245404Y-110769503D01*
G37*
D12*
X149557816Y-121037093D03*
X147957816Y-121037093D03*
D10*
G36*
X131670225Y-111462323D02*
X130977405Y-111862323D01*
X130577405Y-111169503D01*
X131270225Y-110769503D01*
X131670225Y-111462323D01*
X131670225Y-111462323D01*
G37*
G36*
X130870225Y-110076683D02*
X130177405Y-110476683D01*
X129777405Y-109783863D01*
X130470225Y-109383863D01*
X130870225Y-110076683D01*
X130870225Y-110076683D01*
G37*
G36*
X130832225Y-91219143D02*
X130139405Y-90819143D01*
X130539405Y-90126323D01*
X131232225Y-90526323D01*
X130832225Y-91219143D01*
X130832225Y-91219143D01*
G37*
G36*
X131632225Y-89833503D02*
X130939405Y-89433503D01*
X131339405Y-88740683D01*
X132032225Y-89140683D01*
X131632225Y-89833503D01*
X131632225Y-89833503D01*
G37*
D12*
X147919812Y-79889094D03*
X149519812Y-79889094D03*
D10*
G36*
X173103403Y-85076685D02*
X173796223Y-84676685D01*
X174196223Y-85369505D01*
X173503403Y-85769505D01*
X173103403Y-85076685D01*
X173103403Y-85076685D01*
G37*
G36*
X173903403Y-86462325D02*
X174596223Y-86062325D01*
X174996223Y-86755145D01*
X174303403Y-87155145D01*
X173903403Y-86462325D01*
X173903403Y-86462325D01*
G37*
G36*
X174519401Y-113632685D02*
X175212221Y-114032685D01*
X174812221Y-114725505D01*
X174119401Y-114325505D01*
X174519401Y-113632685D01*
X174519401Y-113632685D01*
G37*
G36*
X173719401Y-115018325D02*
X174412221Y-115418325D01*
X174012221Y-116111145D01*
X173319401Y-115711145D01*
X173719401Y-115018325D01*
X173719401Y-115018325D01*
G37*
D12*
X149557813Y-129673092D03*
X147957813Y-129673092D03*
D10*
G36*
X124350024Y-115859653D02*
X123657204Y-116259653D01*
X123257204Y-115566833D01*
X123950024Y-115166833D01*
X124350024Y-115859653D01*
X124350024Y-115859653D01*
G37*
G36*
X123550024Y-114474013D02*
X122857204Y-114874013D01*
X122457204Y-114181193D01*
X123150024Y-113781193D01*
X123550024Y-114474013D01*
X123550024Y-114474013D01*
G37*
G36*
X123358219Y-86716321D02*
X122665399Y-86316321D01*
X123065399Y-85623501D01*
X123758219Y-86023501D01*
X123358219Y-86716321D01*
X123358219Y-86716321D01*
G37*
G36*
X124158219Y-85330681D02*
X123465399Y-84930681D01*
X123865399Y-84237861D01*
X124558219Y-84637861D01*
X124158219Y-85330681D01*
X124158219Y-85330681D01*
G37*
D12*
X147919812Y-71253094D03*
X149519812Y-71253094D03*
D10*
G36*
X180577405Y-80827866D02*
X181270225Y-80427866D01*
X181670225Y-81120686D01*
X180977405Y-81520686D01*
X180577405Y-80827866D01*
X180577405Y-80827866D01*
G37*
G36*
X181377405Y-82213506D02*
X182070225Y-81813506D01*
X182470225Y-82506326D01*
X181777405Y-82906326D01*
X181377405Y-82213506D01*
X181377405Y-82213506D01*
G37*
G36*
X182285404Y-118273866D02*
X182978224Y-118673866D01*
X182578224Y-119366686D01*
X181885404Y-118966686D01*
X182285404Y-118273866D01*
X182285404Y-118273866D01*
G37*
G36*
X181485404Y-119659506D02*
X182178224Y-120059506D01*
X181778224Y-120752326D01*
X181085404Y-120352326D01*
X181485404Y-119659506D01*
X181485404Y-119659506D01*
G37*
D12*
X149557815Y-139071094D03*
X147957815Y-139071094D03*
D10*
G36*
X116430221Y-120606321D02*
X115737401Y-121006321D01*
X115337401Y-120313501D01*
X116030221Y-119913501D01*
X116430221Y-120606321D01*
X116430221Y-120606321D01*
G37*
G36*
X115630221Y-119220681D02*
X114937401Y-119620681D01*
X114537401Y-118927861D01*
X115230221Y-118527861D01*
X115630221Y-119220681D01*
X115630221Y-119220681D01*
G37*
G36*
X115992226Y-82398325D02*
X115299406Y-81998325D01*
X115699406Y-81305505D01*
X116392226Y-81705505D01*
X115992226Y-82398325D01*
X115992226Y-82398325D01*
G37*
G36*
X116792226Y-81012685D02*
X116099406Y-80612685D01*
X116499406Y-79919865D01*
X117192226Y-80319865D01*
X116792226Y-81012685D01*
X116792226Y-81012685D01*
G37*
D12*
X147957812Y-62871090D03*
X149557812Y-62871090D03*
D11*
X144185393Y-78398724D03*
X137979471Y-95797724D03*
X135803393Y-94781724D03*
X138470392Y-65190725D03*
X155488394Y-69381726D03*
X158282393Y-64301724D03*
X149011394Y-91733725D03*
X147233394Y-89701724D03*
X151235823Y-78652724D03*
X154472394Y-66735010D03*
X144895707Y-67697092D03*
X146090393Y-75985725D03*
X151424393Y-82462724D03*
X151297394Y-80303724D03*
X144850593Y-79668725D03*
X146949193Y-79651884D03*
X152237195Y-80318709D03*
X146170735Y-97622384D03*
X152313394Y-72429724D03*
X149336809Y-72528608D03*
X148757394Y-75985725D03*
X146642993Y-98272081D03*
X146482367Y-78998273D03*
X147233394Y-98845724D03*
X158805758Y-93644070D03*
X154615593Y-94248871D03*
X154571895Y-93031223D03*
X159545998Y-105762246D03*
X154581183Y-95069779D03*
X155488395Y-93039271D03*
X151426116Y-111963736D03*
X138656670Y-106897753D03*
X156291597Y-93039270D03*
X153976383Y-96178724D03*
X149639331Y-109132724D03*
X148376393Y-109132725D03*
X146060194Y-82335724D03*
X146084021Y-80691098D03*
X147231329Y-88756069D03*
X138145002Y-93303700D03*
X137374671Y-106025134D03*
X148145531Y-113154892D03*
X159484562Y-107302212D03*
X160150800Y-94483849D03*
X149284933Y-87529038D03*
X136692394Y-99226724D03*
X137979471Y-99226724D03*
X149919931Y-86767037D03*
X137802593Y-92372770D03*
X136397259Y-105856210D03*
X147510533Y-113844089D03*
X159890474Y-108123150D03*
X161128209Y-94652775D03*
X136363462Y-100877724D03*
X137979471Y-100877724D03*
X137405229Y-91537026D03*
X135443552Y-105728339D03*
X146946602Y-114606086D03*
X160295082Y-108946352D03*
X162052672Y-94729996D03*
X150554934Y-86132039D03*
D13*
X135803393Y-94781724D02*
X136963471Y-94781724D01*
X136963471Y-94781724D02*
X137979471Y-95797724D01*
X155488394Y-69381726D02*
X158282393Y-66587724D01*
X158282393Y-66587724D02*
X158282393Y-64301724D01*
X144895707Y-67697092D02*
X144895708Y-64584554D01*
X144895708Y-64584554D02*
X147313972Y-62166290D01*
X147313972Y-62166290D02*
X150201654Y-62166290D01*
X150201654Y-62166290D02*
X154472393Y-66437029D01*
X154472393Y-66437029D02*
X154472394Y-66735010D01*
X146090393Y-75985725D02*
X146090394Y-68891778D01*
X146090394Y-68891778D02*
X144895707Y-67697092D01*
X151424393Y-82462724D02*
X151424393Y-80430724D01*
X151424393Y-80430724D02*
X151297394Y-80303724D01*
X151297393Y-82335724D02*
X151424393Y-82462724D01*
X146949193Y-79651884D02*
X144867435Y-79651883D01*
X144867435Y-79651883D02*
X144850593Y-79668725D01*
X152237195Y-80318709D02*
X152237194Y-80742974D01*
X152237194Y-80742974D02*
X152440393Y-80946173D01*
X152440393Y-80946173D02*
X152440393Y-91352724D01*
X152440393Y-91352724D02*
X152029195Y-91763923D01*
X152029195Y-91763923D02*
X146170735Y-97622384D01*
X152821393Y-92093679D02*
X146942992Y-97972081D01*
X152821394Y-82335724D02*
X152821393Y-92093679D01*
X152821394Y-82335724D02*
X152821393Y-79922725D01*
X152821393Y-79922725D02*
X152313393Y-79414725D01*
X152313393Y-79414725D02*
X152313394Y-72429724D01*
X146942992Y-97972081D02*
X146642993Y-98272081D01*
X148757394Y-75985725D02*
X149336811Y-75406309D01*
X149336811Y-75406309D02*
X149336809Y-72528608D01*
X146482367Y-78998273D02*
X144625939Y-78998273D01*
X144625939Y-78998273D02*
X144058393Y-79565818D01*
X146466604Y-96431408D02*
X145565933Y-97332079D01*
X144058393Y-79565818D02*
X144058393Y-80019428D01*
X144058393Y-80019428D02*
X145769888Y-81730924D01*
X146350498Y-81730924D02*
X146664994Y-82045419D01*
X145769888Y-81730924D02*
X146350498Y-81730924D01*
X146664994Y-82626029D02*
X146466603Y-82824420D01*
X146621530Y-99145723D02*
X146933395Y-99145724D01*
X146664994Y-82045419D02*
X146664994Y-82626029D01*
X145565934Y-98090127D02*
X146621530Y-99145723D01*
X146466603Y-82824420D02*
X146466604Y-96431408D01*
X145565933Y-97332079D02*
X145565934Y-98090127D01*
X146933395Y-99145724D02*
X147233394Y-98845724D01*
X166137809Y-89356272D02*
X158823075Y-93579437D01*
X158823075Y-93579437D02*
X158805758Y-93644070D01*
X181123813Y-80974271D02*
X173649812Y-85223090D01*
X173649812Y-85223090D02*
X166137811Y-89356272D01*
X154571895Y-93031223D02*
X154571894Y-94205172D01*
X154571894Y-94205172D02*
X154615593Y-94248871D01*
X167191813Y-109930272D02*
X159837359Y-105684176D01*
X159837359Y-105684176D02*
X159545998Y-105762246D01*
X182431813Y-118820275D02*
X174665809Y-114179096D01*
X174665809Y-114179096D02*
X167191811Y-109930275D01*
X151426116Y-111963736D02*
X149519393Y-113069724D01*
X155488395Y-93039271D02*
X155488394Y-94271176D01*
X155488394Y-94271176D02*
X154689790Y-95069779D01*
X154689790Y-95069779D02*
X154581183Y-95069779D01*
X149557816Y-113832037D02*
X149557815Y-121037092D01*
X149519393Y-113069724D02*
X149557816Y-113832037D01*
X149557813Y-129673095D02*
X149557810Y-139071093D01*
X149557811Y-121037097D02*
X149557813Y-129673095D01*
X138634778Y-106979457D02*
X138656670Y-106897753D01*
X131123816Y-111315913D02*
X138634778Y-106979457D01*
X154367345Y-96178724D02*
X153976383Y-96178724D01*
X156291597Y-94254472D02*
X154367345Y-96178724D01*
X156291597Y-93039270D02*
X156291597Y-94254472D01*
X149639331Y-109132724D02*
X148376393Y-109132725D01*
X123803615Y-115713245D02*
X115939023Y-120253862D01*
X115939023Y-120253862D02*
X115883814Y-120459913D01*
X123757812Y-115633912D02*
X131123812Y-111315914D01*
X138035356Y-94830941D02*
X140651198Y-94830941D01*
X140651198Y-94830941D02*
X146035874Y-89446265D01*
X146060194Y-89163524D02*
X146035874Y-89187843D01*
X146035874Y-89187843D02*
X146035874Y-89446265D01*
X146060194Y-82335724D02*
X146060194Y-89163524D01*
X130685815Y-90672733D02*
X137934740Y-94857901D01*
X137934740Y-94857901D02*
X138035356Y-94830941D01*
X115845811Y-81851912D02*
X123211813Y-86169912D01*
X123211813Y-86169912D02*
X130685812Y-90672732D01*
X146979394Y-80516789D02*
X147895316Y-80516789D01*
X147895316Y-80516789D02*
X147919811Y-80492294D01*
X147231329Y-88756069D02*
X147919811Y-88067590D01*
X147919811Y-88067590D02*
X147919811Y-80492294D01*
X147919811Y-80492294D02*
X147919811Y-79889094D01*
X146084021Y-80691098D02*
X146805086Y-80691097D01*
X146805086Y-80691097D02*
X146979394Y-80516789D01*
X147919813Y-79889093D02*
X147919815Y-71253095D01*
X147919815Y-71253095D02*
X147957813Y-62871094D01*
X136691252Y-92292457D02*
X136745748Y-92495839D01*
X136745748Y-92495839D02*
X138145002Y-93303700D01*
X135707013Y-106743871D02*
X135954519Y-106810188D01*
X135954519Y-106810188D02*
X137333417Y-106014080D01*
X137333417Y-106014080D02*
X137374671Y-106025134D01*
X147957813Y-115107741D02*
X148115333Y-114950223D01*
X148115333Y-114950223D02*
X148115332Y-113185088D01*
X148115332Y-113185088D02*
X148145531Y-113154892D01*
X161063099Y-108222118D02*
X161024960Y-108079782D01*
X161024960Y-108079782D02*
X159616796Y-107266778D01*
X159616796Y-107266778D02*
X159484562Y-107302212D01*
X161584343Y-93832740D02*
X161416735Y-93787834D01*
X161416735Y-93787834D02*
X160192054Y-94494904D01*
X160192054Y-94494904D02*
X160150800Y-94483849D01*
X149519813Y-85825330D02*
X149315133Y-86030008D01*
X149315133Y-86030008D02*
X149315134Y-87498841D01*
X149315134Y-87498841D02*
X149284933Y-87529038D01*
X131485813Y-89287092D02*
X136031339Y-91911452D01*
X136031339Y-91911452D02*
X136691252Y-92292457D01*
X149519814Y-79889094D02*
X149519813Y-85825330D01*
X135707013Y-106743871D02*
X135710790Y-106741697D01*
X135597033Y-106807372D02*
X135707013Y-106743871D01*
X131193848Y-109349551D02*
X135597033Y-106807372D01*
X130846197Y-109628673D02*
X131168997Y-109442306D01*
X131168997Y-109442306D02*
X131193848Y-109349551D01*
X147957814Y-115985441D02*
X147957813Y-115107741D01*
X163709217Y-109749857D02*
X161063099Y-108222118D01*
X164870971Y-91935202D02*
X161584343Y-93832740D01*
X130323813Y-109930271D02*
X130846197Y-109628673D01*
X147957814Y-115985441D02*
X147967816Y-115975439D01*
X147957815Y-121037093D02*
X147957814Y-115985441D01*
X165863954Y-110993897D02*
X163709217Y-109749857D01*
X166391815Y-111315913D02*
X165869425Y-111014315D01*
X165869425Y-111014315D02*
X165863954Y-110993897D01*
X166937814Y-90741913D02*
X164870971Y-91935202D01*
X137979471Y-99226724D02*
X136692394Y-99226724D01*
X149926223Y-86239095D02*
X149926223Y-86760750D01*
X149926223Y-86760750D02*
X149919931Y-86767037D01*
X149926220Y-80752681D02*
X149926223Y-86239095D01*
X149519814Y-71253092D02*
X149519811Y-71856291D01*
X149519811Y-71856291D02*
X150224612Y-72561094D01*
X150224612Y-72561094D02*
X150224612Y-80454290D01*
X150224612Y-80454290D02*
X149926220Y-80752681D01*
X137422379Y-92245290D02*
X137693714Y-92401946D01*
X137693714Y-92401946D02*
X137802593Y-92372770D01*
X135925515Y-106148440D02*
X136390960Y-105879714D01*
X136390960Y-105879714D02*
X136397259Y-105856210D01*
X147551402Y-114498155D02*
X147551402Y-113884957D01*
X147551402Y-113884957D02*
X147510533Y-113844089D01*
X160397954Y-108307377D02*
X160019146Y-108088675D01*
X160019146Y-108088675D02*
X159890474Y-108123150D01*
X161422120Y-94395683D02*
X161155916Y-94549378D01*
X161155916Y-94549378D02*
X161128209Y-94652775D01*
X124534201Y-85085872D02*
X124548055Y-85137581D01*
X124011814Y-84784268D02*
X124534201Y-85085872D01*
X124548055Y-85137581D02*
X130046493Y-88312109D01*
X130046493Y-88312109D02*
X130266463Y-88439108D01*
X132395796Y-88998639D02*
X132455158Y-89220179D01*
X131058892Y-88226778D02*
X132395796Y-88998639D01*
X130266463Y-88439108D02*
X131058892Y-88226778D01*
X132533172Y-89265217D02*
X132583028Y-89451288D01*
X132455158Y-89220179D02*
X132533172Y-89265217D01*
X132583028Y-89451288D02*
X135906577Y-91370140D01*
X135906577Y-91370140D02*
X137422379Y-92245290D01*
X130985536Y-109000538D02*
X135925515Y-106148440D01*
X147551402Y-115817107D02*
X147551402Y-114498155D01*
X163506009Y-110101816D02*
X160397954Y-108307377D01*
X165944325Y-91784787D02*
X161422120Y-94395683D01*
X128855527Y-110843227D02*
X129134180Y-109803272D01*
X129134180Y-109803272D02*
X130670682Y-108916173D01*
X130670682Y-108916173D02*
X130985536Y-109000538D01*
X122957812Y-114248275D02*
X128855527Y-110843227D01*
X147253011Y-120500245D02*
X147551404Y-120201856D01*
X147551404Y-120201856D02*
X147551402Y-115817107D01*
X147967816Y-122579437D02*
X147253013Y-121864636D01*
X147253013Y-121864636D02*
X147253011Y-120500245D01*
X147967820Y-129059887D02*
X147967816Y-122579437D01*
X147957810Y-129673096D02*
X147957811Y-129069892D01*
X147957811Y-129069892D02*
X147967820Y-129059887D01*
X165177794Y-111067021D02*
X163506009Y-110101816D01*
X167726696Y-112020317D02*
X166685487Y-112299302D01*
X166685487Y-112299302D02*
X165292488Y-111495053D01*
X165292488Y-111495053D02*
X165177794Y-111067021D01*
X173865815Y-115564739D02*
X167726696Y-112020317D01*
X166306024Y-91575960D02*
X165944325Y-91784787D01*
X174449812Y-86608733D02*
X168041146Y-90308779D01*
X168041146Y-90308779D02*
X167847796Y-91030370D01*
X167847796Y-91030370D02*
X166713633Y-91685180D01*
X166713633Y-91685180D02*
X166306024Y-91575960D01*
X137979471Y-100877724D02*
X136363462Y-100877724D01*
X137209634Y-91653182D02*
X137253176Y-91577770D01*
X137253176Y-91577770D02*
X137405229Y-91537026D01*
X135335555Y-106019774D02*
X135370935Y-105999349D01*
X135370935Y-105999349D02*
X135443552Y-105728339D01*
X147144993Y-115031565D02*
X147144993Y-114804477D01*
X147144993Y-114804477D02*
X146946602Y-114606086D01*
X160733578Y-108970435D02*
X160566086Y-108873736D01*
X160566086Y-108873736D02*
X160295082Y-108946352D01*
X162153248Y-94442847D02*
X162125290Y-94458988D01*
X162125290Y-94458988D02*
X162052672Y-94729996D01*
X150332633Y-85835038D02*
X150332633Y-85909740D01*
X150332633Y-85909740D02*
X150554934Y-86132039D01*
X137035666Y-91552737D02*
X137209634Y-91653182D01*
X135825831Y-90854240D02*
X137035666Y-91552737D01*
X150332632Y-80921024D02*
X150332633Y-85835038D01*
X133314153Y-89404118D02*
X135825831Y-90854240D01*
X134213882Y-106667372D02*
X135335555Y-106019774D01*
X147144991Y-116483438D02*
X147144993Y-115031565D01*
X163302801Y-110453779D02*
X160733578Y-108970435D01*
X162698925Y-94127802D02*
X162153248Y-94442847D01*
X166147530Y-92136753D02*
X162698925Y-94127802D01*
X125058390Y-84962941D02*
X130323880Y-88002975D01*
X130323880Y-88002975D02*
X131116313Y-87790643D01*
X131116313Y-87790643D02*
X133204934Y-88996511D01*
X133204934Y-88996511D02*
X133314153Y-89404118D01*
X122696387Y-83959574D02*
X123581984Y-83722279D01*
X123581984Y-83722279D02*
X124935315Y-84503625D01*
X124935315Y-84503625D02*
X125058390Y-84962941D01*
X116645814Y-80466272D02*
X122696387Y-83959574D01*
X130928121Y-108564407D02*
X134213882Y-106667372D01*
X123676478Y-113364069D02*
X128506535Y-110575437D01*
X128506535Y-110575437D02*
X128785189Y-109535482D01*
X128785189Y-109535482D02*
X130613267Y-108480040D01*
X130613267Y-108480040D02*
X130928121Y-108564407D01*
X121605485Y-115308984D02*
X122018665Y-113766962D01*
X122018665Y-113766962D02*
X123020798Y-113188383D01*
X123020798Y-113188383D02*
X123676478Y-113364069D01*
X115083812Y-119074271D02*
X121605485Y-115308984D01*
X147144995Y-120033512D02*
X147144991Y-116483438D01*
X147561408Y-128827846D02*
X147561409Y-122747777D01*
X147561409Y-122747777D02*
X146846599Y-122032975D01*
X146846599Y-122032975D02*
X146846602Y-120331903D01*
X146846602Y-120331903D02*
X147144995Y-120033512D01*
X147957813Y-131459432D02*
X147253011Y-130754635D01*
X147253011Y-130754635D02*
X147253010Y-129136244D01*
X147253010Y-129136244D02*
X147561408Y-128827846D01*
X147957812Y-139071096D02*
X147957813Y-131459432D01*
X164828802Y-111334814D02*
X163302801Y-110453779D01*
X164943492Y-111762840D02*
X164828802Y-111334814D01*
X166628069Y-112735433D02*
X166628072Y-112735436D01*
X166628072Y-112735436D02*
X164943492Y-111762840D01*
X172861213Y-115454011D02*
X167669278Y-112456440D01*
X167669278Y-112456440D02*
X166628069Y-112735433D01*
X181631817Y-120205914D02*
X174847474Y-116288972D01*
X174847474Y-116288972D02*
X174070994Y-116497029D01*
X174070994Y-116497029D02*
X172970438Y-115861619D01*
X172970438Y-115861619D02*
X172861213Y-115454011D01*
X166363444Y-92012095D02*
X166147530Y-92136753D01*
X173806233Y-87449584D02*
X168390134Y-90576569D01*
X168390134Y-90576569D02*
X168196788Y-91298160D01*
X168196788Y-91298160D02*
X166771048Y-92121308D01*
X166771048Y-92121308D02*
X166363444Y-92012095D01*
X175761164Y-85928058D02*
X175482255Y-86968971D01*
X175482255Y-86968971D02*
X174382404Y-87603967D01*
X174382404Y-87603967D02*
X173806233Y-87449584D01*
X181398212Y-82673513D02*
X175761164Y-85928058D01*
X181923811Y-82359916D02*
X181401429Y-82661511D01*
X181401429Y-82661511D02*
X181398212Y-82673513D01*
X149519815Y-69729094D02*
X150631024Y-70840303D01*
X150631024Y-70840303D02*
X150631022Y-80622633D01*
X150631022Y-80622633D02*
X150332632Y-80921024D01*
X149519814Y-69221094D02*
X149519815Y-69729094D01*
X149519815Y-63512296D02*
X149519814Y-69221094D01*
X149557810Y-62871091D02*
X149557810Y-63474294D01*
X149557810Y-63474294D02*
X149519815Y-63512296D01*
G36*
X153458011Y-63633095D02*
X153458011Y-63633097D01*
X153486922Y-63778440D01*
X153569252Y-63901656D01*
X153692468Y-63983986D01*
X153837811Y-64012897D01*
X153983154Y-63983986D01*
X154106370Y-63901656D01*
X158917812Y-59090212D01*
X163460696Y-63633093D01*
X153569254Y-73524533D01*
X153486924Y-73647749D01*
X153458013Y-73793092D01*
X153458012Y-86061294D01*
X153467867Y-86110839D01*
X153471395Y-86161226D01*
X153482200Y-86182892D01*
X153486923Y-86206637D01*
X153514985Y-86248635D01*
X153537529Y-86293841D01*
X153555803Y-86309723D01*
X153569253Y-86329853D01*
X153611252Y-86357916D01*
X153649379Y-86391053D01*
X158449982Y-89134251D01*
X158496315Y-89149749D01*
X158540135Y-89171356D01*
X158565971Y-89173048D01*
X158590519Y-89181259D01*
X158639252Y-89177847D01*
X158688009Y-89181040D01*
X158712523Y-89172717D01*
X158738347Y-89170909D01*
X158782070Y-89149105D01*
X158828332Y-89133398D01*
X169426746Y-83013652D01*
X169488815Y-82959213D01*
X169538143Y-82915953D01*
X169538147Y-82915945D01*
X169538156Y-82915937D01*
X169573481Y-82844296D01*
X169603687Y-82783045D01*
X173224205Y-69271080D01*
X179429895Y-70933890D01*
X177668787Y-77506443D01*
X177659096Y-77654316D01*
X177706730Y-77794642D01*
X177804439Y-77906057D01*
X177937347Y-77971601D01*
X178085220Y-77981292D01*
X178225546Y-77933658D01*
X184495743Y-74313557D01*
X189195939Y-82454547D01*
X182925745Y-86074647D01*
X182814330Y-86172356D01*
X182748786Y-86305264D01*
X182739095Y-86453137D01*
X182786729Y-86593463D01*
X182884438Y-86704878D01*
X183017346Y-86770422D01*
X189589898Y-88531528D01*
X187927087Y-94737221D01*
X174415124Y-91116703D01*
X174342551Y-91111947D01*
X174267300Y-91107005D01*
X174267275Y-91107014D01*
X174267251Y-91107012D01*
X174199832Y-91129898D01*
X174126968Y-91154621D01*
X163630156Y-97213150D01*
X163591523Y-97247022D01*
X163549068Y-97275941D01*
X163536276Y-97295460D01*
X163518729Y-97310845D01*
X163496001Y-97356917D01*
X163467841Y-97399887D01*
X163463493Y-97422815D01*
X163453168Y-97443744D01*
X163449801Y-97495008D01*
X163440229Y-97545482D01*
X163491030Y-103235086D01*
X163500813Y-103282069D01*
X163503946Y-103329954D01*
X163515782Y-103353962D01*
X163521238Y-103380165D01*
X163548253Y-103419824D01*
X163569474Y-103462869D01*
X163589597Y-103480521D01*
X163604665Y-103502641D01*
X163644799Y-103528943D01*
X163680879Y-103560591D01*
X174126135Y-109592685D01*
X174126157Y-109592692D01*
X174126171Y-109592705D01*
X174191514Y-109614886D01*
X174266456Y-109640334D01*
X174266478Y-109640333D01*
X174266497Y-109640339D01*
X174341907Y-109635397D01*
X174414330Y-109630658D01*
X174414347Y-109630649D01*
X174414370Y-109630648D01*
X187926334Y-106010130D01*
X189589142Y-112215822D01*
X183016590Y-113976927D01*
X182883682Y-114042471D01*
X182785973Y-114153886D01*
X182738339Y-114294212D01*
X182748030Y-114442085D01*
X182805483Y-114558586D01*
X182813574Y-114574993D01*
X182924989Y-114672702D01*
X189195188Y-118292804D01*
X184494989Y-126433792D01*
X178224792Y-122813689D01*
X178084466Y-122766055D01*
X177936593Y-122775746D01*
X177803685Y-122841290D01*
X177705976Y-122952705D01*
X177658342Y-123093031D01*
X177668033Y-123240904D01*
X179429139Y-129813456D01*
X173223451Y-131476265D01*
X169602934Y-117964309D01*
X169602899Y-117964238D01*
X169602894Y-117964160D01*
X169570027Y-117897582D01*
X169537390Y-117831401D01*
X169537331Y-117831350D01*
X169537296Y-117831278D01*
X169480926Y-117781883D01*
X169425975Y-117733692D01*
X169425901Y-117733667D01*
X169425842Y-117733615D01*
X159082178Y-111767296D01*
X159034462Y-111751121D01*
X158989183Y-111729025D01*
X158964884Y-111727534D01*
X158941833Y-111719720D01*
X158891566Y-111723035D01*
X158841271Y-111719949D01*
X158818251Y-111727870D01*
X158793964Y-111729472D01*
X158748791Y-111751772D01*
X158701144Y-111768167D01*
X153646544Y-114714571D01*
X153609897Y-114746981D01*
X153569223Y-114774165D01*
X153554880Y-114795637D01*
X153535537Y-114812743D01*
X153514080Y-114856713D01*
X153486907Y-114897391D01*
X153481873Y-114922714D01*
X153470547Y-114945923D01*
X153467551Y-114994757D01*
X153458012Y-115042737D01*
X153459363Y-126951885D01*
X153474271Y-127026788D01*
X153488274Y-127097185D01*
X153488285Y-127097202D01*
X153488290Y-127097225D01*
X153531000Y-127161128D01*
X153570604Y-127220401D01*
X163462047Y-137111838D01*
X158919168Y-141654725D01*
X154107722Y-136843280D01*
X153984506Y-136760950D01*
X153839163Y-136732039D01*
X153693820Y-136760950D01*
X153570604Y-136843280D01*
X153488274Y-136966496D01*
X153459363Y-137111839D01*
X153459363Y-144352039D01*
X144058962Y-144352034D01*
X144058960Y-137111839D01*
X144030049Y-136966496D01*
X144030047Y-136966493D01*
X143947719Y-136843279D01*
X143824503Y-136760950D01*
X143679160Y-136732039D01*
X143533817Y-136760950D01*
X143410601Y-136843280D01*
X138599162Y-141654722D01*
X134056280Y-137111836D01*
X143947721Y-127220399D01*
X143947734Y-127220379D01*
X143947751Y-127220368D01*
X143985947Y-127163190D01*
X144030051Y-127097183D01*
X144030056Y-127097160D01*
X144030067Y-127097143D01*
X144044071Y-127026703D01*
X144058962Y-126951840D01*
X144058958Y-126951819D01*
X144058962Y-126951797D01*
X144057612Y-115042651D01*
X144048071Y-114994712D01*
X144045077Y-114945923D01*
X144033734Y-114922677D01*
X144028685Y-114897311D01*
X144001525Y-114856673D01*
X143980088Y-114812743D01*
X143960712Y-114795608D01*
X143946341Y-114774105D01*
X143905699Y-114746956D01*
X143881845Y-114725860D01*
X146341697Y-114725860D01*
X146433578Y-114948230D01*
X146603563Y-115118512D01*
X146738593Y-115174581D01*
X146738591Y-116483437D01*
X146738591Y-116483438D01*
X146738595Y-119865175D01*
X146559235Y-120044534D01*
X146471137Y-120176379D01*
X146440202Y-120331902D01*
X146440199Y-122032974D01*
X146440199Y-122032977D01*
X146458659Y-122125782D01*
X146463876Y-122152005D01*
X146471135Y-122188500D01*
X146559232Y-122320345D01*
X147155009Y-122916115D01*
X147155008Y-128659510D01*
X146965642Y-128848876D01*
X146877545Y-128980721D01*
X146846610Y-129136244D01*
X146846611Y-130754635D01*
X146846611Y-130754636D01*
X146877546Y-130910159D01*
X146965644Y-131042004D01*
X147551413Y-131627769D01*
X147551412Y-138361528D01*
X147444863Y-138381576D01*
X147341123Y-138448331D01*
X147271528Y-138550187D01*
X147247044Y-138671094D01*
X147247044Y-139471094D01*
X147268297Y-139584046D01*
X147335052Y-139687786D01*
X147436908Y-139757381D01*
X147557815Y-139781865D01*
X148357815Y-139781865D01*
X148470767Y-139760612D01*
X148574507Y-139693857D01*
X148644102Y-139592001D01*
X148668586Y-139471094D01*
X148668586Y-138671094D01*
X148647333Y-138558142D01*
X148580578Y-138454402D01*
X148478722Y-138384807D01*
X148364212Y-138361618D01*
X148364213Y-131459432D01*
X148333278Y-131303909D01*
X148333278Y-131303908D01*
X148245180Y-131172063D01*
X147659411Y-130586298D01*
X147659411Y-130383863D01*
X148357813Y-130383863D01*
X148470765Y-130362610D01*
X148574505Y-130295855D01*
X148644100Y-130193999D01*
X148668584Y-130073092D01*
X148668584Y-129273092D01*
X148847042Y-129273092D01*
X148847042Y-130073092D01*
X148868295Y-130186044D01*
X148935050Y-130289784D01*
X149036906Y-130359379D01*
X149151413Y-130382567D01*
X149151410Y-138361528D01*
X149044863Y-138381576D01*
X148941123Y-138448331D01*
X148871528Y-138550187D01*
X148847044Y-138671094D01*
X148847044Y-139471094D01*
X148868297Y-139584046D01*
X148935052Y-139687786D01*
X149036908Y-139757381D01*
X149157815Y-139781865D01*
X149957815Y-139781865D01*
X150070767Y-139760612D01*
X150174507Y-139693857D01*
X150244102Y-139592001D01*
X150268586Y-139471094D01*
X150268586Y-138671094D01*
X150247333Y-138558142D01*
X150180578Y-138454402D01*
X150078722Y-138384807D01*
X149964210Y-138361618D01*
X149964213Y-130382659D01*
X150070765Y-130362610D01*
X150174505Y-130295855D01*
X150244100Y-130193999D01*
X150268584Y-130073092D01*
X150268584Y-129273092D01*
X150247331Y-129160140D01*
X150180576Y-129056400D01*
X150078720Y-128986805D01*
X149964213Y-128963617D01*
X149964211Y-121746661D01*
X150070768Y-121726611D01*
X150174508Y-121659856D01*
X150244103Y-121558000D01*
X150268587Y-121437093D01*
X150268587Y-120637093D01*
X150247334Y-120524141D01*
X150180579Y-120420401D01*
X150078723Y-120350806D01*
X149964215Y-120327618D01*
X149964216Y-113832037D01*
X149962190Y-113821853D01*
X149963701Y-113811579D01*
X149937758Y-113296872D01*
X151240190Y-112541401D01*
X151305286Y-112568431D01*
X151545890Y-112568641D01*
X151768260Y-112476760D01*
X151938542Y-112306775D01*
X152030811Y-112084566D01*
X152031021Y-111843962D01*
X151939140Y-111621592D01*
X151769155Y-111451310D01*
X151546946Y-111359041D01*
X151306342Y-111358831D01*
X151083972Y-111450712D01*
X150913690Y-111620697D01*
X150821421Y-111842906D01*
X150821419Y-111844668D01*
X149315483Y-112718182D01*
X149268335Y-112759698D01*
X149217923Y-112797186D01*
X149209215Y-112811757D01*
X149196475Y-112822975D01*
X149168805Y-112879371D01*
X149136575Y-112933299D01*
X149134105Y-112950095D01*
X149126629Y-112965333D01*
X149122647Y-113028029D01*
X149113508Y-113090182D01*
X149151416Y-113842277D01*
X149151415Y-120327526D01*
X149044864Y-120347575D01*
X148941124Y-120414330D01*
X148871529Y-120516186D01*
X148847045Y-120637093D01*
X148847045Y-121437093D01*
X148868298Y-121550045D01*
X148935053Y-121653785D01*
X149036909Y-121723380D01*
X149151411Y-121746567D01*
X149151413Y-128963525D01*
X149044861Y-128983574D01*
X148941121Y-129050329D01*
X148871526Y-129152185D01*
X148847042Y-129273092D01*
X148668584Y-129273092D01*
X148647331Y-129160140D01*
X148580576Y-129056400D01*
X148478720Y-128986805D01*
X148374220Y-128965643D01*
X148374216Y-122579437D01*
X148343281Y-122423914D01*
X148255184Y-122292069D01*
X147710978Y-121747864D01*
X148357816Y-121747864D01*
X148470768Y-121726611D01*
X148574508Y-121659856D01*
X148644103Y-121558000D01*
X148668587Y-121437093D01*
X148668587Y-120637093D01*
X148647334Y-120524141D01*
X148580579Y-120420401D01*
X148478723Y-120350806D01*
X148364215Y-120327618D01*
X148364214Y-116025723D01*
X148374216Y-115975439D01*
X148364214Y-115925154D01*
X148364213Y-115276079D01*
X148402700Y-115237593D01*
X148490798Y-115105748D01*
X148521733Y-114950225D01*
X148521733Y-114950223D01*
X148521732Y-113633918D01*
X148657957Y-113497931D01*
X148750226Y-113275722D01*
X148750436Y-113035118D01*
X148658555Y-112812748D01*
X148488570Y-112642466D01*
X148266361Y-112550197D01*
X148025757Y-112549987D01*
X147803387Y-112641868D01*
X147633105Y-112811853D01*
X147540836Y-113034062D01*
X147540657Y-113239315D01*
X147390759Y-113239184D01*
X147168389Y-113331065D01*
X146998107Y-113501050D01*
X146905838Y-113723259D01*
X146905628Y-113963863D01*
X146921081Y-114001263D01*
X146826828Y-114001181D01*
X146604458Y-114093062D01*
X146434176Y-114263047D01*
X146341907Y-114485256D01*
X146341697Y-114725860D01*
X143881845Y-114725860D01*
X143869080Y-114714571D01*
X138814483Y-111768170D01*
X138766842Y-111751777D01*
X138721664Y-111729474D01*
X138697372Y-111727872D01*
X138674356Y-111719952D01*
X138624070Y-111723038D01*
X138573795Y-111719722D01*
X138550742Y-111727537D01*
X138526444Y-111729028D01*
X138481166Y-111751123D01*
X138433449Y-111767299D01*
X128090884Y-117732974D01*
X128090823Y-117733027D01*
X128090750Y-117733052D01*
X128035886Y-117781167D01*
X127979429Y-117830638D01*
X127979394Y-117830710D01*
X127979335Y-117830761D01*
X127946448Y-117897448D01*
X127913832Y-117963519D01*
X127913827Y-117963596D01*
X127913791Y-117963669D01*
X124293275Y-131475626D01*
X118087578Y-129812821D01*
X119848688Y-123240268D01*
X119858380Y-123092395D01*
X119810746Y-122952069D01*
X119713037Y-122840654D01*
X119580129Y-122775110D01*
X119432255Y-122765418D01*
X119351912Y-122792691D01*
X119291929Y-122813052D01*
X113021734Y-126433153D01*
X109510744Y-120351936D01*
X115029016Y-120351936D01*
X115068265Y-120468887D01*
X115468265Y-121161707D01*
X115543147Y-121248899D01*
X115652828Y-121305363D01*
X115775836Y-121314706D01*
X115892787Y-121275457D01*
X116585607Y-120875457D01*
X116672799Y-120800575D01*
X116729263Y-120690894D01*
X116738606Y-120567886D01*
X116699357Y-120450935D01*
X116627139Y-120325849D01*
X123392312Y-116419981D01*
X123462950Y-116502231D01*
X123572631Y-116558695D01*
X123695639Y-116568038D01*
X123812590Y-116528789D01*
X124505410Y-116128789D01*
X124592602Y-116053907D01*
X124649066Y-115944226D01*
X124658409Y-115821218D01*
X124619160Y-115704267D01*
X124574211Y-115626413D01*
X130715626Y-112026276D01*
X130783151Y-112104901D01*
X130892832Y-112161365D01*
X131015840Y-112170708D01*
X131132791Y-112131459D01*
X131825611Y-111731459D01*
X131912803Y-111656577D01*
X131969267Y-111546896D01*
X131978610Y-111423888D01*
X131941439Y-111313129D01*
X135510554Y-109252499D01*
X147771488Y-109252499D01*
X147863369Y-109474869D01*
X148033354Y-109645151D01*
X148255563Y-109737420D01*
X148496167Y-109737630D01*
X148718537Y-109645749D01*
X148825348Y-109539125D01*
X149190451Y-109539124D01*
X149296292Y-109645150D01*
X149518501Y-109737419D01*
X149759105Y-109737629D01*
X149981475Y-109645748D01*
X150151757Y-109475763D01*
X150244026Y-109253554D01*
X150244236Y-109012950D01*
X150152355Y-108790580D01*
X149982370Y-108620298D01*
X149760161Y-108528029D01*
X149519557Y-108527819D01*
X149297187Y-108619700D01*
X149190376Y-108726324D01*
X148825273Y-108726325D01*
X148719432Y-108620299D01*
X148497223Y-108528030D01*
X148256619Y-108527820D01*
X148034249Y-108619701D01*
X147863967Y-108789686D01*
X147771698Y-109011895D01*
X147771488Y-109252499D01*
X135510554Y-109252499D01*
X138541723Y-107502453D01*
X138776444Y-107502658D01*
X138971686Y-107421986D01*
X158879657Y-107421986D01*
X158971538Y-107644356D01*
X159141523Y-107814638D01*
X159331035Y-107893330D01*
X159285779Y-108002320D01*
X159285569Y-108242924D01*
X159377450Y-108465294D01*
X159547435Y-108635576D01*
X159736637Y-108714139D01*
X159690387Y-108825522D01*
X159690177Y-109066126D01*
X159782058Y-109288496D01*
X159952043Y-109458778D01*
X160174252Y-109551047D01*
X160414856Y-109551257D01*
X160637226Y-109459376D01*
X160685017Y-109411669D01*
X163099600Y-110805731D01*
X163099601Y-110805732D01*
X164479819Y-111602599D01*
X164550940Y-111868024D01*
X164585525Y-111938156D01*
X164621072Y-112010240D01*
X164740291Y-112114792D01*
X166424871Y-113087388D01*
X166450256Y-113096005D01*
X166472549Y-113110901D01*
X166524687Y-113121272D01*
X166575026Y-113138360D01*
X166601780Y-113136606D01*
X166628072Y-113141836D01*
X166680210Y-113131465D01*
X166733255Y-113127988D01*
X166733270Y-113127981D01*
X167611861Y-112892561D01*
X172512232Y-115721796D01*
X172577887Y-115966810D01*
X172614757Y-116041571D01*
X172648018Y-116109019D01*
X172648021Y-116109021D01*
X172648023Y-116109026D01*
X172713606Y-116166538D01*
X172767237Y-116213571D01*
X173867793Y-116848981D01*
X173897022Y-116858903D01*
X174017948Y-116899953D01*
X174176178Y-116889581D01*
X174790057Y-116725093D01*
X180814112Y-120203082D01*
X180778198Y-120305386D01*
X180784140Y-120428605D01*
X180837552Y-120539804D01*
X180930018Y-120621462D01*
X181622838Y-121021462D01*
X181731284Y-121059532D01*
X181854503Y-121053590D01*
X181965702Y-121000178D01*
X182047360Y-120907712D01*
X182447360Y-120214892D01*
X182485430Y-120106446D01*
X182479488Y-119983227D01*
X182426076Y-119872028D01*
X182333610Y-119790370D01*
X181640790Y-119390370D01*
X181532344Y-119352300D01*
X181409125Y-119358242D01*
X181297926Y-119411654D01*
X181220593Y-119499223D01*
X175050674Y-115937019D01*
X174900520Y-115886048D01*
X174742290Y-115896420D01*
X174449791Y-115974795D01*
X174681357Y-115573711D01*
X174719427Y-115465265D01*
X174713485Y-115342046D01*
X174660073Y-115230847D01*
X174567607Y-115149189D01*
X173874787Y-114749189D01*
X173766341Y-114711119D01*
X173643122Y-114717061D01*
X173531923Y-114770473D01*
X173454586Y-114858046D01*
X167929896Y-111668364D01*
X167779742Y-111617393D01*
X167690257Y-111623259D01*
X167621514Y-111627764D01*
X166924700Y-111814471D01*
X167207360Y-111324889D01*
X167245430Y-111216443D01*
X167239488Y-111093224D01*
X167186076Y-110982025D01*
X167093610Y-110900367D01*
X166400790Y-110500367D01*
X166292344Y-110462297D01*
X166169125Y-110468239D01*
X166057926Y-110521651D01*
X165990683Y-110597794D01*
X163912417Y-109397904D01*
X161405703Y-107950650D01*
X161369177Y-107876583D01*
X161347380Y-107832381D01*
X161228160Y-107727829D01*
X160028673Y-107035305D01*
X159997586Y-106960068D01*
X159827601Y-106789786D01*
X159605392Y-106697517D01*
X159364788Y-106697307D01*
X159142418Y-106789188D01*
X158972136Y-106959173D01*
X158879867Y-107181382D01*
X158879657Y-107421986D01*
X138971686Y-107421986D01*
X138998814Y-107410777D01*
X139169096Y-107240792D01*
X139261365Y-107018583D01*
X139261575Y-106777979D01*
X139169694Y-106555609D01*
X138999709Y-106385327D01*
X138777500Y-106293058D01*
X138536896Y-106292848D01*
X138314526Y-106384729D01*
X138144244Y-106554714D01*
X138051975Y-106776923D01*
X138051914Y-106846703D01*
X131535118Y-110609177D01*
X131464479Y-110526925D01*
X131354798Y-110470461D01*
X131231790Y-110461118D01*
X131114839Y-110500367D01*
X130422019Y-110900367D01*
X130334827Y-110975249D01*
X130278363Y-111084930D01*
X130269020Y-111207938D01*
X130307714Y-111323236D01*
X124151149Y-114932256D01*
X124144278Y-114924255D01*
X124034597Y-114867791D01*
X123911589Y-114858448D01*
X123794638Y-114897697D01*
X123101818Y-115297697D01*
X123014626Y-115372579D01*
X122958162Y-115482260D01*
X122948819Y-115605268D01*
X122985991Y-115716029D01*
X116177653Y-119646819D01*
X116114794Y-119614459D01*
X115991786Y-119605116D01*
X115874835Y-119644365D01*
X115182015Y-120044365D01*
X115094823Y-120119247D01*
X115038359Y-120228928D01*
X115029016Y-120351936D01*
X109510744Y-120351936D01*
X108710744Y-118966296D01*
X114229016Y-118966296D01*
X114268265Y-119083247D01*
X114668265Y-119776067D01*
X114743147Y-119863259D01*
X114852828Y-119919723D01*
X114975836Y-119929066D01*
X115092787Y-119889817D01*
X115785607Y-119489817D01*
X115872799Y-119414935D01*
X115929263Y-119305254D01*
X115938606Y-119182246D01*
X115901435Y-119071487D01*
X121808685Y-115660937D01*
X121927904Y-115556385D01*
X121927905Y-115556384D01*
X121984488Y-115441642D01*
X121998037Y-115414168D01*
X121998037Y-115414167D01*
X122255486Y-114453350D01*
X122588068Y-115029399D01*
X122662950Y-115116591D01*
X122772631Y-115173055D01*
X122895639Y-115182398D01*
X123012590Y-115143149D01*
X123705410Y-114743149D01*
X123792602Y-114668267D01*
X123849066Y-114558586D01*
X123858409Y-114435578D01*
X123819160Y-114318627D01*
X123776560Y-114244841D01*
X129058727Y-111195180D01*
X129177946Y-111090628D01*
X129248079Y-110948411D01*
X129248079Y-110948410D01*
X129483163Y-110071057D01*
X129559067Y-110027234D01*
X129908269Y-110632069D01*
X129983151Y-110719261D01*
X130092832Y-110775725D01*
X130215840Y-110785068D01*
X130332791Y-110745819D01*
X131025611Y-110345819D01*
X131112803Y-110270937D01*
X131169267Y-110161256D01*
X131178610Y-110038248D01*
X131141438Y-109927487D01*
X131372196Y-109794259D01*
X131372201Y-109794255D01*
X131372206Y-109794253D01*
X131431670Y-109742103D01*
X131491416Y-109689708D01*
X131491418Y-109689703D01*
X131491423Y-109689699D01*
X131520847Y-109630029D01*
X135764436Y-107179992D01*
X135849338Y-107202741D01*
X135910878Y-107206774D01*
X136007565Y-107213112D01*
X136007568Y-107213111D01*
X136007569Y-107213111D01*
X136047682Y-107199494D01*
X136157719Y-107162141D01*
X137152554Y-106587771D01*
X137253841Y-106629829D01*
X137494445Y-106630039D01*
X137716815Y-106538158D01*
X137887097Y-106368173D01*
X137979366Y-106145964D01*
X137979576Y-105905360D01*
X137969933Y-105882020D01*
X158941093Y-105882020D01*
X159032974Y-106104390D01*
X159202959Y-106274672D01*
X159425168Y-106366941D01*
X159665772Y-106367151D01*
X159888142Y-106275270D01*
X159946852Y-106216662D01*
X166374111Y-109927442D01*
X166338198Y-110029743D01*
X166344140Y-110152962D01*
X166397552Y-110264161D01*
X166490018Y-110345819D01*
X167182838Y-110745819D01*
X167291284Y-110783889D01*
X167414503Y-110777947D01*
X167525702Y-110724535D01*
X167606234Y-110633345D01*
X173846509Y-114180818D01*
X173812195Y-114278565D01*
X173818137Y-114401784D01*
X173871549Y-114512983D01*
X173964015Y-114594641D01*
X174656835Y-114994641D01*
X174765281Y-115032711D01*
X174888500Y-115026769D01*
X174999699Y-114973357D01*
X175069800Y-114893977D01*
X181618402Y-118807603D01*
X181616268Y-118811300D01*
X181578198Y-118919746D01*
X181584140Y-119042965D01*
X181637552Y-119154164D01*
X181730018Y-119235822D01*
X182422838Y-119635822D01*
X182531284Y-119673892D01*
X182654503Y-119667950D01*
X182765702Y-119614538D01*
X182847360Y-119522072D01*
X183247360Y-118829252D01*
X183285430Y-118720806D01*
X183279488Y-118597587D01*
X183226076Y-118486388D01*
X183133610Y-118404730D01*
X182440790Y-118004730D01*
X182332344Y-117966660D01*
X182209125Y-117972602D01*
X182097926Y-118026014D01*
X182027823Y-118105395D01*
X175479222Y-114191769D01*
X175481357Y-114188071D01*
X175519427Y-114079625D01*
X175513485Y-113956406D01*
X175460073Y-113845207D01*
X175367607Y-113763549D01*
X174674787Y-113363549D01*
X174566341Y-113325479D01*
X174443122Y-113331421D01*
X174331923Y-113384833D01*
X174251388Y-113476027D01*
X168011114Y-109928554D01*
X168045430Y-109830803D01*
X168039488Y-109707584D01*
X167986076Y-109596385D01*
X167893610Y-109514727D01*
X167200790Y-109114727D01*
X167092344Y-109076657D01*
X166969125Y-109082599D01*
X166857926Y-109136011D01*
X166780591Y-109223582D01*
X160040559Y-105332223D01*
X159935795Y-105296660D01*
X159889037Y-105249820D01*
X159666828Y-105157551D01*
X159426224Y-105157341D01*
X159203854Y-105249222D01*
X159033572Y-105419207D01*
X158941303Y-105641416D01*
X158941093Y-105882020D01*
X137969933Y-105882020D01*
X137887695Y-105682990D01*
X137717710Y-105512708D01*
X137495501Y-105420439D01*
X137254897Y-105420229D01*
X137032527Y-105512110D01*
X136945408Y-105599077D01*
X136910283Y-105514066D01*
X136740298Y-105343784D01*
X136518089Y-105251515D01*
X136277485Y-105251305D01*
X136055115Y-105343186D01*
X135972770Y-105425387D01*
X135956576Y-105386195D01*
X135786591Y-105215913D01*
X135564382Y-105123644D01*
X135323778Y-105123434D01*
X135101408Y-105215315D01*
X134931126Y-105385300D01*
X134838857Y-105607509D01*
X134838656Y-105837388D01*
X134010682Y-106315419D01*
X130870706Y-108128285D01*
X130718454Y-108087488D01*
X130560223Y-108077116D01*
X130480503Y-108104177D01*
X130410069Y-108128086D01*
X130410068Y-108128087D01*
X130410067Y-108128087D01*
X128581989Y-109183529D01*
X128462770Y-109288081D01*
X128395017Y-109425473D01*
X128392637Y-109430299D01*
X128157552Y-110307652D01*
X123619061Y-112927948D01*
X123125980Y-112795830D01*
X123062423Y-112791665D01*
X122967753Y-112785459D01*
X122817599Y-112836430D01*
X121815466Y-113415009D01*
X121815465Y-113415010D01*
X121815464Y-113415010D01*
X121717354Y-113501050D01*
X121696246Y-113519561D01*
X121626113Y-113661777D01*
X121626113Y-113661779D01*
X121256502Y-115041199D01*
X115495115Y-118367535D01*
X115424475Y-118285283D01*
X115314794Y-118228819D01*
X115191786Y-118219476D01*
X115074835Y-118258725D01*
X114382015Y-118658725D01*
X114294823Y-118733607D01*
X114238359Y-118843288D01*
X114229016Y-118966296D01*
X108710744Y-118966296D01*
X108321535Y-118292167D01*
X114591728Y-114672069D01*
X114615526Y-114651199D01*
X114703143Y-114574361D01*
X114768686Y-114441453D01*
X114778378Y-114293579D01*
X114730744Y-114153253D01*
X114633035Y-114041838D01*
X114500128Y-113976294D01*
X107927583Y-112215181D01*
X109590392Y-106009490D01*
X123102349Y-109630010D01*
X123102373Y-109630012D01*
X123102390Y-109630020D01*
X123174170Y-109634717D01*
X123250222Y-109639701D01*
X123250241Y-109639695D01*
X123250264Y-109639696D01*
X123326507Y-109613806D01*
X123390549Y-109592067D01*
X123390563Y-109592054D01*
X123390585Y-109592047D01*
X133834748Y-103560590D01*
X133870826Y-103528943D01*
X133910962Y-103502640D01*
X133926031Y-103480518D01*
X133946152Y-103462868D01*
X133967372Y-103419827D01*
X133994389Y-103380164D01*
X133999845Y-103353960D01*
X134011681Y-103329953D01*
X134014814Y-103282068D01*
X134024597Y-103235085D01*
X134044575Y-100997498D01*
X135758557Y-100997498D01*
X135850438Y-101219868D01*
X136020423Y-101390150D01*
X136242632Y-101482419D01*
X136483236Y-101482629D01*
X136705606Y-101390748D01*
X136812416Y-101284124D01*
X137530591Y-101284124D01*
X137636432Y-101390150D01*
X137858641Y-101482419D01*
X138099245Y-101482629D01*
X138321615Y-101390748D01*
X138491897Y-101220763D01*
X138584166Y-100998554D01*
X138584376Y-100757950D01*
X138492495Y-100535580D01*
X138322510Y-100365298D01*
X138100301Y-100273029D01*
X137859697Y-100272819D01*
X137637327Y-100364700D01*
X137530517Y-100471324D01*
X136812342Y-100471324D01*
X136706501Y-100365298D01*
X136484292Y-100273029D01*
X136243688Y-100272819D01*
X136021318Y-100364700D01*
X135851036Y-100534685D01*
X135758767Y-100756894D01*
X135758557Y-100997498D01*
X134044575Y-100997498D01*
X134059316Y-99346498D01*
X136087489Y-99346498D01*
X136179370Y-99568868D01*
X136349355Y-99739150D01*
X136571564Y-99831419D01*
X136812168Y-99831629D01*
X137034538Y-99739748D01*
X137141348Y-99633124D01*
X137530591Y-99633124D01*
X137636432Y-99739150D01*
X137858641Y-99831419D01*
X138099245Y-99831629D01*
X138321615Y-99739748D01*
X138491897Y-99569763D01*
X138584166Y-99347554D01*
X138584376Y-99106950D01*
X138492495Y-98884580D01*
X138322510Y-98714298D01*
X138100301Y-98622029D01*
X137859697Y-98621819D01*
X137637327Y-98713700D01*
X137530517Y-98820324D01*
X137141274Y-98820324D01*
X137035433Y-98714298D01*
X136813224Y-98622029D01*
X136572620Y-98621819D01*
X136350250Y-98713700D01*
X136179968Y-98883685D01*
X136087699Y-99105894D01*
X136087489Y-99346498D01*
X134059316Y-99346498D01*
X134075398Y-97545481D01*
X134065829Y-97495025D01*
X134062471Y-97443790D01*
X134052139Y-97422840D01*
X134047786Y-97399885D01*
X134019637Y-97356932D01*
X133996928Y-97310883D01*
X133979366Y-97295481D01*
X133966559Y-97275939D01*
X133924119Y-97247030D01*
X133885513Y-97213173D01*
X129169363Y-94490306D01*
X130600361Y-94490306D01*
X130715030Y-94767827D01*
X130927173Y-94980341D01*
X131204493Y-95095494D01*
X131504771Y-95095756D01*
X131782292Y-94981087D01*
X131994806Y-94768944D01*
X132109959Y-94491624D01*
X132110221Y-94191346D01*
X131995552Y-93913825D01*
X131783409Y-93701311D01*
X131506089Y-93586158D01*
X131205811Y-93585896D01*
X130928290Y-93700565D01*
X130715776Y-93912708D01*
X130600623Y-94190028D01*
X130600361Y-94490306D01*
X129169363Y-94490306D01*
X123389956Y-91153569D01*
X123249630Y-91105936D01*
X123101756Y-91115627D01*
X109589798Y-94736147D01*
X107926989Y-88530456D01*
X114499538Y-86769347D01*
X114632445Y-86703803D01*
X114730154Y-86592388D01*
X114777788Y-86452062D01*
X114768097Y-86304188D01*
X114702553Y-86171281D01*
X114662120Y-86135822D01*
X114591138Y-86073571D01*
X108320947Y-82453476D01*
X109410827Y-80565745D01*
X115792200Y-80565745D01*
X115798142Y-80688964D01*
X115851554Y-80800163D01*
X115944020Y-80881821D01*
X116636840Y-81281821D01*
X116745286Y-81319891D01*
X116868505Y-81313949D01*
X116979704Y-81260537D01*
X117057040Y-81172965D01*
X122493187Y-84311527D01*
X122643341Y-84362498D01*
X122801571Y-84352126D01*
X123524567Y-84158400D01*
X123545463Y-84170464D01*
X123196263Y-84775295D01*
X123158193Y-84883741D01*
X123164135Y-85006960D01*
X123217547Y-85118159D01*
X123310013Y-85199817D01*
X124002833Y-85599817D01*
X124111279Y-85637887D01*
X124234498Y-85631945D01*
X124345697Y-85578533D01*
X124397468Y-85519910D01*
X129843293Y-88664062D01*
X129843295Y-88664063D01*
X130063264Y-88791061D01*
X130126061Y-88812378D01*
X130213416Y-88842032D01*
X130213418Y-88842032D01*
X130371648Y-88831660D01*
X130371649Y-88831659D01*
X131001475Y-88662899D01*
X131019468Y-88673287D01*
X130670269Y-89278117D01*
X130632199Y-89386563D01*
X130638141Y-89509782D01*
X130691553Y-89620981D01*
X130784019Y-89702639D01*
X131476839Y-90102639D01*
X131585285Y-90140709D01*
X131708504Y-90134767D01*
X131819703Y-90081355D01*
X131897038Y-89993784D01*
X135828136Y-92263404D01*
X135828137Y-92263404D01*
X136342269Y-92560241D01*
X136353196Y-92601023D01*
X136423329Y-92743241D01*
X136508872Y-92818259D01*
X136542548Y-92847792D01*
X137540235Y-93423808D01*
X137631978Y-93645844D01*
X137801963Y-93816126D01*
X138024172Y-93908395D01*
X138264776Y-93908605D01*
X138487146Y-93816724D01*
X138657428Y-93646739D01*
X138749697Y-93424530D01*
X138749907Y-93183926D01*
X138658026Y-92961556D01*
X138488041Y-92791274D01*
X138312458Y-92718366D01*
X138315019Y-92715809D01*
X138407288Y-92493600D01*
X138407498Y-92252996D01*
X138315617Y-92030626D01*
X138145632Y-91860344D01*
X137958167Y-91782502D01*
X138009924Y-91657856D01*
X138010134Y-91417252D01*
X137918253Y-91194882D01*
X137748268Y-91024600D01*
X137526059Y-90932331D01*
X137285455Y-90932121D01*
X137063085Y-91024002D01*
X137015297Y-91071707D01*
X136029031Y-90502287D01*
X136029027Y-90502286D01*
X133663136Y-89136334D01*
X133597486Y-88891326D01*
X133566285Y-88828057D01*
X133527354Y-88749111D01*
X133455970Y-88686509D01*
X133408133Y-88644558D01*
X133408131Y-88644557D01*
X133033266Y-88428128D01*
X134100361Y-88428128D01*
X134215030Y-88705649D01*
X134427173Y-88918163D01*
X134704493Y-89033316D01*
X135004771Y-89033578D01*
X135282292Y-88918909D01*
X135494806Y-88706766D01*
X135609959Y-88429446D01*
X135610221Y-88129168D01*
X135495552Y-87851647D01*
X135283409Y-87639133D01*
X135006089Y-87523980D01*
X134705811Y-87523718D01*
X134428290Y-87638387D01*
X134215776Y-87850530D01*
X134100623Y-88127850D01*
X134100361Y-88428128D01*
X133033266Y-88428128D01*
X131319513Y-87438690D01*
X131169359Y-87387719D01*
X131011129Y-87398091D01*
X130381297Y-87566854D01*
X125407373Y-84695156D01*
X125327867Y-84398440D01*
X125279532Y-84300426D01*
X125257734Y-84256224D01*
X125138515Y-84151672D01*
X123785184Y-83370326D01*
X123635030Y-83319355D01*
X123476799Y-83329727D01*
X122753804Y-83523453D01*
X117463520Y-80469104D01*
X117499432Y-80366805D01*
X117493490Y-80243586D01*
X117440078Y-80132387D01*
X117347612Y-80050729D01*
X116654792Y-79650729D01*
X116546346Y-79612659D01*
X116423127Y-79618601D01*
X116311928Y-79672013D01*
X116230270Y-79764479D01*
X115830270Y-80457299D01*
X115792200Y-80565745D01*
X109410827Y-80565745D01*
X113021143Y-74312487D01*
X119291340Y-77932585D01*
X119431666Y-77980219D01*
X119579540Y-77970527D01*
X119712447Y-77904984D01*
X119810156Y-77793569D01*
X119857790Y-77653243D01*
X119848099Y-77505369D01*
X118086989Y-70932821D01*
X124292677Y-69270010D01*
X127913197Y-82781967D01*
X127913336Y-82782249D01*
X127913357Y-82782561D01*
X127946130Y-82848748D01*
X127978741Y-82914875D01*
X127978975Y-82915080D01*
X127979115Y-82915363D01*
X128034828Y-82964063D01*
X128090156Y-83012584D01*
X128090453Y-83012685D01*
X128090689Y-83012891D01*
X138687842Y-89108316D01*
X138733835Y-89123846D01*
X138777278Y-89145510D01*
X138803419Y-89147340D01*
X138828246Y-89155723D01*
X138876683Y-89152470D01*
X138925107Y-89155860D01*
X138949956Y-89147548D01*
X138976103Y-89145792D01*
X139019606Y-89124251D01*
X139065644Y-89108852D01*
X143866245Y-86365649D01*
X143904372Y-86332511D01*
X143946370Y-86304449D01*
X143959821Y-86284318D01*
X143978094Y-86268436D01*
X144000636Y-86223233D01*
X144028700Y-86181233D01*
X144033423Y-86157488D01*
X144044228Y-86135822D01*
X144047756Y-86085432D01*
X144057611Y-86035890D01*
X144057614Y-80593385D01*
X145482520Y-82018292D01*
X145525273Y-82046859D01*
X145455499Y-82214894D01*
X145455289Y-82455498D01*
X145547170Y-82677868D01*
X145653794Y-82784678D01*
X145653794Y-89065576D01*
X145646186Y-89103824D01*
X145629474Y-89187835D01*
X145629475Y-89187839D01*
X145629474Y-89187843D01*
X145629474Y-89277929D01*
X140482862Y-94424541D01*
X138035356Y-94424541D01*
X138006783Y-94430224D01*
X131503518Y-90675564D01*
X131539431Y-90573263D01*
X131533489Y-90450044D01*
X131480077Y-90338845D01*
X131387611Y-90257187D01*
X130694791Y-89857187D01*
X130586345Y-89819117D01*
X130463126Y-89825059D01*
X130351927Y-89878471D01*
X130283533Y-89955918D01*
X124023969Y-86184751D01*
X124027355Y-86178887D01*
X124065425Y-86070441D01*
X124059483Y-85947222D01*
X124006071Y-85836023D01*
X123913605Y-85754365D01*
X123220785Y-85354365D01*
X123112339Y-85316295D01*
X122989120Y-85322237D01*
X122877921Y-85375649D01*
X122803758Y-85459628D01*
X116661938Y-81859251D01*
X116699432Y-81752445D01*
X116693490Y-81629226D01*
X116640078Y-81518027D01*
X116547612Y-81436369D01*
X115854792Y-81036369D01*
X115746346Y-80998299D01*
X115623127Y-81004241D01*
X115511928Y-81057653D01*
X115430270Y-81150119D01*
X115030270Y-81842939D01*
X114992200Y-81951385D01*
X114998142Y-82074604D01*
X115051554Y-82185803D01*
X115144020Y-82267461D01*
X115836840Y-82667461D01*
X115945286Y-82705531D01*
X116068505Y-82699589D01*
X116179704Y-82646177D01*
X116253868Y-82562197D01*
X122395688Y-86162574D01*
X122358193Y-86269381D01*
X122364135Y-86392600D01*
X122417547Y-86503799D01*
X122510013Y-86585457D01*
X123202833Y-86985457D01*
X123311279Y-87023527D01*
X123434498Y-87017585D01*
X123545697Y-86964173D01*
X123614091Y-86886726D01*
X129873655Y-90657892D01*
X129870269Y-90663757D01*
X129832199Y-90772203D01*
X129838141Y-90895422D01*
X129891553Y-91006621D01*
X129984019Y-91088279D01*
X130676839Y-91488279D01*
X130785285Y-91526349D01*
X130908504Y-91520407D01*
X131019703Y-91466995D01*
X131097039Y-91379424D01*
X135989792Y-94204256D01*
X135924223Y-94177029D01*
X135683619Y-94176819D01*
X135461249Y-94268700D01*
X135290967Y-94438685D01*
X135198698Y-94660894D01*
X135198488Y-94901498D01*
X135290369Y-95123868D01*
X135460354Y-95294150D01*
X135682563Y-95386419D01*
X135923167Y-95386629D01*
X136145537Y-95294748D01*
X136252347Y-95188124D01*
X136795135Y-95188124D01*
X137374697Y-95767686D01*
X137374566Y-95917498D01*
X137466447Y-96139868D01*
X137636432Y-96310150D01*
X137858641Y-96402419D01*
X138099245Y-96402629D01*
X138321615Y-96310748D01*
X138491897Y-96140763D01*
X138584166Y-95918554D01*
X138584376Y-95677950D01*
X138492495Y-95455580D01*
X138322510Y-95285298D01*
X138207016Y-95237341D01*
X140651198Y-95237341D01*
X140806721Y-95206406D01*
X140938566Y-95118309D01*
X146060204Y-89996671D01*
X146060204Y-96263072D01*
X145278565Y-97044711D01*
X145190468Y-97176556D01*
X145187810Y-97189918D01*
X145170700Y-97275941D01*
X145159533Y-97332080D01*
X145159534Y-98090128D01*
X145190469Y-98245650D01*
X145278566Y-98377495D01*
X146334162Y-99433091D01*
X146334165Y-99433093D01*
X146466006Y-99521188D01*
X146621529Y-99552123D01*
X146933394Y-99552124D01*
X146933396Y-99552124D01*
X147088918Y-99521189D01*
X147194725Y-99450491D01*
X147353168Y-99450629D01*
X147575538Y-99358748D01*
X147745820Y-99188763D01*
X147838089Y-98966554D01*
X147838299Y-98725950D01*
X147746418Y-98503580D01*
X147576433Y-98333298D01*
X147354224Y-98241029D01*
X147248872Y-98240937D01*
X149191310Y-96298498D01*
X153371478Y-96298498D01*
X153463359Y-96520868D01*
X153633344Y-96691150D01*
X153855553Y-96783419D01*
X154096157Y-96783629D01*
X154318527Y-96691748D01*
X154439768Y-96570718D01*
X154522868Y-96554189D01*
X154654713Y-96466092D01*
X156517182Y-94603623D01*
X159545895Y-94603623D01*
X159637776Y-94825993D01*
X159807761Y-94996275D01*
X160029970Y-95088544D01*
X160270574Y-95088754D01*
X160492944Y-94996873D01*
X160580060Y-94909909D01*
X160615185Y-94994919D01*
X160785170Y-95165201D01*
X161007379Y-95257470D01*
X161247983Y-95257680D01*
X161470353Y-95165799D01*
X161551890Y-95084404D01*
X161709633Y-95242422D01*
X161931842Y-95334691D01*
X162172446Y-95334901D01*
X162394816Y-95243020D01*
X162565098Y-95073035D01*
X162657367Y-94850826D01*
X162657568Y-94620949D01*
X162902123Y-94479756D01*
X162902125Y-94479755D01*
X166350730Y-92488706D01*
X166420863Y-92448215D01*
X166665861Y-92513859D01*
X166665863Y-92513860D01*
X166665865Y-92513860D01*
X166665868Y-92513861D01*
X166719053Y-92517347D01*
X166824093Y-92524232D01*
X166824096Y-92524231D01*
X166824098Y-92524231D01*
X166928799Y-92488689D01*
X166974247Y-92473261D01*
X166974248Y-92473260D01*
X166974252Y-92473259D01*
X166974255Y-92473256D01*
X168399987Y-91650113D01*
X168399990Y-91650112D01*
X168519208Y-91545560D01*
X168566346Y-91449972D01*
X168589340Y-91403345D01*
X168589340Y-91403344D01*
X168589341Y-91403342D01*
X168739119Y-90844353D01*
X173863650Y-87885705D01*
X174277221Y-87996520D01*
X174414707Y-88005531D01*
X174435449Y-88006891D01*
X174435451Y-88006891D01*
X174573124Y-87960156D01*
X174585603Y-87955920D01*
X175685454Y-87320924D01*
X175685455Y-87320923D01*
X175685456Y-87320923D01*
X175804675Y-87216371D01*
X175874808Y-87074154D01*
X176110149Y-86195842D01*
X181518333Y-83073431D01*
X181583151Y-83148904D01*
X181692832Y-83205368D01*
X181815840Y-83214711D01*
X181932791Y-83175462D01*
X182625611Y-82775462D01*
X182712803Y-82700580D01*
X182769267Y-82590899D01*
X182778610Y-82467891D01*
X182739361Y-82350940D01*
X182339361Y-81658120D01*
X182264479Y-81570928D01*
X182154798Y-81514464D01*
X182031790Y-81505121D01*
X181914839Y-81544370D01*
X181222019Y-81944370D01*
X181134827Y-82019252D01*
X181078363Y-82128933D01*
X181069020Y-82251941D01*
X181108269Y-82368892D01*
X181109459Y-82370954D01*
X175557964Y-85576105D01*
X175554490Y-85579152D01*
X175438744Y-85680657D01*
X175399119Y-85761011D01*
X175370155Y-85819747D01*
X175368612Y-85822875D01*
X175193703Y-86475648D01*
X174865359Y-85906939D01*
X174790477Y-85819747D01*
X174680796Y-85763283D01*
X174557788Y-85753940D01*
X174440837Y-85793189D01*
X173748017Y-86193189D01*
X173660825Y-86268071D01*
X173604361Y-86377752D01*
X173595018Y-86500760D01*
X173632189Y-86611518D01*
X167837946Y-89956826D01*
X167718727Y-90061378D01*
X167648594Y-90203595D01*
X167584926Y-90441208D01*
X167353355Y-90040116D01*
X167278473Y-89952924D01*
X167168792Y-89896460D01*
X167045784Y-89887117D01*
X166928833Y-89926366D01*
X166236013Y-90326366D01*
X166148821Y-90401248D01*
X166092357Y-90510929D01*
X166083014Y-90633937D01*
X166120186Y-90744699D01*
X164667771Y-91583249D01*
X164667768Y-91583252D01*
X161526921Y-93396622D01*
X161521909Y-93395279D01*
X161447715Y-93390418D01*
X161363689Y-93384910D01*
X161363682Y-93384912D01*
X161315424Y-93401294D01*
X161213535Y-93435881D01*
X160372917Y-93921212D01*
X160271630Y-93879154D01*
X160031026Y-93878944D01*
X159808656Y-93970825D01*
X159638374Y-94140810D01*
X159546105Y-94363019D01*
X159545895Y-94603623D01*
X156517182Y-94603623D01*
X156578965Y-94541840D01*
X156667062Y-94409995D01*
X156697997Y-94254472D01*
X156697997Y-93763844D01*
X158200853Y-93763844D01*
X158292734Y-93986214D01*
X158462719Y-94156496D01*
X158684928Y-94248765D01*
X158925532Y-94248975D01*
X159147902Y-94157094D01*
X159318184Y-93987109D01*
X159410453Y-93764900D01*
X159410501Y-93709557D01*
X165726506Y-90063009D01*
X165797145Y-90145260D01*
X165906826Y-90201724D01*
X166029834Y-90211067D01*
X166146785Y-90171818D01*
X166839605Y-89771818D01*
X166926797Y-89696936D01*
X166983261Y-89587255D01*
X166992604Y-89464247D01*
X166960185Y-89367647D01*
X173230188Y-85917825D01*
X173234267Y-85924891D01*
X173309149Y-86012083D01*
X173418830Y-86068547D01*
X173541838Y-86077890D01*
X173658789Y-86038641D01*
X174351609Y-85638641D01*
X174438801Y-85563759D01*
X174495265Y-85454078D01*
X174504608Y-85331070D01*
X174468974Y-85224891D01*
X180709369Y-81677353D01*
X180783151Y-81763264D01*
X180892832Y-81819728D01*
X181015840Y-81829071D01*
X181132791Y-81789822D01*
X181825611Y-81389822D01*
X181912803Y-81314940D01*
X181969267Y-81205259D01*
X181978610Y-81082251D01*
X181939361Y-80965300D01*
X181539361Y-80272480D01*
X181464479Y-80185288D01*
X181354798Y-80128824D01*
X181231790Y-80119481D01*
X181114839Y-80158730D01*
X180422019Y-80558730D01*
X180334827Y-80633612D01*
X180278363Y-80743293D01*
X180269020Y-80866301D01*
X180304651Y-80972470D01*
X174064252Y-84520011D01*
X173990477Y-84434107D01*
X173880796Y-84377643D01*
X173757788Y-84368300D01*
X173640837Y-84407549D01*
X172948017Y-84807549D01*
X172860825Y-84882431D01*
X172804361Y-84992112D01*
X172795018Y-85115120D01*
X172827436Y-85211716D01*
X166557433Y-88661539D01*
X166553355Y-88654476D01*
X166478473Y-88567284D01*
X166368792Y-88510820D01*
X166245784Y-88501477D01*
X166128833Y-88540726D01*
X165436013Y-88940726D01*
X165348821Y-89015608D01*
X165292357Y-89125289D01*
X165283014Y-89248297D01*
X165320185Y-89359057D01*
X158937698Y-93043988D01*
X158926588Y-93039375D01*
X158685984Y-93039165D01*
X158463614Y-93131046D01*
X158293332Y-93301031D01*
X158201063Y-93523240D01*
X158200853Y-93763844D01*
X156697997Y-93763844D01*
X156697997Y-93488150D01*
X156804023Y-93382309D01*
X156896292Y-93160100D01*
X156896502Y-92919496D01*
X156804621Y-92697126D01*
X156634636Y-92526844D01*
X156412427Y-92434575D01*
X156171823Y-92434365D01*
X155949453Y-92526246D01*
X155890041Y-92585554D01*
X155831434Y-92526845D01*
X155609225Y-92434576D01*
X155368621Y-92434366D01*
X155146251Y-92526247D01*
X155034116Y-92638187D01*
X154914934Y-92518797D01*
X154692725Y-92426528D01*
X154452121Y-92426318D01*
X154229751Y-92518199D01*
X154059469Y-92688184D01*
X153967200Y-92910393D01*
X153966990Y-93150997D01*
X154058871Y-93373367D01*
X154165495Y-93480177D01*
X154165494Y-93843613D01*
X154103167Y-93905832D01*
X154010898Y-94128041D01*
X154010688Y-94368645D01*
X154102569Y-94591015D01*
X154153555Y-94642090D01*
X154068757Y-94726740D01*
X153976488Y-94948949D01*
X153976278Y-95189553D01*
X154068159Y-95411923D01*
X154238144Y-95582205D01*
X154344829Y-95626504D01*
X154309256Y-95662077D01*
X154097213Y-95574029D01*
X153856609Y-95573819D01*
X153634239Y-95665700D01*
X153463957Y-95835685D01*
X153371688Y-96057894D01*
X153371478Y-96298498D01*
X149191310Y-96298498D01*
X153108761Y-92381047D01*
X153196858Y-92249202D01*
X153227793Y-92093679D01*
X153227794Y-82335724D01*
X153227793Y-79922725D01*
X153196858Y-79767202D01*
X153151306Y-79699029D01*
X153108761Y-79635356D01*
X152719793Y-79246389D01*
X152719794Y-72878604D01*
X152825820Y-72772763D01*
X152918089Y-72550554D01*
X152918299Y-72309950D01*
X152826418Y-72087580D01*
X152656433Y-71917298D01*
X152434224Y-71825029D01*
X152193620Y-71824819D01*
X151971250Y-71916700D01*
X151800968Y-72086685D01*
X151708699Y-72308894D01*
X151708489Y-72549498D01*
X151800370Y-72771868D01*
X151906994Y-72878678D01*
X151906993Y-79414725D01*
X151937928Y-79570248D01*
X151992476Y-79651884D01*
X152026025Y-79702093D01*
X152061034Y-79737102D01*
X151895051Y-79805685D01*
X151774713Y-79925813D01*
X151640433Y-79791298D01*
X151418224Y-79699029D01*
X151177620Y-79698819D01*
X151037422Y-79756747D01*
X151037424Y-70840303D01*
X151006489Y-70684780D01*
X150918392Y-70552935D01*
X149926215Y-69560758D01*
X149926214Y-69221093D01*
X149926215Y-63640383D01*
X149933275Y-63629817D01*
X149933279Y-63629799D01*
X149933290Y-63629782D01*
X149942817Y-63581861D01*
X149957812Y-63581861D01*
X150070764Y-63560608D01*
X150174504Y-63493853D01*
X150244099Y-63391997D01*
X150268583Y-63271090D01*
X150268583Y-62807955D01*
X153928466Y-66467838D01*
X153867699Y-66614180D01*
X153867489Y-66854784D01*
X153959370Y-67077154D01*
X154129355Y-67247436D01*
X154351564Y-67339705D01*
X154592168Y-67339915D01*
X154814538Y-67248034D01*
X154984820Y-67078049D01*
X155077089Y-66855840D01*
X155077299Y-66615236D01*
X154985418Y-66392866D01*
X154815433Y-66222584D01*
X154805819Y-66218592D01*
X154759761Y-66149661D01*
X150489022Y-61878922D01*
X150357177Y-61790825D01*
X150201654Y-61759890D01*
X147313972Y-61759890D01*
X147158449Y-61790825D01*
X147026604Y-61878922D01*
X144608340Y-64297186D01*
X144520243Y-64429031D01*
X144489308Y-64584554D01*
X144489307Y-67248212D01*
X144383281Y-67354053D01*
X144291012Y-67576262D01*
X144290802Y-67816866D01*
X144382683Y-68039236D01*
X144552668Y-68209518D01*
X144774877Y-68301787D01*
X144925798Y-68301919D01*
X145683994Y-69060114D01*
X145683993Y-75536845D01*
X145577967Y-75642686D01*
X145485698Y-75864895D01*
X145485488Y-76105499D01*
X145577369Y-76327869D01*
X145747354Y-76498151D01*
X145969563Y-76590420D01*
X146210167Y-76590630D01*
X146432537Y-76498749D01*
X146602819Y-76328764D01*
X146695088Y-76106555D01*
X146695298Y-75865951D01*
X146603417Y-75643581D01*
X146496793Y-75536771D01*
X146496794Y-68891778D01*
X146465859Y-68736255D01*
X146377762Y-68604410D01*
X145500481Y-67727130D01*
X145500612Y-67577318D01*
X145408731Y-67354948D01*
X145302107Y-67248138D01*
X145302108Y-64752890D01*
X147247041Y-62807957D01*
X147247041Y-63271090D01*
X147268294Y-63384042D01*
X147335049Y-63487782D01*
X147436905Y-63557377D01*
X147548195Y-63579914D01*
X147516630Y-70542922D01*
X147406860Y-70563576D01*
X147303120Y-70630331D01*
X147233525Y-70732187D01*
X147209041Y-70853094D01*
X147209041Y-71653094D01*
X147230294Y-71766046D01*
X147297049Y-71869786D01*
X147398905Y-71939381D01*
X147513415Y-71962570D01*
X147513413Y-79179527D01*
X147406860Y-79199576D01*
X147373606Y-79220974D01*
X147292232Y-79139458D01*
X147087119Y-79054288D01*
X147087272Y-78878499D01*
X146995391Y-78656129D01*
X146825406Y-78485847D01*
X146603197Y-78393578D01*
X146362593Y-78393368D01*
X146140223Y-78485249D01*
X146033413Y-78591873D01*
X144625939Y-78591873D01*
X144595005Y-78598026D01*
X144470417Y-78622807D01*
X144338571Y-78710904D01*
X144057614Y-78991861D01*
X144057617Y-73793095D01*
X144028706Y-73647752D01*
X143946376Y-73524536D01*
X134054933Y-63633095D01*
X138597811Y-59090210D01*
X143409256Y-63901656D01*
X143532472Y-63983986D01*
X143677815Y-64012897D01*
X143823158Y-63983986D01*
X143946374Y-63901656D01*
X144028704Y-63778440D01*
X144057615Y-63633097D01*
X144057615Y-58299095D01*
X147870017Y-58299095D01*
X147937597Y-58638841D01*
X148130047Y-58926864D01*
X148418070Y-59119314D01*
X148757816Y-59186894D01*
X149097562Y-59119314D01*
X149385585Y-58926864D01*
X149578035Y-58638841D01*
X149645615Y-58299095D01*
X149578035Y-57959349D01*
X149385585Y-57671326D01*
X149097562Y-57478876D01*
X148757816Y-57411296D01*
X148418070Y-57478876D01*
X148130047Y-57671326D01*
X147937597Y-57959349D01*
X147870017Y-58299095D01*
X144057615Y-58299095D01*
X144057615Y-56392895D01*
X153458017Y-56392894D01*
X153458011Y-63633095D01*
X153458011Y-63633095D01*
G37*
X153458011Y-63633095D02*
X153458011Y-63633097D01*
X153486922Y-63778440D01*
X153569252Y-63901656D01*
X153692468Y-63983986D01*
X153837811Y-64012897D01*
X153983154Y-63983986D01*
X154106370Y-63901656D01*
X158917812Y-59090212D01*
X163460696Y-63633093D01*
X153569254Y-73524533D01*
X153486924Y-73647749D01*
X153458013Y-73793092D01*
X153458012Y-86061294D01*
X153467867Y-86110839D01*
X153471395Y-86161226D01*
X153482200Y-86182892D01*
X153486923Y-86206637D01*
X153514985Y-86248635D01*
X153537529Y-86293841D01*
X153555803Y-86309723D01*
X153569253Y-86329853D01*
X153611252Y-86357916D01*
X153649379Y-86391053D01*
X158449982Y-89134251D01*
X158496315Y-89149749D01*
X158540135Y-89171356D01*
X158565971Y-89173048D01*
X158590519Y-89181259D01*
X158639252Y-89177847D01*
X158688009Y-89181040D01*
X158712523Y-89172717D01*
X158738347Y-89170909D01*
X158782070Y-89149105D01*
X158828332Y-89133398D01*
X169426746Y-83013652D01*
X169488815Y-82959213D01*
X169538143Y-82915953D01*
X169538147Y-82915945D01*
X169538156Y-82915937D01*
X169573481Y-82844296D01*
X169603687Y-82783045D01*
X173224205Y-69271080D01*
X179429895Y-70933890D01*
X177668787Y-77506443D01*
X177659096Y-77654316D01*
X177706730Y-77794642D01*
X177804439Y-77906057D01*
X177937347Y-77971601D01*
X178085220Y-77981292D01*
X178225546Y-77933658D01*
X184495743Y-74313557D01*
X189195939Y-82454547D01*
X182925745Y-86074647D01*
X182814330Y-86172356D01*
X182748786Y-86305264D01*
X182739095Y-86453137D01*
X182786729Y-86593463D01*
X182884438Y-86704878D01*
X183017346Y-86770422D01*
X189589898Y-88531528D01*
X187927087Y-94737221D01*
X174415124Y-91116703D01*
X174342551Y-91111947D01*
X174267300Y-91107005D01*
X174267275Y-91107014D01*
X174267251Y-91107012D01*
X174199832Y-91129898D01*
X174126968Y-91154621D01*
X163630156Y-97213150D01*
X163591523Y-97247022D01*
X163549068Y-97275941D01*
X163536276Y-97295460D01*
X163518729Y-97310845D01*
X163496001Y-97356917D01*
X163467841Y-97399887D01*
X163463493Y-97422815D01*
X163453168Y-97443744D01*
X163449801Y-97495008D01*
X163440229Y-97545482D01*
X163491030Y-103235086D01*
X163500813Y-103282069D01*
X163503946Y-103329954D01*
X163515782Y-103353962D01*
X163521238Y-103380165D01*
X163548253Y-103419824D01*
X163569474Y-103462869D01*
X163589597Y-103480521D01*
X163604665Y-103502641D01*
X163644799Y-103528943D01*
X163680879Y-103560591D01*
X174126135Y-109592685D01*
X174126157Y-109592692D01*
X174126171Y-109592705D01*
X174191514Y-109614886D01*
X174266456Y-109640334D01*
X174266478Y-109640333D01*
X174266497Y-109640339D01*
X174341907Y-109635397D01*
X174414330Y-109630658D01*
X174414347Y-109630649D01*
X174414370Y-109630648D01*
X187926334Y-106010130D01*
X189589142Y-112215822D01*
X183016590Y-113976927D01*
X182883682Y-114042471D01*
X182785973Y-114153886D01*
X182738339Y-114294212D01*
X182748030Y-114442085D01*
X182805483Y-114558586D01*
X182813574Y-114574993D01*
X182924989Y-114672702D01*
X189195188Y-118292804D01*
X184494989Y-126433792D01*
X178224792Y-122813689D01*
X178084466Y-122766055D01*
X177936593Y-122775746D01*
X177803685Y-122841290D01*
X177705976Y-122952705D01*
X177658342Y-123093031D01*
X177668033Y-123240904D01*
X179429139Y-129813456D01*
X173223451Y-131476265D01*
X169602934Y-117964309D01*
X169602899Y-117964238D01*
X169602894Y-117964160D01*
X169570027Y-117897582D01*
X169537390Y-117831401D01*
X169537331Y-117831350D01*
X169537296Y-117831278D01*
X169480926Y-117781883D01*
X169425975Y-117733692D01*
X169425901Y-117733667D01*
X169425842Y-117733615D01*
X159082178Y-111767296D01*
X159034462Y-111751121D01*
X158989183Y-111729025D01*
X158964884Y-111727534D01*
X158941833Y-111719720D01*
X158891566Y-111723035D01*
X158841271Y-111719949D01*
X158818251Y-111727870D01*
X158793964Y-111729472D01*
X158748791Y-111751772D01*
X158701144Y-111768167D01*
X153646544Y-114714571D01*
X153609897Y-114746981D01*
X153569223Y-114774165D01*
X153554880Y-114795637D01*
X153535537Y-114812743D01*
X153514080Y-114856713D01*
X153486907Y-114897391D01*
X153481873Y-114922714D01*
X153470547Y-114945923D01*
X153467551Y-114994757D01*
X153458012Y-115042737D01*
X153459363Y-126951885D01*
X153474271Y-127026788D01*
X153488274Y-127097185D01*
X153488285Y-127097202D01*
X153488290Y-127097225D01*
X153531000Y-127161128D01*
X153570604Y-127220401D01*
X163462047Y-137111838D01*
X158919168Y-141654725D01*
X154107722Y-136843280D01*
X153984506Y-136760950D01*
X153839163Y-136732039D01*
X153693820Y-136760950D01*
X153570604Y-136843280D01*
X153488274Y-136966496D01*
X153459363Y-137111839D01*
X153459363Y-144352039D01*
X144058962Y-144352034D01*
X144058960Y-137111839D01*
X144030049Y-136966496D01*
X144030047Y-136966493D01*
X143947719Y-136843279D01*
X143824503Y-136760950D01*
X143679160Y-136732039D01*
X143533817Y-136760950D01*
X143410601Y-136843280D01*
X138599162Y-141654722D01*
X134056280Y-137111836D01*
X143947721Y-127220399D01*
X143947734Y-127220379D01*
X143947751Y-127220368D01*
X143985947Y-127163190D01*
X144030051Y-127097183D01*
X144030056Y-127097160D01*
X144030067Y-127097143D01*
X144044071Y-127026703D01*
X144058962Y-126951840D01*
X144058958Y-126951819D01*
X144058962Y-126951797D01*
X144057612Y-115042651D01*
X144048071Y-114994712D01*
X144045077Y-114945923D01*
X144033734Y-114922677D01*
X144028685Y-114897311D01*
X144001525Y-114856673D01*
X143980088Y-114812743D01*
X143960712Y-114795608D01*
X143946341Y-114774105D01*
X143905699Y-114746956D01*
X143881845Y-114725860D01*
X146341697Y-114725860D01*
X146433578Y-114948230D01*
X146603563Y-115118512D01*
X146738593Y-115174581D01*
X146738591Y-116483437D01*
X146738591Y-116483438D01*
X146738595Y-119865175D01*
X146559235Y-120044534D01*
X146471137Y-120176379D01*
X146440202Y-120331902D01*
X146440199Y-122032974D01*
X146440199Y-122032977D01*
X146458659Y-122125782D01*
X146463876Y-122152005D01*
X146471135Y-122188500D01*
X146559232Y-122320345D01*
X147155009Y-122916115D01*
X147155008Y-128659510D01*
X146965642Y-128848876D01*
X146877545Y-128980721D01*
X146846610Y-129136244D01*
X146846611Y-130754635D01*
X146846611Y-130754636D01*
X146877546Y-130910159D01*
X146965644Y-131042004D01*
X147551413Y-131627769D01*
X147551412Y-138361528D01*
X147444863Y-138381576D01*
X147341123Y-138448331D01*
X147271528Y-138550187D01*
X147247044Y-138671094D01*
X147247044Y-139471094D01*
X147268297Y-139584046D01*
X147335052Y-139687786D01*
X147436908Y-139757381D01*
X147557815Y-139781865D01*
X148357815Y-139781865D01*
X148470767Y-139760612D01*
X148574507Y-139693857D01*
X148644102Y-139592001D01*
X148668586Y-139471094D01*
X148668586Y-138671094D01*
X148647333Y-138558142D01*
X148580578Y-138454402D01*
X148478722Y-138384807D01*
X148364212Y-138361618D01*
X148364213Y-131459432D01*
X148333278Y-131303909D01*
X148333278Y-131303908D01*
X148245180Y-131172063D01*
X147659411Y-130586298D01*
X147659411Y-130383863D01*
X148357813Y-130383863D01*
X148470765Y-130362610D01*
X148574505Y-130295855D01*
X148644100Y-130193999D01*
X148668584Y-130073092D01*
X148668584Y-129273092D01*
X148847042Y-129273092D01*
X148847042Y-130073092D01*
X148868295Y-130186044D01*
X148935050Y-130289784D01*
X149036906Y-130359379D01*
X149151413Y-130382567D01*
X149151410Y-138361528D01*
X149044863Y-138381576D01*
X148941123Y-138448331D01*
X148871528Y-138550187D01*
X148847044Y-138671094D01*
X148847044Y-139471094D01*
X148868297Y-139584046D01*
X148935052Y-139687786D01*
X149036908Y-139757381D01*
X149157815Y-139781865D01*
X149957815Y-139781865D01*
X150070767Y-139760612D01*
X150174507Y-139693857D01*
X150244102Y-139592001D01*
X150268586Y-139471094D01*
X150268586Y-138671094D01*
X150247333Y-138558142D01*
X150180578Y-138454402D01*
X150078722Y-138384807D01*
X149964210Y-138361618D01*
X149964213Y-130382659D01*
X150070765Y-130362610D01*
X150174505Y-130295855D01*
X150244100Y-130193999D01*
X150268584Y-130073092D01*
X150268584Y-129273092D01*
X150247331Y-129160140D01*
X150180576Y-129056400D01*
X150078720Y-128986805D01*
X149964213Y-128963617D01*
X149964211Y-121746661D01*
X150070768Y-121726611D01*
X150174508Y-121659856D01*
X150244103Y-121558000D01*
X150268587Y-121437093D01*
X150268587Y-120637093D01*
X150247334Y-120524141D01*
X150180579Y-120420401D01*
X150078723Y-120350806D01*
X149964215Y-120327618D01*
X149964216Y-113832037D01*
X149962190Y-113821853D01*
X149963701Y-113811579D01*
X149937758Y-113296872D01*
X151240190Y-112541401D01*
X151305286Y-112568431D01*
X151545890Y-112568641D01*
X151768260Y-112476760D01*
X151938542Y-112306775D01*
X152030811Y-112084566D01*
X152031021Y-111843962D01*
X151939140Y-111621592D01*
X151769155Y-111451310D01*
X151546946Y-111359041D01*
X151306342Y-111358831D01*
X151083972Y-111450712D01*
X150913690Y-111620697D01*
X150821421Y-111842906D01*
X150821419Y-111844668D01*
X149315483Y-112718182D01*
X149268335Y-112759698D01*
X149217923Y-112797186D01*
X149209215Y-112811757D01*
X149196475Y-112822975D01*
X149168805Y-112879371D01*
X149136575Y-112933299D01*
X149134105Y-112950095D01*
X149126629Y-112965333D01*
X149122647Y-113028029D01*
X149113508Y-113090182D01*
X149151416Y-113842277D01*
X149151415Y-120327526D01*
X149044864Y-120347575D01*
X148941124Y-120414330D01*
X148871529Y-120516186D01*
X148847045Y-120637093D01*
X148847045Y-121437093D01*
X148868298Y-121550045D01*
X148935053Y-121653785D01*
X149036909Y-121723380D01*
X149151411Y-121746567D01*
X149151413Y-128963525D01*
X149044861Y-128983574D01*
X148941121Y-129050329D01*
X148871526Y-129152185D01*
X148847042Y-129273092D01*
X148668584Y-129273092D01*
X148647331Y-129160140D01*
X148580576Y-129056400D01*
X148478720Y-128986805D01*
X148374220Y-128965643D01*
X148374216Y-122579437D01*
X148343281Y-122423914D01*
X148255184Y-122292069D01*
X147710978Y-121747864D01*
X148357816Y-121747864D01*
X148470768Y-121726611D01*
X148574508Y-121659856D01*
X148644103Y-121558000D01*
X148668587Y-121437093D01*
X148668587Y-120637093D01*
X148647334Y-120524141D01*
X148580579Y-120420401D01*
X148478723Y-120350806D01*
X148364215Y-120327618D01*
X148364214Y-116025723D01*
X148374216Y-115975439D01*
X148364214Y-115925154D01*
X148364213Y-115276079D01*
X148402700Y-115237593D01*
X148490798Y-115105748D01*
X148521733Y-114950225D01*
X148521733Y-114950223D01*
X148521732Y-113633918D01*
X148657957Y-113497931D01*
X148750226Y-113275722D01*
X148750436Y-113035118D01*
X148658555Y-112812748D01*
X148488570Y-112642466D01*
X148266361Y-112550197D01*
X148025757Y-112549987D01*
X147803387Y-112641868D01*
X147633105Y-112811853D01*
X147540836Y-113034062D01*
X147540657Y-113239315D01*
X147390759Y-113239184D01*
X147168389Y-113331065D01*
X146998107Y-113501050D01*
X146905838Y-113723259D01*
X146905628Y-113963863D01*
X146921081Y-114001263D01*
X146826828Y-114001181D01*
X146604458Y-114093062D01*
X146434176Y-114263047D01*
X146341907Y-114485256D01*
X146341697Y-114725860D01*
X143881845Y-114725860D01*
X143869080Y-114714571D01*
X138814483Y-111768170D01*
X138766842Y-111751777D01*
X138721664Y-111729474D01*
X138697372Y-111727872D01*
X138674356Y-111719952D01*
X138624070Y-111723038D01*
X138573795Y-111719722D01*
X138550742Y-111727537D01*
X138526444Y-111729028D01*
X138481166Y-111751123D01*
X138433449Y-111767299D01*
X128090884Y-117732974D01*
X128090823Y-117733027D01*
X128090750Y-117733052D01*
X128035886Y-117781167D01*
X127979429Y-117830638D01*
X127979394Y-117830710D01*
X127979335Y-117830761D01*
X127946448Y-117897448D01*
X127913832Y-117963519D01*
X127913827Y-117963596D01*
X127913791Y-117963669D01*
X124293275Y-131475626D01*
X118087578Y-129812821D01*
X119848688Y-123240268D01*
X119858380Y-123092395D01*
X119810746Y-122952069D01*
X119713037Y-122840654D01*
X119580129Y-122775110D01*
X119432255Y-122765418D01*
X119351912Y-122792691D01*
X119291929Y-122813052D01*
X113021734Y-126433153D01*
X109510744Y-120351936D01*
X115029016Y-120351936D01*
X115068265Y-120468887D01*
X115468265Y-121161707D01*
X115543147Y-121248899D01*
X115652828Y-121305363D01*
X115775836Y-121314706D01*
X115892787Y-121275457D01*
X116585607Y-120875457D01*
X116672799Y-120800575D01*
X116729263Y-120690894D01*
X116738606Y-120567886D01*
X116699357Y-120450935D01*
X116627139Y-120325849D01*
X123392312Y-116419981D01*
X123462950Y-116502231D01*
X123572631Y-116558695D01*
X123695639Y-116568038D01*
X123812590Y-116528789D01*
X124505410Y-116128789D01*
X124592602Y-116053907D01*
X124649066Y-115944226D01*
X124658409Y-115821218D01*
X124619160Y-115704267D01*
X124574211Y-115626413D01*
X130715626Y-112026276D01*
X130783151Y-112104901D01*
X130892832Y-112161365D01*
X131015840Y-112170708D01*
X131132791Y-112131459D01*
X131825611Y-111731459D01*
X131912803Y-111656577D01*
X131969267Y-111546896D01*
X131978610Y-111423888D01*
X131941439Y-111313129D01*
X135510554Y-109252499D01*
X147771488Y-109252499D01*
X147863369Y-109474869D01*
X148033354Y-109645151D01*
X148255563Y-109737420D01*
X148496167Y-109737630D01*
X148718537Y-109645749D01*
X148825348Y-109539125D01*
X149190451Y-109539124D01*
X149296292Y-109645150D01*
X149518501Y-109737419D01*
X149759105Y-109737629D01*
X149981475Y-109645748D01*
X150151757Y-109475763D01*
X150244026Y-109253554D01*
X150244236Y-109012950D01*
X150152355Y-108790580D01*
X149982370Y-108620298D01*
X149760161Y-108528029D01*
X149519557Y-108527819D01*
X149297187Y-108619700D01*
X149190376Y-108726324D01*
X148825273Y-108726325D01*
X148719432Y-108620299D01*
X148497223Y-108528030D01*
X148256619Y-108527820D01*
X148034249Y-108619701D01*
X147863967Y-108789686D01*
X147771698Y-109011895D01*
X147771488Y-109252499D01*
X135510554Y-109252499D01*
X138541723Y-107502453D01*
X138776444Y-107502658D01*
X138971686Y-107421986D01*
X158879657Y-107421986D01*
X158971538Y-107644356D01*
X159141523Y-107814638D01*
X159331035Y-107893330D01*
X159285779Y-108002320D01*
X159285569Y-108242924D01*
X159377450Y-108465294D01*
X159547435Y-108635576D01*
X159736637Y-108714139D01*
X159690387Y-108825522D01*
X159690177Y-109066126D01*
X159782058Y-109288496D01*
X159952043Y-109458778D01*
X160174252Y-109551047D01*
X160414856Y-109551257D01*
X160637226Y-109459376D01*
X160685017Y-109411669D01*
X163099600Y-110805731D01*
X163099601Y-110805732D01*
X164479819Y-111602599D01*
X164550940Y-111868024D01*
X164585525Y-111938156D01*
X164621072Y-112010240D01*
X164740291Y-112114792D01*
X166424871Y-113087388D01*
X166450256Y-113096005D01*
X166472549Y-113110901D01*
X166524687Y-113121272D01*
X166575026Y-113138360D01*
X166601780Y-113136606D01*
X166628072Y-113141836D01*
X166680210Y-113131465D01*
X166733255Y-113127988D01*
X166733270Y-113127981D01*
X167611861Y-112892561D01*
X172512232Y-115721796D01*
X172577887Y-115966810D01*
X172614757Y-116041571D01*
X172648018Y-116109019D01*
X172648021Y-116109021D01*
X172648023Y-116109026D01*
X172713606Y-116166538D01*
X172767237Y-116213571D01*
X173867793Y-116848981D01*
X173897022Y-116858903D01*
X174017948Y-116899953D01*
X174176178Y-116889581D01*
X174790057Y-116725093D01*
X180814112Y-120203082D01*
X180778198Y-120305386D01*
X180784140Y-120428605D01*
X180837552Y-120539804D01*
X180930018Y-120621462D01*
X181622838Y-121021462D01*
X181731284Y-121059532D01*
X181854503Y-121053590D01*
X181965702Y-121000178D01*
X182047360Y-120907712D01*
X182447360Y-120214892D01*
X182485430Y-120106446D01*
X182479488Y-119983227D01*
X182426076Y-119872028D01*
X182333610Y-119790370D01*
X181640790Y-119390370D01*
X181532344Y-119352300D01*
X181409125Y-119358242D01*
X181297926Y-119411654D01*
X181220593Y-119499223D01*
X175050674Y-115937019D01*
X174900520Y-115886048D01*
X174742290Y-115896420D01*
X174449791Y-115974795D01*
X174681357Y-115573711D01*
X174719427Y-115465265D01*
X174713485Y-115342046D01*
X174660073Y-115230847D01*
X174567607Y-115149189D01*
X173874787Y-114749189D01*
X173766341Y-114711119D01*
X173643122Y-114717061D01*
X173531923Y-114770473D01*
X173454586Y-114858046D01*
X167929896Y-111668364D01*
X167779742Y-111617393D01*
X167690257Y-111623259D01*
X167621514Y-111627764D01*
X166924700Y-111814471D01*
X167207360Y-111324889D01*
X167245430Y-111216443D01*
X167239488Y-111093224D01*
X167186076Y-110982025D01*
X167093610Y-110900367D01*
X166400790Y-110500367D01*
X166292344Y-110462297D01*
X166169125Y-110468239D01*
X166057926Y-110521651D01*
X165990683Y-110597794D01*
X163912417Y-109397904D01*
X161405703Y-107950650D01*
X161369177Y-107876583D01*
X161347380Y-107832381D01*
X161228160Y-107727829D01*
X160028673Y-107035305D01*
X159997586Y-106960068D01*
X159827601Y-106789786D01*
X159605392Y-106697517D01*
X159364788Y-106697307D01*
X159142418Y-106789188D01*
X158972136Y-106959173D01*
X158879867Y-107181382D01*
X158879657Y-107421986D01*
X138971686Y-107421986D01*
X138998814Y-107410777D01*
X139169096Y-107240792D01*
X139261365Y-107018583D01*
X139261575Y-106777979D01*
X139169694Y-106555609D01*
X138999709Y-106385327D01*
X138777500Y-106293058D01*
X138536896Y-106292848D01*
X138314526Y-106384729D01*
X138144244Y-106554714D01*
X138051975Y-106776923D01*
X138051914Y-106846703D01*
X131535118Y-110609177D01*
X131464479Y-110526925D01*
X131354798Y-110470461D01*
X131231790Y-110461118D01*
X131114839Y-110500367D01*
X130422019Y-110900367D01*
X130334827Y-110975249D01*
X130278363Y-111084930D01*
X130269020Y-111207938D01*
X130307714Y-111323236D01*
X124151149Y-114932256D01*
X124144278Y-114924255D01*
X124034597Y-114867791D01*
X123911589Y-114858448D01*
X123794638Y-114897697D01*
X123101818Y-115297697D01*
X123014626Y-115372579D01*
X122958162Y-115482260D01*
X122948819Y-115605268D01*
X122985991Y-115716029D01*
X116177653Y-119646819D01*
X116114794Y-119614459D01*
X115991786Y-119605116D01*
X115874835Y-119644365D01*
X115182015Y-120044365D01*
X115094823Y-120119247D01*
X115038359Y-120228928D01*
X115029016Y-120351936D01*
X109510744Y-120351936D01*
X108710744Y-118966296D01*
X114229016Y-118966296D01*
X114268265Y-119083247D01*
X114668265Y-119776067D01*
X114743147Y-119863259D01*
X114852828Y-119919723D01*
X114975836Y-119929066D01*
X115092787Y-119889817D01*
X115785607Y-119489817D01*
X115872799Y-119414935D01*
X115929263Y-119305254D01*
X115938606Y-119182246D01*
X115901435Y-119071487D01*
X121808685Y-115660937D01*
X121927904Y-115556385D01*
X121927905Y-115556384D01*
X121984488Y-115441642D01*
X121998037Y-115414168D01*
X121998037Y-115414167D01*
X122255486Y-114453350D01*
X122588068Y-115029399D01*
X122662950Y-115116591D01*
X122772631Y-115173055D01*
X122895639Y-115182398D01*
X123012590Y-115143149D01*
X123705410Y-114743149D01*
X123792602Y-114668267D01*
X123849066Y-114558586D01*
X123858409Y-114435578D01*
X123819160Y-114318627D01*
X123776560Y-114244841D01*
X129058727Y-111195180D01*
X129177946Y-111090628D01*
X129248079Y-110948411D01*
X129248079Y-110948410D01*
X129483163Y-110071057D01*
X129559067Y-110027234D01*
X129908269Y-110632069D01*
X129983151Y-110719261D01*
X130092832Y-110775725D01*
X130215840Y-110785068D01*
X130332791Y-110745819D01*
X131025611Y-110345819D01*
X131112803Y-110270937D01*
X131169267Y-110161256D01*
X131178610Y-110038248D01*
X131141438Y-109927487D01*
X131372196Y-109794259D01*
X131372201Y-109794255D01*
X131372206Y-109794253D01*
X131431670Y-109742103D01*
X131491416Y-109689708D01*
X131491418Y-109689703D01*
X131491423Y-109689699D01*
X131520847Y-109630029D01*
X135764436Y-107179992D01*
X135849338Y-107202741D01*
X135910878Y-107206774D01*
X136007565Y-107213112D01*
X136007568Y-107213111D01*
X136007569Y-107213111D01*
X136047682Y-107199494D01*
X136157719Y-107162141D01*
X137152554Y-106587771D01*
X137253841Y-106629829D01*
X137494445Y-106630039D01*
X137716815Y-106538158D01*
X137887097Y-106368173D01*
X137979366Y-106145964D01*
X137979576Y-105905360D01*
X137969933Y-105882020D01*
X158941093Y-105882020D01*
X159032974Y-106104390D01*
X159202959Y-106274672D01*
X159425168Y-106366941D01*
X159665772Y-106367151D01*
X159888142Y-106275270D01*
X159946852Y-106216662D01*
X166374111Y-109927442D01*
X166338198Y-110029743D01*
X166344140Y-110152962D01*
X166397552Y-110264161D01*
X166490018Y-110345819D01*
X167182838Y-110745819D01*
X167291284Y-110783889D01*
X167414503Y-110777947D01*
X167525702Y-110724535D01*
X167606234Y-110633345D01*
X173846509Y-114180818D01*
X173812195Y-114278565D01*
X173818137Y-114401784D01*
X173871549Y-114512983D01*
X173964015Y-114594641D01*
X174656835Y-114994641D01*
X174765281Y-115032711D01*
X174888500Y-115026769D01*
X174999699Y-114973357D01*
X175069800Y-114893977D01*
X181618402Y-118807603D01*
X181616268Y-118811300D01*
X181578198Y-118919746D01*
X181584140Y-119042965D01*
X181637552Y-119154164D01*
X181730018Y-119235822D01*
X182422838Y-119635822D01*
X182531284Y-119673892D01*
X182654503Y-119667950D01*
X182765702Y-119614538D01*
X182847360Y-119522072D01*
X183247360Y-118829252D01*
X183285430Y-118720806D01*
X183279488Y-118597587D01*
X183226076Y-118486388D01*
X183133610Y-118404730D01*
X182440790Y-118004730D01*
X182332344Y-117966660D01*
X182209125Y-117972602D01*
X182097926Y-118026014D01*
X182027823Y-118105395D01*
X175479222Y-114191769D01*
X175481357Y-114188071D01*
X175519427Y-114079625D01*
X175513485Y-113956406D01*
X175460073Y-113845207D01*
X175367607Y-113763549D01*
X174674787Y-113363549D01*
X174566341Y-113325479D01*
X174443122Y-113331421D01*
X174331923Y-113384833D01*
X174251388Y-113476027D01*
X168011114Y-109928554D01*
X168045430Y-109830803D01*
X168039488Y-109707584D01*
X167986076Y-109596385D01*
X167893610Y-109514727D01*
X167200790Y-109114727D01*
X167092344Y-109076657D01*
X166969125Y-109082599D01*
X166857926Y-109136011D01*
X166780591Y-109223582D01*
X160040559Y-105332223D01*
X159935795Y-105296660D01*
X159889037Y-105249820D01*
X159666828Y-105157551D01*
X159426224Y-105157341D01*
X159203854Y-105249222D01*
X159033572Y-105419207D01*
X158941303Y-105641416D01*
X158941093Y-105882020D01*
X137969933Y-105882020D01*
X137887695Y-105682990D01*
X137717710Y-105512708D01*
X137495501Y-105420439D01*
X137254897Y-105420229D01*
X137032527Y-105512110D01*
X136945408Y-105599077D01*
X136910283Y-105514066D01*
X136740298Y-105343784D01*
X136518089Y-105251515D01*
X136277485Y-105251305D01*
X136055115Y-105343186D01*
X135972770Y-105425387D01*
X135956576Y-105386195D01*
X135786591Y-105215913D01*
X135564382Y-105123644D01*
X135323778Y-105123434D01*
X135101408Y-105215315D01*
X134931126Y-105385300D01*
X134838857Y-105607509D01*
X134838656Y-105837388D01*
X134010682Y-106315419D01*
X130870706Y-108128285D01*
X130718454Y-108087488D01*
X130560223Y-108077116D01*
X130480503Y-108104177D01*
X130410069Y-108128086D01*
X130410068Y-108128087D01*
X130410067Y-108128087D01*
X128581989Y-109183529D01*
X128462770Y-109288081D01*
X128395017Y-109425473D01*
X128392637Y-109430299D01*
X128157552Y-110307652D01*
X123619061Y-112927948D01*
X123125980Y-112795830D01*
X123062423Y-112791665D01*
X122967753Y-112785459D01*
X122817599Y-112836430D01*
X121815466Y-113415009D01*
X121815465Y-113415010D01*
X121815464Y-113415010D01*
X121717354Y-113501050D01*
X121696246Y-113519561D01*
X121626113Y-113661777D01*
X121626113Y-113661779D01*
X121256502Y-115041199D01*
X115495115Y-118367535D01*
X115424475Y-118285283D01*
X115314794Y-118228819D01*
X115191786Y-118219476D01*
X115074835Y-118258725D01*
X114382015Y-118658725D01*
X114294823Y-118733607D01*
X114238359Y-118843288D01*
X114229016Y-118966296D01*
X108710744Y-118966296D01*
X108321535Y-118292167D01*
X114591728Y-114672069D01*
X114615526Y-114651199D01*
X114703143Y-114574361D01*
X114768686Y-114441453D01*
X114778378Y-114293579D01*
X114730744Y-114153253D01*
X114633035Y-114041838D01*
X114500128Y-113976294D01*
X107927583Y-112215181D01*
X109590392Y-106009490D01*
X123102349Y-109630010D01*
X123102373Y-109630012D01*
X123102390Y-109630020D01*
X123174170Y-109634717D01*
X123250222Y-109639701D01*
X123250241Y-109639695D01*
X123250264Y-109639696D01*
X123326507Y-109613806D01*
X123390549Y-109592067D01*
X123390563Y-109592054D01*
X123390585Y-109592047D01*
X133834748Y-103560590D01*
X133870826Y-103528943D01*
X133910962Y-103502640D01*
X133926031Y-103480518D01*
X133946152Y-103462868D01*
X133967372Y-103419827D01*
X133994389Y-103380164D01*
X133999845Y-103353960D01*
X134011681Y-103329953D01*
X134014814Y-103282068D01*
X134024597Y-103235085D01*
X134044575Y-100997498D01*
X135758557Y-100997498D01*
X135850438Y-101219868D01*
X136020423Y-101390150D01*
X136242632Y-101482419D01*
X136483236Y-101482629D01*
X136705606Y-101390748D01*
X136812416Y-101284124D01*
X137530591Y-101284124D01*
X137636432Y-101390150D01*
X137858641Y-101482419D01*
X138099245Y-101482629D01*
X138321615Y-101390748D01*
X138491897Y-101220763D01*
X138584166Y-100998554D01*
X138584376Y-100757950D01*
X138492495Y-100535580D01*
X138322510Y-100365298D01*
X138100301Y-100273029D01*
X137859697Y-100272819D01*
X137637327Y-100364700D01*
X137530517Y-100471324D01*
X136812342Y-100471324D01*
X136706501Y-100365298D01*
X136484292Y-100273029D01*
X136243688Y-100272819D01*
X136021318Y-100364700D01*
X135851036Y-100534685D01*
X135758767Y-100756894D01*
X135758557Y-100997498D01*
X134044575Y-100997498D01*
X134059316Y-99346498D01*
X136087489Y-99346498D01*
X136179370Y-99568868D01*
X136349355Y-99739150D01*
X136571564Y-99831419D01*
X136812168Y-99831629D01*
X137034538Y-99739748D01*
X137141348Y-99633124D01*
X137530591Y-99633124D01*
X137636432Y-99739150D01*
X137858641Y-99831419D01*
X138099245Y-99831629D01*
X138321615Y-99739748D01*
X138491897Y-99569763D01*
X138584166Y-99347554D01*
X138584376Y-99106950D01*
X138492495Y-98884580D01*
X138322510Y-98714298D01*
X138100301Y-98622029D01*
X137859697Y-98621819D01*
X137637327Y-98713700D01*
X137530517Y-98820324D01*
X137141274Y-98820324D01*
X137035433Y-98714298D01*
X136813224Y-98622029D01*
X136572620Y-98621819D01*
X136350250Y-98713700D01*
X136179968Y-98883685D01*
X136087699Y-99105894D01*
X136087489Y-99346498D01*
X134059316Y-99346498D01*
X134075398Y-97545481D01*
X134065829Y-97495025D01*
X134062471Y-97443790D01*
X134052139Y-97422840D01*
X134047786Y-97399885D01*
X134019637Y-97356932D01*
X133996928Y-97310883D01*
X133979366Y-97295481D01*
X133966559Y-97275939D01*
X133924119Y-97247030D01*
X133885513Y-97213173D01*
X129169363Y-94490306D01*
X130600361Y-94490306D01*
X130715030Y-94767827D01*
X130927173Y-94980341D01*
X131204493Y-95095494D01*
X131504771Y-95095756D01*
X131782292Y-94981087D01*
X131994806Y-94768944D01*
X132109959Y-94491624D01*
X132110221Y-94191346D01*
X131995552Y-93913825D01*
X131783409Y-93701311D01*
X131506089Y-93586158D01*
X131205811Y-93585896D01*
X130928290Y-93700565D01*
X130715776Y-93912708D01*
X130600623Y-94190028D01*
X130600361Y-94490306D01*
X129169363Y-94490306D01*
X123389956Y-91153569D01*
X123249630Y-91105936D01*
X123101756Y-91115627D01*
X109589798Y-94736147D01*
X107926989Y-88530456D01*
X114499538Y-86769347D01*
X114632445Y-86703803D01*
X114730154Y-86592388D01*
X114777788Y-86452062D01*
X114768097Y-86304188D01*
X114702553Y-86171281D01*
X114662120Y-86135822D01*
X114591138Y-86073571D01*
X108320947Y-82453476D01*
X109410827Y-80565745D01*
X115792200Y-80565745D01*
X115798142Y-80688964D01*
X115851554Y-80800163D01*
X115944020Y-80881821D01*
X116636840Y-81281821D01*
X116745286Y-81319891D01*
X116868505Y-81313949D01*
X116979704Y-81260537D01*
X117057040Y-81172965D01*
X122493187Y-84311527D01*
X122643341Y-84362498D01*
X122801571Y-84352126D01*
X123524567Y-84158400D01*
X123545463Y-84170464D01*
X123196263Y-84775295D01*
X123158193Y-84883741D01*
X123164135Y-85006960D01*
X123217547Y-85118159D01*
X123310013Y-85199817D01*
X124002833Y-85599817D01*
X124111279Y-85637887D01*
X124234498Y-85631945D01*
X124345697Y-85578533D01*
X124397468Y-85519910D01*
X129843293Y-88664062D01*
X129843295Y-88664063D01*
X130063264Y-88791061D01*
X130126061Y-88812378D01*
X130213416Y-88842032D01*
X130213418Y-88842032D01*
X130371648Y-88831660D01*
X130371649Y-88831659D01*
X131001475Y-88662899D01*
X131019468Y-88673287D01*
X130670269Y-89278117D01*
X130632199Y-89386563D01*
X130638141Y-89509782D01*
X130691553Y-89620981D01*
X130784019Y-89702639D01*
X131476839Y-90102639D01*
X131585285Y-90140709D01*
X131708504Y-90134767D01*
X131819703Y-90081355D01*
X131897038Y-89993784D01*
X135828136Y-92263404D01*
X135828137Y-92263404D01*
X136342269Y-92560241D01*
X136353196Y-92601023D01*
X136423329Y-92743241D01*
X136508872Y-92818259D01*
X136542548Y-92847792D01*
X137540235Y-93423808D01*
X137631978Y-93645844D01*
X137801963Y-93816126D01*
X138024172Y-93908395D01*
X138264776Y-93908605D01*
X138487146Y-93816724D01*
X138657428Y-93646739D01*
X138749697Y-93424530D01*
X138749907Y-93183926D01*
X138658026Y-92961556D01*
X138488041Y-92791274D01*
X138312458Y-92718366D01*
X138315019Y-92715809D01*
X138407288Y-92493600D01*
X138407498Y-92252996D01*
X138315617Y-92030626D01*
X138145632Y-91860344D01*
X137958167Y-91782502D01*
X138009924Y-91657856D01*
X138010134Y-91417252D01*
X137918253Y-91194882D01*
X137748268Y-91024600D01*
X137526059Y-90932331D01*
X137285455Y-90932121D01*
X137063085Y-91024002D01*
X137015297Y-91071707D01*
X136029031Y-90502287D01*
X136029027Y-90502286D01*
X133663136Y-89136334D01*
X133597486Y-88891326D01*
X133566285Y-88828057D01*
X133527354Y-88749111D01*
X133455970Y-88686509D01*
X133408133Y-88644558D01*
X133408131Y-88644557D01*
X133033266Y-88428128D01*
X134100361Y-88428128D01*
X134215030Y-88705649D01*
X134427173Y-88918163D01*
X134704493Y-89033316D01*
X135004771Y-89033578D01*
X135282292Y-88918909D01*
X135494806Y-88706766D01*
X135609959Y-88429446D01*
X135610221Y-88129168D01*
X135495552Y-87851647D01*
X135283409Y-87639133D01*
X135006089Y-87523980D01*
X134705811Y-87523718D01*
X134428290Y-87638387D01*
X134215776Y-87850530D01*
X134100623Y-88127850D01*
X134100361Y-88428128D01*
X133033266Y-88428128D01*
X131319513Y-87438690D01*
X131169359Y-87387719D01*
X131011129Y-87398091D01*
X130381297Y-87566854D01*
X125407373Y-84695156D01*
X125327867Y-84398440D01*
X125279532Y-84300426D01*
X125257734Y-84256224D01*
X125138515Y-84151672D01*
X123785184Y-83370326D01*
X123635030Y-83319355D01*
X123476799Y-83329727D01*
X122753804Y-83523453D01*
X117463520Y-80469104D01*
X117499432Y-80366805D01*
X117493490Y-80243586D01*
X117440078Y-80132387D01*
X117347612Y-80050729D01*
X116654792Y-79650729D01*
X116546346Y-79612659D01*
X116423127Y-79618601D01*
X116311928Y-79672013D01*
X116230270Y-79764479D01*
X115830270Y-80457299D01*
X115792200Y-80565745D01*
X109410827Y-80565745D01*
X113021143Y-74312487D01*
X119291340Y-77932585D01*
X119431666Y-77980219D01*
X119579540Y-77970527D01*
X119712447Y-77904984D01*
X119810156Y-77793569D01*
X119857790Y-77653243D01*
X119848099Y-77505369D01*
X118086989Y-70932821D01*
X124292677Y-69270010D01*
X127913197Y-82781967D01*
X127913336Y-82782249D01*
X127913357Y-82782561D01*
X127946130Y-82848748D01*
X127978741Y-82914875D01*
X127978975Y-82915080D01*
X127979115Y-82915363D01*
X128034828Y-82964063D01*
X128090156Y-83012584D01*
X128090453Y-83012685D01*
X128090689Y-83012891D01*
X138687842Y-89108316D01*
X138733835Y-89123846D01*
X138777278Y-89145510D01*
X138803419Y-89147340D01*
X138828246Y-89155723D01*
X138876683Y-89152470D01*
X138925107Y-89155860D01*
X138949956Y-89147548D01*
X138976103Y-89145792D01*
X139019606Y-89124251D01*
X139065644Y-89108852D01*
X143866245Y-86365649D01*
X143904372Y-86332511D01*
X143946370Y-86304449D01*
X143959821Y-86284318D01*
X143978094Y-86268436D01*
X144000636Y-86223233D01*
X144028700Y-86181233D01*
X144033423Y-86157488D01*
X144044228Y-86135822D01*
X144047756Y-86085432D01*
X144057611Y-86035890D01*
X144057614Y-80593385D01*
X145482520Y-82018292D01*
X145525273Y-82046859D01*
X145455499Y-82214894D01*
X145455289Y-82455498D01*
X145547170Y-82677868D01*
X145653794Y-82784678D01*
X145653794Y-89065576D01*
X145646186Y-89103824D01*
X145629474Y-89187835D01*
X145629475Y-89187839D01*
X145629474Y-89187843D01*
X145629474Y-89277929D01*
X140482862Y-94424541D01*
X138035356Y-94424541D01*
X138006783Y-94430224D01*
X131503518Y-90675564D01*
X131539431Y-90573263D01*
X131533489Y-90450044D01*
X131480077Y-90338845D01*
X131387611Y-90257187D01*
X130694791Y-89857187D01*
X130586345Y-89819117D01*
X130463126Y-89825059D01*
X130351927Y-89878471D01*
X130283533Y-89955918D01*
X124023969Y-86184751D01*
X124027355Y-86178887D01*
X124065425Y-86070441D01*
X124059483Y-85947222D01*
X124006071Y-85836023D01*
X123913605Y-85754365D01*
X123220785Y-85354365D01*
X123112339Y-85316295D01*
X122989120Y-85322237D01*
X122877921Y-85375649D01*
X122803758Y-85459628D01*
X116661938Y-81859251D01*
X116699432Y-81752445D01*
X116693490Y-81629226D01*
X116640078Y-81518027D01*
X116547612Y-81436369D01*
X115854792Y-81036369D01*
X115746346Y-80998299D01*
X115623127Y-81004241D01*
X115511928Y-81057653D01*
X115430270Y-81150119D01*
X115030270Y-81842939D01*
X114992200Y-81951385D01*
X114998142Y-82074604D01*
X115051554Y-82185803D01*
X115144020Y-82267461D01*
X115836840Y-82667461D01*
X115945286Y-82705531D01*
X116068505Y-82699589D01*
X116179704Y-82646177D01*
X116253868Y-82562197D01*
X122395688Y-86162574D01*
X122358193Y-86269381D01*
X122364135Y-86392600D01*
X122417547Y-86503799D01*
X122510013Y-86585457D01*
X123202833Y-86985457D01*
X123311279Y-87023527D01*
X123434498Y-87017585D01*
X123545697Y-86964173D01*
X123614091Y-86886726D01*
X129873655Y-90657892D01*
X129870269Y-90663757D01*
X129832199Y-90772203D01*
X129838141Y-90895422D01*
X129891553Y-91006621D01*
X129984019Y-91088279D01*
X130676839Y-91488279D01*
X130785285Y-91526349D01*
X130908504Y-91520407D01*
X131019703Y-91466995D01*
X131097039Y-91379424D01*
X135989792Y-94204256D01*
X135924223Y-94177029D01*
X135683619Y-94176819D01*
X135461249Y-94268700D01*
X135290967Y-94438685D01*
X135198698Y-94660894D01*
X135198488Y-94901498D01*
X135290369Y-95123868D01*
X135460354Y-95294150D01*
X135682563Y-95386419D01*
X135923167Y-95386629D01*
X136145537Y-95294748D01*
X136252347Y-95188124D01*
X136795135Y-95188124D01*
X137374697Y-95767686D01*
X137374566Y-95917498D01*
X137466447Y-96139868D01*
X137636432Y-96310150D01*
X137858641Y-96402419D01*
X138099245Y-96402629D01*
X138321615Y-96310748D01*
X138491897Y-96140763D01*
X138584166Y-95918554D01*
X138584376Y-95677950D01*
X138492495Y-95455580D01*
X138322510Y-95285298D01*
X138207016Y-95237341D01*
X140651198Y-95237341D01*
X140806721Y-95206406D01*
X140938566Y-95118309D01*
X146060204Y-89996671D01*
X146060204Y-96263072D01*
X145278565Y-97044711D01*
X145190468Y-97176556D01*
X145187810Y-97189918D01*
X145170700Y-97275941D01*
X145159533Y-97332080D01*
X145159534Y-98090128D01*
X145190469Y-98245650D01*
X145278566Y-98377495D01*
X146334162Y-99433091D01*
X146334165Y-99433093D01*
X146466006Y-99521188D01*
X146621529Y-99552123D01*
X146933394Y-99552124D01*
X146933396Y-99552124D01*
X147088918Y-99521189D01*
X147194725Y-99450491D01*
X147353168Y-99450629D01*
X147575538Y-99358748D01*
X147745820Y-99188763D01*
X147838089Y-98966554D01*
X147838299Y-98725950D01*
X147746418Y-98503580D01*
X147576433Y-98333298D01*
X147354224Y-98241029D01*
X147248872Y-98240937D01*
X149191310Y-96298498D01*
X153371478Y-96298498D01*
X153463359Y-96520868D01*
X153633344Y-96691150D01*
X153855553Y-96783419D01*
X154096157Y-96783629D01*
X154318527Y-96691748D01*
X154439768Y-96570718D01*
X154522868Y-96554189D01*
X154654713Y-96466092D01*
X156517182Y-94603623D01*
X159545895Y-94603623D01*
X159637776Y-94825993D01*
X159807761Y-94996275D01*
X160029970Y-95088544D01*
X160270574Y-95088754D01*
X160492944Y-94996873D01*
X160580060Y-94909909D01*
X160615185Y-94994919D01*
X160785170Y-95165201D01*
X161007379Y-95257470D01*
X161247983Y-95257680D01*
X161470353Y-95165799D01*
X161551890Y-95084404D01*
X161709633Y-95242422D01*
X161931842Y-95334691D01*
X162172446Y-95334901D01*
X162394816Y-95243020D01*
X162565098Y-95073035D01*
X162657367Y-94850826D01*
X162657568Y-94620949D01*
X162902123Y-94479756D01*
X162902125Y-94479755D01*
X166350730Y-92488706D01*
X166420863Y-92448215D01*
X166665861Y-92513859D01*
X166665863Y-92513860D01*
X166665865Y-92513860D01*
X166665868Y-92513861D01*
X166719053Y-92517347D01*
X166824093Y-92524232D01*
X166824096Y-92524231D01*
X166824098Y-92524231D01*
X166928799Y-92488689D01*
X166974247Y-92473261D01*
X166974248Y-92473260D01*
X166974252Y-92473259D01*
X166974255Y-92473256D01*
X168399987Y-91650113D01*
X168399990Y-91650112D01*
X168519208Y-91545560D01*
X168566346Y-91449972D01*
X168589340Y-91403345D01*
X168589340Y-91403344D01*
X168589341Y-91403342D01*
X168739119Y-90844353D01*
X173863650Y-87885705D01*
X174277221Y-87996520D01*
X174414707Y-88005531D01*
X174435449Y-88006891D01*
X174435451Y-88006891D01*
X174573124Y-87960156D01*
X174585603Y-87955920D01*
X175685454Y-87320924D01*
X175685455Y-87320923D01*
X175685456Y-87320923D01*
X175804675Y-87216371D01*
X175874808Y-87074154D01*
X176110149Y-86195842D01*
X181518333Y-83073431D01*
X181583151Y-83148904D01*
X181692832Y-83205368D01*
X181815840Y-83214711D01*
X181932791Y-83175462D01*
X182625611Y-82775462D01*
X182712803Y-82700580D01*
X182769267Y-82590899D01*
X182778610Y-82467891D01*
X182739361Y-82350940D01*
X182339361Y-81658120D01*
X182264479Y-81570928D01*
X182154798Y-81514464D01*
X182031790Y-81505121D01*
X181914839Y-81544370D01*
X181222019Y-81944370D01*
X181134827Y-82019252D01*
X181078363Y-82128933D01*
X181069020Y-82251941D01*
X181108269Y-82368892D01*
X181109459Y-82370954D01*
X175557964Y-85576105D01*
X175554490Y-85579152D01*
X175438744Y-85680657D01*
X175399119Y-85761011D01*
X175370155Y-85819747D01*
X175368612Y-85822875D01*
X175193703Y-86475648D01*
X174865359Y-85906939D01*
X174790477Y-85819747D01*
X174680796Y-85763283D01*
X174557788Y-85753940D01*
X174440837Y-85793189D01*
X173748017Y-86193189D01*
X173660825Y-86268071D01*
X173604361Y-86377752D01*
X173595018Y-86500760D01*
X173632189Y-86611518D01*
X167837946Y-89956826D01*
X167718727Y-90061378D01*
X167648594Y-90203595D01*
X167584926Y-90441208D01*
X167353355Y-90040116D01*
X167278473Y-89952924D01*
X167168792Y-89896460D01*
X167045784Y-89887117D01*
X166928833Y-89926366D01*
X166236013Y-90326366D01*
X166148821Y-90401248D01*
X166092357Y-90510929D01*
X166083014Y-90633937D01*
X166120186Y-90744699D01*
X164667771Y-91583249D01*
X164667768Y-91583252D01*
X161526921Y-93396622D01*
X161521909Y-93395279D01*
X161447715Y-93390418D01*
X161363689Y-93384910D01*
X161363682Y-93384912D01*
X161315424Y-93401294D01*
X161213535Y-93435881D01*
X160372917Y-93921212D01*
X160271630Y-93879154D01*
X160031026Y-93878944D01*
X159808656Y-93970825D01*
X159638374Y-94140810D01*
X159546105Y-94363019D01*
X159545895Y-94603623D01*
X156517182Y-94603623D01*
X156578965Y-94541840D01*
X156667062Y-94409995D01*
X156697997Y-94254472D01*
X156697997Y-93763844D01*
X158200853Y-93763844D01*
X158292734Y-93986214D01*
X158462719Y-94156496D01*
X158684928Y-94248765D01*
X158925532Y-94248975D01*
X159147902Y-94157094D01*
X159318184Y-93987109D01*
X159410453Y-93764900D01*
X159410501Y-93709557D01*
X165726506Y-90063009D01*
X165797145Y-90145260D01*
X165906826Y-90201724D01*
X166029834Y-90211067D01*
X166146785Y-90171818D01*
X166839605Y-89771818D01*
X166926797Y-89696936D01*
X166983261Y-89587255D01*
X166992604Y-89464247D01*
X166960185Y-89367647D01*
X173230188Y-85917825D01*
X173234267Y-85924891D01*
X173309149Y-86012083D01*
X173418830Y-86068547D01*
X173541838Y-86077890D01*
X173658789Y-86038641D01*
X174351609Y-85638641D01*
X174438801Y-85563759D01*
X174495265Y-85454078D01*
X174504608Y-85331070D01*
X174468974Y-85224891D01*
X180709369Y-81677353D01*
X180783151Y-81763264D01*
X180892832Y-81819728D01*
X181015840Y-81829071D01*
X181132791Y-81789822D01*
X181825611Y-81389822D01*
X181912803Y-81314940D01*
X181969267Y-81205259D01*
X181978610Y-81082251D01*
X181939361Y-80965300D01*
X181539361Y-80272480D01*
X181464479Y-80185288D01*
X181354798Y-80128824D01*
X181231790Y-80119481D01*
X181114839Y-80158730D01*
X180422019Y-80558730D01*
X180334827Y-80633612D01*
X180278363Y-80743293D01*
X180269020Y-80866301D01*
X180304651Y-80972470D01*
X174064252Y-84520011D01*
X173990477Y-84434107D01*
X173880796Y-84377643D01*
X173757788Y-84368300D01*
X173640837Y-84407549D01*
X172948017Y-84807549D01*
X172860825Y-84882431D01*
X172804361Y-84992112D01*
X172795018Y-85115120D01*
X172827436Y-85211716D01*
X166557433Y-88661539D01*
X166553355Y-88654476D01*
X166478473Y-88567284D01*
X166368792Y-88510820D01*
X166245784Y-88501477D01*
X166128833Y-88540726D01*
X165436013Y-88940726D01*
X165348821Y-89015608D01*
X165292357Y-89125289D01*
X165283014Y-89248297D01*
X165320185Y-89359057D01*
X158937698Y-93043988D01*
X158926588Y-93039375D01*
X158685984Y-93039165D01*
X158463614Y-93131046D01*
X158293332Y-93301031D01*
X158201063Y-93523240D01*
X158200853Y-93763844D01*
X156697997Y-93763844D01*
X156697997Y-93488150D01*
X156804023Y-93382309D01*
X156896292Y-93160100D01*
X156896502Y-92919496D01*
X156804621Y-92697126D01*
X156634636Y-92526844D01*
X156412427Y-92434575D01*
X156171823Y-92434365D01*
X155949453Y-92526246D01*
X155890041Y-92585554D01*
X155831434Y-92526845D01*
X155609225Y-92434576D01*
X155368621Y-92434366D01*
X155146251Y-92526247D01*
X155034116Y-92638187D01*
X154914934Y-92518797D01*
X154692725Y-92426528D01*
X154452121Y-92426318D01*
X154229751Y-92518199D01*
X154059469Y-92688184D01*
X153967200Y-92910393D01*
X153966990Y-93150997D01*
X154058871Y-93373367D01*
X154165495Y-93480177D01*
X154165494Y-93843613D01*
X154103167Y-93905832D01*
X154010898Y-94128041D01*
X154010688Y-94368645D01*
X154102569Y-94591015D01*
X154153555Y-94642090D01*
X154068757Y-94726740D01*
X153976488Y-94948949D01*
X153976278Y-95189553D01*
X154068159Y-95411923D01*
X154238144Y-95582205D01*
X154344829Y-95626504D01*
X154309256Y-95662077D01*
X154097213Y-95574029D01*
X153856609Y-95573819D01*
X153634239Y-95665700D01*
X153463957Y-95835685D01*
X153371688Y-96057894D01*
X153371478Y-96298498D01*
X149191310Y-96298498D01*
X153108761Y-92381047D01*
X153196858Y-92249202D01*
X153227793Y-92093679D01*
X153227794Y-82335724D01*
X153227793Y-79922725D01*
X153196858Y-79767202D01*
X153151306Y-79699029D01*
X153108761Y-79635356D01*
X152719793Y-79246389D01*
X152719794Y-72878604D01*
X152825820Y-72772763D01*
X152918089Y-72550554D01*
X152918299Y-72309950D01*
X152826418Y-72087580D01*
X152656433Y-71917298D01*
X152434224Y-71825029D01*
X152193620Y-71824819D01*
X151971250Y-71916700D01*
X151800968Y-72086685D01*
X151708699Y-72308894D01*
X151708489Y-72549498D01*
X151800370Y-72771868D01*
X151906994Y-72878678D01*
X151906993Y-79414725D01*
X151937928Y-79570248D01*
X151992476Y-79651884D01*
X152026025Y-79702093D01*
X152061034Y-79737102D01*
X151895051Y-79805685D01*
X151774713Y-79925813D01*
X151640433Y-79791298D01*
X151418224Y-79699029D01*
X151177620Y-79698819D01*
X151037422Y-79756747D01*
X151037424Y-70840303D01*
X151006489Y-70684780D01*
X150918392Y-70552935D01*
X149926215Y-69560758D01*
X149926214Y-69221093D01*
X149926215Y-63640383D01*
X149933275Y-63629817D01*
X149933279Y-63629799D01*
X149933290Y-63629782D01*
X149942817Y-63581861D01*
X149957812Y-63581861D01*
X150070764Y-63560608D01*
X150174504Y-63493853D01*
X150244099Y-63391997D01*
X150268583Y-63271090D01*
X150268583Y-62807955D01*
X153928466Y-66467838D01*
X153867699Y-66614180D01*
X153867489Y-66854784D01*
X153959370Y-67077154D01*
X154129355Y-67247436D01*
X154351564Y-67339705D01*
X154592168Y-67339915D01*
X154814538Y-67248034D01*
X154984820Y-67078049D01*
X155077089Y-66855840D01*
X155077299Y-66615236D01*
X154985418Y-66392866D01*
X154815433Y-66222584D01*
X154805819Y-66218592D01*
X154759761Y-66149661D01*
X150489022Y-61878922D01*
X150357177Y-61790825D01*
X150201654Y-61759890D01*
X147313972Y-61759890D01*
X147158449Y-61790825D01*
X147026604Y-61878922D01*
X144608340Y-64297186D01*
X144520243Y-64429031D01*
X144489308Y-64584554D01*
X144489307Y-67248212D01*
X144383281Y-67354053D01*
X144291012Y-67576262D01*
X144290802Y-67816866D01*
X144382683Y-68039236D01*
X144552668Y-68209518D01*
X144774877Y-68301787D01*
X144925798Y-68301919D01*
X145683994Y-69060114D01*
X145683993Y-75536845D01*
X145577967Y-75642686D01*
X145485698Y-75864895D01*
X145485488Y-76105499D01*
X145577369Y-76327869D01*
X145747354Y-76498151D01*
X145969563Y-76590420D01*
X146210167Y-76590630D01*
X146432537Y-76498749D01*
X146602819Y-76328764D01*
X146695088Y-76106555D01*
X146695298Y-75865951D01*
X146603417Y-75643581D01*
X146496793Y-75536771D01*
X146496794Y-68891778D01*
X146465859Y-68736255D01*
X146377762Y-68604410D01*
X145500481Y-67727130D01*
X145500612Y-67577318D01*
X145408731Y-67354948D01*
X145302107Y-67248138D01*
X145302108Y-64752890D01*
X147247041Y-62807957D01*
X147247041Y-63271090D01*
X147268294Y-63384042D01*
X147335049Y-63487782D01*
X147436905Y-63557377D01*
X147548195Y-63579914D01*
X147516630Y-70542922D01*
X147406860Y-70563576D01*
X147303120Y-70630331D01*
X147233525Y-70732187D01*
X147209041Y-70853094D01*
X147209041Y-71653094D01*
X147230294Y-71766046D01*
X147297049Y-71869786D01*
X147398905Y-71939381D01*
X147513415Y-71962570D01*
X147513413Y-79179527D01*
X147406860Y-79199576D01*
X147373606Y-79220974D01*
X147292232Y-79139458D01*
X147087119Y-79054288D01*
X147087272Y-78878499D01*
X146995391Y-78656129D01*
X146825406Y-78485847D01*
X146603197Y-78393578D01*
X146362593Y-78393368D01*
X146140223Y-78485249D01*
X146033413Y-78591873D01*
X144625939Y-78591873D01*
X144595005Y-78598026D01*
X144470417Y-78622807D01*
X144338571Y-78710904D01*
X144057614Y-78991861D01*
X144057617Y-73793095D01*
X144028706Y-73647752D01*
X143946376Y-73524536D01*
X134054933Y-63633095D01*
X138597811Y-59090210D01*
X143409256Y-63901656D01*
X143532472Y-63983986D01*
X143677815Y-64012897D01*
X143823158Y-63983986D01*
X143946374Y-63901656D01*
X144028704Y-63778440D01*
X144057615Y-63633097D01*
X144057615Y-58299095D01*
X147870017Y-58299095D01*
X147937597Y-58638841D01*
X148130047Y-58926864D01*
X148418070Y-59119314D01*
X148757816Y-59186894D01*
X149097562Y-59119314D01*
X149385585Y-58926864D01*
X149578035Y-58638841D01*
X149645615Y-58299095D01*
X149578035Y-57959349D01*
X149385585Y-57671326D01*
X149097562Y-57478876D01*
X148757816Y-57411296D01*
X148418070Y-57478876D01*
X148130047Y-57671326D01*
X147937597Y-57959349D01*
X147870017Y-58299095D01*
X144057615Y-58299095D01*
X144057615Y-56392895D01*
X153458017Y-56392894D01*
X153458011Y-63633095D01*
G36*
X149818212Y-79178323D02*
X149119812Y-79178323D01*
X149006860Y-79199576D01*
X148903120Y-79266331D01*
X148833525Y-79368187D01*
X148809041Y-79489094D01*
X148809041Y-80289094D01*
X148830294Y-80402046D01*
X148897049Y-80505786D01*
X148998905Y-80575381D01*
X149113414Y-80598569D01*
X149113413Y-85656992D01*
X149027766Y-85742638D01*
X149010789Y-85768046D01*
X148939668Y-85874485D01*
X148919373Y-85976515D01*
X148909329Y-86027013D01*
X148908733Y-86030008D01*
X148908734Y-87050010D01*
X148772507Y-87185999D01*
X148680238Y-87408208D01*
X148680028Y-87648812D01*
X148771909Y-87871182D01*
X148941894Y-88041464D01*
X149164103Y-88133733D01*
X149404707Y-88133943D01*
X149627077Y-88042062D01*
X149797359Y-87872077D01*
X149889628Y-87649868D01*
X149889838Y-87409264D01*
X149874357Y-87371798D01*
X150039705Y-87371942D01*
X150262075Y-87280061D01*
X150432357Y-87110076D01*
X150524626Y-86887867D01*
X150524758Y-86736813D01*
X150674708Y-86736944D01*
X150897078Y-86645063D01*
X151067360Y-86475078D01*
X151159629Y-86252869D01*
X151159839Y-86012265D01*
X151067958Y-85789895D01*
X150897973Y-85619613D01*
X150739033Y-85553615D01*
X150739032Y-81089361D01*
X150918391Y-80910001D01*
X150975292Y-80824844D01*
X151017993Y-80842575D01*
X151017993Y-82013844D01*
X150911967Y-82119685D01*
X150819698Y-82341894D01*
X150819488Y-82582498D01*
X150911369Y-82804868D01*
X151081354Y-82975150D01*
X151303563Y-83067419D01*
X151544167Y-83067629D01*
X151766537Y-82975748D01*
X151936819Y-82805763D01*
X152029088Y-82583554D01*
X152029298Y-82342950D01*
X151937417Y-82120580D01*
X151830793Y-82013770D01*
X151830793Y-80767661D01*
X151836927Y-80773806D01*
X151861729Y-80898496D01*
X151949826Y-81030342D01*
X152033993Y-81114509D01*
X152033993Y-91184388D01*
X151741826Y-91476555D01*
X151741824Y-91476558D01*
X146873004Y-96345379D01*
X146873003Y-89253182D01*
X146888290Y-89268495D01*
X147110499Y-89360764D01*
X147351103Y-89360974D01*
X147573473Y-89269093D01*
X147743755Y-89099108D01*
X147836024Y-88876899D01*
X147836156Y-88725980D01*
X148207178Y-88354959D01*
X148222545Y-88331962D01*
X148236410Y-88311211D01*
X148295276Y-88223114D01*
X148307114Y-88163598D01*
X148326211Y-88067590D01*
X148326211Y-80598661D01*
X148432764Y-80578612D01*
X148536504Y-80511857D01*
X148606099Y-80410001D01*
X148630583Y-80289094D01*
X148630583Y-79489094D01*
X148609330Y-79376142D01*
X148542575Y-79272402D01*
X148440719Y-79202807D01*
X148326213Y-79179619D01*
X148326214Y-76409856D01*
X148414355Y-76498151D01*
X148636564Y-76590420D01*
X148877168Y-76590630D01*
X149099538Y-76498749D01*
X149269820Y-76328764D01*
X149362089Y-76106555D01*
X149362221Y-75955635D01*
X149624179Y-75693677D01*
X149712276Y-75561832D01*
X149743211Y-75406309D01*
X149743209Y-72977488D01*
X149818212Y-72902616D01*
X149818212Y-79178323D01*
X149818212Y-79178323D01*
G37*
X149818212Y-79178323D02*
X149119812Y-79178323D01*
X149006860Y-79199576D01*
X148903120Y-79266331D01*
X148833525Y-79368187D01*
X148809041Y-79489094D01*
X148809041Y-80289094D01*
X148830294Y-80402046D01*
X148897049Y-80505786D01*
X148998905Y-80575381D01*
X149113414Y-80598569D01*
X149113413Y-85656992D01*
X149027766Y-85742638D01*
X149010789Y-85768046D01*
X148939668Y-85874485D01*
X148919373Y-85976515D01*
X148909329Y-86027013D01*
X148908733Y-86030008D01*
X148908734Y-87050010D01*
X148772507Y-87185999D01*
X148680238Y-87408208D01*
X148680028Y-87648812D01*
X148771909Y-87871182D01*
X148941894Y-88041464D01*
X149164103Y-88133733D01*
X149404707Y-88133943D01*
X149627077Y-88042062D01*
X149797359Y-87872077D01*
X149889628Y-87649868D01*
X149889838Y-87409264D01*
X149874357Y-87371798D01*
X150039705Y-87371942D01*
X150262075Y-87280061D01*
X150432357Y-87110076D01*
X150524626Y-86887867D01*
X150524758Y-86736813D01*
X150674708Y-86736944D01*
X150897078Y-86645063D01*
X151067360Y-86475078D01*
X151159629Y-86252869D01*
X151159839Y-86012265D01*
X151067958Y-85789895D01*
X150897973Y-85619613D01*
X150739033Y-85553615D01*
X150739032Y-81089361D01*
X150918391Y-80910001D01*
X150975292Y-80824844D01*
X151017993Y-80842575D01*
X151017993Y-82013844D01*
X150911967Y-82119685D01*
X150819698Y-82341894D01*
X150819488Y-82582498D01*
X150911369Y-82804868D01*
X151081354Y-82975150D01*
X151303563Y-83067419D01*
X151544167Y-83067629D01*
X151766537Y-82975748D01*
X151936819Y-82805763D01*
X152029088Y-82583554D01*
X152029298Y-82342950D01*
X151937417Y-82120580D01*
X151830793Y-82013770D01*
X151830793Y-80767661D01*
X151836927Y-80773806D01*
X151861729Y-80898496D01*
X151949826Y-81030342D01*
X152033993Y-81114509D01*
X152033993Y-91184388D01*
X151741826Y-91476555D01*
X151741824Y-91476558D01*
X146873004Y-96345379D01*
X146873003Y-89253182D01*
X146888290Y-89268495D01*
X147110499Y-89360764D01*
X147351103Y-89360974D01*
X147573473Y-89269093D01*
X147743755Y-89099108D01*
X147836024Y-88876899D01*
X147836156Y-88725980D01*
X148207178Y-88354959D01*
X148222545Y-88331962D01*
X148236410Y-88311211D01*
X148295276Y-88223114D01*
X148307114Y-88163598D01*
X148326211Y-88067590D01*
X148326211Y-80598661D01*
X148432764Y-80578612D01*
X148536504Y-80511857D01*
X148606099Y-80410001D01*
X148630583Y-80289094D01*
X148630583Y-79489094D01*
X148609330Y-79376142D01*
X148542575Y-79272402D01*
X148440719Y-79202807D01*
X148326213Y-79179619D01*
X148326214Y-76409856D01*
X148414355Y-76498151D01*
X148636564Y-76590420D01*
X148877168Y-76590630D01*
X149099538Y-76498749D01*
X149269820Y-76328764D01*
X149362089Y-76106555D01*
X149362221Y-75955635D01*
X149624179Y-75693677D01*
X149712276Y-75561832D01*
X149743211Y-75406309D01*
X149743209Y-72977488D01*
X149818212Y-72902616D01*
X149818212Y-79178323D01*
M02*
