G04 #@! TF.FileFunction,Soldermask,Bot*
%FSLAX46Y46*%
G04 Gerber Fmt 4.6, Leading zero omitted, Abs format (unit mm)*
G04 Created by KiCad (PCBNEW 4.0.5+dfsg1-4) date Tue Nov  6 22:38:28 2018*
%MOMM*%
%LPD*%
G01*
G04 APERTURE LIST*
%ADD10C,0.100000*%
%ADD11R,3.000000X3.400000*%
%ADD12R,4.000000X3.400000*%
%ADD13R,1.924000X1.924000*%
%ADD14R,0.900000X1.300000*%
%ADD15R,2.400000X3.400000*%
%ADD16C,1.300000*%
G04 APERTURE END LIST*
D10*
D11*
X149034532Y-89714086D03*
D12*
X149034532Y-111151686D03*
D10*
G36*
X145685204Y-85664706D02*
X146498376Y-84851534D01*
X147346904Y-85700062D01*
X146533732Y-86513234D01*
X145685204Y-85664706D01*
X145685204Y-85664706D01*
G37*
G36*
X144624544Y-84604046D02*
X145437716Y-83790874D01*
X146286244Y-84639402D01*
X145473072Y-85452574D01*
X144624544Y-84604046D01*
X144624544Y-84604046D01*
G37*
G36*
X154646333Y-67692440D02*
X153833161Y-68505612D01*
X152984633Y-67657084D01*
X153797805Y-66843912D01*
X154646333Y-67692440D01*
X154646333Y-67692440D01*
G37*
G36*
X155706993Y-68753100D02*
X154893821Y-69566272D01*
X154045293Y-68717744D01*
X154858465Y-67904572D01*
X155706993Y-68753100D01*
X155706993Y-68753100D01*
G37*
D13*
X146090393Y-77255726D03*
X148630393Y-77255726D03*
X148630393Y-74715726D03*
X146090393Y-74715726D03*
X151170393Y-77255726D03*
X151170393Y-74715726D03*
D14*
X139982394Y-97575724D03*
X138482394Y-97575724D03*
X139982394Y-99226724D03*
X138482394Y-99226724D03*
X139994394Y-100877724D03*
X138494394Y-100877724D03*
D15*
X146979813Y-67697093D03*
X150379813Y-67697093D03*
D14*
X151563811Y-70491095D03*
X153063811Y-70491095D03*
D10*
G36*
X139256353Y-67148907D02*
X138124982Y-66017536D01*
X139256353Y-64886165D01*
X140387724Y-66017536D01*
X139256353Y-67148907D01*
X139256353Y-67148907D01*
G37*
G36*
X141236252Y-65169008D02*
X140104881Y-64037637D01*
X141236252Y-62906266D01*
X142367623Y-64037637D01*
X141236252Y-65169008D01*
X141236252Y-65169008D01*
G37*
G36*
X142501973Y-68697470D02*
X141158470Y-67353967D01*
X142572683Y-65939754D01*
X143916186Y-67283257D01*
X142501973Y-68697470D01*
X142501973Y-68697470D01*
G37*
G36*
X156882836Y-63582106D02*
X157625298Y-64324568D01*
X156592922Y-65356944D01*
X155850460Y-64614482D01*
X156882836Y-63582106D01*
X156882836Y-63582106D01*
G37*
G36*
X157554587Y-64253858D02*
X158297049Y-64996320D01*
X157264673Y-66028696D01*
X156522211Y-65286234D01*
X157554587Y-64253858D01*
X157554587Y-64253858D01*
G37*
G36*
X158226339Y-64925609D02*
X158968801Y-65668071D01*
X157936425Y-66700447D01*
X157193963Y-65957985D01*
X158226339Y-64925609D01*
X158226339Y-64925609D01*
G37*
G36*
X156670704Y-66481244D02*
X157413166Y-67223706D01*
X156380790Y-68256082D01*
X155638328Y-67513620D01*
X156670704Y-66481244D01*
X156670704Y-66481244D01*
G37*
G36*
X155327201Y-65137741D02*
X156069663Y-65880203D01*
X155037287Y-66912579D01*
X154294825Y-66170117D01*
X155327201Y-65137741D01*
X155327201Y-65137741D01*
G37*
G36*
X151438540Y-83281110D02*
X150943565Y-83776085D01*
X150144534Y-82977054D01*
X150639509Y-82482079D01*
X151438540Y-83281110D01*
X151438540Y-83281110D01*
G37*
G36*
X151084986Y-83634663D02*
X150590011Y-84129638D01*
X149790980Y-83330607D01*
X150285955Y-82835632D01*
X151084986Y-83634663D01*
X151084986Y-83634663D01*
G37*
G36*
X150731433Y-83988217D02*
X150236458Y-84483192D01*
X149437427Y-83684161D01*
X149932402Y-83189186D01*
X150731433Y-83988217D01*
X150731433Y-83988217D01*
G37*
G36*
X150377879Y-84341770D02*
X149882904Y-84836745D01*
X149083873Y-84037714D01*
X149578848Y-83542739D01*
X150377879Y-84341770D01*
X150377879Y-84341770D01*
G37*
G36*
X150024326Y-84695324D02*
X149529351Y-85190299D01*
X148730320Y-84391268D01*
X149225295Y-83896293D01*
X150024326Y-84695324D01*
X150024326Y-84695324D01*
G37*
G36*
X147860579Y-85190299D02*
X147365604Y-84695324D01*
X148164635Y-83896293D01*
X148659610Y-84391268D01*
X147860579Y-85190299D01*
X147860579Y-85190299D01*
G37*
G36*
X147507026Y-84836745D02*
X147012051Y-84341770D01*
X147811082Y-83542739D01*
X148306057Y-84037714D01*
X147507026Y-84836745D01*
X147507026Y-84836745D01*
G37*
G36*
X147153472Y-84483192D02*
X146658497Y-83988217D01*
X147457528Y-83189186D01*
X147952503Y-83684161D01*
X147153472Y-84483192D01*
X147153472Y-84483192D01*
G37*
G36*
X146799919Y-84129638D02*
X146304944Y-83634663D01*
X147103975Y-82835632D01*
X147598950Y-83330607D01*
X146799919Y-84129638D01*
X146799919Y-84129638D01*
G37*
G36*
X146446365Y-83776085D02*
X145951390Y-83281110D01*
X146750421Y-82482079D01*
X147245396Y-82977054D01*
X146446365Y-83776085D01*
X146446365Y-83776085D01*
G37*
G36*
X147245396Y-81916394D02*
X146750421Y-82411369D01*
X145951390Y-81612338D01*
X146446365Y-81117363D01*
X147245396Y-81916394D01*
X147245396Y-81916394D01*
G37*
G36*
X147598950Y-81562841D02*
X147103975Y-82057816D01*
X146304944Y-81258785D01*
X146799919Y-80763810D01*
X147598950Y-81562841D01*
X147598950Y-81562841D01*
G37*
G36*
X147952503Y-81209287D02*
X147457528Y-81704262D01*
X146658497Y-80905231D01*
X147153472Y-80410256D01*
X147952503Y-81209287D01*
X147952503Y-81209287D01*
G37*
G36*
X148306057Y-80855734D02*
X147811082Y-81350709D01*
X147012051Y-80551678D01*
X147507026Y-80056703D01*
X148306057Y-80855734D01*
X148306057Y-80855734D01*
G37*
G36*
X148659610Y-80502180D02*
X148164635Y-80997155D01*
X147365604Y-80198124D01*
X147860579Y-79703149D01*
X148659610Y-80502180D01*
X148659610Y-80502180D01*
G37*
G36*
X149225295Y-80997155D02*
X148730320Y-80502180D01*
X149529351Y-79703149D01*
X150024326Y-80198124D01*
X149225295Y-80997155D01*
X149225295Y-80997155D01*
G37*
G36*
X149578848Y-81350709D02*
X149083873Y-80855734D01*
X149882904Y-80056703D01*
X150377879Y-80551678D01*
X149578848Y-81350709D01*
X149578848Y-81350709D01*
G37*
G36*
X149932402Y-81704262D02*
X149437427Y-81209287D01*
X150236458Y-80410256D01*
X150731433Y-80905231D01*
X149932402Y-81704262D01*
X149932402Y-81704262D01*
G37*
G36*
X150285955Y-82057816D02*
X149790980Y-81562841D01*
X150590011Y-80763810D01*
X151084986Y-81258785D01*
X150285955Y-82057816D01*
X150285955Y-82057816D01*
G37*
G36*
X150639509Y-82411369D02*
X150144534Y-81916394D01*
X150943565Y-81117363D01*
X151438540Y-81612338D01*
X150639509Y-82411369D01*
X150639509Y-82411369D01*
G37*
G36*
X148977808Y-82446724D02*
X147811082Y-83613450D01*
X146644356Y-82446724D01*
X147811082Y-81279998D01*
X148977808Y-82446724D01*
X148977808Y-82446724D01*
G37*
G36*
X149861691Y-81562841D02*
X148694965Y-82729567D01*
X147528239Y-81562841D01*
X148694965Y-80396115D01*
X149861691Y-81562841D01*
X149861691Y-81562841D01*
G37*
G36*
X149861691Y-83330607D02*
X148694965Y-84497333D01*
X147528239Y-83330607D01*
X148694965Y-82163881D01*
X149861691Y-83330607D01*
X149861691Y-83330607D01*
G37*
G36*
X150745574Y-82446724D02*
X149578848Y-83613450D01*
X148412122Y-82446724D01*
X149578848Y-81279998D01*
X150745574Y-82446724D01*
X150745574Y-82446724D01*
G37*
D16*
X134855291Y-88278648D03*
X131355291Y-94340826D03*
D10*
G36*
X133918688Y-89700891D02*
X131840228Y-88500891D01*
X132440228Y-87461661D01*
X134518688Y-88661661D01*
X133918688Y-89700891D01*
X133918688Y-89700891D01*
G37*
G36*
X132718688Y-91779352D02*
X130640228Y-90579352D01*
X131240228Y-89540122D01*
X133318688Y-90740122D01*
X132718688Y-91779352D01*
X132718688Y-91779352D01*
G37*
G36*
X131518688Y-93857813D02*
X129440228Y-92657813D01*
X130040228Y-91618583D01*
X132118688Y-92818583D01*
X131518688Y-93857813D01*
X131518688Y-93857813D01*
G37*
M02*
