G04 #@! TF.FileFunction,Soldermask,Top*
%FSLAX46Y46*%
G04 Gerber Fmt 4.6, Leading zero omitted, Abs format (unit mm)*
G04 Created by KiCad (PCBNEW 4.0.5+dfsg1-4) date Tue Nov  6 22:38:28 2018*
%MOMM*%
%LPD*%
G01*
G04 APERTURE LIST*
%ADD10C,0.100000*%
%ADD11R,1.200000X1.200000*%
%ADD12C,1.300000*%
G04 APERTURE END LIST*
D10*
G36*
X165318194Y-89136657D02*
X166357424Y-88536657D01*
X166957424Y-89575887D01*
X165918194Y-90175887D01*
X165318194Y-89136657D01*
X165318194Y-89136657D01*
G37*
G36*
X166118194Y-90522297D02*
X167157424Y-89922297D01*
X167757424Y-90961527D01*
X166718194Y-91561527D01*
X166118194Y-90522297D01*
X166118194Y-90522297D01*
G37*
G36*
X166972199Y-109110658D02*
X168011429Y-109710658D01*
X167411429Y-110749888D01*
X166372199Y-110149888D01*
X166972199Y-109110658D01*
X166972199Y-109110658D01*
G37*
G36*
X166172199Y-110496298D02*
X167211429Y-111096298D01*
X166611429Y-112135528D01*
X165572199Y-111535528D01*
X166172199Y-110496298D01*
X166172199Y-110496298D01*
G37*
D11*
X149557816Y-121037093D03*
X147957816Y-121037093D03*
D10*
G36*
X131943430Y-111535528D02*
X130904200Y-112135528D01*
X130304200Y-111096298D01*
X131343430Y-110496298D01*
X131943430Y-111535528D01*
X131943430Y-111535528D01*
G37*
G36*
X131143430Y-110149888D02*
X130104200Y-110749888D01*
X129504200Y-109710658D01*
X130543430Y-109110658D01*
X131143430Y-110149888D01*
X131143430Y-110149888D01*
G37*
G36*
X130905430Y-91492348D02*
X129866200Y-90892348D01*
X130466200Y-89853118D01*
X131505430Y-90453118D01*
X130905430Y-91492348D01*
X130905430Y-91492348D01*
G37*
G36*
X131705430Y-90106708D02*
X130666200Y-89506708D01*
X131266200Y-88467478D01*
X132305430Y-89067478D01*
X131705430Y-90106708D01*
X131705430Y-90106708D01*
G37*
D11*
X147919812Y-79889094D03*
X149519812Y-79889094D03*
D10*
G36*
X172830198Y-85003480D02*
X173869428Y-84403480D01*
X174469428Y-85442710D01*
X173430198Y-86042710D01*
X172830198Y-85003480D01*
X172830198Y-85003480D01*
G37*
G36*
X173630198Y-86389120D02*
X174669428Y-85789120D01*
X175269428Y-86828350D01*
X174230198Y-87428350D01*
X173630198Y-86389120D01*
X173630198Y-86389120D01*
G37*
G36*
X174446196Y-113359480D02*
X175485426Y-113959480D01*
X174885426Y-114998710D01*
X173846196Y-114398710D01*
X174446196Y-113359480D01*
X174446196Y-113359480D01*
G37*
G36*
X173646196Y-114745120D02*
X174685426Y-115345120D01*
X174085426Y-116384350D01*
X173046196Y-115784350D01*
X173646196Y-114745120D01*
X173646196Y-114745120D01*
G37*
D11*
X149557813Y-129673092D03*
X147957813Y-129673092D03*
D10*
G36*
X124623229Y-115932858D02*
X123583999Y-116532858D01*
X122983999Y-115493628D01*
X124023229Y-114893628D01*
X124623229Y-115932858D01*
X124623229Y-115932858D01*
G37*
G36*
X123823229Y-114547218D02*
X122783999Y-115147218D01*
X122183999Y-114107988D01*
X123223229Y-113507988D01*
X123823229Y-114547218D01*
X123823229Y-114547218D01*
G37*
G36*
X123431424Y-86989526D02*
X122392194Y-86389526D01*
X122992194Y-85350296D01*
X124031424Y-85950296D01*
X123431424Y-86989526D01*
X123431424Y-86989526D01*
G37*
G36*
X124231424Y-85603886D02*
X123192194Y-85003886D01*
X123792194Y-83964656D01*
X124831424Y-84564656D01*
X124231424Y-85603886D01*
X124231424Y-85603886D01*
G37*
D11*
X147919812Y-71253094D03*
X149519812Y-71253094D03*
D10*
G36*
X180304200Y-80754661D02*
X181343430Y-80154661D01*
X181943430Y-81193891D01*
X180904200Y-81793891D01*
X180304200Y-80754661D01*
X180304200Y-80754661D01*
G37*
G36*
X181104200Y-82140301D02*
X182143430Y-81540301D01*
X182743430Y-82579531D01*
X181704200Y-83179531D01*
X181104200Y-82140301D01*
X181104200Y-82140301D01*
G37*
G36*
X182212199Y-118000661D02*
X183251429Y-118600661D01*
X182651429Y-119639891D01*
X181612199Y-119039891D01*
X182212199Y-118000661D01*
X182212199Y-118000661D01*
G37*
G36*
X181412199Y-119386301D02*
X182451429Y-119986301D01*
X181851429Y-121025531D01*
X180812199Y-120425531D01*
X181412199Y-119386301D01*
X181412199Y-119386301D01*
G37*
D11*
X149557815Y-139071094D03*
X147957815Y-139071094D03*
D10*
G36*
X116703426Y-120679526D02*
X115664196Y-121279526D01*
X115064196Y-120240296D01*
X116103426Y-119640296D01*
X116703426Y-120679526D01*
X116703426Y-120679526D01*
G37*
G36*
X115903426Y-119293886D02*
X114864196Y-119893886D01*
X114264196Y-118854656D01*
X115303426Y-118254656D01*
X115903426Y-119293886D01*
X115903426Y-119293886D01*
G37*
G36*
X116065431Y-82671530D02*
X115026201Y-82071530D01*
X115626201Y-81032300D01*
X116665431Y-81632300D01*
X116065431Y-82671530D01*
X116065431Y-82671530D01*
G37*
G36*
X116865431Y-81285890D02*
X115826201Y-80685890D01*
X116426201Y-79646660D01*
X117465431Y-80246660D01*
X116865431Y-81285890D01*
X116865431Y-81285890D01*
G37*
D11*
X147957812Y-62871090D03*
X149557812Y-62871090D03*
D12*
X134855291Y-88278648D03*
X131355291Y-94340826D03*
M02*
