G04 #@! TF.FileFunction,Profile,NP*
%FSLAX46Y46*%
G04 Gerber Fmt 4.6, Leading zero omitted, Abs format (unit mm)*
G04 Created by KiCad (PCBNEW 4.0.5+dfsg1-4) date Tue Nov  6 22:38:28 2018*
%MOMM*%
%LPD*%
G01*
G04 APERTURE LIST*
%ADD10C,0.100000*%
%ADD11C,0.150000*%
G04 APERTURE END LIST*
D10*
D11*
X149265815Y-58299095D02*
G75*
G03X149265815Y-58299095I-507999J0D01*
G01*
X163820014Y-97542091D02*
X163870815Y-103231695D01*
X153837812Y-115042694D02*
X158892412Y-112096290D01*
X138623215Y-112096293D02*
X143677812Y-115042694D01*
X133695613Y-97542090D02*
X133644812Y-103231694D01*
X138877210Y-88779093D02*
X143677811Y-86035890D01*
X153837812Y-86061294D02*
X158638415Y-88804492D01*
X189714004Y-118153788D02*
X184634006Y-126952609D01*
X178034892Y-123142605D02*
X179894297Y-130082015D01*
X172954892Y-131941423D02*
X169236075Y-118062608D01*
X179894297Y-130082015D02*
X172954892Y-131941423D01*
X178034892Y-123142605D02*
X184634006Y-126952609D01*
X174316071Y-109263789D02*
X163870815Y-103231695D01*
X188194893Y-105544972D02*
X174316071Y-109263789D01*
X183114889Y-114343786D02*
X190054301Y-112484382D01*
X183114889Y-114343786D02*
X189714004Y-118153788D01*
X158892412Y-112096290D02*
X169236075Y-118062608D01*
X190054301Y-112484382D02*
X188194893Y-105544972D01*
X163999165Y-137111838D02*
X153839163Y-126951842D01*
X153839163Y-137111839D02*
X158919168Y-142191843D01*
X143679160Y-137111839D02*
X143679162Y-144731834D01*
X158919168Y-142191843D02*
X163999165Y-137111838D01*
X153839163Y-137111839D02*
X153839163Y-144731839D01*
X153839163Y-144731839D02*
X143679162Y-144731834D01*
X143679160Y-137111839D02*
X138599161Y-142191841D01*
X153839163Y-126951842D02*
X153837812Y-115042694D01*
X138599161Y-142191841D02*
X133519162Y-137111836D01*
X143677812Y-115042694D02*
X143679162Y-126951840D01*
X133519162Y-137111836D02*
X143679162Y-126951840D01*
X124561834Y-131940784D02*
X128280650Y-118061968D01*
X112882717Y-126951969D02*
X107802719Y-118153151D01*
X119481829Y-123141969D02*
X117622420Y-130081381D01*
X117622420Y-130081381D02*
X124561834Y-131940784D01*
X119481829Y-123141969D02*
X112882717Y-126951969D01*
X114401828Y-114343153D02*
X107802719Y-118153151D01*
X114401828Y-114343153D02*
X107462425Y-112483740D01*
X109321833Y-105544331D02*
X123200649Y-109263151D01*
X133644812Y-103231694D02*
X123200649Y-109263151D01*
X107462425Y-112483740D02*
X109321833Y-105544331D01*
X128280650Y-118061968D02*
X138623215Y-112096293D01*
X183115645Y-86403563D02*
X190055056Y-88262969D01*
X163820014Y-97542091D02*
X174316825Y-91483562D01*
X169236828Y-82684746D02*
X158638415Y-88804492D01*
X188195646Y-95202380D02*
X174316825Y-91483562D01*
X190055056Y-88262969D02*
X188195646Y-95202380D01*
X178035646Y-77604742D02*
X184634760Y-73794741D01*
X178035646Y-77604742D02*
X179895054Y-70665331D01*
X172955645Y-68805922D02*
X169236828Y-82684746D01*
X183115645Y-86403563D02*
X189714755Y-82593563D01*
X179895054Y-70665331D02*
X172955645Y-68805922D01*
X184634760Y-73794741D02*
X189714755Y-82593563D01*
X119481240Y-77603669D02*
X112882126Y-73793671D01*
X124561236Y-68804851D02*
X128280056Y-82683668D01*
X117621830Y-70664262D02*
X124561236Y-68804851D01*
X119481240Y-77603669D02*
X117621830Y-70664262D01*
X123200056Y-91482486D02*
X133695613Y-97542090D01*
X138877210Y-88779093D02*
X128280056Y-82683668D01*
X109321238Y-95201306D02*
X123200056Y-91482486D01*
X107802130Y-82592492D02*
X112882126Y-73793671D01*
X107461831Y-88261897D02*
X109321238Y-95201306D01*
X114401238Y-86402488D02*
X107461831Y-88261897D01*
X114401238Y-86402488D02*
X107802130Y-82592492D01*
X153837811Y-63633097D02*
X153837817Y-56013094D01*
X143677817Y-73793095D02*
X143677811Y-86035890D01*
X133517815Y-63633095D02*
X143677817Y-73793095D01*
X138597811Y-58553092D02*
X133517815Y-63633095D01*
X143677815Y-63633097D02*
X138597811Y-58553092D01*
X163997815Y-63633093D02*
X153837813Y-73793092D01*
X158917812Y-58553094D02*
X163997815Y-63633093D01*
X153837811Y-63633097D02*
X158917812Y-58553094D01*
X153837812Y-86061294D02*
X153837813Y-73793092D01*
X143677815Y-56013095D02*
X153837817Y-56013094D01*
X143677815Y-63633097D02*
X143677815Y-56013095D01*
M02*
