M48
;DRILL file {KiCad 4.0.5+dfsg1-4} date Tue Nov  6 22:38:30 2018
;FORMAT={-:-/ absolute / inch / decimal}
FMAT,2
INCH,TZ
T1C0.016
%
G90
G05
M72
T1
X5.3324Y-4.1625
X5.3466Y-3.7316
X5.3686Y-3.9716
X5.37Y-4.1676
X5.3816Y-3.9066
X5.4085Y-4.1742
X5.4097Y-3.6038
X5.4253Y-3.6367
X5.4323Y-3.7716
X5.4323Y-3.9066
X5.4323Y-3.9716
X5.4388Y-3.6734
X5.4516Y-2.5666
X5.4589Y-4.2086
X5.6766Y-2.9666
X5.6766Y-3.0066
X5.6766Y-3.0466
X5.6766Y-3.0866
X5.7028Y-3.1366
X5.7046Y-2.6652
X5.7504Y-3.2416
X5.7513Y-3.1768
X5.7516Y-2.9916
X5.7548Y-3.8434
X5.767Y-3.1102
X5.7733Y-3.869
X5.7853Y-4.5121
X5.7854Y-3.1359
X5.7965Y-3.4943
X5.7966Y-3.5316
X5.7966Y-3.5766
X5.7966Y-3.8916
X5.8075Y-4.4821
X5.8316Y-3.6116
X5.8325Y-4.4549
X5.8416Y-4.2966
X5.8541Y-3.2111
X5.8541Y-3.2807
X5.8566Y-2.9916
X5.8666Y-3.6116
X5.8774Y-3.446
X5.8794Y-2.8555
X5.8913Y-4.2966
X5.9024Y-3.416
X5.9274Y-3.391
X5.9542Y-3.0966
X5.9566Y-3.1616
X5.9616Y-3.2466
X5.9617Y-4.408
X5.9766Y-3.2916
X5.9936Y-3.1622
X5.9966Y-2.8516
X6.0316Y-2.9666
X6.0316Y-3.0066
X6.0316Y-3.0466
X6.0316Y-3.0866
X6.0621Y-3.7866
X6.0816Y-2.6274
X6.0855Y-3.6626
X6.0859Y-3.7429
X6.0872Y-3.7106
X6.1216Y-2.7316
X6.1216Y-3.663
X6.1532Y-3.663
X6.2316Y-2.5316
X6.2522Y-3.6868
X6.2789Y-4.2245
X6.2813Y-4.1639
X6.2949Y-4.2568
X6.3051Y-3.7198
X6.3108Y-4.2892
X6.3436Y-3.7265
X6.38Y-3.7295
T0
M30
