G04 #@! TF.FileFunction,Soldermask,Bot*
%FSLAX46Y46*%
G04 Gerber Fmt 4.6, Leading zero omitted, Abs format (unit mm)*
G04 Created by KiCad (PCBNEW 4.0.5+dfsg1-4) date Mon Jul 16 10:11:37 2018*
%MOMM*%
%LPD*%
G01*
G04 APERTURE LIST*
%ADD10C,0.100000*%
%ADD11R,2.000000X2.800000*%
%ADD12O,2.000000X2.800000*%
%ADD13C,2.000000*%
%ADD14C,1.920000*%
%ADD15O,4.400000X3.400000*%
%ADD16R,3.900000X3.900000*%
%ADD17R,2.100000X2.100000*%
%ADD18O,2.100000X2.100000*%
%ADD19O,2.000000X2.000000*%
%ADD20C,2.400000*%
%ADD21R,2.800000X2.000000*%
%ADD22O,2.800000X2.000000*%
%ADD23C,1.900000*%
%ADD24R,2.200000X2.200000*%
%ADD25C,2.200000*%
%ADD26R,1.920000X1.920000*%
%ADD27O,2.200000X2.200000*%
%ADD28R,2.800000X2.800000*%
%ADD29O,2.800000X2.800000*%
G04 APERTURE END LIST*
D10*
D11*
X170434000Y-58166000D03*
D12*
X137414000Y-65786000D03*
X167894000Y-58166000D03*
X139954000Y-65786000D03*
X165354000Y-58166000D03*
X142494000Y-65786000D03*
X162814000Y-58166000D03*
X145034000Y-65786000D03*
X160274000Y-58166000D03*
X147574000Y-65786000D03*
X157734000Y-58166000D03*
X150114000Y-65786000D03*
X155194000Y-58166000D03*
X152654000Y-65786000D03*
X152654000Y-58166000D03*
X155194000Y-65786000D03*
X150114000Y-58166000D03*
X157734000Y-65786000D03*
X147574000Y-58166000D03*
X160274000Y-65786000D03*
X145034000Y-58166000D03*
X162814000Y-65786000D03*
X142494000Y-58166000D03*
X165354000Y-65786000D03*
X139954000Y-58166000D03*
X167894000Y-65786000D03*
X137414000Y-58166000D03*
X170434000Y-65786000D03*
D13*
X157226000Y-54356000D03*
X157226000Y-51856000D03*
X126452000Y-76327000D03*
X123952000Y-76327000D03*
X141732000Y-46315000D03*
X141732000Y-43815000D03*
X125476000Y-42886000D03*
X125476000Y-40386000D03*
X128691000Y-76327000D03*
X131191000Y-76327000D03*
X151130000Y-46228000D03*
X151130000Y-48728000D03*
X146685000Y-46282000D03*
X146685000Y-48782000D03*
D14*
X119348000Y-39878000D03*
X119348000Y-42418000D03*
X117348000Y-42418000D03*
X117348000Y-39878000D03*
D15*
X114648000Y-35148000D03*
X114648000Y-47148000D03*
D16*
X118268000Y-70993000D03*
X112268000Y-70993000D03*
X115268000Y-75693000D03*
D17*
X170180000Y-76962000D03*
D18*
X167640000Y-76962000D03*
X165100000Y-76962000D03*
X162560000Y-76962000D03*
X160020000Y-76962000D03*
X157480000Y-76962000D03*
D17*
X170180000Y-28956000D03*
D18*
X167640000Y-28956000D03*
X165100000Y-28956000D03*
X162560000Y-28956000D03*
X160020000Y-28956000D03*
X157480000Y-28956000D03*
X154940000Y-28956000D03*
X152400000Y-28956000D03*
D13*
X149352000Y-37592000D03*
D19*
X141732000Y-37592000D03*
D13*
X149352000Y-34290000D03*
D19*
X141732000Y-34290000D03*
D13*
X167132000Y-46482000D03*
D19*
X167132000Y-54102000D03*
D20*
X113466000Y-57404000D03*
X108966000Y-57404000D03*
X113466000Y-50904000D03*
X108966000Y-50904000D03*
D21*
X137414000Y-50546000D03*
D22*
X129794000Y-35306000D03*
X137414000Y-48006000D03*
X129794000Y-37846000D03*
X137414000Y-45466000D03*
X129794000Y-40386000D03*
X137414000Y-42926000D03*
X129794000Y-42926000D03*
X137414000Y-40386000D03*
X129794000Y-45466000D03*
X137414000Y-37846000D03*
X129794000Y-48006000D03*
X137414000Y-35306000D03*
X129794000Y-50546000D03*
D23*
X151384000Y-53086000D03*
X146504000Y-53086000D03*
D24*
X157480000Y-40894000D03*
D25*
X154940000Y-40894000D03*
D13*
X141732000Y-40894000D03*
D19*
X149352000Y-40894000D03*
D17*
X152400000Y-76962000D03*
D18*
X149860000Y-76962000D03*
X147320000Y-76962000D03*
X144780000Y-76962000D03*
X142240000Y-76962000D03*
X139700000Y-76962000D03*
X137160000Y-76962000D03*
X134620000Y-76962000D03*
D17*
X170688000Y-49022000D03*
D18*
X173228000Y-49022000D03*
X170688000Y-51562000D03*
X173228000Y-51562000D03*
X170688000Y-54102000D03*
X173228000Y-54102000D03*
D17*
X125476000Y-28956000D03*
D18*
X128016000Y-28956000D03*
X130556000Y-28956000D03*
X133096000Y-28956000D03*
X135636000Y-28956000D03*
X138176000Y-28956000D03*
X140716000Y-28956000D03*
X143256000Y-28956000D03*
X145796000Y-28956000D03*
X148336000Y-28956000D03*
D13*
X118491000Y-63754000D03*
X120991000Y-63754000D03*
D14*
X112903000Y-63754000D03*
X115443000Y-63754000D03*
D26*
X110363000Y-63754000D03*
D24*
X125349000Y-73660000D03*
D27*
X127889000Y-73660000D03*
X130429000Y-73660000D03*
D28*
X119380000Y-59817000D03*
D29*
X119380000Y-49657000D03*
M02*
