G04 #@! TF.FileFunction,Copper,L1,Top,Signal*
%FSLAX46Y46*%
G04 Gerber Fmt 4.6, Leading zero omitted, Abs format (unit mm)*
G04 Created by KiCad (PCBNEW 4.0.5+dfsg1-4) date Mon Jul 16 10:11:37 2018*
%MOMM*%
%LPD*%
G01*
G04 APERTURE LIST*
%ADD10C,0.100000*%
%ADD11R,1.600000X2.400000*%
%ADD12O,1.600000X2.400000*%
%ADD13C,1.600000*%
%ADD14C,1.520000*%
%ADD15O,4.000000X3.000000*%
%ADD16R,3.500000X3.500000*%
%ADD17R,1.700000X1.700000*%
%ADD18O,1.700000X1.700000*%
%ADD19O,1.600000X1.600000*%
%ADD20C,2.000000*%
%ADD21R,2.400000X1.600000*%
%ADD22O,2.400000X1.600000*%
%ADD23C,1.500000*%
%ADD24R,1.800000X1.800000*%
%ADD25C,1.800000*%
%ADD26R,1.520000X1.520000*%
%ADD27O,1.800000X1.800000*%
%ADD28R,2.400000X2.400000*%
%ADD29O,2.400000X2.400000*%
%ADD30C,0.406400*%
%ADD31C,0.254000*%
G04 APERTURE END LIST*
D10*
D11*
X170434000Y-58166000D03*
D12*
X137414000Y-65786000D03*
X167894000Y-58166000D03*
X139954000Y-65786000D03*
X165354000Y-58166000D03*
X142494000Y-65786000D03*
X162814000Y-58166000D03*
X145034000Y-65786000D03*
X160274000Y-58166000D03*
X147574000Y-65786000D03*
X157734000Y-58166000D03*
X150114000Y-65786000D03*
X155194000Y-58166000D03*
X152654000Y-65786000D03*
X152654000Y-58166000D03*
X155194000Y-65786000D03*
X150114000Y-58166000D03*
X157734000Y-65786000D03*
X147574000Y-58166000D03*
X160274000Y-65786000D03*
X145034000Y-58166000D03*
X162814000Y-65786000D03*
X142494000Y-58166000D03*
X165354000Y-65786000D03*
X139954000Y-58166000D03*
X167894000Y-65786000D03*
X137414000Y-58166000D03*
X170434000Y-65786000D03*
D13*
X157226000Y-54356000D03*
X157226000Y-51856000D03*
X126452000Y-76327000D03*
X123952000Y-76327000D03*
X141732000Y-46315000D03*
X141732000Y-43815000D03*
X125476000Y-42886000D03*
X125476000Y-40386000D03*
X128691000Y-76327000D03*
X131191000Y-76327000D03*
X151130000Y-46228000D03*
X151130000Y-48728000D03*
X146685000Y-46282000D03*
X146685000Y-48782000D03*
D14*
X119348000Y-39878000D03*
X119348000Y-42418000D03*
X117348000Y-42418000D03*
X117348000Y-39878000D03*
D15*
X114648000Y-35148000D03*
X114648000Y-47148000D03*
D16*
X118268000Y-70993000D03*
X112268000Y-70993000D03*
X115268000Y-75693000D03*
D17*
X170180000Y-76962000D03*
D18*
X167640000Y-76962000D03*
X165100000Y-76962000D03*
X162560000Y-76962000D03*
X160020000Y-76962000D03*
X157480000Y-76962000D03*
D17*
X170180000Y-28956000D03*
D18*
X167640000Y-28956000D03*
X165100000Y-28956000D03*
X162560000Y-28956000D03*
X160020000Y-28956000D03*
X157480000Y-28956000D03*
X154940000Y-28956000D03*
X152400000Y-28956000D03*
D13*
X149352000Y-37592000D03*
D19*
X141732000Y-37592000D03*
D13*
X149352000Y-34290000D03*
D19*
X141732000Y-34290000D03*
D13*
X167132000Y-46482000D03*
D19*
X167132000Y-54102000D03*
D20*
X113466000Y-57404000D03*
X108966000Y-57404000D03*
X113466000Y-50904000D03*
X108966000Y-50904000D03*
D21*
X137414000Y-50546000D03*
D22*
X129794000Y-35306000D03*
X137414000Y-48006000D03*
X129794000Y-37846000D03*
X137414000Y-45466000D03*
X129794000Y-40386000D03*
X137414000Y-42926000D03*
X129794000Y-42926000D03*
X137414000Y-40386000D03*
X129794000Y-45466000D03*
X137414000Y-37846000D03*
X129794000Y-48006000D03*
X137414000Y-35306000D03*
X129794000Y-50546000D03*
D23*
X151384000Y-53086000D03*
X146504000Y-53086000D03*
D24*
X157480000Y-40894000D03*
D25*
X154940000Y-40894000D03*
D13*
X141732000Y-40894000D03*
D19*
X149352000Y-40894000D03*
D17*
X152400000Y-76962000D03*
D18*
X149860000Y-76962000D03*
X147320000Y-76962000D03*
X144780000Y-76962000D03*
X142240000Y-76962000D03*
X139700000Y-76962000D03*
X137160000Y-76962000D03*
X134620000Y-76962000D03*
D17*
X170688000Y-49022000D03*
D18*
X173228000Y-49022000D03*
X170688000Y-51562000D03*
X173228000Y-51562000D03*
X170688000Y-54102000D03*
X173228000Y-54102000D03*
D17*
X125476000Y-28956000D03*
D18*
X128016000Y-28956000D03*
X130556000Y-28956000D03*
X133096000Y-28956000D03*
X135636000Y-28956000D03*
X138176000Y-28956000D03*
X140716000Y-28956000D03*
X143256000Y-28956000D03*
X145796000Y-28956000D03*
X148336000Y-28956000D03*
D13*
X118491000Y-63754000D03*
X120991000Y-63754000D03*
D14*
X112903000Y-63754000D03*
X115443000Y-63754000D03*
D26*
X110363000Y-63754000D03*
D24*
X125349000Y-73660000D03*
D27*
X127889000Y-73660000D03*
X130429000Y-73660000D03*
D28*
X119380000Y-59817000D03*
D29*
X119380000Y-49657000D03*
D30*
X126452000Y-76327000D02*
X129119000Y-78994000D01*
X129119000Y-78994000D02*
X151638000Y-78994000D01*
X151638000Y-78994000D02*
X151638000Y-78980400D01*
X151638000Y-78980400D02*
X152400000Y-78218400D01*
X152400000Y-78218400D02*
X152400000Y-76962000D01*
X125349000Y-73660000D02*
X125349000Y-75224000D01*
X125349000Y-75224000D02*
X126452000Y-76327000D01*
X118268000Y-70993000D02*
X123988400Y-70993000D01*
X123988400Y-70993000D02*
X125349000Y-72353600D01*
X125349000Y-72353600D02*
X125349000Y-73660000D01*
X130429000Y-73660000D02*
X129529001Y-74559999D01*
X129529001Y-74559999D02*
X129529001Y-75488999D01*
X129529001Y-75488999D02*
X128691000Y-76327000D01*
X126365000Y-66421000D02*
X130429000Y-70485000D01*
X110617000Y-65151000D02*
X111887000Y-66421000D01*
X111887000Y-66421000D02*
X126365000Y-66421000D01*
X110593600Y-65151000D02*
X110617000Y-65151000D01*
X130429000Y-70485000D02*
X130429000Y-73660000D01*
X137160000Y-76962000D02*
X135903599Y-78218401D01*
X135903599Y-78218401D02*
X130582401Y-78218401D01*
X130582401Y-78218401D02*
X128691000Y-76327000D01*
X125984000Y-53213000D02*
X134347000Y-53213000D01*
X120650000Y-58547000D02*
X125984000Y-53213000D01*
X119380000Y-59817000D02*
X120650000Y-58547000D01*
X110363000Y-63754000D02*
X110363000Y-61595000D01*
X110363000Y-61595000D02*
X112141000Y-59817000D01*
X112141000Y-59817000D02*
X113387600Y-59817000D01*
X113387600Y-59817000D02*
X119380000Y-59817000D01*
X110363000Y-63754000D02*
X110363000Y-64920400D01*
X110363000Y-64920400D02*
X110593600Y-65151000D01*
X134347000Y-53213000D02*
X137014000Y-50546000D01*
X155194000Y-58166000D02*
X155194000Y-56388000D01*
X155194000Y-56388000D02*
X157226000Y-54356000D01*
X141732000Y-43815000D02*
X140843000Y-42926000D01*
X140843000Y-42926000D02*
X137414000Y-42926000D01*
X137014000Y-50546000D02*
X137414000Y-50546000D01*
X135128000Y-48660000D02*
X137014000Y-50546000D01*
X137414000Y-50800000D02*
X137414000Y-50546000D01*
X150114000Y-71247000D02*
X150114000Y-65786000D01*
X144780000Y-76581000D02*
X150114000Y-71247000D01*
X144780000Y-76962000D02*
X144780000Y-76581000D01*
X143256000Y-75438000D02*
X144780000Y-76962000D01*
X155194000Y-59417000D02*
X155194000Y-58166000D01*
X150114000Y-64497000D02*
X150114000Y-65786000D01*
X155194000Y-59417000D02*
X150114000Y-64497000D01*
X138684000Y-75438000D02*
X143256000Y-75438000D01*
X137160000Y-76962000D02*
X138684000Y-75438000D01*
X135128000Y-44812000D02*
X135128000Y-48660000D01*
X137414000Y-42926000D02*
X137014000Y-42926000D01*
X137014000Y-42926000D02*
X135128000Y-44812000D01*
X125476000Y-42886000D02*
X129754000Y-42886000D01*
X129754000Y-42886000D02*
X129794000Y-42926000D01*
X150114000Y-54356000D02*
X150114000Y-58166000D01*
X151384000Y-53086000D02*
X151384000Y-48728000D01*
X151384000Y-53086000D02*
X150114000Y-54356000D01*
X147574000Y-54102000D02*
X147574000Y-58166000D01*
X146504000Y-53086000D02*
X146504000Y-48782000D01*
X146504000Y-53032000D02*
X147574000Y-54102000D01*
X119348000Y-42418000D02*
X119348000Y-49943000D01*
X119348000Y-49943000D02*
X118745000Y-50546000D01*
X126211120Y-45466000D02*
X120623120Y-39878000D01*
X120422802Y-39878000D02*
X119348000Y-39878000D01*
X120623120Y-39878000D02*
X120422802Y-39878000D01*
X129794000Y-45466000D02*
X126211120Y-45466000D01*
X117348000Y-39878000D02*
X118721599Y-41251599D01*
X127635000Y-46228000D02*
X127635000Y-46247000D01*
X118721599Y-41251599D02*
X120753599Y-41251599D01*
X120753599Y-41251599D02*
X125730000Y-46228000D01*
X125730000Y-46228000D02*
X127635000Y-46228000D01*
X127635000Y-46247000D02*
X129394000Y-48006000D01*
X129394000Y-48006000D02*
X129794000Y-48006000D01*
X145415000Y-78359000D02*
X141097000Y-78359000D01*
X139700000Y-76962000D02*
X140549999Y-77811999D01*
X140549999Y-77811999D02*
X141097000Y-78359000D01*
X170434000Y-58166000D02*
X170434000Y-62611000D01*
X170434000Y-62611000D02*
X169418000Y-63627000D01*
X155448000Y-75438000D02*
X146812000Y-75438000D01*
X169418000Y-63627000D02*
X157353000Y-63627000D01*
X157353000Y-63627000D02*
X156464000Y-64516000D01*
X156464000Y-64516000D02*
X156464000Y-74422000D01*
X156464000Y-74422000D02*
X155448000Y-75438000D01*
X146812000Y-75438000D02*
X146050000Y-76200000D01*
X146050000Y-76200000D02*
X146050000Y-77724000D01*
X146050000Y-77724000D02*
X145415000Y-78359000D01*
X170434000Y-64897000D02*
X170434000Y-76708000D01*
X170434000Y-76708000D02*
X170180000Y-76962000D01*
X167894000Y-64897000D02*
X167894000Y-76708000D01*
X167894000Y-76708000D02*
X167640000Y-76962000D01*
X165354000Y-64897000D02*
X165354000Y-76708000D01*
X165354000Y-76708000D02*
X165100000Y-76962000D01*
X162814000Y-64897000D02*
X162814000Y-76708000D01*
X162814000Y-76708000D02*
X162560000Y-76962000D01*
X160274000Y-64897000D02*
X160274000Y-76708000D01*
X160274000Y-76708000D02*
X160020000Y-76962000D01*
X157734000Y-64897000D02*
X157734000Y-76708000D01*
X157734000Y-76708000D02*
X157480000Y-76962000D01*
X143002000Y-34544000D02*
X143002000Y-51943000D01*
X137414000Y-58166000D02*
X137414000Y-57766000D01*
X137414000Y-57766000D02*
X143002000Y-52178000D01*
X143002000Y-52178000D02*
X143002000Y-51943000D01*
X148336000Y-29210000D02*
X143002000Y-34544000D01*
X148336000Y-28956000D02*
X148336000Y-29210000D01*
X147574000Y-65786000D02*
X147574000Y-65386000D01*
X147574000Y-65386000D02*
X153924000Y-59036000D01*
X153924000Y-59036000D02*
X153924000Y-43053000D01*
X153924000Y-43053000D02*
X151765000Y-40894000D01*
X151765000Y-40894000D02*
X149352000Y-40894000D01*
X170180000Y-28956000D02*
X165862000Y-33274000D01*
X165862000Y-33274000D02*
X165862000Y-55734000D01*
X165862000Y-55734000D02*
X167894000Y-57766000D01*
X167894000Y-57766000D02*
X167894000Y-58166000D01*
X165354000Y-58166000D02*
X165354000Y-56559600D01*
X165354000Y-56559600D02*
X165100000Y-56305600D01*
X165100000Y-31877000D02*
X167640000Y-29337000D01*
X165100000Y-56305600D02*
X165100000Y-31877000D01*
X167640000Y-29337000D02*
X167640000Y-28956000D01*
X162814000Y-58166000D02*
X162814000Y-54991000D01*
X164338000Y-31496000D02*
X165100000Y-30734000D01*
X162814000Y-54991000D02*
X164338000Y-53467000D01*
X164338000Y-53467000D02*
X164338000Y-31496000D01*
X165100000Y-30734000D02*
X165100000Y-28956000D01*
X162560000Y-28956000D02*
X163576000Y-29972000D01*
X163576000Y-29972000D02*
X163576000Y-53112880D01*
X163576000Y-53112880D02*
X160274000Y-56414880D01*
X160274000Y-56414880D02*
X160274000Y-58166000D01*
X157734000Y-58166000D02*
X157734000Y-57766000D01*
X162941000Y-52559000D02*
X162941000Y-31877000D01*
X157734000Y-57766000D02*
X162941000Y-52559000D01*
X162941000Y-31877000D02*
X160020000Y-28956000D01*
X154940000Y-28956000D02*
X151892000Y-32004000D01*
X151892000Y-32004000D02*
X148082000Y-32004000D01*
X142494000Y-57766000D02*
X142494000Y-58166000D01*
X148082000Y-32004000D02*
X144424389Y-35661611D01*
X144424389Y-35661611D02*
X144424389Y-55835611D01*
X144424389Y-55835611D02*
X142494000Y-57766000D01*
X152400000Y-28956000D02*
X150114000Y-31242000D01*
X150114000Y-31242000D02*
X147574000Y-31242000D01*
X147574000Y-31242000D02*
X143814779Y-35001221D01*
X143814779Y-35001221D02*
X143814779Y-53905221D01*
X139954000Y-57766000D02*
X139954000Y-58166000D01*
X143814779Y-53905221D02*
X139954000Y-57766000D01*
X137414000Y-40386000D02*
X138938000Y-40386000D01*
X138938000Y-40386000D02*
X140932001Y-38391999D01*
X140932001Y-38391999D02*
X141732000Y-37592000D01*
X137414000Y-37846000D02*
X138176000Y-37846000D01*
X138176000Y-37846000D02*
X140932001Y-35089999D01*
X140932001Y-35089999D02*
X141732000Y-34290000D01*
X153670000Y-32766000D02*
X148336000Y-32766000D01*
X157480000Y-28956000D02*
X153670000Y-32766000D01*
X145161000Y-35941000D02*
X148336000Y-32766000D01*
X145161000Y-35941000D02*
X145161000Y-58039000D01*
X145161000Y-58039000D02*
X145034000Y-58166000D01*
D31*
G36*
X172264000Y-39370000D02*
X172277397Y-39437350D01*
X172284642Y-39505645D01*
X172294633Y-39524004D01*
X172298711Y-39544504D01*
X172336865Y-39601606D01*
X172369691Y-39661924D01*
X174804000Y-42583095D01*
X174804000Y-43187898D01*
X174783947Y-43087085D01*
X174299677Y-42362323D01*
X173574915Y-41878053D01*
X172720000Y-41708000D01*
X171865085Y-41878053D01*
X171140323Y-42362323D01*
X170656053Y-43087085D01*
X170486000Y-43942000D01*
X170656053Y-44796915D01*
X171140323Y-45521677D01*
X171865085Y-46005947D01*
X172720000Y-46176000D01*
X173574915Y-46005947D01*
X174299677Y-45521677D01*
X174783947Y-44796915D01*
X174804000Y-44696102D01*
X174804000Y-74256905D01*
X172369691Y-77178076D01*
X172336865Y-77238394D01*
X172298711Y-77295496D01*
X172294633Y-77315996D01*
X172284642Y-77334355D01*
X172277397Y-77402650D01*
X172264000Y-77470000D01*
X172264000Y-79046000D01*
X152398584Y-79046000D01*
X152813092Y-78631492D01*
X152939731Y-78441963D01*
X152984200Y-78218400D01*
X152984200Y-78200464D01*
X153250000Y-78200464D01*
X153391190Y-78173897D01*
X153520865Y-78090454D01*
X153607859Y-77963134D01*
X153638464Y-77812000D01*
X153638464Y-76112000D01*
X153621567Y-76022200D01*
X155448000Y-76022200D01*
X155671564Y-75977730D01*
X155861092Y-75851092D01*
X156877092Y-74835092D01*
X156911523Y-74783562D01*
X157003730Y-74645564D01*
X157048200Y-74422000D01*
X157048200Y-67151822D01*
X157149800Y-67219709D01*
X157149800Y-75772564D01*
X157008917Y-75800587D01*
X156609552Y-76067435D01*
X156342704Y-76466800D01*
X156249000Y-76937883D01*
X156249000Y-76986117D01*
X156342704Y-77457200D01*
X156609552Y-77856565D01*
X157008917Y-78123413D01*
X157480000Y-78217117D01*
X157951083Y-78123413D01*
X158350448Y-77856565D01*
X158617296Y-77457200D01*
X158711000Y-76986117D01*
X158711000Y-76937883D01*
X158617296Y-76466800D01*
X158350448Y-76067435D01*
X158318200Y-76045888D01*
X158318200Y-67219709D01*
X158569093Y-67052067D01*
X158825102Y-66668923D01*
X158915000Y-66216974D01*
X158915000Y-65355026D01*
X158825102Y-64903077D01*
X158569093Y-64519933D01*
X158185949Y-64263924D01*
X157920887Y-64211200D01*
X160087113Y-64211200D01*
X159822051Y-64263924D01*
X159438907Y-64519933D01*
X159182898Y-64903077D01*
X159093000Y-65355026D01*
X159093000Y-66216974D01*
X159182898Y-66668923D01*
X159438907Y-67052067D01*
X159689800Y-67219709D01*
X159689800Y-75772564D01*
X159548917Y-75800587D01*
X159149552Y-76067435D01*
X158882704Y-76466800D01*
X158789000Y-76937883D01*
X158789000Y-76986117D01*
X158882704Y-77457200D01*
X159149552Y-77856565D01*
X159548917Y-78123413D01*
X160020000Y-78217117D01*
X160491083Y-78123413D01*
X160890448Y-77856565D01*
X161157296Y-77457200D01*
X161251000Y-76986117D01*
X161251000Y-76937883D01*
X161157296Y-76466800D01*
X160890448Y-76067435D01*
X160858200Y-76045888D01*
X160858200Y-67219709D01*
X161109093Y-67052067D01*
X161365102Y-66668923D01*
X161455000Y-66216974D01*
X161455000Y-65355026D01*
X161365102Y-64903077D01*
X161109093Y-64519933D01*
X160725949Y-64263924D01*
X160460887Y-64211200D01*
X162627113Y-64211200D01*
X162362051Y-64263924D01*
X161978907Y-64519933D01*
X161722898Y-64903077D01*
X161633000Y-65355026D01*
X161633000Y-66216974D01*
X161722898Y-66668923D01*
X161978907Y-67052067D01*
X162229800Y-67219709D01*
X162229800Y-75772564D01*
X162088917Y-75800587D01*
X161689552Y-76067435D01*
X161422704Y-76466800D01*
X161329000Y-76937883D01*
X161329000Y-76986117D01*
X161422704Y-77457200D01*
X161689552Y-77856565D01*
X162088917Y-78123413D01*
X162560000Y-78217117D01*
X163031083Y-78123413D01*
X163430448Y-77856565D01*
X163697296Y-77457200D01*
X163791000Y-76986117D01*
X163791000Y-76937883D01*
X163697296Y-76466800D01*
X163430448Y-76067435D01*
X163398200Y-76045888D01*
X163398200Y-67219709D01*
X163649093Y-67052067D01*
X163905102Y-66668923D01*
X163995000Y-66216974D01*
X163995000Y-65355026D01*
X163905102Y-64903077D01*
X163649093Y-64519933D01*
X163265949Y-64263924D01*
X163000887Y-64211200D01*
X165167113Y-64211200D01*
X164902051Y-64263924D01*
X164518907Y-64519933D01*
X164262898Y-64903077D01*
X164173000Y-65355026D01*
X164173000Y-66216974D01*
X164262898Y-66668923D01*
X164518907Y-67052067D01*
X164769800Y-67219709D01*
X164769800Y-75772564D01*
X164628917Y-75800587D01*
X164229552Y-76067435D01*
X163962704Y-76466800D01*
X163869000Y-76937883D01*
X163869000Y-76986117D01*
X163962704Y-77457200D01*
X164229552Y-77856565D01*
X164628917Y-78123413D01*
X165100000Y-78217117D01*
X165571083Y-78123413D01*
X165970448Y-77856565D01*
X166237296Y-77457200D01*
X166331000Y-76986117D01*
X166331000Y-76937883D01*
X166237296Y-76466800D01*
X165970448Y-76067435D01*
X165938200Y-76045888D01*
X165938200Y-67219709D01*
X166189093Y-67052067D01*
X166445102Y-66668923D01*
X166535000Y-66216974D01*
X166535000Y-65355026D01*
X166445102Y-64903077D01*
X166189093Y-64519933D01*
X165805949Y-64263924D01*
X165540887Y-64211200D01*
X167707113Y-64211200D01*
X167442051Y-64263924D01*
X167058907Y-64519933D01*
X166802898Y-64903077D01*
X166713000Y-65355026D01*
X166713000Y-66216974D01*
X166802898Y-66668923D01*
X167058907Y-67052067D01*
X167309800Y-67219709D01*
X167309800Y-75772564D01*
X167168917Y-75800587D01*
X166769552Y-76067435D01*
X166502704Y-76466800D01*
X166409000Y-76937883D01*
X166409000Y-76986117D01*
X166502704Y-77457200D01*
X166769552Y-77856565D01*
X167168917Y-78123413D01*
X167640000Y-78217117D01*
X168111083Y-78123413D01*
X168510448Y-77856565D01*
X168777296Y-77457200D01*
X168871000Y-76986117D01*
X168871000Y-76937883D01*
X168777296Y-76466800D01*
X168540226Y-76112000D01*
X168941536Y-76112000D01*
X168941536Y-77812000D01*
X168968103Y-77953190D01*
X169051546Y-78082865D01*
X169178866Y-78169859D01*
X169330000Y-78200464D01*
X171030000Y-78200464D01*
X171171190Y-78173897D01*
X171300865Y-78090454D01*
X171387859Y-77963134D01*
X171418464Y-77812000D01*
X171418464Y-76112000D01*
X171391897Y-75970810D01*
X171308454Y-75841135D01*
X171181134Y-75754141D01*
X171030000Y-75723536D01*
X171018200Y-75723536D01*
X171018200Y-72830502D01*
X171319929Y-73282071D01*
X171962287Y-73711281D01*
X172720000Y-73862000D01*
X173477713Y-73711281D01*
X174120071Y-73282071D01*
X174549281Y-72639713D01*
X174700000Y-71882000D01*
X174549281Y-71124287D01*
X174120071Y-70481929D01*
X173477713Y-70052719D01*
X172720000Y-69902000D01*
X171962287Y-70052719D01*
X171319929Y-70481929D01*
X171018200Y-70933498D01*
X171018200Y-67219709D01*
X171269093Y-67052067D01*
X171525102Y-66668923D01*
X171615000Y-66216974D01*
X171615000Y-65355026D01*
X171525102Y-64903077D01*
X171269093Y-64519933D01*
X170885949Y-64263924D01*
X170434000Y-64174026D01*
X169982051Y-64263924D01*
X169598907Y-64519933D01*
X169342898Y-64903077D01*
X169253000Y-65355026D01*
X169253000Y-66216974D01*
X169342898Y-66668923D01*
X169598907Y-67052067D01*
X169849800Y-67219709D01*
X169849800Y-75723536D01*
X169330000Y-75723536D01*
X169188810Y-75750103D01*
X169059135Y-75833546D01*
X168972141Y-75960866D01*
X168941536Y-76112000D01*
X168540226Y-76112000D01*
X168510448Y-76067435D01*
X168478200Y-76045888D01*
X168478200Y-67219709D01*
X168729093Y-67052067D01*
X168985102Y-66668923D01*
X169075000Y-66216974D01*
X169075000Y-65355026D01*
X168985102Y-64903077D01*
X168729093Y-64519933D01*
X168345949Y-64263924D01*
X168080887Y-64211200D01*
X169418000Y-64211200D01*
X169641564Y-64166730D01*
X169831092Y-64040092D01*
X170847092Y-63024092D01*
X170893364Y-62954841D01*
X170973730Y-62834564D01*
X171018200Y-62611000D01*
X171018200Y-59754464D01*
X171234000Y-59754464D01*
X171375190Y-59727897D01*
X171504865Y-59644454D01*
X171591859Y-59517134D01*
X171622464Y-59366000D01*
X171622464Y-56966000D01*
X171595897Y-56824810D01*
X171512454Y-56695135D01*
X171385134Y-56608141D01*
X171234000Y-56577536D01*
X169634000Y-56577536D01*
X169492810Y-56604103D01*
X169363135Y-56687546D01*
X169276141Y-56814866D01*
X169245536Y-56966000D01*
X169245536Y-59366000D01*
X169272103Y-59507190D01*
X169355546Y-59636865D01*
X169482866Y-59723859D01*
X169634000Y-59754464D01*
X169849800Y-59754464D01*
X169849800Y-62369016D01*
X169176016Y-63042800D01*
X157353000Y-63042800D01*
X157129436Y-63087270D01*
X157034461Y-63150730D01*
X156939908Y-63213908D01*
X156050908Y-64102908D01*
X155981736Y-64206431D01*
X155625819Y-64011633D01*
X155543039Y-63994096D01*
X155321000Y-64116085D01*
X155321000Y-65659000D01*
X155341000Y-65659000D01*
X155341000Y-65913000D01*
X155321000Y-65913000D01*
X155321000Y-67455915D01*
X155543039Y-67577904D01*
X155625819Y-67560367D01*
X155879800Y-67421360D01*
X155879800Y-74180016D01*
X155206016Y-74853800D01*
X147333384Y-74853800D01*
X150527092Y-71660092D01*
X150612192Y-71532730D01*
X150653730Y-71470564D01*
X150698200Y-71247000D01*
X150698200Y-67219709D01*
X150949093Y-67052067D01*
X151205102Y-66668923D01*
X151295000Y-66216974D01*
X151295000Y-65355026D01*
X151473000Y-65355026D01*
X151473000Y-66216974D01*
X151562898Y-66668923D01*
X151818907Y-67052067D01*
X152202051Y-67308076D01*
X152654000Y-67397974D01*
X153105949Y-67308076D01*
X153489093Y-67052067D01*
X153745102Y-66668923D01*
X153792871Y-66428772D01*
X153916834Y-66852483D01*
X154269104Y-67290500D01*
X154762181Y-67560367D01*
X154844961Y-67577904D01*
X155067000Y-67455915D01*
X155067000Y-65913000D01*
X155047000Y-65913000D01*
X155047000Y-65659000D01*
X155067000Y-65659000D01*
X155067000Y-64116085D01*
X154844961Y-63994096D01*
X154762181Y-64011633D01*
X154269104Y-64281500D01*
X153916834Y-64719517D01*
X153792871Y-65143228D01*
X153745102Y-64903077D01*
X153489093Y-64519933D01*
X153105949Y-64263924D01*
X152654000Y-64174026D01*
X152202051Y-64263924D01*
X151818907Y-64519933D01*
X151562898Y-64903077D01*
X151473000Y-65355026D01*
X151295000Y-65355026D01*
X151205102Y-64903077D01*
X150949093Y-64519933D01*
X150930005Y-64507179D01*
X155607092Y-59830092D01*
X155678074Y-59723859D01*
X155733730Y-59640564D01*
X155736286Y-59627715D01*
X156029093Y-59432067D01*
X156285102Y-59048923D01*
X156375000Y-58596974D01*
X156375000Y-57735026D01*
X156553000Y-57735026D01*
X156553000Y-58596974D01*
X156642898Y-59048923D01*
X156898907Y-59432067D01*
X157282051Y-59688076D01*
X157734000Y-59777974D01*
X158185949Y-59688076D01*
X158569093Y-59432067D01*
X158825102Y-59048923D01*
X158915000Y-58596974D01*
X158915000Y-57735026D01*
X158861271Y-57464913D01*
X159689800Y-56636384D01*
X159689800Y-56732291D01*
X159438907Y-56899933D01*
X159182898Y-57283077D01*
X159093000Y-57735026D01*
X159093000Y-58596974D01*
X159182898Y-59048923D01*
X159438907Y-59432067D01*
X159822051Y-59688076D01*
X160274000Y-59777974D01*
X160725949Y-59688076D01*
X161109093Y-59432067D01*
X161365102Y-59048923D01*
X161455000Y-58596974D01*
X161455000Y-57735026D01*
X161365102Y-57283077D01*
X161109093Y-56899933D01*
X160858200Y-56732291D01*
X160858200Y-56656864D01*
X162229800Y-55285264D01*
X162229800Y-56732291D01*
X161978907Y-56899933D01*
X161722898Y-57283077D01*
X161633000Y-57735026D01*
X161633000Y-58596974D01*
X161722898Y-59048923D01*
X161978907Y-59432067D01*
X162362051Y-59688076D01*
X162814000Y-59777974D01*
X163265949Y-59688076D01*
X163649093Y-59432067D01*
X163905102Y-59048923D01*
X163995000Y-58596974D01*
X163995000Y-57735026D01*
X163905102Y-57283077D01*
X163649093Y-56899933D01*
X163398200Y-56732291D01*
X163398200Y-55232984D01*
X164515800Y-54115383D01*
X164515800Y-56305600D01*
X164560270Y-56529164D01*
X164633288Y-56638443D01*
X164686908Y-56718692D01*
X164728262Y-56760046D01*
X164518907Y-56899933D01*
X164262898Y-57283077D01*
X164173000Y-57735026D01*
X164173000Y-58596974D01*
X164262898Y-59048923D01*
X164518907Y-59432067D01*
X164902051Y-59688076D01*
X165354000Y-59777974D01*
X165805949Y-59688076D01*
X166189093Y-59432067D01*
X166445102Y-59048923D01*
X166535000Y-58596974D01*
X166535000Y-57735026D01*
X166445102Y-57283077D01*
X166189093Y-56899933D01*
X165938200Y-56732291D01*
X165938200Y-56636384D01*
X166766729Y-57464913D01*
X166713000Y-57735026D01*
X166713000Y-58596974D01*
X166802898Y-59048923D01*
X167058907Y-59432067D01*
X167442051Y-59688076D01*
X167894000Y-59777974D01*
X168345949Y-59688076D01*
X168729093Y-59432067D01*
X168985102Y-59048923D01*
X169075000Y-58596974D01*
X169075000Y-57735026D01*
X168985102Y-57283077D01*
X168729093Y-56899933D01*
X168345949Y-56643924D01*
X167894000Y-56554026D01*
X167572217Y-56618033D01*
X166446200Y-55492016D01*
X166446200Y-55059985D01*
X166680051Y-55216239D01*
X167132000Y-55306137D01*
X167583949Y-55216239D01*
X167967093Y-54960230D01*
X168223102Y-54577086D01*
X168313000Y-54125137D01*
X168313000Y-54102000D01*
X169432883Y-54102000D01*
X169526587Y-54573083D01*
X169793435Y-54972448D01*
X170192800Y-55239296D01*
X170663883Y-55333000D01*
X170712117Y-55333000D01*
X171183200Y-55239296D01*
X171582565Y-54972448D01*
X171839788Y-54587488D01*
X171956355Y-54868924D01*
X172346642Y-55297183D01*
X172871108Y-55543486D01*
X173101000Y-55422819D01*
X173101000Y-54229000D01*
X173355000Y-54229000D01*
X173355000Y-55422819D01*
X173584892Y-55543486D01*
X174109358Y-55297183D01*
X174499645Y-54868924D01*
X174669476Y-54458890D01*
X174548155Y-54229000D01*
X173355000Y-54229000D01*
X173101000Y-54229000D01*
X173081000Y-54229000D01*
X173081000Y-53975000D01*
X173101000Y-53975000D01*
X173101000Y-53955000D01*
X173355000Y-53955000D01*
X173355000Y-53975000D01*
X174548155Y-53975000D01*
X174669476Y-53745110D01*
X174499645Y-53335076D01*
X174109358Y-52906817D01*
X173684053Y-52707083D01*
X173723200Y-52699296D01*
X174122565Y-52432448D01*
X174389413Y-52033083D01*
X174483117Y-51562000D01*
X174389413Y-51090917D01*
X174122565Y-50691552D01*
X173723200Y-50424704D01*
X173252117Y-50331000D01*
X173203883Y-50331000D01*
X172732800Y-50424704D01*
X172333435Y-50691552D01*
X172066587Y-51090917D01*
X171972883Y-51562000D01*
X172066587Y-52033083D01*
X172333435Y-52432448D01*
X172732800Y-52699296D01*
X172771947Y-52707083D01*
X172346642Y-52906817D01*
X171956355Y-53335076D01*
X171839788Y-53616512D01*
X171582565Y-53231552D01*
X171183200Y-52964704D01*
X170712117Y-52871000D01*
X170663883Y-52871000D01*
X170192800Y-52964704D01*
X169793435Y-53231552D01*
X169526587Y-53630917D01*
X169432883Y-54102000D01*
X168313000Y-54102000D01*
X168313000Y-54078863D01*
X168223102Y-53626914D01*
X167967093Y-53243770D01*
X167583949Y-52987761D01*
X167132000Y-52897863D01*
X166680051Y-52987761D01*
X166446200Y-53144015D01*
X166446200Y-51562000D01*
X169432883Y-51562000D01*
X169526587Y-52033083D01*
X169793435Y-52432448D01*
X170192800Y-52699296D01*
X170663883Y-52793000D01*
X170712117Y-52793000D01*
X171183200Y-52699296D01*
X171582565Y-52432448D01*
X171849413Y-52033083D01*
X171943117Y-51562000D01*
X171849413Y-51090917D01*
X171582565Y-50691552D01*
X171183200Y-50424704D01*
X170712117Y-50331000D01*
X170663883Y-50331000D01*
X170192800Y-50424704D01*
X169793435Y-50691552D01*
X169526587Y-51090917D01*
X169432883Y-51562000D01*
X166446200Y-51562000D01*
X166446200Y-48172000D01*
X169449536Y-48172000D01*
X169449536Y-49872000D01*
X169476103Y-50013190D01*
X169559546Y-50142865D01*
X169686866Y-50229859D01*
X169838000Y-50260464D01*
X171538000Y-50260464D01*
X171679190Y-50233897D01*
X171808865Y-50150454D01*
X171895859Y-50023134D01*
X171926464Y-49872000D01*
X171926464Y-49022000D01*
X171972883Y-49022000D01*
X172066587Y-49493083D01*
X172333435Y-49892448D01*
X172732800Y-50159296D01*
X173203883Y-50253000D01*
X173252117Y-50253000D01*
X173723200Y-50159296D01*
X174122565Y-49892448D01*
X174389413Y-49493083D01*
X174483117Y-49022000D01*
X174389413Y-48550917D01*
X174122565Y-48151552D01*
X173723200Y-47884704D01*
X173252117Y-47791000D01*
X173203883Y-47791000D01*
X172732800Y-47884704D01*
X172333435Y-48151552D01*
X172066587Y-48550917D01*
X171972883Y-49022000D01*
X171926464Y-49022000D01*
X171926464Y-48172000D01*
X171899897Y-48030810D01*
X171816454Y-47901135D01*
X171689134Y-47814141D01*
X171538000Y-47783536D01*
X169838000Y-47783536D01*
X169696810Y-47810103D01*
X169567135Y-47893546D01*
X169480141Y-48020866D01*
X169449536Y-48172000D01*
X166446200Y-48172000D01*
X166446200Y-47466647D01*
X166462144Y-47482619D01*
X166896054Y-47662794D01*
X167365885Y-47663204D01*
X167800109Y-47483787D01*
X168132619Y-47151856D01*
X168312794Y-46717946D01*
X168313204Y-46248115D01*
X168133787Y-45813891D01*
X167801856Y-45481381D01*
X167367946Y-45301206D01*
X166898115Y-45300796D01*
X166463891Y-45480213D01*
X166446200Y-45497873D01*
X166446200Y-33515984D01*
X169767720Y-30194464D01*
X171030000Y-30194464D01*
X171171190Y-30167897D01*
X171300865Y-30084454D01*
X171387859Y-29957134D01*
X171418464Y-29806000D01*
X171418464Y-28106000D01*
X171391897Y-27964810D01*
X171308454Y-27835135D01*
X171181134Y-27748141D01*
X171030000Y-27717536D01*
X169330000Y-27717536D01*
X169188810Y-27744103D01*
X169059135Y-27827546D01*
X168972141Y-27954866D01*
X168941536Y-28106000D01*
X168941536Y-29368280D01*
X168613543Y-29696273D01*
X168777296Y-29451200D01*
X168871000Y-28980117D01*
X168871000Y-28931883D01*
X168777296Y-28460800D01*
X168510448Y-28061435D01*
X168111083Y-27794587D01*
X167640000Y-27700883D01*
X167168917Y-27794587D01*
X166769552Y-28061435D01*
X166502704Y-28460800D01*
X166409000Y-28931883D01*
X166409000Y-28980117D01*
X166502704Y-29451200D01*
X166581576Y-29569240D01*
X165684200Y-30466616D01*
X165684200Y-30041830D01*
X165970448Y-29850565D01*
X166237296Y-29451200D01*
X166331000Y-28980117D01*
X166331000Y-28931883D01*
X166237296Y-28460800D01*
X165970448Y-28061435D01*
X165571083Y-27794587D01*
X165100000Y-27700883D01*
X164628917Y-27794587D01*
X164229552Y-28061435D01*
X163962704Y-28460800D01*
X163869000Y-28931883D01*
X163869000Y-28980117D01*
X163962704Y-29451200D01*
X164229552Y-29850565D01*
X164515800Y-30041830D01*
X164515800Y-30492016D01*
X164160200Y-30847616D01*
X164160200Y-29972000D01*
X164115730Y-29748436D01*
X163989092Y-29558908D01*
X163727838Y-29297654D01*
X163791000Y-28980117D01*
X163791000Y-28931883D01*
X163697296Y-28460800D01*
X163430448Y-28061435D01*
X163031083Y-27794587D01*
X162560000Y-27700883D01*
X162088917Y-27794587D01*
X161689552Y-28061435D01*
X161422704Y-28460800D01*
X161329000Y-28931883D01*
X161329000Y-28980117D01*
X161422704Y-29451200D01*
X161586457Y-29696273D01*
X161187838Y-29297654D01*
X161251000Y-28980117D01*
X161251000Y-28931883D01*
X161157296Y-28460800D01*
X160890448Y-28061435D01*
X160491083Y-27794587D01*
X160020000Y-27700883D01*
X159548917Y-27794587D01*
X159149552Y-28061435D01*
X158882704Y-28460800D01*
X158789000Y-28931883D01*
X158789000Y-28980117D01*
X158882704Y-29451200D01*
X159149552Y-29850565D01*
X159548917Y-30117413D01*
X160020000Y-30211117D01*
X160377769Y-30139953D01*
X162356800Y-32118984D01*
X162356800Y-52317016D01*
X158055783Y-56618033D01*
X157734000Y-56554026D01*
X157282051Y-56643924D01*
X156898907Y-56899933D01*
X156642898Y-57283077D01*
X156553000Y-57735026D01*
X156375000Y-57735026D01*
X156285102Y-57283077D01*
X156029093Y-56899933D01*
X155778200Y-56732291D01*
X155778200Y-56629984D01*
X156906206Y-55501978D01*
X156990054Y-55536794D01*
X157459885Y-55537204D01*
X157894109Y-55357787D01*
X158226619Y-55025856D01*
X158406794Y-54591946D01*
X158407204Y-54122115D01*
X158227787Y-53687891D01*
X157895856Y-53355381D01*
X157641879Y-53249921D01*
X157980005Y-53109864D01*
X158054139Y-52863745D01*
X157226000Y-52035605D01*
X156397861Y-52863745D01*
X156471995Y-53109864D01*
X156834187Y-53240050D01*
X156557891Y-53354213D01*
X156225381Y-53686144D01*
X156045206Y-54120054D01*
X156044796Y-54589885D01*
X156080214Y-54675602D01*
X154780908Y-55974908D01*
X154654270Y-56164436D01*
X154609800Y-56388000D01*
X154609800Y-56732291D01*
X154508200Y-56800178D01*
X154508200Y-51639223D01*
X155779035Y-51639223D01*
X155806222Y-52209454D01*
X155972136Y-52610005D01*
X156218255Y-52684139D01*
X157046395Y-51856000D01*
X157405605Y-51856000D01*
X158233745Y-52684139D01*
X158479864Y-52610005D01*
X158672965Y-52072777D01*
X158645778Y-51502546D01*
X158479864Y-51101995D01*
X158233745Y-51027861D01*
X157405605Y-51856000D01*
X157046395Y-51856000D01*
X156218255Y-51027861D01*
X155972136Y-51101995D01*
X155779035Y-51639223D01*
X154508200Y-51639223D01*
X154508200Y-50848255D01*
X156397861Y-50848255D01*
X157226000Y-51676395D01*
X158054139Y-50848255D01*
X157980005Y-50602136D01*
X157442777Y-50409035D01*
X156872546Y-50436222D01*
X156471995Y-50602136D01*
X156397861Y-50848255D01*
X154508200Y-50848255D01*
X154508200Y-43053000D01*
X154463730Y-42829436D01*
X154337092Y-42639908D01*
X152844873Y-41147689D01*
X153658778Y-41147689D01*
X153853388Y-41618680D01*
X154213425Y-41979345D01*
X154684076Y-42174777D01*
X155193689Y-42175222D01*
X155664680Y-41980612D01*
X155945000Y-41700780D01*
X155945000Y-41920310D01*
X156041673Y-42153699D01*
X156220302Y-42332327D01*
X156453691Y-42429000D01*
X157194250Y-42429000D01*
X157353000Y-42270250D01*
X157353000Y-41021000D01*
X157607000Y-41021000D01*
X157607000Y-42270250D01*
X157765750Y-42429000D01*
X158506309Y-42429000D01*
X158739698Y-42332327D01*
X158918327Y-42153699D01*
X159015000Y-41920310D01*
X159015000Y-41179750D01*
X158856250Y-41021000D01*
X157607000Y-41021000D01*
X157353000Y-41021000D01*
X157333000Y-41021000D01*
X157333000Y-40767000D01*
X157353000Y-40767000D01*
X157353000Y-39517750D01*
X157607000Y-39517750D01*
X157607000Y-40767000D01*
X158856250Y-40767000D01*
X159015000Y-40608250D01*
X159015000Y-39867690D01*
X158918327Y-39634301D01*
X158739698Y-39455673D01*
X158506309Y-39359000D01*
X157765750Y-39359000D01*
X157607000Y-39517750D01*
X157353000Y-39517750D01*
X157194250Y-39359000D01*
X156453691Y-39359000D01*
X156220302Y-39455673D01*
X156041673Y-39634301D01*
X155945000Y-39867690D01*
X155945000Y-40087566D01*
X155666575Y-39808655D01*
X155195924Y-39613223D01*
X154686311Y-39612778D01*
X154215320Y-39807388D01*
X153854655Y-40167425D01*
X153659223Y-40638076D01*
X153658778Y-41147689D01*
X152844873Y-41147689D01*
X152178092Y-40480908D01*
X152083539Y-40417730D01*
X151988564Y-40354270D01*
X151765000Y-40309800D01*
X150377872Y-40309800D01*
X150210230Y-40058907D01*
X149827086Y-39802898D01*
X149375137Y-39713000D01*
X149328863Y-39713000D01*
X148876914Y-39802898D01*
X148493770Y-40058907D01*
X148237761Y-40442051D01*
X148147863Y-40894000D01*
X148237761Y-41345949D01*
X148493770Y-41729093D01*
X148876914Y-41985102D01*
X149328863Y-42075000D01*
X149375137Y-42075000D01*
X149827086Y-41985102D01*
X150210230Y-41729093D01*
X150377872Y-41478200D01*
X151523016Y-41478200D01*
X153339800Y-43294984D01*
X153339800Y-56530640D01*
X153085819Y-56391633D01*
X153003039Y-56374096D01*
X152781000Y-56496085D01*
X152781000Y-58039000D01*
X152801000Y-58039000D01*
X152801000Y-58293000D01*
X152781000Y-58293000D01*
X152781000Y-58313000D01*
X152527000Y-58313000D01*
X152527000Y-58293000D01*
X152507000Y-58293000D01*
X152507000Y-58039000D01*
X152527000Y-58039000D01*
X152527000Y-56496085D01*
X152304961Y-56374096D01*
X152222181Y-56391633D01*
X151729104Y-56661500D01*
X151376834Y-57099517D01*
X151252871Y-57523228D01*
X151205102Y-57283077D01*
X150949093Y-56899933D01*
X150698200Y-56732291D01*
X150698200Y-54597984D01*
X151102460Y-54193724D01*
X151158043Y-54216804D01*
X151607983Y-54217196D01*
X152023823Y-54045375D01*
X152342256Y-53727497D01*
X152514804Y-53311957D01*
X152515196Y-52862017D01*
X152343375Y-52446177D01*
X152025497Y-52127744D01*
X151968200Y-52103952D01*
X151968200Y-49559992D01*
X152130619Y-49397856D01*
X152310794Y-48963946D01*
X152311204Y-48494115D01*
X152131787Y-48059891D01*
X151799856Y-47727381D01*
X151545879Y-47621921D01*
X151884005Y-47481864D01*
X151958139Y-47235745D01*
X151130000Y-46407605D01*
X150301861Y-47235745D01*
X150375995Y-47481864D01*
X150738187Y-47612050D01*
X150461891Y-47726213D01*
X150129381Y-48058144D01*
X149949206Y-48492054D01*
X149948796Y-48961885D01*
X150128213Y-49396109D01*
X150460144Y-49728619D01*
X150799800Y-49869656D01*
X150799800Y-52103642D01*
X150744177Y-52126625D01*
X150425744Y-52444503D01*
X150253196Y-52860043D01*
X150252804Y-53309983D01*
X150276495Y-53367321D01*
X149700908Y-53942908D01*
X149574270Y-54132436D01*
X149529800Y-54356000D01*
X149529800Y-56732291D01*
X149278907Y-56899933D01*
X149022898Y-57283077D01*
X148933000Y-57735026D01*
X148933000Y-58596974D01*
X149022898Y-59048923D01*
X149278907Y-59432067D01*
X149662051Y-59688076D01*
X150114000Y-59777974D01*
X150565949Y-59688076D01*
X150949093Y-59432067D01*
X151205102Y-59048923D01*
X151252871Y-58808772D01*
X151376834Y-59232483D01*
X151729104Y-59670500D01*
X152203612Y-59930204D01*
X147895783Y-64238033D01*
X147574000Y-64174026D01*
X147122051Y-64263924D01*
X146738907Y-64519933D01*
X146482898Y-64903077D01*
X146393000Y-65355026D01*
X146393000Y-66216974D01*
X146482898Y-66668923D01*
X146738907Y-67052067D01*
X147122051Y-67308076D01*
X147574000Y-67397974D01*
X148025949Y-67308076D01*
X148409093Y-67052067D01*
X148665102Y-66668923D01*
X148755000Y-66216974D01*
X148755000Y-65355026D01*
X148701271Y-65084913D01*
X149698153Y-64088031D01*
X149574270Y-64273436D01*
X149562997Y-64330110D01*
X149278907Y-64519933D01*
X149022898Y-64903077D01*
X148933000Y-65355026D01*
X148933000Y-66216974D01*
X149022898Y-66668923D01*
X149278907Y-67052067D01*
X149529800Y-67219709D01*
X149529800Y-71005016D01*
X144819980Y-75714836D01*
X144780000Y-75706883D01*
X144422231Y-75778047D01*
X143669092Y-75024908D01*
X143574539Y-74961730D01*
X143479564Y-74898270D01*
X143256000Y-74853800D01*
X138684000Y-74853800D01*
X138460436Y-74898270D01*
X138270908Y-75024908D01*
X138270906Y-75024911D01*
X137517769Y-75778048D01*
X137160000Y-75706883D01*
X136688917Y-75800587D01*
X136289552Y-76067435D01*
X136022704Y-76466800D01*
X135929000Y-76937883D01*
X135929000Y-76986117D01*
X135992162Y-77303654D01*
X135661615Y-77634201D01*
X135639027Y-77634201D01*
X135757296Y-77457200D01*
X135851000Y-76986117D01*
X135851000Y-76937883D01*
X135757296Y-76466800D01*
X135490448Y-76067435D01*
X135091083Y-75800587D01*
X134620000Y-75706883D01*
X134148917Y-75800587D01*
X133749552Y-76067435D01*
X133482704Y-76466800D01*
X133389000Y-76937883D01*
X133389000Y-76986117D01*
X133482704Y-77457200D01*
X133600973Y-77634201D01*
X131816238Y-77634201D01*
X131945005Y-77580864D01*
X132019139Y-77334745D01*
X131191000Y-76506605D01*
X131176858Y-76520748D01*
X130997252Y-76341142D01*
X131011395Y-76327000D01*
X131370605Y-76327000D01*
X132198745Y-77155139D01*
X132444864Y-77081005D01*
X132637965Y-76543777D01*
X132610778Y-75973546D01*
X132444864Y-75572995D01*
X132198745Y-75498861D01*
X131370605Y-76327000D01*
X131011395Y-76327000D01*
X130183255Y-75498861D01*
X130106649Y-75521936D01*
X130113201Y-75488999D01*
X130113201Y-75319255D01*
X130362861Y-75319255D01*
X131191000Y-76147395D01*
X132019139Y-75319255D01*
X131945005Y-75073136D01*
X131407777Y-74880035D01*
X130837546Y-74907222D01*
X130436995Y-75073136D01*
X130362861Y-75319255D01*
X130113201Y-75319255D01*
X130113201Y-74883176D01*
X130403904Y-74941000D01*
X130454096Y-74941000D01*
X130944313Y-74843490D01*
X131359900Y-74565804D01*
X131637586Y-74150217D01*
X131735096Y-73660000D01*
X131637586Y-73169783D01*
X131359900Y-72754196D01*
X131013200Y-72522539D01*
X131013200Y-70485000D01*
X130968730Y-70261436D01*
X130842092Y-70071908D01*
X126778092Y-66007908D01*
X126588564Y-65881270D01*
X126365000Y-65836800D01*
X112128984Y-65836800D01*
X111647210Y-65355026D01*
X136233000Y-65355026D01*
X136233000Y-66216974D01*
X136322898Y-66668923D01*
X136578907Y-67052067D01*
X136962051Y-67308076D01*
X137414000Y-67397974D01*
X137865949Y-67308076D01*
X138249093Y-67052067D01*
X138505102Y-66668923D01*
X138595000Y-66216974D01*
X138595000Y-65355026D01*
X138773000Y-65355026D01*
X138773000Y-66216974D01*
X138862898Y-66668923D01*
X139118907Y-67052067D01*
X139502051Y-67308076D01*
X139954000Y-67397974D01*
X140405949Y-67308076D01*
X140789093Y-67052067D01*
X141045102Y-66668923D01*
X141135000Y-66216974D01*
X141135000Y-65355026D01*
X141313000Y-65355026D01*
X141313000Y-66216974D01*
X141402898Y-66668923D01*
X141658907Y-67052067D01*
X142042051Y-67308076D01*
X142494000Y-67397974D01*
X142945949Y-67308076D01*
X143329093Y-67052067D01*
X143585102Y-66668923D01*
X143675000Y-66216974D01*
X143675000Y-65355026D01*
X143853000Y-65355026D01*
X143853000Y-66216974D01*
X143942898Y-66668923D01*
X144198907Y-67052067D01*
X144582051Y-67308076D01*
X145034000Y-67397974D01*
X145485949Y-67308076D01*
X145869093Y-67052067D01*
X146125102Y-66668923D01*
X146215000Y-66216974D01*
X146215000Y-65355026D01*
X146125102Y-64903077D01*
X145869093Y-64519933D01*
X145485949Y-64263924D01*
X145034000Y-64174026D01*
X144582051Y-64263924D01*
X144198907Y-64519933D01*
X143942898Y-64903077D01*
X143853000Y-65355026D01*
X143675000Y-65355026D01*
X143585102Y-64903077D01*
X143329093Y-64519933D01*
X142945949Y-64263924D01*
X142494000Y-64174026D01*
X142042051Y-64263924D01*
X141658907Y-64519933D01*
X141402898Y-64903077D01*
X141313000Y-65355026D01*
X141135000Y-65355026D01*
X141045102Y-64903077D01*
X140789093Y-64519933D01*
X140405949Y-64263924D01*
X139954000Y-64174026D01*
X139502051Y-64263924D01*
X139118907Y-64519933D01*
X138862898Y-64903077D01*
X138773000Y-65355026D01*
X138595000Y-65355026D01*
X138505102Y-64903077D01*
X138249093Y-64519933D01*
X137865949Y-64263924D01*
X137414000Y-64174026D01*
X136962051Y-64263924D01*
X136578907Y-64519933D01*
X136322898Y-64903077D01*
X136233000Y-65355026D01*
X111647210Y-65355026D01*
X111183301Y-64891117D01*
X111264190Y-64875897D01*
X111393865Y-64792454D01*
X111434649Y-64732764D01*
X112103841Y-64732764D01*
X112173059Y-64974742D01*
X112695780Y-65161155D01*
X113250049Y-65133341D01*
X113632941Y-64974742D01*
X113702159Y-64732764D01*
X112903000Y-63933605D01*
X112103841Y-64732764D01*
X111434649Y-64732764D01*
X111480859Y-64665134D01*
X111511464Y-64514000D01*
X111511464Y-63858031D01*
X111523659Y-64101049D01*
X111682258Y-64483941D01*
X111924236Y-64553159D01*
X112723395Y-63754000D01*
X113082605Y-63754000D01*
X113881764Y-64553159D01*
X114123742Y-64483941D01*
X114302698Y-63982131D01*
X114475143Y-64399480D01*
X114795831Y-64720729D01*
X115215045Y-64894802D01*
X115668963Y-64895198D01*
X116088480Y-64721857D01*
X116409729Y-64401169D01*
X116581339Y-63987885D01*
X117309796Y-63987885D01*
X117489213Y-64422109D01*
X117821144Y-64754619D01*
X118255054Y-64934794D01*
X118724885Y-64935204D01*
X119144689Y-64761745D01*
X120162861Y-64761745D01*
X120236995Y-65007864D01*
X120774223Y-65200965D01*
X121344454Y-65173778D01*
X121745005Y-65007864D01*
X121819139Y-64761745D01*
X120991000Y-63933605D01*
X120162861Y-64761745D01*
X119144689Y-64761745D01*
X119159109Y-64755787D01*
X119491619Y-64423856D01*
X119597079Y-64169879D01*
X119737136Y-64508005D01*
X119983255Y-64582139D01*
X120811395Y-63754000D01*
X121170605Y-63754000D01*
X121998745Y-64582139D01*
X122244864Y-64508005D01*
X122437965Y-63970777D01*
X122410778Y-63400546D01*
X122244864Y-62999995D01*
X121998745Y-62925861D01*
X121170605Y-63754000D01*
X120811395Y-63754000D01*
X119983255Y-62925861D01*
X119737136Y-62999995D01*
X119606950Y-63362187D01*
X119492787Y-63085891D01*
X119160856Y-62753381D01*
X119143695Y-62746255D01*
X120162861Y-62746255D01*
X120991000Y-63574395D01*
X121819139Y-62746255D01*
X121745005Y-62500136D01*
X121207777Y-62307035D01*
X120637546Y-62334222D01*
X120236995Y-62500136D01*
X120162861Y-62746255D01*
X119143695Y-62746255D01*
X118726946Y-62573206D01*
X118257115Y-62572796D01*
X117822891Y-62752213D01*
X117490381Y-63084144D01*
X117310206Y-63518054D01*
X117309796Y-63987885D01*
X116581339Y-63987885D01*
X116583802Y-63981955D01*
X116584198Y-63528037D01*
X116410857Y-63108520D01*
X116090169Y-62787271D01*
X115670955Y-62613198D01*
X115217037Y-62612802D01*
X114797520Y-62786143D01*
X114476271Y-63106831D01*
X114302198Y-63526045D01*
X114301961Y-63797929D01*
X114282341Y-63406951D01*
X114123742Y-63024059D01*
X113881764Y-62954841D01*
X113082605Y-63754000D01*
X112723395Y-63754000D01*
X111924236Y-62954841D01*
X111682258Y-63024059D01*
X111511464Y-63502983D01*
X111511464Y-62994000D01*
X111484897Y-62852810D01*
X111434980Y-62775236D01*
X112103841Y-62775236D01*
X112903000Y-63574395D01*
X113702159Y-62775236D01*
X113632941Y-62533258D01*
X113110220Y-62346845D01*
X112555951Y-62374659D01*
X112173059Y-62533258D01*
X112103841Y-62775236D01*
X111434980Y-62775236D01*
X111401454Y-62723135D01*
X111274134Y-62636141D01*
X111123000Y-62605536D01*
X110947200Y-62605536D01*
X110947200Y-61836984D01*
X112382984Y-60401200D01*
X117791536Y-60401200D01*
X117791536Y-61017000D01*
X117818103Y-61158190D01*
X117901546Y-61287865D01*
X118028866Y-61374859D01*
X118180000Y-61405464D01*
X120580000Y-61405464D01*
X120721190Y-61378897D01*
X120850865Y-61295454D01*
X120937859Y-61168134D01*
X120968464Y-61017000D01*
X120968464Y-59054720D01*
X126225984Y-53797200D01*
X134347000Y-53797200D01*
X134570564Y-53752730D01*
X134760092Y-53626092D01*
X136651719Y-51734464D01*
X138614000Y-51734464D01*
X138755190Y-51707897D01*
X138884865Y-51624454D01*
X138971859Y-51497134D01*
X139002464Y-51346000D01*
X139002464Y-49746000D01*
X138975897Y-49604810D01*
X138892454Y-49475135D01*
X138765134Y-49388141D01*
X138614000Y-49357536D01*
X136651720Y-49357536D01*
X135712200Y-48418016D01*
X135712200Y-48006000D01*
X135802026Y-48006000D01*
X135891924Y-48457949D01*
X136147933Y-48841093D01*
X136531077Y-49097102D01*
X136983026Y-49187000D01*
X137844974Y-49187000D01*
X138296923Y-49097102D01*
X138680067Y-48841093D01*
X138936076Y-48457949D01*
X139025974Y-48006000D01*
X138936076Y-47554051D01*
X138680067Y-47170907D01*
X138296923Y-46914898D01*
X137844974Y-46825000D01*
X136983026Y-46825000D01*
X136531077Y-46914898D01*
X136147933Y-47170907D01*
X135891924Y-47554051D01*
X135802026Y-48006000D01*
X135712200Y-48006000D01*
X135712200Y-45466000D01*
X135802026Y-45466000D01*
X135891924Y-45917949D01*
X136147933Y-46301093D01*
X136531077Y-46557102D01*
X136983026Y-46647000D01*
X137844974Y-46647000D01*
X138296923Y-46557102D01*
X138680067Y-46301093D01*
X138815620Y-46098223D01*
X140285035Y-46098223D01*
X140312222Y-46668454D01*
X140478136Y-47069005D01*
X140724255Y-47143139D01*
X141552395Y-46315000D01*
X140724255Y-45486861D01*
X140478136Y-45560995D01*
X140285035Y-46098223D01*
X138815620Y-46098223D01*
X138936076Y-45917949D01*
X139025974Y-45466000D01*
X138936076Y-45014051D01*
X138680067Y-44630907D01*
X138296923Y-44374898D01*
X137844974Y-44285000D01*
X136983026Y-44285000D01*
X136531077Y-44374898D01*
X136147933Y-44630907D01*
X135891924Y-45014051D01*
X135802026Y-45466000D01*
X135712200Y-45466000D01*
X135712200Y-45053984D01*
X136712913Y-44053271D01*
X136983026Y-44107000D01*
X137844974Y-44107000D01*
X138296923Y-44017102D01*
X138680067Y-43761093D01*
X138847709Y-43510200D01*
X140579797Y-43510200D01*
X140551206Y-43579054D01*
X140550796Y-44048885D01*
X140730213Y-44483109D01*
X141062144Y-44815619D01*
X141316121Y-44921079D01*
X140977995Y-45061136D01*
X140903861Y-45307255D01*
X141732000Y-46135395D01*
X141746142Y-46121252D01*
X141925748Y-46300858D01*
X141911605Y-46315000D01*
X141925748Y-46329142D01*
X141746142Y-46508748D01*
X141732000Y-46494605D01*
X140903861Y-47322745D01*
X140977995Y-47568864D01*
X141515223Y-47761965D01*
X142085454Y-47734778D01*
X142417800Y-47597115D01*
X142417800Y-51936016D01*
X137735783Y-56618033D01*
X137414000Y-56554026D01*
X136962051Y-56643924D01*
X136578907Y-56899933D01*
X136322898Y-57283077D01*
X136233000Y-57735026D01*
X136233000Y-58596974D01*
X136322898Y-59048923D01*
X136578907Y-59432067D01*
X136962051Y-59688076D01*
X137414000Y-59777974D01*
X137865949Y-59688076D01*
X138249093Y-59432067D01*
X138505102Y-59048923D01*
X138595000Y-58596974D01*
X138595000Y-57735026D01*
X138541271Y-57464913D01*
X143230579Y-52775605D01*
X143230579Y-53663237D01*
X140275783Y-56618033D01*
X139954000Y-56554026D01*
X139502051Y-56643924D01*
X139118907Y-56899933D01*
X138862898Y-57283077D01*
X138773000Y-57735026D01*
X138773000Y-58596974D01*
X138862898Y-59048923D01*
X139118907Y-59432067D01*
X139502051Y-59688076D01*
X139954000Y-59777974D01*
X140405949Y-59688076D01*
X140789093Y-59432067D01*
X141045102Y-59048923D01*
X141135000Y-58596974D01*
X141135000Y-57735026D01*
X141081271Y-57464913D01*
X143840189Y-54705995D01*
X143840189Y-55593627D01*
X142815783Y-56618033D01*
X142494000Y-56554026D01*
X142042051Y-56643924D01*
X141658907Y-56899933D01*
X141402898Y-57283077D01*
X141313000Y-57735026D01*
X141313000Y-58596974D01*
X141402898Y-59048923D01*
X141658907Y-59432067D01*
X142042051Y-59688076D01*
X142494000Y-59777974D01*
X142945949Y-59688076D01*
X143329093Y-59432067D01*
X143585102Y-59048923D01*
X143675000Y-58596974D01*
X143675000Y-57735026D01*
X143621271Y-57464913D01*
X144576800Y-56509384D01*
X144576800Y-56647433D01*
X144198907Y-56899933D01*
X143942898Y-57283077D01*
X143853000Y-57735026D01*
X143853000Y-58596974D01*
X143942898Y-59048923D01*
X144198907Y-59432067D01*
X144582051Y-59688076D01*
X145034000Y-59777974D01*
X145485949Y-59688076D01*
X145869093Y-59432067D01*
X146125102Y-59048923D01*
X146215000Y-58596974D01*
X146215000Y-57735026D01*
X146125102Y-57283077D01*
X145869093Y-56899933D01*
X145745200Y-56817150D01*
X145745200Y-53926748D01*
X145862503Y-54044256D01*
X146278043Y-54216804D01*
X146727983Y-54217196D01*
X146823533Y-54177716D01*
X146989800Y-54343983D01*
X146989800Y-56732291D01*
X146738907Y-56899933D01*
X146482898Y-57283077D01*
X146393000Y-57735026D01*
X146393000Y-58596974D01*
X146482898Y-59048923D01*
X146738907Y-59432067D01*
X147122051Y-59688076D01*
X147574000Y-59777974D01*
X148025949Y-59688076D01*
X148409093Y-59432067D01*
X148665102Y-59048923D01*
X148755000Y-58596974D01*
X148755000Y-57735026D01*
X148665102Y-57283077D01*
X148409093Y-56899933D01*
X148158200Y-56732291D01*
X148158200Y-54102005D01*
X148158201Y-54102000D01*
X148113731Y-53878437D01*
X148029736Y-53752730D01*
X147987092Y-53688908D01*
X147987089Y-53688906D01*
X147627568Y-53329384D01*
X147634804Y-53311957D01*
X147635196Y-52862017D01*
X147463375Y-52446177D01*
X147145497Y-52127744D01*
X147088200Y-52103952D01*
X147088200Y-49893245D01*
X147353109Y-49783787D01*
X147685619Y-49451856D01*
X147865794Y-49017946D01*
X147866204Y-48548115D01*
X147686787Y-48113891D01*
X147354856Y-47781381D01*
X147100879Y-47675921D01*
X147439005Y-47535864D01*
X147513139Y-47289745D01*
X146685000Y-46461605D01*
X146670858Y-46475748D01*
X146491252Y-46296142D01*
X146505395Y-46282000D01*
X146864605Y-46282000D01*
X147692745Y-47110139D01*
X147938864Y-47036005D01*
X148131965Y-46498777D01*
X148108720Y-46011223D01*
X149683035Y-46011223D01*
X149710222Y-46581454D01*
X149876136Y-46982005D01*
X150122255Y-47056139D01*
X150950395Y-46228000D01*
X151309605Y-46228000D01*
X152137745Y-47056139D01*
X152383864Y-46982005D01*
X152576965Y-46444777D01*
X152549778Y-45874546D01*
X152383864Y-45473995D01*
X152137745Y-45399861D01*
X151309605Y-46228000D01*
X150950395Y-46228000D01*
X150122255Y-45399861D01*
X149876136Y-45473995D01*
X149683035Y-46011223D01*
X148108720Y-46011223D01*
X148104778Y-45928546D01*
X147938864Y-45527995D01*
X147692745Y-45453861D01*
X146864605Y-46282000D01*
X146505395Y-46282000D01*
X146491252Y-46267858D01*
X146670858Y-46088252D01*
X146685000Y-46102395D01*
X147513139Y-45274255D01*
X147496874Y-45220255D01*
X150301861Y-45220255D01*
X151130000Y-46048395D01*
X151958139Y-45220255D01*
X151884005Y-44974136D01*
X151346777Y-44781035D01*
X150776546Y-44808222D01*
X150375995Y-44974136D01*
X150301861Y-45220255D01*
X147496874Y-45220255D01*
X147439005Y-45028136D01*
X146901777Y-44835035D01*
X146331546Y-44862222D01*
X145930995Y-45028136D01*
X145856861Y-45274253D01*
X145745200Y-45162592D01*
X145745200Y-37825885D01*
X148170796Y-37825885D01*
X148350213Y-38260109D01*
X148682144Y-38592619D01*
X149116054Y-38772794D01*
X149585885Y-38773204D01*
X150020109Y-38593787D01*
X150352619Y-38261856D01*
X150532794Y-37827946D01*
X150533204Y-37358115D01*
X150353787Y-36923891D01*
X150021856Y-36591381D01*
X149587946Y-36411206D01*
X149118115Y-36410796D01*
X148683891Y-36590213D01*
X148351381Y-36922144D01*
X148171206Y-37356054D01*
X148170796Y-37825885D01*
X145745200Y-37825885D01*
X145745200Y-36182984D01*
X148577984Y-33350200D01*
X148621796Y-33350200D01*
X148351381Y-33620144D01*
X148171206Y-34054054D01*
X148170796Y-34523885D01*
X148350213Y-34958109D01*
X148682144Y-35290619D01*
X149116054Y-35470794D01*
X149585885Y-35471204D01*
X150020109Y-35291787D01*
X150352619Y-34959856D01*
X150532794Y-34525946D01*
X150533204Y-34056115D01*
X150353787Y-33621891D01*
X150082569Y-33350200D01*
X153670000Y-33350200D01*
X153893564Y-33305730D01*
X154083092Y-33179092D01*
X157122231Y-30139953D01*
X157480000Y-30211117D01*
X157951083Y-30117413D01*
X158350448Y-29850565D01*
X158617296Y-29451200D01*
X158711000Y-28980117D01*
X158711000Y-28931883D01*
X158617296Y-28460800D01*
X158350448Y-28061435D01*
X157951083Y-27794587D01*
X157480000Y-27700883D01*
X157008917Y-27794587D01*
X156609552Y-28061435D01*
X156342704Y-28460800D01*
X156249000Y-28931883D01*
X156249000Y-28980117D01*
X156312162Y-29297654D01*
X155913543Y-29696273D01*
X156077296Y-29451200D01*
X156171000Y-28980117D01*
X156171000Y-28931883D01*
X156077296Y-28460800D01*
X155810448Y-28061435D01*
X155411083Y-27794587D01*
X154940000Y-27700883D01*
X154468917Y-27794587D01*
X154069552Y-28061435D01*
X153802704Y-28460800D01*
X153709000Y-28931883D01*
X153709000Y-28980117D01*
X153772162Y-29297654D01*
X153373543Y-29696273D01*
X153537296Y-29451200D01*
X153631000Y-28980117D01*
X153631000Y-28931883D01*
X153537296Y-28460800D01*
X153270448Y-28061435D01*
X152871083Y-27794587D01*
X152400000Y-27700883D01*
X151928917Y-27794587D01*
X151529552Y-28061435D01*
X151262704Y-28460800D01*
X151169000Y-28931883D01*
X151169000Y-28980117D01*
X151232162Y-29297654D01*
X149872016Y-30657800D01*
X147714384Y-30657800D01*
X148190090Y-30182094D01*
X148336000Y-30211117D01*
X148807083Y-30117413D01*
X149206448Y-29850565D01*
X149473296Y-29451200D01*
X149567000Y-28980117D01*
X149567000Y-28931883D01*
X149473296Y-28460800D01*
X149206448Y-28061435D01*
X148807083Y-27794587D01*
X148336000Y-27700883D01*
X147864917Y-27794587D01*
X147465552Y-28061435D01*
X147198704Y-28460800D01*
X147105000Y-28931883D01*
X147105000Y-28980117D01*
X147198704Y-29451200D01*
X147226707Y-29493109D01*
X142852133Y-33867683D01*
X142846239Y-33838051D01*
X142590230Y-33454907D01*
X142207086Y-33198898D01*
X141755137Y-33109000D01*
X141708863Y-33109000D01*
X141256914Y-33198898D01*
X140873770Y-33454907D01*
X140617761Y-33838051D01*
X140527863Y-34290000D01*
X140590569Y-34605247D01*
X138383242Y-36812574D01*
X138296923Y-36754898D01*
X137844974Y-36665000D01*
X136983026Y-36665000D01*
X136531077Y-36754898D01*
X136147933Y-37010907D01*
X135891924Y-37394051D01*
X135802026Y-37846000D01*
X135891924Y-38297949D01*
X136147933Y-38681093D01*
X136531077Y-38937102D01*
X136983026Y-39027000D01*
X137844974Y-39027000D01*
X138296923Y-38937102D01*
X138680067Y-38681093D01*
X138936076Y-38297949D01*
X139025974Y-37846000D01*
X139022027Y-37826157D01*
X141432213Y-35415971D01*
X141708863Y-35471000D01*
X141755137Y-35471000D01*
X142207086Y-35381102D01*
X142417800Y-35240307D01*
X142417800Y-36641693D01*
X142207086Y-36500898D01*
X141755137Y-36411000D01*
X141708863Y-36411000D01*
X141256914Y-36500898D01*
X140873770Y-36756907D01*
X140617761Y-37140051D01*
X140527863Y-37592000D01*
X140590569Y-37907247D01*
X138786949Y-39710867D01*
X138680067Y-39550907D01*
X138296923Y-39294898D01*
X137844974Y-39205000D01*
X136983026Y-39205000D01*
X136531077Y-39294898D01*
X136147933Y-39550907D01*
X135891924Y-39934051D01*
X135802026Y-40386000D01*
X135891924Y-40837949D01*
X136147933Y-41221093D01*
X136531077Y-41477102D01*
X136983026Y-41567000D01*
X137844974Y-41567000D01*
X138296923Y-41477102D01*
X138680067Y-41221093D01*
X138847709Y-40970200D01*
X138938000Y-40970200D01*
X139161564Y-40925730D01*
X139351092Y-40799092D01*
X141432213Y-38717971D01*
X141708863Y-38773000D01*
X141755137Y-38773000D01*
X142207086Y-38683102D01*
X142417800Y-38542307D01*
X142417800Y-39909353D01*
X142401856Y-39893381D01*
X141967946Y-39713206D01*
X141498115Y-39712796D01*
X141063891Y-39892213D01*
X140731381Y-40224144D01*
X140551206Y-40658054D01*
X140550796Y-41127885D01*
X140730213Y-41562109D01*
X141062144Y-41894619D01*
X141496054Y-42074794D01*
X141965885Y-42075204D01*
X142400109Y-41895787D01*
X142417800Y-41878127D01*
X142417800Y-42830353D01*
X142401856Y-42814381D01*
X141967946Y-42634206D01*
X141498115Y-42633796D01*
X141412398Y-42669214D01*
X141256092Y-42512908D01*
X141197938Y-42474051D01*
X141066564Y-42386270D01*
X140843000Y-42341800D01*
X138847709Y-42341800D01*
X138680067Y-42090907D01*
X138296923Y-41834898D01*
X137844974Y-41745000D01*
X136983026Y-41745000D01*
X136531077Y-41834898D01*
X136147933Y-42090907D01*
X135891924Y-42474051D01*
X135802026Y-42926000D01*
X135866033Y-43247783D01*
X134714908Y-44398908D01*
X134588270Y-44588436D01*
X134543800Y-44812000D01*
X134543800Y-48660000D01*
X134588270Y-48883564D01*
X134680770Y-49022000D01*
X134714908Y-49073092D01*
X135825536Y-50183720D01*
X135825536Y-50908281D01*
X134105016Y-52628800D01*
X125984000Y-52628800D01*
X125760436Y-52673270D01*
X125598935Y-52781181D01*
X125570908Y-52799908D01*
X120142280Y-58228536D01*
X118180000Y-58228536D01*
X118038810Y-58255103D01*
X117909135Y-58338546D01*
X117822141Y-58465866D01*
X117791536Y-58617000D01*
X117791536Y-59232800D01*
X112141005Y-59232800D01*
X112141000Y-59232799D01*
X111917437Y-59277269D01*
X111727908Y-59403908D01*
X109949908Y-61181908D01*
X109823270Y-61371436D01*
X109778800Y-61595000D01*
X109778800Y-62605536D01*
X109603000Y-62605536D01*
X109461810Y-62632103D01*
X109332135Y-62715546D01*
X109245141Y-62842866D01*
X109214536Y-62994000D01*
X109214536Y-64514000D01*
X109241103Y-64655190D01*
X109324546Y-64784865D01*
X109451866Y-64871859D01*
X109603000Y-64902464D01*
X109778800Y-64902464D01*
X109778800Y-64920400D01*
X109823270Y-65143964D01*
X109949908Y-65333492D01*
X110180508Y-65564092D01*
X110251028Y-65611212D01*
X111473908Y-66834092D01*
X111663436Y-66960730D01*
X111887000Y-67005200D01*
X126123016Y-67005200D01*
X129844800Y-70726984D01*
X129844800Y-72522539D01*
X129498100Y-72754196D01*
X129286870Y-73070324D01*
X129201240Y-72863583D01*
X128796576Y-72422034D01*
X128253742Y-72168954D01*
X128016000Y-72289003D01*
X128016000Y-73533000D01*
X128036000Y-73533000D01*
X128036000Y-73787000D01*
X128016000Y-73787000D01*
X128016000Y-75030997D01*
X128253742Y-75151046D01*
X128796576Y-74897966D01*
X128944801Y-74736230D01*
X128944801Y-75153620D01*
X128926946Y-75146206D01*
X128457115Y-75145796D01*
X128022891Y-75325213D01*
X127690381Y-75657144D01*
X127571430Y-75943610D01*
X127453787Y-75658891D01*
X127121856Y-75326381D01*
X126687946Y-75146206D01*
X126218115Y-75145796D01*
X126132397Y-75181214D01*
X125933200Y-74982016D01*
X125933200Y-74948464D01*
X126249000Y-74948464D01*
X126390190Y-74921897D01*
X126519865Y-74838454D01*
X126606859Y-74711134D01*
X126637464Y-74560000D01*
X126637464Y-74522654D01*
X126981424Y-74897966D01*
X127524258Y-75151046D01*
X127762000Y-75030997D01*
X127762000Y-73787000D01*
X127742000Y-73787000D01*
X127742000Y-73533000D01*
X127762000Y-73533000D01*
X127762000Y-72289003D01*
X127524258Y-72168954D01*
X126981424Y-72422034D01*
X126637464Y-72797346D01*
X126637464Y-72760000D01*
X126610897Y-72618810D01*
X126527454Y-72489135D01*
X126400134Y-72402141D01*
X126249000Y-72371536D01*
X125933200Y-72371536D01*
X125933200Y-72353600D01*
X125888730Y-72130036D01*
X125762092Y-71940508D01*
X124401492Y-70579908D01*
X124211964Y-70453270D01*
X123988400Y-70408800D01*
X120406464Y-70408800D01*
X120406464Y-69243000D01*
X120379897Y-69101810D01*
X120296454Y-68972135D01*
X120169134Y-68885141D01*
X120018000Y-68854536D01*
X116518000Y-68854536D01*
X116376810Y-68881103D01*
X116247135Y-68964546D01*
X116160141Y-69091866D01*
X116129536Y-69243000D01*
X116129536Y-72743000D01*
X116156103Y-72884190D01*
X116239546Y-73013865D01*
X116366866Y-73100859D01*
X116518000Y-73131464D01*
X120018000Y-73131464D01*
X120159190Y-73104897D01*
X120288865Y-73021454D01*
X120375859Y-72894134D01*
X120406464Y-72743000D01*
X120406464Y-71577200D01*
X123746416Y-71577200D01*
X124540752Y-72371536D01*
X124449000Y-72371536D01*
X124307810Y-72398103D01*
X124178135Y-72481546D01*
X124091141Y-72608866D01*
X124060536Y-72760000D01*
X124060536Y-74560000D01*
X124087103Y-74701190D01*
X124170546Y-74830865D01*
X124297866Y-74917859D01*
X124449000Y-74948464D01*
X124764800Y-74948464D01*
X124764800Y-75224000D01*
X124783149Y-75316243D01*
X124780139Y-75319253D01*
X124706005Y-75073136D01*
X124168777Y-74880035D01*
X123598546Y-74907222D01*
X123197995Y-75073136D01*
X123123861Y-75319255D01*
X123952000Y-76147395D01*
X123966142Y-76133252D01*
X124145748Y-76312858D01*
X124131605Y-76327000D01*
X124959745Y-77155139D01*
X125205864Y-77081005D01*
X125336050Y-76718813D01*
X125450213Y-76995109D01*
X125782144Y-77327619D01*
X126216054Y-77507794D01*
X126685885Y-77508204D01*
X126771603Y-77472786D01*
X128344817Y-79046000D01*
X107136000Y-79046000D01*
X107136000Y-73943000D01*
X113129536Y-73943000D01*
X113129536Y-77443000D01*
X113156103Y-77584190D01*
X113239546Y-77713865D01*
X113366866Y-77800859D01*
X113518000Y-77831464D01*
X117018000Y-77831464D01*
X117159190Y-77804897D01*
X117288865Y-77721454D01*
X117375859Y-77594134D01*
X117406464Y-77443000D01*
X117406464Y-76962000D01*
X118670000Y-76962000D01*
X118820719Y-77719713D01*
X119249929Y-78362071D01*
X119892287Y-78791281D01*
X120650000Y-78942000D01*
X121407713Y-78791281D01*
X122050071Y-78362071D01*
X122479281Y-77719713D01*
X122555856Y-77334745D01*
X123123861Y-77334745D01*
X123197995Y-77580864D01*
X123735223Y-77773965D01*
X124305454Y-77746778D01*
X124706005Y-77580864D01*
X124780139Y-77334745D01*
X123952000Y-76506605D01*
X123123861Y-77334745D01*
X122555856Y-77334745D01*
X122630000Y-76962000D01*
X122612592Y-76874484D01*
X122698136Y-77081005D01*
X122944255Y-77155139D01*
X123772395Y-76327000D01*
X122944255Y-75498861D01*
X122698136Y-75572995D01*
X122505035Y-76110223D01*
X122519052Y-76404231D01*
X122479281Y-76204287D01*
X122050071Y-75561929D01*
X121407713Y-75132719D01*
X120650000Y-74982000D01*
X119892287Y-75132719D01*
X119249929Y-75561929D01*
X118820719Y-76204287D01*
X118670000Y-76962000D01*
X117406464Y-76962000D01*
X117406464Y-73943000D01*
X117379897Y-73801810D01*
X117296454Y-73672135D01*
X117169134Y-73585141D01*
X117018000Y-73554536D01*
X113518000Y-73554536D01*
X113376810Y-73581103D01*
X113247135Y-73664546D01*
X113160141Y-73791866D01*
X113129536Y-73943000D01*
X107136000Y-73943000D01*
X107136000Y-71278750D01*
X109883000Y-71278750D01*
X109883000Y-72869310D01*
X109979673Y-73102699D01*
X110158302Y-73281327D01*
X110391691Y-73378000D01*
X111982250Y-73378000D01*
X112141000Y-73219250D01*
X112141000Y-71120000D01*
X112395000Y-71120000D01*
X112395000Y-73219250D01*
X112553750Y-73378000D01*
X114144309Y-73378000D01*
X114377698Y-73281327D01*
X114556327Y-73102699D01*
X114653000Y-72869310D01*
X114653000Y-71278750D01*
X114494250Y-71120000D01*
X112395000Y-71120000D01*
X112141000Y-71120000D01*
X110041750Y-71120000D01*
X109883000Y-71278750D01*
X107136000Y-71278750D01*
X107136000Y-69116690D01*
X109883000Y-69116690D01*
X109883000Y-70707250D01*
X110041750Y-70866000D01*
X112141000Y-70866000D01*
X112141000Y-68766750D01*
X112395000Y-68766750D01*
X112395000Y-70866000D01*
X114494250Y-70866000D01*
X114653000Y-70707250D01*
X114653000Y-69116690D01*
X114556327Y-68883301D01*
X114377698Y-68704673D01*
X114144309Y-68608000D01*
X112553750Y-68608000D01*
X112395000Y-68766750D01*
X112141000Y-68766750D01*
X111982250Y-68608000D01*
X110391691Y-68608000D01*
X110158302Y-68704673D01*
X109979673Y-68883301D01*
X109883000Y-69116690D01*
X107136000Y-69116690D01*
X107136000Y-57677493D01*
X107584761Y-57677493D01*
X107794563Y-58185251D01*
X108182705Y-58574072D01*
X108690097Y-58784759D01*
X109239493Y-58785239D01*
X109747251Y-58575437D01*
X109766189Y-58556532D01*
X112493073Y-58556532D01*
X112591736Y-58823387D01*
X113201461Y-59049908D01*
X113851460Y-59025856D01*
X114340264Y-58823387D01*
X114438927Y-58556532D01*
X113466000Y-57583605D01*
X112493073Y-58556532D01*
X109766189Y-58556532D01*
X110136072Y-58187295D01*
X110346759Y-57679903D01*
X110347231Y-57139461D01*
X111820092Y-57139461D01*
X111844144Y-57789460D01*
X112046613Y-58278264D01*
X112313468Y-58376927D01*
X113286395Y-57404000D01*
X113645605Y-57404000D01*
X114618532Y-58376927D01*
X114885387Y-58278264D01*
X115111908Y-57668539D01*
X115087856Y-57018540D01*
X114885387Y-56529736D01*
X114618532Y-56431073D01*
X113645605Y-57404000D01*
X113286395Y-57404000D01*
X112313468Y-56431073D01*
X112046613Y-56529736D01*
X111820092Y-57139461D01*
X110347231Y-57139461D01*
X110347239Y-57130507D01*
X110137437Y-56622749D01*
X109766805Y-56251468D01*
X112493073Y-56251468D01*
X113466000Y-57224395D01*
X114438927Y-56251468D01*
X114340264Y-55984613D01*
X113730539Y-55758092D01*
X113080540Y-55782144D01*
X112591736Y-55984613D01*
X112493073Y-56251468D01*
X109766805Y-56251468D01*
X109749295Y-56233928D01*
X109241903Y-56023241D01*
X108692507Y-56022761D01*
X108184749Y-56232563D01*
X107795928Y-56620705D01*
X107585241Y-57128097D01*
X107584761Y-57677493D01*
X107136000Y-57677493D01*
X107136000Y-51177493D01*
X107584761Y-51177493D01*
X107794563Y-51685251D01*
X108182705Y-52074072D01*
X108690097Y-52284759D01*
X109239493Y-52285239D01*
X109747251Y-52075437D01*
X109766189Y-52056532D01*
X112493073Y-52056532D01*
X112591736Y-52323387D01*
X113201461Y-52549908D01*
X113851460Y-52525856D01*
X114340264Y-52323387D01*
X114438927Y-52056532D01*
X113466000Y-51083605D01*
X112493073Y-52056532D01*
X109766189Y-52056532D01*
X110136072Y-51687295D01*
X110346759Y-51179903D01*
X110347231Y-50639461D01*
X111820092Y-50639461D01*
X111844144Y-51289460D01*
X112046613Y-51778264D01*
X112313468Y-51876927D01*
X113286395Y-50904000D01*
X113645605Y-50904000D01*
X114618532Y-51876927D01*
X114885387Y-51778264D01*
X115111908Y-51168539D01*
X115087856Y-50518540D01*
X114885387Y-50029736D01*
X114618532Y-49931073D01*
X113645605Y-50904000D01*
X113286395Y-50904000D01*
X112313468Y-49931073D01*
X112046613Y-50029736D01*
X111820092Y-50639461D01*
X110347231Y-50639461D01*
X110347239Y-50630507D01*
X110137437Y-50122749D01*
X109766805Y-49751468D01*
X112493073Y-49751468D01*
X113466000Y-50724395D01*
X114438927Y-49751468D01*
X114340264Y-49484613D01*
X113730539Y-49258092D01*
X113080540Y-49282144D01*
X112591736Y-49484613D01*
X112493073Y-49751468D01*
X109766805Y-49751468D01*
X109749295Y-49733928D01*
X109241903Y-49523241D01*
X108692507Y-49522761D01*
X108184749Y-49732563D01*
X107795928Y-50120705D01*
X107585241Y-50628097D01*
X107584761Y-51177493D01*
X107136000Y-51177493D01*
X107136000Y-47606833D01*
X112062887Y-47606833D01*
X112126916Y-47847696D01*
X112548524Y-48567870D01*
X113213638Y-49071882D01*
X114021000Y-49283000D01*
X114521000Y-49283000D01*
X114521000Y-47275000D01*
X114775000Y-47275000D01*
X114775000Y-49283000D01*
X115275000Y-49283000D01*
X116082362Y-49071882D01*
X116747476Y-48567870D01*
X117169084Y-47847696D01*
X117233113Y-47606833D01*
X117120165Y-47275000D01*
X114775000Y-47275000D01*
X114521000Y-47275000D01*
X112175835Y-47275000D01*
X112062887Y-47606833D01*
X107136000Y-47606833D01*
X107136000Y-46689167D01*
X112062887Y-46689167D01*
X112175835Y-47021000D01*
X114521000Y-47021000D01*
X114521000Y-45013000D01*
X114775000Y-45013000D01*
X114775000Y-47021000D01*
X117120165Y-47021000D01*
X117233113Y-46689167D01*
X117169084Y-46448304D01*
X116747476Y-45728130D01*
X116082362Y-45224118D01*
X115275000Y-45013000D01*
X114775000Y-45013000D01*
X114521000Y-45013000D01*
X114021000Y-45013000D01*
X113213638Y-45224118D01*
X112548524Y-45728130D01*
X112126916Y-46448304D01*
X112062887Y-46689167D01*
X107136000Y-46689167D01*
X107136000Y-43396764D01*
X116548841Y-43396764D01*
X116618059Y-43638742D01*
X117140780Y-43825155D01*
X117695049Y-43797341D01*
X118077941Y-43638742D01*
X118147159Y-43396764D01*
X117348000Y-42597605D01*
X116548841Y-43396764D01*
X107136000Y-43396764D01*
X107136000Y-42210780D01*
X115940845Y-42210780D01*
X115968659Y-42765049D01*
X116127258Y-43147941D01*
X116369236Y-43217159D01*
X117168395Y-42418000D01*
X116369236Y-41618841D01*
X116127258Y-41688059D01*
X115940845Y-42210780D01*
X107136000Y-42210780D01*
X107136000Y-40103963D01*
X116206802Y-40103963D01*
X116380143Y-40523480D01*
X116700831Y-40844729D01*
X117120045Y-41018802D01*
X117391929Y-41019039D01*
X117000951Y-41038659D01*
X116618059Y-41197258D01*
X116548841Y-41439236D01*
X117348000Y-42238395D01*
X117362143Y-42224253D01*
X117541748Y-42403858D01*
X117527605Y-42418000D01*
X118326764Y-43217159D01*
X118487621Y-43171146D01*
X118700831Y-43384729D01*
X118763800Y-43410876D01*
X118763800Y-48172840D01*
X118262064Y-48508090D01*
X117919346Y-49021003D01*
X117799000Y-49626026D01*
X117799000Y-49687974D01*
X117919346Y-50292997D01*
X118191490Y-50700289D01*
X118205270Y-50769563D01*
X118331908Y-50959092D01*
X118521437Y-51085730D01*
X118745000Y-51130200D01*
X118746848Y-51129832D01*
X118774977Y-51148628D01*
X119380000Y-51268974D01*
X119985023Y-51148628D01*
X120364545Y-50895039D01*
X128002096Y-50895039D01*
X128019633Y-50977819D01*
X128289500Y-51470896D01*
X128727517Y-51823166D01*
X129267000Y-51981000D01*
X129667000Y-51981000D01*
X129667000Y-50673000D01*
X129921000Y-50673000D01*
X129921000Y-51981000D01*
X130321000Y-51981000D01*
X130860483Y-51823166D01*
X131298500Y-51470896D01*
X131568367Y-50977819D01*
X131585904Y-50895039D01*
X131463915Y-50673000D01*
X129921000Y-50673000D01*
X129667000Y-50673000D01*
X128124085Y-50673000D01*
X128002096Y-50895039D01*
X120364545Y-50895039D01*
X120497936Y-50805910D01*
X120840654Y-50292997D01*
X120961000Y-49687974D01*
X120961000Y-49626026D01*
X120840654Y-49021003D01*
X120497936Y-48508090D01*
X119985023Y-48165372D01*
X119932200Y-48154865D01*
X119932200Y-43411177D01*
X119993480Y-43385857D01*
X120314729Y-43065169D01*
X120488802Y-42645955D01*
X120489198Y-42192037D01*
X120342003Y-41835799D01*
X120511615Y-41835799D01*
X125316908Y-46641092D01*
X125506437Y-46767731D01*
X125730000Y-46812200D01*
X127374016Y-46812200D01*
X128246033Y-47684217D01*
X128182026Y-48006000D01*
X128271924Y-48457949D01*
X128527933Y-48841093D01*
X128911077Y-49097102D01*
X129151228Y-49144871D01*
X128727517Y-49268834D01*
X128289500Y-49621104D01*
X128019633Y-50114181D01*
X128002096Y-50196961D01*
X128124085Y-50419000D01*
X129667000Y-50419000D01*
X129667000Y-50399000D01*
X129921000Y-50399000D01*
X129921000Y-50419000D01*
X131463915Y-50419000D01*
X131585904Y-50196961D01*
X131568367Y-50114181D01*
X131298500Y-49621104D01*
X130860483Y-49268834D01*
X130436772Y-49144871D01*
X130676923Y-49097102D01*
X131060067Y-48841093D01*
X131316076Y-48457949D01*
X131405974Y-48006000D01*
X131316076Y-47554051D01*
X131060067Y-47170907D01*
X130676923Y-46914898D01*
X130224974Y-46825000D01*
X129363026Y-46825000D01*
X129092913Y-46878729D01*
X128264384Y-46050200D01*
X128360291Y-46050200D01*
X128527933Y-46301093D01*
X128911077Y-46557102D01*
X129363026Y-46647000D01*
X130224974Y-46647000D01*
X130676923Y-46557102D01*
X131060067Y-46301093D01*
X131316076Y-45917949D01*
X131405974Y-45466000D01*
X131316076Y-45014051D01*
X131060067Y-44630907D01*
X130676923Y-44374898D01*
X130224974Y-44285000D01*
X129363026Y-44285000D01*
X128911077Y-44374898D01*
X128527933Y-44630907D01*
X128360291Y-44881800D01*
X126453104Y-44881800D01*
X125638446Y-44067142D01*
X125709885Y-44067204D01*
X126144109Y-43887787D01*
X126476619Y-43555856D01*
X126512186Y-43470200D01*
X128333564Y-43470200D01*
X128527933Y-43761093D01*
X128911077Y-44017102D01*
X129363026Y-44107000D01*
X130224974Y-44107000D01*
X130676923Y-44017102D01*
X131060067Y-43761093D01*
X131316076Y-43377949D01*
X131405974Y-42926000D01*
X131316076Y-42474051D01*
X131060067Y-42090907D01*
X130676923Y-41834898D01*
X130436772Y-41787129D01*
X130860483Y-41663166D01*
X131298500Y-41310896D01*
X131568367Y-40817819D01*
X131585904Y-40735039D01*
X131463915Y-40513000D01*
X129921000Y-40513000D01*
X129921000Y-40533000D01*
X129667000Y-40533000D01*
X129667000Y-40513000D01*
X128124085Y-40513000D01*
X128002096Y-40735039D01*
X128019633Y-40817819D01*
X128289500Y-41310896D01*
X128727517Y-41663166D01*
X129151228Y-41787129D01*
X128911077Y-41834898D01*
X128527933Y-42090907D01*
X128387019Y-42301800D01*
X126512457Y-42301800D01*
X126477787Y-42217891D01*
X126145856Y-41885381D01*
X125891879Y-41779921D01*
X126230005Y-41639864D01*
X126304139Y-41393745D01*
X125476000Y-40565605D01*
X124647861Y-41393745D01*
X124721995Y-41639864D01*
X125084187Y-41770050D01*
X124807891Y-41884213D01*
X124475381Y-42216144D01*
X124295206Y-42650054D01*
X124295142Y-42723838D01*
X121740527Y-40169223D01*
X124029035Y-40169223D01*
X124056222Y-40739454D01*
X124222136Y-41140005D01*
X124468255Y-41214139D01*
X125296395Y-40386000D01*
X125655605Y-40386000D01*
X126483745Y-41214139D01*
X126729864Y-41140005D01*
X126922965Y-40602777D01*
X126895778Y-40032546D01*
X126729864Y-39631995D01*
X126483745Y-39557861D01*
X125655605Y-40386000D01*
X125296395Y-40386000D01*
X124468255Y-39557861D01*
X124222136Y-39631995D01*
X124029035Y-40169223D01*
X121740527Y-40169223D01*
X121036212Y-39464908D01*
X121022391Y-39455673D01*
X120906527Y-39378255D01*
X124647861Y-39378255D01*
X125476000Y-40206395D01*
X126304139Y-39378255D01*
X126230005Y-39132136D01*
X125692777Y-38939035D01*
X125122546Y-38966222D01*
X124721995Y-39132136D01*
X124647861Y-39378255D01*
X120906527Y-39378255D01*
X120846684Y-39338270D01*
X120623120Y-39293800D01*
X120341177Y-39293800D01*
X120315857Y-39232520D01*
X119995169Y-38911271D01*
X119575955Y-38737198D01*
X119122037Y-38736802D01*
X118702520Y-38910143D01*
X118381271Y-39230831D01*
X118348133Y-39310635D01*
X118315857Y-39232520D01*
X117995169Y-38911271D01*
X117575955Y-38737198D01*
X117122037Y-38736802D01*
X116702520Y-38910143D01*
X116381271Y-39230831D01*
X116207198Y-39650045D01*
X116206802Y-40103963D01*
X107136000Y-40103963D01*
X107136000Y-38195039D01*
X128002096Y-38195039D01*
X128019633Y-38277819D01*
X128289500Y-38770896D01*
X128718607Y-39116000D01*
X128289500Y-39461104D01*
X128019633Y-39954181D01*
X128002096Y-40036961D01*
X128124085Y-40259000D01*
X129667000Y-40259000D01*
X129667000Y-37973000D01*
X129921000Y-37973000D01*
X129921000Y-40259000D01*
X131463915Y-40259000D01*
X131585904Y-40036961D01*
X131568367Y-39954181D01*
X131298500Y-39461104D01*
X130869393Y-39116000D01*
X131298500Y-38770896D01*
X131568367Y-38277819D01*
X131585904Y-38195039D01*
X131463915Y-37973000D01*
X129921000Y-37973000D01*
X129667000Y-37973000D01*
X128124085Y-37973000D01*
X128002096Y-38195039D01*
X107136000Y-38195039D01*
X107136000Y-37496961D01*
X128002096Y-37496961D01*
X128124085Y-37719000D01*
X129667000Y-37719000D01*
X129667000Y-37699000D01*
X129921000Y-37699000D01*
X129921000Y-37719000D01*
X131463915Y-37719000D01*
X131585904Y-37496961D01*
X131568367Y-37414181D01*
X131298500Y-36921104D01*
X130860483Y-36568834D01*
X130436772Y-36444871D01*
X130676923Y-36397102D01*
X131060067Y-36141093D01*
X131316076Y-35757949D01*
X131405974Y-35306000D01*
X135802026Y-35306000D01*
X135891924Y-35757949D01*
X136147933Y-36141093D01*
X136531077Y-36397102D01*
X136983026Y-36487000D01*
X137844974Y-36487000D01*
X138296923Y-36397102D01*
X138680067Y-36141093D01*
X138936076Y-35757949D01*
X139025974Y-35306000D01*
X138936076Y-34854051D01*
X138680067Y-34470907D01*
X138296923Y-34214898D01*
X137844974Y-34125000D01*
X136983026Y-34125000D01*
X136531077Y-34214898D01*
X136147933Y-34470907D01*
X135891924Y-34854051D01*
X135802026Y-35306000D01*
X131405974Y-35306000D01*
X131316076Y-34854051D01*
X131060067Y-34470907D01*
X130676923Y-34214898D01*
X130224974Y-34125000D01*
X129363026Y-34125000D01*
X128911077Y-34214898D01*
X128527933Y-34470907D01*
X128271924Y-34854051D01*
X128182026Y-35306000D01*
X128271924Y-35757949D01*
X128527933Y-36141093D01*
X128911077Y-36397102D01*
X129151228Y-36444871D01*
X128727517Y-36568834D01*
X128289500Y-36921104D01*
X128019633Y-37414181D01*
X128002096Y-37496961D01*
X107136000Y-37496961D01*
X107136000Y-35606833D01*
X112062887Y-35606833D01*
X112126916Y-35847696D01*
X112548524Y-36567870D01*
X113213638Y-37071882D01*
X114021000Y-37283000D01*
X114521000Y-37283000D01*
X114521000Y-35275000D01*
X114775000Y-35275000D01*
X114775000Y-37283000D01*
X115275000Y-37283000D01*
X116082362Y-37071882D01*
X116747476Y-36567870D01*
X117169084Y-35847696D01*
X117233113Y-35606833D01*
X117120165Y-35275000D01*
X114775000Y-35275000D01*
X114521000Y-35275000D01*
X112175835Y-35275000D01*
X112062887Y-35606833D01*
X107136000Y-35606833D01*
X107136000Y-34689167D01*
X112062887Y-34689167D01*
X112175835Y-35021000D01*
X114521000Y-35021000D01*
X114521000Y-33013000D01*
X114775000Y-33013000D01*
X114775000Y-35021000D01*
X117120165Y-35021000D01*
X117233113Y-34689167D01*
X117169084Y-34448304D01*
X116747476Y-33728130D01*
X116082362Y-33224118D01*
X115275000Y-33013000D01*
X114775000Y-33013000D01*
X114521000Y-33013000D01*
X114021000Y-33013000D01*
X113213638Y-33224118D01*
X112548524Y-33728130D01*
X112126916Y-34448304D01*
X112062887Y-34689167D01*
X107136000Y-34689167D01*
X107136000Y-28956000D01*
X119686000Y-28956000D01*
X119836719Y-29713713D01*
X120265929Y-30356071D01*
X120908287Y-30785281D01*
X121666000Y-30936000D01*
X122423713Y-30785281D01*
X123066071Y-30356071D01*
X123495281Y-29713713D01*
X123646000Y-28956000D01*
X123495281Y-28198287D01*
X123433617Y-28106000D01*
X124237536Y-28106000D01*
X124237536Y-29806000D01*
X124264103Y-29947190D01*
X124347546Y-30076865D01*
X124474866Y-30163859D01*
X124626000Y-30194464D01*
X126326000Y-30194464D01*
X126467190Y-30167897D01*
X126596865Y-30084454D01*
X126683859Y-29957134D01*
X126714464Y-29806000D01*
X126714464Y-28931883D01*
X126785000Y-28931883D01*
X126785000Y-28980117D01*
X126878704Y-29451200D01*
X127145552Y-29850565D01*
X127544917Y-30117413D01*
X128016000Y-30211117D01*
X128487083Y-30117413D01*
X128886448Y-29850565D01*
X129153296Y-29451200D01*
X129247000Y-28980117D01*
X129247000Y-28931883D01*
X129325000Y-28931883D01*
X129325000Y-28980117D01*
X129418704Y-29451200D01*
X129685552Y-29850565D01*
X130084917Y-30117413D01*
X130556000Y-30211117D01*
X131027083Y-30117413D01*
X131426448Y-29850565D01*
X131693296Y-29451200D01*
X131701083Y-29412053D01*
X131900817Y-29837358D01*
X132329076Y-30227645D01*
X132739110Y-30397476D01*
X132969000Y-30276155D01*
X132969000Y-29083000D01*
X132949000Y-29083000D01*
X132949000Y-28829000D01*
X132969000Y-28829000D01*
X132969000Y-27635845D01*
X133223000Y-27635845D01*
X133223000Y-28829000D01*
X133243000Y-28829000D01*
X133243000Y-29083000D01*
X133223000Y-29083000D01*
X133223000Y-30276155D01*
X133452890Y-30397476D01*
X133862924Y-30227645D01*
X134291183Y-29837358D01*
X134490917Y-29412053D01*
X134498704Y-29451200D01*
X134765552Y-29850565D01*
X135164917Y-30117413D01*
X135636000Y-30211117D01*
X136107083Y-30117413D01*
X136506448Y-29850565D01*
X136773296Y-29451200D01*
X136867000Y-28980117D01*
X136867000Y-28931883D01*
X136945000Y-28931883D01*
X136945000Y-28980117D01*
X137038704Y-29451200D01*
X137305552Y-29850565D01*
X137704917Y-30117413D01*
X138176000Y-30211117D01*
X138647083Y-30117413D01*
X139046448Y-29850565D01*
X139313296Y-29451200D01*
X139407000Y-28980117D01*
X139407000Y-28931883D01*
X139485000Y-28931883D01*
X139485000Y-28980117D01*
X139578704Y-29451200D01*
X139845552Y-29850565D01*
X140244917Y-30117413D01*
X140716000Y-30211117D01*
X141187083Y-30117413D01*
X141586448Y-29850565D01*
X141853296Y-29451200D01*
X141947000Y-28980117D01*
X141947000Y-28931883D01*
X142025000Y-28931883D01*
X142025000Y-28980117D01*
X142118704Y-29451200D01*
X142385552Y-29850565D01*
X142784917Y-30117413D01*
X143256000Y-30211117D01*
X143727083Y-30117413D01*
X144126448Y-29850565D01*
X144393296Y-29451200D01*
X144487000Y-28980117D01*
X144487000Y-28931883D01*
X144565000Y-28931883D01*
X144565000Y-28980117D01*
X144658704Y-29451200D01*
X144925552Y-29850565D01*
X145324917Y-30117413D01*
X145796000Y-30211117D01*
X146267083Y-30117413D01*
X146666448Y-29850565D01*
X146933296Y-29451200D01*
X147027000Y-28980117D01*
X147027000Y-28931883D01*
X146933296Y-28460800D01*
X146666448Y-28061435D01*
X146267083Y-27794587D01*
X145796000Y-27700883D01*
X145324917Y-27794587D01*
X144925552Y-28061435D01*
X144658704Y-28460800D01*
X144565000Y-28931883D01*
X144487000Y-28931883D01*
X144393296Y-28460800D01*
X144126448Y-28061435D01*
X143727083Y-27794587D01*
X143256000Y-27700883D01*
X142784917Y-27794587D01*
X142385552Y-28061435D01*
X142118704Y-28460800D01*
X142025000Y-28931883D01*
X141947000Y-28931883D01*
X141853296Y-28460800D01*
X141586448Y-28061435D01*
X141187083Y-27794587D01*
X140716000Y-27700883D01*
X140244917Y-27794587D01*
X139845552Y-28061435D01*
X139578704Y-28460800D01*
X139485000Y-28931883D01*
X139407000Y-28931883D01*
X139313296Y-28460800D01*
X139046448Y-28061435D01*
X138647083Y-27794587D01*
X138176000Y-27700883D01*
X137704917Y-27794587D01*
X137305552Y-28061435D01*
X137038704Y-28460800D01*
X136945000Y-28931883D01*
X136867000Y-28931883D01*
X136773296Y-28460800D01*
X136506448Y-28061435D01*
X136107083Y-27794587D01*
X135636000Y-27700883D01*
X135164917Y-27794587D01*
X134765552Y-28061435D01*
X134498704Y-28460800D01*
X134490917Y-28499947D01*
X134291183Y-28074642D01*
X133862924Y-27684355D01*
X133452890Y-27514524D01*
X133223000Y-27635845D01*
X132969000Y-27635845D01*
X132739110Y-27514524D01*
X132329076Y-27684355D01*
X131900817Y-28074642D01*
X131701083Y-28499947D01*
X131693296Y-28460800D01*
X131426448Y-28061435D01*
X131027083Y-27794587D01*
X130556000Y-27700883D01*
X130084917Y-27794587D01*
X129685552Y-28061435D01*
X129418704Y-28460800D01*
X129325000Y-28931883D01*
X129247000Y-28931883D01*
X129153296Y-28460800D01*
X128886448Y-28061435D01*
X128487083Y-27794587D01*
X128016000Y-27700883D01*
X127544917Y-27794587D01*
X127145552Y-28061435D01*
X126878704Y-28460800D01*
X126785000Y-28931883D01*
X126714464Y-28931883D01*
X126714464Y-28106000D01*
X126687897Y-27964810D01*
X126604454Y-27835135D01*
X126477134Y-27748141D01*
X126326000Y-27717536D01*
X124626000Y-27717536D01*
X124484810Y-27744103D01*
X124355135Y-27827546D01*
X124268141Y-27954866D01*
X124237536Y-28106000D01*
X123433617Y-28106000D01*
X123066071Y-27555929D01*
X122423713Y-27126719D01*
X121666000Y-26976000D01*
X120908287Y-27126719D01*
X120265929Y-27555929D01*
X119836719Y-28198287D01*
X119686000Y-28956000D01*
X107136000Y-28956000D01*
X107136000Y-26872000D01*
X172264000Y-26872000D01*
X172264000Y-39370000D01*
X172264000Y-39370000D01*
G37*
X172264000Y-39370000D02*
X172277397Y-39437350D01*
X172284642Y-39505645D01*
X172294633Y-39524004D01*
X172298711Y-39544504D01*
X172336865Y-39601606D01*
X172369691Y-39661924D01*
X174804000Y-42583095D01*
X174804000Y-43187898D01*
X174783947Y-43087085D01*
X174299677Y-42362323D01*
X173574915Y-41878053D01*
X172720000Y-41708000D01*
X171865085Y-41878053D01*
X171140323Y-42362323D01*
X170656053Y-43087085D01*
X170486000Y-43942000D01*
X170656053Y-44796915D01*
X171140323Y-45521677D01*
X171865085Y-46005947D01*
X172720000Y-46176000D01*
X173574915Y-46005947D01*
X174299677Y-45521677D01*
X174783947Y-44796915D01*
X174804000Y-44696102D01*
X174804000Y-74256905D01*
X172369691Y-77178076D01*
X172336865Y-77238394D01*
X172298711Y-77295496D01*
X172294633Y-77315996D01*
X172284642Y-77334355D01*
X172277397Y-77402650D01*
X172264000Y-77470000D01*
X172264000Y-79046000D01*
X152398584Y-79046000D01*
X152813092Y-78631492D01*
X152939731Y-78441963D01*
X152984200Y-78218400D01*
X152984200Y-78200464D01*
X153250000Y-78200464D01*
X153391190Y-78173897D01*
X153520865Y-78090454D01*
X153607859Y-77963134D01*
X153638464Y-77812000D01*
X153638464Y-76112000D01*
X153621567Y-76022200D01*
X155448000Y-76022200D01*
X155671564Y-75977730D01*
X155861092Y-75851092D01*
X156877092Y-74835092D01*
X156911523Y-74783562D01*
X157003730Y-74645564D01*
X157048200Y-74422000D01*
X157048200Y-67151822D01*
X157149800Y-67219709D01*
X157149800Y-75772564D01*
X157008917Y-75800587D01*
X156609552Y-76067435D01*
X156342704Y-76466800D01*
X156249000Y-76937883D01*
X156249000Y-76986117D01*
X156342704Y-77457200D01*
X156609552Y-77856565D01*
X157008917Y-78123413D01*
X157480000Y-78217117D01*
X157951083Y-78123413D01*
X158350448Y-77856565D01*
X158617296Y-77457200D01*
X158711000Y-76986117D01*
X158711000Y-76937883D01*
X158617296Y-76466800D01*
X158350448Y-76067435D01*
X158318200Y-76045888D01*
X158318200Y-67219709D01*
X158569093Y-67052067D01*
X158825102Y-66668923D01*
X158915000Y-66216974D01*
X158915000Y-65355026D01*
X158825102Y-64903077D01*
X158569093Y-64519933D01*
X158185949Y-64263924D01*
X157920887Y-64211200D01*
X160087113Y-64211200D01*
X159822051Y-64263924D01*
X159438907Y-64519933D01*
X159182898Y-64903077D01*
X159093000Y-65355026D01*
X159093000Y-66216974D01*
X159182898Y-66668923D01*
X159438907Y-67052067D01*
X159689800Y-67219709D01*
X159689800Y-75772564D01*
X159548917Y-75800587D01*
X159149552Y-76067435D01*
X158882704Y-76466800D01*
X158789000Y-76937883D01*
X158789000Y-76986117D01*
X158882704Y-77457200D01*
X159149552Y-77856565D01*
X159548917Y-78123413D01*
X160020000Y-78217117D01*
X160491083Y-78123413D01*
X160890448Y-77856565D01*
X161157296Y-77457200D01*
X161251000Y-76986117D01*
X161251000Y-76937883D01*
X161157296Y-76466800D01*
X160890448Y-76067435D01*
X160858200Y-76045888D01*
X160858200Y-67219709D01*
X161109093Y-67052067D01*
X161365102Y-66668923D01*
X161455000Y-66216974D01*
X161455000Y-65355026D01*
X161365102Y-64903077D01*
X161109093Y-64519933D01*
X160725949Y-64263924D01*
X160460887Y-64211200D01*
X162627113Y-64211200D01*
X162362051Y-64263924D01*
X161978907Y-64519933D01*
X161722898Y-64903077D01*
X161633000Y-65355026D01*
X161633000Y-66216974D01*
X161722898Y-66668923D01*
X161978907Y-67052067D01*
X162229800Y-67219709D01*
X162229800Y-75772564D01*
X162088917Y-75800587D01*
X161689552Y-76067435D01*
X161422704Y-76466800D01*
X161329000Y-76937883D01*
X161329000Y-76986117D01*
X161422704Y-77457200D01*
X161689552Y-77856565D01*
X162088917Y-78123413D01*
X162560000Y-78217117D01*
X163031083Y-78123413D01*
X163430448Y-77856565D01*
X163697296Y-77457200D01*
X163791000Y-76986117D01*
X163791000Y-76937883D01*
X163697296Y-76466800D01*
X163430448Y-76067435D01*
X163398200Y-76045888D01*
X163398200Y-67219709D01*
X163649093Y-67052067D01*
X163905102Y-66668923D01*
X163995000Y-66216974D01*
X163995000Y-65355026D01*
X163905102Y-64903077D01*
X163649093Y-64519933D01*
X163265949Y-64263924D01*
X163000887Y-64211200D01*
X165167113Y-64211200D01*
X164902051Y-64263924D01*
X164518907Y-64519933D01*
X164262898Y-64903077D01*
X164173000Y-65355026D01*
X164173000Y-66216974D01*
X164262898Y-66668923D01*
X164518907Y-67052067D01*
X164769800Y-67219709D01*
X164769800Y-75772564D01*
X164628917Y-75800587D01*
X164229552Y-76067435D01*
X163962704Y-76466800D01*
X163869000Y-76937883D01*
X163869000Y-76986117D01*
X163962704Y-77457200D01*
X164229552Y-77856565D01*
X164628917Y-78123413D01*
X165100000Y-78217117D01*
X165571083Y-78123413D01*
X165970448Y-77856565D01*
X166237296Y-77457200D01*
X166331000Y-76986117D01*
X166331000Y-76937883D01*
X166237296Y-76466800D01*
X165970448Y-76067435D01*
X165938200Y-76045888D01*
X165938200Y-67219709D01*
X166189093Y-67052067D01*
X166445102Y-66668923D01*
X166535000Y-66216974D01*
X166535000Y-65355026D01*
X166445102Y-64903077D01*
X166189093Y-64519933D01*
X165805949Y-64263924D01*
X165540887Y-64211200D01*
X167707113Y-64211200D01*
X167442051Y-64263924D01*
X167058907Y-64519933D01*
X166802898Y-64903077D01*
X166713000Y-65355026D01*
X166713000Y-66216974D01*
X166802898Y-66668923D01*
X167058907Y-67052067D01*
X167309800Y-67219709D01*
X167309800Y-75772564D01*
X167168917Y-75800587D01*
X166769552Y-76067435D01*
X166502704Y-76466800D01*
X166409000Y-76937883D01*
X166409000Y-76986117D01*
X166502704Y-77457200D01*
X166769552Y-77856565D01*
X167168917Y-78123413D01*
X167640000Y-78217117D01*
X168111083Y-78123413D01*
X168510448Y-77856565D01*
X168777296Y-77457200D01*
X168871000Y-76986117D01*
X168871000Y-76937883D01*
X168777296Y-76466800D01*
X168540226Y-76112000D01*
X168941536Y-76112000D01*
X168941536Y-77812000D01*
X168968103Y-77953190D01*
X169051546Y-78082865D01*
X169178866Y-78169859D01*
X169330000Y-78200464D01*
X171030000Y-78200464D01*
X171171190Y-78173897D01*
X171300865Y-78090454D01*
X171387859Y-77963134D01*
X171418464Y-77812000D01*
X171418464Y-76112000D01*
X171391897Y-75970810D01*
X171308454Y-75841135D01*
X171181134Y-75754141D01*
X171030000Y-75723536D01*
X171018200Y-75723536D01*
X171018200Y-72830502D01*
X171319929Y-73282071D01*
X171962287Y-73711281D01*
X172720000Y-73862000D01*
X173477713Y-73711281D01*
X174120071Y-73282071D01*
X174549281Y-72639713D01*
X174700000Y-71882000D01*
X174549281Y-71124287D01*
X174120071Y-70481929D01*
X173477713Y-70052719D01*
X172720000Y-69902000D01*
X171962287Y-70052719D01*
X171319929Y-70481929D01*
X171018200Y-70933498D01*
X171018200Y-67219709D01*
X171269093Y-67052067D01*
X171525102Y-66668923D01*
X171615000Y-66216974D01*
X171615000Y-65355026D01*
X171525102Y-64903077D01*
X171269093Y-64519933D01*
X170885949Y-64263924D01*
X170434000Y-64174026D01*
X169982051Y-64263924D01*
X169598907Y-64519933D01*
X169342898Y-64903077D01*
X169253000Y-65355026D01*
X169253000Y-66216974D01*
X169342898Y-66668923D01*
X169598907Y-67052067D01*
X169849800Y-67219709D01*
X169849800Y-75723536D01*
X169330000Y-75723536D01*
X169188810Y-75750103D01*
X169059135Y-75833546D01*
X168972141Y-75960866D01*
X168941536Y-76112000D01*
X168540226Y-76112000D01*
X168510448Y-76067435D01*
X168478200Y-76045888D01*
X168478200Y-67219709D01*
X168729093Y-67052067D01*
X168985102Y-66668923D01*
X169075000Y-66216974D01*
X169075000Y-65355026D01*
X168985102Y-64903077D01*
X168729093Y-64519933D01*
X168345949Y-64263924D01*
X168080887Y-64211200D01*
X169418000Y-64211200D01*
X169641564Y-64166730D01*
X169831092Y-64040092D01*
X170847092Y-63024092D01*
X170893364Y-62954841D01*
X170973730Y-62834564D01*
X171018200Y-62611000D01*
X171018200Y-59754464D01*
X171234000Y-59754464D01*
X171375190Y-59727897D01*
X171504865Y-59644454D01*
X171591859Y-59517134D01*
X171622464Y-59366000D01*
X171622464Y-56966000D01*
X171595897Y-56824810D01*
X171512454Y-56695135D01*
X171385134Y-56608141D01*
X171234000Y-56577536D01*
X169634000Y-56577536D01*
X169492810Y-56604103D01*
X169363135Y-56687546D01*
X169276141Y-56814866D01*
X169245536Y-56966000D01*
X169245536Y-59366000D01*
X169272103Y-59507190D01*
X169355546Y-59636865D01*
X169482866Y-59723859D01*
X169634000Y-59754464D01*
X169849800Y-59754464D01*
X169849800Y-62369016D01*
X169176016Y-63042800D01*
X157353000Y-63042800D01*
X157129436Y-63087270D01*
X157034461Y-63150730D01*
X156939908Y-63213908D01*
X156050908Y-64102908D01*
X155981736Y-64206431D01*
X155625819Y-64011633D01*
X155543039Y-63994096D01*
X155321000Y-64116085D01*
X155321000Y-65659000D01*
X155341000Y-65659000D01*
X155341000Y-65913000D01*
X155321000Y-65913000D01*
X155321000Y-67455915D01*
X155543039Y-67577904D01*
X155625819Y-67560367D01*
X155879800Y-67421360D01*
X155879800Y-74180016D01*
X155206016Y-74853800D01*
X147333384Y-74853800D01*
X150527092Y-71660092D01*
X150612192Y-71532730D01*
X150653730Y-71470564D01*
X150698200Y-71247000D01*
X150698200Y-67219709D01*
X150949093Y-67052067D01*
X151205102Y-66668923D01*
X151295000Y-66216974D01*
X151295000Y-65355026D01*
X151473000Y-65355026D01*
X151473000Y-66216974D01*
X151562898Y-66668923D01*
X151818907Y-67052067D01*
X152202051Y-67308076D01*
X152654000Y-67397974D01*
X153105949Y-67308076D01*
X153489093Y-67052067D01*
X153745102Y-66668923D01*
X153792871Y-66428772D01*
X153916834Y-66852483D01*
X154269104Y-67290500D01*
X154762181Y-67560367D01*
X154844961Y-67577904D01*
X155067000Y-67455915D01*
X155067000Y-65913000D01*
X155047000Y-65913000D01*
X155047000Y-65659000D01*
X155067000Y-65659000D01*
X155067000Y-64116085D01*
X154844961Y-63994096D01*
X154762181Y-64011633D01*
X154269104Y-64281500D01*
X153916834Y-64719517D01*
X153792871Y-65143228D01*
X153745102Y-64903077D01*
X153489093Y-64519933D01*
X153105949Y-64263924D01*
X152654000Y-64174026D01*
X152202051Y-64263924D01*
X151818907Y-64519933D01*
X151562898Y-64903077D01*
X151473000Y-65355026D01*
X151295000Y-65355026D01*
X151205102Y-64903077D01*
X150949093Y-64519933D01*
X150930005Y-64507179D01*
X155607092Y-59830092D01*
X155678074Y-59723859D01*
X155733730Y-59640564D01*
X155736286Y-59627715D01*
X156029093Y-59432067D01*
X156285102Y-59048923D01*
X156375000Y-58596974D01*
X156375000Y-57735026D01*
X156553000Y-57735026D01*
X156553000Y-58596974D01*
X156642898Y-59048923D01*
X156898907Y-59432067D01*
X157282051Y-59688076D01*
X157734000Y-59777974D01*
X158185949Y-59688076D01*
X158569093Y-59432067D01*
X158825102Y-59048923D01*
X158915000Y-58596974D01*
X158915000Y-57735026D01*
X158861271Y-57464913D01*
X159689800Y-56636384D01*
X159689800Y-56732291D01*
X159438907Y-56899933D01*
X159182898Y-57283077D01*
X159093000Y-57735026D01*
X159093000Y-58596974D01*
X159182898Y-59048923D01*
X159438907Y-59432067D01*
X159822051Y-59688076D01*
X160274000Y-59777974D01*
X160725949Y-59688076D01*
X161109093Y-59432067D01*
X161365102Y-59048923D01*
X161455000Y-58596974D01*
X161455000Y-57735026D01*
X161365102Y-57283077D01*
X161109093Y-56899933D01*
X160858200Y-56732291D01*
X160858200Y-56656864D01*
X162229800Y-55285264D01*
X162229800Y-56732291D01*
X161978907Y-56899933D01*
X161722898Y-57283077D01*
X161633000Y-57735026D01*
X161633000Y-58596974D01*
X161722898Y-59048923D01*
X161978907Y-59432067D01*
X162362051Y-59688076D01*
X162814000Y-59777974D01*
X163265949Y-59688076D01*
X163649093Y-59432067D01*
X163905102Y-59048923D01*
X163995000Y-58596974D01*
X163995000Y-57735026D01*
X163905102Y-57283077D01*
X163649093Y-56899933D01*
X163398200Y-56732291D01*
X163398200Y-55232984D01*
X164515800Y-54115383D01*
X164515800Y-56305600D01*
X164560270Y-56529164D01*
X164633288Y-56638443D01*
X164686908Y-56718692D01*
X164728262Y-56760046D01*
X164518907Y-56899933D01*
X164262898Y-57283077D01*
X164173000Y-57735026D01*
X164173000Y-58596974D01*
X164262898Y-59048923D01*
X164518907Y-59432067D01*
X164902051Y-59688076D01*
X165354000Y-59777974D01*
X165805949Y-59688076D01*
X166189093Y-59432067D01*
X166445102Y-59048923D01*
X166535000Y-58596974D01*
X166535000Y-57735026D01*
X166445102Y-57283077D01*
X166189093Y-56899933D01*
X165938200Y-56732291D01*
X165938200Y-56636384D01*
X166766729Y-57464913D01*
X166713000Y-57735026D01*
X166713000Y-58596974D01*
X166802898Y-59048923D01*
X167058907Y-59432067D01*
X167442051Y-59688076D01*
X167894000Y-59777974D01*
X168345949Y-59688076D01*
X168729093Y-59432067D01*
X168985102Y-59048923D01*
X169075000Y-58596974D01*
X169075000Y-57735026D01*
X168985102Y-57283077D01*
X168729093Y-56899933D01*
X168345949Y-56643924D01*
X167894000Y-56554026D01*
X167572217Y-56618033D01*
X166446200Y-55492016D01*
X166446200Y-55059985D01*
X166680051Y-55216239D01*
X167132000Y-55306137D01*
X167583949Y-55216239D01*
X167967093Y-54960230D01*
X168223102Y-54577086D01*
X168313000Y-54125137D01*
X168313000Y-54102000D01*
X169432883Y-54102000D01*
X169526587Y-54573083D01*
X169793435Y-54972448D01*
X170192800Y-55239296D01*
X170663883Y-55333000D01*
X170712117Y-55333000D01*
X171183200Y-55239296D01*
X171582565Y-54972448D01*
X171839788Y-54587488D01*
X171956355Y-54868924D01*
X172346642Y-55297183D01*
X172871108Y-55543486D01*
X173101000Y-55422819D01*
X173101000Y-54229000D01*
X173355000Y-54229000D01*
X173355000Y-55422819D01*
X173584892Y-55543486D01*
X174109358Y-55297183D01*
X174499645Y-54868924D01*
X174669476Y-54458890D01*
X174548155Y-54229000D01*
X173355000Y-54229000D01*
X173101000Y-54229000D01*
X173081000Y-54229000D01*
X173081000Y-53975000D01*
X173101000Y-53975000D01*
X173101000Y-53955000D01*
X173355000Y-53955000D01*
X173355000Y-53975000D01*
X174548155Y-53975000D01*
X174669476Y-53745110D01*
X174499645Y-53335076D01*
X174109358Y-52906817D01*
X173684053Y-52707083D01*
X173723200Y-52699296D01*
X174122565Y-52432448D01*
X174389413Y-52033083D01*
X174483117Y-51562000D01*
X174389413Y-51090917D01*
X174122565Y-50691552D01*
X173723200Y-50424704D01*
X173252117Y-50331000D01*
X173203883Y-50331000D01*
X172732800Y-50424704D01*
X172333435Y-50691552D01*
X172066587Y-51090917D01*
X171972883Y-51562000D01*
X172066587Y-52033083D01*
X172333435Y-52432448D01*
X172732800Y-52699296D01*
X172771947Y-52707083D01*
X172346642Y-52906817D01*
X171956355Y-53335076D01*
X171839788Y-53616512D01*
X171582565Y-53231552D01*
X171183200Y-52964704D01*
X170712117Y-52871000D01*
X170663883Y-52871000D01*
X170192800Y-52964704D01*
X169793435Y-53231552D01*
X169526587Y-53630917D01*
X169432883Y-54102000D01*
X168313000Y-54102000D01*
X168313000Y-54078863D01*
X168223102Y-53626914D01*
X167967093Y-53243770D01*
X167583949Y-52987761D01*
X167132000Y-52897863D01*
X166680051Y-52987761D01*
X166446200Y-53144015D01*
X166446200Y-51562000D01*
X169432883Y-51562000D01*
X169526587Y-52033083D01*
X169793435Y-52432448D01*
X170192800Y-52699296D01*
X170663883Y-52793000D01*
X170712117Y-52793000D01*
X171183200Y-52699296D01*
X171582565Y-52432448D01*
X171849413Y-52033083D01*
X171943117Y-51562000D01*
X171849413Y-51090917D01*
X171582565Y-50691552D01*
X171183200Y-50424704D01*
X170712117Y-50331000D01*
X170663883Y-50331000D01*
X170192800Y-50424704D01*
X169793435Y-50691552D01*
X169526587Y-51090917D01*
X169432883Y-51562000D01*
X166446200Y-51562000D01*
X166446200Y-48172000D01*
X169449536Y-48172000D01*
X169449536Y-49872000D01*
X169476103Y-50013190D01*
X169559546Y-50142865D01*
X169686866Y-50229859D01*
X169838000Y-50260464D01*
X171538000Y-50260464D01*
X171679190Y-50233897D01*
X171808865Y-50150454D01*
X171895859Y-50023134D01*
X171926464Y-49872000D01*
X171926464Y-49022000D01*
X171972883Y-49022000D01*
X172066587Y-49493083D01*
X172333435Y-49892448D01*
X172732800Y-50159296D01*
X173203883Y-50253000D01*
X173252117Y-50253000D01*
X173723200Y-50159296D01*
X174122565Y-49892448D01*
X174389413Y-49493083D01*
X174483117Y-49022000D01*
X174389413Y-48550917D01*
X174122565Y-48151552D01*
X173723200Y-47884704D01*
X173252117Y-47791000D01*
X173203883Y-47791000D01*
X172732800Y-47884704D01*
X172333435Y-48151552D01*
X172066587Y-48550917D01*
X171972883Y-49022000D01*
X171926464Y-49022000D01*
X171926464Y-48172000D01*
X171899897Y-48030810D01*
X171816454Y-47901135D01*
X171689134Y-47814141D01*
X171538000Y-47783536D01*
X169838000Y-47783536D01*
X169696810Y-47810103D01*
X169567135Y-47893546D01*
X169480141Y-48020866D01*
X169449536Y-48172000D01*
X166446200Y-48172000D01*
X166446200Y-47466647D01*
X166462144Y-47482619D01*
X166896054Y-47662794D01*
X167365885Y-47663204D01*
X167800109Y-47483787D01*
X168132619Y-47151856D01*
X168312794Y-46717946D01*
X168313204Y-46248115D01*
X168133787Y-45813891D01*
X167801856Y-45481381D01*
X167367946Y-45301206D01*
X166898115Y-45300796D01*
X166463891Y-45480213D01*
X166446200Y-45497873D01*
X166446200Y-33515984D01*
X169767720Y-30194464D01*
X171030000Y-30194464D01*
X171171190Y-30167897D01*
X171300865Y-30084454D01*
X171387859Y-29957134D01*
X171418464Y-29806000D01*
X171418464Y-28106000D01*
X171391897Y-27964810D01*
X171308454Y-27835135D01*
X171181134Y-27748141D01*
X171030000Y-27717536D01*
X169330000Y-27717536D01*
X169188810Y-27744103D01*
X169059135Y-27827546D01*
X168972141Y-27954866D01*
X168941536Y-28106000D01*
X168941536Y-29368280D01*
X168613543Y-29696273D01*
X168777296Y-29451200D01*
X168871000Y-28980117D01*
X168871000Y-28931883D01*
X168777296Y-28460800D01*
X168510448Y-28061435D01*
X168111083Y-27794587D01*
X167640000Y-27700883D01*
X167168917Y-27794587D01*
X166769552Y-28061435D01*
X166502704Y-28460800D01*
X166409000Y-28931883D01*
X166409000Y-28980117D01*
X166502704Y-29451200D01*
X166581576Y-29569240D01*
X165684200Y-30466616D01*
X165684200Y-30041830D01*
X165970448Y-29850565D01*
X166237296Y-29451200D01*
X166331000Y-28980117D01*
X166331000Y-28931883D01*
X166237296Y-28460800D01*
X165970448Y-28061435D01*
X165571083Y-27794587D01*
X165100000Y-27700883D01*
X164628917Y-27794587D01*
X164229552Y-28061435D01*
X163962704Y-28460800D01*
X163869000Y-28931883D01*
X163869000Y-28980117D01*
X163962704Y-29451200D01*
X164229552Y-29850565D01*
X164515800Y-30041830D01*
X164515800Y-30492016D01*
X164160200Y-30847616D01*
X164160200Y-29972000D01*
X164115730Y-29748436D01*
X163989092Y-29558908D01*
X163727838Y-29297654D01*
X163791000Y-28980117D01*
X163791000Y-28931883D01*
X163697296Y-28460800D01*
X163430448Y-28061435D01*
X163031083Y-27794587D01*
X162560000Y-27700883D01*
X162088917Y-27794587D01*
X161689552Y-28061435D01*
X161422704Y-28460800D01*
X161329000Y-28931883D01*
X161329000Y-28980117D01*
X161422704Y-29451200D01*
X161586457Y-29696273D01*
X161187838Y-29297654D01*
X161251000Y-28980117D01*
X161251000Y-28931883D01*
X161157296Y-28460800D01*
X160890448Y-28061435D01*
X160491083Y-27794587D01*
X160020000Y-27700883D01*
X159548917Y-27794587D01*
X159149552Y-28061435D01*
X158882704Y-28460800D01*
X158789000Y-28931883D01*
X158789000Y-28980117D01*
X158882704Y-29451200D01*
X159149552Y-29850565D01*
X159548917Y-30117413D01*
X160020000Y-30211117D01*
X160377769Y-30139953D01*
X162356800Y-32118984D01*
X162356800Y-52317016D01*
X158055783Y-56618033D01*
X157734000Y-56554026D01*
X157282051Y-56643924D01*
X156898907Y-56899933D01*
X156642898Y-57283077D01*
X156553000Y-57735026D01*
X156375000Y-57735026D01*
X156285102Y-57283077D01*
X156029093Y-56899933D01*
X155778200Y-56732291D01*
X155778200Y-56629984D01*
X156906206Y-55501978D01*
X156990054Y-55536794D01*
X157459885Y-55537204D01*
X157894109Y-55357787D01*
X158226619Y-55025856D01*
X158406794Y-54591946D01*
X158407204Y-54122115D01*
X158227787Y-53687891D01*
X157895856Y-53355381D01*
X157641879Y-53249921D01*
X157980005Y-53109864D01*
X158054139Y-52863745D01*
X157226000Y-52035605D01*
X156397861Y-52863745D01*
X156471995Y-53109864D01*
X156834187Y-53240050D01*
X156557891Y-53354213D01*
X156225381Y-53686144D01*
X156045206Y-54120054D01*
X156044796Y-54589885D01*
X156080214Y-54675602D01*
X154780908Y-55974908D01*
X154654270Y-56164436D01*
X154609800Y-56388000D01*
X154609800Y-56732291D01*
X154508200Y-56800178D01*
X154508200Y-51639223D01*
X155779035Y-51639223D01*
X155806222Y-52209454D01*
X155972136Y-52610005D01*
X156218255Y-52684139D01*
X157046395Y-51856000D01*
X157405605Y-51856000D01*
X158233745Y-52684139D01*
X158479864Y-52610005D01*
X158672965Y-52072777D01*
X158645778Y-51502546D01*
X158479864Y-51101995D01*
X158233745Y-51027861D01*
X157405605Y-51856000D01*
X157046395Y-51856000D01*
X156218255Y-51027861D01*
X155972136Y-51101995D01*
X155779035Y-51639223D01*
X154508200Y-51639223D01*
X154508200Y-50848255D01*
X156397861Y-50848255D01*
X157226000Y-51676395D01*
X158054139Y-50848255D01*
X157980005Y-50602136D01*
X157442777Y-50409035D01*
X156872546Y-50436222D01*
X156471995Y-50602136D01*
X156397861Y-50848255D01*
X154508200Y-50848255D01*
X154508200Y-43053000D01*
X154463730Y-42829436D01*
X154337092Y-42639908D01*
X152844873Y-41147689D01*
X153658778Y-41147689D01*
X153853388Y-41618680D01*
X154213425Y-41979345D01*
X154684076Y-42174777D01*
X155193689Y-42175222D01*
X155664680Y-41980612D01*
X155945000Y-41700780D01*
X155945000Y-41920310D01*
X156041673Y-42153699D01*
X156220302Y-42332327D01*
X156453691Y-42429000D01*
X157194250Y-42429000D01*
X157353000Y-42270250D01*
X157353000Y-41021000D01*
X157607000Y-41021000D01*
X157607000Y-42270250D01*
X157765750Y-42429000D01*
X158506309Y-42429000D01*
X158739698Y-42332327D01*
X158918327Y-42153699D01*
X159015000Y-41920310D01*
X159015000Y-41179750D01*
X158856250Y-41021000D01*
X157607000Y-41021000D01*
X157353000Y-41021000D01*
X157333000Y-41021000D01*
X157333000Y-40767000D01*
X157353000Y-40767000D01*
X157353000Y-39517750D01*
X157607000Y-39517750D01*
X157607000Y-40767000D01*
X158856250Y-40767000D01*
X159015000Y-40608250D01*
X159015000Y-39867690D01*
X158918327Y-39634301D01*
X158739698Y-39455673D01*
X158506309Y-39359000D01*
X157765750Y-39359000D01*
X157607000Y-39517750D01*
X157353000Y-39517750D01*
X157194250Y-39359000D01*
X156453691Y-39359000D01*
X156220302Y-39455673D01*
X156041673Y-39634301D01*
X155945000Y-39867690D01*
X155945000Y-40087566D01*
X155666575Y-39808655D01*
X155195924Y-39613223D01*
X154686311Y-39612778D01*
X154215320Y-39807388D01*
X153854655Y-40167425D01*
X153659223Y-40638076D01*
X153658778Y-41147689D01*
X152844873Y-41147689D01*
X152178092Y-40480908D01*
X152083539Y-40417730D01*
X151988564Y-40354270D01*
X151765000Y-40309800D01*
X150377872Y-40309800D01*
X150210230Y-40058907D01*
X149827086Y-39802898D01*
X149375137Y-39713000D01*
X149328863Y-39713000D01*
X148876914Y-39802898D01*
X148493770Y-40058907D01*
X148237761Y-40442051D01*
X148147863Y-40894000D01*
X148237761Y-41345949D01*
X148493770Y-41729093D01*
X148876914Y-41985102D01*
X149328863Y-42075000D01*
X149375137Y-42075000D01*
X149827086Y-41985102D01*
X150210230Y-41729093D01*
X150377872Y-41478200D01*
X151523016Y-41478200D01*
X153339800Y-43294984D01*
X153339800Y-56530640D01*
X153085819Y-56391633D01*
X153003039Y-56374096D01*
X152781000Y-56496085D01*
X152781000Y-58039000D01*
X152801000Y-58039000D01*
X152801000Y-58293000D01*
X152781000Y-58293000D01*
X152781000Y-58313000D01*
X152527000Y-58313000D01*
X152527000Y-58293000D01*
X152507000Y-58293000D01*
X152507000Y-58039000D01*
X152527000Y-58039000D01*
X152527000Y-56496085D01*
X152304961Y-56374096D01*
X152222181Y-56391633D01*
X151729104Y-56661500D01*
X151376834Y-57099517D01*
X151252871Y-57523228D01*
X151205102Y-57283077D01*
X150949093Y-56899933D01*
X150698200Y-56732291D01*
X150698200Y-54597984D01*
X151102460Y-54193724D01*
X151158043Y-54216804D01*
X151607983Y-54217196D01*
X152023823Y-54045375D01*
X152342256Y-53727497D01*
X152514804Y-53311957D01*
X152515196Y-52862017D01*
X152343375Y-52446177D01*
X152025497Y-52127744D01*
X151968200Y-52103952D01*
X151968200Y-49559992D01*
X152130619Y-49397856D01*
X152310794Y-48963946D01*
X152311204Y-48494115D01*
X152131787Y-48059891D01*
X151799856Y-47727381D01*
X151545879Y-47621921D01*
X151884005Y-47481864D01*
X151958139Y-47235745D01*
X151130000Y-46407605D01*
X150301861Y-47235745D01*
X150375995Y-47481864D01*
X150738187Y-47612050D01*
X150461891Y-47726213D01*
X150129381Y-48058144D01*
X149949206Y-48492054D01*
X149948796Y-48961885D01*
X150128213Y-49396109D01*
X150460144Y-49728619D01*
X150799800Y-49869656D01*
X150799800Y-52103642D01*
X150744177Y-52126625D01*
X150425744Y-52444503D01*
X150253196Y-52860043D01*
X150252804Y-53309983D01*
X150276495Y-53367321D01*
X149700908Y-53942908D01*
X149574270Y-54132436D01*
X149529800Y-54356000D01*
X149529800Y-56732291D01*
X149278907Y-56899933D01*
X149022898Y-57283077D01*
X148933000Y-57735026D01*
X148933000Y-58596974D01*
X149022898Y-59048923D01*
X149278907Y-59432067D01*
X149662051Y-59688076D01*
X150114000Y-59777974D01*
X150565949Y-59688076D01*
X150949093Y-59432067D01*
X151205102Y-59048923D01*
X151252871Y-58808772D01*
X151376834Y-59232483D01*
X151729104Y-59670500D01*
X152203612Y-59930204D01*
X147895783Y-64238033D01*
X147574000Y-64174026D01*
X147122051Y-64263924D01*
X146738907Y-64519933D01*
X146482898Y-64903077D01*
X146393000Y-65355026D01*
X146393000Y-66216974D01*
X146482898Y-66668923D01*
X146738907Y-67052067D01*
X147122051Y-67308076D01*
X147574000Y-67397974D01*
X148025949Y-67308076D01*
X148409093Y-67052067D01*
X148665102Y-66668923D01*
X148755000Y-66216974D01*
X148755000Y-65355026D01*
X148701271Y-65084913D01*
X149698153Y-64088031D01*
X149574270Y-64273436D01*
X149562997Y-64330110D01*
X149278907Y-64519933D01*
X149022898Y-64903077D01*
X148933000Y-65355026D01*
X148933000Y-66216974D01*
X149022898Y-66668923D01*
X149278907Y-67052067D01*
X149529800Y-67219709D01*
X149529800Y-71005016D01*
X144819980Y-75714836D01*
X144780000Y-75706883D01*
X144422231Y-75778047D01*
X143669092Y-75024908D01*
X143574539Y-74961730D01*
X143479564Y-74898270D01*
X143256000Y-74853800D01*
X138684000Y-74853800D01*
X138460436Y-74898270D01*
X138270908Y-75024908D01*
X138270906Y-75024911D01*
X137517769Y-75778048D01*
X137160000Y-75706883D01*
X136688917Y-75800587D01*
X136289552Y-76067435D01*
X136022704Y-76466800D01*
X135929000Y-76937883D01*
X135929000Y-76986117D01*
X135992162Y-77303654D01*
X135661615Y-77634201D01*
X135639027Y-77634201D01*
X135757296Y-77457200D01*
X135851000Y-76986117D01*
X135851000Y-76937883D01*
X135757296Y-76466800D01*
X135490448Y-76067435D01*
X135091083Y-75800587D01*
X134620000Y-75706883D01*
X134148917Y-75800587D01*
X133749552Y-76067435D01*
X133482704Y-76466800D01*
X133389000Y-76937883D01*
X133389000Y-76986117D01*
X133482704Y-77457200D01*
X133600973Y-77634201D01*
X131816238Y-77634201D01*
X131945005Y-77580864D01*
X132019139Y-77334745D01*
X131191000Y-76506605D01*
X131176858Y-76520748D01*
X130997252Y-76341142D01*
X131011395Y-76327000D01*
X131370605Y-76327000D01*
X132198745Y-77155139D01*
X132444864Y-77081005D01*
X132637965Y-76543777D01*
X132610778Y-75973546D01*
X132444864Y-75572995D01*
X132198745Y-75498861D01*
X131370605Y-76327000D01*
X131011395Y-76327000D01*
X130183255Y-75498861D01*
X130106649Y-75521936D01*
X130113201Y-75488999D01*
X130113201Y-75319255D01*
X130362861Y-75319255D01*
X131191000Y-76147395D01*
X132019139Y-75319255D01*
X131945005Y-75073136D01*
X131407777Y-74880035D01*
X130837546Y-74907222D01*
X130436995Y-75073136D01*
X130362861Y-75319255D01*
X130113201Y-75319255D01*
X130113201Y-74883176D01*
X130403904Y-74941000D01*
X130454096Y-74941000D01*
X130944313Y-74843490D01*
X131359900Y-74565804D01*
X131637586Y-74150217D01*
X131735096Y-73660000D01*
X131637586Y-73169783D01*
X131359900Y-72754196D01*
X131013200Y-72522539D01*
X131013200Y-70485000D01*
X130968730Y-70261436D01*
X130842092Y-70071908D01*
X126778092Y-66007908D01*
X126588564Y-65881270D01*
X126365000Y-65836800D01*
X112128984Y-65836800D01*
X111647210Y-65355026D01*
X136233000Y-65355026D01*
X136233000Y-66216974D01*
X136322898Y-66668923D01*
X136578907Y-67052067D01*
X136962051Y-67308076D01*
X137414000Y-67397974D01*
X137865949Y-67308076D01*
X138249093Y-67052067D01*
X138505102Y-66668923D01*
X138595000Y-66216974D01*
X138595000Y-65355026D01*
X138773000Y-65355026D01*
X138773000Y-66216974D01*
X138862898Y-66668923D01*
X139118907Y-67052067D01*
X139502051Y-67308076D01*
X139954000Y-67397974D01*
X140405949Y-67308076D01*
X140789093Y-67052067D01*
X141045102Y-66668923D01*
X141135000Y-66216974D01*
X141135000Y-65355026D01*
X141313000Y-65355026D01*
X141313000Y-66216974D01*
X141402898Y-66668923D01*
X141658907Y-67052067D01*
X142042051Y-67308076D01*
X142494000Y-67397974D01*
X142945949Y-67308076D01*
X143329093Y-67052067D01*
X143585102Y-66668923D01*
X143675000Y-66216974D01*
X143675000Y-65355026D01*
X143853000Y-65355026D01*
X143853000Y-66216974D01*
X143942898Y-66668923D01*
X144198907Y-67052067D01*
X144582051Y-67308076D01*
X145034000Y-67397974D01*
X145485949Y-67308076D01*
X145869093Y-67052067D01*
X146125102Y-66668923D01*
X146215000Y-66216974D01*
X146215000Y-65355026D01*
X146125102Y-64903077D01*
X145869093Y-64519933D01*
X145485949Y-64263924D01*
X145034000Y-64174026D01*
X144582051Y-64263924D01*
X144198907Y-64519933D01*
X143942898Y-64903077D01*
X143853000Y-65355026D01*
X143675000Y-65355026D01*
X143585102Y-64903077D01*
X143329093Y-64519933D01*
X142945949Y-64263924D01*
X142494000Y-64174026D01*
X142042051Y-64263924D01*
X141658907Y-64519933D01*
X141402898Y-64903077D01*
X141313000Y-65355026D01*
X141135000Y-65355026D01*
X141045102Y-64903077D01*
X140789093Y-64519933D01*
X140405949Y-64263924D01*
X139954000Y-64174026D01*
X139502051Y-64263924D01*
X139118907Y-64519933D01*
X138862898Y-64903077D01*
X138773000Y-65355026D01*
X138595000Y-65355026D01*
X138505102Y-64903077D01*
X138249093Y-64519933D01*
X137865949Y-64263924D01*
X137414000Y-64174026D01*
X136962051Y-64263924D01*
X136578907Y-64519933D01*
X136322898Y-64903077D01*
X136233000Y-65355026D01*
X111647210Y-65355026D01*
X111183301Y-64891117D01*
X111264190Y-64875897D01*
X111393865Y-64792454D01*
X111434649Y-64732764D01*
X112103841Y-64732764D01*
X112173059Y-64974742D01*
X112695780Y-65161155D01*
X113250049Y-65133341D01*
X113632941Y-64974742D01*
X113702159Y-64732764D01*
X112903000Y-63933605D01*
X112103841Y-64732764D01*
X111434649Y-64732764D01*
X111480859Y-64665134D01*
X111511464Y-64514000D01*
X111511464Y-63858031D01*
X111523659Y-64101049D01*
X111682258Y-64483941D01*
X111924236Y-64553159D01*
X112723395Y-63754000D01*
X113082605Y-63754000D01*
X113881764Y-64553159D01*
X114123742Y-64483941D01*
X114302698Y-63982131D01*
X114475143Y-64399480D01*
X114795831Y-64720729D01*
X115215045Y-64894802D01*
X115668963Y-64895198D01*
X116088480Y-64721857D01*
X116409729Y-64401169D01*
X116581339Y-63987885D01*
X117309796Y-63987885D01*
X117489213Y-64422109D01*
X117821144Y-64754619D01*
X118255054Y-64934794D01*
X118724885Y-64935204D01*
X119144689Y-64761745D01*
X120162861Y-64761745D01*
X120236995Y-65007864D01*
X120774223Y-65200965D01*
X121344454Y-65173778D01*
X121745005Y-65007864D01*
X121819139Y-64761745D01*
X120991000Y-63933605D01*
X120162861Y-64761745D01*
X119144689Y-64761745D01*
X119159109Y-64755787D01*
X119491619Y-64423856D01*
X119597079Y-64169879D01*
X119737136Y-64508005D01*
X119983255Y-64582139D01*
X120811395Y-63754000D01*
X121170605Y-63754000D01*
X121998745Y-64582139D01*
X122244864Y-64508005D01*
X122437965Y-63970777D01*
X122410778Y-63400546D01*
X122244864Y-62999995D01*
X121998745Y-62925861D01*
X121170605Y-63754000D01*
X120811395Y-63754000D01*
X119983255Y-62925861D01*
X119737136Y-62999995D01*
X119606950Y-63362187D01*
X119492787Y-63085891D01*
X119160856Y-62753381D01*
X119143695Y-62746255D01*
X120162861Y-62746255D01*
X120991000Y-63574395D01*
X121819139Y-62746255D01*
X121745005Y-62500136D01*
X121207777Y-62307035D01*
X120637546Y-62334222D01*
X120236995Y-62500136D01*
X120162861Y-62746255D01*
X119143695Y-62746255D01*
X118726946Y-62573206D01*
X118257115Y-62572796D01*
X117822891Y-62752213D01*
X117490381Y-63084144D01*
X117310206Y-63518054D01*
X117309796Y-63987885D01*
X116581339Y-63987885D01*
X116583802Y-63981955D01*
X116584198Y-63528037D01*
X116410857Y-63108520D01*
X116090169Y-62787271D01*
X115670955Y-62613198D01*
X115217037Y-62612802D01*
X114797520Y-62786143D01*
X114476271Y-63106831D01*
X114302198Y-63526045D01*
X114301961Y-63797929D01*
X114282341Y-63406951D01*
X114123742Y-63024059D01*
X113881764Y-62954841D01*
X113082605Y-63754000D01*
X112723395Y-63754000D01*
X111924236Y-62954841D01*
X111682258Y-63024059D01*
X111511464Y-63502983D01*
X111511464Y-62994000D01*
X111484897Y-62852810D01*
X111434980Y-62775236D01*
X112103841Y-62775236D01*
X112903000Y-63574395D01*
X113702159Y-62775236D01*
X113632941Y-62533258D01*
X113110220Y-62346845D01*
X112555951Y-62374659D01*
X112173059Y-62533258D01*
X112103841Y-62775236D01*
X111434980Y-62775236D01*
X111401454Y-62723135D01*
X111274134Y-62636141D01*
X111123000Y-62605536D01*
X110947200Y-62605536D01*
X110947200Y-61836984D01*
X112382984Y-60401200D01*
X117791536Y-60401200D01*
X117791536Y-61017000D01*
X117818103Y-61158190D01*
X117901546Y-61287865D01*
X118028866Y-61374859D01*
X118180000Y-61405464D01*
X120580000Y-61405464D01*
X120721190Y-61378897D01*
X120850865Y-61295454D01*
X120937859Y-61168134D01*
X120968464Y-61017000D01*
X120968464Y-59054720D01*
X126225984Y-53797200D01*
X134347000Y-53797200D01*
X134570564Y-53752730D01*
X134760092Y-53626092D01*
X136651719Y-51734464D01*
X138614000Y-51734464D01*
X138755190Y-51707897D01*
X138884865Y-51624454D01*
X138971859Y-51497134D01*
X139002464Y-51346000D01*
X139002464Y-49746000D01*
X138975897Y-49604810D01*
X138892454Y-49475135D01*
X138765134Y-49388141D01*
X138614000Y-49357536D01*
X136651720Y-49357536D01*
X135712200Y-48418016D01*
X135712200Y-48006000D01*
X135802026Y-48006000D01*
X135891924Y-48457949D01*
X136147933Y-48841093D01*
X136531077Y-49097102D01*
X136983026Y-49187000D01*
X137844974Y-49187000D01*
X138296923Y-49097102D01*
X138680067Y-48841093D01*
X138936076Y-48457949D01*
X139025974Y-48006000D01*
X138936076Y-47554051D01*
X138680067Y-47170907D01*
X138296923Y-46914898D01*
X137844974Y-46825000D01*
X136983026Y-46825000D01*
X136531077Y-46914898D01*
X136147933Y-47170907D01*
X135891924Y-47554051D01*
X135802026Y-48006000D01*
X135712200Y-48006000D01*
X135712200Y-45466000D01*
X135802026Y-45466000D01*
X135891924Y-45917949D01*
X136147933Y-46301093D01*
X136531077Y-46557102D01*
X136983026Y-46647000D01*
X137844974Y-46647000D01*
X138296923Y-46557102D01*
X138680067Y-46301093D01*
X138815620Y-46098223D01*
X140285035Y-46098223D01*
X140312222Y-46668454D01*
X140478136Y-47069005D01*
X140724255Y-47143139D01*
X141552395Y-46315000D01*
X140724255Y-45486861D01*
X140478136Y-45560995D01*
X140285035Y-46098223D01*
X138815620Y-46098223D01*
X138936076Y-45917949D01*
X139025974Y-45466000D01*
X138936076Y-45014051D01*
X138680067Y-44630907D01*
X138296923Y-44374898D01*
X137844974Y-44285000D01*
X136983026Y-44285000D01*
X136531077Y-44374898D01*
X136147933Y-44630907D01*
X135891924Y-45014051D01*
X135802026Y-45466000D01*
X135712200Y-45466000D01*
X135712200Y-45053984D01*
X136712913Y-44053271D01*
X136983026Y-44107000D01*
X137844974Y-44107000D01*
X138296923Y-44017102D01*
X138680067Y-43761093D01*
X138847709Y-43510200D01*
X140579797Y-43510200D01*
X140551206Y-43579054D01*
X140550796Y-44048885D01*
X140730213Y-44483109D01*
X141062144Y-44815619D01*
X141316121Y-44921079D01*
X140977995Y-45061136D01*
X140903861Y-45307255D01*
X141732000Y-46135395D01*
X141746142Y-46121252D01*
X141925748Y-46300858D01*
X141911605Y-46315000D01*
X141925748Y-46329142D01*
X141746142Y-46508748D01*
X141732000Y-46494605D01*
X140903861Y-47322745D01*
X140977995Y-47568864D01*
X141515223Y-47761965D01*
X142085454Y-47734778D01*
X142417800Y-47597115D01*
X142417800Y-51936016D01*
X137735783Y-56618033D01*
X137414000Y-56554026D01*
X136962051Y-56643924D01*
X136578907Y-56899933D01*
X136322898Y-57283077D01*
X136233000Y-57735026D01*
X136233000Y-58596974D01*
X136322898Y-59048923D01*
X136578907Y-59432067D01*
X136962051Y-59688076D01*
X137414000Y-59777974D01*
X137865949Y-59688076D01*
X138249093Y-59432067D01*
X138505102Y-59048923D01*
X138595000Y-58596974D01*
X138595000Y-57735026D01*
X138541271Y-57464913D01*
X143230579Y-52775605D01*
X143230579Y-53663237D01*
X140275783Y-56618033D01*
X139954000Y-56554026D01*
X139502051Y-56643924D01*
X139118907Y-56899933D01*
X138862898Y-57283077D01*
X138773000Y-57735026D01*
X138773000Y-58596974D01*
X138862898Y-59048923D01*
X139118907Y-59432067D01*
X139502051Y-59688076D01*
X139954000Y-59777974D01*
X140405949Y-59688076D01*
X140789093Y-59432067D01*
X141045102Y-59048923D01*
X141135000Y-58596974D01*
X141135000Y-57735026D01*
X141081271Y-57464913D01*
X143840189Y-54705995D01*
X143840189Y-55593627D01*
X142815783Y-56618033D01*
X142494000Y-56554026D01*
X142042051Y-56643924D01*
X141658907Y-56899933D01*
X141402898Y-57283077D01*
X141313000Y-57735026D01*
X141313000Y-58596974D01*
X141402898Y-59048923D01*
X141658907Y-59432067D01*
X142042051Y-59688076D01*
X142494000Y-59777974D01*
X142945949Y-59688076D01*
X143329093Y-59432067D01*
X143585102Y-59048923D01*
X143675000Y-58596974D01*
X143675000Y-57735026D01*
X143621271Y-57464913D01*
X144576800Y-56509384D01*
X144576800Y-56647433D01*
X144198907Y-56899933D01*
X143942898Y-57283077D01*
X143853000Y-57735026D01*
X143853000Y-58596974D01*
X143942898Y-59048923D01*
X144198907Y-59432067D01*
X144582051Y-59688076D01*
X145034000Y-59777974D01*
X145485949Y-59688076D01*
X145869093Y-59432067D01*
X146125102Y-59048923D01*
X146215000Y-58596974D01*
X146215000Y-57735026D01*
X146125102Y-57283077D01*
X145869093Y-56899933D01*
X145745200Y-56817150D01*
X145745200Y-53926748D01*
X145862503Y-54044256D01*
X146278043Y-54216804D01*
X146727983Y-54217196D01*
X146823533Y-54177716D01*
X146989800Y-54343983D01*
X146989800Y-56732291D01*
X146738907Y-56899933D01*
X146482898Y-57283077D01*
X146393000Y-57735026D01*
X146393000Y-58596974D01*
X146482898Y-59048923D01*
X146738907Y-59432067D01*
X147122051Y-59688076D01*
X147574000Y-59777974D01*
X148025949Y-59688076D01*
X148409093Y-59432067D01*
X148665102Y-59048923D01*
X148755000Y-58596974D01*
X148755000Y-57735026D01*
X148665102Y-57283077D01*
X148409093Y-56899933D01*
X148158200Y-56732291D01*
X148158200Y-54102005D01*
X148158201Y-54102000D01*
X148113731Y-53878437D01*
X148029736Y-53752730D01*
X147987092Y-53688908D01*
X147987089Y-53688906D01*
X147627568Y-53329384D01*
X147634804Y-53311957D01*
X147635196Y-52862017D01*
X147463375Y-52446177D01*
X147145497Y-52127744D01*
X147088200Y-52103952D01*
X147088200Y-49893245D01*
X147353109Y-49783787D01*
X147685619Y-49451856D01*
X147865794Y-49017946D01*
X147866204Y-48548115D01*
X147686787Y-48113891D01*
X147354856Y-47781381D01*
X147100879Y-47675921D01*
X147439005Y-47535864D01*
X147513139Y-47289745D01*
X146685000Y-46461605D01*
X146670858Y-46475748D01*
X146491252Y-46296142D01*
X146505395Y-46282000D01*
X146864605Y-46282000D01*
X147692745Y-47110139D01*
X147938864Y-47036005D01*
X148131965Y-46498777D01*
X148108720Y-46011223D01*
X149683035Y-46011223D01*
X149710222Y-46581454D01*
X149876136Y-46982005D01*
X150122255Y-47056139D01*
X150950395Y-46228000D01*
X151309605Y-46228000D01*
X152137745Y-47056139D01*
X152383864Y-46982005D01*
X152576965Y-46444777D01*
X152549778Y-45874546D01*
X152383864Y-45473995D01*
X152137745Y-45399861D01*
X151309605Y-46228000D01*
X150950395Y-46228000D01*
X150122255Y-45399861D01*
X149876136Y-45473995D01*
X149683035Y-46011223D01*
X148108720Y-46011223D01*
X148104778Y-45928546D01*
X147938864Y-45527995D01*
X147692745Y-45453861D01*
X146864605Y-46282000D01*
X146505395Y-46282000D01*
X146491252Y-46267858D01*
X146670858Y-46088252D01*
X146685000Y-46102395D01*
X147513139Y-45274255D01*
X147496874Y-45220255D01*
X150301861Y-45220255D01*
X151130000Y-46048395D01*
X151958139Y-45220255D01*
X151884005Y-44974136D01*
X151346777Y-44781035D01*
X150776546Y-44808222D01*
X150375995Y-44974136D01*
X150301861Y-45220255D01*
X147496874Y-45220255D01*
X147439005Y-45028136D01*
X146901777Y-44835035D01*
X146331546Y-44862222D01*
X145930995Y-45028136D01*
X145856861Y-45274253D01*
X145745200Y-45162592D01*
X145745200Y-37825885D01*
X148170796Y-37825885D01*
X148350213Y-38260109D01*
X148682144Y-38592619D01*
X149116054Y-38772794D01*
X149585885Y-38773204D01*
X150020109Y-38593787D01*
X150352619Y-38261856D01*
X150532794Y-37827946D01*
X150533204Y-37358115D01*
X150353787Y-36923891D01*
X150021856Y-36591381D01*
X149587946Y-36411206D01*
X149118115Y-36410796D01*
X148683891Y-36590213D01*
X148351381Y-36922144D01*
X148171206Y-37356054D01*
X148170796Y-37825885D01*
X145745200Y-37825885D01*
X145745200Y-36182984D01*
X148577984Y-33350200D01*
X148621796Y-33350200D01*
X148351381Y-33620144D01*
X148171206Y-34054054D01*
X148170796Y-34523885D01*
X148350213Y-34958109D01*
X148682144Y-35290619D01*
X149116054Y-35470794D01*
X149585885Y-35471204D01*
X150020109Y-35291787D01*
X150352619Y-34959856D01*
X150532794Y-34525946D01*
X150533204Y-34056115D01*
X150353787Y-33621891D01*
X150082569Y-33350200D01*
X153670000Y-33350200D01*
X153893564Y-33305730D01*
X154083092Y-33179092D01*
X157122231Y-30139953D01*
X157480000Y-30211117D01*
X157951083Y-30117413D01*
X158350448Y-29850565D01*
X158617296Y-29451200D01*
X158711000Y-28980117D01*
X158711000Y-28931883D01*
X158617296Y-28460800D01*
X158350448Y-28061435D01*
X157951083Y-27794587D01*
X157480000Y-27700883D01*
X157008917Y-27794587D01*
X156609552Y-28061435D01*
X156342704Y-28460800D01*
X156249000Y-28931883D01*
X156249000Y-28980117D01*
X156312162Y-29297654D01*
X155913543Y-29696273D01*
X156077296Y-29451200D01*
X156171000Y-28980117D01*
X156171000Y-28931883D01*
X156077296Y-28460800D01*
X155810448Y-28061435D01*
X155411083Y-27794587D01*
X154940000Y-27700883D01*
X154468917Y-27794587D01*
X154069552Y-28061435D01*
X153802704Y-28460800D01*
X153709000Y-28931883D01*
X153709000Y-28980117D01*
X153772162Y-29297654D01*
X153373543Y-29696273D01*
X153537296Y-29451200D01*
X153631000Y-28980117D01*
X153631000Y-28931883D01*
X153537296Y-28460800D01*
X153270448Y-28061435D01*
X152871083Y-27794587D01*
X152400000Y-27700883D01*
X151928917Y-27794587D01*
X151529552Y-28061435D01*
X151262704Y-28460800D01*
X151169000Y-28931883D01*
X151169000Y-28980117D01*
X151232162Y-29297654D01*
X149872016Y-30657800D01*
X147714384Y-30657800D01*
X148190090Y-30182094D01*
X148336000Y-30211117D01*
X148807083Y-30117413D01*
X149206448Y-29850565D01*
X149473296Y-29451200D01*
X149567000Y-28980117D01*
X149567000Y-28931883D01*
X149473296Y-28460800D01*
X149206448Y-28061435D01*
X148807083Y-27794587D01*
X148336000Y-27700883D01*
X147864917Y-27794587D01*
X147465552Y-28061435D01*
X147198704Y-28460800D01*
X147105000Y-28931883D01*
X147105000Y-28980117D01*
X147198704Y-29451200D01*
X147226707Y-29493109D01*
X142852133Y-33867683D01*
X142846239Y-33838051D01*
X142590230Y-33454907D01*
X142207086Y-33198898D01*
X141755137Y-33109000D01*
X141708863Y-33109000D01*
X141256914Y-33198898D01*
X140873770Y-33454907D01*
X140617761Y-33838051D01*
X140527863Y-34290000D01*
X140590569Y-34605247D01*
X138383242Y-36812574D01*
X138296923Y-36754898D01*
X137844974Y-36665000D01*
X136983026Y-36665000D01*
X136531077Y-36754898D01*
X136147933Y-37010907D01*
X135891924Y-37394051D01*
X135802026Y-37846000D01*
X135891924Y-38297949D01*
X136147933Y-38681093D01*
X136531077Y-38937102D01*
X136983026Y-39027000D01*
X137844974Y-39027000D01*
X138296923Y-38937102D01*
X138680067Y-38681093D01*
X138936076Y-38297949D01*
X139025974Y-37846000D01*
X139022027Y-37826157D01*
X141432213Y-35415971D01*
X141708863Y-35471000D01*
X141755137Y-35471000D01*
X142207086Y-35381102D01*
X142417800Y-35240307D01*
X142417800Y-36641693D01*
X142207086Y-36500898D01*
X141755137Y-36411000D01*
X141708863Y-36411000D01*
X141256914Y-36500898D01*
X140873770Y-36756907D01*
X140617761Y-37140051D01*
X140527863Y-37592000D01*
X140590569Y-37907247D01*
X138786949Y-39710867D01*
X138680067Y-39550907D01*
X138296923Y-39294898D01*
X137844974Y-39205000D01*
X136983026Y-39205000D01*
X136531077Y-39294898D01*
X136147933Y-39550907D01*
X135891924Y-39934051D01*
X135802026Y-40386000D01*
X135891924Y-40837949D01*
X136147933Y-41221093D01*
X136531077Y-41477102D01*
X136983026Y-41567000D01*
X137844974Y-41567000D01*
X138296923Y-41477102D01*
X138680067Y-41221093D01*
X138847709Y-40970200D01*
X138938000Y-40970200D01*
X139161564Y-40925730D01*
X139351092Y-40799092D01*
X141432213Y-38717971D01*
X141708863Y-38773000D01*
X141755137Y-38773000D01*
X142207086Y-38683102D01*
X142417800Y-38542307D01*
X142417800Y-39909353D01*
X142401856Y-39893381D01*
X141967946Y-39713206D01*
X141498115Y-39712796D01*
X141063891Y-39892213D01*
X140731381Y-40224144D01*
X140551206Y-40658054D01*
X140550796Y-41127885D01*
X140730213Y-41562109D01*
X141062144Y-41894619D01*
X141496054Y-42074794D01*
X141965885Y-42075204D01*
X142400109Y-41895787D01*
X142417800Y-41878127D01*
X142417800Y-42830353D01*
X142401856Y-42814381D01*
X141967946Y-42634206D01*
X141498115Y-42633796D01*
X141412398Y-42669214D01*
X141256092Y-42512908D01*
X141197938Y-42474051D01*
X141066564Y-42386270D01*
X140843000Y-42341800D01*
X138847709Y-42341800D01*
X138680067Y-42090907D01*
X138296923Y-41834898D01*
X137844974Y-41745000D01*
X136983026Y-41745000D01*
X136531077Y-41834898D01*
X136147933Y-42090907D01*
X135891924Y-42474051D01*
X135802026Y-42926000D01*
X135866033Y-43247783D01*
X134714908Y-44398908D01*
X134588270Y-44588436D01*
X134543800Y-44812000D01*
X134543800Y-48660000D01*
X134588270Y-48883564D01*
X134680770Y-49022000D01*
X134714908Y-49073092D01*
X135825536Y-50183720D01*
X135825536Y-50908281D01*
X134105016Y-52628800D01*
X125984000Y-52628800D01*
X125760436Y-52673270D01*
X125598935Y-52781181D01*
X125570908Y-52799908D01*
X120142280Y-58228536D01*
X118180000Y-58228536D01*
X118038810Y-58255103D01*
X117909135Y-58338546D01*
X117822141Y-58465866D01*
X117791536Y-58617000D01*
X117791536Y-59232800D01*
X112141005Y-59232800D01*
X112141000Y-59232799D01*
X111917437Y-59277269D01*
X111727908Y-59403908D01*
X109949908Y-61181908D01*
X109823270Y-61371436D01*
X109778800Y-61595000D01*
X109778800Y-62605536D01*
X109603000Y-62605536D01*
X109461810Y-62632103D01*
X109332135Y-62715546D01*
X109245141Y-62842866D01*
X109214536Y-62994000D01*
X109214536Y-64514000D01*
X109241103Y-64655190D01*
X109324546Y-64784865D01*
X109451866Y-64871859D01*
X109603000Y-64902464D01*
X109778800Y-64902464D01*
X109778800Y-64920400D01*
X109823270Y-65143964D01*
X109949908Y-65333492D01*
X110180508Y-65564092D01*
X110251028Y-65611212D01*
X111473908Y-66834092D01*
X111663436Y-66960730D01*
X111887000Y-67005200D01*
X126123016Y-67005200D01*
X129844800Y-70726984D01*
X129844800Y-72522539D01*
X129498100Y-72754196D01*
X129286870Y-73070324D01*
X129201240Y-72863583D01*
X128796576Y-72422034D01*
X128253742Y-72168954D01*
X128016000Y-72289003D01*
X128016000Y-73533000D01*
X128036000Y-73533000D01*
X128036000Y-73787000D01*
X128016000Y-73787000D01*
X128016000Y-75030997D01*
X128253742Y-75151046D01*
X128796576Y-74897966D01*
X128944801Y-74736230D01*
X128944801Y-75153620D01*
X128926946Y-75146206D01*
X128457115Y-75145796D01*
X128022891Y-75325213D01*
X127690381Y-75657144D01*
X127571430Y-75943610D01*
X127453787Y-75658891D01*
X127121856Y-75326381D01*
X126687946Y-75146206D01*
X126218115Y-75145796D01*
X126132397Y-75181214D01*
X125933200Y-74982016D01*
X125933200Y-74948464D01*
X126249000Y-74948464D01*
X126390190Y-74921897D01*
X126519865Y-74838454D01*
X126606859Y-74711134D01*
X126637464Y-74560000D01*
X126637464Y-74522654D01*
X126981424Y-74897966D01*
X127524258Y-75151046D01*
X127762000Y-75030997D01*
X127762000Y-73787000D01*
X127742000Y-73787000D01*
X127742000Y-73533000D01*
X127762000Y-73533000D01*
X127762000Y-72289003D01*
X127524258Y-72168954D01*
X126981424Y-72422034D01*
X126637464Y-72797346D01*
X126637464Y-72760000D01*
X126610897Y-72618810D01*
X126527454Y-72489135D01*
X126400134Y-72402141D01*
X126249000Y-72371536D01*
X125933200Y-72371536D01*
X125933200Y-72353600D01*
X125888730Y-72130036D01*
X125762092Y-71940508D01*
X124401492Y-70579908D01*
X124211964Y-70453270D01*
X123988400Y-70408800D01*
X120406464Y-70408800D01*
X120406464Y-69243000D01*
X120379897Y-69101810D01*
X120296454Y-68972135D01*
X120169134Y-68885141D01*
X120018000Y-68854536D01*
X116518000Y-68854536D01*
X116376810Y-68881103D01*
X116247135Y-68964546D01*
X116160141Y-69091866D01*
X116129536Y-69243000D01*
X116129536Y-72743000D01*
X116156103Y-72884190D01*
X116239546Y-73013865D01*
X116366866Y-73100859D01*
X116518000Y-73131464D01*
X120018000Y-73131464D01*
X120159190Y-73104897D01*
X120288865Y-73021454D01*
X120375859Y-72894134D01*
X120406464Y-72743000D01*
X120406464Y-71577200D01*
X123746416Y-71577200D01*
X124540752Y-72371536D01*
X124449000Y-72371536D01*
X124307810Y-72398103D01*
X124178135Y-72481546D01*
X124091141Y-72608866D01*
X124060536Y-72760000D01*
X124060536Y-74560000D01*
X124087103Y-74701190D01*
X124170546Y-74830865D01*
X124297866Y-74917859D01*
X124449000Y-74948464D01*
X124764800Y-74948464D01*
X124764800Y-75224000D01*
X124783149Y-75316243D01*
X124780139Y-75319253D01*
X124706005Y-75073136D01*
X124168777Y-74880035D01*
X123598546Y-74907222D01*
X123197995Y-75073136D01*
X123123861Y-75319255D01*
X123952000Y-76147395D01*
X123966142Y-76133252D01*
X124145748Y-76312858D01*
X124131605Y-76327000D01*
X124959745Y-77155139D01*
X125205864Y-77081005D01*
X125336050Y-76718813D01*
X125450213Y-76995109D01*
X125782144Y-77327619D01*
X126216054Y-77507794D01*
X126685885Y-77508204D01*
X126771603Y-77472786D01*
X128344817Y-79046000D01*
X107136000Y-79046000D01*
X107136000Y-73943000D01*
X113129536Y-73943000D01*
X113129536Y-77443000D01*
X113156103Y-77584190D01*
X113239546Y-77713865D01*
X113366866Y-77800859D01*
X113518000Y-77831464D01*
X117018000Y-77831464D01*
X117159190Y-77804897D01*
X117288865Y-77721454D01*
X117375859Y-77594134D01*
X117406464Y-77443000D01*
X117406464Y-76962000D01*
X118670000Y-76962000D01*
X118820719Y-77719713D01*
X119249929Y-78362071D01*
X119892287Y-78791281D01*
X120650000Y-78942000D01*
X121407713Y-78791281D01*
X122050071Y-78362071D01*
X122479281Y-77719713D01*
X122555856Y-77334745D01*
X123123861Y-77334745D01*
X123197995Y-77580864D01*
X123735223Y-77773965D01*
X124305454Y-77746778D01*
X124706005Y-77580864D01*
X124780139Y-77334745D01*
X123952000Y-76506605D01*
X123123861Y-77334745D01*
X122555856Y-77334745D01*
X122630000Y-76962000D01*
X122612592Y-76874484D01*
X122698136Y-77081005D01*
X122944255Y-77155139D01*
X123772395Y-76327000D01*
X122944255Y-75498861D01*
X122698136Y-75572995D01*
X122505035Y-76110223D01*
X122519052Y-76404231D01*
X122479281Y-76204287D01*
X122050071Y-75561929D01*
X121407713Y-75132719D01*
X120650000Y-74982000D01*
X119892287Y-75132719D01*
X119249929Y-75561929D01*
X118820719Y-76204287D01*
X118670000Y-76962000D01*
X117406464Y-76962000D01*
X117406464Y-73943000D01*
X117379897Y-73801810D01*
X117296454Y-73672135D01*
X117169134Y-73585141D01*
X117018000Y-73554536D01*
X113518000Y-73554536D01*
X113376810Y-73581103D01*
X113247135Y-73664546D01*
X113160141Y-73791866D01*
X113129536Y-73943000D01*
X107136000Y-73943000D01*
X107136000Y-71278750D01*
X109883000Y-71278750D01*
X109883000Y-72869310D01*
X109979673Y-73102699D01*
X110158302Y-73281327D01*
X110391691Y-73378000D01*
X111982250Y-73378000D01*
X112141000Y-73219250D01*
X112141000Y-71120000D01*
X112395000Y-71120000D01*
X112395000Y-73219250D01*
X112553750Y-73378000D01*
X114144309Y-73378000D01*
X114377698Y-73281327D01*
X114556327Y-73102699D01*
X114653000Y-72869310D01*
X114653000Y-71278750D01*
X114494250Y-71120000D01*
X112395000Y-71120000D01*
X112141000Y-71120000D01*
X110041750Y-71120000D01*
X109883000Y-71278750D01*
X107136000Y-71278750D01*
X107136000Y-69116690D01*
X109883000Y-69116690D01*
X109883000Y-70707250D01*
X110041750Y-70866000D01*
X112141000Y-70866000D01*
X112141000Y-68766750D01*
X112395000Y-68766750D01*
X112395000Y-70866000D01*
X114494250Y-70866000D01*
X114653000Y-70707250D01*
X114653000Y-69116690D01*
X114556327Y-68883301D01*
X114377698Y-68704673D01*
X114144309Y-68608000D01*
X112553750Y-68608000D01*
X112395000Y-68766750D01*
X112141000Y-68766750D01*
X111982250Y-68608000D01*
X110391691Y-68608000D01*
X110158302Y-68704673D01*
X109979673Y-68883301D01*
X109883000Y-69116690D01*
X107136000Y-69116690D01*
X107136000Y-57677493D01*
X107584761Y-57677493D01*
X107794563Y-58185251D01*
X108182705Y-58574072D01*
X108690097Y-58784759D01*
X109239493Y-58785239D01*
X109747251Y-58575437D01*
X109766189Y-58556532D01*
X112493073Y-58556532D01*
X112591736Y-58823387D01*
X113201461Y-59049908D01*
X113851460Y-59025856D01*
X114340264Y-58823387D01*
X114438927Y-58556532D01*
X113466000Y-57583605D01*
X112493073Y-58556532D01*
X109766189Y-58556532D01*
X110136072Y-58187295D01*
X110346759Y-57679903D01*
X110347231Y-57139461D01*
X111820092Y-57139461D01*
X111844144Y-57789460D01*
X112046613Y-58278264D01*
X112313468Y-58376927D01*
X113286395Y-57404000D01*
X113645605Y-57404000D01*
X114618532Y-58376927D01*
X114885387Y-58278264D01*
X115111908Y-57668539D01*
X115087856Y-57018540D01*
X114885387Y-56529736D01*
X114618532Y-56431073D01*
X113645605Y-57404000D01*
X113286395Y-57404000D01*
X112313468Y-56431073D01*
X112046613Y-56529736D01*
X111820092Y-57139461D01*
X110347231Y-57139461D01*
X110347239Y-57130507D01*
X110137437Y-56622749D01*
X109766805Y-56251468D01*
X112493073Y-56251468D01*
X113466000Y-57224395D01*
X114438927Y-56251468D01*
X114340264Y-55984613D01*
X113730539Y-55758092D01*
X113080540Y-55782144D01*
X112591736Y-55984613D01*
X112493073Y-56251468D01*
X109766805Y-56251468D01*
X109749295Y-56233928D01*
X109241903Y-56023241D01*
X108692507Y-56022761D01*
X108184749Y-56232563D01*
X107795928Y-56620705D01*
X107585241Y-57128097D01*
X107584761Y-57677493D01*
X107136000Y-57677493D01*
X107136000Y-51177493D01*
X107584761Y-51177493D01*
X107794563Y-51685251D01*
X108182705Y-52074072D01*
X108690097Y-52284759D01*
X109239493Y-52285239D01*
X109747251Y-52075437D01*
X109766189Y-52056532D01*
X112493073Y-52056532D01*
X112591736Y-52323387D01*
X113201461Y-52549908D01*
X113851460Y-52525856D01*
X114340264Y-52323387D01*
X114438927Y-52056532D01*
X113466000Y-51083605D01*
X112493073Y-52056532D01*
X109766189Y-52056532D01*
X110136072Y-51687295D01*
X110346759Y-51179903D01*
X110347231Y-50639461D01*
X111820092Y-50639461D01*
X111844144Y-51289460D01*
X112046613Y-51778264D01*
X112313468Y-51876927D01*
X113286395Y-50904000D01*
X113645605Y-50904000D01*
X114618532Y-51876927D01*
X114885387Y-51778264D01*
X115111908Y-51168539D01*
X115087856Y-50518540D01*
X114885387Y-50029736D01*
X114618532Y-49931073D01*
X113645605Y-50904000D01*
X113286395Y-50904000D01*
X112313468Y-49931073D01*
X112046613Y-50029736D01*
X111820092Y-50639461D01*
X110347231Y-50639461D01*
X110347239Y-50630507D01*
X110137437Y-50122749D01*
X109766805Y-49751468D01*
X112493073Y-49751468D01*
X113466000Y-50724395D01*
X114438927Y-49751468D01*
X114340264Y-49484613D01*
X113730539Y-49258092D01*
X113080540Y-49282144D01*
X112591736Y-49484613D01*
X112493073Y-49751468D01*
X109766805Y-49751468D01*
X109749295Y-49733928D01*
X109241903Y-49523241D01*
X108692507Y-49522761D01*
X108184749Y-49732563D01*
X107795928Y-50120705D01*
X107585241Y-50628097D01*
X107584761Y-51177493D01*
X107136000Y-51177493D01*
X107136000Y-47606833D01*
X112062887Y-47606833D01*
X112126916Y-47847696D01*
X112548524Y-48567870D01*
X113213638Y-49071882D01*
X114021000Y-49283000D01*
X114521000Y-49283000D01*
X114521000Y-47275000D01*
X114775000Y-47275000D01*
X114775000Y-49283000D01*
X115275000Y-49283000D01*
X116082362Y-49071882D01*
X116747476Y-48567870D01*
X117169084Y-47847696D01*
X117233113Y-47606833D01*
X117120165Y-47275000D01*
X114775000Y-47275000D01*
X114521000Y-47275000D01*
X112175835Y-47275000D01*
X112062887Y-47606833D01*
X107136000Y-47606833D01*
X107136000Y-46689167D01*
X112062887Y-46689167D01*
X112175835Y-47021000D01*
X114521000Y-47021000D01*
X114521000Y-45013000D01*
X114775000Y-45013000D01*
X114775000Y-47021000D01*
X117120165Y-47021000D01*
X117233113Y-46689167D01*
X117169084Y-46448304D01*
X116747476Y-45728130D01*
X116082362Y-45224118D01*
X115275000Y-45013000D01*
X114775000Y-45013000D01*
X114521000Y-45013000D01*
X114021000Y-45013000D01*
X113213638Y-45224118D01*
X112548524Y-45728130D01*
X112126916Y-46448304D01*
X112062887Y-46689167D01*
X107136000Y-46689167D01*
X107136000Y-43396764D01*
X116548841Y-43396764D01*
X116618059Y-43638742D01*
X117140780Y-43825155D01*
X117695049Y-43797341D01*
X118077941Y-43638742D01*
X118147159Y-43396764D01*
X117348000Y-42597605D01*
X116548841Y-43396764D01*
X107136000Y-43396764D01*
X107136000Y-42210780D01*
X115940845Y-42210780D01*
X115968659Y-42765049D01*
X116127258Y-43147941D01*
X116369236Y-43217159D01*
X117168395Y-42418000D01*
X116369236Y-41618841D01*
X116127258Y-41688059D01*
X115940845Y-42210780D01*
X107136000Y-42210780D01*
X107136000Y-40103963D01*
X116206802Y-40103963D01*
X116380143Y-40523480D01*
X116700831Y-40844729D01*
X117120045Y-41018802D01*
X117391929Y-41019039D01*
X117000951Y-41038659D01*
X116618059Y-41197258D01*
X116548841Y-41439236D01*
X117348000Y-42238395D01*
X117362143Y-42224253D01*
X117541748Y-42403858D01*
X117527605Y-42418000D01*
X118326764Y-43217159D01*
X118487621Y-43171146D01*
X118700831Y-43384729D01*
X118763800Y-43410876D01*
X118763800Y-48172840D01*
X118262064Y-48508090D01*
X117919346Y-49021003D01*
X117799000Y-49626026D01*
X117799000Y-49687974D01*
X117919346Y-50292997D01*
X118191490Y-50700289D01*
X118205270Y-50769563D01*
X118331908Y-50959092D01*
X118521437Y-51085730D01*
X118745000Y-51130200D01*
X118746848Y-51129832D01*
X118774977Y-51148628D01*
X119380000Y-51268974D01*
X119985023Y-51148628D01*
X120364545Y-50895039D01*
X128002096Y-50895039D01*
X128019633Y-50977819D01*
X128289500Y-51470896D01*
X128727517Y-51823166D01*
X129267000Y-51981000D01*
X129667000Y-51981000D01*
X129667000Y-50673000D01*
X129921000Y-50673000D01*
X129921000Y-51981000D01*
X130321000Y-51981000D01*
X130860483Y-51823166D01*
X131298500Y-51470896D01*
X131568367Y-50977819D01*
X131585904Y-50895039D01*
X131463915Y-50673000D01*
X129921000Y-50673000D01*
X129667000Y-50673000D01*
X128124085Y-50673000D01*
X128002096Y-50895039D01*
X120364545Y-50895039D01*
X120497936Y-50805910D01*
X120840654Y-50292997D01*
X120961000Y-49687974D01*
X120961000Y-49626026D01*
X120840654Y-49021003D01*
X120497936Y-48508090D01*
X119985023Y-48165372D01*
X119932200Y-48154865D01*
X119932200Y-43411177D01*
X119993480Y-43385857D01*
X120314729Y-43065169D01*
X120488802Y-42645955D01*
X120489198Y-42192037D01*
X120342003Y-41835799D01*
X120511615Y-41835799D01*
X125316908Y-46641092D01*
X125506437Y-46767731D01*
X125730000Y-46812200D01*
X127374016Y-46812200D01*
X128246033Y-47684217D01*
X128182026Y-48006000D01*
X128271924Y-48457949D01*
X128527933Y-48841093D01*
X128911077Y-49097102D01*
X129151228Y-49144871D01*
X128727517Y-49268834D01*
X128289500Y-49621104D01*
X128019633Y-50114181D01*
X128002096Y-50196961D01*
X128124085Y-50419000D01*
X129667000Y-50419000D01*
X129667000Y-50399000D01*
X129921000Y-50399000D01*
X129921000Y-50419000D01*
X131463915Y-50419000D01*
X131585904Y-50196961D01*
X131568367Y-50114181D01*
X131298500Y-49621104D01*
X130860483Y-49268834D01*
X130436772Y-49144871D01*
X130676923Y-49097102D01*
X131060067Y-48841093D01*
X131316076Y-48457949D01*
X131405974Y-48006000D01*
X131316076Y-47554051D01*
X131060067Y-47170907D01*
X130676923Y-46914898D01*
X130224974Y-46825000D01*
X129363026Y-46825000D01*
X129092913Y-46878729D01*
X128264384Y-46050200D01*
X128360291Y-46050200D01*
X128527933Y-46301093D01*
X128911077Y-46557102D01*
X129363026Y-46647000D01*
X130224974Y-46647000D01*
X130676923Y-46557102D01*
X131060067Y-46301093D01*
X131316076Y-45917949D01*
X131405974Y-45466000D01*
X131316076Y-45014051D01*
X131060067Y-44630907D01*
X130676923Y-44374898D01*
X130224974Y-44285000D01*
X129363026Y-44285000D01*
X128911077Y-44374898D01*
X128527933Y-44630907D01*
X128360291Y-44881800D01*
X126453104Y-44881800D01*
X125638446Y-44067142D01*
X125709885Y-44067204D01*
X126144109Y-43887787D01*
X126476619Y-43555856D01*
X126512186Y-43470200D01*
X128333564Y-43470200D01*
X128527933Y-43761093D01*
X128911077Y-44017102D01*
X129363026Y-44107000D01*
X130224974Y-44107000D01*
X130676923Y-44017102D01*
X131060067Y-43761093D01*
X131316076Y-43377949D01*
X131405974Y-42926000D01*
X131316076Y-42474051D01*
X131060067Y-42090907D01*
X130676923Y-41834898D01*
X130436772Y-41787129D01*
X130860483Y-41663166D01*
X131298500Y-41310896D01*
X131568367Y-40817819D01*
X131585904Y-40735039D01*
X131463915Y-40513000D01*
X129921000Y-40513000D01*
X129921000Y-40533000D01*
X129667000Y-40533000D01*
X129667000Y-40513000D01*
X128124085Y-40513000D01*
X128002096Y-40735039D01*
X128019633Y-40817819D01*
X128289500Y-41310896D01*
X128727517Y-41663166D01*
X129151228Y-41787129D01*
X128911077Y-41834898D01*
X128527933Y-42090907D01*
X128387019Y-42301800D01*
X126512457Y-42301800D01*
X126477787Y-42217891D01*
X126145856Y-41885381D01*
X125891879Y-41779921D01*
X126230005Y-41639864D01*
X126304139Y-41393745D01*
X125476000Y-40565605D01*
X124647861Y-41393745D01*
X124721995Y-41639864D01*
X125084187Y-41770050D01*
X124807891Y-41884213D01*
X124475381Y-42216144D01*
X124295206Y-42650054D01*
X124295142Y-42723838D01*
X121740527Y-40169223D01*
X124029035Y-40169223D01*
X124056222Y-40739454D01*
X124222136Y-41140005D01*
X124468255Y-41214139D01*
X125296395Y-40386000D01*
X125655605Y-40386000D01*
X126483745Y-41214139D01*
X126729864Y-41140005D01*
X126922965Y-40602777D01*
X126895778Y-40032546D01*
X126729864Y-39631995D01*
X126483745Y-39557861D01*
X125655605Y-40386000D01*
X125296395Y-40386000D01*
X124468255Y-39557861D01*
X124222136Y-39631995D01*
X124029035Y-40169223D01*
X121740527Y-40169223D01*
X121036212Y-39464908D01*
X121022391Y-39455673D01*
X120906527Y-39378255D01*
X124647861Y-39378255D01*
X125476000Y-40206395D01*
X126304139Y-39378255D01*
X126230005Y-39132136D01*
X125692777Y-38939035D01*
X125122546Y-38966222D01*
X124721995Y-39132136D01*
X124647861Y-39378255D01*
X120906527Y-39378255D01*
X120846684Y-39338270D01*
X120623120Y-39293800D01*
X120341177Y-39293800D01*
X120315857Y-39232520D01*
X119995169Y-38911271D01*
X119575955Y-38737198D01*
X119122037Y-38736802D01*
X118702520Y-38910143D01*
X118381271Y-39230831D01*
X118348133Y-39310635D01*
X118315857Y-39232520D01*
X117995169Y-38911271D01*
X117575955Y-38737198D01*
X117122037Y-38736802D01*
X116702520Y-38910143D01*
X116381271Y-39230831D01*
X116207198Y-39650045D01*
X116206802Y-40103963D01*
X107136000Y-40103963D01*
X107136000Y-38195039D01*
X128002096Y-38195039D01*
X128019633Y-38277819D01*
X128289500Y-38770896D01*
X128718607Y-39116000D01*
X128289500Y-39461104D01*
X128019633Y-39954181D01*
X128002096Y-40036961D01*
X128124085Y-40259000D01*
X129667000Y-40259000D01*
X129667000Y-37973000D01*
X129921000Y-37973000D01*
X129921000Y-40259000D01*
X131463915Y-40259000D01*
X131585904Y-40036961D01*
X131568367Y-39954181D01*
X131298500Y-39461104D01*
X130869393Y-39116000D01*
X131298500Y-38770896D01*
X131568367Y-38277819D01*
X131585904Y-38195039D01*
X131463915Y-37973000D01*
X129921000Y-37973000D01*
X129667000Y-37973000D01*
X128124085Y-37973000D01*
X128002096Y-38195039D01*
X107136000Y-38195039D01*
X107136000Y-37496961D01*
X128002096Y-37496961D01*
X128124085Y-37719000D01*
X129667000Y-37719000D01*
X129667000Y-37699000D01*
X129921000Y-37699000D01*
X129921000Y-37719000D01*
X131463915Y-37719000D01*
X131585904Y-37496961D01*
X131568367Y-37414181D01*
X131298500Y-36921104D01*
X130860483Y-36568834D01*
X130436772Y-36444871D01*
X130676923Y-36397102D01*
X131060067Y-36141093D01*
X131316076Y-35757949D01*
X131405974Y-35306000D01*
X135802026Y-35306000D01*
X135891924Y-35757949D01*
X136147933Y-36141093D01*
X136531077Y-36397102D01*
X136983026Y-36487000D01*
X137844974Y-36487000D01*
X138296923Y-36397102D01*
X138680067Y-36141093D01*
X138936076Y-35757949D01*
X139025974Y-35306000D01*
X138936076Y-34854051D01*
X138680067Y-34470907D01*
X138296923Y-34214898D01*
X137844974Y-34125000D01*
X136983026Y-34125000D01*
X136531077Y-34214898D01*
X136147933Y-34470907D01*
X135891924Y-34854051D01*
X135802026Y-35306000D01*
X131405974Y-35306000D01*
X131316076Y-34854051D01*
X131060067Y-34470907D01*
X130676923Y-34214898D01*
X130224974Y-34125000D01*
X129363026Y-34125000D01*
X128911077Y-34214898D01*
X128527933Y-34470907D01*
X128271924Y-34854051D01*
X128182026Y-35306000D01*
X128271924Y-35757949D01*
X128527933Y-36141093D01*
X128911077Y-36397102D01*
X129151228Y-36444871D01*
X128727517Y-36568834D01*
X128289500Y-36921104D01*
X128019633Y-37414181D01*
X128002096Y-37496961D01*
X107136000Y-37496961D01*
X107136000Y-35606833D01*
X112062887Y-35606833D01*
X112126916Y-35847696D01*
X112548524Y-36567870D01*
X113213638Y-37071882D01*
X114021000Y-37283000D01*
X114521000Y-37283000D01*
X114521000Y-35275000D01*
X114775000Y-35275000D01*
X114775000Y-37283000D01*
X115275000Y-37283000D01*
X116082362Y-37071882D01*
X116747476Y-36567870D01*
X117169084Y-35847696D01*
X117233113Y-35606833D01*
X117120165Y-35275000D01*
X114775000Y-35275000D01*
X114521000Y-35275000D01*
X112175835Y-35275000D01*
X112062887Y-35606833D01*
X107136000Y-35606833D01*
X107136000Y-34689167D01*
X112062887Y-34689167D01*
X112175835Y-35021000D01*
X114521000Y-35021000D01*
X114521000Y-33013000D01*
X114775000Y-33013000D01*
X114775000Y-35021000D01*
X117120165Y-35021000D01*
X117233113Y-34689167D01*
X117169084Y-34448304D01*
X116747476Y-33728130D01*
X116082362Y-33224118D01*
X115275000Y-33013000D01*
X114775000Y-33013000D01*
X114521000Y-33013000D01*
X114021000Y-33013000D01*
X113213638Y-33224118D01*
X112548524Y-33728130D01*
X112126916Y-34448304D01*
X112062887Y-34689167D01*
X107136000Y-34689167D01*
X107136000Y-28956000D01*
X119686000Y-28956000D01*
X119836719Y-29713713D01*
X120265929Y-30356071D01*
X120908287Y-30785281D01*
X121666000Y-30936000D01*
X122423713Y-30785281D01*
X123066071Y-30356071D01*
X123495281Y-29713713D01*
X123646000Y-28956000D01*
X123495281Y-28198287D01*
X123433617Y-28106000D01*
X124237536Y-28106000D01*
X124237536Y-29806000D01*
X124264103Y-29947190D01*
X124347546Y-30076865D01*
X124474866Y-30163859D01*
X124626000Y-30194464D01*
X126326000Y-30194464D01*
X126467190Y-30167897D01*
X126596865Y-30084454D01*
X126683859Y-29957134D01*
X126714464Y-29806000D01*
X126714464Y-28931883D01*
X126785000Y-28931883D01*
X126785000Y-28980117D01*
X126878704Y-29451200D01*
X127145552Y-29850565D01*
X127544917Y-30117413D01*
X128016000Y-30211117D01*
X128487083Y-30117413D01*
X128886448Y-29850565D01*
X129153296Y-29451200D01*
X129247000Y-28980117D01*
X129247000Y-28931883D01*
X129325000Y-28931883D01*
X129325000Y-28980117D01*
X129418704Y-29451200D01*
X129685552Y-29850565D01*
X130084917Y-30117413D01*
X130556000Y-30211117D01*
X131027083Y-30117413D01*
X131426448Y-29850565D01*
X131693296Y-29451200D01*
X131701083Y-29412053D01*
X131900817Y-29837358D01*
X132329076Y-30227645D01*
X132739110Y-30397476D01*
X132969000Y-30276155D01*
X132969000Y-29083000D01*
X132949000Y-29083000D01*
X132949000Y-28829000D01*
X132969000Y-28829000D01*
X132969000Y-27635845D01*
X133223000Y-27635845D01*
X133223000Y-28829000D01*
X133243000Y-28829000D01*
X133243000Y-29083000D01*
X133223000Y-29083000D01*
X133223000Y-30276155D01*
X133452890Y-30397476D01*
X133862924Y-30227645D01*
X134291183Y-29837358D01*
X134490917Y-29412053D01*
X134498704Y-29451200D01*
X134765552Y-29850565D01*
X135164917Y-30117413D01*
X135636000Y-30211117D01*
X136107083Y-30117413D01*
X136506448Y-29850565D01*
X136773296Y-29451200D01*
X136867000Y-28980117D01*
X136867000Y-28931883D01*
X136945000Y-28931883D01*
X136945000Y-28980117D01*
X137038704Y-29451200D01*
X137305552Y-29850565D01*
X137704917Y-30117413D01*
X138176000Y-30211117D01*
X138647083Y-30117413D01*
X139046448Y-29850565D01*
X139313296Y-29451200D01*
X139407000Y-28980117D01*
X139407000Y-28931883D01*
X139485000Y-28931883D01*
X139485000Y-28980117D01*
X139578704Y-29451200D01*
X139845552Y-29850565D01*
X140244917Y-30117413D01*
X140716000Y-30211117D01*
X141187083Y-30117413D01*
X141586448Y-29850565D01*
X141853296Y-29451200D01*
X141947000Y-28980117D01*
X141947000Y-28931883D01*
X142025000Y-28931883D01*
X142025000Y-28980117D01*
X142118704Y-29451200D01*
X142385552Y-29850565D01*
X142784917Y-30117413D01*
X143256000Y-30211117D01*
X143727083Y-30117413D01*
X144126448Y-29850565D01*
X144393296Y-29451200D01*
X144487000Y-28980117D01*
X144487000Y-28931883D01*
X144565000Y-28931883D01*
X144565000Y-28980117D01*
X144658704Y-29451200D01*
X144925552Y-29850565D01*
X145324917Y-30117413D01*
X145796000Y-30211117D01*
X146267083Y-30117413D01*
X146666448Y-29850565D01*
X146933296Y-29451200D01*
X147027000Y-28980117D01*
X147027000Y-28931883D01*
X146933296Y-28460800D01*
X146666448Y-28061435D01*
X146267083Y-27794587D01*
X145796000Y-27700883D01*
X145324917Y-27794587D01*
X144925552Y-28061435D01*
X144658704Y-28460800D01*
X144565000Y-28931883D01*
X144487000Y-28931883D01*
X144393296Y-28460800D01*
X144126448Y-28061435D01*
X143727083Y-27794587D01*
X143256000Y-27700883D01*
X142784917Y-27794587D01*
X142385552Y-28061435D01*
X142118704Y-28460800D01*
X142025000Y-28931883D01*
X141947000Y-28931883D01*
X141853296Y-28460800D01*
X141586448Y-28061435D01*
X141187083Y-27794587D01*
X140716000Y-27700883D01*
X140244917Y-27794587D01*
X139845552Y-28061435D01*
X139578704Y-28460800D01*
X139485000Y-28931883D01*
X139407000Y-28931883D01*
X139313296Y-28460800D01*
X139046448Y-28061435D01*
X138647083Y-27794587D01*
X138176000Y-27700883D01*
X137704917Y-27794587D01*
X137305552Y-28061435D01*
X137038704Y-28460800D01*
X136945000Y-28931883D01*
X136867000Y-28931883D01*
X136773296Y-28460800D01*
X136506448Y-28061435D01*
X136107083Y-27794587D01*
X135636000Y-27700883D01*
X135164917Y-27794587D01*
X134765552Y-28061435D01*
X134498704Y-28460800D01*
X134490917Y-28499947D01*
X134291183Y-28074642D01*
X133862924Y-27684355D01*
X133452890Y-27514524D01*
X133223000Y-27635845D01*
X132969000Y-27635845D01*
X132739110Y-27514524D01*
X132329076Y-27684355D01*
X131900817Y-28074642D01*
X131701083Y-28499947D01*
X131693296Y-28460800D01*
X131426448Y-28061435D01*
X131027083Y-27794587D01*
X130556000Y-27700883D01*
X130084917Y-27794587D01*
X129685552Y-28061435D01*
X129418704Y-28460800D01*
X129325000Y-28931883D01*
X129247000Y-28931883D01*
X129153296Y-28460800D01*
X128886448Y-28061435D01*
X128487083Y-27794587D01*
X128016000Y-27700883D01*
X127544917Y-27794587D01*
X127145552Y-28061435D01*
X126878704Y-28460800D01*
X126785000Y-28931883D01*
X126714464Y-28931883D01*
X126714464Y-28106000D01*
X126687897Y-27964810D01*
X126604454Y-27835135D01*
X126477134Y-27748141D01*
X126326000Y-27717536D01*
X124626000Y-27717536D01*
X124484810Y-27744103D01*
X124355135Y-27827546D01*
X124268141Y-27954866D01*
X124237536Y-28106000D01*
X123433617Y-28106000D01*
X123066071Y-27555929D01*
X122423713Y-27126719D01*
X121666000Y-26976000D01*
X120908287Y-27126719D01*
X120265929Y-27555929D01*
X119836719Y-28198287D01*
X119686000Y-28956000D01*
X107136000Y-28956000D01*
X107136000Y-26872000D01*
X172264000Y-26872000D01*
X172264000Y-39370000D01*
G36*
X147447000Y-76835000D02*
X149733000Y-76835000D01*
X149733000Y-76815000D01*
X149987000Y-76815000D01*
X149987000Y-76835000D01*
X150007000Y-76835000D01*
X150007000Y-77089000D01*
X149987000Y-77089000D01*
X149987000Y-77109000D01*
X149733000Y-77109000D01*
X149733000Y-77089000D01*
X147447000Y-77089000D01*
X147447000Y-77109000D01*
X147193000Y-77109000D01*
X147193000Y-77089000D01*
X147173000Y-77089000D01*
X147173000Y-76835000D01*
X147193000Y-76835000D01*
X147193000Y-76815000D01*
X147447000Y-76815000D01*
X147447000Y-76835000D01*
X147447000Y-76835000D01*
G37*
X147447000Y-76835000D02*
X149733000Y-76835000D01*
X149733000Y-76815000D01*
X149987000Y-76815000D01*
X149987000Y-76835000D01*
X150007000Y-76835000D01*
X150007000Y-77089000D01*
X149987000Y-77089000D01*
X149987000Y-77109000D01*
X149733000Y-77109000D01*
X149733000Y-77089000D01*
X147447000Y-77089000D01*
X147447000Y-77109000D01*
X147193000Y-77109000D01*
X147193000Y-77089000D01*
X147173000Y-77089000D01*
X147173000Y-76835000D01*
X147193000Y-76835000D01*
X147193000Y-76815000D01*
X147447000Y-76815000D01*
X147447000Y-76835000D01*
M02*
