G04 #@! TF.FileFunction,Legend,Top*
%FSLAX46Y46*%
G04 Gerber Fmt 4.6, Leading zero omitted, Abs format (unit mm)*
G04 Created by KiCad (PCBNEW 4.0.5+dfsg1-4) date Mon Jul 16 10:11:37 2018*
%MOMM*%
%LPD*%
G01*
G04 APERTURE LIST*
%ADD10C,0.100000*%
%ADD11C,0.150000*%
%ADD12C,0.200000*%
%ADD13C,0.300000*%
%ADD14C,0.500000*%
%ADD15C,0.120000*%
%ADD16C,0.010000*%
G04 APERTURE END LIST*
D10*
D11*
X168219381Y-30829285D02*
X168219381Y-31400714D01*
X168219381Y-31115000D02*
X167219381Y-31115000D01*
X167362238Y-31210238D01*
X167457476Y-31305476D01*
X167505095Y-31400714D01*
X169632381Y-31162619D02*
X169632381Y-31067380D01*
X169680000Y-30972142D01*
X169727619Y-30924523D01*
X169822857Y-30876904D01*
X170013333Y-30829285D01*
X170251429Y-30829285D01*
X170441905Y-30876904D01*
X170537143Y-30924523D01*
X170584762Y-30972142D01*
X170632381Y-31067380D01*
X170632381Y-31162619D01*
X170584762Y-31257857D01*
X170537143Y-31305476D01*
X170441905Y-31353095D01*
X170251429Y-31400714D01*
X170013333Y-31400714D01*
X169822857Y-31353095D01*
X169727619Y-31305476D01*
X169680000Y-31257857D01*
X169632381Y-31162619D01*
D12*
X170180000Y-33020000D02*
X169798999Y-32639000D01*
X170180000Y-33020000D02*
X170561000Y-32639000D01*
X170180000Y-31877001D02*
X170180000Y-33020000D01*
X167767000Y-31877000D02*
X168148000Y-32258000D01*
X167767000Y-31877000D02*
X167386000Y-32258000D01*
X167767000Y-33020000D02*
X167767000Y-31877000D01*
D11*
X170632381Y-34583666D02*
X170156190Y-34917000D01*
X170632381Y-35155095D02*
X169632381Y-35155095D01*
X169632381Y-34774142D01*
X169680000Y-34678904D01*
X169727619Y-34631285D01*
X169822857Y-34583666D01*
X169965714Y-34583666D01*
X170060952Y-34631285D01*
X170108571Y-34678904D01*
X170156190Y-34774142D01*
X170156190Y-35155095D01*
X169632381Y-34250333D02*
X170632381Y-33583666D01*
X169632381Y-33583666D02*
X170632381Y-34250333D01*
X167219381Y-35051905D02*
X167219381Y-34480476D01*
X168219381Y-34766191D02*
X167219381Y-34766191D01*
X167219381Y-34242381D02*
X168219381Y-33575714D01*
X167219381Y-33575714D02*
X168219381Y-34242381D01*
X164647619Y-31400714D02*
X164600000Y-31353095D01*
X164552381Y-31257857D01*
X164552381Y-31019761D01*
X164600000Y-30924523D01*
X164647619Y-30876904D01*
X164742857Y-30829285D01*
X164838095Y-30829285D01*
X164980952Y-30876904D01*
X165552381Y-31448333D01*
X165552381Y-30829285D01*
X162631429Y-32234095D02*
X162583810Y-32186476D01*
X162536190Y-32091238D01*
X162631429Y-31900762D01*
X162583810Y-31805523D01*
X162536190Y-31757904D01*
X162012381Y-31472190D02*
X162012381Y-30853142D01*
X162393333Y-31186476D01*
X162393333Y-31043618D01*
X162440952Y-30948380D01*
X162488571Y-30900761D01*
X162583810Y-30853142D01*
X162821905Y-30853142D01*
X162917143Y-30900761D01*
X162964762Y-30948380D01*
X163012381Y-31043618D01*
X163012381Y-31329333D01*
X162964762Y-31424571D01*
X162917143Y-31472190D01*
X159805714Y-30924523D02*
X160472381Y-30924523D01*
X159424762Y-31162619D02*
X160139048Y-31400714D01*
X160139048Y-30781666D01*
X157551429Y-32107095D02*
X157503810Y-32059476D01*
X157456190Y-31964238D01*
X157551429Y-31773762D01*
X157503810Y-31678523D01*
X157456190Y-31630904D01*
X156932381Y-30773761D02*
X156932381Y-31249952D01*
X157408571Y-31297571D01*
X157360952Y-31249952D01*
X157313333Y-31154714D01*
X157313333Y-30916618D01*
X157360952Y-30821380D01*
X157408571Y-30773761D01*
X157503810Y-30726142D01*
X157741905Y-30726142D01*
X157837143Y-30773761D01*
X157884762Y-30821380D01*
X157932381Y-30916618D01*
X157932381Y-31154714D01*
X157884762Y-31249952D01*
X157837143Y-31297571D01*
X155011429Y-32234095D02*
X154963810Y-32186476D01*
X154916190Y-32091238D01*
X155011429Y-31900762D01*
X154963810Y-31805523D01*
X154916190Y-31757904D01*
X154392381Y-30948380D02*
X154392381Y-31138857D01*
X154440000Y-31234095D01*
X154487619Y-31281714D01*
X154630476Y-31376952D01*
X154820952Y-31424571D01*
X155201905Y-31424571D01*
X155297143Y-31376952D01*
X155344762Y-31329333D01*
X155392381Y-31234095D01*
X155392381Y-31043618D01*
X155344762Y-30948380D01*
X155297143Y-30900761D01*
X155201905Y-30853142D01*
X154963810Y-30853142D01*
X154868571Y-30900761D01*
X154820952Y-30948380D01*
X154773333Y-31043618D01*
X154773333Y-31234095D01*
X154820952Y-31329333D01*
X154868571Y-31376952D01*
X154963810Y-31424571D01*
X151852381Y-31448333D02*
X151852381Y-30781666D01*
X152852381Y-31210238D01*
X148216952Y-31210238D02*
X148169333Y-31305476D01*
X148121714Y-31353095D01*
X148026476Y-31400714D01*
X147978857Y-31400714D01*
X147883619Y-31353095D01*
X147836000Y-31305476D01*
X147788381Y-31210238D01*
X147788381Y-31019761D01*
X147836000Y-30924523D01*
X147883619Y-30876904D01*
X147978857Y-30829285D01*
X148026476Y-30829285D01*
X148121714Y-30876904D01*
X148169333Y-30924523D01*
X148216952Y-31019761D01*
X148216952Y-31210238D01*
X148264571Y-31305476D01*
X148312190Y-31353095D01*
X148407429Y-31400714D01*
X148597905Y-31400714D01*
X148693143Y-31353095D01*
X148740762Y-31305476D01*
X148788381Y-31210238D01*
X148788381Y-31019761D01*
X148740762Y-30924523D01*
X148693143Y-30876904D01*
X148597905Y-30829285D01*
X148407429Y-30829285D01*
X148312190Y-30876904D01*
X148264571Y-30924523D01*
X148216952Y-31019761D01*
X145867429Y-32107095D02*
X145819810Y-32059476D01*
X145772190Y-31964238D01*
X145867429Y-31773762D01*
X145819810Y-31678523D01*
X145772190Y-31630904D01*
X146248381Y-31202333D02*
X146248381Y-31011857D01*
X146200762Y-30916618D01*
X146153143Y-30868999D01*
X146010286Y-30773761D01*
X145819810Y-30726142D01*
X145438857Y-30726142D01*
X145343619Y-30773761D01*
X145296000Y-30821380D01*
X145248381Y-30916618D01*
X145248381Y-31107095D01*
X145296000Y-31202333D01*
X145343619Y-31249952D01*
X145438857Y-31297571D01*
X145676952Y-31297571D01*
X145772190Y-31249952D01*
X145819810Y-31202333D01*
X145867429Y-31107095D01*
X145867429Y-30916618D01*
X145819810Y-30821380D01*
X145772190Y-30773761D01*
X145676952Y-30726142D01*
X143327429Y-32594429D02*
X143279810Y-32556333D01*
X143232190Y-32480143D01*
X143327429Y-32327762D01*
X143279810Y-32251571D01*
X143232190Y-32213476D01*
X143708381Y-31489666D02*
X143708381Y-31946809D01*
X143708381Y-31718238D02*
X142708381Y-31718238D01*
X142851238Y-31794428D01*
X142946476Y-31870619D01*
X142994095Y-31946809D01*
X142708381Y-30994428D02*
X142708381Y-30918237D01*
X142756000Y-30842047D01*
X142803619Y-30803952D01*
X142898857Y-30765856D01*
X143089333Y-30727761D01*
X143327429Y-30727761D01*
X143517905Y-30765856D01*
X143613143Y-30803952D01*
X143660762Y-30842047D01*
X143708381Y-30918237D01*
X143708381Y-30994428D01*
X143660762Y-31070618D01*
X143613143Y-31108714D01*
X143517905Y-31146809D01*
X143327429Y-31184904D01*
X143089333Y-31184904D01*
X142898857Y-31146809D01*
X142803619Y-31108714D01*
X142756000Y-31070618D01*
X142708381Y-30994428D01*
X140787429Y-32964286D02*
X140739810Y-32916667D01*
X140692190Y-32821429D01*
X140787429Y-32630953D01*
X140739810Y-32535714D01*
X140692190Y-32488095D01*
X141168381Y-31583333D02*
X141168381Y-32154762D01*
X141168381Y-31869048D02*
X140168381Y-31869048D01*
X140311238Y-31964286D01*
X140406476Y-32059524D01*
X140454095Y-32154762D01*
X141168381Y-30630952D02*
X141168381Y-31202381D01*
X141168381Y-30916667D02*
X140168381Y-30916667D01*
X140311238Y-31011905D01*
X140406476Y-31107143D01*
X140454095Y-31202381D01*
X138628381Y-31686476D02*
X138628381Y-32257905D01*
X138628381Y-31972191D02*
X137628381Y-31972191D01*
X137771238Y-32067429D01*
X137866476Y-32162667D01*
X137914095Y-32257905D01*
X137723619Y-31305524D02*
X137676000Y-31257905D01*
X137628381Y-31162667D01*
X137628381Y-30924571D01*
X137676000Y-30829333D01*
X137723619Y-30781714D01*
X137818857Y-30734095D01*
X137914095Y-30734095D01*
X138056952Y-30781714D01*
X138628381Y-31353143D01*
X138628381Y-30734095D01*
X136088381Y-31686476D02*
X136088381Y-32257905D01*
X136088381Y-31972191D02*
X135088381Y-31972191D01*
X135231238Y-32067429D01*
X135326476Y-32162667D01*
X135374095Y-32257905D01*
X135088381Y-31353143D02*
X135088381Y-30734095D01*
X135469333Y-31067429D01*
X135469333Y-30924571D01*
X135516952Y-30829333D01*
X135564571Y-30781714D01*
X135659810Y-30734095D01*
X135897905Y-30734095D01*
X135993143Y-30781714D01*
X136040762Y-30829333D01*
X136088381Y-30924571D01*
X136088381Y-31210286D01*
X136040762Y-31305524D01*
X135993143Y-31353143D01*
X132721000Y-32321428D02*
X132685286Y-32392857D01*
X132685286Y-32500000D01*
X132721000Y-32607143D01*
X132792429Y-32678571D01*
X132863857Y-32714286D01*
X133006714Y-32750000D01*
X133113857Y-32750000D01*
X133256714Y-32714286D01*
X133328143Y-32678571D01*
X133399571Y-32607143D01*
X133435286Y-32500000D01*
X133435286Y-32428571D01*
X133399571Y-32321428D01*
X133363857Y-32285714D01*
X133113857Y-32285714D01*
X133113857Y-32428571D01*
X133435286Y-31964286D02*
X132685286Y-31964286D01*
X133435286Y-31535714D01*
X132685286Y-31535714D01*
X133435286Y-31178572D02*
X132685286Y-31178572D01*
X132685286Y-31000000D01*
X132721000Y-30892857D01*
X132792429Y-30821429D01*
X132863857Y-30785714D01*
X133006714Y-30750000D01*
X133113857Y-30750000D01*
X133256714Y-30785714D01*
X133328143Y-30821429D01*
X133399571Y-30892857D01*
X133435286Y-31000000D01*
X133435286Y-31178572D01*
X130808000Y-33250000D02*
X130808000Y-32892857D01*
X131022286Y-33321428D02*
X130272286Y-33071428D01*
X131022286Y-32821428D01*
X131022286Y-32142857D02*
X130665143Y-32392857D01*
X131022286Y-32571429D02*
X130272286Y-32571429D01*
X130272286Y-32285714D01*
X130308000Y-32214286D01*
X130343714Y-32178571D01*
X130415143Y-32142857D01*
X130522286Y-32142857D01*
X130593714Y-32178571D01*
X130629429Y-32214286D01*
X130665143Y-32285714D01*
X130665143Y-32571429D01*
X130629429Y-31821429D02*
X130629429Y-31571429D01*
X131022286Y-31464286D02*
X131022286Y-31821429D01*
X130272286Y-31821429D01*
X130272286Y-31464286D01*
X130629429Y-30892858D02*
X130629429Y-31142858D01*
X131022286Y-31142858D02*
X130272286Y-31142858D01*
X130272286Y-30785715D01*
X125880762Y-33194476D02*
X125928381Y-33051619D01*
X125928381Y-32813523D01*
X125880762Y-32718285D01*
X125833143Y-32670666D01*
X125737905Y-32623047D01*
X125642667Y-32623047D01*
X125547429Y-32670666D01*
X125499810Y-32718285D01*
X125452190Y-32813523D01*
X125404571Y-33004000D01*
X125356952Y-33099238D01*
X125309333Y-33146857D01*
X125214095Y-33194476D01*
X125118857Y-33194476D01*
X125023619Y-33146857D01*
X124976000Y-33099238D01*
X124928381Y-33004000D01*
X124928381Y-32765904D01*
X124976000Y-32623047D01*
X125833143Y-31623047D02*
X125880762Y-31670666D01*
X125928381Y-31813523D01*
X125928381Y-31908761D01*
X125880762Y-32051619D01*
X125785524Y-32146857D01*
X125690286Y-32194476D01*
X125499810Y-32242095D01*
X125356952Y-32242095D01*
X125166476Y-32194476D01*
X125071238Y-32146857D01*
X124976000Y-32051619D01*
X124928381Y-31908761D01*
X124928381Y-31813523D01*
X124976000Y-31670666D01*
X125023619Y-31623047D01*
X125928381Y-30718285D02*
X125928381Y-31194476D01*
X124928381Y-31194476D01*
X128420762Y-33218286D02*
X128468381Y-33075429D01*
X128468381Y-32837333D01*
X128420762Y-32742095D01*
X128373143Y-32694476D01*
X128277905Y-32646857D01*
X128182667Y-32646857D01*
X128087429Y-32694476D01*
X128039810Y-32742095D01*
X127992190Y-32837333D01*
X127944571Y-33027810D01*
X127896952Y-33123048D01*
X127849333Y-33170667D01*
X127754095Y-33218286D01*
X127658857Y-33218286D01*
X127563619Y-33170667D01*
X127516000Y-33123048D01*
X127468381Y-33027810D01*
X127468381Y-32789714D01*
X127516000Y-32646857D01*
X128468381Y-32218286D02*
X127468381Y-32218286D01*
X127468381Y-31980191D01*
X127516000Y-31837333D01*
X127611238Y-31742095D01*
X127706476Y-31694476D01*
X127896952Y-31646857D01*
X128039810Y-31646857D01*
X128230286Y-31694476D01*
X128325524Y-31742095D01*
X128420762Y-31837333D01*
X128468381Y-31980191D01*
X128468381Y-32218286D01*
X128182667Y-31265905D02*
X128182667Y-30789714D01*
X128468381Y-31361143D02*
X127468381Y-31027810D01*
X128468381Y-30694476D01*
X170346667Y-75009286D02*
X170346667Y-74533095D01*
X170632381Y-75104524D02*
X169632381Y-74771191D01*
X170632381Y-74437857D01*
X169632381Y-73628333D02*
X169632381Y-74104524D01*
X170108571Y-74152143D01*
X170060952Y-74104524D01*
X170013333Y-74009286D01*
X170013333Y-73771190D01*
X170060952Y-73675952D01*
X170108571Y-73628333D01*
X170203810Y-73580714D01*
X170441905Y-73580714D01*
X170537143Y-73628333D01*
X170584762Y-73675952D01*
X170632381Y-73771190D01*
X170632381Y-74009286D01*
X170584762Y-74104524D01*
X170537143Y-74152143D01*
X167806667Y-75009286D02*
X167806667Y-74533095D01*
X168092381Y-75104524D02*
X167092381Y-74771191D01*
X168092381Y-74437857D01*
X167425714Y-73675952D02*
X168092381Y-73675952D01*
X167044762Y-73914048D02*
X167759048Y-74152143D01*
X167759048Y-73533095D01*
X165266667Y-75009286D02*
X165266667Y-74533095D01*
X165552381Y-75104524D02*
X164552381Y-74771191D01*
X165552381Y-74437857D01*
X164552381Y-74199762D02*
X164552381Y-73580714D01*
X164933333Y-73914048D01*
X164933333Y-73771190D01*
X164980952Y-73675952D01*
X165028571Y-73628333D01*
X165123810Y-73580714D01*
X165361905Y-73580714D01*
X165457143Y-73628333D01*
X165504762Y-73675952D01*
X165552381Y-73771190D01*
X165552381Y-74056905D01*
X165504762Y-74152143D01*
X165457143Y-74199762D01*
X162726667Y-75009286D02*
X162726667Y-74533095D01*
X163012381Y-75104524D02*
X162012381Y-74771191D01*
X163012381Y-74437857D01*
X162107619Y-74152143D02*
X162060000Y-74104524D01*
X162012381Y-74009286D01*
X162012381Y-73771190D01*
X162060000Y-73675952D01*
X162107619Y-73628333D01*
X162202857Y-73580714D01*
X162298095Y-73580714D01*
X162440952Y-73628333D01*
X163012381Y-74199762D01*
X163012381Y-73580714D01*
X160186667Y-75009286D02*
X160186667Y-74533095D01*
X160472381Y-75104524D02*
X159472381Y-74771191D01*
X160472381Y-74437857D01*
X160472381Y-73580714D02*
X160472381Y-74152143D01*
X160472381Y-73866429D02*
X159472381Y-73866429D01*
X159615238Y-73961667D01*
X159710476Y-74056905D01*
X159758095Y-74152143D01*
X157646667Y-75009286D02*
X157646667Y-74533095D01*
X157932381Y-75104524D02*
X156932381Y-74771191D01*
X157932381Y-74437857D01*
X156932381Y-73914048D02*
X156932381Y-73818809D01*
X156980000Y-73723571D01*
X157027619Y-73675952D01*
X157122857Y-73628333D01*
X157313333Y-73580714D01*
X157551429Y-73580714D01*
X157741905Y-73628333D01*
X157837143Y-73675952D01*
X157884762Y-73723571D01*
X157932381Y-73818809D01*
X157932381Y-73914048D01*
X157884762Y-74009286D01*
X157837143Y-74056905D01*
X157741905Y-74104524D01*
X157551429Y-74152143D01*
X157313333Y-74152143D01*
X157122857Y-74104524D01*
X157027619Y-74056905D01*
X156980000Y-74009286D01*
X156932381Y-73914048D01*
X151852381Y-75136238D02*
X152852381Y-74802905D01*
X151852381Y-74469571D01*
X152852381Y-74136238D02*
X151852381Y-74136238D01*
X152852381Y-73660048D02*
X151852381Y-73660048D01*
X152852381Y-73088619D01*
X151852381Y-73088619D01*
X149360000Y-74548904D02*
X149312381Y-74644142D01*
X149312381Y-74786999D01*
X149360000Y-74929857D01*
X149455238Y-75025095D01*
X149550476Y-75072714D01*
X149740952Y-75120333D01*
X149883810Y-75120333D01*
X150074286Y-75072714D01*
X150169524Y-75025095D01*
X150264762Y-74929857D01*
X150312381Y-74786999D01*
X150312381Y-74691761D01*
X150264762Y-74548904D01*
X150217143Y-74501285D01*
X149883810Y-74501285D01*
X149883810Y-74691761D01*
X150312381Y-74072714D02*
X149312381Y-74072714D01*
X150312381Y-73501285D01*
X149312381Y-73501285D01*
X150312381Y-73025095D02*
X149312381Y-73025095D01*
X149312381Y-72787000D01*
X149360000Y-72644142D01*
X149455238Y-72548904D01*
X149550476Y-72501285D01*
X149740952Y-72453666D01*
X149883810Y-72453666D01*
X150074286Y-72501285D01*
X150169524Y-72548904D01*
X150264762Y-72644142D01*
X150312381Y-72787000D01*
X150312381Y-73025095D01*
X146820000Y-74548904D02*
X146772381Y-74644142D01*
X146772381Y-74786999D01*
X146820000Y-74929857D01*
X146915238Y-75025095D01*
X147010476Y-75072714D01*
X147200952Y-75120333D01*
X147343810Y-75120333D01*
X147534286Y-75072714D01*
X147629524Y-75025095D01*
X147724762Y-74929857D01*
X147772381Y-74786999D01*
X147772381Y-74691761D01*
X147724762Y-74548904D01*
X147677143Y-74501285D01*
X147343810Y-74501285D01*
X147343810Y-74691761D01*
X147772381Y-74072714D02*
X146772381Y-74072714D01*
X147772381Y-73501285D01*
X146772381Y-73501285D01*
X147772381Y-73025095D02*
X146772381Y-73025095D01*
X146772381Y-72787000D01*
X146820000Y-72644142D01*
X146915238Y-72548904D01*
X147010476Y-72501285D01*
X147200952Y-72453666D01*
X147343810Y-72453666D01*
X147534286Y-72501285D01*
X147629524Y-72548904D01*
X147724762Y-72644142D01*
X147772381Y-72787000D01*
X147772381Y-73025095D01*
X144232381Y-74485476D02*
X144232381Y-74961667D01*
X144708571Y-75009286D01*
X144660952Y-74961667D01*
X144613333Y-74866429D01*
X144613333Y-74628333D01*
X144660952Y-74533095D01*
X144708571Y-74485476D01*
X144803810Y-74437857D01*
X145041905Y-74437857D01*
X145137143Y-74485476D01*
X145184762Y-74533095D01*
X145232381Y-74628333D01*
X145232381Y-74866429D01*
X145184762Y-74961667D01*
X145137143Y-75009286D01*
X144232381Y-74152143D02*
X145232381Y-73818810D01*
X144232381Y-73485476D01*
X141692381Y-75009190D02*
X141692381Y-74390142D01*
X142073333Y-74723476D01*
X142073333Y-74580618D01*
X142120952Y-74485380D01*
X142168571Y-74437761D01*
X142263810Y-74390142D01*
X142501905Y-74390142D01*
X142597143Y-74437761D01*
X142644762Y-74485380D01*
X142692381Y-74580618D01*
X142692381Y-74866333D01*
X142644762Y-74961571D01*
X142597143Y-75009190D01*
X142597143Y-73961571D02*
X142644762Y-73913952D01*
X142692381Y-73961571D01*
X142644762Y-74009190D01*
X142597143Y-73961571D01*
X142692381Y-73961571D01*
X141692381Y-73580619D02*
X141692381Y-72961571D01*
X142073333Y-73294905D01*
X142073333Y-73152047D01*
X142120952Y-73056809D01*
X142168571Y-73009190D01*
X142263810Y-72961571D01*
X142501905Y-72961571D01*
X142597143Y-73009190D01*
X142644762Y-73056809D01*
X142692381Y-73152047D01*
X142692381Y-73437762D01*
X142644762Y-73533000D01*
X142597143Y-73580619D01*
X141692381Y-72675857D02*
X142692381Y-72342524D01*
X141692381Y-72009190D01*
X140152381Y-74461619D02*
X139676190Y-74794953D01*
X140152381Y-75033048D02*
X139152381Y-75033048D01*
X139152381Y-74652095D01*
X139200000Y-74556857D01*
X139247619Y-74509238D01*
X139342857Y-74461619D01*
X139485714Y-74461619D01*
X139580952Y-74509238D01*
X139628571Y-74556857D01*
X139676190Y-74652095D01*
X139676190Y-75033048D01*
X140104762Y-74080667D02*
X140152381Y-73937810D01*
X140152381Y-73699714D01*
X140104762Y-73604476D01*
X140057143Y-73556857D01*
X139961905Y-73509238D01*
X139866667Y-73509238D01*
X139771429Y-73556857D01*
X139723810Y-73604476D01*
X139676190Y-73699714D01*
X139628571Y-73890191D01*
X139580952Y-73985429D01*
X139533333Y-74033048D01*
X139438095Y-74080667D01*
X139342857Y-74080667D01*
X139247619Y-74033048D01*
X139200000Y-73985429D01*
X139152381Y-73890191D01*
X139152381Y-73652095D01*
X139200000Y-73509238D01*
X139152381Y-73223524D02*
X139152381Y-72652095D01*
X140152381Y-72937810D02*
X139152381Y-72937810D01*
X137612381Y-75056762D02*
X136612381Y-75056762D01*
X136612381Y-74390096D02*
X136612381Y-74199619D01*
X136660000Y-74104381D01*
X136755238Y-74009143D01*
X136945714Y-73961524D01*
X137279048Y-73961524D01*
X137469524Y-74009143D01*
X137564762Y-74104381D01*
X137612381Y-74199619D01*
X137612381Y-74390096D01*
X137564762Y-74485334D01*
X137469524Y-74580572D01*
X137279048Y-74628191D01*
X136945714Y-74628191D01*
X136755238Y-74580572D01*
X136660000Y-74485334D01*
X136612381Y-74390096D01*
X137612381Y-72961524D02*
X137136190Y-73294858D01*
X137612381Y-73532953D02*
X136612381Y-73532953D01*
X136612381Y-73152000D01*
X136660000Y-73056762D01*
X136707619Y-73009143D01*
X136802857Y-72961524D01*
X136945714Y-72961524D01*
X137040952Y-73009143D01*
X137088571Y-73056762D01*
X137136190Y-73152000D01*
X137136190Y-73532953D01*
X137088571Y-72532953D02*
X137088571Y-72199619D01*
X137612381Y-72056762D02*
X137612381Y-72532953D01*
X136612381Y-72532953D01*
X136612381Y-72056762D01*
X137088571Y-71294857D02*
X137088571Y-71628191D01*
X137612381Y-71628191D02*
X136612381Y-71628191D01*
X136612381Y-71152000D01*
X135072381Y-75080714D02*
X134072381Y-75080714D01*
X135072381Y-74509285D01*
X134072381Y-74509285D01*
X134977143Y-73461666D02*
X135024762Y-73509285D01*
X135072381Y-73652142D01*
X135072381Y-73747380D01*
X135024762Y-73890238D01*
X134929524Y-73985476D01*
X134834286Y-74033095D01*
X134643810Y-74080714D01*
X134500952Y-74080714D01*
X134310476Y-74033095D01*
X134215238Y-73985476D01*
X134120000Y-73890238D01*
X134072381Y-73747380D01*
X134072381Y-73652142D01*
X134120000Y-73509285D01*
X134167619Y-73461666D01*
D13*
X110303572Y-60495571D02*
X109803572Y-59781286D01*
X109446429Y-60495571D02*
X109446429Y-58995571D01*
X110017857Y-58995571D01*
X110160715Y-59067000D01*
X110232143Y-59138429D01*
X110303572Y-59281286D01*
X110303572Y-59495571D01*
X110232143Y-59638429D01*
X110160715Y-59709857D01*
X110017857Y-59781286D01*
X109446429Y-59781286D01*
X110875000Y-60424143D02*
X111089286Y-60495571D01*
X111446429Y-60495571D01*
X111589286Y-60424143D01*
X111660715Y-60352714D01*
X111732143Y-60209857D01*
X111732143Y-60067000D01*
X111660715Y-59924143D01*
X111589286Y-59852714D01*
X111446429Y-59781286D01*
X111160715Y-59709857D01*
X111017857Y-59638429D01*
X110946429Y-59567000D01*
X110875000Y-59424143D01*
X110875000Y-59281286D01*
X110946429Y-59138429D01*
X111017857Y-59067000D01*
X111160715Y-58995571D01*
X111517857Y-58995571D01*
X111732143Y-59067000D01*
X112160714Y-58995571D02*
X113017857Y-58995571D01*
X112589286Y-60495571D02*
X112589286Y-58995571D01*
D14*
X143159215Y-71715143D02*
X143534215Y-68715143D01*
X144266358Y-70858000D01*
X145534215Y-68715143D01*
X145159215Y-71715143D01*
X146552072Y-70858000D02*
X147980643Y-70858000D01*
X146159214Y-71715143D02*
X147534214Y-68715143D01*
X148159214Y-71715143D01*
X149159215Y-71715143D02*
X149534215Y-68715143D01*
X150873500Y-71715143D02*
X149802072Y-70000857D01*
X151248500Y-68715143D02*
X149319929Y-70429429D01*
X152159215Y-71715143D02*
X152534215Y-68715143D01*
X153534214Y-68715143D02*
X155248500Y-68715143D01*
X154016357Y-71715143D02*
X154391357Y-68715143D01*
X156016357Y-70572286D02*
X158302071Y-70572286D01*
X159534214Y-68715143D02*
X161248500Y-68715143D01*
X160016357Y-71715143D02*
X160391357Y-68715143D01*
X161873500Y-71715143D02*
X162248500Y-68715143D01*
X162069929Y-70143714D02*
X163784214Y-70143714D01*
X163587785Y-71715143D02*
X163962785Y-68715143D01*
X164962785Y-68715143D02*
X166677071Y-68715143D01*
X165444928Y-71715143D02*
X165819928Y-68715143D01*
D13*
X159524143Y-40445571D02*
X160595572Y-40445571D01*
X159952715Y-39802714D02*
X159524143Y-41731286D01*
X160452715Y-41088429D02*
X159381286Y-41088429D01*
X160024143Y-41731286D02*
X160452715Y-39802714D01*
X161881286Y-41445571D02*
X161024143Y-41445571D01*
X161452715Y-41445571D02*
X161452715Y-39945571D01*
X161309858Y-40159857D01*
X161167000Y-40302714D01*
X161024143Y-40374143D01*
X162381286Y-39945571D02*
X163309857Y-39945571D01*
X162809857Y-40517000D01*
X163024143Y-40517000D01*
X163167000Y-40588429D01*
X163238429Y-40659857D01*
X163309857Y-40802714D01*
X163309857Y-41159857D01*
X163238429Y-41302714D01*
X163167000Y-41374143D01*
X163024143Y-41445571D01*
X162595571Y-41445571D01*
X162452714Y-41374143D01*
X162381286Y-41302714D01*
D15*
X171764000Y-62976000D02*
G75*
G02X171764000Y-60976000I0J1000000D01*
G01*
X171764000Y-60976000D02*
X171764000Y-59726000D01*
X171764000Y-59726000D02*
X136084000Y-59726000D01*
X136084000Y-59726000D02*
X136084000Y-64226000D01*
X136084000Y-64226000D02*
X171764000Y-64226000D01*
X171764000Y-64226000D02*
X171764000Y-62976000D01*
X155866000Y-55066000D02*
X155866000Y-51146000D01*
X158586000Y-55066000D02*
X158586000Y-51146000D01*
X155866000Y-55066000D02*
X156476000Y-55066000D01*
X157976000Y-55066000D02*
X158586000Y-55066000D01*
X155866000Y-51146000D02*
X156476000Y-51146000D01*
X157976000Y-51146000D02*
X158586000Y-51146000D01*
X127162000Y-77687000D02*
X123242000Y-77687000D01*
X127162000Y-74967000D02*
X123242000Y-74967000D01*
X127162000Y-77687000D02*
X127162000Y-77077000D01*
X127162000Y-75577000D02*
X127162000Y-74967000D01*
X123242000Y-77687000D02*
X123242000Y-77077000D01*
X123242000Y-75577000D02*
X123242000Y-74967000D01*
X140372000Y-47025000D02*
X140372000Y-43105000D01*
X143092000Y-47025000D02*
X143092000Y-43105000D01*
X140372000Y-47025000D02*
X140982000Y-47025000D01*
X142482000Y-47025000D02*
X143092000Y-47025000D01*
X140372000Y-43105000D02*
X140982000Y-43105000D01*
X142482000Y-43105000D02*
X143092000Y-43105000D01*
X124116000Y-43596000D02*
X124116000Y-39676000D01*
X126836000Y-43596000D02*
X126836000Y-39676000D01*
X124116000Y-43596000D02*
X124726000Y-43596000D01*
X126226000Y-43596000D02*
X126836000Y-43596000D01*
X124116000Y-39676000D02*
X124726000Y-39676000D01*
X126226000Y-39676000D02*
X126836000Y-39676000D01*
X127981000Y-74967000D02*
X131901000Y-74967000D01*
X127981000Y-77687000D02*
X131901000Y-77687000D01*
X127981000Y-74967000D02*
X127981000Y-75577000D01*
X127981000Y-77077000D02*
X127981000Y-77687000D01*
X131901000Y-74967000D02*
X131901000Y-75577000D01*
X131901000Y-77077000D02*
X131901000Y-77687000D01*
X152490000Y-45518000D02*
X152490000Y-49438000D01*
X149770000Y-45518000D02*
X149770000Y-49438000D01*
X152490000Y-45518000D02*
X151880000Y-45518000D01*
X150380000Y-45518000D02*
X149770000Y-45518000D01*
X152490000Y-49438000D02*
X151880000Y-49438000D01*
X150380000Y-49438000D02*
X149770000Y-49438000D01*
X148045000Y-45572000D02*
X148045000Y-49492000D01*
X145325000Y-45572000D02*
X145325000Y-49492000D01*
X148045000Y-45572000D02*
X147435000Y-45572000D01*
X145935000Y-45572000D02*
X145325000Y-45572000D01*
X148045000Y-49492000D02*
X147435000Y-49492000D01*
X145935000Y-49492000D02*
X145325000Y-49492000D01*
X112998000Y-35048000D02*
X104358000Y-35048000D01*
X121378000Y-35048000D02*
X116298000Y-35048000D01*
X112998000Y-47248000D02*
X104358000Y-47248000D01*
X121378000Y-47248000D02*
X116298000Y-47248000D01*
X104358000Y-47248000D02*
X104358000Y-35048000D01*
X121378000Y-35048000D02*
X121378000Y-47248000D01*
X113268000Y-75593000D02*
X104468000Y-75593000D01*
X104468000Y-75593000D02*
X104468000Y-66393000D01*
X119168000Y-72893000D02*
X119168000Y-75593000D01*
X119168000Y-75593000D02*
X117268000Y-75593000D01*
X104468000Y-66393000D02*
X119168000Y-66393000D01*
X119168000Y-66393000D02*
X119168000Y-68993000D01*
X156150000Y-75632000D02*
X156150000Y-78292000D01*
X168910000Y-75632000D02*
X156150000Y-75632000D01*
X168910000Y-78292000D02*
X156150000Y-78292000D01*
X168910000Y-75632000D02*
X168910000Y-78292000D01*
X170180000Y-75632000D02*
X171510000Y-75632000D01*
X171510000Y-75632000D02*
X171510000Y-76962000D01*
X151070000Y-27626000D02*
X151070000Y-30286000D01*
X168910000Y-27626000D02*
X151070000Y-27626000D01*
X168910000Y-30286000D02*
X151070000Y-30286000D01*
X168910000Y-27626000D02*
X168910000Y-30286000D01*
X170180000Y-27626000D02*
X171510000Y-27626000D01*
X171510000Y-27626000D02*
X171510000Y-28956000D01*
X148752000Y-38572000D02*
X148752000Y-38902000D01*
X148752000Y-38902000D02*
X142332000Y-38902000D01*
X142332000Y-38902000D02*
X142332000Y-38572000D01*
X148752000Y-36612000D02*
X148752000Y-36282000D01*
X148752000Y-36282000D02*
X142332000Y-36282000D01*
X142332000Y-36282000D02*
X142332000Y-36612000D01*
X148752000Y-35270000D02*
X148752000Y-35600000D01*
X148752000Y-35600000D02*
X142332000Y-35600000D01*
X142332000Y-35600000D02*
X142332000Y-35270000D01*
X148752000Y-33310000D02*
X148752000Y-32980000D01*
X148752000Y-32980000D02*
X142332000Y-32980000D01*
X142332000Y-32980000D02*
X142332000Y-33310000D01*
X168112000Y-47082000D02*
X168442000Y-47082000D01*
X168442000Y-47082000D02*
X168442000Y-53502000D01*
X168442000Y-53502000D02*
X168112000Y-53502000D01*
X166152000Y-47082000D02*
X165822000Y-47082000D01*
X165822000Y-47082000D02*
X165822000Y-53502000D01*
X165822000Y-53502000D02*
X166152000Y-53502000D01*
X114466000Y-56404000D02*
X114466000Y-51904000D01*
X110466000Y-57654000D02*
X111966000Y-57654000D01*
X107966000Y-51904000D02*
X107966000Y-56404000D01*
X111966000Y-50654000D02*
X110466000Y-50654000D01*
X132604000Y-51876000D02*
G75*
G02X134604000Y-51876000I1000000J0D01*
G01*
X134604000Y-51876000D02*
X135854000Y-51876000D01*
X135854000Y-51876000D02*
X135854000Y-33976000D01*
X135854000Y-33976000D02*
X131354000Y-33976000D01*
X131354000Y-33976000D02*
X131354000Y-51876000D01*
X131354000Y-51876000D02*
X132604000Y-51876000D01*
X152069000Y-55611000D02*
X145819000Y-55611000D01*
X152069000Y-50561000D02*
X145819000Y-50561000D01*
X152069000Y-50561000D02*
G75*
G02X152069000Y-55611000I0J-2525000D01*
G01*
X145819000Y-50561000D02*
G75*
G03X145819000Y-55611000I0J-2525000D01*
G01*
X153220000Y-40893538D02*
G75*
G03X158770000Y-42438830I2990000J-462D01*
G01*
X153220000Y-40894462D02*
G75*
G02X158770000Y-39349170I2990000J462D01*
G01*
X158710000Y-40894000D02*
G75*
G03X158710000Y-40894000I-2500000J0D01*
G01*
X158770000Y-42439000D02*
X158770000Y-39349000D01*
X142332000Y-39914000D02*
X142332000Y-39584000D01*
X142332000Y-39584000D02*
X148752000Y-39584000D01*
X148752000Y-39584000D02*
X148752000Y-39914000D01*
X142332000Y-41874000D02*
X142332000Y-42204000D01*
X142332000Y-42204000D02*
X148752000Y-42204000D01*
X148752000Y-42204000D02*
X148752000Y-41874000D01*
X133290000Y-75632000D02*
X133290000Y-78292000D01*
X151130000Y-75632000D02*
X133290000Y-75632000D01*
X151130000Y-78292000D02*
X133290000Y-78292000D01*
X151130000Y-75632000D02*
X151130000Y-78292000D01*
X152400000Y-75632000D02*
X153730000Y-75632000D01*
X153730000Y-75632000D02*
X153730000Y-76962000D01*
D16*
G36*
X141792354Y-68814280D02*
X141782217Y-68842466D01*
X141765787Y-68885983D01*
X141740911Y-68952720D01*
X141709172Y-69038361D01*
X141672152Y-69138591D01*
X141631436Y-69249096D01*
X141588605Y-69365559D01*
X141545244Y-69483667D01*
X141502936Y-69599103D01*
X141463264Y-69707553D01*
X141427811Y-69804701D01*
X141398161Y-69886233D01*
X141375896Y-69947832D01*
X141362600Y-69985185D01*
X141359467Y-69994684D01*
X141375695Y-69996675D01*
X141421563Y-69998765D01*
X141492844Y-70000853D01*
X141585310Y-70002838D01*
X141694736Y-70004617D01*
X141816895Y-70006090D01*
X141846591Y-70006377D01*
X142333716Y-70010867D01*
X141772305Y-70753173D01*
X141666629Y-70892761D01*
X141566696Y-71024499D01*
X141474438Y-71145856D01*
X141391787Y-71254304D01*
X141320676Y-71347314D01*
X141263036Y-71422356D01*
X141220800Y-71476901D01*
X141195900Y-71508420D01*
X141190144Y-71515173D01*
X141176070Y-71523999D01*
X141178061Y-71505084D01*
X141179214Y-71501000D01*
X141189713Y-71463649D01*
X141206754Y-71401666D01*
X141229064Y-71319800D01*
X141255364Y-71222801D01*
X141284378Y-71115418D01*
X141314831Y-71002400D01*
X141345445Y-70888498D01*
X141374944Y-70778459D01*
X141402053Y-70677034D01*
X141425493Y-70588973D01*
X141443990Y-70519023D01*
X141456266Y-70471936D01*
X141461046Y-70452460D01*
X141461066Y-70452256D01*
X141444847Y-70449773D01*
X141399046Y-70447529D01*
X141327947Y-70445610D01*
X141235835Y-70444104D01*
X141126993Y-70443096D01*
X141005706Y-70442674D01*
X140986933Y-70442666D01*
X140864166Y-70442377D01*
X140753210Y-70441560D01*
X140658347Y-70440292D01*
X140583864Y-70438649D01*
X140534043Y-70436707D01*
X140513169Y-70434544D01*
X140512800Y-70434209D01*
X140522903Y-70419927D01*
X140551747Y-70381840D01*
X140597133Y-70322757D01*
X140656861Y-70245491D01*
X140728734Y-70152852D01*
X140810551Y-70047653D01*
X140900115Y-69932704D01*
X140995226Y-69810817D01*
X141093685Y-69684803D01*
X141193294Y-69557473D01*
X141291853Y-69431639D01*
X141387164Y-69310112D01*
X141477028Y-69195702D01*
X141559246Y-69091223D01*
X141631618Y-68999484D01*
X141691947Y-68923298D01*
X141738033Y-68865475D01*
X141767678Y-68828826D01*
X141777666Y-68817067D01*
X141792370Y-68803877D01*
X141792354Y-68814280D01*
X141792354Y-68814280D01*
G37*
X141792354Y-68814280D02*
X141782217Y-68842466D01*
X141765787Y-68885983D01*
X141740911Y-68952720D01*
X141709172Y-69038361D01*
X141672152Y-69138591D01*
X141631436Y-69249096D01*
X141588605Y-69365559D01*
X141545244Y-69483667D01*
X141502936Y-69599103D01*
X141463264Y-69707553D01*
X141427811Y-69804701D01*
X141398161Y-69886233D01*
X141375896Y-69947832D01*
X141362600Y-69985185D01*
X141359467Y-69994684D01*
X141375695Y-69996675D01*
X141421563Y-69998765D01*
X141492844Y-70000853D01*
X141585310Y-70002838D01*
X141694736Y-70004617D01*
X141816895Y-70006090D01*
X141846591Y-70006377D01*
X142333716Y-70010867D01*
X141772305Y-70753173D01*
X141666629Y-70892761D01*
X141566696Y-71024499D01*
X141474438Y-71145856D01*
X141391787Y-71254304D01*
X141320676Y-71347314D01*
X141263036Y-71422356D01*
X141220800Y-71476901D01*
X141195900Y-71508420D01*
X141190144Y-71515173D01*
X141176070Y-71523999D01*
X141178061Y-71505084D01*
X141179214Y-71501000D01*
X141189713Y-71463649D01*
X141206754Y-71401666D01*
X141229064Y-71319800D01*
X141255364Y-71222801D01*
X141284378Y-71115418D01*
X141314831Y-71002400D01*
X141345445Y-70888498D01*
X141374944Y-70778459D01*
X141402053Y-70677034D01*
X141425493Y-70588973D01*
X141443990Y-70519023D01*
X141456266Y-70471936D01*
X141461046Y-70452460D01*
X141461066Y-70452256D01*
X141444847Y-70449773D01*
X141399046Y-70447529D01*
X141327947Y-70445610D01*
X141235835Y-70444104D01*
X141126993Y-70443096D01*
X141005706Y-70442674D01*
X140986933Y-70442666D01*
X140864166Y-70442377D01*
X140753210Y-70441560D01*
X140658347Y-70440292D01*
X140583864Y-70438649D01*
X140534043Y-70436707D01*
X140513169Y-70434544D01*
X140512800Y-70434209D01*
X140522903Y-70419927D01*
X140551747Y-70381840D01*
X140597133Y-70322757D01*
X140656861Y-70245491D01*
X140728734Y-70152852D01*
X140810551Y-70047653D01*
X140900115Y-69932704D01*
X140995226Y-69810817D01*
X141093685Y-69684803D01*
X141193294Y-69557473D01*
X141291853Y-69431639D01*
X141387164Y-69310112D01*
X141477028Y-69195702D01*
X141559246Y-69091223D01*
X141631618Y-68999484D01*
X141691947Y-68923298D01*
X141738033Y-68865475D01*
X141767678Y-68828826D01*
X141777666Y-68817067D01*
X141792370Y-68803877D01*
X141792354Y-68814280D01*
D15*
X169358000Y-55432000D02*
X174558000Y-55432000D01*
X169358000Y-50292000D02*
X169358000Y-55432000D01*
X174558000Y-47692000D02*
X174558000Y-55432000D01*
X169358000Y-50292000D02*
X171958000Y-50292000D01*
X171958000Y-50292000D02*
X171958000Y-47692000D01*
X171958000Y-47692000D02*
X174558000Y-47692000D01*
X169358000Y-49022000D02*
X169358000Y-47692000D01*
X169358000Y-47692000D02*
X170688000Y-47692000D01*
X149666000Y-30286000D02*
X149666000Y-27626000D01*
X126746000Y-30286000D02*
X149666000Y-30286000D01*
X126746000Y-27626000D02*
X149666000Y-27626000D01*
X126746000Y-30286000D02*
X126746000Y-27626000D01*
X125476000Y-30286000D02*
X124146000Y-30286000D01*
X124146000Y-30286000D02*
X124146000Y-28956000D01*
X117781000Y-62394000D02*
X121701000Y-62394000D01*
X117781000Y-65114000D02*
X121701000Y-65114000D01*
X117781000Y-62394000D02*
X117781000Y-63004000D01*
X117781000Y-64504000D02*
X117781000Y-65114000D01*
X121701000Y-62394000D02*
X121701000Y-63004000D01*
X121701000Y-64504000D02*
X121701000Y-65114000D01*
X111103000Y-65604000D02*
X114703000Y-65604000D01*
X110578816Y-64876795D02*
G75*
G03X111103000Y-65604000I2324184J1122795D01*
G01*
X110546600Y-62655193D02*
G75*
G02X112903000Y-61154000I2356400J-1098807D01*
G01*
X115259400Y-62655193D02*
G75*
G03X112903000Y-61154000I-2356400J-1098807D01*
G01*
X115227184Y-64876795D02*
G75*
G02X114703000Y-65604000I-2324184J1122795D01*
G01*
X122769000Y-69970000D02*
X133009000Y-69970000D01*
X122769000Y-54080000D02*
X133009000Y-54080000D01*
X122769000Y-54080000D02*
X122769000Y-69970000D01*
X133009000Y-54080000D02*
X133009000Y-69970000D01*
X125349000Y-69970000D02*
X125349000Y-72610000D01*
X127889000Y-69970000D02*
X127889000Y-72594000D01*
X130429000Y-69970000D02*
X130429000Y-72594000D01*
D10*
X129739000Y-57000000D02*
G75*
G03X129739000Y-57000000I-1850000J0D01*
G01*
D15*
X118000000Y-58597000D02*
X117520000Y-58597000D01*
X117520000Y-58597000D02*
X117520000Y-50877000D01*
X117520000Y-50877000D02*
X118000000Y-50877000D01*
X120760000Y-58597000D02*
X121240000Y-58597000D01*
X121240000Y-58597000D02*
X121240000Y-50877000D01*
X121240000Y-50877000D02*
X120760000Y-50877000D01*
X117520000Y-57397000D02*
X121240000Y-57397000D01*
D11*
X172974095Y-61428381D02*
X172974095Y-62237905D01*
X173021714Y-62333143D01*
X173069333Y-62380762D01*
X173164571Y-62428381D01*
X173355048Y-62428381D01*
X173450286Y-62380762D01*
X173497905Y-62333143D01*
X173545524Y-62237905D01*
X173545524Y-61428381D01*
X173926476Y-61428381D02*
X174545524Y-61428381D01*
X174212190Y-61809333D01*
X174355048Y-61809333D01*
X174450286Y-61856952D01*
X174497905Y-61904571D01*
X174545524Y-61999810D01*
X174545524Y-62237905D01*
X174497905Y-62333143D01*
X174450286Y-62380762D01*
X174355048Y-62428381D01*
X174069333Y-62428381D01*
X173974095Y-62380762D01*
X173926476Y-62333143D01*
X157059334Y-50395143D02*
X157011715Y-50442762D01*
X156868858Y-50490381D01*
X156773620Y-50490381D01*
X156630762Y-50442762D01*
X156535524Y-50347524D01*
X156487905Y-50252286D01*
X156440286Y-50061810D01*
X156440286Y-49918952D01*
X156487905Y-49728476D01*
X156535524Y-49633238D01*
X156630762Y-49538000D01*
X156773620Y-49490381D01*
X156868858Y-49490381D01*
X157011715Y-49538000D01*
X157059334Y-49585619D01*
X157964096Y-49490381D02*
X157487905Y-49490381D01*
X157440286Y-49966571D01*
X157487905Y-49918952D01*
X157583143Y-49871333D01*
X157821239Y-49871333D01*
X157916477Y-49918952D01*
X157964096Y-49966571D01*
X158011715Y-50061810D01*
X158011715Y-50299905D01*
X157964096Y-50395143D01*
X157916477Y-50442762D01*
X157821239Y-50490381D01*
X157583143Y-50490381D01*
X157487905Y-50442762D01*
X157440286Y-50395143D01*
X125055334Y-79097143D02*
X125007715Y-79144762D01*
X124864858Y-79192381D01*
X124769620Y-79192381D01*
X124626762Y-79144762D01*
X124531524Y-79049524D01*
X124483905Y-78954286D01*
X124436286Y-78763810D01*
X124436286Y-78620952D01*
X124483905Y-78430476D01*
X124531524Y-78335238D01*
X124626762Y-78240000D01*
X124769620Y-78192381D01*
X124864858Y-78192381D01*
X125007715Y-78240000D01*
X125055334Y-78287619D01*
X126007715Y-79192381D02*
X125436286Y-79192381D01*
X125722000Y-79192381D02*
X125722000Y-78192381D01*
X125626762Y-78335238D01*
X125531524Y-78430476D01*
X125436286Y-78478095D01*
X141565334Y-48450143D02*
X141517715Y-48497762D01*
X141374858Y-48545381D01*
X141279620Y-48545381D01*
X141136762Y-48497762D01*
X141041524Y-48402524D01*
X140993905Y-48307286D01*
X140946286Y-48116810D01*
X140946286Y-47973952D01*
X140993905Y-47783476D01*
X141041524Y-47688238D01*
X141136762Y-47593000D01*
X141279620Y-47545381D01*
X141374858Y-47545381D01*
X141517715Y-47593000D01*
X141565334Y-47640619D01*
X141946286Y-47640619D02*
X141993905Y-47593000D01*
X142089143Y-47545381D01*
X142327239Y-47545381D01*
X142422477Y-47593000D01*
X142470096Y-47640619D01*
X142517715Y-47735857D01*
X142517715Y-47831095D01*
X142470096Y-47973952D01*
X141898667Y-48545381D01*
X142517715Y-48545381D01*
X125309334Y-45021143D02*
X125261715Y-45068762D01*
X125118858Y-45116381D01*
X125023620Y-45116381D01*
X124880762Y-45068762D01*
X124785524Y-44973524D01*
X124737905Y-44878286D01*
X124690286Y-44687810D01*
X124690286Y-44544952D01*
X124737905Y-44354476D01*
X124785524Y-44259238D01*
X124880762Y-44164000D01*
X125023620Y-44116381D01*
X125118858Y-44116381D01*
X125261715Y-44164000D01*
X125309334Y-44211619D01*
X125642667Y-44116381D02*
X126261715Y-44116381D01*
X125928381Y-44497333D01*
X126071239Y-44497333D01*
X126166477Y-44544952D01*
X126214096Y-44592571D01*
X126261715Y-44687810D01*
X126261715Y-44925905D01*
X126214096Y-45021143D01*
X126166477Y-45068762D01*
X126071239Y-45116381D01*
X125785524Y-45116381D01*
X125690286Y-45068762D01*
X125642667Y-45021143D01*
X129774334Y-79097143D02*
X129726715Y-79144762D01*
X129583858Y-79192381D01*
X129488620Y-79192381D01*
X129345762Y-79144762D01*
X129250524Y-79049524D01*
X129202905Y-78954286D01*
X129155286Y-78763810D01*
X129155286Y-78620952D01*
X129202905Y-78430476D01*
X129250524Y-78335238D01*
X129345762Y-78240000D01*
X129488620Y-78192381D01*
X129583858Y-78192381D01*
X129726715Y-78240000D01*
X129774334Y-78287619D01*
X130631477Y-78525714D02*
X130631477Y-79192381D01*
X130393381Y-78144762D02*
X130155286Y-78859048D01*
X130774334Y-78859048D01*
X150963334Y-44807143D02*
X150915715Y-44854762D01*
X150772858Y-44902381D01*
X150677620Y-44902381D01*
X150534762Y-44854762D01*
X150439524Y-44759524D01*
X150391905Y-44664286D01*
X150344286Y-44473810D01*
X150344286Y-44330952D01*
X150391905Y-44140476D01*
X150439524Y-44045238D01*
X150534762Y-43950000D01*
X150677620Y-43902381D01*
X150772858Y-43902381D01*
X150915715Y-43950000D01*
X150963334Y-43997619D01*
X151820477Y-43902381D02*
X151630000Y-43902381D01*
X151534762Y-43950000D01*
X151487143Y-43997619D01*
X151391905Y-44140476D01*
X151344286Y-44330952D01*
X151344286Y-44711905D01*
X151391905Y-44807143D01*
X151439524Y-44854762D01*
X151534762Y-44902381D01*
X151725239Y-44902381D01*
X151820477Y-44854762D01*
X151868096Y-44807143D01*
X151915715Y-44711905D01*
X151915715Y-44473810D01*
X151868096Y-44378571D01*
X151820477Y-44330952D01*
X151725239Y-44283333D01*
X151534762Y-44283333D01*
X151439524Y-44330952D01*
X151391905Y-44378571D01*
X151344286Y-44473810D01*
X146518334Y-44861143D02*
X146470715Y-44908762D01*
X146327858Y-44956381D01*
X146232620Y-44956381D01*
X146089762Y-44908762D01*
X145994524Y-44813524D01*
X145946905Y-44718286D01*
X145899286Y-44527810D01*
X145899286Y-44384952D01*
X145946905Y-44194476D01*
X145994524Y-44099238D01*
X146089762Y-44004000D01*
X146232620Y-43956381D01*
X146327858Y-43956381D01*
X146470715Y-44004000D01*
X146518334Y-44051619D01*
X146851667Y-43956381D02*
X147518334Y-43956381D01*
X147089762Y-44956381D01*
X119784905Y-34234381D02*
X119784905Y-33234381D01*
X120165858Y-33234381D01*
X120261096Y-33282000D01*
X120308715Y-33329619D01*
X120356334Y-33424857D01*
X120356334Y-33567714D01*
X120308715Y-33662952D01*
X120261096Y-33710571D01*
X120165858Y-33758190D01*
X119784905Y-33758190D01*
X121308715Y-34234381D02*
X120737286Y-34234381D01*
X121023000Y-34234381D02*
X121023000Y-33234381D01*
X120927762Y-33377238D01*
X120832524Y-33472476D01*
X120737286Y-33520095D01*
X109079905Y-77195381D02*
X109079905Y-76195381D01*
X109460858Y-76195381D01*
X109556096Y-76243000D01*
X109603715Y-76290619D01*
X109651334Y-76385857D01*
X109651334Y-76528714D01*
X109603715Y-76623952D01*
X109556096Y-76671571D01*
X109460858Y-76719190D01*
X109079905Y-76719190D01*
X110032286Y-76290619D02*
X110079905Y-76243000D01*
X110175143Y-76195381D01*
X110413239Y-76195381D01*
X110508477Y-76243000D01*
X110556096Y-76290619D01*
X110603715Y-76385857D01*
X110603715Y-76481095D01*
X110556096Y-76623952D01*
X109984667Y-77195381D01*
X110603715Y-77195381D01*
X151471334Y-38044381D02*
X151138000Y-37568190D01*
X150899905Y-38044381D02*
X150899905Y-37044381D01*
X151280858Y-37044381D01*
X151376096Y-37092000D01*
X151423715Y-37139619D01*
X151471334Y-37234857D01*
X151471334Y-37377714D01*
X151423715Y-37472952D01*
X151376096Y-37520571D01*
X151280858Y-37568190D01*
X150899905Y-37568190D01*
X152423715Y-38044381D02*
X151852286Y-38044381D01*
X152138000Y-38044381D02*
X152138000Y-37044381D01*
X152042762Y-37187238D01*
X151947524Y-37282476D01*
X151852286Y-37330095D01*
X151471334Y-34742381D02*
X151138000Y-34266190D01*
X150899905Y-34742381D02*
X150899905Y-33742381D01*
X151280858Y-33742381D01*
X151376096Y-33790000D01*
X151423715Y-33837619D01*
X151471334Y-33932857D01*
X151471334Y-34075714D01*
X151423715Y-34170952D01*
X151376096Y-34218571D01*
X151280858Y-34266190D01*
X150899905Y-34266190D01*
X151852286Y-33837619D02*
X151899905Y-33790000D01*
X151995143Y-33742381D01*
X152233239Y-33742381D01*
X152328477Y-33790000D01*
X152376096Y-33837619D01*
X152423715Y-33932857D01*
X152423715Y-34028095D01*
X152376096Y-34170952D01*
X151804667Y-34742381D01*
X152423715Y-34742381D01*
X166965334Y-45029381D02*
X166632000Y-44553190D01*
X166393905Y-45029381D02*
X166393905Y-44029381D01*
X166774858Y-44029381D01*
X166870096Y-44077000D01*
X166917715Y-44124619D01*
X166965334Y-44219857D01*
X166965334Y-44362714D01*
X166917715Y-44457952D01*
X166870096Y-44505571D01*
X166774858Y-44553190D01*
X166393905Y-44553190D01*
X167298667Y-44029381D02*
X167917715Y-44029381D01*
X167584381Y-44410333D01*
X167727239Y-44410333D01*
X167822477Y-44457952D01*
X167870096Y-44505571D01*
X167917715Y-44600810D01*
X167917715Y-44838905D01*
X167870096Y-44934143D01*
X167822477Y-44981762D01*
X167727239Y-45029381D01*
X167441524Y-45029381D01*
X167346286Y-44981762D01*
X167298667Y-44934143D01*
X108013667Y-49045762D02*
X108156524Y-49093381D01*
X108394620Y-49093381D01*
X108489858Y-49045762D01*
X108537477Y-48998143D01*
X108585096Y-48902905D01*
X108585096Y-48807667D01*
X108537477Y-48712429D01*
X108489858Y-48664810D01*
X108394620Y-48617190D01*
X108204143Y-48569571D01*
X108108905Y-48521952D01*
X108061286Y-48474333D01*
X108013667Y-48379095D01*
X108013667Y-48283857D01*
X108061286Y-48188619D01*
X108108905Y-48141000D01*
X108204143Y-48093381D01*
X108442239Y-48093381D01*
X108585096Y-48141000D01*
X108918429Y-48093381D02*
X109156524Y-49093381D01*
X109347001Y-48379095D01*
X109537477Y-49093381D01*
X109775572Y-48093381D01*
X110680334Y-49093381D02*
X110108905Y-49093381D01*
X110394619Y-49093381D02*
X110394619Y-48093381D01*
X110299381Y-48236238D01*
X110204143Y-48331476D01*
X110108905Y-48379095D01*
X125476095Y-49998381D02*
X125476095Y-50807905D01*
X125523714Y-50903143D01*
X125571333Y-50950762D01*
X125666571Y-50998381D01*
X125857048Y-50998381D01*
X125952286Y-50950762D01*
X125999905Y-50903143D01*
X126047524Y-50807905D01*
X126047524Y-49998381D01*
X126476095Y-50093619D02*
X126523714Y-50046000D01*
X126618952Y-49998381D01*
X126857048Y-49998381D01*
X126952286Y-50046000D01*
X126999905Y-50093619D01*
X127047524Y-50188857D01*
X127047524Y-50284095D01*
X126999905Y-50426952D01*
X126428476Y-50998381D01*
X127047524Y-50998381D01*
X141509809Y-53062190D02*
X141509809Y-53538381D01*
X141176476Y-52538381D02*
X141509809Y-53062190D01*
X141843143Y-52538381D01*
X142700286Y-53538381D02*
X142128857Y-53538381D01*
X142414571Y-53538381D02*
X142414571Y-52538381D01*
X142319333Y-52681238D01*
X142224095Y-52776476D01*
X142128857Y-52824095D01*
X159789905Y-39187381D02*
X159789905Y-38187381D01*
X160028000Y-38187381D01*
X160170858Y-38235000D01*
X160266096Y-38330238D01*
X160313715Y-38425476D01*
X160361334Y-38615952D01*
X160361334Y-38758810D01*
X160313715Y-38949286D01*
X160266096Y-39044524D01*
X160170858Y-39139762D01*
X160028000Y-39187381D01*
X159789905Y-39187381D01*
X160742286Y-38282619D02*
X160789905Y-38235000D01*
X160885143Y-38187381D01*
X161123239Y-38187381D01*
X161218477Y-38235000D01*
X161266096Y-38282619D01*
X161313715Y-38377857D01*
X161313715Y-38473095D01*
X161266096Y-38615952D01*
X160694667Y-39187381D01*
X161313715Y-39187381D01*
X151471334Y-41346381D02*
X151138000Y-40870190D01*
X150899905Y-41346381D02*
X150899905Y-40346381D01*
X151280858Y-40346381D01*
X151376096Y-40394000D01*
X151423715Y-40441619D01*
X151471334Y-40536857D01*
X151471334Y-40679714D01*
X151423715Y-40774952D01*
X151376096Y-40822571D01*
X151280858Y-40870190D01*
X150899905Y-40870190D01*
X152328477Y-40679714D02*
X152328477Y-41346381D01*
X152090381Y-40298762D02*
X151852286Y-41013048D01*
X152471334Y-41013048D01*
X169822905Y-47061381D02*
X169822905Y-46061381D01*
X170203858Y-46061381D01*
X170299096Y-46109000D01*
X170346715Y-46156619D01*
X170394334Y-46251857D01*
X170394334Y-46394714D01*
X170346715Y-46489952D01*
X170299096Y-46537571D01*
X170203858Y-46585190D01*
X169822905Y-46585190D01*
X170727667Y-46061381D02*
X171394334Y-46061381D01*
X170965762Y-47061381D01*
X116546334Y-62079143D02*
X116498715Y-62126762D01*
X116355858Y-62174381D01*
X116260620Y-62174381D01*
X116117762Y-62126762D01*
X116022524Y-62031524D01*
X115974905Y-61936286D01*
X115927286Y-61745810D01*
X115927286Y-61602952D01*
X115974905Y-61412476D01*
X116022524Y-61317238D01*
X116117762Y-61222000D01*
X116260620Y-61174381D01*
X116355858Y-61174381D01*
X116498715Y-61222000D01*
X116546334Y-61269619D01*
X117117762Y-61602952D02*
X117022524Y-61555333D01*
X116974905Y-61507714D01*
X116927286Y-61412476D01*
X116927286Y-61364857D01*
X116974905Y-61269619D01*
X117022524Y-61222000D01*
X117117762Y-61174381D01*
X117308239Y-61174381D01*
X117403477Y-61222000D01*
X117451096Y-61269619D01*
X117498715Y-61364857D01*
X117498715Y-61412476D01*
X117451096Y-61507714D01*
X117403477Y-61555333D01*
X117308239Y-61602952D01*
X117117762Y-61602952D01*
X117022524Y-61650571D01*
X116974905Y-61698190D01*
X116927286Y-61793429D01*
X116927286Y-61983905D01*
X116974905Y-62079143D01*
X117022524Y-62126762D01*
X117117762Y-62174381D01*
X117308239Y-62174381D01*
X117403477Y-62126762D01*
X117451096Y-62079143D01*
X117498715Y-61983905D01*
X117498715Y-61793429D01*
X117451096Y-61698190D01*
X117403477Y-61650571D01*
X117308239Y-61602952D01*
X107569095Y-63206381D02*
X107569095Y-64015905D01*
X107616714Y-64111143D01*
X107664333Y-64158762D01*
X107759571Y-64206381D01*
X107950048Y-64206381D01*
X108045286Y-64158762D01*
X108092905Y-64111143D01*
X108140524Y-64015905D01*
X108140524Y-63206381D01*
X109045286Y-63539714D02*
X109045286Y-64206381D01*
X108807190Y-63158762D02*
X108569095Y-63873048D01*
X109188143Y-63873048D01*
X123063095Y-70572381D02*
X123063095Y-71381905D01*
X123110714Y-71477143D01*
X123158333Y-71524762D01*
X123253571Y-71572381D01*
X123444048Y-71572381D01*
X123539286Y-71524762D01*
X123586905Y-71477143D01*
X123634524Y-71381905D01*
X123634524Y-70572381D01*
X124634524Y-71572381D02*
X124063095Y-71572381D01*
X124348809Y-71572381D02*
X124348809Y-70572381D01*
X124253571Y-70715238D01*
X124158333Y-70810476D01*
X124063095Y-70858095D01*
X116228905Y-50363381D02*
X116228905Y-49363381D01*
X116467000Y-49363381D01*
X116609858Y-49411000D01*
X116705096Y-49506238D01*
X116752715Y-49601476D01*
X116800334Y-49791952D01*
X116800334Y-49934810D01*
X116752715Y-50125286D01*
X116705096Y-50220524D01*
X116609858Y-50315762D01*
X116467000Y-50363381D01*
X116228905Y-50363381D01*
X117752715Y-50363381D02*
X117181286Y-50363381D01*
X117467000Y-50363381D02*
X117467000Y-49363381D01*
X117371762Y-49506238D01*
X117276524Y-49601476D01*
X117181286Y-49649095D01*
M02*
