G04 #@! TF.FileFunction,Profile,NP*
%FSLAX46Y46*%
G04 Gerber Fmt 4.6, Leading zero omitted, Abs format (unit mm)*
G04 Created by KiCad (PCBNEW 4.0.5+dfsg1-4) date Thu Nov 23 17:58:13 2017*
%MOMM*%
%LPD*%
G01*
G04 APERTURE LIST*
%ADD10C,0.100000*%
%ADD11C,0.150000*%
G04 APERTURE END LIST*
D10*
D11*
X138302578Y-149004630D02*
G75*
G03X138302578Y-149004630I-508000J0D01*
G01*
X122732379Y-109761633D02*
X122681579Y-104072029D01*
X132714581Y-92261031D02*
X127659981Y-95207434D01*
X147929179Y-95207431D02*
X142874581Y-92261030D01*
X152856781Y-109761634D02*
X152907581Y-104072031D01*
X147675184Y-118524631D02*
X142874582Y-121267834D01*
X132714582Y-121242430D02*
X127913979Y-118499232D01*
X96838389Y-89149936D02*
X101918388Y-80351116D01*
X108517502Y-84161120D02*
X106658095Y-77221710D01*
X113597502Y-75362302D02*
X117316319Y-89241117D01*
X106658095Y-77221710D02*
X113597502Y-75362302D01*
X108517502Y-84161120D02*
X101918388Y-80351116D01*
X112236322Y-98039936D02*
X122681579Y-104072029D01*
X98357500Y-101758753D02*
X112236322Y-98039936D01*
X103437503Y-92959939D02*
X96498092Y-94819342D01*
X103437503Y-92959939D02*
X96838389Y-89149936D01*
X127659981Y-95207434D02*
X117316319Y-89241117D01*
X96498092Y-94819342D02*
X98357500Y-101758753D01*
X122553229Y-70191887D02*
X132713231Y-80351882D01*
X132713231Y-70191886D02*
X127633226Y-65111882D01*
X142873233Y-70191885D02*
X142873231Y-62571890D01*
X127633226Y-65111882D02*
X122553229Y-70191887D01*
X132713231Y-70191886D02*
X132713230Y-62571885D01*
X132713230Y-62571885D02*
X142873231Y-62571890D01*
X142873233Y-70191885D02*
X147953232Y-65111883D01*
X132713231Y-80351882D02*
X132714581Y-92261031D01*
X147953232Y-65111883D02*
X153033231Y-70191888D01*
X142874581Y-92261030D02*
X142873231Y-80351885D01*
X153033231Y-70191888D02*
X142873231Y-80351885D01*
X161990561Y-75362941D02*
X158271744Y-89241756D01*
X173669676Y-80351755D02*
X178749674Y-89150573D01*
X167070563Y-84161756D02*
X168929973Y-77222344D01*
X168929973Y-77222344D02*
X161990561Y-75362941D01*
X167070563Y-84161756D02*
X173669676Y-80351755D01*
X172150565Y-92960572D02*
X178749674Y-89150573D01*
X172150565Y-92960572D02*
X179089968Y-94819985D01*
X177230561Y-101759394D02*
X163351744Y-98040573D01*
X152907581Y-104072031D02*
X163351744Y-98040573D01*
X179089968Y-94819985D02*
X177230561Y-101759394D01*
X158271744Y-89241756D02*
X147929179Y-95207431D01*
X103436748Y-120900161D02*
X96497337Y-119040757D01*
X122732379Y-109761633D02*
X112235569Y-115820163D01*
X117315565Y-124618979D02*
X127913979Y-118499232D01*
X98356747Y-112101345D02*
X112235569Y-115820163D01*
X96497337Y-119040757D02*
X98356747Y-112101345D01*
X108516748Y-129698982D02*
X101917634Y-133508984D01*
X108516748Y-129698982D02*
X106657339Y-136638393D01*
X113596748Y-138497802D02*
X117315565Y-124618979D01*
X103436748Y-120900161D02*
X96837638Y-124710162D01*
X106657339Y-136638393D02*
X113596748Y-138497802D01*
X101917634Y-133508984D02*
X96837638Y-124710162D01*
X167071155Y-129700056D02*
X173670267Y-133510053D01*
X161991158Y-138498873D02*
X158272337Y-124620056D01*
X168930564Y-136639463D02*
X161991158Y-138498873D01*
X167071155Y-129700056D02*
X168930564Y-136639463D01*
X163352338Y-115821238D02*
X152856781Y-109761634D01*
X147675184Y-118524631D02*
X158272337Y-124620056D01*
X177231155Y-112102419D02*
X163352338Y-115821238D01*
X178750264Y-124711233D02*
X173670267Y-133510053D01*
X179090562Y-119041828D02*
X177231155Y-112102419D01*
X172151155Y-120901237D02*
X179090562Y-119041828D01*
X172151155Y-120901237D02*
X178750264Y-124711233D01*
X132714582Y-143670627D02*
X132714578Y-151290630D01*
X142874577Y-133510630D02*
X142874582Y-121267834D01*
X153034579Y-143670630D02*
X142874577Y-133510630D01*
X147954583Y-148750632D02*
X153034579Y-143670630D01*
X142874578Y-143670627D02*
X147954583Y-148750632D01*
X122554579Y-143670631D02*
X132714580Y-133510633D01*
X127634581Y-148750630D02*
X122554579Y-143670631D01*
X132714582Y-143670627D02*
X127634581Y-148750630D01*
X132714582Y-121242430D02*
X132714580Y-133510633D01*
X142874579Y-151290629D02*
X132714578Y-151290630D01*
X142874578Y-143670627D02*
X142874579Y-151290629D01*
M02*
