G04 #@! TF.FileFunction,Legend,Top*
%FSLAX46Y46*%
G04 Gerber Fmt 4.6, Leading zero omitted, Abs format (unit mm)*
G04 Created by KiCad (PCBNEW 4.0.5+dfsg1-4) date Thu Nov 23 17:58:13 2017*
%MOMM*%
%LPD*%
G01*
G04 APERTURE LIST*
%ADD10C,0.100000*%
%ADD11C,0.120000*%
%ADD12C,0.150000*%
G04 APERTURE END LIST*
D10*
D11*
X119797597Y-115878799D02*
X118931571Y-116378799D01*
X118931571Y-116378799D02*
X119981571Y-118197452D01*
X119797597Y-115878799D02*
X120847597Y-117697452D01*
X120843594Y-95804799D02*
X119977568Y-95304799D01*
X119977568Y-95304799D02*
X118927568Y-97123452D01*
X120843594Y-95804799D02*
X119793594Y-97623452D01*
X139094578Y-86766632D02*
X139094578Y-85766632D01*
X139094578Y-85766632D02*
X136994578Y-85766632D01*
X139094578Y-86766632D02*
X136994578Y-86766632D01*
X156045566Y-98056465D02*
X156911592Y-97556465D01*
X156911592Y-97556465D02*
X155861592Y-95737812D01*
X156045566Y-98056465D02*
X154995566Y-96237812D01*
X154383566Y-118199644D02*
X155249592Y-118699644D01*
X155249592Y-118699644D02*
X156299592Y-116880991D01*
X154383566Y-118199644D02*
X155433566Y-116380991D01*
X136532582Y-126914630D02*
X136532582Y-127914630D01*
X136532582Y-127914630D02*
X138632582Y-127914630D01*
X136532582Y-126914630D02*
X138632582Y-126914630D01*
X112285594Y-120011977D02*
X111419568Y-120511977D01*
X111419568Y-120511977D02*
X112469568Y-122330630D01*
X112285594Y-120011977D02*
X113335594Y-121830630D01*
X113369596Y-91555977D02*
X112503570Y-91055977D01*
X112503570Y-91055977D02*
X111453570Y-92874630D01*
X113369596Y-91555977D02*
X112319596Y-93374630D01*
X139094581Y-78130633D02*
X139094581Y-77130633D01*
X139094581Y-77130633D02*
X136994581Y-77130633D01*
X139094581Y-78130633D02*
X136994581Y-78130633D01*
X163365767Y-93659135D02*
X164231793Y-93159135D01*
X164231793Y-93159135D02*
X163181793Y-91340482D01*
X163365767Y-93659135D02*
X162315767Y-91840482D01*
X161857571Y-122702466D02*
X162723597Y-123202466D01*
X162723597Y-123202466D02*
X163773597Y-121383813D01*
X161857571Y-122702466D02*
X162907571Y-120883813D01*
X136532581Y-135550631D02*
X136532581Y-136550631D01*
X136532581Y-136550631D02*
X138632581Y-136550631D01*
X136532581Y-135550631D02*
X138632581Y-135550631D01*
X104811592Y-124260796D02*
X103945566Y-124760796D01*
X103945566Y-124760796D02*
X104995566Y-126579449D01*
X104811592Y-124260796D02*
X105861592Y-126079449D01*
X105603593Y-86914796D02*
X104737567Y-86414796D01*
X104737567Y-86414796D02*
X103687567Y-88233449D01*
X105603593Y-86914796D02*
X104553593Y-88733449D01*
X139094578Y-68732630D02*
X139094578Y-67732630D01*
X139094578Y-67732630D02*
X136994578Y-67732630D01*
X139094578Y-68732630D02*
X136994578Y-68732630D01*
X171285571Y-88912467D02*
X172151597Y-88412467D01*
X172151597Y-88412467D02*
X171101597Y-86593814D01*
X171285571Y-88912467D02*
X170235571Y-87093814D01*
X169223565Y-127020462D02*
X170089591Y-127520462D01*
X170089591Y-127520462D02*
X171139591Y-125701809D01*
X169223565Y-127020462D02*
X170273565Y-125201809D01*
X136494581Y-143932634D02*
X136494581Y-144932634D01*
X136494581Y-144932634D02*
X138594581Y-144932634D01*
X136494581Y-143932634D02*
X138594581Y-143932634D01*
D12*
M02*
