G04 #@! TF.FileFunction,Legend,Bot*
%FSLAX46Y46*%
G04 Gerber Fmt 4.6, Leading zero omitted, Abs format (unit mm)*
G04 Created by KiCad (PCBNEW 4.0.5+dfsg1-4) date Thu Nov 23 17:58:13 2017*
%MOMM*%
%LPD*%
G01*
G04 APERTURE LIST*
%ADD10C,0.100000*%
%ADD11C,0.150000*%
%ADD12C,0.300000*%
%ADD13C,0.120000*%
G04 APERTURE END LIST*
D10*
D11*
X149651823Y-117549604D02*
X149747061Y-117384646D01*
X149753441Y-117278358D01*
X149718582Y-117148261D01*
X149577434Y-117011784D01*
X149288758Y-116845117D01*
X149099992Y-116791118D01*
X148969894Y-116825977D01*
X148881036Y-116884646D01*
X148785798Y-117049604D01*
X148779418Y-117155892D01*
X148814277Y-117285990D01*
X148955425Y-117422467D01*
X149244101Y-117589134D01*
X149432867Y-117643133D01*
X149562965Y-117608273D01*
X149651823Y-117549604D01*
X149834669Y-116280526D02*
X149668002Y-116569202D01*
X149214369Y-116307297D02*
X150080394Y-116807297D01*
X150318490Y-116394903D01*
X150263240Y-115538218D02*
X150096573Y-115826894D01*
X149642941Y-115564989D02*
X150508966Y-116064989D01*
X150747061Y-115652596D01*
X152175633Y-113178237D02*
X152270871Y-113013279D01*
X152277251Y-112906991D01*
X152242392Y-112776894D01*
X152101244Y-112640416D01*
X151812568Y-112473749D01*
X151623802Y-112419751D01*
X151493704Y-112454610D01*
X151404846Y-112513279D01*
X151309608Y-112678237D01*
X151303228Y-112784525D01*
X151338087Y-112914623D01*
X151479235Y-113051100D01*
X151767911Y-113217767D01*
X151956677Y-113271766D01*
X152086775Y-113236906D01*
X152175633Y-113178237D01*
X151738179Y-111935930D02*
X152604204Y-112435930D01*
X152023894Y-111441058D01*
X152889919Y-111941058D01*
D12*
X128805714Y-103791144D02*
X128877143Y-103719715D01*
X128948571Y-103505429D01*
X128948571Y-103362572D01*
X128877143Y-103148287D01*
X128734286Y-103005429D01*
X128591429Y-102934001D01*
X128305714Y-102862572D01*
X128091429Y-102862572D01*
X127805714Y-102934001D01*
X127662857Y-103005429D01*
X127520000Y-103148287D01*
X127448571Y-103362572D01*
X127448571Y-103505429D01*
X127520000Y-103719715D01*
X127591429Y-103791144D01*
X128948571Y-105291144D02*
X128234286Y-104791144D01*
X128948571Y-104434001D02*
X127448571Y-104434001D01*
X127448571Y-105005429D01*
X127520000Y-105148287D01*
X127591429Y-105219715D01*
X127734286Y-105291144D01*
X127948571Y-105291144D01*
X128091429Y-105219715D01*
X128162857Y-105148287D01*
X128234286Y-105005429D01*
X128234286Y-104434001D01*
X127591429Y-105862572D02*
X127520000Y-105934001D01*
X127448571Y-106076858D01*
X127448571Y-106434001D01*
X127520000Y-106576858D01*
X127591429Y-106648287D01*
X127734286Y-106719715D01*
X127877143Y-106719715D01*
X128091429Y-106648287D01*
X128948571Y-105791144D01*
X128948571Y-106719715D01*
X127448571Y-107648286D02*
X127448571Y-107791143D01*
X127520000Y-107934000D01*
X127591429Y-108005429D01*
X127734286Y-108076858D01*
X128020000Y-108148286D01*
X128377143Y-108148286D01*
X128662857Y-108076858D01*
X128805714Y-108005429D01*
X128877143Y-107934000D01*
X128948571Y-107791143D01*
X128948571Y-107648286D01*
X128877143Y-107505429D01*
X128805714Y-107434000D01*
X128662857Y-107362572D01*
X128377143Y-107291143D01*
X128020000Y-107291143D01*
X127734286Y-107362572D01*
X127591429Y-107434000D01*
X127520000Y-107505429D01*
X127448571Y-107648286D01*
X127448571Y-108648286D02*
X127448571Y-109576857D01*
X128020000Y-109076857D01*
X128020000Y-109291143D01*
X128091429Y-109434000D01*
X128162857Y-109505429D01*
X128305714Y-109576857D01*
X128662857Y-109576857D01*
X128805714Y-109505429D01*
X128877143Y-109434000D01*
X128948571Y-109291143D01*
X128948571Y-108862571D01*
X128877143Y-108719714D01*
X128805714Y-108648286D01*
X127591429Y-110148285D02*
X127520000Y-110219714D01*
X127448571Y-110362571D01*
X127448571Y-110719714D01*
X127520000Y-110862571D01*
X127591429Y-110934000D01*
X127734286Y-111005428D01*
X127877143Y-111005428D01*
X128091429Y-110934000D01*
X128948571Y-110076857D01*
X128948571Y-111005428D01*
D11*
X142547062Y-99581039D02*
X142013249Y-99581039D01*
X142013249Y-99581039D02*
X142013249Y-98786118D01*
X141374753Y-96435265D02*
X144022865Y-96435265D01*
X144022865Y-96435265D02*
X144022865Y-99961128D01*
X144022865Y-99961128D02*
X145299910Y-101089359D01*
X145299910Y-101089359D02*
X145299910Y-117038471D01*
X133019972Y-98786118D02*
X133658468Y-98786118D01*
X142013249Y-98786118D02*
X141374753Y-98786118D01*
X141374753Y-98786118D02*
X141374753Y-96435265D01*
X137528748Y-120234818D02*
G75*
G03X145299910Y-117038471I138716J10707791D01*
G01*
X137516611Y-100267593D02*
X132486159Y-100267593D01*
X132486159Y-100267593D02*
X132486159Y-99581039D01*
X132486159Y-99581039D02*
X133019972Y-99581039D01*
X137516611Y-100267593D02*
X142547062Y-100267593D01*
X142547062Y-100267593D02*
X142547062Y-99581039D01*
X129741830Y-117047119D02*
G75*
G03X137516611Y-120234654I7623927J7520092D01*
G01*
X131010356Y-96435265D02*
X131010356Y-99961128D01*
X131010356Y-99961128D02*
X129733311Y-101089359D01*
X129733311Y-101089359D02*
X129733311Y-117038471D01*
X133019972Y-99581039D02*
X133019972Y-98786118D01*
X133658468Y-98786118D02*
X133658468Y-96435265D01*
X133658468Y-96435265D02*
X131010356Y-96435265D01*
D13*
X139894919Y-122328447D02*
X140389893Y-122823421D01*
X141238421Y-121974893D02*
X140743447Y-121479919D01*
X132878331Y-138921855D02*
X132383357Y-138426881D01*
X131534829Y-139275409D02*
X132029803Y-139770383D01*
D11*
X139573000Y-131572000D02*
G75*
G03X139573000Y-131572000I-127000J0D01*
G01*
D13*
X147820000Y-109048000D02*
X146820000Y-109048000D01*
X146820000Y-110408000D02*
X147820000Y-110408000D01*
X147820000Y-107397000D02*
X146820000Y-107397000D01*
X146820000Y-108757000D02*
X147820000Y-108757000D01*
X147808000Y-105746000D02*
X146808000Y-105746000D01*
X146808000Y-107106000D02*
X147808000Y-107106000D01*
D11*
X140872582Y-142606632D02*
X140872582Y-146106632D01*
X134872582Y-146106632D02*
X134872582Y-142606632D01*
X140872582Y-142606632D02*
X134872582Y-142606632D01*
X140872582Y-146106632D02*
X134872582Y-146106632D01*
D13*
X133738582Y-137492629D02*
X134738582Y-137492629D01*
X134738582Y-136132629D02*
X133738582Y-136132629D01*
X142664492Y-141151839D02*
X144276696Y-142764043D01*
X143025117Y-140791215D02*
X142664492Y-141151839D01*
X145181792Y-138634539D02*
X144821168Y-138995164D01*
X146793996Y-140246743D02*
X145181792Y-138634539D01*
D11*
X154089282Y-111298360D02*
X157553383Y-113298360D01*
X149589282Y-119092589D02*
X153053383Y-121092589D01*
X153053383Y-121092589D02*
X157553383Y-113298360D01*
X149589282Y-119092589D02*
X154089282Y-111298360D01*
D13*
X128145742Y-140882585D02*
X129418534Y-139609793D01*
X131695418Y-141886677D02*
X129963006Y-143619088D01*
D11*
X137857428Y-127897559D02*
X138405436Y-127349551D01*
X137857428Y-121816441D02*
X137309420Y-122364449D01*
X140897987Y-124857000D02*
X140349979Y-125405008D01*
X134816869Y-124857000D02*
X135364877Y-125405008D01*
X137857428Y-121816441D02*
X138405436Y-122364449D01*
X140897987Y-124857000D02*
X140349979Y-124308992D01*
X137857428Y-127897559D02*
X137309420Y-127349551D01*
M02*
