G04 #@! TF.FileFunction,Copper,L1,Top,Signal*
%FSLAX46Y46*%
G04 Gerber Fmt 4.6, Leading zero omitted, Abs format (unit mm)*
G04 Created by KiCad (PCBNEW 4.0.5+dfsg1-4) date Thu Nov 23 17:58:13 2017*
%MOMM*%
%LPD*%
G01*
G04 APERTURE LIST*
%ADD10C,0.100000*%
%ADD11C,0.600000*%
%ADD12R,0.800000X0.800000*%
%ADD13C,0.203200*%
G04 APERTURE END LIST*
D10*
D11*
X142367000Y-131953000D03*
X139319000Y-116459000D03*
X138430000Y-115570000D03*
X142367000Y-130937000D03*
X142367000Y-129921000D03*
D10*
G36*
X120960994Y-118093862D02*
X120268174Y-118493862D01*
X119868174Y-117801042D01*
X120560994Y-117401042D01*
X120960994Y-118093862D01*
X120960994Y-118093862D01*
G37*
G36*
X120160994Y-116708222D02*
X119468174Y-117108222D01*
X119068174Y-116415402D01*
X119760994Y-116015402D01*
X120160994Y-116708222D01*
X120160994Y-116708222D01*
G37*
G36*
X119506991Y-97919862D02*
X118814171Y-97519862D01*
X119214171Y-96827042D01*
X119906991Y-97227042D01*
X119506991Y-97919862D01*
X119506991Y-97919862D01*
G37*
G36*
X120306991Y-96534222D02*
X119614171Y-96134222D01*
X120014171Y-95441402D01*
X120706991Y-95841402D01*
X120306991Y-96534222D01*
X120306991Y-96534222D01*
G37*
D12*
X136994578Y-86266632D03*
X138594578Y-86266632D03*
D10*
G36*
X154882169Y-95841402D02*
X155574989Y-95441402D01*
X155974989Y-96134222D01*
X155282169Y-96534222D01*
X154882169Y-95841402D01*
X154882169Y-95841402D01*
G37*
G36*
X155682169Y-97227042D02*
X156374989Y-96827042D01*
X156774989Y-97519862D01*
X156082169Y-97919862D01*
X155682169Y-97227042D01*
X155682169Y-97227042D01*
G37*
G36*
X155720169Y-116084581D02*
X156412989Y-116484581D01*
X156012989Y-117177401D01*
X155320169Y-116777401D01*
X155720169Y-116084581D01*
X155720169Y-116084581D01*
G37*
G36*
X154920169Y-117470221D02*
X155612989Y-117870221D01*
X155212989Y-118563041D01*
X154520169Y-118163041D01*
X154920169Y-117470221D01*
X154920169Y-117470221D01*
G37*
D12*
X138632582Y-127414630D03*
X137032582Y-127414630D03*
D10*
G36*
X113448991Y-122227040D02*
X112756171Y-122627040D01*
X112356171Y-121934220D01*
X113048991Y-121534220D01*
X113448991Y-122227040D01*
X113448991Y-122227040D01*
G37*
G36*
X112648991Y-120841400D02*
X111956171Y-121241400D01*
X111556171Y-120548580D01*
X112248991Y-120148580D01*
X112648991Y-120841400D01*
X112648991Y-120841400D01*
G37*
G36*
X112032993Y-93671040D02*
X111340173Y-93271040D01*
X111740173Y-92578220D01*
X112432993Y-92978220D01*
X112032993Y-93671040D01*
X112032993Y-93671040D01*
G37*
G36*
X112832993Y-92285400D02*
X112140173Y-91885400D01*
X112540173Y-91192580D01*
X113232993Y-91592580D01*
X112832993Y-92285400D01*
X112832993Y-92285400D01*
G37*
D12*
X136994581Y-77630633D03*
X138594581Y-77630633D03*
D10*
G36*
X162202370Y-91444072D02*
X162895190Y-91044072D01*
X163295190Y-91736892D01*
X162602370Y-92136892D01*
X162202370Y-91444072D01*
X162202370Y-91444072D01*
G37*
G36*
X163002370Y-92829712D02*
X163695190Y-92429712D01*
X164095190Y-93122532D01*
X163402370Y-93522532D01*
X163002370Y-92829712D01*
X163002370Y-92829712D01*
G37*
G36*
X163194174Y-120587403D02*
X163886994Y-120987403D01*
X163486994Y-121680223D01*
X162794174Y-121280223D01*
X163194174Y-120587403D01*
X163194174Y-120587403D01*
G37*
G36*
X162394174Y-121973043D02*
X163086994Y-122373043D01*
X162686994Y-123065863D01*
X161994174Y-122665863D01*
X162394174Y-121973043D01*
X162394174Y-121973043D01*
G37*
D12*
X138632581Y-136050631D03*
X137032581Y-136050631D03*
D10*
G36*
X105974989Y-126475859D02*
X105282169Y-126875859D01*
X104882169Y-126183039D01*
X105574989Y-125783039D01*
X105974989Y-126475859D01*
X105974989Y-126475859D01*
G37*
G36*
X105174989Y-125090219D02*
X104482169Y-125490219D01*
X104082169Y-124797399D01*
X104774989Y-124397399D01*
X105174989Y-125090219D01*
X105174989Y-125090219D01*
G37*
G36*
X104266990Y-89029859D02*
X103574170Y-88629859D01*
X103974170Y-87937039D01*
X104666990Y-88337039D01*
X104266990Y-89029859D01*
X104266990Y-89029859D01*
G37*
G36*
X105066990Y-87644219D02*
X104374170Y-87244219D01*
X104774170Y-86551399D01*
X105466990Y-86951399D01*
X105066990Y-87644219D01*
X105066990Y-87644219D01*
G37*
D12*
X136994578Y-68232630D03*
X138594578Y-68232630D03*
D10*
G36*
X170122174Y-86697404D02*
X170814994Y-86297404D01*
X171214994Y-86990224D01*
X170522174Y-87390224D01*
X170122174Y-86697404D01*
X170122174Y-86697404D01*
G37*
G36*
X170922174Y-88083044D02*
X171614994Y-87683044D01*
X172014994Y-88375864D01*
X171322174Y-88775864D01*
X170922174Y-88083044D01*
X170922174Y-88083044D01*
G37*
G36*
X170560168Y-124905399D02*
X171252988Y-125305399D01*
X170852988Y-125998219D01*
X170160168Y-125598219D01*
X170560168Y-124905399D01*
X170560168Y-124905399D01*
G37*
G36*
X169760168Y-126291039D02*
X170452988Y-126691039D01*
X170052988Y-127383859D01*
X169360168Y-126983859D01*
X169760168Y-126291039D01*
X169760168Y-126291039D01*
G37*
D12*
X138594581Y-144432634D03*
X136994581Y-144432634D03*
D11*
X142367000Y-128905000D03*
X148572922Y-111506000D03*
X150749000Y-112522000D03*
X148082000Y-142113000D03*
X131064000Y-137922000D03*
X128270000Y-143002000D03*
X137541000Y-115570000D03*
X139319000Y-117602000D03*
X137857428Y-123973117D03*
X135316571Y-128651000D03*
X132080000Y-140568714D03*
X141656686Y-139606632D03*
X140462000Y-131318000D03*
X135128000Y-124841000D03*
X135255000Y-127000000D03*
X141701800Y-127635000D03*
X139603200Y-127651841D03*
X134315199Y-126985015D03*
X140381659Y-109681341D03*
X135316569Y-134666011D03*
X137215584Y-134775117D03*
X137795000Y-131318000D03*
X139909401Y-109031644D03*
X140070027Y-128305451D03*
X139319000Y-108458000D03*
X127746636Y-113659654D03*
X131936801Y-113054854D03*
X131980499Y-114272501D03*
X127006396Y-101541478D03*
X131971210Y-112233945D03*
X131064000Y-114264454D03*
X135126277Y-95339988D03*
X147895723Y-100405971D03*
X130260797Y-114264454D03*
X132576010Y-111125000D03*
X136913062Y-98171000D03*
X138176000Y-98171000D03*
X140492200Y-124968000D03*
X140468373Y-126612627D03*
X139321063Y-118547656D03*
X148407391Y-114000025D03*
X149177722Y-101278590D03*
X138406862Y-94148833D03*
X127067831Y-100001513D03*
X126401594Y-112819875D03*
X137267461Y-119774686D03*
X149860000Y-108077000D03*
X148572922Y-108077000D03*
X136632462Y-120536687D03*
X148749801Y-114930954D03*
X150155134Y-101447515D03*
X139041860Y-93459636D03*
X126661919Y-99180574D03*
X125424185Y-112650950D03*
X150188932Y-106426000D03*
X148572922Y-106426000D03*
X149147165Y-115766699D03*
X151108841Y-101575386D03*
X139605792Y-92697638D03*
X126257311Y-98357373D03*
X124499720Y-112573729D03*
X135997459Y-121171686D03*
D13*
X150749000Y-112522000D02*
X149588922Y-112522000D01*
X149588922Y-112522000D02*
X148572922Y-111506000D01*
X131064000Y-137922000D02*
X128270000Y-140716000D01*
X128270000Y-140716000D02*
X128270000Y-143002000D01*
X141656686Y-139606632D02*
X141656686Y-142719171D01*
X141656686Y-142719171D02*
X139238422Y-145137435D01*
X139238422Y-145137435D02*
X136350740Y-145137435D01*
X136350740Y-145137435D02*
X132080000Y-140866695D01*
X132080000Y-140866695D02*
X132080000Y-140568714D01*
X140462000Y-131318000D02*
X140462000Y-138411946D01*
X140462000Y-138411946D02*
X141656686Y-139606632D01*
X135255000Y-127000000D02*
X135255000Y-124968000D01*
X135255000Y-124968000D02*
X135128000Y-124841000D01*
X139603200Y-127651841D02*
X141684959Y-127651841D01*
X141684959Y-127651841D02*
X141701800Y-127635000D01*
X140381659Y-109681341D02*
X134523199Y-115539801D01*
X134523199Y-115539801D02*
X134523199Y-126777015D01*
X134523199Y-126777015D02*
X134315199Y-126985015D01*
X135316569Y-134666011D02*
X133604000Y-132953442D01*
X133604000Y-115337045D02*
X139609402Y-109331643D01*
X139609402Y-109331643D02*
X139909401Y-109031644D01*
X133604000Y-132953442D02*
X133604000Y-115337045D01*
X137795000Y-131318000D02*
X137215584Y-131897416D01*
X137215584Y-131897416D02*
X137215584Y-134775117D01*
X140070027Y-128305451D02*
X141926455Y-128305451D01*
X141926455Y-128305451D02*
X142494000Y-127737906D01*
X140085790Y-110872316D02*
X140986460Y-109971646D01*
X142494000Y-127737906D02*
X142494000Y-127284296D01*
X142494000Y-127284296D02*
X140782505Y-125572801D01*
X140201895Y-125572801D02*
X139887399Y-125258305D01*
X140782505Y-125572801D02*
X140201895Y-125572801D01*
X139887399Y-124677695D02*
X140085790Y-124479304D01*
X139930864Y-108158001D02*
X139618999Y-108158001D01*
X139887399Y-125258305D02*
X139887399Y-124677695D01*
X140986460Y-109213597D02*
X139930864Y-108158001D01*
X140085790Y-124479304D02*
X140085790Y-110872316D01*
X140986460Y-109971646D02*
X140986460Y-109213597D01*
X139618999Y-108158001D02*
X139319000Y-108458000D01*
X120414584Y-117947452D02*
X127729318Y-113724287D01*
X127729318Y-113724287D02*
X127746636Y-113659654D01*
X105428580Y-126329454D02*
X112902582Y-122080634D01*
X112902582Y-122080634D02*
X120414583Y-117947453D01*
X131980499Y-114272501D02*
X131980499Y-113098552D01*
X131980499Y-113098552D02*
X131936801Y-113054854D01*
X119360581Y-97373452D02*
X126715035Y-101619548D01*
X126715035Y-101619548D02*
X127006396Y-101541478D01*
X104120580Y-88483449D02*
X111886585Y-93124629D01*
X111886585Y-93124629D02*
X119360582Y-97373451D01*
X135126277Y-95339988D02*
X137033000Y-94234000D01*
X131064000Y-114264454D02*
X131064000Y-113032549D01*
X131064000Y-113032549D02*
X131862604Y-112233945D01*
X131862604Y-112233945D02*
X131971210Y-112233945D01*
X136994578Y-93471687D02*
X136994578Y-86266632D01*
X137033000Y-94234000D02*
X136994578Y-93471687D01*
X136994580Y-77630629D02*
X136994583Y-68232631D01*
X136994582Y-86266629D02*
X136994580Y-77630629D01*
X147917616Y-100324268D02*
X147895723Y-100405971D01*
X155428578Y-95987812D02*
X147917616Y-100324268D01*
X132185049Y-111125000D02*
X132576010Y-111125000D01*
X130260797Y-113049252D02*
X132185049Y-111125000D01*
X130260797Y-114264454D02*
X130260797Y-113049252D01*
X136913062Y-98171000D02*
X138176000Y-98171000D01*
X162748779Y-91590480D02*
X170613371Y-87049862D01*
X170613371Y-87049862D02*
X170668579Y-86843811D01*
X162794582Y-91669813D02*
X155428582Y-95987810D01*
X148517038Y-112472783D02*
X145901195Y-112472783D01*
X145901195Y-112472783D02*
X140516519Y-117857459D01*
X140492200Y-118140200D02*
X140516519Y-118115881D01*
X140516519Y-118115881D02*
X140516519Y-117857459D01*
X140492200Y-124968000D02*
X140492200Y-118140200D01*
X155866578Y-116630991D02*
X148617654Y-112445823D01*
X148617654Y-112445823D02*
X148517038Y-112472783D01*
X170706583Y-125451812D02*
X163340581Y-121133813D01*
X163340581Y-121133813D02*
X155866582Y-116630993D01*
X139573000Y-126786935D02*
X138657077Y-126786935D01*
X138657077Y-126786935D02*
X138632582Y-126811430D01*
X139321063Y-118547656D02*
X138632582Y-119236135D01*
X138632582Y-119236135D02*
X138632582Y-126811430D01*
X138632582Y-126811430D02*
X138632582Y-127414630D01*
X140468373Y-126612627D02*
X139747308Y-126612627D01*
X139747308Y-126612627D02*
X139573000Y-126786935D01*
X138632580Y-127414632D02*
X138632578Y-136050630D01*
X138632578Y-136050630D02*
X138594581Y-144432631D01*
X149861142Y-115011269D02*
X149806646Y-114807886D01*
X149806646Y-114807886D02*
X148407391Y-114000025D01*
X150845380Y-100559854D02*
X150597874Y-100493536D01*
X150597874Y-100493536D02*
X149218975Y-101289645D01*
X149218975Y-101289645D02*
X149177722Y-101278590D01*
X138594581Y-92195983D02*
X138437062Y-92353502D01*
X138437062Y-92353502D02*
X138437061Y-94118636D01*
X138437061Y-94118636D02*
X138406862Y-94148833D01*
X125489295Y-99081606D02*
X125527433Y-99223942D01*
X125527433Y-99223942D02*
X126935597Y-100036946D01*
X126935597Y-100036946D02*
X127067831Y-100001513D01*
X124968050Y-113470984D02*
X125135658Y-113515892D01*
X125135658Y-113515892D02*
X126360340Y-112808820D01*
X126360340Y-112808820D02*
X126401594Y-112819875D01*
X137032581Y-121478394D02*
X137237261Y-121273716D01*
X137237261Y-121273716D02*
X137237260Y-119804884D01*
X137237260Y-119804884D02*
X137267461Y-119774686D01*
X155066580Y-118016632D02*
X150521054Y-115392272D01*
X150521054Y-115392272D02*
X149861142Y-115011269D01*
X137032580Y-127414630D02*
X137032581Y-121478394D01*
X150845380Y-100559854D02*
X150841604Y-100562028D01*
X150955361Y-100496352D02*
X150845380Y-100559854D01*
X155358544Y-97954174D02*
X150955361Y-100496352D01*
X155706196Y-97675053D02*
X155383398Y-97861419D01*
X155383398Y-97861419D02*
X155358544Y-97954174D01*
X138594579Y-91318285D02*
X138594581Y-92195983D01*
X122843177Y-97553867D02*
X125489295Y-99081606D01*
X121681423Y-115368522D02*
X124968050Y-113470984D01*
X156228580Y-97373453D02*
X155706196Y-97675053D01*
X138594579Y-91318285D02*
X138584578Y-91328286D01*
X138594578Y-86266632D02*
X138594579Y-91318285D01*
X120688439Y-96309828D02*
X122843177Y-97553867D01*
X120160578Y-95987811D02*
X120682968Y-96289410D01*
X120682968Y-96289410D02*
X120688439Y-96309828D01*
X119614579Y-116561811D02*
X121681423Y-115368522D01*
X148572922Y-108077000D02*
X149860000Y-108077000D01*
X136626170Y-121064630D02*
X136626171Y-120542975D01*
X136626171Y-120542975D02*
X136632462Y-120536687D01*
X136626172Y-126551042D02*
X136626170Y-121064630D01*
X137032579Y-136050632D02*
X137032583Y-135447433D01*
X137032583Y-135447433D02*
X136327781Y-134742630D01*
X136327781Y-134742630D02*
X136327782Y-126849434D01*
X136327782Y-126849434D02*
X136626172Y-126551042D01*
X149130014Y-115058434D02*
X148858679Y-114901779D01*
X148858679Y-114901779D02*
X148749801Y-114930954D01*
X150626878Y-101155284D02*
X150161433Y-101424010D01*
X150161433Y-101424010D02*
X150155134Y-101447515D01*
X139000991Y-92805569D02*
X139000991Y-93418767D01*
X139000991Y-93418767D02*
X139041860Y-93459636D01*
X126154440Y-98996347D02*
X126533248Y-99215050D01*
X126533248Y-99215050D02*
X126661919Y-99180574D01*
X125130273Y-112908041D02*
X125396478Y-112754347D01*
X125396478Y-112754347D02*
X125424185Y-112650950D01*
X162018193Y-122217853D02*
X162004338Y-122166144D01*
X162540580Y-122519456D02*
X162018193Y-122217853D01*
X162004338Y-122166144D02*
X156505900Y-118991617D01*
X156505900Y-118991617D02*
X156285931Y-118864616D01*
X154156598Y-118305086D02*
X154097235Y-118083545D01*
X155493501Y-119076946D02*
X154156598Y-118305086D01*
X156285931Y-118864616D02*
X155493501Y-119076946D01*
X154019221Y-118038507D02*
X153969366Y-117852436D01*
X154097235Y-118083545D02*
X154019221Y-118038507D01*
X153969366Y-117852436D02*
X150645817Y-115933584D01*
X150645817Y-115933584D02*
X149130014Y-115058434D01*
X155566856Y-98303187D02*
X150626878Y-101155284D01*
X139000991Y-91486618D02*
X139000991Y-92805569D01*
X123046385Y-97201907D02*
X126154440Y-98996347D01*
X120608070Y-115518938D02*
X125130273Y-112908041D01*
X157696866Y-96460497D02*
X157418214Y-97500452D01*
X157418214Y-97500452D02*
X155881712Y-98387551D01*
X155881712Y-98387551D02*
X155566856Y-98303187D01*
X163594581Y-93055450D02*
X157696866Y-96460497D01*
X139299382Y-86803479D02*
X139000990Y-87101868D01*
X139000990Y-87101868D02*
X139000991Y-91486618D01*
X138584578Y-84724288D02*
X139299380Y-85439088D01*
X139299380Y-85439088D02*
X139299382Y-86803479D01*
X138584575Y-78243838D02*
X138584578Y-84724288D01*
X138594583Y-77630630D02*
X138594582Y-78233832D01*
X138594582Y-78233832D02*
X138584575Y-78243838D01*
X121374599Y-96236703D02*
X123046385Y-97201907D01*
X118825698Y-95283408D02*
X119866907Y-95004422D01*
X119866907Y-95004422D02*
X121259906Y-95808672D01*
X121259906Y-95808672D02*
X121374599Y-96236703D01*
X112686579Y-91738986D02*
X118825698Y-95283408D01*
X120246371Y-115727765D02*
X120608070Y-115518938D01*
X112102582Y-120694991D02*
X118511247Y-116994945D01*
X118511247Y-116994945D02*
X118704597Y-116273354D01*
X118704597Y-116273354D02*
X119838760Y-115618545D01*
X119838760Y-115618545D02*
X120246371Y-115727765D01*
X148572922Y-106426000D02*
X150188932Y-106426000D01*
X149342758Y-115650543D02*
X149299218Y-115725955D01*
X149299218Y-115725955D02*
X149147165Y-115766699D01*
X151216837Y-101283951D02*
X151181458Y-101304375D01*
X151181458Y-101304375D02*
X151108841Y-101575386D01*
X139407401Y-92272159D02*
X139407401Y-92499247D01*
X139407401Y-92499247D02*
X139605792Y-92697638D01*
X125818815Y-98333289D02*
X125986308Y-98429987D01*
X125986308Y-98429987D02*
X126257311Y-98357373D01*
X124399147Y-112860878D02*
X124427104Y-112844737D01*
X124427104Y-112844737D02*
X124499720Y-112573729D01*
X136219761Y-121468686D02*
X136219761Y-121393984D01*
X136219761Y-121393984D02*
X135997459Y-121171686D01*
X149516728Y-115750987D02*
X149342758Y-115650543D01*
X150726562Y-116449486D02*
X149516728Y-115750987D01*
X136219761Y-126382701D02*
X136219761Y-121468686D01*
X153238241Y-117899606D02*
X150726562Y-116449486D01*
X152338512Y-100636352D02*
X151216837Y-101283951D01*
X139407403Y-90820286D02*
X139407401Y-92272159D01*
X123249591Y-96849946D02*
X125818815Y-98333289D01*
X123853469Y-113175923D02*
X124399147Y-112860878D01*
X120404864Y-115166971D02*
X123853469Y-113175923D01*
X161494004Y-122340784D02*
X156228513Y-119300749D01*
X156228513Y-119300749D02*
X155436081Y-119513081D01*
X155436081Y-119513081D02*
X153347460Y-118307213D01*
X153347460Y-118307213D02*
X153238241Y-117899606D01*
X163856007Y-123344151D02*
X162970410Y-123581446D01*
X162970410Y-123581446D02*
X161617078Y-122800100D01*
X161617078Y-122800100D02*
X161494004Y-122340784D01*
X169906579Y-126837452D02*
X163856007Y-123344151D01*
X155624273Y-98739317D02*
X152338512Y-100636352D01*
X162875915Y-93939655D02*
X158045859Y-96728287D01*
X158045859Y-96728287D02*
X157767204Y-97768243D01*
X157767204Y-97768243D02*
X155939126Y-98823684D01*
X155939126Y-98823684D02*
X155624273Y-98739317D01*
X164946909Y-91994740D02*
X164533728Y-93536762D01*
X164533728Y-93536762D02*
X163531596Y-94115342D01*
X163531596Y-94115342D02*
X162875915Y-93939655D01*
X171468582Y-88229453D02*
X164946909Y-91994740D01*
X139407399Y-87270213D02*
X139407403Y-90820286D01*
X138990986Y-78475879D02*
X138990984Y-84555947D01*
X138990984Y-84555947D02*
X139705793Y-85270750D01*
X139705793Y-85270750D02*
X139705792Y-86971821D01*
X139705792Y-86971821D02*
X139407399Y-87270213D01*
X138594581Y-75844293D02*
X139299383Y-76549090D01*
X139299383Y-76549090D02*
X139299384Y-78167480D01*
X139299384Y-78167480D02*
X138990986Y-78475879D01*
X138594581Y-68232628D02*
X138594581Y-75844293D01*
X121723591Y-95968911D02*
X123249591Y-96849946D01*
X121608902Y-95540884D02*
X121723591Y-95968911D01*
X119924325Y-94568291D02*
X119924321Y-94568289D01*
X119924321Y-94568289D02*
X121608902Y-95540884D01*
X113691180Y-91849713D02*
X118883116Y-94847284D01*
X118883116Y-94847284D02*
X119924325Y-94568291D01*
X104920577Y-87097810D02*
X111704919Y-91014752D01*
X111704919Y-91014752D02*
X112481399Y-90806696D01*
X112481399Y-90806696D02*
X113581956Y-91442106D01*
X113581956Y-91442106D02*
X113691180Y-91849713D01*
X120188950Y-115291629D02*
X120404864Y-115166971D01*
X112746160Y-119854141D02*
X118162259Y-116727155D01*
X118162259Y-116727155D02*
X118355606Y-116005564D01*
X118355606Y-116005564D02*
X119781346Y-115182416D01*
X119781346Y-115182416D02*
X120188950Y-115291629D01*
X110791229Y-121375666D02*
X111070138Y-120334753D01*
X111070138Y-120334753D02*
X112169990Y-119699757D01*
X112169990Y-119699757D02*
X112746160Y-119854141D01*
X105154181Y-124630212D02*
X110791229Y-121375666D01*
X104628582Y-124943808D02*
X105150965Y-124642213D01*
X105150965Y-124642213D02*
X105154181Y-124630212D01*
X137032579Y-137574631D02*
X135921369Y-136463421D01*
X135921369Y-136463421D02*
X135921372Y-126681092D01*
X135921372Y-126681092D02*
X136219761Y-126382701D01*
X137032580Y-138082630D02*
X137032579Y-137574631D01*
X137032579Y-143791429D02*
X137032580Y-138082630D01*
X136994583Y-144432633D02*
X136994584Y-143829431D01*
X136994584Y-143829431D02*
X137032579Y-143791429D01*
G36*
X142493431Y-62951690D02*
X142493433Y-70191885D01*
X142522344Y-70337228D01*
X142604674Y-70460444D01*
X142727890Y-70542774D01*
X142873233Y-70571685D01*
X143018576Y-70542774D01*
X143141792Y-70460444D01*
X147953232Y-65649002D01*
X152496113Y-70191888D01*
X142604672Y-80083326D01*
X142604660Y-80083344D01*
X142604642Y-80083356D01*
X142565021Y-80142668D01*
X142522342Y-80206542D01*
X142522337Y-80206565D01*
X142522326Y-80206582D01*
X142508322Y-80277022D01*
X142493431Y-80351885D01*
X142493435Y-80351906D01*
X142493431Y-80351928D01*
X142494781Y-92261073D01*
X142504322Y-92309012D01*
X142507316Y-92357801D01*
X142518659Y-92381046D01*
X142523708Y-92406413D01*
X142550870Y-92447054D01*
X142572306Y-92490981D01*
X142591680Y-92508115D01*
X142606052Y-92529619D01*
X142646695Y-92556769D01*
X142683313Y-92589153D01*
X147737911Y-95535554D01*
X147785554Y-95551948D01*
X147830730Y-95574249D01*
X147855020Y-95575851D01*
X147878037Y-95583771D01*
X147928324Y-95580685D01*
X147978600Y-95584001D01*
X148001654Y-95576186D01*
X148025950Y-95574695D01*
X148071224Y-95552602D01*
X148118945Y-95536425D01*
X158461511Y-89570749D01*
X158461570Y-89570697D01*
X158461644Y-89570672D01*
X158516000Y-89523003D01*
X158572966Y-89473086D01*
X158573002Y-89473013D01*
X158573059Y-89472963D01*
X158605198Y-89407793D01*
X158638563Y-89340204D01*
X158638568Y-89340126D01*
X158638603Y-89340055D01*
X162259120Y-75828099D01*
X168464815Y-77490904D01*
X166703704Y-84063457D01*
X166694013Y-84211330D01*
X166741647Y-84351656D01*
X166839356Y-84463071D01*
X166972264Y-84528615D01*
X167120137Y-84538306D01*
X167260463Y-84490672D01*
X173530660Y-80870571D01*
X178230858Y-89011556D01*
X171960665Y-92631656D01*
X171849250Y-92729364D01*
X171783706Y-92862272D01*
X171774015Y-93010146D01*
X171821649Y-93150472D01*
X171919357Y-93261887D01*
X172052265Y-93327431D01*
X178624810Y-95088544D01*
X176962002Y-101294235D01*
X163450044Y-97673714D01*
X163450021Y-97673713D01*
X163450004Y-97673704D01*
X163377264Y-97668944D01*
X163302170Y-97664023D01*
X163302151Y-97664029D01*
X163302130Y-97664028D01*
X163230041Y-97688507D01*
X163161844Y-97711657D01*
X163161829Y-97711670D01*
X163161809Y-97711677D01*
X152717645Y-103743135D01*
X152681569Y-103774781D01*
X152641430Y-103801085D01*
X152626360Y-103823209D01*
X152606241Y-103840857D01*
X152585022Y-103883897D01*
X152558004Y-103923561D01*
X152552548Y-103949765D01*
X152540712Y-103973772D01*
X152537579Y-104021657D01*
X152527796Y-104068640D01*
X152476996Y-109758243D01*
X152486565Y-109808699D01*
X152489923Y-109859934D01*
X152500255Y-109880885D01*
X152504608Y-109903838D01*
X152532756Y-109946790D01*
X152555466Y-109992841D01*
X152573029Y-110008243D01*
X152585835Y-110027785D01*
X152628273Y-110056692D01*
X152666881Y-110090551D01*
X163162438Y-116150155D01*
X163302764Y-116197788D01*
X163450638Y-116188097D01*
X176962596Y-112567578D01*
X178625404Y-118773269D01*
X172052856Y-120534378D01*
X171919948Y-120599922D01*
X171822239Y-120711337D01*
X171774605Y-120851663D01*
X171784296Y-120999536D01*
X171837103Y-121106616D01*
X171849840Y-121132444D01*
X171961255Y-121230153D01*
X178231447Y-124850249D01*
X173531250Y-132991236D01*
X167261055Y-129371140D01*
X167120729Y-129323506D01*
X166972856Y-129333197D01*
X166839948Y-129398741D01*
X166742239Y-129510156D01*
X166694605Y-129650482D01*
X166704296Y-129798355D01*
X168465405Y-136370904D01*
X162259716Y-138033714D01*
X158639196Y-124521756D01*
X158639057Y-124521474D01*
X158639036Y-124521163D01*
X158606390Y-124455234D01*
X158573652Y-124388849D01*
X158573416Y-124388642D01*
X158573277Y-124388361D01*
X158517717Y-124339795D01*
X158462237Y-124291140D01*
X158461940Y-124291039D01*
X158461704Y-124290833D01*
X147864551Y-118195408D01*
X147818560Y-118179879D01*
X147775116Y-118158214D01*
X147748975Y-118156384D01*
X147724148Y-118148001D01*
X147675711Y-118151254D01*
X147627288Y-118147864D01*
X147602439Y-118156176D01*
X147576291Y-118157932D01*
X147532786Y-118179474D01*
X147486751Y-118194872D01*
X142686148Y-120938075D01*
X142648019Y-120971214D01*
X142606023Y-120999275D01*
X142592573Y-121019404D01*
X142574299Y-121035287D01*
X142551755Y-121080493D01*
X142523693Y-121122491D01*
X142518970Y-121146236D01*
X142508165Y-121167902D01*
X142504637Y-121218289D01*
X142494782Y-121267834D01*
X142494780Y-126710339D01*
X141069873Y-125285433D01*
X141041128Y-125266226D01*
X141027120Y-125256866D01*
X141096895Y-125088830D01*
X141097105Y-124848226D01*
X141005224Y-124625856D01*
X140898600Y-124519046D01*
X140898600Y-118238143D01*
X140922919Y-118115881D01*
X140922919Y-118025795D01*
X144828915Y-114119799D01*
X147802486Y-114119799D01*
X147894367Y-114342169D01*
X148064352Y-114512451D01*
X148239935Y-114585359D01*
X148237375Y-114587915D01*
X148145106Y-114810124D01*
X148144896Y-115050728D01*
X148236777Y-115273098D01*
X148406762Y-115443380D01*
X148594228Y-115521222D01*
X148542470Y-115645869D01*
X148542260Y-115886473D01*
X148634141Y-116108843D01*
X148804126Y-116279125D01*
X149026335Y-116371394D01*
X149266939Y-116371604D01*
X149489309Y-116279723D01*
X149537097Y-116232018D01*
X150523361Y-116801438D01*
X150523362Y-116801439D01*
X152889258Y-118167391D01*
X152954908Y-118412397D01*
X153025040Y-118554613D01*
X153144260Y-118659166D01*
X155232881Y-119865034D01*
X155383035Y-119916005D01*
X155541265Y-119905633D01*
X156171096Y-119736870D01*
X161145021Y-122608569D01*
X161224526Y-122905284D01*
X161294659Y-123047502D01*
X161350817Y-123096750D01*
X161413878Y-123152053D01*
X162767210Y-123933399D01*
X162879311Y-123971452D01*
X162917364Y-123984370D01*
X162917365Y-123984370D01*
X163075594Y-123973998D01*
X163798590Y-123780272D01*
X169088874Y-126834620D01*
X169052962Y-126936919D01*
X169058904Y-127060138D01*
X169112316Y-127171337D01*
X169204782Y-127252995D01*
X169897602Y-127652995D01*
X170006048Y-127691065D01*
X170129267Y-127685123D01*
X170240466Y-127631711D01*
X170322124Y-127539245D01*
X170722124Y-126846425D01*
X170760194Y-126737979D01*
X170754252Y-126614760D01*
X170700840Y-126503561D01*
X170608374Y-126421903D01*
X169915554Y-126021903D01*
X169807108Y-125983833D01*
X169683889Y-125989775D01*
X169572690Y-126043187D01*
X169495353Y-126130761D01*
X164059207Y-122992198D01*
X163909053Y-122941227D01*
X163750822Y-122951599D01*
X163027827Y-123145325D01*
X163006930Y-123133260D01*
X163356130Y-122528429D01*
X163394200Y-122419983D01*
X163388258Y-122296764D01*
X163334846Y-122185565D01*
X163242380Y-122103907D01*
X162549560Y-121703907D01*
X162441114Y-121665837D01*
X162317895Y-121671779D01*
X162206696Y-121725191D01*
X162154925Y-121783815D01*
X156709100Y-118639664D01*
X156709101Y-118639664D01*
X156489133Y-118512665D01*
X156489132Y-118512664D01*
X156338978Y-118461692D01*
X156254678Y-118467218D01*
X156180749Y-118472063D01*
X156180746Y-118472065D01*
X155550918Y-118640825D01*
X155532926Y-118630437D01*
X155882125Y-118025607D01*
X155920195Y-117917161D01*
X155914253Y-117793942D01*
X155860841Y-117682743D01*
X155768375Y-117601085D01*
X155075555Y-117201085D01*
X154967109Y-117163015D01*
X154843890Y-117168957D01*
X154732691Y-117222369D01*
X154655355Y-117309941D01*
X150724254Y-115040319D01*
X150724252Y-115040318D01*
X150210126Y-114743485D01*
X150199198Y-114702702D01*
X150187461Y-114678901D01*
X150129066Y-114560485D01*
X150009846Y-114455933D01*
X149012158Y-113879917D01*
X148920415Y-113657881D01*
X148750430Y-113487599D01*
X148528221Y-113395330D01*
X148287617Y-113395120D01*
X148065247Y-113487001D01*
X147894965Y-113656986D01*
X147802696Y-113879195D01*
X147802486Y-114119799D01*
X144828915Y-114119799D01*
X146069531Y-112879183D01*
X148517038Y-112879183D01*
X148545611Y-112873500D01*
X155048876Y-116628161D01*
X155012963Y-116730461D01*
X155018905Y-116853680D01*
X155072317Y-116964879D01*
X155164783Y-117046537D01*
X155857603Y-117446537D01*
X155966049Y-117484607D01*
X156089268Y-117478665D01*
X156200467Y-117425253D01*
X156268860Y-117347807D01*
X162528424Y-121118973D01*
X162525038Y-121124837D01*
X162486968Y-121233283D01*
X162492910Y-121356502D01*
X162546322Y-121467701D01*
X162638788Y-121549359D01*
X163331608Y-121949359D01*
X163440054Y-121987429D01*
X163563273Y-121981487D01*
X163674472Y-121928075D01*
X163748634Y-121844097D01*
X169890456Y-125444473D01*
X169852962Y-125551279D01*
X169858904Y-125674498D01*
X169912316Y-125785697D01*
X170004782Y-125867355D01*
X170697602Y-126267355D01*
X170806048Y-126305425D01*
X170929267Y-126299483D01*
X171040466Y-126246071D01*
X171122124Y-126153605D01*
X171522124Y-125460785D01*
X171560194Y-125352339D01*
X171554252Y-125229120D01*
X171500840Y-125117921D01*
X171408374Y-125036263D01*
X170715554Y-124636263D01*
X170607108Y-124598193D01*
X170483889Y-124604135D01*
X170372690Y-124657547D01*
X170298527Y-124741526D01*
X164156705Y-121141150D01*
X164194200Y-121034343D01*
X164188258Y-120911124D01*
X164134846Y-120799925D01*
X164042380Y-120718267D01*
X163349560Y-120318267D01*
X163241114Y-120280197D01*
X163117895Y-120286139D01*
X163006696Y-120339551D01*
X162938301Y-120416998D01*
X156678739Y-116645833D01*
X156682125Y-116639967D01*
X156720195Y-116531521D01*
X156714253Y-116408302D01*
X156660841Y-116297103D01*
X156568375Y-116215445D01*
X155875555Y-115815445D01*
X155767109Y-115777375D01*
X155643890Y-115783317D01*
X155532691Y-115836729D01*
X155455355Y-115924301D01*
X150562603Y-113099469D01*
X150628170Y-113126695D01*
X150868774Y-113126905D01*
X151091144Y-113035024D01*
X151261426Y-112865039D01*
X151353695Y-112642830D01*
X151353905Y-112402226D01*
X151262024Y-112179856D01*
X151092039Y-112009574D01*
X150869830Y-111917305D01*
X150629226Y-111917095D01*
X150406856Y-112008976D01*
X150300046Y-112115600D01*
X149757258Y-112115600D01*
X149177696Y-111536038D01*
X149177827Y-111386226D01*
X149085946Y-111163856D01*
X148915961Y-110993574D01*
X148693752Y-110901305D01*
X148453148Y-110901095D01*
X148230778Y-110992976D01*
X148060496Y-111162961D01*
X147968227Y-111385170D01*
X147968017Y-111625774D01*
X148059898Y-111848144D01*
X148229883Y-112018426D01*
X148345377Y-112066383D01*
X145901195Y-112066383D01*
X145745672Y-112097318D01*
X145663846Y-112151993D01*
X145613827Y-112185415D01*
X140492190Y-117307052D01*
X140492190Y-111040652D01*
X141273828Y-110259014D01*
X141361925Y-110127169D01*
X141392860Y-109971646D01*
X141392860Y-109213597D01*
X141361925Y-109058074D01*
X141273828Y-108926229D01*
X140544373Y-108196774D01*
X147968017Y-108196774D01*
X148059898Y-108419144D01*
X148229883Y-108589426D01*
X148452092Y-108681695D01*
X148692696Y-108681905D01*
X148915066Y-108590024D01*
X149021876Y-108483400D01*
X149411120Y-108483400D01*
X149516961Y-108589426D01*
X149739170Y-108681695D01*
X149979774Y-108681905D01*
X150202144Y-108590024D01*
X150372426Y-108420039D01*
X150464695Y-108197830D01*
X150464905Y-107957226D01*
X150373024Y-107734856D01*
X150203039Y-107564574D01*
X149980830Y-107472305D01*
X149740226Y-107472095D01*
X149517856Y-107563976D01*
X149411046Y-107670600D01*
X149021802Y-107670600D01*
X148915961Y-107564574D01*
X148693752Y-107472305D01*
X148453148Y-107472095D01*
X148230778Y-107563976D01*
X148060496Y-107733961D01*
X147968227Y-107956170D01*
X147968017Y-108196774D01*
X140544373Y-108196774D01*
X140218232Y-107870633D01*
X140191985Y-107853095D01*
X140086387Y-107782536D01*
X139930864Y-107751601D01*
X139618999Y-107751601D01*
X139463476Y-107782536D01*
X139357878Y-107853095D01*
X139357671Y-107853233D01*
X139199226Y-107853095D01*
X138976856Y-107944976D01*
X138806574Y-108114961D01*
X138714305Y-108337170D01*
X138714095Y-108577774D01*
X138805976Y-108800144D01*
X138975961Y-108970426D01*
X139198170Y-109062695D01*
X139303522Y-109062787D01*
X133316632Y-115049677D01*
X133228535Y-115181522D01*
X133197600Y-115337045D01*
X133197600Y-132953442D01*
X133228535Y-133108965D01*
X133243145Y-133130830D01*
X133316632Y-133240810D01*
X134711795Y-134635973D01*
X134711664Y-134785785D01*
X134803545Y-135008155D01*
X134973530Y-135178437D01*
X135195739Y-135270706D01*
X135436343Y-135270916D01*
X135514969Y-135238428D01*
X135514969Y-136463421D01*
X135545904Y-136618944D01*
X135634001Y-136750789D01*
X136626179Y-137742967D01*
X136626180Y-138082629D01*
X136626180Y-138082630D01*
X136626179Y-143663341D01*
X136619119Y-143673907D01*
X136619115Y-143673926D01*
X136619104Y-143673943D01*
X136609577Y-143721863D01*
X136594581Y-143721863D01*
X136481629Y-143743116D01*
X136377889Y-143809871D01*
X136308294Y-143911727D01*
X136283810Y-144032634D01*
X136283810Y-144495769D01*
X132623928Y-140835887D01*
X132684695Y-140689544D01*
X132684905Y-140448940D01*
X132593024Y-140226570D01*
X132423039Y-140056288D01*
X132200830Y-139964019D01*
X131960226Y-139963809D01*
X131737856Y-140055690D01*
X131567574Y-140225675D01*
X131475305Y-140447884D01*
X131475095Y-140688488D01*
X131566976Y-140910858D01*
X131736961Y-141081140D01*
X131746573Y-141085131D01*
X131792632Y-141154063D01*
X136063372Y-145424803D01*
X136195217Y-145512900D01*
X136350740Y-145543835D01*
X139238422Y-145543835D01*
X139393945Y-145512900D01*
X139525790Y-145424803D01*
X141944054Y-143006539D01*
X142032151Y-142874694D01*
X142063086Y-142719171D01*
X142063086Y-140055512D01*
X142169112Y-139949671D01*
X142261381Y-139727462D01*
X142261591Y-139486858D01*
X142169710Y-139264488D01*
X141999725Y-139094206D01*
X141777516Y-139001937D01*
X141626595Y-139001805D01*
X140868400Y-138243610D01*
X140868400Y-131766880D01*
X140974426Y-131661039D01*
X141066695Y-131438830D01*
X141066905Y-131198226D01*
X140975024Y-130975856D01*
X140805039Y-130805574D01*
X140582830Y-130713305D01*
X140342226Y-130713095D01*
X140119856Y-130804976D01*
X139949574Y-130974961D01*
X139857305Y-131197170D01*
X139857095Y-131437774D01*
X139948976Y-131660144D01*
X140055600Y-131766954D01*
X140055600Y-138411946D01*
X140086535Y-138567469D01*
X140106383Y-138597173D01*
X140174632Y-138699314D01*
X141051912Y-139576594D01*
X141051781Y-139726406D01*
X141143662Y-139948776D01*
X141250286Y-140055586D01*
X141250286Y-142550835D01*
X139305352Y-144495769D01*
X139305352Y-144032634D01*
X139284099Y-143919682D01*
X139217344Y-143815942D01*
X139115488Y-143746347D01*
X139004199Y-143723811D01*
X139035763Y-136760803D01*
X139145533Y-136740149D01*
X139249273Y-136673394D01*
X139318868Y-136571538D01*
X139343352Y-136450631D01*
X139343352Y-135650631D01*
X139322099Y-135537679D01*
X139255344Y-135433939D01*
X139153488Y-135364344D01*
X139038978Y-135341155D01*
X139038980Y-128124197D01*
X139145534Y-128104148D01*
X139178787Y-128082750D01*
X139260161Y-128164267D01*
X139465275Y-128249438D01*
X139465122Y-128425225D01*
X139557003Y-128647595D01*
X139726988Y-128817877D01*
X139949197Y-128910146D01*
X140189801Y-128910356D01*
X140412171Y-128818475D01*
X140518981Y-128711851D01*
X141926455Y-128711851D01*
X142081978Y-128680916D01*
X142213823Y-128592819D01*
X142494779Y-128311863D01*
X142494777Y-133510630D01*
X142523688Y-133655973D01*
X142606018Y-133779189D01*
X152497461Y-143670630D01*
X147954583Y-148213514D01*
X143143137Y-143402068D01*
X143019921Y-143319738D01*
X142874578Y-143290827D01*
X142729235Y-143319738D01*
X142606019Y-143402068D01*
X142523689Y-143525284D01*
X142494778Y-143670627D01*
X142494779Y-150910829D01*
X133094378Y-150910830D01*
X133094379Y-149004630D01*
X136906778Y-149004630D01*
X136974358Y-149344376D01*
X137166809Y-149632399D01*
X137454832Y-149824850D01*
X137794578Y-149892430D01*
X138134324Y-149824850D01*
X138422347Y-149632399D01*
X138614798Y-149344376D01*
X138682378Y-149004630D01*
X138614798Y-148664884D01*
X138422347Y-148376861D01*
X138134324Y-148184410D01*
X137794578Y-148116830D01*
X137454832Y-148184410D01*
X137166809Y-148376861D01*
X136974358Y-148664884D01*
X136906778Y-149004630D01*
X133094379Y-149004630D01*
X133094382Y-143670627D01*
X133065471Y-143525284D01*
X132983141Y-143402068D01*
X132859925Y-143319738D01*
X132714582Y-143290827D01*
X132569239Y-143319738D01*
X132446023Y-143402068D01*
X127634581Y-148213512D01*
X123091697Y-143670631D01*
X132983139Y-133779192D01*
X133065469Y-133655976D01*
X133094380Y-133510633D01*
X133094382Y-121242430D01*
X133084527Y-121192885D01*
X133080999Y-121142498D01*
X133070194Y-121120832D01*
X133065471Y-121097087D01*
X133037409Y-121055089D01*
X133014865Y-121009883D01*
X132996591Y-120994001D01*
X132983141Y-120973871D01*
X132941142Y-120945808D01*
X132903015Y-120912671D01*
X128102412Y-118169473D01*
X128056075Y-118153974D01*
X128012259Y-118132369D01*
X127986426Y-118130677D01*
X127961875Y-118122465D01*
X127913139Y-118125877D01*
X127864385Y-118122684D01*
X127839871Y-118131007D01*
X127814047Y-118132815D01*
X127770326Y-118154619D01*
X127724061Y-118170326D01*
X117125648Y-124290073D01*
X117076007Y-124333612D01*
X117014250Y-124387772D01*
X117014245Y-124387782D01*
X117014238Y-124387788D01*
X116988979Y-124439015D01*
X116948706Y-124520680D01*
X113328189Y-138032643D01*
X107122497Y-136369834D01*
X108883607Y-129797281D01*
X108893298Y-129649408D01*
X108845664Y-129509082D01*
X108747955Y-129397667D01*
X108615048Y-129332123D01*
X108467174Y-129322431D01*
X108326848Y-129370066D01*
X102056650Y-132990168D01*
X98148749Y-126221474D01*
X104573784Y-126221474D01*
X104613033Y-126338425D01*
X105013033Y-127031245D01*
X105087915Y-127118437D01*
X105197596Y-127174901D01*
X105320604Y-127184244D01*
X105437555Y-127144995D01*
X106130375Y-126744995D01*
X106217567Y-126670113D01*
X106274031Y-126560432D01*
X106283374Y-126437424D01*
X106247743Y-126331254D01*
X112488141Y-122783714D01*
X112561917Y-122869618D01*
X112671598Y-122926082D01*
X112794606Y-122935425D01*
X112911557Y-122896176D01*
X113604377Y-122496176D01*
X113691569Y-122421294D01*
X113748033Y-122311613D01*
X113757376Y-122188605D01*
X113724958Y-122092008D01*
X119994961Y-118642187D01*
X119999038Y-118649248D01*
X120073920Y-118736440D01*
X120183601Y-118792904D01*
X120306609Y-118802247D01*
X120423560Y-118762998D01*
X121116380Y-118362998D01*
X121203572Y-118288116D01*
X121260036Y-118178435D01*
X121269379Y-118055427D01*
X121232208Y-117944667D01*
X127399066Y-114384228D01*
X129655892Y-114384228D01*
X129747773Y-114606598D01*
X129917758Y-114776880D01*
X130139967Y-114869149D01*
X130380571Y-114869359D01*
X130602941Y-114777478D01*
X130662353Y-114718170D01*
X130720961Y-114776880D01*
X130943170Y-114869149D01*
X131183774Y-114869359D01*
X131406144Y-114777478D01*
X131518279Y-114665538D01*
X131637460Y-114784927D01*
X131859669Y-114877196D01*
X132100273Y-114877406D01*
X132322643Y-114785525D01*
X132492925Y-114615540D01*
X132585194Y-114393331D01*
X132585404Y-114152727D01*
X132493523Y-113930357D01*
X132386899Y-113823547D01*
X132386899Y-113460112D01*
X132449227Y-113397893D01*
X132541496Y-113175684D01*
X132541706Y-112935080D01*
X132449825Y-112712710D01*
X132398838Y-112661634D01*
X132483636Y-112576984D01*
X132575905Y-112354775D01*
X132576115Y-112114171D01*
X132484234Y-111891801D01*
X132314249Y-111721519D01*
X132207565Y-111677220D01*
X132243138Y-111641647D01*
X132455180Y-111729695D01*
X132695784Y-111729905D01*
X132918154Y-111638024D01*
X133088436Y-111468039D01*
X133180705Y-111245830D01*
X133180915Y-111005226D01*
X133089034Y-110782856D01*
X132919049Y-110612574D01*
X132696840Y-110520305D01*
X132456236Y-110520095D01*
X132233866Y-110611976D01*
X132112625Y-110733006D01*
X132029526Y-110749535D01*
X131897681Y-110837632D01*
X129973429Y-112761884D01*
X129885332Y-112893729D01*
X129854397Y-113049252D01*
X129854397Y-113815574D01*
X129748371Y-113921415D01*
X129656102Y-114143624D01*
X129655892Y-114384228D01*
X127399066Y-114384228D01*
X127614695Y-114259735D01*
X127625806Y-114264349D01*
X127866410Y-114264559D01*
X128088780Y-114172678D01*
X128259062Y-114002693D01*
X128351331Y-113780484D01*
X128351541Y-113539880D01*
X128259660Y-113317510D01*
X128089675Y-113147228D01*
X127867466Y-113054959D01*
X127626862Y-113054749D01*
X127404492Y-113146630D01*
X127234210Y-113316615D01*
X127141941Y-113538824D01*
X127141893Y-113594167D01*
X120825887Y-117240715D01*
X120755248Y-117158464D01*
X120645567Y-117102000D01*
X120522559Y-117092657D01*
X120405608Y-117131906D01*
X119712788Y-117531906D01*
X119625596Y-117606788D01*
X119569132Y-117716469D01*
X119559789Y-117839477D01*
X119592209Y-117936078D01*
X113322206Y-121385899D01*
X113318127Y-121378834D01*
X113243245Y-121291642D01*
X113133564Y-121235178D01*
X113010556Y-121225835D01*
X112893605Y-121265084D01*
X112200785Y-121665084D01*
X112113593Y-121739966D01*
X112057129Y-121849647D01*
X112047786Y-121972655D01*
X112083420Y-122078833D01*
X105843025Y-125626372D01*
X105769243Y-125540461D01*
X105659562Y-125483997D01*
X105536554Y-125474654D01*
X105419603Y-125513903D01*
X104726783Y-125913903D01*
X104639591Y-125988785D01*
X104583127Y-126098466D01*
X104573784Y-126221474D01*
X98148749Y-126221474D01*
X97356454Y-124849178D01*
X97379566Y-124835834D01*
X103773784Y-124835834D01*
X103813033Y-124952785D01*
X104213033Y-125645605D01*
X104287915Y-125732797D01*
X104397596Y-125789261D01*
X104520604Y-125798604D01*
X104637555Y-125759355D01*
X105330375Y-125359355D01*
X105417567Y-125284473D01*
X105474031Y-125174792D01*
X105483374Y-125051784D01*
X105444125Y-124934833D01*
X105442934Y-124932771D01*
X110994429Y-121727619D01*
X111113648Y-121623067D01*
X111113649Y-121623066D01*
X111183782Y-121480849D01*
X111358690Y-120828076D01*
X111687035Y-121396786D01*
X111761917Y-121483978D01*
X111871598Y-121540442D01*
X111994606Y-121549785D01*
X112111557Y-121510536D01*
X112804377Y-121110536D01*
X112891569Y-121035654D01*
X112948033Y-120925973D01*
X112957376Y-120802965D01*
X112920205Y-120692206D01*
X118714447Y-117346898D01*
X118833667Y-117242346D01*
X118903799Y-117100129D01*
X118967467Y-116862516D01*
X119199038Y-117263608D01*
X119273920Y-117350800D01*
X119383601Y-117407264D01*
X119506609Y-117416607D01*
X119623560Y-117377358D01*
X120316380Y-116977358D01*
X120403572Y-116902476D01*
X120460036Y-116792795D01*
X120469379Y-116669787D01*
X120432207Y-116559025D01*
X121884623Y-115720475D01*
X125025469Y-113907104D01*
X125030479Y-113908446D01*
X125116794Y-113914102D01*
X125188704Y-113918816D01*
X125188707Y-113918815D01*
X125188710Y-113918815D01*
X125255251Y-113896226D01*
X125338858Y-113867845D01*
X126179477Y-113382512D01*
X126280764Y-113424570D01*
X126521368Y-113424780D01*
X126743738Y-113332899D01*
X126914020Y-113162914D01*
X127006289Y-112940705D01*
X127006499Y-112700101D01*
X126914618Y-112477731D01*
X126744633Y-112307449D01*
X126522424Y-112215180D01*
X126281820Y-112214970D01*
X126059450Y-112306851D01*
X125972334Y-112393815D01*
X125937209Y-112308806D01*
X125767224Y-112138524D01*
X125545015Y-112046255D01*
X125304411Y-112046045D01*
X125082041Y-112137926D01*
X125000503Y-112219322D01*
X124842759Y-112061303D01*
X124620550Y-111969034D01*
X124379946Y-111968824D01*
X124157576Y-112060705D01*
X123987294Y-112230690D01*
X123895025Y-112452899D01*
X123894824Y-112682777D01*
X123650270Y-112823970D01*
X120201664Y-114815018D01*
X120131531Y-114855509D01*
X119886533Y-114789865D01*
X119886531Y-114789864D01*
X119886529Y-114789864D01*
X119886526Y-114789863D01*
X119833341Y-114786377D01*
X119728301Y-114779492D01*
X119728298Y-114779493D01*
X119650130Y-114806028D01*
X119578147Y-114830463D01*
X119578144Y-114830465D01*
X119578143Y-114830465D01*
X119578142Y-114830466D01*
X118152407Y-115653611D01*
X118152406Y-115653612D01*
X118152405Y-115653612D01*
X118033186Y-115758164D01*
X118004939Y-115815445D01*
X117972709Y-115880802D01*
X117963053Y-115900382D01*
X117813274Y-116459371D01*
X112688743Y-119418020D01*
X112275176Y-119307206D01*
X112275175Y-119307205D01*
X112116946Y-119296833D01*
X112040837Y-119322668D01*
X111966791Y-119347804D01*
X110866939Y-119982800D01*
X110866938Y-119982801D01*
X110866937Y-119982801D01*
X110747718Y-120087352D01*
X110725922Y-120131552D01*
X110677586Y-120229568D01*
X110677586Y-120229570D01*
X110442245Y-121107881D01*
X105034060Y-124230293D01*
X104969243Y-124154821D01*
X104859562Y-124098357D01*
X104736554Y-124089014D01*
X104619603Y-124128263D01*
X103926783Y-124528263D01*
X103839591Y-124603145D01*
X103783127Y-124712826D01*
X103773784Y-124835834D01*
X97379566Y-124835834D01*
X103626648Y-121229078D01*
X103738063Y-121131368D01*
X103803606Y-120998460D01*
X103813298Y-120850587D01*
X103765664Y-120710261D01*
X103720034Y-120658230D01*
X103667955Y-120598845D01*
X103535047Y-120533302D01*
X96962495Y-118772197D01*
X98625306Y-112566503D01*
X112137270Y-116187022D01*
X112209843Y-116191778D01*
X112285094Y-116196720D01*
X112285119Y-116196711D01*
X112285143Y-116196713D01*
X112351439Y-116174209D01*
X112425427Y-116149104D01*
X122922236Y-110090574D01*
X122960862Y-110056709D01*
X123003325Y-110027784D01*
X123016119Y-110008262D01*
X123033664Y-109992879D01*
X123056390Y-109946811D01*
X123084552Y-109903838D01*
X123088900Y-109880909D01*
X123099225Y-109859980D01*
X123102591Y-109808720D01*
X123112164Y-109758242D01*
X123083482Y-106545774D01*
X147968017Y-106545774D01*
X148059898Y-106768144D01*
X148229883Y-106938426D01*
X148452092Y-107030695D01*
X148692696Y-107030905D01*
X148915066Y-106939024D01*
X149021876Y-106832400D01*
X149740052Y-106832400D01*
X149845893Y-106938426D01*
X150068102Y-107030695D01*
X150308706Y-107030905D01*
X150531076Y-106939024D01*
X150701358Y-106769039D01*
X150793627Y-106546830D01*
X150793837Y-106306226D01*
X150701956Y-106083856D01*
X150531971Y-105913574D01*
X150309762Y-105821305D01*
X150069158Y-105821095D01*
X149846788Y-105912976D01*
X149739978Y-106019600D01*
X149021802Y-106019600D01*
X148915961Y-105913574D01*
X148693752Y-105821305D01*
X148453148Y-105821095D01*
X148230778Y-105912976D01*
X148060496Y-106082961D01*
X147968227Y-106305170D01*
X147968017Y-106545774D01*
X123083482Y-106545774D01*
X123061364Y-104068638D01*
X123051581Y-104021653D01*
X123048448Y-103973769D01*
X123036612Y-103949761D01*
X123031156Y-103923559D01*
X123004140Y-103883897D01*
X122982919Y-103840854D01*
X122962799Y-103823205D01*
X122947730Y-103801083D01*
X122907593Y-103774780D01*
X122871515Y-103743133D01*
X112426258Y-97711040D01*
X112426236Y-97711033D01*
X112426222Y-97711020D01*
X112360879Y-97688839D01*
X112285937Y-97663391D01*
X112285915Y-97663392D01*
X112285896Y-97663386D01*
X112210157Y-97668350D01*
X112138063Y-97673067D01*
X112138046Y-97673075D01*
X112138022Y-97673077D01*
X98626059Y-101293595D01*
X96963250Y-95087902D01*
X103535802Y-93326798D01*
X103668710Y-93261254D01*
X103766420Y-93149839D01*
X103814053Y-93009513D01*
X103804362Y-92861640D01*
X103738818Y-92728732D01*
X103627403Y-92631023D01*
X97357205Y-89010920D01*
X97604311Y-88582919D01*
X103266964Y-88582919D01*
X103272906Y-88706138D01*
X103326318Y-88817337D01*
X103418784Y-88898995D01*
X104111604Y-89298995D01*
X104220050Y-89337065D01*
X104343269Y-89331123D01*
X104454468Y-89277711D01*
X104524571Y-89198330D01*
X111073172Y-93111956D01*
X111071037Y-93115654D01*
X111032967Y-93224100D01*
X111038909Y-93347319D01*
X111092321Y-93458518D01*
X111184787Y-93540176D01*
X111877607Y-93940176D01*
X111986053Y-93978246D01*
X112109272Y-93972304D01*
X112220471Y-93918892D01*
X112301006Y-93827698D01*
X118541280Y-97375172D01*
X118506965Y-97472922D01*
X118512907Y-97596141D01*
X118566319Y-97707340D01*
X118658785Y-97788998D01*
X119351605Y-98188998D01*
X119460051Y-98227068D01*
X119583270Y-98221126D01*
X119694469Y-98167714D01*
X119771805Y-98080143D01*
X126511835Y-101971501D01*
X126616599Y-102007064D01*
X126663357Y-102053904D01*
X126885566Y-102146173D01*
X127126170Y-102146383D01*
X127348540Y-102054502D01*
X127518822Y-101884517D01*
X127611091Y-101662308D01*
X127611301Y-101421704D01*
X127601658Y-101398364D01*
X148572817Y-101398364D01*
X148664698Y-101620734D01*
X148834683Y-101791016D01*
X149056892Y-101883285D01*
X149297496Y-101883495D01*
X149519866Y-101791614D01*
X149606984Y-101704648D01*
X149642110Y-101789659D01*
X149812095Y-101959941D01*
X150034304Y-102052210D01*
X150274908Y-102052420D01*
X150497278Y-101960539D01*
X150579623Y-101878338D01*
X150595817Y-101917530D01*
X150765802Y-102087812D01*
X150988011Y-102180081D01*
X151228615Y-102180291D01*
X151450985Y-102088410D01*
X151621267Y-101918425D01*
X151713536Y-101696216D01*
X151713737Y-101466337D01*
X152541712Y-100988305D01*
X155681688Y-99175439D01*
X155833939Y-99216235D01*
X155833940Y-99216235D01*
X155833942Y-99216236D01*
X155961053Y-99224568D01*
X155992169Y-99226608D01*
X155992172Y-99226608D01*
X156142326Y-99175637D01*
X157970404Y-98120196D01*
X158089623Y-98015644D01*
X158159756Y-97873427D01*
X158394842Y-96996072D01*
X162933332Y-94375776D01*
X163426411Y-94507893D01*
X163426412Y-94507894D01*
X163584641Y-94518266D01*
X163734796Y-94467295D01*
X164736928Y-93888715D01*
X164856147Y-93784163D01*
X164926280Y-93641946D01*
X164926280Y-93641945D01*
X165295892Y-92262525D01*
X171057280Y-88936189D01*
X171127920Y-89018442D01*
X171237601Y-89074906D01*
X171360609Y-89084249D01*
X171477560Y-89045000D01*
X172170380Y-88645000D01*
X172257572Y-88570118D01*
X172314036Y-88460437D01*
X172323379Y-88337429D01*
X172284130Y-88220478D01*
X171884130Y-87527658D01*
X171809248Y-87440466D01*
X171699567Y-87384002D01*
X171576559Y-87374659D01*
X171459608Y-87413908D01*
X170766788Y-87813908D01*
X170679596Y-87888790D01*
X170623132Y-87998471D01*
X170613789Y-88121479D01*
X170650960Y-88232237D01*
X164743709Y-91642787D01*
X164624490Y-91747339D01*
X164556758Y-91884689D01*
X164554357Y-91889557D01*
X164296908Y-92850375D01*
X163964326Y-92274326D01*
X163889444Y-92187134D01*
X163779763Y-92130670D01*
X163656755Y-92121327D01*
X163539804Y-92160576D01*
X162846984Y-92560576D01*
X162759792Y-92635458D01*
X162703328Y-92745139D01*
X162693985Y-92868147D01*
X162733234Y-92985098D01*
X162775834Y-93058883D01*
X157493666Y-96108544D01*
X157374447Y-96213096D01*
X157374446Y-96213097D01*
X157304313Y-96355314D01*
X157069229Y-97232668D01*
X156993326Y-97276490D01*
X156644125Y-96671656D01*
X156569243Y-96584464D01*
X156459562Y-96528000D01*
X156336554Y-96518657D01*
X156219603Y-96557906D01*
X155526783Y-96957906D01*
X155439591Y-97032788D01*
X155383127Y-97142469D01*
X155373784Y-97265477D01*
X155410956Y-97376239D01*
X155180199Y-97509466D01*
X155060980Y-97614017D01*
X155031551Y-97673693D01*
X150787958Y-100123732D01*
X150703057Y-100100983D01*
X150631474Y-100096292D01*
X150544828Y-100090612D01*
X150394674Y-100141583D01*
X149399838Y-100715953D01*
X149298552Y-100673895D01*
X149057948Y-100673685D01*
X148835578Y-100765566D01*
X148665296Y-100935551D01*
X148573027Y-101157760D01*
X148572817Y-101398364D01*
X127601658Y-101398364D01*
X127519420Y-101199334D01*
X127349435Y-101029052D01*
X127127226Y-100936783D01*
X126886622Y-100936573D01*
X126664252Y-101028454D01*
X126605542Y-101087062D01*
X120178284Y-97376283D01*
X120214197Y-97273982D01*
X120208255Y-97150763D01*
X120154843Y-97039564D01*
X120062377Y-96957906D01*
X119369557Y-96557906D01*
X119261111Y-96519836D01*
X119137892Y-96525778D01*
X119026693Y-96579190D01*
X118946160Y-96670382D01*
X112705885Y-93122907D01*
X112740199Y-93025160D01*
X112734257Y-92901941D01*
X112680845Y-92790742D01*
X112588379Y-92709084D01*
X111895559Y-92309084D01*
X111787113Y-92271014D01*
X111663894Y-92276956D01*
X111552695Y-92330368D01*
X111482593Y-92409748D01*
X104933992Y-88496122D01*
X104936126Y-88492425D01*
X104974196Y-88383979D01*
X104968254Y-88260760D01*
X104914842Y-88149561D01*
X104822376Y-88067903D01*
X104129556Y-87667903D01*
X104021110Y-87629833D01*
X103897891Y-87635775D01*
X103786692Y-87689187D01*
X103705034Y-87781653D01*
X103305034Y-88474473D01*
X103266964Y-88582919D01*
X97604311Y-88582919D01*
X98404310Y-87197279D01*
X104066964Y-87197279D01*
X104072906Y-87320498D01*
X104126318Y-87431697D01*
X104218784Y-87513355D01*
X104911604Y-87913355D01*
X105020050Y-87951425D01*
X105143269Y-87945483D01*
X105254468Y-87892071D01*
X105331802Y-87804501D01*
X111501719Y-91366705D01*
X111591154Y-91397064D01*
X111651872Y-91417676D01*
X111651874Y-91417676D01*
X111810103Y-91407304D01*
X111810104Y-91407303D01*
X112102604Y-91328929D01*
X111871037Y-91730014D01*
X111832967Y-91838460D01*
X111838909Y-91961679D01*
X111892321Y-92072878D01*
X111984787Y-92154536D01*
X112677607Y-92554536D01*
X112786053Y-92592606D01*
X112909272Y-92586664D01*
X113020471Y-92533252D01*
X113097808Y-92445679D01*
X118622498Y-95635361D01*
X118772652Y-95686332D01*
X118862137Y-95680466D01*
X118930880Y-95675961D01*
X119627696Y-95489253D01*
X119345035Y-95978836D01*
X119306965Y-96087282D01*
X119312907Y-96210501D01*
X119366319Y-96321700D01*
X119458785Y-96403358D01*
X120151605Y-96803358D01*
X120260051Y-96841428D01*
X120383270Y-96835486D01*
X120494469Y-96782074D01*
X120561711Y-96705932D01*
X122639977Y-97905820D01*
X125146690Y-99353074D01*
X125205013Y-99471342D01*
X125324231Y-99575894D01*
X125324232Y-99575894D01*
X125324233Y-99575895D01*
X126523719Y-100268419D01*
X126554807Y-100343657D01*
X126724792Y-100513939D01*
X126947001Y-100606208D01*
X127187605Y-100606418D01*
X127382849Y-100525745D01*
X147290818Y-100525745D01*
X147382699Y-100748115D01*
X147552684Y-100918397D01*
X147774893Y-101010666D01*
X148015497Y-101010876D01*
X148237867Y-100918995D01*
X148408149Y-100749010D01*
X148500418Y-100526801D01*
X148500479Y-100457023D01*
X155017276Y-96694548D01*
X155087915Y-96776800D01*
X155197596Y-96833264D01*
X155320604Y-96842607D01*
X155437555Y-96803358D01*
X156130375Y-96403358D01*
X156217567Y-96328476D01*
X156274031Y-96218795D01*
X156283374Y-96095787D01*
X156244680Y-95980489D01*
X162401245Y-92371470D01*
X162408116Y-92379470D01*
X162517797Y-92435934D01*
X162640805Y-92445277D01*
X162757756Y-92406028D01*
X163450576Y-92006028D01*
X163537768Y-91931146D01*
X163594232Y-91821465D01*
X163603575Y-91698457D01*
X163566403Y-91587695D01*
X170374740Y-87656905D01*
X170437601Y-87689266D01*
X170560609Y-87698609D01*
X170677560Y-87659360D01*
X171370380Y-87259360D01*
X171457572Y-87184478D01*
X171514036Y-87074797D01*
X171523379Y-86951789D01*
X171484130Y-86834838D01*
X171084130Y-86142018D01*
X171009248Y-86054826D01*
X170899567Y-85998362D01*
X170776559Y-85989019D01*
X170659608Y-86028268D01*
X169966788Y-86428268D01*
X169879596Y-86503150D01*
X169823132Y-86612831D01*
X169813789Y-86735839D01*
X169853038Y-86852790D01*
X169925256Y-86977875D01*
X163160082Y-90883744D01*
X163089444Y-90801494D01*
X162979763Y-90745030D01*
X162856755Y-90735687D01*
X162739804Y-90774936D01*
X162046984Y-91174936D01*
X161959792Y-91249818D01*
X161903328Y-91359499D01*
X161893985Y-91482507D01*
X161933234Y-91599458D01*
X161978183Y-91677311D01*
X155836767Y-95277449D01*
X155769243Y-95198824D01*
X155659562Y-95142360D01*
X155536554Y-95133017D01*
X155419603Y-95172266D01*
X154726783Y-95572266D01*
X154639591Y-95647148D01*
X154583127Y-95756829D01*
X154573784Y-95879837D01*
X154610955Y-95990596D01*
X148010673Y-99801271D01*
X147775949Y-99801066D01*
X147553579Y-99892947D01*
X147383297Y-100062932D01*
X147291028Y-100285141D01*
X147290818Y-100525745D01*
X127382849Y-100525745D01*
X127409975Y-100514537D01*
X127580257Y-100344552D01*
X127672526Y-100122343D01*
X127672736Y-99881739D01*
X127580855Y-99659369D01*
X127410870Y-99489087D01*
X127221357Y-99410395D01*
X127266614Y-99301404D01*
X127266824Y-99060800D01*
X127174943Y-98838430D01*
X127004958Y-98668148D01*
X126815756Y-98589585D01*
X126862006Y-98478203D01*
X126862169Y-98290774D01*
X136308157Y-98290774D01*
X136400038Y-98513144D01*
X136570023Y-98683426D01*
X136792232Y-98775695D01*
X137032836Y-98775905D01*
X137255206Y-98684024D01*
X137362016Y-98577400D01*
X137727120Y-98577400D01*
X137832961Y-98683426D01*
X138055170Y-98775695D01*
X138295774Y-98775905D01*
X138518144Y-98684024D01*
X138688426Y-98514039D01*
X138780695Y-98291830D01*
X138780905Y-98051226D01*
X138689024Y-97828856D01*
X138519039Y-97658574D01*
X138296830Y-97566305D01*
X138056226Y-97566095D01*
X137833856Y-97657976D01*
X137727046Y-97764600D01*
X137361942Y-97764600D01*
X137256101Y-97658574D01*
X137033892Y-97566305D01*
X136793288Y-97566095D01*
X136570918Y-97657976D01*
X136400636Y-97827961D01*
X136308367Y-98050170D01*
X136308157Y-98290774D01*
X126862169Y-98290774D01*
X126862216Y-98237599D01*
X126770335Y-98015229D01*
X126600350Y-97844947D01*
X126378141Y-97752678D01*
X126137537Y-97752468D01*
X125915167Y-97844349D01*
X125867377Y-97892056D01*
X123452791Y-96497993D01*
X122072574Y-95701126D01*
X122001454Y-95435700D01*
X121931321Y-95293483D01*
X121891516Y-95258575D01*
X121812102Y-95188931D01*
X120127521Y-94216336D01*
X120115826Y-94212366D01*
X120106072Y-94204796D01*
X120106069Y-94204794D01*
X120041135Y-94187011D01*
X119977367Y-94165365D01*
X119965041Y-94166173D01*
X119953130Y-94162911D01*
X119886324Y-94171333D01*
X119819137Y-94175737D01*
X119819125Y-94175743D01*
X118940533Y-94411163D01*
X114040161Y-91581927D01*
X113974507Y-91336917D01*
X113926175Y-91238911D01*
X113904376Y-91194706D01*
X113904374Y-91194704D01*
X113904372Y-91194700D01*
X113819115Y-91119935D01*
X113785156Y-91090154D01*
X112684600Y-90454744D01*
X112534446Y-90403772D01*
X112534445Y-90403772D01*
X112380152Y-90413886D01*
X112376216Y-90414144D01*
X111762336Y-90578632D01*
X105738282Y-87100642D01*
X105774196Y-86998339D01*
X105768254Y-86875120D01*
X105714842Y-86763921D01*
X105622376Y-86682263D01*
X104929556Y-86282263D01*
X104821110Y-86244193D01*
X104697891Y-86250135D01*
X104586692Y-86303547D01*
X104505034Y-86396013D01*
X104105034Y-87088833D01*
X104066964Y-87197279D01*
X98404310Y-87197279D01*
X102057404Y-80869932D01*
X108327602Y-84490036D01*
X108467928Y-84537670D01*
X108615801Y-84527978D01*
X108748709Y-84462435D01*
X108846418Y-84351020D01*
X108894052Y-84210694D01*
X108892072Y-84180481D01*
X108884361Y-84062820D01*
X107123253Y-77490269D01*
X113328943Y-75827461D01*
X116949460Y-89339417D01*
X116949496Y-89339490D01*
X116949501Y-89339565D01*
X116981378Y-89404140D01*
X117015004Y-89472325D01*
X117015064Y-89472377D01*
X117015098Y-89472447D01*
X117070163Y-89520698D01*
X117126419Y-89570034D01*
X117126494Y-89570060D01*
X117126553Y-89570111D01*
X127470215Y-95536428D01*
X127517932Y-95552604D01*
X127563210Y-95574699D01*
X127587508Y-95576190D01*
X127610561Y-95584005D01*
X127660836Y-95580689D01*
X127711122Y-95583775D01*
X127734138Y-95575855D01*
X127758430Y-95574253D01*
X127803611Y-95551949D01*
X127851249Y-95535557D01*
X127981276Y-95459762D01*
X134521372Y-95459762D01*
X134613253Y-95682132D01*
X134783238Y-95852414D01*
X135005447Y-95944683D01*
X135246051Y-95944893D01*
X135468421Y-95853012D01*
X135638703Y-95683027D01*
X135730972Y-95460818D01*
X135730974Y-95459055D01*
X137236910Y-94585542D01*
X137284053Y-94544030D01*
X137334469Y-94506539D01*
X137343178Y-94491967D01*
X137355918Y-94480749D01*
X137383587Y-94424355D01*
X137415818Y-94370426D01*
X137418288Y-94353629D01*
X137425764Y-94338391D01*
X137429746Y-94275697D01*
X137430788Y-94268607D01*
X137801957Y-94268607D01*
X137893838Y-94490977D01*
X138063823Y-94661259D01*
X138286032Y-94753528D01*
X138526636Y-94753738D01*
X138749006Y-94661857D01*
X138919288Y-94491872D01*
X139011557Y-94269663D01*
X139011736Y-94064410D01*
X139161634Y-94064541D01*
X139384004Y-93972660D01*
X139554286Y-93802675D01*
X139646555Y-93580466D01*
X139646765Y-93339862D01*
X139631311Y-93302461D01*
X139725566Y-93302543D01*
X139947936Y-93210662D01*
X140118218Y-93040677D01*
X140210487Y-92818468D01*
X140210697Y-92577864D01*
X140118816Y-92355494D01*
X139948831Y-92185212D01*
X139813801Y-92129143D01*
X139813803Y-90820287D01*
X139813803Y-90820285D01*
X139813799Y-87438550D01*
X139993160Y-87259189D01*
X140081257Y-87127344D01*
X140112192Y-86971821D01*
X140112193Y-85270750D01*
X140081258Y-85115227D01*
X139993161Y-84983382D01*
X139993162Y-84983382D01*
X139993160Y-84983380D01*
X139397384Y-84387610D01*
X139397386Y-78644215D01*
X139586752Y-78454848D01*
X139630514Y-78389354D01*
X139674849Y-78323003D01*
X139705784Y-78167480D01*
X139705783Y-76549090D01*
X139674848Y-76393567D01*
X139674848Y-76393566D01*
X139586750Y-76261721D01*
X139000981Y-75675956D01*
X139000981Y-68942196D01*
X139107530Y-68922148D01*
X139211270Y-68855393D01*
X139280865Y-68753537D01*
X139305349Y-68632630D01*
X139305349Y-67832630D01*
X139284096Y-67719678D01*
X139217341Y-67615938D01*
X139115485Y-67546343D01*
X138994578Y-67521859D01*
X138194578Y-67521859D01*
X138081626Y-67543112D01*
X137977886Y-67609867D01*
X137908291Y-67711723D01*
X137883807Y-67832630D01*
X137883807Y-68632630D01*
X137905060Y-68745582D01*
X137971815Y-68849322D01*
X138073671Y-68918917D01*
X138188181Y-68942106D01*
X138188181Y-75844294D01*
X138219116Y-75999817D01*
X138307214Y-76131662D01*
X138892983Y-76717427D01*
X138892983Y-76919862D01*
X138194581Y-76919862D01*
X138081629Y-76941115D01*
X137977889Y-77007870D01*
X137908294Y-77109726D01*
X137883810Y-77230633D01*
X137883810Y-78030633D01*
X137905063Y-78143585D01*
X137971818Y-78247325D01*
X138073674Y-78316920D01*
X138178175Y-78338082D01*
X138178178Y-84724288D01*
X138178178Y-84724289D01*
X138209113Y-84879811D01*
X138297210Y-85011657D01*
X138841416Y-85555861D01*
X138194578Y-85555861D01*
X138081626Y-85577114D01*
X137977886Y-85643869D01*
X137908291Y-85745725D01*
X137883807Y-85866632D01*
X137883807Y-86666632D01*
X137905060Y-86779584D01*
X137971815Y-86883324D01*
X138073671Y-86952919D01*
X138188178Y-86976107D01*
X138188179Y-91278007D01*
X138178178Y-91328286D01*
X138188179Y-91378566D01*
X138188181Y-92027647D01*
X138149694Y-92066134D01*
X138061597Y-92197979D01*
X138030662Y-92353502D01*
X138030661Y-93669806D01*
X137894436Y-93805794D01*
X137802167Y-94028003D01*
X137801957Y-94268607D01*
X137430788Y-94268607D01*
X137438885Y-94213543D01*
X137400978Y-93461448D01*
X137400978Y-86976199D01*
X137507530Y-86956150D01*
X137611270Y-86889395D01*
X137680865Y-86787539D01*
X137705349Y-86666632D01*
X137705349Y-85866632D01*
X137684096Y-85753680D01*
X137617341Y-85649940D01*
X137515485Y-85580345D01*
X137400982Y-85557158D01*
X137400980Y-78340200D01*
X137507533Y-78320151D01*
X137611273Y-78253396D01*
X137680868Y-78151540D01*
X137705352Y-78030633D01*
X137705352Y-77230633D01*
X137684099Y-77117681D01*
X137617344Y-77013941D01*
X137515488Y-76944346D01*
X137400980Y-76921158D01*
X137400983Y-68942196D01*
X137507530Y-68922148D01*
X137611270Y-68855393D01*
X137680865Y-68753537D01*
X137705349Y-68632630D01*
X137705349Y-67832630D01*
X137684096Y-67719678D01*
X137617341Y-67615938D01*
X137515485Y-67546343D01*
X137394578Y-67521859D01*
X136594578Y-67521859D01*
X136481626Y-67543112D01*
X136377886Y-67609867D01*
X136308291Y-67711723D01*
X136283807Y-67832630D01*
X136283807Y-68632630D01*
X136305060Y-68745582D01*
X136371815Y-68849322D01*
X136473671Y-68918917D01*
X136588183Y-68942106D01*
X136588180Y-76921066D01*
X136481629Y-76941115D01*
X136377889Y-77007870D01*
X136308294Y-77109726D01*
X136283810Y-77230633D01*
X136283810Y-78030633D01*
X136305063Y-78143585D01*
X136371818Y-78247325D01*
X136473674Y-78316920D01*
X136588180Y-78340108D01*
X136588182Y-85557064D01*
X136481626Y-85577114D01*
X136377886Y-85643869D01*
X136308291Y-85745725D01*
X136283807Y-85866632D01*
X136283807Y-86666632D01*
X136305060Y-86779584D01*
X136371815Y-86883324D01*
X136473671Y-86952919D01*
X136588178Y-86976107D01*
X136588178Y-93471687D01*
X136590204Y-93481870D01*
X136588693Y-93492144D01*
X136614635Y-94006851D01*
X135312203Y-94762323D01*
X135247107Y-94735293D01*
X135006503Y-94735083D01*
X134784133Y-94826964D01*
X134613851Y-94996949D01*
X134521582Y-95219158D01*
X134521372Y-95459762D01*
X127981276Y-95459762D01*
X132905849Y-92589154D01*
X132942501Y-92556740D01*
X132983170Y-92529559D01*
X132997512Y-92508089D01*
X133016856Y-92490982D01*
X133038312Y-92447013D01*
X133065486Y-92406334D01*
X133070521Y-92381008D01*
X133081845Y-92357802D01*
X133084841Y-92308975D01*
X133094381Y-92260988D01*
X133093031Y-80351839D01*
X133078123Y-80276936D01*
X133064120Y-80206539D01*
X133064109Y-80206522D01*
X133064104Y-80206499D01*
X133021394Y-80142596D01*
X132981790Y-80083323D01*
X123090347Y-70191887D01*
X127633226Y-65649000D01*
X132444671Y-70460444D01*
X132444672Y-70460445D01*
X132567888Y-70542775D01*
X132713231Y-70571686D01*
X132858574Y-70542775D01*
X132981790Y-70460445D01*
X133064120Y-70337229D01*
X133093031Y-70191886D01*
X133093031Y-70191885D01*
X133093030Y-62951685D01*
X142493431Y-62951690D01*
X142493431Y-62951690D01*
G37*
X142493431Y-62951690D02*
X142493433Y-70191885D01*
X142522344Y-70337228D01*
X142604674Y-70460444D01*
X142727890Y-70542774D01*
X142873233Y-70571685D01*
X143018576Y-70542774D01*
X143141792Y-70460444D01*
X147953232Y-65649002D01*
X152496113Y-70191888D01*
X142604672Y-80083326D01*
X142604660Y-80083344D01*
X142604642Y-80083356D01*
X142565021Y-80142668D01*
X142522342Y-80206542D01*
X142522337Y-80206565D01*
X142522326Y-80206582D01*
X142508322Y-80277022D01*
X142493431Y-80351885D01*
X142493435Y-80351906D01*
X142493431Y-80351928D01*
X142494781Y-92261073D01*
X142504322Y-92309012D01*
X142507316Y-92357801D01*
X142518659Y-92381046D01*
X142523708Y-92406413D01*
X142550870Y-92447054D01*
X142572306Y-92490981D01*
X142591680Y-92508115D01*
X142606052Y-92529619D01*
X142646695Y-92556769D01*
X142683313Y-92589153D01*
X147737911Y-95535554D01*
X147785554Y-95551948D01*
X147830730Y-95574249D01*
X147855020Y-95575851D01*
X147878037Y-95583771D01*
X147928324Y-95580685D01*
X147978600Y-95584001D01*
X148001654Y-95576186D01*
X148025950Y-95574695D01*
X148071224Y-95552602D01*
X148118945Y-95536425D01*
X158461511Y-89570749D01*
X158461570Y-89570697D01*
X158461644Y-89570672D01*
X158516000Y-89523003D01*
X158572966Y-89473086D01*
X158573002Y-89473013D01*
X158573059Y-89472963D01*
X158605198Y-89407793D01*
X158638563Y-89340204D01*
X158638568Y-89340126D01*
X158638603Y-89340055D01*
X162259120Y-75828099D01*
X168464815Y-77490904D01*
X166703704Y-84063457D01*
X166694013Y-84211330D01*
X166741647Y-84351656D01*
X166839356Y-84463071D01*
X166972264Y-84528615D01*
X167120137Y-84538306D01*
X167260463Y-84490672D01*
X173530660Y-80870571D01*
X178230858Y-89011556D01*
X171960665Y-92631656D01*
X171849250Y-92729364D01*
X171783706Y-92862272D01*
X171774015Y-93010146D01*
X171821649Y-93150472D01*
X171919357Y-93261887D01*
X172052265Y-93327431D01*
X178624810Y-95088544D01*
X176962002Y-101294235D01*
X163450044Y-97673714D01*
X163450021Y-97673713D01*
X163450004Y-97673704D01*
X163377264Y-97668944D01*
X163302170Y-97664023D01*
X163302151Y-97664029D01*
X163302130Y-97664028D01*
X163230041Y-97688507D01*
X163161844Y-97711657D01*
X163161829Y-97711670D01*
X163161809Y-97711677D01*
X152717645Y-103743135D01*
X152681569Y-103774781D01*
X152641430Y-103801085D01*
X152626360Y-103823209D01*
X152606241Y-103840857D01*
X152585022Y-103883897D01*
X152558004Y-103923561D01*
X152552548Y-103949765D01*
X152540712Y-103973772D01*
X152537579Y-104021657D01*
X152527796Y-104068640D01*
X152476996Y-109758243D01*
X152486565Y-109808699D01*
X152489923Y-109859934D01*
X152500255Y-109880885D01*
X152504608Y-109903838D01*
X152532756Y-109946790D01*
X152555466Y-109992841D01*
X152573029Y-110008243D01*
X152585835Y-110027785D01*
X152628273Y-110056692D01*
X152666881Y-110090551D01*
X163162438Y-116150155D01*
X163302764Y-116197788D01*
X163450638Y-116188097D01*
X176962596Y-112567578D01*
X178625404Y-118773269D01*
X172052856Y-120534378D01*
X171919948Y-120599922D01*
X171822239Y-120711337D01*
X171774605Y-120851663D01*
X171784296Y-120999536D01*
X171837103Y-121106616D01*
X171849840Y-121132444D01*
X171961255Y-121230153D01*
X178231447Y-124850249D01*
X173531250Y-132991236D01*
X167261055Y-129371140D01*
X167120729Y-129323506D01*
X166972856Y-129333197D01*
X166839948Y-129398741D01*
X166742239Y-129510156D01*
X166694605Y-129650482D01*
X166704296Y-129798355D01*
X168465405Y-136370904D01*
X162259716Y-138033714D01*
X158639196Y-124521756D01*
X158639057Y-124521474D01*
X158639036Y-124521163D01*
X158606390Y-124455234D01*
X158573652Y-124388849D01*
X158573416Y-124388642D01*
X158573277Y-124388361D01*
X158517717Y-124339795D01*
X158462237Y-124291140D01*
X158461940Y-124291039D01*
X158461704Y-124290833D01*
X147864551Y-118195408D01*
X147818560Y-118179879D01*
X147775116Y-118158214D01*
X147748975Y-118156384D01*
X147724148Y-118148001D01*
X147675711Y-118151254D01*
X147627288Y-118147864D01*
X147602439Y-118156176D01*
X147576291Y-118157932D01*
X147532786Y-118179474D01*
X147486751Y-118194872D01*
X142686148Y-120938075D01*
X142648019Y-120971214D01*
X142606023Y-120999275D01*
X142592573Y-121019404D01*
X142574299Y-121035287D01*
X142551755Y-121080493D01*
X142523693Y-121122491D01*
X142518970Y-121146236D01*
X142508165Y-121167902D01*
X142504637Y-121218289D01*
X142494782Y-121267834D01*
X142494780Y-126710339D01*
X141069873Y-125285433D01*
X141041128Y-125266226D01*
X141027120Y-125256866D01*
X141096895Y-125088830D01*
X141097105Y-124848226D01*
X141005224Y-124625856D01*
X140898600Y-124519046D01*
X140898600Y-118238143D01*
X140922919Y-118115881D01*
X140922919Y-118025795D01*
X144828915Y-114119799D01*
X147802486Y-114119799D01*
X147894367Y-114342169D01*
X148064352Y-114512451D01*
X148239935Y-114585359D01*
X148237375Y-114587915D01*
X148145106Y-114810124D01*
X148144896Y-115050728D01*
X148236777Y-115273098D01*
X148406762Y-115443380D01*
X148594228Y-115521222D01*
X148542470Y-115645869D01*
X148542260Y-115886473D01*
X148634141Y-116108843D01*
X148804126Y-116279125D01*
X149026335Y-116371394D01*
X149266939Y-116371604D01*
X149489309Y-116279723D01*
X149537097Y-116232018D01*
X150523361Y-116801438D01*
X150523362Y-116801439D01*
X152889258Y-118167391D01*
X152954908Y-118412397D01*
X153025040Y-118554613D01*
X153144260Y-118659166D01*
X155232881Y-119865034D01*
X155383035Y-119916005D01*
X155541265Y-119905633D01*
X156171096Y-119736870D01*
X161145021Y-122608569D01*
X161224526Y-122905284D01*
X161294659Y-123047502D01*
X161350817Y-123096750D01*
X161413878Y-123152053D01*
X162767210Y-123933399D01*
X162879311Y-123971452D01*
X162917364Y-123984370D01*
X162917365Y-123984370D01*
X163075594Y-123973998D01*
X163798590Y-123780272D01*
X169088874Y-126834620D01*
X169052962Y-126936919D01*
X169058904Y-127060138D01*
X169112316Y-127171337D01*
X169204782Y-127252995D01*
X169897602Y-127652995D01*
X170006048Y-127691065D01*
X170129267Y-127685123D01*
X170240466Y-127631711D01*
X170322124Y-127539245D01*
X170722124Y-126846425D01*
X170760194Y-126737979D01*
X170754252Y-126614760D01*
X170700840Y-126503561D01*
X170608374Y-126421903D01*
X169915554Y-126021903D01*
X169807108Y-125983833D01*
X169683889Y-125989775D01*
X169572690Y-126043187D01*
X169495353Y-126130761D01*
X164059207Y-122992198D01*
X163909053Y-122941227D01*
X163750822Y-122951599D01*
X163027827Y-123145325D01*
X163006930Y-123133260D01*
X163356130Y-122528429D01*
X163394200Y-122419983D01*
X163388258Y-122296764D01*
X163334846Y-122185565D01*
X163242380Y-122103907D01*
X162549560Y-121703907D01*
X162441114Y-121665837D01*
X162317895Y-121671779D01*
X162206696Y-121725191D01*
X162154925Y-121783815D01*
X156709100Y-118639664D01*
X156709101Y-118639664D01*
X156489133Y-118512665D01*
X156489132Y-118512664D01*
X156338978Y-118461692D01*
X156254678Y-118467218D01*
X156180749Y-118472063D01*
X156180746Y-118472065D01*
X155550918Y-118640825D01*
X155532926Y-118630437D01*
X155882125Y-118025607D01*
X155920195Y-117917161D01*
X155914253Y-117793942D01*
X155860841Y-117682743D01*
X155768375Y-117601085D01*
X155075555Y-117201085D01*
X154967109Y-117163015D01*
X154843890Y-117168957D01*
X154732691Y-117222369D01*
X154655355Y-117309941D01*
X150724254Y-115040319D01*
X150724252Y-115040318D01*
X150210126Y-114743485D01*
X150199198Y-114702702D01*
X150187461Y-114678901D01*
X150129066Y-114560485D01*
X150009846Y-114455933D01*
X149012158Y-113879917D01*
X148920415Y-113657881D01*
X148750430Y-113487599D01*
X148528221Y-113395330D01*
X148287617Y-113395120D01*
X148065247Y-113487001D01*
X147894965Y-113656986D01*
X147802696Y-113879195D01*
X147802486Y-114119799D01*
X144828915Y-114119799D01*
X146069531Y-112879183D01*
X148517038Y-112879183D01*
X148545611Y-112873500D01*
X155048876Y-116628161D01*
X155012963Y-116730461D01*
X155018905Y-116853680D01*
X155072317Y-116964879D01*
X155164783Y-117046537D01*
X155857603Y-117446537D01*
X155966049Y-117484607D01*
X156089268Y-117478665D01*
X156200467Y-117425253D01*
X156268860Y-117347807D01*
X162528424Y-121118973D01*
X162525038Y-121124837D01*
X162486968Y-121233283D01*
X162492910Y-121356502D01*
X162546322Y-121467701D01*
X162638788Y-121549359D01*
X163331608Y-121949359D01*
X163440054Y-121987429D01*
X163563273Y-121981487D01*
X163674472Y-121928075D01*
X163748634Y-121844097D01*
X169890456Y-125444473D01*
X169852962Y-125551279D01*
X169858904Y-125674498D01*
X169912316Y-125785697D01*
X170004782Y-125867355D01*
X170697602Y-126267355D01*
X170806048Y-126305425D01*
X170929267Y-126299483D01*
X171040466Y-126246071D01*
X171122124Y-126153605D01*
X171522124Y-125460785D01*
X171560194Y-125352339D01*
X171554252Y-125229120D01*
X171500840Y-125117921D01*
X171408374Y-125036263D01*
X170715554Y-124636263D01*
X170607108Y-124598193D01*
X170483889Y-124604135D01*
X170372690Y-124657547D01*
X170298527Y-124741526D01*
X164156705Y-121141150D01*
X164194200Y-121034343D01*
X164188258Y-120911124D01*
X164134846Y-120799925D01*
X164042380Y-120718267D01*
X163349560Y-120318267D01*
X163241114Y-120280197D01*
X163117895Y-120286139D01*
X163006696Y-120339551D01*
X162938301Y-120416998D01*
X156678739Y-116645833D01*
X156682125Y-116639967D01*
X156720195Y-116531521D01*
X156714253Y-116408302D01*
X156660841Y-116297103D01*
X156568375Y-116215445D01*
X155875555Y-115815445D01*
X155767109Y-115777375D01*
X155643890Y-115783317D01*
X155532691Y-115836729D01*
X155455355Y-115924301D01*
X150562603Y-113099469D01*
X150628170Y-113126695D01*
X150868774Y-113126905D01*
X151091144Y-113035024D01*
X151261426Y-112865039D01*
X151353695Y-112642830D01*
X151353905Y-112402226D01*
X151262024Y-112179856D01*
X151092039Y-112009574D01*
X150869830Y-111917305D01*
X150629226Y-111917095D01*
X150406856Y-112008976D01*
X150300046Y-112115600D01*
X149757258Y-112115600D01*
X149177696Y-111536038D01*
X149177827Y-111386226D01*
X149085946Y-111163856D01*
X148915961Y-110993574D01*
X148693752Y-110901305D01*
X148453148Y-110901095D01*
X148230778Y-110992976D01*
X148060496Y-111162961D01*
X147968227Y-111385170D01*
X147968017Y-111625774D01*
X148059898Y-111848144D01*
X148229883Y-112018426D01*
X148345377Y-112066383D01*
X145901195Y-112066383D01*
X145745672Y-112097318D01*
X145663846Y-112151993D01*
X145613827Y-112185415D01*
X140492190Y-117307052D01*
X140492190Y-111040652D01*
X141273828Y-110259014D01*
X141361925Y-110127169D01*
X141392860Y-109971646D01*
X141392860Y-109213597D01*
X141361925Y-109058074D01*
X141273828Y-108926229D01*
X140544373Y-108196774D01*
X147968017Y-108196774D01*
X148059898Y-108419144D01*
X148229883Y-108589426D01*
X148452092Y-108681695D01*
X148692696Y-108681905D01*
X148915066Y-108590024D01*
X149021876Y-108483400D01*
X149411120Y-108483400D01*
X149516961Y-108589426D01*
X149739170Y-108681695D01*
X149979774Y-108681905D01*
X150202144Y-108590024D01*
X150372426Y-108420039D01*
X150464695Y-108197830D01*
X150464905Y-107957226D01*
X150373024Y-107734856D01*
X150203039Y-107564574D01*
X149980830Y-107472305D01*
X149740226Y-107472095D01*
X149517856Y-107563976D01*
X149411046Y-107670600D01*
X149021802Y-107670600D01*
X148915961Y-107564574D01*
X148693752Y-107472305D01*
X148453148Y-107472095D01*
X148230778Y-107563976D01*
X148060496Y-107733961D01*
X147968227Y-107956170D01*
X147968017Y-108196774D01*
X140544373Y-108196774D01*
X140218232Y-107870633D01*
X140191985Y-107853095D01*
X140086387Y-107782536D01*
X139930864Y-107751601D01*
X139618999Y-107751601D01*
X139463476Y-107782536D01*
X139357878Y-107853095D01*
X139357671Y-107853233D01*
X139199226Y-107853095D01*
X138976856Y-107944976D01*
X138806574Y-108114961D01*
X138714305Y-108337170D01*
X138714095Y-108577774D01*
X138805976Y-108800144D01*
X138975961Y-108970426D01*
X139198170Y-109062695D01*
X139303522Y-109062787D01*
X133316632Y-115049677D01*
X133228535Y-115181522D01*
X133197600Y-115337045D01*
X133197600Y-132953442D01*
X133228535Y-133108965D01*
X133243145Y-133130830D01*
X133316632Y-133240810D01*
X134711795Y-134635973D01*
X134711664Y-134785785D01*
X134803545Y-135008155D01*
X134973530Y-135178437D01*
X135195739Y-135270706D01*
X135436343Y-135270916D01*
X135514969Y-135238428D01*
X135514969Y-136463421D01*
X135545904Y-136618944D01*
X135634001Y-136750789D01*
X136626179Y-137742967D01*
X136626180Y-138082629D01*
X136626180Y-138082630D01*
X136626179Y-143663341D01*
X136619119Y-143673907D01*
X136619115Y-143673926D01*
X136619104Y-143673943D01*
X136609577Y-143721863D01*
X136594581Y-143721863D01*
X136481629Y-143743116D01*
X136377889Y-143809871D01*
X136308294Y-143911727D01*
X136283810Y-144032634D01*
X136283810Y-144495769D01*
X132623928Y-140835887D01*
X132684695Y-140689544D01*
X132684905Y-140448940D01*
X132593024Y-140226570D01*
X132423039Y-140056288D01*
X132200830Y-139964019D01*
X131960226Y-139963809D01*
X131737856Y-140055690D01*
X131567574Y-140225675D01*
X131475305Y-140447884D01*
X131475095Y-140688488D01*
X131566976Y-140910858D01*
X131736961Y-141081140D01*
X131746573Y-141085131D01*
X131792632Y-141154063D01*
X136063372Y-145424803D01*
X136195217Y-145512900D01*
X136350740Y-145543835D01*
X139238422Y-145543835D01*
X139393945Y-145512900D01*
X139525790Y-145424803D01*
X141944054Y-143006539D01*
X142032151Y-142874694D01*
X142063086Y-142719171D01*
X142063086Y-140055512D01*
X142169112Y-139949671D01*
X142261381Y-139727462D01*
X142261591Y-139486858D01*
X142169710Y-139264488D01*
X141999725Y-139094206D01*
X141777516Y-139001937D01*
X141626595Y-139001805D01*
X140868400Y-138243610D01*
X140868400Y-131766880D01*
X140974426Y-131661039D01*
X141066695Y-131438830D01*
X141066905Y-131198226D01*
X140975024Y-130975856D01*
X140805039Y-130805574D01*
X140582830Y-130713305D01*
X140342226Y-130713095D01*
X140119856Y-130804976D01*
X139949574Y-130974961D01*
X139857305Y-131197170D01*
X139857095Y-131437774D01*
X139948976Y-131660144D01*
X140055600Y-131766954D01*
X140055600Y-138411946D01*
X140086535Y-138567469D01*
X140106383Y-138597173D01*
X140174632Y-138699314D01*
X141051912Y-139576594D01*
X141051781Y-139726406D01*
X141143662Y-139948776D01*
X141250286Y-140055586D01*
X141250286Y-142550835D01*
X139305352Y-144495769D01*
X139305352Y-144032634D01*
X139284099Y-143919682D01*
X139217344Y-143815942D01*
X139115488Y-143746347D01*
X139004199Y-143723811D01*
X139035763Y-136760803D01*
X139145533Y-136740149D01*
X139249273Y-136673394D01*
X139318868Y-136571538D01*
X139343352Y-136450631D01*
X139343352Y-135650631D01*
X139322099Y-135537679D01*
X139255344Y-135433939D01*
X139153488Y-135364344D01*
X139038978Y-135341155D01*
X139038980Y-128124197D01*
X139145534Y-128104148D01*
X139178787Y-128082750D01*
X139260161Y-128164267D01*
X139465275Y-128249438D01*
X139465122Y-128425225D01*
X139557003Y-128647595D01*
X139726988Y-128817877D01*
X139949197Y-128910146D01*
X140189801Y-128910356D01*
X140412171Y-128818475D01*
X140518981Y-128711851D01*
X141926455Y-128711851D01*
X142081978Y-128680916D01*
X142213823Y-128592819D01*
X142494779Y-128311863D01*
X142494777Y-133510630D01*
X142523688Y-133655973D01*
X142606018Y-133779189D01*
X152497461Y-143670630D01*
X147954583Y-148213514D01*
X143143137Y-143402068D01*
X143019921Y-143319738D01*
X142874578Y-143290827D01*
X142729235Y-143319738D01*
X142606019Y-143402068D01*
X142523689Y-143525284D01*
X142494778Y-143670627D01*
X142494779Y-150910829D01*
X133094378Y-150910830D01*
X133094379Y-149004630D01*
X136906778Y-149004630D01*
X136974358Y-149344376D01*
X137166809Y-149632399D01*
X137454832Y-149824850D01*
X137794578Y-149892430D01*
X138134324Y-149824850D01*
X138422347Y-149632399D01*
X138614798Y-149344376D01*
X138682378Y-149004630D01*
X138614798Y-148664884D01*
X138422347Y-148376861D01*
X138134324Y-148184410D01*
X137794578Y-148116830D01*
X137454832Y-148184410D01*
X137166809Y-148376861D01*
X136974358Y-148664884D01*
X136906778Y-149004630D01*
X133094379Y-149004630D01*
X133094382Y-143670627D01*
X133065471Y-143525284D01*
X132983141Y-143402068D01*
X132859925Y-143319738D01*
X132714582Y-143290827D01*
X132569239Y-143319738D01*
X132446023Y-143402068D01*
X127634581Y-148213512D01*
X123091697Y-143670631D01*
X132983139Y-133779192D01*
X133065469Y-133655976D01*
X133094380Y-133510633D01*
X133094382Y-121242430D01*
X133084527Y-121192885D01*
X133080999Y-121142498D01*
X133070194Y-121120832D01*
X133065471Y-121097087D01*
X133037409Y-121055089D01*
X133014865Y-121009883D01*
X132996591Y-120994001D01*
X132983141Y-120973871D01*
X132941142Y-120945808D01*
X132903015Y-120912671D01*
X128102412Y-118169473D01*
X128056075Y-118153974D01*
X128012259Y-118132369D01*
X127986426Y-118130677D01*
X127961875Y-118122465D01*
X127913139Y-118125877D01*
X127864385Y-118122684D01*
X127839871Y-118131007D01*
X127814047Y-118132815D01*
X127770326Y-118154619D01*
X127724061Y-118170326D01*
X117125648Y-124290073D01*
X117076007Y-124333612D01*
X117014250Y-124387772D01*
X117014245Y-124387782D01*
X117014238Y-124387788D01*
X116988979Y-124439015D01*
X116948706Y-124520680D01*
X113328189Y-138032643D01*
X107122497Y-136369834D01*
X108883607Y-129797281D01*
X108893298Y-129649408D01*
X108845664Y-129509082D01*
X108747955Y-129397667D01*
X108615048Y-129332123D01*
X108467174Y-129322431D01*
X108326848Y-129370066D01*
X102056650Y-132990168D01*
X98148749Y-126221474D01*
X104573784Y-126221474D01*
X104613033Y-126338425D01*
X105013033Y-127031245D01*
X105087915Y-127118437D01*
X105197596Y-127174901D01*
X105320604Y-127184244D01*
X105437555Y-127144995D01*
X106130375Y-126744995D01*
X106217567Y-126670113D01*
X106274031Y-126560432D01*
X106283374Y-126437424D01*
X106247743Y-126331254D01*
X112488141Y-122783714D01*
X112561917Y-122869618D01*
X112671598Y-122926082D01*
X112794606Y-122935425D01*
X112911557Y-122896176D01*
X113604377Y-122496176D01*
X113691569Y-122421294D01*
X113748033Y-122311613D01*
X113757376Y-122188605D01*
X113724958Y-122092008D01*
X119994961Y-118642187D01*
X119999038Y-118649248D01*
X120073920Y-118736440D01*
X120183601Y-118792904D01*
X120306609Y-118802247D01*
X120423560Y-118762998D01*
X121116380Y-118362998D01*
X121203572Y-118288116D01*
X121260036Y-118178435D01*
X121269379Y-118055427D01*
X121232208Y-117944667D01*
X127399066Y-114384228D01*
X129655892Y-114384228D01*
X129747773Y-114606598D01*
X129917758Y-114776880D01*
X130139967Y-114869149D01*
X130380571Y-114869359D01*
X130602941Y-114777478D01*
X130662353Y-114718170D01*
X130720961Y-114776880D01*
X130943170Y-114869149D01*
X131183774Y-114869359D01*
X131406144Y-114777478D01*
X131518279Y-114665538D01*
X131637460Y-114784927D01*
X131859669Y-114877196D01*
X132100273Y-114877406D01*
X132322643Y-114785525D01*
X132492925Y-114615540D01*
X132585194Y-114393331D01*
X132585404Y-114152727D01*
X132493523Y-113930357D01*
X132386899Y-113823547D01*
X132386899Y-113460112D01*
X132449227Y-113397893D01*
X132541496Y-113175684D01*
X132541706Y-112935080D01*
X132449825Y-112712710D01*
X132398838Y-112661634D01*
X132483636Y-112576984D01*
X132575905Y-112354775D01*
X132576115Y-112114171D01*
X132484234Y-111891801D01*
X132314249Y-111721519D01*
X132207565Y-111677220D01*
X132243138Y-111641647D01*
X132455180Y-111729695D01*
X132695784Y-111729905D01*
X132918154Y-111638024D01*
X133088436Y-111468039D01*
X133180705Y-111245830D01*
X133180915Y-111005226D01*
X133089034Y-110782856D01*
X132919049Y-110612574D01*
X132696840Y-110520305D01*
X132456236Y-110520095D01*
X132233866Y-110611976D01*
X132112625Y-110733006D01*
X132029526Y-110749535D01*
X131897681Y-110837632D01*
X129973429Y-112761884D01*
X129885332Y-112893729D01*
X129854397Y-113049252D01*
X129854397Y-113815574D01*
X129748371Y-113921415D01*
X129656102Y-114143624D01*
X129655892Y-114384228D01*
X127399066Y-114384228D01*
X127614695Y-114259735D01*
X127625806Y-114264349D01*
X127866410Y-114264559D01*
X128088780Y-114172678D01*
X128259062Y-114002693D01*
X128351331Y-113780484D01*
X128351541Y-113539880D01*
X128259660Y-113317510D01*
X128089675Y-113147228D01*
X127867466Y-113054959D01*
X127626862Y-113054749D01*
X127404492Y-113146630D01*
X127234210Y-113316615D01*
X127141941Y-113538824D01*
X127141893Y-113594167D01*
X120825887Y-117240715D01*
X120755248Y-117158464D01*
X120645567Y-117102000D01*
X120522559Y-117092657D01*
X120405608Y-117131906D01*
X119712788Y-117531906D01*
X119625596Y-117606788D01*
X119569132Y-117716469D01*
X119559789Y-117839477D01*
X119592209Y-117936078D01*
X113322206Y-121385899D01*
X113318127Y-121378834D01*
X113243245Y-121291642D01*
X113133564Y-121235178D01*
X113010556Y-121225835D01*
X112893605Y-121265084D01*
X112200785Y-121665084D01*
X112113593Y-121739966D01*
X112057129Y-121849647D01*
X112047786Y-121972655D01*
X112083420Y-122078833D01*
X105843025Y-125626372D01*
X105769243Y-125540461D01*
X105659562Y-125483997D01*
X105536554Y-125474654D01*
X105419603Y-125513903D01*
X104726783Y-125913903D01*
X104639591Y-125988785D01*
X104583127Y-126098466D01*
X104573784Y-126221474D01*
X98148749Y-126221474D01*
X97356454Y-124849178D01*
X97379566Y-124835834D01*
X103773784Y-124835834D01*
X103813033Y-124952785D01*
X104213033Y-125645605D01*
X104287915Y-125732797D01*
X104397596Y-125789261D01*
X104520604Y-125798604D01*
X104637555Y-125759355D01*
X105330375Y-125359355D01*
X105417567Y-125284473D01*
X105474031Y-125174792D01*
X105483374Y-125051784D01*
X105444125Y-124934833D01*
X105442934Y-124932771D01*
X110994429Y-121727619D01*
X111113648Y-121623067D01*
X111113649Y-121623066D01*
X111183782Y-121480849D01*
X111358690Y-120828076D01*
X111687035Y-121396786D01*
X111761917Y-121483978D01*
X111871598Y-121540442D01*
X111994606Y-121549785D01*
X112111557Y-121510536D01*
X112804377Y-121110536D01*
X112891569Y-121035654D01*
X112948033Y-120925973D01*
X112957376Y-120802965D01*
X112920205Y-120692206D01*
X118714447Y-117346898D01*
X118833667Y-117242346D01*
X118903799Y-117100129D01*
X118967467Y-116862516D01*
X119199038Y-117263608D01*
X119273920Y-117350800D01*
X119383601Y-117407264D01*
X119506609Y-117416607D01*
X119623560Y-117377358D01*
X120316380Y-116977358D01*
X120403572Y-116902476D01*
X120460036Y-116792795D01*
X120469379Y-116669787D01*
X120432207Y-116559025D01*
X121884623Y-115720475D01*
X125025469Y-113907104D01*
X125030479Y-113908446D01*
X125116794Y-113914102D01*
X125188704Y-113918816D01*
X125188707Y-113918815D01*
X125188710Y-113918815D01*
X125255251Y-113896226D01*
X125338858Y-113867845D01*
X126179477Y-113382512D01*
X126280764Y-113424570D01*
X126521368Y-113424780D01*
X126743738Y-113332899D01*
X126914020Y-113162914D01*
X127006289Y-112940705D01*
X127006499Y-112700101D01*
X126914618Y-112477731D01*
X126744633Y-112307449D01*
X126522424Y-112215180D01*
X126281820Y-112214970D01*
X126059450Y-112306851D01*
X125972334Y-112393815D01*
X125937209Y-112308806D01*
X125767224Y-112138524D01*
X125545015Y-112046255D01*
X125304411Y-112046045D01*
X125082041Y-112137926D01*
X125000503Y-112219322D01*
X124842759Y-112061303D01*
X124620550Y-111969034D01*
X124379946Y-111968824D01*
X124157576Y-112060705D01*
X123987294Y-112230690D01*
X123895025Y-112452899D01*
X123894824Y-112682777D01*
X123650270Y-112823970D01*
X120201664Y-114815018D01*
X120131531Y-114855509D01*
X119886533Y-114789865D01*
X119886531Y-114789864D01*
X119886529Y-114789864D01*
X119886526Y-114789863D01*
X119833341Y-114786377D01*
X119728301Y-114779492D01*
X119728298Y-114779493D01*
X119650130Y-114806028D01*
X119578147Y-114830463D01*
X119578144Y-114830465D01*
X119578143Y-114830465D01*
X119578142Y-114830466D01*
X118152407Y-115653611D01*
X118152406Y-115653612D01*
X118152405Y-115653612D01*
X118033186Y-115758164D01*
X118004939Y-115815445D01*
X117972709Y-115880802D01*
X117963053Y-115900382D01*
X117813274Y-116459371D01*
X112688743Y-119418020D01*
X112275176Y-119307206D01*
X112275175Y-119307205D01*
X112116946Y-119296833D01*
X112040837Y-119322668D01*
X111966791Y-119347804D01*
X110866939Y-119982800D01*
X110866938Y-119982801D01*
X110866937Y-119982801D01*
X110747718Y-120087352D01*
X110725922Y-120131552D01*
X110677586Y-120229568D01*
X110677586Y-120229570D01*
X110442245Y-121107881D01*
X105034060Y-124230293D01*
X104969243Y-124154821D01*
X104859562Y-124098357D01*
X104736554Y-124089014D01*
X104619603Y-124128263D01*
X103926783Y-124528263D01*
X103839591Y-124603145D01*
X103783127Y-124712826D01*
X103773784Y-124835834D01*
X97379566Y-124835834D01*
X103626648Y-121229078D01*
X103738063Y-121131368D01*
X103803606Y-120998460D01*
X103813298Y-120850587D01*
X103765664Y-120710261D01*
X103720034Y-120658230D01*
X103667955Y-120598845D01*
X103535047Y-120533302D01*
X96962495Y-118772197D01*
X98625306Y-112566503D01*
X112137270Y-116187022D01*
X112209843Y-116191778D01*
X112285094Y-116196720D01*
X112285119Y-116196711D01*
X112285143Y-116196713D01*
X112351439Y-116174209D01*
X112425427Y-116149104D01*
X122922236Y-110090574D01*
X122960862Y-110056709D01*
X123003325Y-110027784D01*
X123016119Y-110008262D01*
X123033664Y-109992879D01*
X123056390Y-109946811D01*
X123084552Y-109903838D01*
X123088900Y-109880909D01*
X123099225Y-109859980D01*
X123102591Y-109808720D01*
X123112164Y-109758242D01*
X123083482Y-106545774D01*
X147968017Y-106545774D01*
X148059898Y-106768144D01*
X148229883Y-106938426D01*
X148452092Y-107030695D01*
X148692696Y-107030905D01*
X148915066Y-106939024D01*
X149021876Y-106832400D01*
X149740052Y-106832400D01*
X149845893Y-106938426D01*
X150068102Y-107030695D01*
X150308706Y-107030905D01*
X150531076Y-106939024D01*
X150701358Y-106769039D01*
X150793627Y-106546830D01*
X150793837Y-106306226D01*
X150701956Y-106083856D01*
X150531971Y-105913574D01*
X150309762Y-105821305D01*
X150069158Y-105821095D01*
X149846788Y-105912976D01*
X149739978Y-106019600D01*
X149021802Y-106019600D01*
X148915961Y-105913574D01*
X148693752Y-105821305D01*
X148453148Y-105821095D01*
X148230778Y-105912976D01*
X148060496Y-106082961D01*
X147968227Y-106305170D01*
X147968017Y-106545774D01*
X123083482Y-106545774D01*
X123061364Y-104068638D01*
X123051581Y-104021653D01*
X123048448Y-103973769D01*
X123036612Y-103949761D01*
X123031156Y-103923559D01*
X123004140Y-103883897D01*
X122982919Y-103840854D01*
X122962799Y-103823205D01*
X122947730Y-103801083D01*
X122907593Y-103774780D01*
X122871515Y-103743133D01*
X112426258Y-97711040D01*
X112426236Y-97711033D01*
X112426222Y-97711020D01*
X112360879Y-97688839D01*
X112285937Y-97663391D01*
X112285915Y-97663392D01*
X112285896Y-97663386D01*
X112210157Y-97668350D01*
X112138063Y-97673067D01*
X112138046Y-97673075D01*
X112138022Y-97673077D01*
X98626059Y-101293595D01*
X96963250Y-95087902D01*
X103535802Y-93326798D01*
X103668710Y-93261254D01*
X103766420Y-93149839D01*
X103814053Y-93009513D01*
X103804362Y-92861640D01*
X103738818Y-92728732D01*
X103627403Y-92631023D01*
X97357205Y-89010920D01*
X97604311Y-88582919D01*
X103266964Y-88582919D01*
X103272906Y-88706138D01*
X103326318Y-88817337D01*
X103418784Y-88898995D01*
X104111604Y-89298995D01*
X104220050Y-89337065D01*
X104343269Y-89331123D01*
X104454468Y-89277711D01*
X104524571Y-89198330D01*
X111073172Y-93111956D01*
X111071037Y-93115654D01*
X111032967Y-93224100D01*
X111038909Y-93347319D01*
X111092321Y-93458518D01*
X111184787Y-93540176D01*
X111877607Y-93940176D01*
X111986053Y-93978246D01*
X112109272Y-93972304D01*
X112220471Y-93918892D01*
X112301006Y-93827698D01*
X118541280Y-97375172D01*
X118506965Y-97472922D01*
X118512907Y-97596141D01*
X118566319Y-97707340D01*
X118658785Y-97788998D01*
X119351605Y-98188998D01*
X119460051Y-98227068D01*
X119583270Y-98221126D01*
X119694469Y-98167714D01*
X119771805Y-98080143D01*
X126511835Y-101971501D01*
X126616599Y-102007064D01*
X126663357Y-102053904D01*
X126885566Y-102146173D01*
X127126170Y-102146383D01*
X127348540Y-102054502D01*
X127518822Y-101884517D01*
X127611091Y-101662308D01*
X127611301Y-101421704D01*
X127601658Y-101398364D01*
X148572817Y-101398364D01*
X148664698Y-101620734D01*
X148834683Y-101791016D01*
X149056892Y-101883285D01*
X149297496Y-101883495D01*
X149519866Y-101791614D01*
X149606984Y-101704648D01*
X149642110Y-101789659D01*
X149812095Y-101959941D01*
X150034304Y-102052210D01*
X150274908Y-102052420D01*
X150497278Y-101960539D01*
X150579623Y-101878338D01*
X150595817Y-101917530D01*
X150765802Y-102087812D01*
X150988011Y-102180081D01*
X151228615Y-102180291D01*
X151450985Y-102088410D01*
X151621267Y-101918425D01*
X151713536Y-101696216D01*
X151713737Y-101466337D01*
X152541712Y-100988305D01*
X155681688Y-99175439D01*
X155833939Y-99216235D01*
X155833940Y-99216235D01*
X155833942Y-99216236D01*
X155961053Y-99224568D01*
X155992169Y-99226608D01*
X155992172Y-99226608D01*
X156142326Y-99175637D01*
X157970404Y-98120196D01*
X158089623Y-98015644D01*
X158159756Y-97873427D01*
X158394842Y-96996072D01*
X162933332Y-94375776D01*
X163426411Y-94507893D01*
X163426412Y-94507894D01*
X163584641Y-94518266D01*
X163734796Y-94467295D01*
X164736928Y-93888715D01*
X164856147Y-93784163D01*
X164926280Y-93641946D01*
X164926280Y-93641945D01*
X165295892Y-92262525D01*
X171057280Y-88936189D01*
X171127920Y-89018442D01*
X171237601Y-89074906D01*
X171360609Y-89084249D01*
X171477560Y-89045000D01*
X172170380Y-88645000D01*
X172257572Y-88570118D01*
X172314036Y-88460437D01*
X172323379Y-88337429D01*
X172284130Y-88220478D01*
X171884130Y-87527658D01*
X171809248Y-87440466D01*
X171699567Y-87384002D01*
X171576559Y-87374659D01*
X171459608Y-87413908D01*
X170766788Y-87813908D01*
X170679596Y-87888790D01*
X170623132Y-87998471D01*
X170613789Y-88121479D01*
X170650960Y-88232237D01*
X164743709Y-91642787D01*
X164624490Y-91747339D01*
X164556758Y-91884689D01*
X164554357Y-91889557D01*
X164296908Y-92850375D01*
X163964326Y-92274326D01*
X163889444Y-92187134D01*
X163779763Y-92130670D01*
X163656755Y-92121327D01*
X163539804Y-92160576D01*
X162846984Y-92560576D01*
X162759792Y-92635458D01*
X162703328Y-92745139D01*
X162693985Y-92868147D01*
X162733234Y-92985098D01*
X162775834Y-93058883D01*
X157493666Y-96108544D01*
X157374447Y-96213096D01*
X157374446Y-96213097D01*
X157304313Y-96355314D01*
X157069229Y-97232668D01*
X156993326Y-97276490D01*
X156644125Y-96671656D01*
X156569243Y-96584464D01*
X156459562Y-96528000D01*
X156336554Y-96518657D01*
X156219603Y-96557906D01*
X155526783Y-96957906D01*
X155439591Y-97032788D01*
X155383127Y-97142469D01*
X155373784Y-97265477D01*
X155410956Y-97376239D01*
X155180199Y-97509466D01*
X155060980Y-97614017D01*
X155031551Y-97673693D01*
X150787958Y-100123732D01*
X150703057Y-100100983D01*
X150631474Y-100096292D01*
X150544828Y-100090612D01*
X150394674Y-100141583D01*
X149399838Y-100715953D01*
X149298552Y-100673895D01*
X149057948Y-100673685D01*
X148835578Y-100765566D01*
X148665296Y-100935551D01*
X148573027Y-101157760D01*
X148572817Y-101398364D01*
X127601658Y-101398364D01*
X127519420Y-101199334D01*
X127349435Y-101029052D01*
X127127226Y-100936783D01*
X126886622Y-100936573D01*
X126664252Y-101028454D01*
X126605542Y-101087062D01*
X120178284Y-97376283D01*
X120214197Y-97273982D01*
X120208255Y-97150763D01*
X120154843Y-97039564D01*
X120062377Y-96957906D01*
X119369557Y-96557906D01*
X119261111Y-96519836D01*
X119137892Y-96525778D01*
X119026693Y-96579190D01*
X118946160Y-96670382D01*
X112705885Y-93122907D01*
X112740199Y-93025160D01*
X112734257Y-92901941D01*
X112680845Y-92790742D01*
X112588379Y-92709084D01*
X111895559Y-92309084D01*
X111787113Y-92271014D01*
X111663894Y-92276956D01*
X111552695Y-92330368D01*
X111482593Y-92409748D01*
X104933992Y-88496122D01*
X104936126Y-88492425D01*
X104974196Y-88383979D01*
X104968254Y-88260760D01*
X104914842Y-88149561D01*
X104822376Y-88067903D01*
X104129556Y-87667903D01*
X104021110Y-87629833D01*
X103897891Y-87635775D01*
X103786692Y-87689187D01*
X103705034Y-87781653D01*
X103305034Y-88474473D01*
X103266964Y-88582919D01*
X97604311Y-88582919D01*
X98404310Y-87197279D01*
X104066964Y-87197279D01*
X104072906Y-87320498D01*
X104126318Y-87431697D01*
X104218784Y-87513355D01*
X104911604Y-87913355D01*
X105020050Y-87951425D01*
X105143269Y-87945483D01*
X105254468Y-87892071D01*
X105331802Y-87804501D01*
X111501719Y-91366705D01*
X111591154Y-91397064D01*
X111651872Y-91417676D01*
X111651874Y-91417676D01*
X111810103Y-91407304D01*
X111810104Y-91407303D01*
X112102604Y-91328929D01*
X111871037Y-91730014D01*
X111832967Y-91838460D01*
X111838909Y-91961679D01*
X111892321Y-92072878D01*
X111984787Y-92154536D01*
X112677607Y-92554536D01*
X112786053Y-92592606D01*
X112909272Y-92586664D01*
X113020471Y-92533252D01*
X113097808Y-92445679D01*
X118622498Y-95635361D01*
X118772652Y-95686332D01*
X118862137Y-95680466D01*
X118930880Y-95675961D01*
X119627696Y-95489253D01*
X119345035Y-95978836D01*
X119306965Y-96087282D01*
X119312907Y-96210501D01*
X119366319Y-96321700D01*
X119458785Y-96403358D01*
X120151605Y-96803358D01*
X120260051Y-96841428D01*
X120383270Y-96835486D01*
X120494469Y-96782074D01*
X120561711Y-96705932D01*
X122639977Y-97905820D01*
X125146690Y-99353074D01*
X125205013Y-99471342D01*
X125324231Y-99575894D01*
X125324232Y-99575894D01*
X125324233Y-99575895D01*
X126523719Y-100268419D01*
X126554807Y-100343657D01*
X126724792Y-100513939D01*
X126947001Y-100606208D01*
X127187605Y-100606418D01*
X127382849Y-100525745D01*
X147290818Y-100525745D01*
X147382699Y-100748115D01*
X147552684Y-100918397D01*
X147774893Y-101010666D01*
X148015497Y-101010876D01*
X148237867Y-100918995D01*
X148408149Y-100749010D01*
X148500418Y-100526801D01*
X148500479Y-100457023D01*
X155017276Y-96694548D01*
X155087915Y-96776800D01*
X155197596Y-96833264D01*
X155320604Y-96842607D01*
X155437555Y-96803358D01*
X156130375Y-96403358D01*
X156217567Y-96328476D01*
X156274031Y-96218795D01*
X156283374Y-96095787D01*
X156244680Y-95980489D01*
X162401245Y-92371470D01*
X162408116Y-92379470D01*
X162517797Y-92435934D01*
X162640805Y-92445277D01*
X162757756Y-92406028D01*
X163450576Y-92006028D01*
X163537768Y-91931146D01*
X163594232Y-91821465D01*
X163603575Y-91698457D01*
X163566403Y-91587695D01*
X170374740Y-87656905D01*
X170437601Y-87689266D01*
X170560609Y-87698609D01*
X170677560Y-87659360D01*
X171370380Y-87259360D01*
X171457572Y-87184478D01*
X171514036Y-87074797D01*
X171523379Y-86951789D01*
X171484130Y-86834838D01*
X171084130Y-86142018D01*
X171009248Y-86054826D01*
X170899567Y-85998362D01*
X170776559Y-85989019D01*
X170659608Y-86028268D01*
X169966788Y-86428268D01*
X169879596Y-86503150D01*
X169823132Y-86612831D01*
X169813789Y-86735839D01*
X169853038Y-86852790D01*
X169925256Y-86977875D01*
X163160082Y-90883744D01*
X163089444Y-90801494D01*
X162979763Y-90745030D01*
X162856755Y-90735687D01*
X162739804Y-90774936D01*
X162046984Y-91174936D01*
X161959792Y-91249818D01*
X161903328Y-91359499D01*
X161893985Y-91482507D01*
X161933234Y-91599458D01*
X161978183Y-91677311D01*
X155836767Y-95277449D01*
X155769243Y-95198824D01*
X155659562Y-95142360D01*
X155536554Y-95133017D01*
X155419603Y-95172266D01*
X154726783Y-95572266D01*
X154639591Y-95647148D01*
X154583127Y-95756829D01*
X154573784Y-95879837D01*
X154610955Y-95990596D01*
X148010673Y-99801271D01*
X147775949Y-99801066D01*
X147553579Y-99892947D01*
X147383297Y-100062932D01*
X147291028Y-100285141D01*
X147290818Y-100525745D01*
X127382849Y-100525745D01*
X127409975Y-100514537D01*
X127580257Y-100344552D01*
X127672526Y-100122343D01*
X127672736Y-99881739D01*
X127580855Y-99659369D01*
X127410870Y-99489087D01*
X127221357Y-99410395D01*
X127266614Y-99301404D01*
X127266824Y-99060800D01*
X127174943Y-98838430D01*
X127004958Y-98668148D01*
X126815756Y-98589585D01*
X126862006Y-98478203D01*
X126862169Y-98290774D01*
X136308157Y-98290774D01*
X136400038Y-98513144D01*
X136570023Y-98683426D01*
X136792232Y-98775695D01*
X137032836Y-98775905D01*
X137255206Y-98684024D01*
X137362016Y-98577400D01*
X137727120Y-98577400D01*
X137832961Y-98683426D01*
X138055170Y-98775695D01*
X138295774Y-98775905D01*
X138518144Y-98684024D01*
X138688426Y-98514039D01*
X138780695Y-98291830D01*
X138780905Y-98051226D01*
X138689024Y-97828856D01*
X138519039Y-97658574D01*
X138296830Y-97566305D01*
X138056226Y-97566095D01*
X137833856Y-97657976D01*
X137727046Y-97764600D01*
X137361942Y-97764600D01*
X137256101Y-97658574D01*
X137033892Y-97566305D01*
X136793288Y-97566095D01*
X136570918Y-97657976D01*
X136400636Y-97827961D01*
X136308367Y-98050170D01*
X136308157Y-98290774D01*
X126862169Y-98290774D01*
X126862216Y-98237599D01*
X126770335Y-98015229D01*
X126600350Y-97844947D01*
X126378141Y-97752678D01*
X126137537Y-97752468D01*
X125915167Y-97844349D01*
X125867377Y-97892056D01*
X123452791Y-96497993D01*
X122072574Y-95701126D01*
X122001454Y-95435700D01*
X121931321Y-95293483D01*
X121891516Y-95258575D01*
X121812102Y-95188931D01*
X120127521Y-94216336D01*
X120115826Y-94212366D01*
X120106072Y-94204796D01*
X120106069Y-94204794D01*
X120041135Y-94187011D01*
X119977367Y-94165365D01*
X119965041Y-94166173D01*
X119953130Y-94162911D01*
X119886324Y-94171333D01*
X119819137Y-94175737D01*
X119819125Y-94175743D01*
X118940533Y-94411163D01*
X114040161Y-91581927D01*
X113974507Y-91336917D01*
X113926175Y-91238911D01*
X113904376Y-91194706D01*
X113904374Y-91194704D01*
X113904372Y-91194700D01*
X113819115Y-91119935D01*
X113785156Y-91090154D01*
X112684600Y-90454744D01*
X112534446Y-90403772D01*
X112534445Y-90403772D01*
X112380152Y-90413886D01*
X112376216Y-90414144D01*
X111762336Y-90578632D01*
X105738282Y-87100642D01*
X105774196Y-86998339D01*
X105768254Y-86875120D01*
X105714842Y-86763921D01*
X105622376Y-86682263D01*
X104929556Y-86282263D01*
X104821110Y-86244193D01*
X104697891Y-86250135D01*
X104586692Y-86303547D01*
X104505034Y-86396013D01*
X104105034Y-87088833D01*
X104066964Y-87197279D01*
X98404310Y-87197279D01*
X102057404Y-80869932D01*
X108327602Y-84490036D01*
X108467928Y-84537670D01*
X108615801Y-84527978D01*
X108748709Y-84462435D01*
X108846418Y-84351020D01*
X108894052Y-84210694D01*
X108892072Y-84180481D01*
X108884361Y-84062820D01*
X107123253Y-77490269D01*
X113328943Y-75827461D01*
X116949460Y-89339417D01*
X116949496Y-89339490D01*
X116949501Y-89339565D01*
X116981378Y-89404140D01*
X117015004Y-89472325D01*
X117015064Y-89472377D01*
X117015098Y-89472447D01*
X117070163Y-89520698D01*
X117126419Y-89570034D01*
X117126494Y-89570060D01*
X117126553Y-89570111D01*
X127470215Y-95536428D01*
X127517932Y-95552604D01*
X127563210Y-95574699D01*
X127587508Y-95576190D01*
X127610561Y-95584005D01*
X127660836Y-95580689D01*
X127711122Y-95583775D01*
X127734138Y-95575855D01*
X127758430Y-95574253D01*
X127803611Y-95551949D01*
X127851249Y-95535557D01*
X127981276Y-95459762D01*
X134521372Y-95459762D01*
X134613253Y-95682132D01*
X134783238Y-95852414D01*
X135005447Y-95944683D01*
X135246051Y-95944893D01*
X135468421Y-95853012D01*
X135638703Y-95683027D01*
X135730972Y-95460818D01*
X135730974Y-95459055D01*
X137236910Y-94585542D01*
X137284053Y-94544030D01*
X137334469Y-94506539D01*
X137343178Y-94491967D01*
X137355918Y-94480749D01*
X137383587Y-94424355D01*
X137415818Y-94370426D01*
X137418288Y-94353629D01*
X137425764Y-94338391D01*
X137429746Y-94275697D01*
X137430788Y-94268607D01*
X137801957Y-94268607D01*
X137893838Y-94490977D01*
X138063823Y-94661259D01*
X138286032Y-94753528D01*
X138526636Y-94753738D01*
X138749006Y-94661857D01*
X138919288Y-94491872D01*
X139011557Y-94269663D01*
X139011736Y-94064410D01*
X139161634Y-94064541D01*
X139384004Y-93972660D01*
X139554286Y-93802675D01*
X139646555Y-93580466D01*
X139646765Y-93339862D01*
X139631311Y-93302461D01*
X139725566Y-93302543D01*
X139947936Y-93210662D01*
X140118218Y-93040677D01*
X140210487Y-92818468D01*
X140210697Y-92577864D01*
X140118816Y-92355494D01*
X139948831Y-92185212D01*
X139813801Y-92129143D01*
X139813803Y-90820287D01*
X139813803Y-90820285D01*
X139813799Y-87438550D01*
X139993160Y-87259189D01*
X140081257Y-87127344D01*
X140112192Y-86971821D01*
X140112193Y-85270750D01*
X140081258Y-85115227D01*
X139993161Y-84983382D01*
X139993162Y-84983382D01*
X139993160Y-84983380D01*
X139397384Y-84387610D01*
X139397386Y-78644215D01*
X139586752Y-78454848D01*
X139630514Y-78389354D01*
X139674849Y-78323003D01*
X139705784Y-78167480D01*
X139705783Y-76549090D01*
X139674848Y-76393567D01*
X139674848Y-76393566D01*
X139586750Y-76261721D01*
X139000981Y-75675956D01*
X139000981Y-68942196D01*
X139107530Y-68922148D01*
X139211270Y-68855393D01*
X139280865Y-68753537D01*
X139305349Y-68632630D01*
X139305349Y-67832630D01*
X139284096Y-67719678D01*
X139217341Y-67615938D01*
X139115485Y-67546343D01*
X138994578Y-67521859D01*
X138194578Y-67521859D01*
X138081626Y-67543112D01*
X137977886Y-67609867D01*
X137908291Y-67711723D01*
X137883807Y-67832630D01*
X137883807Y-68632630D01*
X137905060Y-68745582D01*
X137971815Y-68849322D01*
X138073671Y-68918917D01*
X138188181Y-68942106D01*
X138188181Y-75844294D01*
X138219116Y-75999817D01*
X138307214Y-76131662D01*
X138892983Y-76717427D01*
X138892983Y-76919862D01*
X138194581Y-76919862D01*
X138081629Y-76941115D01*
X137977889Y-77007870D01*
X137908294Y-77109726D01*
X137883810Y-77230633D01*
X137883810Y-78030633D01*
X137905063Y-78143585D01*
X137971818Y-78247325D01*
X138073674Y-78316920D01*
X138178175Y-78338082D01*
X138178178Y-84724288D01*
X138178178Y-84724289D01*
X138209113Y-84879811D01*
X138297210Y-85011657D01*
X138841416Y-85555861D01*
X138194578Y-85555861D01*
X138081626Y-85577114D01*
X137977886Y-85643869D01*
X137908291Y-85745725D01*
X137883807Y-85866632D01*
X137883807Y-86666632D01*
X137905060Y-86779584D01*
X137971815Y-86883324D01*
X138073671Y-86952919D01*
X138188178Y-86976107D01*
X138188179Y-91278007D01*
X138178178Y-91328286D01*
X138188179Y-91378566D01*
X138188181Y-92027647D01*
X138149694Y-92066134D01*
X138061597Y-92197979D01*
X138030662Y-92353502D01*
X138030661Y-93669806D01*
X137894436Y-93805794D01*
X137802167Y-94028003D01*
X137801957Y-94268607D01*
X137430788Y-94268607D01*
X137438885Y-94213543D01*
X137400978Y-93461448D01*
X137400978Y-86976199D01*
X137507530Y-86956150D01*
X137611270Y-86889395D01*
X137680865Y-86787539D01*
X137705349Y-86666632D01*
X137705349Y-85866632D01*
X137684096Y-85753680D01*
X137617341Y-85649940D01*
X137515485Y-85580345D01*
X137400982Y-85557158D01*
X137400980Y-78340200D01*
X137507533Y-78320151D01*
X137611273Y-78253396D01*
X137680868Y-78151540D01*
X137705352Y-78030633D01*
X137705352Y-77230633D01*
X137684099Y-77117681D01*
X137617344Y-77013941D01*
X137515488Y-76944346D01*
X137400980Y-76921158D01*
X137400983Y-68942196D01*
X137507530Y-68922148D01*
X137611270Y-68855393D01*
X137680865Y-68753537D01*
X137705349Y-68632630D01*
X137705349Y-67832630D01*
X137684096Y-67719678D01*
X137617341Y-67615938D01*
X137515485Y-67546343D01*
X137394578Y-67521859D01*
X136594578Y-67521859D01*
X136481626Y-67543112D01*
X136377886Y-67609867D01*
X136308291Y-67711723D01*
X136283807Y-67832630D01*
X136283807Y-68632630D01*
X136305060Y-68745582D01*
X136371815Y-68849322D01*
X136473671Y-68918917D01*
X136588183Y-68942106D01*
X136588180Y-76921066D01*
X136481629Y-76941115D01*
X136377889Y-77007870D01*
X136308294Y-77109726D01*
X136283810Y-77230633D01*
X136283810Y-78030633D01*
X136305063Y-78143585D01*
X136371818Y-78247325D01*
X136473674Y-78316920D01*
X136588180Y-78340108D01*
X136588182Y-85557064D01*
X136481626Y-85577114D01*
X136377886Y-85643869D01*
X136308291Y-85745725D01*
X136283807Y-85866632D01*
X136283807Y-86666632D01*
X136305060Y-86779584D01*
X136371815Y-86883324D01*
X136473671Y-86952919D01*
X136588178Y-86976107D01*
X136588178Y-93471687D01*
X136590204Y-93481870D01*
X136588693Y-93492144D01*
X136614635Y-94006851D01*
X135312203Y-94762323D01*
X135247107Y-94735293D01*
X135006503Y-94735083D01*
X134784133Y-94826964D01*
X134613851Y-94996949D01*
X134521582Y-95219158D01*
X134521372Y-95459762D01*
X127981276Y-95459762D01*
X132905849Y-92589154D01*
X132942501Y-92556740D01*
X132983170Y-92529559D01*
X132997512Y-92508089D01*
X133016856Y-92490982D01*
X133038312Y-92447013D01*
X133065486Y-92406334D01*
X133070521Y-92381008D01*
X133081845Y-92357802D01*
X133084841Y-92308975D01*
X133094381Y-92260988D01*
X133093031Y-80351839D01*
X133078123Y-80276936D01*
X133064120Y-80206539D01*
X133064109Y-80206522D01*
X133064104Y-80206499D01*
X133021394Y-80142596D01*
X132981790Y-80083323D01*
X123090347Y-70191887D01*
X127633226Y-65649000D01*
X132444671Y-70460444D01*
X132444672Y-70460445D01*
X132567888Y-70542775D01*
X132713231Y-70571686D01*
X132858574Y-70542775D01*
X132981790Y-70460445D01*
X133064120Y-70337229D01*
X133093031Y-70191886D01*
X133093031Y-70191885D01*
X133093030Y-62951685D01*
X142493431Y-62951690D01*
G36*
X139679390Y-118050545D02*
X139664102Y-118035230D01*
X139441893Y-117942961D01*
X139201289Y-117942751D01*
X138978919Y-118034632D01*
X138808637Y-118204617D01*
X138716368Y-118426826D01*
X138716236Y-118577745D01*
X138345214Y-118948766D01*
X138257117Y-119080612D01*
X138227059Y-119231728D01*
X138226182Y-119236135D01*
X138226182Y-126705063D01*
X138119630Y-126725112D01*
X138015890Y-126791867D01*
X137946295Y-126893723D01*
X137921811Y-127014630D01*
X137921811Y-127814630D01*
X137943064Y-127927582D01*
X138009819Y-128031322D01*
X138111675Y-128100917D01*
X138226180Y-128124105D01*
X138226179Y-130893868D01*
X138138039Y-130805574D01*
X137915830Y-130713305D01*
X137675226Y-130713095D01*
X137452856Y-130804976D01*
X137282574Y-130974961D01*
X137190305Y-131197170D01*
X137190173Y-131348091D01*
X136928216Y-131610048D01*
X136840119Y-131741893D01*
X136809184Y-131897416D01*
X136809184Y-134326237D01*
X136734181Y-134401109D01*
X136734182Y-128125401D01*
X137432582Y-128125401D01*
X137545534Y-128104148D01*
X137649274Y-128037393D01*
X137718869Y-127935537D01*
X137743353Y-127814630D01*
X137743353Y-127014630D01*
X137722100Y-126901678D01*
X137655345Y-126797938D01*
X137553489Y-126728343D01*
X137438980Y-126705155D01*
X137438981Y-121646732D01*
X137524628Y-121561085D01*
X137612726Y-121429240D01*
X137643661Y-121273718D01*
X137643661Y-121273716D01*
X137643660Y-120253714D01*
X137779887Y-120117725D01*
X137872156Y-119895516D01*
X137872366Y-119654912D01*
X137780485Y-119432542D01*
X137610500Y-119262260D01*
X137388291Y-119169991D01*
X137147687Y-119169781D01*
X136925317Y-119261662D01*
X136755035Y-119431647D01*
X136662766Y-119653856D01*
X136662556Y-119894460D01*
X136678037Y-119931926D01*
X136512688Y-119931782D01*
X136290318Y-120023663D01*
X136120036Y-120193648D01*
X136027767Y-120415857D01*
X136027635Y-120566912D01*
X135877685Y-120566781D01*
X135655315Y-120658662D01*
X135485033Y-120828647D01*
X135392764Y-121050856D01*
X135392554Y-121291460D01*
X135484435Y-121513830D01*
X135654420Y-121684112D01*
X135813361Y-121750110D01*
X135813361Y-126214366D01*
X135661400Y-126366328D01*
X135661400Y-125133528D01*
X135732695Y-124961830D01*
X135732905Y-124721226D01*
X135641024Y-124498856D01*
X135471039Y-124328574D01*
X135248830Y-124236305D01*
X135008226Y-124236095D01*
X134929599Y-124268583D01*
X134929599Y-115708137D01*
X139679390Y-110958346D01*
X139679390Y-118050545D01*
X139679390Y-118050545D01*
G37*
X139679390Y-118050545D02*
X139664102Y-118035230D01*
X139441893Y-117942961D01*
X139201289Y-117942751D01*
X138978919Y-118034632D01*
X138808637Y-118204617D01*
X138716368Y-118426826D01*
X138716236Y-118577745D01*
X138345214Y-118948766D01*
X138257117Y-119080612D01*
X138227059Y-119231728D01*
X138226182Y-119236135D01*
X138226182Y-126705063D01*
X138119630Y-126725112D01*
X138015890Y-126791867D01*
X137946295Y-126893723D01*
X137921811Y-127014630D01*
X137921811Y-127814630D01*
X137943064Y-127927582D01*
X138009819Y-128031322D01*
X138111675Y-128100917D01*
X138226180Y-128124105D01*
X138226179Y-130893868D01*
X138138039Y-130805574D01*
X137915830Y-130713305D01*
X137675226Y-130713095D01*
X137452856Y-130804976D01*
X137282574Y-130974961D01*
X137190305Y-131197170D01*
X137190173Y-131348091D01*
X136928216Y-131610048D01*
X136840119Y-131741893D01*
X136809184Y-131897416D01*
X136809184Y-134326237D01*
X136734181Y-134401109D01*
X136734182Y-128125401D01*
X137432582Y-128125401D01*
X137545534Y-128104148D01*
X137649274Y-128037393D01*
X137718869Y-127935537D01*
X137743353Y-127814630D01*
X137743353Y-127014630D01*
X137722100Y-126901678D01*
X137655345Y-126797938D01*
X137553489Y-126728343D01*
X137438980Y-126705155D01*
X137438981Y-121646732D01*
X137524628Y-121561085D01*
X137612726Y-121429240D01*
X137643661Y-121273718D01*
X137643661Y-121273716D01*
X137643660Y-120253714D01*
X137779887Y-120117725D01*
X137872156Y-119895516D01*
X137872366Y-119654912D01*
X137780485Y-119432542D01*
X137610500Y-119262260D01*
X137388291Y-119169991D01*
X137147687Y-119169781D01*
X136925317Y-119261662D01*
X136755035Y-119431647D01*
X136662766Y-119653856D01*
X136662556Y-119894460D01*
X136678037Y-119931926D01*
X136512688Y-119931782D01*
X136290318Y-120023663D01*
X136120036Y-120193648D01*
X136027767Y-120415857D01*
X136027635Y-120566912D01*
X135877685Y-120566781D01*
X135655315Y-120658662D01*
X135485033Y-120828647D01*
X135392764Y-121050856D01*
X135392554Y-121291460D01*
X135484435Y-121513830D01*
X135654420Y-121684112D01*
X135813361Y-121750110D01*
X135813361Y-126214366D01*
X135661400Y-126366328D01*
X135661400Y-125133528D01*
X135732695Y-124961830D01*
X135732905Y-124721226D01*
X135641024Y-124498856D01*
X135471039Y-124328574D01*
X135248830Y-124236305D01*
X135008226Y-124236095D01*
X134929599Y-124268583D01*
X134929599Y-115708137D01*
X139679390Y-110958346D01*
X139679390Y-118050545D01*
G36*
X134911961Y-127512426D02*
X135134170Y-127604695D01*
X135374774Y-127604905D01*
X135514972Y-127546977D01*
X135514970Y-134093526D01*
X135437399Y-134061316D01*
X135286478Y-134061184D01*
X134010400Y-132785106D01*
X134010400Y-127513320D01*
X134194369Y-127589710D01*
X134434973Y-127589920D01*
X134657343Y-127498039D01*
X134777681Y-127377911D01*
X134911961Y-127512426D01*
X134911961Y-127512426D01*
G37*
X134911961Y-127512426D02*
X135134170Y-127604695D01*
X135374774Y-127604905D01*
X135514972Y-127546977D01*
X135514970Y-134093526D01*
X135437399Y-134061316D01*
X135286478Y-134061184D01*
X134010400Y-132785106D01*
X134010400Y-127513320D01*
X134194369Y-127589710D01*
X134434973Y-127589920D01*
X134657343Y-127498039D01*
X134777681Y-127377911D01*
X134911961Y-127512426D01*
M02*
