G04 #@! TF.FileFunction,Soldermask,Bot*
%FSLAX46Y46*%
G04 Gerber Fmt 4.6, Leading zero omitted, Abs format (unit mm)*
G04 Created by KiCad (PCBNEW 4.0.5+dfsg1-4) date Thu Nov 23 17:58:13 2017*
%MOMM*%
%LPD*%
G01*
G04 APERTURE LIST*
%ADD10C,0.100000*%
%ADD11R,3.000000X3.400000*%
%ADD12R,4.000000X3.400000*%
%ADD13R,1.924000X1.924000*%
%ADD14R,0.900000X1.300000*%
%ADD15R,2.400000X3.400000*%
G04 APERTURE END LIST*
D10*
D11*
X137517862Y-117589639D03*
D12*
X137517862Y-96152039D03*
D10*
G36*
X140867190Y-121639018D02*
X140054018Y-122452190D01*
X139205490Y-121603662D01*
X140018662Y-120790490D01*
X140867190Y-121639018D01*
X140867190Y-121639018D01*
G37*
G36*
X141927850Y-122699678D02*
X141114678Y-123512850D01*
X140266150Y-122664322D01*
X141079322Y-121851150D01*
X141927850Y-122699678D01*
X141927850Y-122699678D01*
G37*
G36*
X131906060Y-139611284D02*
X132719232Y-138798112D01*
X133567760Y-139646640D01*
X132754588Y-140459812D01*
X131906060Y-139611284D01*
X131906060Y-139611284D01*
G37*
G36*
X130845400Y-138550624D02*
X131658572Y-137737452D01*
X132507100Y-138585980D01*
X131693928Y-139399152D01*
X130845400Y-138550624D01*
X130845400Y-138550624D01*
G37*
D13*
X140462000Y-130048000D03*
X137922000Y-130048000D03*
X137922000Y-132588000D03*
X140462000Y-132588000D03*
X135382000Y-130048000D03*
X135382000Y-132588000D03*
D14*
X146570000Y-109728000D03*
X148070000Y-109728000D03*
X146570000Y-108077000D03*
X148070000Y-108077000D03*
X146558000Y-106426000D03*
X148058000Y-106426000D03*
D15*
X139572582Y-139606632D03*
X136172582Y-139606632D03*
D14*
X134988582Y-136812629D03*
X133488582Y-136812629D03*
D10*
G36*
X147296041Y-140154818D02*
X148427412Y-141286189D01*
X147296041Y-142417560D01*
X146164670Y-141286189D01*
X147296041Y-140154818D01*
X147296041Y-140154818D01*
G37*
G36*
X145316142Y-142134717D02*
X146447513Y-143266088D01*
X145316142Y-144397459D01*
X144184771Y-143266088D01*
X145316142Y-142134717D01*
X145316142Y-142134717D01*
G37*
G36*
X144050421Y-138606255D02*
X145393924Y-139949758D01*
X143979711Y-141363971D01*
X142636208Y-140020468D01*
X144050421Y-138606255D01*
X144050421Y-138606255D01*
G37*
G36*
X152837839Y-117965923D02*
X154569889Y-118965923D01*
X153969889Y-120005153D01*
X152237839Y-119005153D01*
X152837839Y-117965923D01*
X152837839Y-117965923D01*
G37*
G36*
X154087839Y-115800859D02*
X155819889Y-116800859D01*
X155219889Y-117840089D01*
X153487839Y-116840089D01*
X154087839Y-115800859D01*
X154087839Y-115800859D01*
G37*
G36*
X155337839Y-113635796D02*
X157069889Y-114635796D01*
X156469889Y-115675026D01*
X154737839Y-114675026D01*
X155337839Y-113635796D01*
X155337839Y-113635796D01*
G37*
G36*
X150672776Y-116715923D02*
X152404826Y-117715923D01*
X151804826Y-118755153D01*
X150072776Y-117755153D01*
X150672776Y-116715923D01*
X150672776Y-116715923D01*
G37*
G36*
X151922776Y-114550859D02*
X153654826Y-115550859D01*
X153054826Y-116590089D01*
X151322776Y-115590089D01*
X151922776Y-114550859D01*
X151922776Y-114550859D01*
G37*
G36*
X153172776Y-112385796D02*
X154904826Y-113385796D01*
X154304826Y-114425026D01*
X152572776Y-113425026D01*
X153172776Y-112385796D01*
X153172776Y-112385796D01*
G37*
G36*
X129669557Y-143721619D02*
X128927095Y-142979157D01*
X129959471Y-141946781D01*
X130701933Y-142689243D01*
X129669557Y-143721619D01*
X129669557Y-143721619D01*
G37*
G36*
X128997806Y-143049867D02*
X128255344Y-142307405D01*
X129287720Y-141275029D01*
X130030182Y-142017491D01*
X128997806Y-143049867D01*
X128997806Y-143049867D01*
G37*
G36*
X128326054Y-142378116D02*
X127583592Y-141635654D01*
X128615968Y-140603278D01*
X129358430Y-141345740D01*
X128326054Y-142378116D01*
X128326054Y-142378116D01*
G37*
G36*
X129881689Y-140822481D02*
X129139227Y-140080019D01*
X130171603Y-139047643D01*
X130914065Y-139790105D01*
X129881689Y-140822481D01*
X129881689Y-140822481D01*
G37*
G36*
X131225192Y-142165984D02*
X130482730Y-141423522D01*
X131515106Y-140391146D01*
X132257568Y-141133608D01*
X131225192Y-142165984D01*
X131225192Y-142165984D01*
G37*
G36*
X135113853Y-124022614D02*
X135608828Y-123527639D01*
X136407859Y-124326670D01*
X135912884Y-124821645D01*
X135113853Y-124022614D01*
X135113853Y-124022614D01*
G37*
G36*
X135467407Y-123669061D02*
X135962382Y-123174086D01*
X136761413Y-123973117D01*
X136266438Y-124468092D01*
X135467407Y-123669061D01*
X135467407Y-123669061D01*
G37*
G36*
X135820960Y-123315507D02*
X136315935Y-122820532D01*
X137114966Y-123619563D01*
X136619991Y-124114538D01*
X135820960Y-123315507D01*
X135820960Y-123315507D01*
G37*
G36*
X136174514Y-122961954D02*
X136669489Y-122466979D01*
X137468520Y-123266010D01*
X136973545Y-123760985D01*
X136174514Y-122961954D01*
X136174514Y-122961954D01*
G37*
G36*
X136528067Y-122608400D02*
X137023042Y-122113425D01*
X137822073Y-122912456D01*
X137327098Y-123407431D01*
X136528067Y-122608400D01*
X136528067Y-122608400D01*
G37*
G36*
X138691814Y-122113425D02*
X139186789Y-122608400D01*
X138387758Y-123407431D01*
X137892783Y-122912456D01*
X138691814Y-122113425D01*
X138691814Y-122113425D01*
G37*
G36*
X139045367Y-122466979D02*
X139540342Y-122961954D01*
X138741311Y-123760985D01*
X138246336Y-123266010D01*
X139045367Y-122466979D01*
X139045367Y-122466979D01*
G37*
G36*
X139398921Y-122820532D02*
X139893896Y-123315507D01*
X139094865Y-124114538D01*
X138599890Y-123619563D01*
X139398921Y-122820532D01*
X139398921Y-122820532D01*
G37*
G36*
X139752474Y-123174086D02*
X140247449Y-123669061D01*
X139448418Y-124468092D01*
X138953443Y-123973117D01*
X139752474Y-123174086D01*
X139752474Y-123174086D01*
G37*
G36*
X140106028Y-123527639D02*
X140601003Y-124022614D01*
X139801972Y-124821645D01*
X139306997Y-124326670D01*
X140106028Y-123527639D01*
X140106028Y-123527639D01*
G37*
G36*
X139306997Y-125387330D02*
X139801972Y-124892355D01*
X140601003Y-125691386D01*
X140106028Y-126186361D01*
X139306997Y-125387330D01*
X139306997Y-125387330D01*
G37*
G36*
X138953443Y-125740883D02*
X139448418Y-125245908D01*
X140247449Y-126044939D01*
X139752474Y-126539914D01*
X138953443Y-125740883D01*
X138953443Y-125740883D01*
G37*
G36*
X138599890Y-126094437D02*
X139094865Y-125599462D01*
X139893896Y-126398493D01*
X139398921Y-126893468D01*
X138599890Y-126094437D01*
X138599890Y-126094437D01*
G37*
G36*
X138246336Y-126447990D02*
X138741311Y-125953015D01*
X139540342Y-126752046D01*
X139045367Y-127247021D01*
X138246336Y-126447990D01*
X138246336Y-126447990D01*
G37*
G36*
X137892783Y-126801544D02*
X138387758Y-126306569D01*
X139186789Y-127105600D01*
X138691814Y-127600575D01*
X137892783Y-126801544D01*
X137892783Y-126801544D01*
G37*
G36*
X137327098Y-126306569D02*
X137822073Y-126801544D01*
X137023042Y-127600575D01*
X136528067Y-127105600D01*
X137327098Y-126306569D01*
X137327098Y-126306569D01*
G37*
G36*
X136973545Y-125953015D02*
X137468520Y-126447990D01*
X136669489Y-127247021D01*
X136174514Y-126752046D01*
X136973545Y-125953015D01*
X136973545Y-125953015D01*
G37*
G36*
X136619991Y-125599462D02*
X137114966Y-126094437D01*
X136315935Y-126893468D01*
X135820960Y-126398493D01*
X136619991Y-125599462D01*
X136619991Y-125599462D01*
G37*
G36*
X136266438Y-125245908D02*
X136761413Y-125740883D01*
X135962382Y-126539914D01*
X135467407Y-126044939D01*
X136266438Y-125245908D01*
X136266438Y-125245908D01*
G37*
G36*
X135912884Y-124892355D02*
X136407859Y-125387330D01*
X135608828Y-126186361D01*
X135113853Y-125691386D01*
X135912884Y-124892355D01*
X135912884Y-124892355D01*
G37*
G36*
X137574585Y-124857000D02*
X138741311Y-123690274D01*
X139908037Y-124857000D01*
X138741311Y-126023726D01*
X137574585Y-124857000D01*
X137574585Y-124857000D01*
G37*
G36*
X136690702Y-125740883D02*
X137857428Y-124574157D01*
X139024154Y-125740883D01*
X137857428Y-126907609D01*
X136690702Y-125740883D01*
X136690702Y-125740883D01*
G37*
G36*
X136690702Y-123973117D02*
X137857428Y-122806391D01*
X139024154Y-123973117D01*
X137857428Y-125139843D01*
X136690702Y-123973117D01*
X136690702Y-123973117D01*
G37*
G36*
X135806819Y-124857000D02*
X136973545Y-123690274D01*
X138140271Y-124857000D01*
X136973545Y-126023726D01*
X135806819Y-124857000D01*
X135806819Y-124857000D01*
G37*
M02*
