G04 #@! TF.FileFunction,Soldermask,Top*
%FSLAX46Y46*%
G04 Gerber Fmt 4.6, Leading zero omitted, Abs format (unit mm)*
G04 Created by KiCad (PCBNEW 4.0.5+dfsg1-4) date Thu Nov 23 17:58:13 2017*
%MOMM*%
%LPD*%
G01*
G04 APERTURE LIST*
%ADD10C,0.100000*%
%ADD11R,1.200000X1.200000*%
G04 APERTURE END LIST*
D10*
G36*
X121234199Y-118167067D02*
X120194969Y-118767067D01*
X119594969Y-117727837D01*
X120634199Y-117127837D01*
X121234199Y-118167067D01*
X121234199Y-118167067D01*
G37*
G36*
X120434199Y-116781427D02*
X119394969Y-117381427D01*
X118794969Y-116342197D01*
X119834199Y-115742197D01*
X120434199Y-116781427D01*
X120434199Y-116781427D01*
G37*
G36*
X119580196Y-98193067D02*
X118540966Y-97593067D01*
X119140966Y-96553837D01*
X120180196Y-97153837D01*
X119580196Y-98193067D01*
X119580196Y-98193067D01*
G37*
G36*
X120380196Y-96807427D02*
X119340966Y-96207427D01*
X119940966Y-95168197D01*
X120980196Y-95768197D01*
X120380196Y-96807427D01*
X120380196Y-96807427D01*
G37*
D11*
X136994578Y-86266632D03*
X138594578Y-86266632D03*
D10*
G36*
X154608964Y-95768197D02*
X155648194Y-95168197D01*
X156248194Y-96207427D01*
X155208964Y-96807427D01*
X154608964Y-95768197D01*
X154608964Y-95768197D01*
G37*
G36*
X155408964Y-97153837D02*
X156448194Y-96553837D01*
X157048194Y-97593067D01*
X156008964Y-98193067D01*
X155408964Y-97153837D01*
X155408964Y-97153837D01*
G37*
G36*
X155646964Y-115811376D02*
X156686194Y-116411376D01*
X156086194Y-117450606D01*
X155046964Y-116850606D01*
X155646964Y-115811376D01*
X155646964Y-115811376D01*
G37*
G36*
X154846964Y-117197016D02*
X155886194Y-117797016D01*
X155286194Y-118836246D01*
X154246964Y-118236246D01*
X154846964Y-117197016D01*
X154846964Y-117197016D01*
G37*
D11*
X138632582Y-127414630D03*
X137032582Y-127414630D03*
D10*
G36*
X113722196Y-122300245D02*
X112682966Y-122900245D01*
X112082966Y-121861015D01*
X113122196Y-121261015D01*
X113722196Y-122300245D01*
X113722196Y-122300245D01*
G37*
G36*
X112922196Y-120914605D02*
X111882966Y-121514605D01*
X111282966Y-120475375D01*
X112322196Y-119875375D01*
X112922196Y-120914605D01*
X112922196Y-120914605D01*
G37*
G36*
X112106198Y-93944245D02*
X111066968Y-93344245D01*
X111666968Y-92305015D01*
X112706198Y-92905015D01*
X112106198Y-93944245D01*
X112106198Y-93944245D01*
G37*
G36*
X112906198Y-92558605D02*
X111866968Y-91958605D01*
X112466968Y-90919375D01*
X113506198Y-91519375D01*
X112906198Y-92558605D01*
X112906198Y-92558605D01*
G37*
D11*
X136994581Y-77630633D03*
X138594581Y-77630633D03*
D10*
G36*
X161929165Y-91370867D02*
X162968395Y-90770867D01*
X163568395Y-91810097D01*
X162529165Y-92410097D01*
X161929165Y-91370867D01*
X161929165Y-91370867D01*
G37*
G36*
X162729165Y-92756507D02*
X163768395Y-92156507D01*
X164368395Y-93195737D01*
X163329165Y-93795737D01*
X162729165Y-92756507D01*
X162729165Y-92756507D01*
G37*
G36*
X163120969Y-120314198D02*
X164160199Y-120914198D01*
X163560199Y-121953428D01*
X162520969Y-121353428D01*
X163120969Y-120314198D01*
X163120969Y-120314198D01*
G37*
G36*
X162320969Y-121699838D02*
X163360199Y-122299838D01*
X162760199Y-123339068D01*
X161720969Y-122739068D01*
X162320969Y-121699838D01*
X162320969Y-121699838D01*
G37*
D11*
X138632581Y-136050631D03*
X137032581Y-136050631D03*
D10*
G36*
X106248194Y-126549064D02*
X105208964Y-127149064D01*
X104608964Y-126109834D01*
X105648194Y-125509834D01*
X106248194Y-126549064D01*
X106248194Y-126549064D01*
G37*
G36*
X105448194Y-125163424D02*
X104408964Y-125763424D01*
X103808964Y-124724194D01*
X104848194Y-124124194D01*
X105448194Y-125163424D01*
X105448194Y-125163424D01*
G37*
G36*
X104340195Y-89303064D02*
X103300965Y-88703064D01*
X103900965Y-87663834D01*
X104940195Y-88263834D01*
X104340195Y-89303064D01*
X104340195Y-89303064D01*
G37*
G36*
X105140195Y-87917424D02*
X104100965Y-87317424D01*
X104700965Y-86278194D01*
X105740195Y-86878194D01*
X105140195Y-87917424D01*
X105140195Y-87917424D01*
G37*
D11*
X136994578Y-68232630D03*
X138594578Y-68232630D03*
D10*
G36*
X169848969Y-86624199D02*
X170888199Y-86024199D01*
X171488199Y-87063429D01*
X170448969Y-87663429D01*
X169848969Y-86624199D01*
X169848969Y-86624199D01*
G37*
G36*
X170648969Y-88009839D02*
X171688199Y-87409839D01*
X172288199Y-88449069D01*
X171248969Y-89049069D01*
X170648969Y-88009839D01*
X170648969Y-88009839D01*
G37*
G36*
X170486963Y-124632194D02*
X171526193Y-125232194D01*
X170926193Y-126271424D01*
X169886963Y-125671424D01*
X170486963Y-124632194D01*
X170486963Y-124632194D01*
G37*
G36*
X169686963Y-126017834D02*
X170726193Y-126617834D01*
X170126193Y-127657064D01*
X169086963Y-127057064D01*
X169686963Y-126017834D01*
X169686963Y-126017834D01*
G37*
D11*
X138594581Y-144432634D03*
X136994581Y-144432634D03*
M02*
