M48
;DRILL file {KiCad 4.0.5+dfsg1-4} date Thu Nov 23 17:58:15 2017
;FORMAT={-:-/ absolute / inch / decimal}
FMAT,2
INCH,TZ
T1C0.016
%
G90
G05
M72
T1
X4.9016Y-4.432
X4.938Y-4.4351
X4.9708Y-3.8723
X4.9764Y-4.4417
X4.9867Y-3.9047
X5.0003Y-3.9977
X5.0027Y-3.9371
X5.0294Y-4.4748
X5.05Y-5.63
X5.1284Y-4.4986
X5.16Y-4.4986
X5.16Y-5.43
X5.1944Y-4.451
X5.1957Y-4.4187
X5.1961Y-4.4989
X5.2Y-5.5342
X5.2195Y-4.375
X5.288Y-4.9994
X5.3199Y-3.7535
X5.32Y-4.915
X5.325Y-5.
X5.3274Y-5.3018
X5.3274Y-5.065
X5.3542Y-4.7705
X5.3792Y-4.7455
X5.3903Y-3.865
X5.4022Y-5.3061
X5.4042Y-4.7155
X5.415Y-4.55
X5.425Y-5.17
X5.4275Y-4.8808
X5.44Y-3.865
X5.4491Y-3.7066
X5.45Y-4.55
X5.4741Y-3.6795
X5.485Y-4.27
X5.485Y-4.585
X5.485Y-4.63
X5.4851Y-4.6672
X5.4962Y-5.0257
X5.4963Y-3.6495
X5.5082Y-4.2926
X5.5146Y-5.0514
X5.5268Y-4.3182
X5.53Y-5.17
X5.5303Y-4.9847
X5.5312Y-4.92
X5.577Y-5.4963
X5.5788Y-5.025
X5.605Y-5.075
X5.605Y-5.115
X5.605Y-5.155
X5.605Y-5.195
X5.8227Y-3.953
X5.83Y-5.595
X5.8428Y-4.4882
X5.8493Y-4.19
X5.8493Y-4.255
X5.8493Y-4.39
X5.8563Y-4.5248
X5.8719Y-4.5577
X5.8731Y-3.9873
X5.9Y-4.255
X5.9116Y-3.994
X5.913Y-4.19
X5.935Y-4.43
X5.9492Y-3.999
T0
M30
